<svg width="24" height="24" viewBox="0 0 24 24" fill="none" xmlns="http://www.w3.org/2000/svg">
<g clip-path="url(#clip0_1101_6522)">
<path d="M21.2245 8.46425C20.7904 8.46425 20.4496 7.59338 19.9789 6.26526C19.4043 4.64329 18.6891 2.625 17.0867 2.625C14.7291 2.625 13.7907 7.11386 12.9626 11.0746C12.6317 12.656 12.0848 15.2719 11.6758 15.7502C11.2699 15.6726 10.9393 14.8227 10.4908 13.5571C9.91591 11.9352 9.2004 9.91695 7.59769 9.91695C5.99499 9.91695 5.27972 11.9352 4.70492 13.5567C4.23413 14.8853 3.89306 15.7561 3.45828 15.7561C2.94916 15.7561 2.53662 16.3422 2.53662 17.0656C2.53662 17.7889 2.94916 18.375 3.45828 18.375C5.06098 18.375 5.77656 16.3567 6.35137 14.7348C6.82215 13.4066 7.16323 12.5358 7.59769 12.5358C8.03241 12.5358 8.37355 13.4066 8.84427 14.7353C9.41908 16.3567 10.1347 18.375 11.737 18.375C13.3589 18.375 13.9941 15.3375 14.7294 11.8201C15.277 9.20121 16.1044 5.24389 17.0867 5.24389C17.5208 5.24389 17.8617 6.11476 18.3324 7.44297C18.9069 9.06485 19.6221 11.0831 21.2245 11.0831C21.7337 11.0831 22.1462 10.497 22.1462 9.77369C22.1462 9.05036 21.7337 8.46425 21.2245 8.46425Z" fill="#5352BE"/>
</g>
<defs>
<clipPath id="clip0_1101_6522">
<rect width="24" height="24" fill="white"/>
</clipPath>
</defs>
</svg>
