<svg width="24" height="24" viewBox="0 0 24 24" fill="none" xmlns="http://www.w3.org/2000/svg">
<path d="M8.36831 10.1303C9.47395 9.54407 10.713 9.23291 12 9.23291C13.287 9.23291 14.526 9.54407 15.6316 10.1303L17.7485 6.46384C17.3996 6.27348 17.0405 6.09993 16.6716 5.94388C15.1908 5.31757 13.619 5 12 5C10.3809 5 8.80917 5.31757 7.32839 5.94388C6.95945 6.09993 6.60032 6.27349 6.25146 6.46384L8.36831 10.1303Z" fill="#708AB9"/>
<path d="M7.86695 10.4208L5.74974 6.75366C4.94131 7.2472 4.19345 7.836 3.51472 8.51473C2.41334 9.61611 1.54839 10.8992 0.943894 12.3284C0.317567 13.8092 0 15.381 0 17H4.23291C4.23291 14.9254 5.04083 12.9748 6.50783 11.5078C6.92457 11.0911 7.38042 10.7277 7.86695 10.4208Z" fill="#5352BE"/>
<path d="M23.0559 12.3284C22.4514 10.8992 21.5864 9.61611 20.485 8.51474C19.8063 7.836 19.0585 7.2472 18.25 6.75366L16.1328 10.4208C16.6193 10.7277 17.0752 11.0911 17.4919 11.5079C18.9589 12.9749 19.7669 14.9254 19.7669 17H23.9998C23.9998 15.381 23.6822 13.8092 23.0559 12.3284Z" fill="#8087E8"/>
<path d="M17.1217 12.8166L12.7905 15.1174C13.4121 15.3787 13.8766 15.9389 14.0052 16.618L17.1548 12.8575C17.1737 12.8349 17.1477 12.8027 17.1217 12.8166Z" fill="#20202C"/>
<path d="M12.0003 18.4178C12.7833 18.4178 13.418 17.783 13.418 17C13.418 16.217 12.7833 15.5823 12.0003 15.5823C11.2173 15.5823 10.5825 16.217 10.5825 17C10.5825 17.783 11.2173 18.4178 12.0003 18.4178Z" fill="#20202C"/>
</svg>
