<svg width="32" height="32" viewBox="0 0 32 32" fill="none" xmlns="http://www.w3.org/2000/svg">
<path d="M14.5027 10.157C15.3665 9.64003 16.7532 9.66679 17.6004 10.2175L29.8739 18.1955C30.7212 18.7463 30.7081 19.6133 29.8445 20.1304L17.3325 27.6203C16.4687 28.1374 15.0803 28.1106 14.233 27.5598L1.95956 19.5818C1.11255 19.031 1.127 18.164 1.99067 17.6469L14.5027 10.157ZM16.5892 22.9382C16.1672 22.6596 15.473 22.6386 15.0386 22.8913L13.4655 23.807C13.0309 24.0598 13.0211 24.4909 13.443 24.7696L14.9712 25.7771C15.3932 26.0556 16.0873 26.0767 16.5218 25.824L18.0948 24.9102C18.5294 24.6574 18.5393 24.2263 18.1173 23.9476L16.5892 22.9382ZM21.3101 20.191C20.8881 19.9128 20.1938 19.8915 19.7595 20.1441L18.1865 21.0598C17.7519 21.3126 17.742 21.7437 18.164 22.0224L19.6921 23.0319C20.1141 23.3102 20.8083 23.3314 21.2427 23.0787L22.8158 22.163C23.2504 21.9102 23.2602 21.4791 22.8383 21.2004L21.3101 20.191ZM12.0048 19.9098C11.5828 19.6315 10.8885 19.6103 10.4542 19.863L8.8811 20.7787C8.44653 21.0315 8.43666 21.4626 8.85863 21.7413L10.3868 22.7507C10.8088 23.029 11.503 23.0502 11.9374 22.7976L13.5104 21.8818C13.945 21.6291 13.9549 21.198 13.5329 20.9193L12.0048 19.9098ZM26.0311 17.4457C25.6091 17.1674 24.9149 17.1462 24.4805 17.3989L22.9074 18.3146C22.4731 18.5674 22.463 18.9985 22.8849 19.2772L24.4131 20.2847C24.8351 20.5634 25.5291 20.5843 25.9637 20.3316L27.5368 19.4178C27.9713 19.165 27.9812 18.7339 27.5592 18.4552L26.0311 17.4457ZM16.7257 17.1646C16.3037 16.8861 15.6096 16.865 15.1751 17.1177L13.6021 18.0315C13.1675 18.2843 13.1576 18.7154 13.5796 18.9941L15.1077 20.0035C15.5297 20.2821 16.2238 20.3031 16.6583 20.0504L18.2314 19.1347C18.666 18.8819 18.6758 18.4527 18.2539 18.174L16.7257 17.1646ZM7.42211 16.8834C7.00015 16.6047 6.30435 16.5818 5.86978 16.8346L4.2967 17.7503C3.86213 18.0031 3.85226 18.4342 4.27423 18.7129L5.80236 19.7224C6.22436 20.0009 6.91849 20.022 7.35297 19.7692L8.92605 18.8535C9.36061 18.6007 9.37048 18.1696 8.94852 17.8909L7.42211 16.8834ZM21.4484 14.4174C21.0265 14.1387 20.3307 14.1178 19.8961 14.3705L18.323 15.2863C17.8886 15.5391 17.8786 15.9702 18.3006 16.2489L19.8287 17.2583C20.2506 17.5367 20.9449 17.5578 21.3793 17.3052L22.9524 16.3894C23.3867 16.1368 23.398 15.7056 22.9766 15.4268L21.4484 14.4174ZM12.1431 14.1362C11.7211 13.8575 11.0253 13.8366 10.5907 14.0894L9.01766 15.0051C8.58333 15.2579 8.5733 15.689 8.99519 15.9677L10.5233 16.9771C10.9452 17.2554 11.6395 17.2765 12.0739 17.024L13.647 16.1083C14.0813 15.8556 14.0925 15.4244 13.6712 15.1457L12.1431 14.1362ZM16.864 11.3891C16.4424 11.1106 15.7481 11.09 15.3134 11.3422L13.7386 12.2579C13.3041 12.5107 13.2943 12.9418 13.7162 13.2205L15.2443 14.23C15.6662 14.5086 16.3603 14.5295 16.7949 14.2768L18.368 13.3611C18.8025 13.1083 18.814 12.6772 18.3922 12.3985L16.864 11.3891Z" fill="#75738C"/>
<path d="M14.6686 4.38009C15.5324 3.8631 16.9192 3.88986 17.7664 4.44061L30.0399 12.4186C30.8871 12.9694 30.8741 13.8363 30.0105 14.3535L17.4985 21.8433C16.6347 22.3605 15.2463 22.3336 14.399 21.7828L2.12551 13.8049C1.2785 13.254 1.29295 12.387 2.15663 11.8699L14.6686 4.38009ZM16.7551 17.1612C16.3331 16.8827 15.639 16.8616 15.2045 17.1144L13.6314 18.0301C13.1969 18.2829 13.187 18.714 13.609 18.9927L15.1371 20.0002C15.5591 20.2787 16.2532 20.2998 16.6877 20.047L18.2608 19.1333C18.6954 18.8805 18.7052 18.4494 18.2833 18.1707L16.7551 17.1612ZM21.4761 14.414C21.0541 14.1358 20.3598 14.1145 19.9255 14.3672L18.3524 15.2829C17.9178 15.5357 17.908 15.9668 18.3299 16.2455L19.8581 17.2549C20.2801 17.5333 20.9743 17.5545 21.4087 17.3018L22.9818 16.3861C23.4163 16.1333 23.4262 15.7022 23.0042 15.4235L21.4761 14.414ZM12.1707 14.1329C11.7487 13.8546 11.0545 13.8334 10.6201 14.086L9.04705 15.0017C8.61248 15.2545 8.60261 15.6856 9.02458 15.9643L10.5527 16.9738C10.9747 17.2521 11.669 17.2733 12.1033 17.0206L13.6764 16.1049C14.111 15.8521 14.1208 15.421 13.6989 15.1423L12.1707 14.1329ZM26.1971 11.6688C25.775 11.3904 25.0808 11.3693 24.6465 11.622L23.0734 12.5377C22.639 12.7905 22.629 13.2216 23.0509 13.5003L24.579 14.5078C25.001 14.7864 25.6951 14.8074 26.1296 14.5546L27.7027 13.6408C28.1373 13.3881 28.1472 12.957 27.7252 12.6783L26.1971 11.6688ZM16.8917 11.3876C16.4697 11.1092 15.7755 11.0881 15.3411 11.3408L13.768 12.2546C13.3334 12.5074 13.3236 12.9385 13.7455 13.2172L15.2737 14.2266C15.6957 14.5052 16.3898 14.5262 16.8243 14.2735L18.3974 13.3577C18.8319 13.1049 18.8418 12.6758 18.4198 12.3971L16.8917 11.3876ZM7.58807 11.1065C7.1661 10.8278 6.4703 10.8049 6.03573 11.0577L4.46265 11.9734C4.02809 12.2262 4.01821 12.6573 4.44018 12.936L5.96831 13.9454C6.39031 14.224 7.08445 14.245 7.51892 13.9923L9.092 13.0766C9.52656 12.8238 9.53643 12.3927 9.11447 12.114L7.58807 11.1065ZM21.6144 8.64047C21.1924 8.36177 20.4966 8.34082 20.0621 8.59361L18.489 9.50933C18.0545 9.76213 18.0446 10.1933 18.4665 10.4719L19.9946 11.4814C20.4166 11.7598 21.1108 11.7808 21.5452 11.5282L23.1183 10.6125C23.5527 10.3598 23.5639 9.92862 23.1425 9.64991L21.6144 8.64047ZM12.309 8.3593C11.8871 8.08061 11.1913 8.05966 10.7567 8.31244L9.18362 9.22817C8.74928 9.48098 8.73925 9.91212 9.16114 10.1908L10.6893 11.2002C11.1112 11.4785 11.8055 11.4996 12.2399 11.2471L13.813 10.3313C14.2473 10.0787 14.2585 9.64746 13.8372 9.36875L12.309 8.3593ZM17.03 5.61212C16.6083 5.33363 15.914 5.31306 15.4794 5.56526L13.9046 6.48099C13.4701 6.73377 13.4602 7.16489 13.8821 7.44358L15.4102 8.45302C15.8322 8.73166 16.5263 8.7526 16.9608 8.49989L18.5339 7.58416C18.9684 7.33141 18.9799 6.90027 18.5581 6.62157L17.03 5.61212Z" fill="#8791FF"/>
</svg>
