<svg width="32" height="32" viewBox="0 0 32 32" fill="none" xmlns="http://www.w3.org/2000/svg">
<path d="M16 14.7402C16 13.8897 16.7052 13.2002 17.575 13.2002H27.025C27.8948 13.2002 28.6 13.8897 28.6 14.7402V27.0602C28.6 27.9107 27.8948 28.6002 27.025 28.6002H17.575C16.7052 28.6002 16 27.9107 16 27.0602V14.7402Z" fill="#A7F3D0"/>
<path d="M3.3999 22.6283C3.3999 21.5289 4.13117 20.6377 5.03324 20.6377H11.5666C12.4686 20.6377 13.1999 21.5289 13.1999 22.6283V26.6096C13.1999 27.709 12.4686 28.6002 11.5666 28.6002H5.03324C4.13117 28.6002 3.3999 27.709 3.3999 26.6096V22.6283Z" fill="black"/>
<path d="M16 5.1499C16 4.1834 16.7052 3.3999 17.575 3.3999H27.025C27.8948 3.3999 28.6 4.1834 28.6 5.1499V8.6499C28.6 9.6164 27.8948 10.3999 27.025 10.3999H17.575C16.7052 10.3999 16 9.6164 16 8.6499V5.1499Z" fill="#75738C"/>
<path d="M3.3999 4.7999C3.3999 4.0267 4.13117 3.3999 5.03324 3.3999H11.5666C12.4686 3.3999 13.1999 4.0267 13.1999 4.7999V15.9999C13.1999 16.7731 12.4686 17.3999 11.5666 17.3999H5.03324C4.13117 17.3999 3.3999 16.7731 3.3999 15.9999V4.7999Z" fill="#8791FF"/>
</svg>
