<svg width="32" height="32" viewBox="0 0 32 32" fill="none" xmlns="http://www.w3.org/2000/svg">
<path d="M8.9999 20.1999L3.3999 28.5999H28.5999L22.9999 20.1999L15.8249 28.1624L8.9999 20.1999Z" fill="#A7F3D0"/>
<path d="M15.8249 28.5999L22.9999 20.2874L15.8249 23.1749L8.9999 20.2874L15.8249 28.5999Z" fill="#75738C"/>
<path fill-rule="evenodd" clip-rule="evenodd" d="M15.9999 3.3999C19.4813 3.41427 22.2997 6.27687 22.2999 9.80518C22.2997 11.6395 21.5734 12.8508 20.3147 14.4604L15.9944 20.2163L11.6851 14.4604C10.3303 12.447 9.70006 11.6394 9.6999 9.80518C9.70012 6.27687 12.5185 3.41427 15.9999 3.3999ZM15.9999 7.1624C14.9126 7.1624 14.0312 8.04384 14.0312 9.13115C14.0312 10.2185 14.9126 11.0999 15.9999 11.0999C17.0872 11.0999 17.9687 10.2185 17.9687 9.13115C17.9687 8.04384 17.0872 7.1624 15.9999 7.1624Z" fill="#8791FF"/>
</svg>
