<svg width="32" height="32" viewBox="0 0 32 32" fill="none" xmlns="http://www.w3.org/2000/svg">
<path fill-rule="evenodd" clip-rule="evenodd" d="M15.9996 2.99951C23.4555 2.99951 29.5006 9.04464 29.5006 16.5005C29.5004 23.9562 23.4553 30.0001 15.9996 30.0001C8.54407 29.9999 2.50021 23.956 2.5 16.5005C2.5 9.04477 8.54394 2.99972 15.9996 2.99951ZM15.9996 9.29951C12.0233 9.29972 8.8 12.5242 8.8 16.5005C8.80021 20.4766 12.0235 23.6999 15.9996 23.7001C19.9759 23.7001 23.2004 20.4768 23.2006 16.5005C23.2006 12.524 19.9761 9.29951 15.9996 9.29951Z" fill="#A7F3D0"/>
<path d="M16 14C17.3807 14 18.5 15.1193 18.5 16.5C18.5 17.8807 17.3807 19 16 19C14.6193 19 13.5 17.8807 13.5 16.5C13.5 15.1193 14.6193 14 16 14Z" fill="black" stroke="black"/>
<path d="M16 2C22.0846 2 27.2935 5.74791 29.4449 11.0609L16.0418 16.5L9.81055 3.38379C11.6877 2.49641 13.7859 2 16 2Z" fill="#8791FF"/>
<path d="M15.9997 13.4995C17.2625 13.4995 18.3407 14.2815 18.7833 15.3862L16.042 16.5005L14.7473 13.7757C15.1287 13.6 15.5523 13.4996 15.9997 13.4995Z" fill="white"/>
</svg>
