<svg width="16" height="16" viewBox="0 0 16 16" fill="none" xmlns="http://www.w3.org/2000/svg">
<path d="M8.00005 8.00016L1.55456 6.29719C1.13987 7.86673 1.31213 9.53365 2.03902 10.9852C2.76591 12.4368 3.99748 13.5733 5.50267 14.1814L8.00005 8.00016ZM8.00005 8.00016L8.06986 1.33386C6.59042 1.31837 5.14787 1.79545 3.96939 2.68996C2.79091 3.58448 1.94347 4.8456 1.56054 6.2747L8.00005 8.00016ZM14.6667 8.00016C14.6667 11.6821 11.6819 14.6668 8.00005 14.6668C4.31815 14.6668 1.33338 11.6821 1.33338 8.00016C1.33338 4.31826 4.31815 1.3335 8.00005 1.3335C11.6819 1.3335 14.6667 4.31826 14.6667 8.00016Z" stroke="#18171C" stroke-width="1.33" stroke-linecap="round" stroke-linejoin="round"/>
</svg>
