<svg width="12" height="12" viewBox="0 0 12 12" fill="none" xmlns="http://www.w3.org/2000/svg">
<path d="M6.00001 6L1.16589 4.72277C0.854871 5.89993 0.984066 7.15012 1.52923 8.2388C2.0744 9.32747 2.99808 10.1798 4.12697 10.6359L6.00001 6ZM6.00001 6L6.05236 1.00027C4.94279 0.988655 3.86087 1.34646 2.97701 2.01735C2.09315 2.68824 1.45757 3.63408 1.17038 4.7059L6.00001 6ZM11 6C11 8.76142 8.76143 11 6.00001 11C3.23858 11 1.00001 8.76142 1.00001 6C1.00001 3.23858 3.23858 1 6.00001 1C8.76143 1 11 3.23858 11 6Z" stroke="#18171C" stroke-linecap="round" stroke-linejoin="round"/>
</svg>
