<svg width="12" height="12" viewBox="0 0 12 12" fill="none" xmlns="http://www.w3.org/2000/svg">
<path d="M3.4 1.5H3.1C2.53995 1.5 2.25992 1.5 2.04601 1.60899C1.85785 1.70487 1.70487 1.85785 1.60899 2.04601C1.5 2.25992 1.5 2.53995 1.5 3.1V8.9C1.5 9.46005 1.5 9.74008 1.60899 9.95399C1.70487 10.1422 1.85785 10.2951 2.04601 10.391C2.25992 10.5 2.53995 10.5 3.1 10.5H3.4C3.96005 10.5 4.24008 10.5 4.45399 10.391C4.64215 10.2951 4.79513 10.1422 4.89101 9.95399C5 9.74008 5 9.46005 5 8.9V3.1C5 2.53995 5 2.25992 4.89101 2.04601C4.79513 1.85785 4.64215 1.70487 4.45399 1.60899C4.24008 1.5 3.96005 1.5 3.4 1.5Z" stroke="#18171C" stroke-linecap="round" stroke-linejoin="round"/>
<path d="M8.9 1.5H8.6C8.03995 1.5 7.75992 1.5 7.54601 1.60899C7.35785 1.70487 7.20487 1.85785 7.10899 2.04601C7 2.25992 7 2.53995 7 3.1V8.9C7 9.46005 7 9.74008 7.10899 9.95399C7.20487 10.1422 7.35785 10.2951 7.54601 10.391C7.75992 10.5 8.03995 10.5 8.6 10.5H8.9C9.46005 10.5 9.74008 10.5 9.95399 10.391C10.1422 10.2951 10.2951 10.1422 10.391 9.95399C10.5 9.74008 10.5 9.46005 10.5 8.9V3.1C10.5 2.53995 10.5 2.25992 10.391 2.04601C10.2951 1.85785 10.1422 1.70487 9.95399 1.60899C9.74008 1.5 9.46005 1.5 8.9 1.5Z" stroke="#18171C" stroke-linecap="round" stroke-linejoin="round"/>
</svg>
