<svg width="28" height="28" viewBox="0 0 28 28" fill="none" xmlns="http://www.w3.org/2000/svg">
<g clip-path="url(#clip0_840_2709)">
<path d="M13.85 27.85C21.4991 27.85 27.7 21.6492 27.7 14C27.7 6.35088 21.4991 0.150024 13.85 0.150024C6.20086 0.150024 0 6.35088 0 14C0 21.6492 6.20086 27.85 13.85 27.85Z" fill="#F0F0F0"/>
<path d="M4.05656 23.7935C-1.35219 18.3847 -1.35219 9.61535 4.05656 4.20654C4.05618 4.20714 12.0435 14 12.0435 14L4.05656 23.7935Z" fill="black"/>
<path d="M12.0433 14L1.83674 7.10278C1.5203 7.65283 1.24124 8.22696 1.00146 8.82121L6.16865 14.0001L1.00163 19.1792C1.24119 19.773 1.51997 20.3468 1.8362 20.8965L12.0433 14Z" fill="#FFDA44"/>
<path d="M27.5828 12.1935H12.0432L4.05648 4.20679C3.19584 5.06743 2.4481 6.04078 1.83697 7.10284L8.7208 14L1.83643 20.8964C2.44756 21.9587 3.19562 22.9324 4.05648 23.7932L12.0432 15.8065H27.5828C27.6598 15.2152 27.7001 14.6123 27.7001 14C27.7001 13.3878 27.6598 12.7849 27.5828 12.1935Z" fill="#6DA544"/>
<path d="M5.41748 24.9868C7.75299 26.782 10.6765 27.85 13.8499 27.85C20.2489 27.85 25.6334 23.5099 27.2227 17.613H12.7913L5.41748 24.9868Z" fill="#0052B4"/>
<path d="M27.2227 10.387C25.6334 4.49011 20.2489 0.150024 13.8499 0.150024C10.6765 0.150024 7.75299 1.21804 5.41748 3.01324L12.7912 10.387H27.2227Z" fill="#D80027"/>
</g>
<defs>
<clipPath id="clip0_840_2709">
<rect width="27.7" height="27.7" fill="white" transform="translate(0 0.150024)"/>
</clipPath>
</defs>
</svg>
