<svg width="28" height="28" viewBox="0 0 28 28" fill="none" xmlns="http://www.w3.org/2000/svg">
<g clip-path="url(#clip0_840_2685)">
<path d="M13.85 27.85C21.4991 27.85 27.7 21.6492 27.7 14C27.7 6.35088 21.4991 0.150024 13.85 0.150024C6.20086 0.150024 0 6.35088 0 14C0 21.6492 6.20086 27.85 13.85 27.85Z" fill="#D80027"/>
<path d="M7.57953 8.5791L8.77518 12.258H12.6434L9.51637 14.5357L10.712 18.2146L7.57953 15.9423L4.44705 18.2146L5.64811 14.5357L2.51562 12.258H6.38389L7.57953 8.5791Z" fill="#FFDA44"/>
<path d="M16.4196 21.6014L15.5053 20.476L14.1528 21.0008L14.9373 19.7835L14.0229 18.6528L15.4242 19.0261L16.2141 17.8088L16.2898 19.2588L17.6964 19.6321L16.3385 20.1514L16.4196 21.6014Z" fill="#FFDA44"/>
<path d="M18.2374 18.3011L18.6702 16.9161L17.4854 16.0775L18.9353 16.0559L19.3627 14.6709L19.8334 16.0451L21.2833 16.0288L20.1201 16.8945L20.5854 18.2687L19.4005 17.4301L18.2374 18.3011Z" fill="#FFDA44"/>
<path d="M20.6883 10.3158L20.0499 11.6196L21.0887 12.6313L19.655 12.4257L19.0166 13.7242L18.7677 12.2959L17.3286 12.0903L18.6162 11.414L18.3674 9.98035L19.4061 10.992L20.6883 10.3158Z" fill="#FFDA44"/>
<path d="M16.4576 6.36633L16.3494 7.81085L17.6966 8.35727L16.2845 8.70352L16.1817 10.1534L15.4189 8.91993L14.0068 9.26618L14.9428 8.1571L14.1746 6.92899L15.5217 7.47542L16.4576 6.36633Z" fill="#FFDA44"/>
</g>
<defs>
<clipPath id="clip0_840_2685">
<rect width="27.7" height="27.7" fill="white" transform="translate(0 0.150024)"/>
</clipPath>
</defs>
</svg>
