<svg width="28" height="28" viewBox="0 0 28 28" fill="none" xmlns="http://www.w3.org/2000/svg">
<g clip-path="url(#clip0_840_2645)">
<path d="M27.7 14C27.7 21.6491 21.4991 27.85 13.85 27.85C6.2009 27.85 0 21.6491 0 14C0 14.0033 13.85 0.151593 13.85 0.150024C21.4991 0.150024 27.7 6.35093 27.7 14Z" fill="#0052B4"/>
<path d="M13.813 14.0001H13.85C13.85 13.9875 13.85 13.9755 13.85 13.963C13.8377 13.9754 13.8254 13.9877 13.813 14.0001Z" fill="#F0F0F0"/>
<path d="M13.85 7.3761C13.85 4.93909 13.85 3.34218 13.85 0.150024H13.8477C6.19961 0.151269 0 6.35158 0 14H7.22608V9.93088L11.2952 14H13.813C13.8254 13.9876 13.8377 13.9753 13.8501 13.9629C13.8501 13.0298 13.8501 12.1973 13.8501 11.4452L9.78091 7.3761H13.85Z" fill="#F0F0F0"/>
<path d="M7.0071 1.95654C4.84093 3.19 3.0401 4.99083 1.80664 7.157V14H5.41971V5.56966V5.56961H13.8501C13.8501 4.43007 13.8501 3.34446 13.8501 1.95654H7.0071Z" fill="#D80027"/>
<path d="M13.8499 12.2969L8.92925 7.37624H7.22607C7.22607 7.37619 7.22607 7.37624 7.22607 7.37624L13.8499 14.0001H13.8499C13.8499 14.0001 13.8499 12.8258 13.8499 12.2969Z" fill="#D80027"/>
<path d="M8.35293 16.4087L9.11306 17.9981L10.8295 17.6014L10.0609 19.1866L11.4412 20.2813L9.72256 20.6686L9.72738 22.4304L8.35293 21.3282L6.97853 22.4304L6.98335 20.6686L5.26465 20.2813L6.64505 19.1866L5.87627 17.6014L7.59285 17.9981L8.35293 16.4087Z" fill="#F0F0F0"/>
<path d="M20.736 19.4196L21.1161 20.2143L21.9743 20.0159L21.5899 20.8085L22.2802 21.3558L21.4208 21.5495L21.4232 22.4304L20.736 21.8793L20.0488 22.4304L20.0512 21.5495L19.1919 21.3558L19.8821 20.8085L19.4977 20.0159L20.3559 20.2143L20.736 19.4196Z" fill="#F0F0F0"/>
<path d="M17.2004 10.9891L17.5804 11.7839L18.4387 11.5854L18.0544 12.3781L18.7445 12.9254L17.8852 13.1191L17.8876 14L17.2004 13.4489L16.5132 14L16.5155 13.1191L15.6562 12.9254L16.3464 12.3781L15.9621 11.5854L16.8204 11.7839L17.2004 10.9891Z" fill="#F0F0F0"/>
<path d="M20.736 6.17175L21.1161 6.96651L21.9743 6.76811L21.59 7.56076L22.2801 8.10805L21.4208 8.30179L21.4232 9.18267L20.736 8.63153L20.0488 9.18267L20.0512 8.30179L19.1919 8.10805L19.882 7.56076L19.4977 6.76811L20.3559 6.96651L20.736 6.17175Z" fill="#F0F0F0"/>
<path d="M23.8244 9.78479L24.2045 10.5795L25.0627 10.3811L24.6784 11.1737L25.3686 11.7211L24.5092 11.9148L24.5116 12.7957L23.8244 12.2446L23.1372 12.7957L23.1396 11.9148L22.2803 11.7211L22.9704 11.1737L22.5861 10.3811L23.4443 10.5795L23.8244 9.78479Z" fill="#F0F0F0"/>
<path d="M21.616 14L21.9149 14.9201H22.8823L22.0996 15.4887L22.3987 16.4087L21.616 15.8401L20.8333 16.4087L21.1322 15.4887L20.3496 14.9201H21.317L21.616 14Z" fill="#F0F0F0"/>
</g>
<defs>
<clipPath id="clip0_840_2645">
<rect width="27.7" height="27.7" fill="white" transform="translate(0 0.150024)"/>
</clipPath>
</defs>
</svg>
