<svg xmlns="http://www.w3.org/2000/svg" xmlns:xlink="http://www.w3.org/1999/xlink" version="1.1" width="28" height="28" viewBox="0 0 256 256" xml:space="preserve">
<g style="stroke: none; stroke-width: 0; stroke-dasharray: none; stroke-linecap: butt; stroke-linejoin: miter; stroke-miterlimit: 10; fill: none; fill-rule: nonzero; opacity: 1;" transform="translate(1.4065934065934016 1.4065934065934016) scale(2.81 2.81)">
	<path d="M 68.88 6.865 l 0 76.27 C 81.563 75.176 90 61.077 90 45 C 90 28.923 81.563 14.824 68.88 6.865 z" style="stroke: none; stroke-width: 1; stroke-dasharray: none; stroke-linecap: butt; stroke-linejoin: miter; stroke-miterlimit: 10; fill: rgb(191,10,48); fill-rule: nonzero; opacity: 1;" transform=" matrix(1 0 0 1 0 0) " stroke-linecap="round"/>
	<path d="M 21.12 6.865 C 8.438 14.824 0 28.923 0 45 c 0 16.077 8.438 30.176 21.12 38.135 V 6.865 z" style="stroke: none; stroke-width: 1; stroke-dasharray: none; stroke-linecap: butt; stroke-linejoin: miter; stroke-miterlimit: 10; fill: rgb(191,10,48); fill-rule: nonzero; opacity: 1;" transform=" matrix(1 0 0 1 0 0) " stroke-linecap="round"/>
	<path d="M 68.881 6.865 C 61.958 2.521 53.776 0 45 0 c -8.776 0 -16.958 2.521 -23.88 6.865 v 76.27 C 28.042 87.479 36.224 90 45 90 c 8.776 0 16.958 -2.521 23.881 -6.865 V 6.865 z" style="stroke: none; stroke-width: 1; stroke-dasharray: none; stroke-linecap: butt; stroke-linejoin: miter; stroke-miterlimit: 10; fill: rgb(243,244,245); fill-rule: nonzero; opacity: 1;" transform=" matrix(1 0 0 1 0 0) " stroke-linecap="round"/>
	<path d="M 45.314 67.549 l -0.423 -9.35 l 9.377 1.112 c -0.58 -1.226 -1.097 -1.876 -0.56 -3.836 l 8.624 -7.175 l -1.509 -0.546 c -1.234 -0.952 0.533 -4.586 0.8 -6.879 c 0 0 -5.035 1.732 -5.365 0.826 l -1.282 -2.463 l -4.581 5.032 c -0.5 0.12 -0.714 -0.079 -0.831 -0.502 l 2.116 -10.516 l -3.351 1.885 c -0.281 0.12 -0.561 0.016 -0.746 -0.31 l -3.223 -6.468 l -3.324 6.717 c -0.25 0.241 -0.501 0.269 -0.71 0.105 l -3.191 -1.79 l 1.916 10.434 c -0.152 0.414 -0.517 0.531 -0.947 0.306 l -4.379 -4.975 c -0.573 0.918 -0.961 2.417 -1.718 2.753 c -0.757 0.315 -3.293 -0.636 -4.993 -1.007 c 0.581 2.096 2.396 5.577 1.247 6.718 l 0.001 -0.001 l -1.855 0.634 l 8.629 7.573 c 0.653 1.946 -0.227 2.52 -0.787 3.541 l 9.368 -1.189 l -0.244 9.428 L 45.314 67.549 z" style="stroke: none; stroke-width: 1; stroke-dasharray: none; stroke-linecap: butt; stroke-linejoin: miter; stroke-miterlimit: 10; fill: rgb(191,10,48); fill-rule: nonzero; opacity: 1;" transform=" matrix(1 0 0 1 0 0) " stroke-linecap="round"/>
</g>
</svg>