<svg width="28" height="28" viewBox="0 0 28 28" fill="none" xmlns="http://www.w3.org/2000/svg">
<g clip-path="url(#clip0_840_2573)">
<path d="M13.85 27.85C21.4991 27.85 27.7 21.6492 27.7 14C27.7 6.35088 21.4991 0.150024 13.85 0.150024C6.20086 0.150024 0 6.35088 0 14C0 21.6492 6.20086 27.85 13.85 27.85Z" fill="#0052B4"/>
<path d="M13.8497 5.56958L14.2981 6.94966H15.7492L14.5752 7.80257L15.0237 9.18264L13.8497 8.32968L12.6757 9.18264L13.1241 7.80257L11.9502 6.94966H13.4013L13.8497 5.56958Z" fill="#FFDA44"/>
<path d="M7.88867 8.03875L9.1817 8.69749L10.2077 7.67151L9.98067 9.10466L11.2736 9.76345L9.84044 9.99046L9.61343 11.4237L8.95464 10.1307L7.52148 10.3578L8.54752 9.33178L7.88867 8.03875Z" fill="#FFDA44"/>
<path d="M5.41943 14L6.79951 13.5515V12.1005L7.65237 13.2745L9.0325 12.826L8.17948 14L9.0325 15.1739L7.65237 14.7255L6.79951 15.8995V14.4484L5.41943 14Z" fill="#FFDA44"/>
<path d="M7.88867 19.9612L8.54747 18.6682L7.52148 17.6421L8.95469 17.8693L9.61338 16.5763L9.84044 18.0095L11.2736 18.2365L9.98078 18.8953L10.2077 20.3285L9.1817 19.3024L7.88867 19.9612Z" fill="#FFDA44"/>
<path d="M13.8497 22.4305L13.4012 21.0504H11.9502L13.1242 20.1975L12.6757 18.8175L13.8497 19.6704L15.0237 18.8175L14.5752 20.1975L15.7492 21.0504H14.2981L13.8497 22.4305Z" fill="#FFDA44"/>
<path d="M19.8111 19.9612L18.5182 19.3025L17.4921 20.3285L17.7191 18.8952L16.4263 18.2365L17.8594 18.0095L18.0864 16.5763L18.7452 17.8693L20.1783 17.6421L19.1523 18.6683L19.8111 19.9612Z" fill="#FFDA44"/>
<path d="M22.2804 14L20.9004 14.4484V15.8995L20.0474 14.7255L18.6675 15.1739L19.5204 14L18.6675 12.826L20.0475 13.2745L20.9004 12.1005V13.5516L22.2804 14Z" fill="#FFDA44"/>
<path d="M19.8111 8.03882L19.1523 9.33185L20.1784 10.3579L18.7451 10.1308L18.0864 11.4237L17.8594 9.99053L16.4263 9.76347L17.7191 9.10473L17.4921 7.67163L18.5182 8.69761L19.8111 8.03882Z" fill="#FFDA44"/>
</g>
<defs>
<clipPath id="clip0_840_2573">
<rect width="27.7" height="27.7" fill="white" transform="translate(0 0.150024)"/>
</clipPath>
</defs>
</svg>
