<svg xmlns="http://www.w3.org/2000/svg" width="28" height="28" viewBox="0 0 512 512" fill="none"><circle cx="256" cy="256" r="256" fill="var(--flag-palette-green, #6da544)"/><path fill="var(--flag-palette-yellow, #ffda44)" d="M256 100.2 467.5 256 256 411.8 44.5 256z"/><path fill="#EEE" d="M256 345a89 89 0 1 0 0-178 89 89 0 0 0 0 178"/><path fill="var(--flag-palette-blue, #0052b4)" fill-rule="evenodd" d="M345 256q0 8.7-1.6 17a183 183 0 0 0-169.2-52A89 89 0 0 1 345 256m-178 1.2A150 150 0 0 1 329 307a89 89 0 0 1-162-50" clip-rule="evenodd"/></svg>