<svg width="28" height="28" viewBox="0 0 28 28" fill="none" xmlns="http://www.w3.org/2000/svg">
<g clip-path="url(#clip0_840_2518)">
<path d="M13.6367 27.6367C21.1681 27.6367 27.2734 21.5314 27.2734 14C27.2734 6.46865 21.1681 0.363281 13.6367 0.363281C6.10537 0.363281 0 6.46865 0 14C0 21.5314 6.10537 27.6367 13.6367 27.6367Z" fill="#F0F0F0"/>
<path d="M2.81892 5.69763C1.74774 7.09129 0.940034 8.6976 0.469727 10.4426H7.56391L2.81892 5.69763Z" fill="#0052B4"/>
<path d="M26.8035 10.4426C26.3332 8.6976 25.5255 7.09129 24.4544 5.69763L19.7095 10.4426H26.8035Z" fill="#0052B4"/>
<path d="M0.469727 17.5575C0.940087 19.3025 1.7478 20.9088 2.81892 22.3024L7.56375 17.5575H0.469727Z" fill="#0052B4"/>
<path d="M21.9388 3.18237C20.5451 2.1112 18.9389 1.30349 17.1938 0.83313V7.92726L21.9388 3.18237Z" fill="#0052B4"/>
<path d="M5.33398 24.8177C6.72765 25.8889 8.33396 26.6966 10.0789 27.167V20.0729L5.33398 24.8177Z" fill="#0052B4"/>
<path d="M10.0789 0.83313C8.3339 1.30349 6.72759 2.1112 5.33398 3.18232L10.0789 7.92721V0.83313Z" fill="#0052B4"/>
<path d="M17.1938 27.167C18.9388 26.6966 20.5451 25.8889 21.9387 24.8178L17.1938 20.0729V27.167Z" fill="#0052B4"/>
<path d="M19.7095 17.5575L24.4544 22.3024C25.5255 20.9088 26.3332 19.3025 26.8035 17.5575H19.7095Z" fill="#0052B4"/>
<path d="M27.158 12.2213H15.4155H15.4155V0.478714C14.8332 0.402913 14.2396 0.363281 13.6367 0.363281C13.0338 0.363281 12.4403 0.402913 11.858 0.478714V12.2212V12.2213H0.115433C0.0396317 12.8035 0 13.3972 0 14C0 14.6029 0.0396317 15.1965 0.115433 15.7787H11.8579H11.858V27.5213C12.4403 27.5971 13.0338 27.6367 13.6367 27.6367C14.2396 27.6367 14.8332 27.5971 15.4154 27.5213V15.7788V15.7787H27.158C27.2338 15.1965 27.2734 14.6029 27.2734 14C27.2734 13.3972 27.2338 12.8035 27.158 12.2213Z" fill="#D80027"/>
<path d="M17.1938 17.5574L23.279 23.6426C23.5589 23.3628 23.8259 23.0703 24.0806 22.7671L18.8708 17.5574H17.1938V17.5574Z" fill="#D80027"/>
<path d="M10.0794 17.5575H10.0793L3.99414 23.6426C4.27391 23.9225 4.5664 24.1895 4.86961 24.4442L10.0794 19.2343V17.5575Z" fill="#D80027"/>
<path d="M10.0791 10.4426V10.4425L3.99397 4.3573C3.71409 4.63707 3.44711 4.92956 3.19238 5.23277L8.40219 10.4426H10.0791V10.4426Z" fill="#D80027"/>
<path d="M17.1938 10.4427L23.2791 4.35744C22.9993 4.07757 22.7068 3.81058 22.4036 3.55591L17.1938 8.76572V10.4427Z" fill="#D80027"/>
</g>
<defs>
<clipPath id="clip0_840_2518">
<rect width="27.2734" height="27.2734" fill="white" transform="translate(0 0.363281)"/>
</clipPath>
</defs>
</svg>
