<svg width="28" height="28" viewBox="0 0 28 28" fill="none" xmlns="http://www.w3.org/2000/svg">
<g clip-path="url(#clip0_840_2621)">
<path d="M13.85 27.85C21.4991 27.85 27.7 21.6492 27.7 14C27.7 6.35088 21.4991 0.150024 13.85 0.150024C6.20086 0.150024 0 6.35088 0 14C0 21.6492 6.20086 27.85 13.85 27.85Z" fill="#F0F0F0"/>
<path d="M13.2476 14H27.6997C27.6997 12.75 27.5331 11.5389 27.2226 10.387H13.2476V14Z" fill="#D80027"/>
<path d="M13.2476 6.77395H25.6669C24.8191 5.39047 23.735 4.16761 22.4711 3.16089H13.2476V6.77395Z" fill="#D80027"/>
<path d="M13.8499 27.85C17.1095 27.85 20.1055 26.7234 22.4713 24.8391H5.22852C7.59438 26.7234 10.5904 27.85 13.8499 27.85Z" fill="#D80027"/>
<path d="M2.03274 21.2261H25.6671C26.3478 20.1155 26.8756 18.9014 27.2228 17.613H0.477051C0.824221 18.9014 1.35209 20.1155 2.03274 21.2261Z" fill="#D80027"/>
<path d="M6.41558 2.3129H7.67771L6.50371 3.16581L6.95216 4.54588L5.77821 3.69297L4.60426 4.54588L4.99163 3.35365C3.95796 4.21467 3.05198 5.22345 2.30538 6.34747H2.70979L1.96248 6.89038C1.84605 7.0846 1.73439 7.28191 1.62738 7.48214L1.98423 8.58045L1.31846 8.09673C1.15296 8.44736 1.00158 8.8059 0.865517 9.17189L1.25867 10.382H2.70979L1.53578 11.2349L1.98423 12.615L0.810279 11.7621L0.107067 12.273C0.0366809 12.8388 0 13.4151 0 14H13.85C13.85 6.35093 13.85 5.44916 13.85 0.150024C11.114 0.150024 8.56347 0.943694 6.41558 2.3129ZM6.95216 12.615L5.77821 11.7621L4.60426 12.615L5.05271 11.2349L3.8787 10.382H5.32982L5.77821 9.00196L6.2266 10.382H7.67771L6.50371 11.2349L6.95216 12.615ZM6.50371 7.20038L6.95216 8.58045L5.77821 7.72754L4.60426 8.58045L5.05271 7.20038L3.8787 6.34747H5.32982L5.77821 4.96739L6.2266 6.34747H7.67771L6.50371 7.20038ZM11.9201 12.615L10.7461 11.7621L9.57219 12.615L10.0206 11.2349L8.84663 10.382H10.2977L10.7461 9.00196L11.1945 10.382H12.6456L11.4716 11.2349L11.9201 12.615ZM11.4716 7.20038L11.9201 8.58045L10.7461 7.72754L9.57219 8.58045L10.0206 7.20038L8.84663 6.34747H10.2977L10.7461 4.96739L11.1945 6.34747H12.6456L11.4716 7.20038ZM11.4716 3.16581L11.9201 4.54588L10.7461 3.69297L9.57219 4.54588L10.0206 3.16581L8.84663 2.3129H10.2977L10.7461 0.93282L11.1945 2.3129H12.6456L11.4716 3.16581Z" fill="#0052B4"/>
</g>
<defs>
<clipPath id="clip0_840_2621">
<rect width="27.7" height="27.7" fill="white" transform="translate(0 0.150024)"/>
</clipPath>
</defs>
</svg>
