<?xml version="1.0" encoding="utf-8"?>
<!-- Generator: Adobe Illustrator 28.0.0, SVG Export Plug-In . SVG Version: 6.00 Build 0)  -->
<svg version="1.1" id="Layer_1" xmlns="http://www.w3.org/2000/svg" xmlns:xlink="http://www.w3.org/1999/xlink" x="0px" y="0px"
	 viewBox="0 0 239 150" style="enable-background:new 0 0 239 150;" xml:space="preserve">
<style type="text/css">
	.st0{opacity:0.6;}
	.st1{fill:#FFFFFF;filter:url(#Adobe_OpacityMaskFilter);}
	.st2{mask:url(#path-1-outside-1_1_46761_00000025441335642327554560000017480257702258018748_);fill:url(#SVGID_1_);}
	.st3{fill:#FFFFFF;filter:url(#Adobe_OpacityMaskFilter_00000088101724099827378280000009148757784958718867_);}
	.st4{mask:url(#path-1-outside-1_1_46761_00000181796578314259962870000012400597457172157057_);fill-opacity:0.2;}
	.st5{opacity:0.8;}
	.st6{fill:#FFFFFF;filter:url(#Adobe_OpacityMaskFilter_00000067929681640340761380000015495656818151367088_);}
	
		.st7{mask:url(#path-3-outside-2_1_46761_00000060019270474386856760000005321138996844587194_);fill:url(#SVGID_00000007387522908380463100000005563629278526397826_);}
	.st8{fill:#FFFFFF;filter:url(#Adobe_OpacityMaskFilter_00000061436650696529485460000002773816051395902096_);}
	.st9{mask:url(#path-3-outside-2_1_46761_00000169527090795734296670000000966920017521118377_);fill-opacity:0.2;}
	.st10{fill:#FFFFFF;filter:url(#Adobe_OpacityMaskFilter_00000124883631397789829930000014306620092821136296_);}
	.st11{mask:url(#path-5-outside-3_1_46761_00000016053775149367901990000004736523768169820563_);fill:#FCD34D;}
	.st12{fill:none;stroke:#6EE7B7;}
</style>
<g class="st0">
	<defs>
		<filter id="Adobe_OpacityMaskFilter" filterUnits="userSpaceOnUse" x="46.1" y="6.2" width="155.5" height="124.8">
			<feColorMatrix  type="matrix" values="1 0 0 0 0  0 1 0 0 0  0 0 1 0 0  0 0 0 1 0"/>
		</filter>
	</defs>
	
		<mask maskUnits="userSpaceOnUse" x="46.1" y="6.2" width="155.5" height="124.8" id="path-1-outside-1_1_46761_00000025441335642327554560000017480257702258018748_">
		<rect x="46" y="6" class="st1" width="156" height="125"/>
		<path d="M48.1,39V8.6h6.4V39H48.1z M82.4,39H76V14h-8.3V8.6h23V14h-8.3V39z M108.5,8.6l0.3,0.5c-0.7,2.7-1.9,6.1-3.7,10h-4.6
			c1-4.1,1.7-7.6,2.1-10.4H108.5z M139.6,30.6c0,2.7-1,4.9-3,6.5c-2,1.6-4.7,2.4-8.2,2.4c-3.2,0-6.1-0.6-8.6-1.8v-6
			c2.1,0.9,3.8,1.6,5.2,1.9c1.4,0.4,2.7,0.6,3.9,0.6c1.4,0,2.5-0.3,3.2-0.8c0.8-0.5,1.1-1.3,1.1-2.4c0-0.6-0.2-1.1-0.5-1.6
			c-0.3-0.5-0.8-0.9-1.5-1.4c-0.6-0.4-1.9-1.1-3.9-2.1c-1.9-0.9-3.3-1.7-4.2-2.5c-0.9-0.8-1.7-1.7-2.2-2.8c-0.6-1.1-0.8-2.3-0.8-3.7
			c0-2.7,0.9-4.8,2.7-6.3c1.8-1.5,4.4-2.3,7.6-2.3c1.6,0,3.1,0.2,4.5,0.6c1.4,0.4,2.9,0.9,4.5,1.6l-2.1,5c-1.6-0.7-3-1.1-4-1.4
			c-1.1-0.3-2.1-0.4-3.1-0.4c-1.2,0-2.2,0.3-2.8,0.9c-0.7,0.6-1,1.3-1,2.2c0,0.6,0.1,1.1,0.4,1.5c0.3,0.4,0.7,0.8,1.2,1.2
			c0.6,0.4,1.9,1.1,4.1,2.1c2.8,1.4,4.8,2.7,5.8,4.1C139,26.9,139.6,28.6,139.6,30.6z M191.8,39l-2.2-7.2h-11.1l-2.2,7.2h-6.9
			l10.7-30.5h7.9L198.8,39H191.8z M188.1,26.4c-2-6.6-3.2-10.3-3.5-11.1c-0.2-0.9-0.4-1.5-0.5-2c-0.5,1.8-1.8,6.2-3.9,13.2H188.1z
			 M80,53.6h9.5c4.3,0,7.4,0.6,9.4,1.9c2,1.2,2.9,3.2,2.9,5.8c0,1.8-0.4,3.3-1.3,4.5c-0.8,1.2-2,1.9-3.4,2.1v0.2
			c1.9,0.4,3.3,1.2,4.2,2.4c0.9,1.2,1.3,2.7,1.3,4.7c0,2.8-1,4.9-3,6.5c-2,1.6-4.7,2.3-8.2,2.3H80V53.6z M86.5,65.6h3.7
			c1.7,0,3-0.3,3.8-0.8c0.8-0.5,1.2-1.4,1.2-2.7c0-1.2-0.4-2-1.3-2.5c-0.8-0.5-2.2-0.8-4-0.8h-3.4V65.6z M86.5,70.7v7.9h4.2
			c1.8,0,3.1-0.3,3.9-1s1.3-1.7,1.3-3.1c0-2.5-1.8-3.8-5.4-3.8H86.5z M117.2,84V53.6h6.4V84H117.2z M151.3,66.9h12.1v15.8
			c-2,0.6-3.8,1.1-5.5,1.3c-1.7,0.3-3.5,0.4-5.3,0.4c-4.6,0-8.1-1.3-10.5-4c-2.4-2.7-3.6-6.6-3.6-11.6c0-4.9,1.4-8.7,4.2-11.5
			c2.8-2.7,6.7-4.1,11.7-4.1c3.1,0,6.1,0.6,9,1.9l-2.1,5.2c-2.2-1.1-4.5-1.7-6.9-1.7c-2.8,0-5,0.9-6.7,2.8c-1.7,1.9-2.5,4.4-2.5,7.6
			c0,3.3,0.7,5.8,2,7.6c1.4,1.7,3.3,2.6,5.9,2.6c1.3,0,2.7-0.1,4.1-0.4v-6.3h-5.8V66.9z M83.3,113.5c0,5-1.4,8.8-4.3,11.5
			c-2.8,2.7-7,4-12.3,4h-8.6V98.6h9.5c5,0,8.8,1.3,11.6,3.9C81.9,105.1,83.3,108.8,83.3,113.5z M76.6,113.7c0-6.5-2.9-9.8-8.7-9.8
			h-3.4v19.8h2.8C73.5,123.7,76.6,120.3,76.6,113.7z M115.7,129H98.1V98.6h17.5v5.3h-11.1v6.7h10.3v5.3h-10.3v7.8h11.1V129z
			 M149.2,129l-2.2-7.2h-11.1l-2.2,7.2h-6.9l10.7-30.5h7.9l10.8,30.5H149.2z M145.4,116.4c-2-6.6-3.2-10.3-3.5-11.1
			c-0.2-0.9-0.4-1.5-0.5-2c-0.5,1.8-1.8,6.2-3.9,13.2H145.4z M168.5,129V98.6h6.4v25.1h12.3v5.3H168.5z"/>
	</mask>
	
		<linearGradient id="SVGID_1_" gradientUnits="userSpaceOnUse" x1="30" y1="83.4238" x2="213" y2="83.4238" gradientTransform="matrix(1 0 0 -1 0 152)">
		<stop  offset="0" style="stop-color:#2CD8D5"/>
		<stop  offset="0.48" style="stop-color:#6B8DD6"/>
		<stop  offset="1" style="stop-color:#8E37D7"/>
	</linearGradient>
	<path class="st2" d="M48.1,39h-2v2h2V39z M48.1,8.6v-2h-2v2H48.1z M54.5,8.6h2v-2h-2V8.6z M54.5,39v2h2v-2H54.5z M50.1,39V8.6h-4
		V39H50.1z M48.1,10.6h6.4v-4h-6.4V10.6z M52.5,8.6V39h4V8.6H52.5z M54.5,37h-6.4v4h6.4V37z M82.4,39v2h2v-2H82.4z M76,39h-2v2h2V39
		z M76,14h2v-2h-2V14z M67.7,14h-2v2h2V14z M67.7,8.6v-2h-2v2H67.7z M90.7,8.6h2v-2h-2V8.6z M90.7,14v2h2v-2H90.7z M82.4,14v-2h-2v2
		H82.4z M82.4,37H76v4h6.4V37z M78,39V14h-4v25H78z M76,12h-8.3v4H76V12z M69.7,14V8.6h-4V14H69.7z M67.7,10.6h23v-4h-23V10.6z
		 M88.7,8.6V14h4V8.6H88.7z M90.7,12h-8.3v4h8.3V12z M80.4,14v25h4V14H80.4z M108.5,8.6l1.7-1.1l-0.6-0.9h-1.1V8.6z M108.8,9
		l1.9,0.5l0.2-0.8L110.5,8L108.8,9z M105.1,19v2h1.3l0.5-1.2L105.1,19z M100.6,19l-1.9-0.5L98,21h2.5V19z M102.6,8.6v-2h-1.7
		l-0.3,1.7L102.6,8.6z M106.8,9.7l0.3,0.5l3.4-2.1l-0.3-0.5L106.8,9.7z M106.8,8.6c-0.7,2.6-1.8,5.8-3.5,9.6l3.7,1.6
		c1.8-4,3-7.4,3.8-10.3L106.8,8.6z M105.1,17h-4.6v4h4.6V17z M102.5,19.5c1-4.1,1.7-7.7,2.1-10.6l-4-0.6c-0.4,2.8-1.1,6.2-2.1,10.3
		L102.5,19.5z M102.6,10.6h5.8v-4h-5.8V10.6z M136.6,37l-1.2-1.6l0,0L136.6,37z M119.7,37.6h-2v1.2l1.1,0.5L119.7,37.6z M119.7,31.6
		l0.8-1.8l-2.8-1.3v3.1H119.7z M124.9,33.5l-0.5,1.9l0,0L124.9,33.5z M132.1,33.3l-1.2-1.6l0,0l0,0L132.1,33.3z M132.7,29.3
		l-1.6,1.2l0,0l0,0L132.7,29.3z M131.3,27.9l-1.1,1.7l0,0l0,0L131.3,27.9z M127.3,25.9l0.9-1.8l0,0L127.3,25.9z M122.8,10.5
		l-1.3-1.5l0,0L122.8,10.5z M134.9,8.7l-0.5,1.9l0,0L134.9,8.7z M139.4,10.3l1.8,0.8l0.8-1.8l-1.8-0.8L139.4,10.3z M137.3,15.3
		l-0.8,1.9l1.8,0.8l0.8-1.8L137.3,15.3z M133.3,13.9l-0.5,1.9l0,0L133.3,13.9z M126.8,18.1l-1.7,1l0,0l0,0L126.8,18.1z M128,19.3
		l-1.2,1.6l0,0l0,0L128,19.3z M132.1,21.4l0.9-1.8v0L132.1,21.4z M138,25.5l-1.6,1.2l0,0L138,25.5z M137.6,30.6
		c0,2.2-0.8,3.8-2.2,4.9l2.5,3.1c2.5-2,3.7-4.8,3.7-8.1H137.6z M135.3,35.5c-1.5,1.2-3.7,1.9-7,1.9v4c3.8,0,7-0.9,9.5-2.8
		L135.3,35.5z M128.4,37.4c-3,0-5.6-0.6-7.7-1.6l-1.8,3.6c2.8,1.4,6,2,9.5,2V37.4z M121.7,37.6v-6h-4v6H121.7z M118.9,33.4
		c2.1,0.9,3.9,1.6,5.5,2l1-3.9c-1.3-0.3-2.9-0.9-4.9-1.8L118.9,33.4z M124.4,35.5c1.6,0.4,3,0.6,4.4,0.6v-4c-1,0-2.1-0.2-3.4-0.5
		L124.4,35.5z M128.9,36.1c1.6,0,3.2-0.3,4.4-1.2l-2.3-3.2c-0.3,0.2-0.9,0.4-2.1,0.4V36.1z M133.3,34.9c1.4-1,2-2.4,2-4h-4
		c0,0.5-0.1,0.7-0.3,0.8L133.3,34.9z M135.2,30.9c0-1-0.3-1.9-0.9-2.8l-3.2,2.4c0.1,0.1,0.1,0.2,0.1,0.4H135.2z M134.4,28.1
		c-0.5-0.7-1.2-1.3-2-1.9l-2.2,3.3c0.5,0.3,0.8,0.6,0.9,0.8L134.4,28.1z M132.4,26.3c-0.8-0.5-2.2-1.3-4.2-2.2l-1.7,3.6
		c2,1,3.2,1.6,3.7,1.9L132.4,26.3z M128.2,24.1c-1.8-0.8-3-1.6-3.7-2.2l-2.6,3c1.1,1,2.7,1.9,4.6,2.8L128.2,24.1z M124.5,21.8
		c-0.7-0.6-1.3-1.4-1.8-2.2l-3.6,1.8c0.7,1.3,1.6,2.4,2.7,3.4L124.5,21.8z M122.7,19.6c-0.4-0.7-0.6-1.7-0.6-2.8h-4
		c0,1.7,0.3,3.3,1.1,4.7L122.7,19.6z M122.1,16.8c0-2.2,0.7-3.7,2-4.8l-2.6-3.1c-2.3,2-3.4,4.7-3.4,7.9H122.1z M124.1,12
		c1.4-1.1,3.4-1.8,6.3-1.8v-4c-3.5,0-6.6,0.8-8.9,2.8L124.1,12z M130.4,10.2c1.4,0,2.8,0.2,4,0.5l1-3.9c-1.6-0.4-3.3-0.6-5-0.6V10.2
		z M134.4,10.6c1.3,0.3,2.7,0.8,4.2,1.5l1.6-3.7c-1.6-0.7-3.3-1.3-4.8-1.7L134.4,10.6z M137.6,9.5l-2.1,5l3.7,1.5l2.1-5L137.6,9.5z
		 M138.1,13.5c-1.7-0.7-3.1-1.2-4.3-1.5l-1,3.9c0.9,0.2,2.2,0.7,3.8,1.3L138.1,13.5z M133.8,12c-1.2-0.3-2.4-0.5-3.6-0.5v4
		c0.9,0,1.7,0.1,2.6,0.3L133.8,12z M130.2,11.5c-1.5,0-3,0.4-4.1,1.3l2.6,3c0.2-0.1,0.6-0.4,1.5-0.4V11.5z M126.1,12.9
		c-1.1,1-1.7,2.3-1.7,3.7h4c0-0.4,0.1-0.6,0.3-0.7L126.1,12.9z M124.4,16.6c0,0.9,0.2,1.8,0.7,2.5l3.4-2.1c0-0.1-0.1-0.2-0.1-0.5
		H124.4z M125.1,19.2c0.4,0.7,1.1,1.3,1.8,1.8l2.3-3.3c-0.4-0.3-0.6-0.5-0.7-0.7L125.1,19.2z M126.9,21c0.7,0.5,2.2,1.3,4.3,2.3
		l1.7-3.6c-2.2-1-3.4-1.7-3.9-2L126.9,21z M131.3,23.2c2.8,1.3,4.4,2.5,5.1,3.5l3.2-2.4c-1.3-1.8-3.6-3.3-6.6-4.7L131.3,23.2z
		 M136.4,26.8c0.7,1,1.2,2.2,1.2,3.8h4c0-2.4-0.6-4.5-2-6.2L136.4,26.8z M191.8,39l-1.9,0.6l0.4,1.4h1.5V39z M189.6,31.8l1.9-0.6
		l-0.4-1.4h-1.5V31.8z M178.5,31.8v-2H177l-0.4,1.4L178.5,31.8z M176.3,39v2h1.5l0.4-1.4L176.3,39z M169.4,39l-1.9-0.7l-0.9,2.7h2.8
		V39z M180.1,8.5v-2h-1.4l-0.5,1.3L180.1,8.5z M188,8.5l1.9-0.7l-0.5-1.3H188V8.5z M198.8,39v2h2.8l-0.9-2.7L198.8,39z M188.1,26.4
		v2h2.7l-0.8-2.6L188.1,26.4z M184.6,15.2l-1.9,0.6l0,0l0,0L184.6,15.2z M184.1,13.2l2-0.4l-3.9-0.1L184.1,13.2z M180.1,26.4
		l-1.9-0.6l-0.8,2.6h2.7V26.4z M193.7,38.4l-2.2-7.2l-3.8,1.2l2.2,7.2L193.7,38.4z M189.6,29.8h-11.1v4h11.1V29.8z M176.6,31.2
		l-2.2,7.2l3.8,1.2l2.2-7.2L176.6,31.2z M176.3,37h-6.9v4h6.9V37z M171.2,39.7L182,9.1l-3.8-1.3l-10.7,30.5L171.2,39.7z M180.1,10.5
		h7.9v-4h-7.9V10.5z M186.1,9.1l10.8,30.5l3.8-1.3L189.9,7.8L186.1,9.1z M198.8,37h-6.9v4h6.9V37z M190,25.8
		c-2-6.6-3.2-10.3-3.4-11.1l-3.8,1.2c0.3,0.9,1.4,4.6,3.5,11.1L190,25.8z M186.5,14.7c-0.2-0.8-0.4-1.5-0.5-1.9l-3.9,0.9
		c0.1,0.6,0.3,1.3,0.6,2.2L186.5,14.7z M182.1,12.7c-0.4,1.7-1.7,6.1-3.9,13.1l3.8,1.2c2.2-7,3.5-11.4,4-13.3L182.1,12.7z
		 M180.1,28.4h7.9v-4h-7.9V28.4z M80,53.6v-2h-2v2H80z M98.9,55.4l-1.1,1.7l0,0l0,0L98.9,55.4z M100.5,65.8l-1.6-1.2l0,0l0,0
		L100.5,65.8z M97.1,67.9l-0.3-2l-1.7,0.3v1.7H97.1z M97.1,68.1h-2v1.6l1.6,0.3L97.1,68.1z M101.3,70.5l-1.6,1.2l0,0l0,0L101.3,70.5
		z M99.5,81.7l-1.2-1.6l0,0L99.5,81.7z M80,84h-2v2h2V84z M86.5,65.6h-2v2h2V65.6z M94,64.8l-1.1-1.7l0,0l0,0L94,64.8z M93.9,59.6
		l-1,1.7l0,0l0,0L93.9,59.6z M86.5,58.9v-2h-2v2H86.5z M86.5,70.7v-2h-2v2H86.5z M86.5,78.7h-2v2h2V78.7z M80,55.6h9.5v-4H80V55.6z
		 M89.5,55.6c4.2,0,6.9,0.6,8.3,1.5l2.1-3.4c-2.4-1.5-6-2.2-10.5-2.2V55.6z M97.8,57.1c1.3,0.8,2,2,2,4.1h4c0-3.2-1.2-5.9-3.9-7.5
		L97.8,57.1z M99.8,61.3c0,1.5-0.4,2.5-0.9,3.3l3.2,2.4c1.2-1.6,1.7-3.5,1.7-5.7H99.8z M98.9,64.6c-0.5,0.7-1.2,1.2-2.1,1.3l0.7,3.9
		c1.9-0.3,3.5-1.3,4.7-2.9L98.9,64.6z M95.1,67.9v0.2h4v-0.2H95.1z M96.7,70c1.6,0.4,2.5,1,3,1.6l3.2-2.3c-1.2-1.7-3.1-2.7-5.3-3.2
		L96.7,70z M99.7,71.7c0.5,0.7,0.9,1.8,0.9,3.5h4c0-2.2-0.5-4.3-1.7-5.9L99.7,71.7z M100.6,75.2c0,2.2-0.8,3.8-2.2,4.9l2.4,3.2
		c2.6-2,3.8-4.7,3.8-8.1H100.6z M98.3,80.1c-1.5,1.2-3.8,1.9-6.9,1.9v4c3.7,0,6.9-0.8,9.4-2.8L98.3,80.1z M91.4,82H80v4h11.4V82z
		 M82,84V53.6h-4V84H82z M86.5,67.6h3.7v-4h-3.7V67.6z M90.2,67.6c1.9,0,3.6-0.3,4.9-1.2l-2.3-3.3c-0.3,0.2-1,0.5-2.6,0.5V67.6z
		 M95.1,66.5c1.5-1,2.1-2.6,2.1-4.3h-4c0,0.8-0.2,1-0.3,1L95.1,66.5z M97.2,62.1c0-1.7-0.7-3.3-2.3-4.2l-2,3.5
		c0.1,0.1,0.3,0.2,0.3,0.8H97.2z M94.9,57.9c-1.3-0.8-3.1-1.1-5.1-1.1v4c1.7,0,2.6,0.3,3,0.5L94.9,57.9z M89.8,56.9h-3.4v4h3.4V56.9
		z M84.5,58.9v6.8h4v-6.8H84.5z M84.5,70.7v7.9h4v-7.9H84.5z M86.5,80.7h4.2v-4h-4.2V80.7z M90.7,80.7c2,0,3.8-0.4,5.2-1.5l-2.5-3.1
		c-0.3,0.3-1.1,0.6-2.7,0.6V80.7z M95.8,79.2c1.4-1.2,2-2.9,2-4.7h-4c0,1-0.3,1.4-0.5,1.6L95.8,79.2z M97.9,74.5
		c0-1.8-0.7-3.4-2.2-4.5c-1.4-1-3.2-1.3-5.2-1.3v4c1.6,0,2.5,0.3,2.9,0.6c0.3,0.2,0.5,0.5,0.5,1.2H97.9z M90.5,68.7h-4v4h4V68.7z
		 M117.2,84h-2v2h2V84z M117.2,53.6v-2h-2v2H117.2z M123.6,53.6h2v-2h-2V53.6z M123.6,84v2h2v-2H123.6z M119.2,84V53.6h-4V84H119.2z
		 M117.2,55.6h6.4v-4h-6.4V55.6z M121.6,53.6V84h4V53.6H121.6z M123.6,82h-6.4v4h6.4V82z M151.3,66.9v-2h-2v2H151.3z M163.4,66.9h2
		v-2h-2V66.9z M163.4,82.7l0.6,1.9l1.4-0.5v-1.5H163.4z M157.9,84l-0.3-2l0,0l0,0L157.9,84z M142,80.4l-1.5,1.3l0,0L142,80.4z
		 M142.6,57.3l-1.4-1.4l0,0L142.6,57.3z M163.3,55l1.8,0.8l0.8-1.8l-1.8-0.8L163.3,55z M161.2,60.2l-0.9,1.8l1.9,1l0.8-2L161.2,60.2
		z M147.1,76.4l-1.6,1.2l0,0l0,0L147.1,76.4z M157.1,78.6l0.4,2l1.6-0.3v-1.6H157.1z M157.1,72.3h2v-2h-2V72.3z M151.3,72.3h-2v2h2
		V72.3z M151.3,68.9h12.1v-4h-12.1V68.9z M161.4,66.9v15.8h4V66.9H161.4z M162.8,80.8c-1.9,0.6-3.6,1-5.2,1.3l0.6,4
		c1.9-0.3,3.8-0.7,5.9-1.4L162.8,80.8z M157.5,82c-1.6,0.2-3.3,0.4-5,0.4v4c1.9,0,3.8-0.1,5.6-0.4L157.5,82z M152.6,82.4
		c-4.2,0-7.1-1.2-9-3.4l-3,2.7c2.9,3.2,7,4.7,12,4.7V82.4z M143.5,79c-2-2.2-3.1-5.5-3.1-10.3h-4c0,5.3,1.3,9.8,4.1,13L143.5,79z
		 M140.4,68.8c0-4.5,1.3-7.8,3.6-10.1l-2.8-2.9c-3.3,3.2-4.8,7.6-4.8,12.9H140.4z M144,58.7c2.3-2.3,5.7-3.6,10.3-3.6v-4
		c-5.4,0-9.8,1.5-13.1,4.7L144,58.7z M154.3,55.2c2.8,0,5.6,0.6,8.2,1.7l1.6-3.7c-3.1-1.4-6.4-2-9.8-2V55.2z M161.5,54.3l-2.1,5.2
		L163,61l2.1-5.2L161.5,54.3z M162.1,58.4c-2.5-1.2-5.1-1.9-7.8-1.9v4c2.1,0,4.1,0.5,6,1.5L162.1,58.4z M154.3,56.5
		c-3.3,0-6.1,1.1-8.2,3.5l3,2.7c1.3-1.4,2.9-2.1,5.2-2.1V56.5z M146.1,60c-2.1,2.3-3,5.4-3,8.9h4c0-2.8,0.7-4.8,2-6.2L146.1,60z
		 M143.1,68.9c0,3.5,0.7,6.6,2.4,8.8l3.2-2.4c-1-1.3-1.6-3.3-1.6-6.4H143.1z M145.5,77.7c1.8,2.3,4.4,3.4,7.5,3.4v-4
		c-2.1,0-3.4-0.7-4.3-1.8L145.5,77.7z M153,81c1.5,0,3-0.2,4.5-0.5l-0.8-3.9c-1.3,0.3-2.5,0.4-3.7,0.4V81z M159.1,78.6v-6.3h-4v6.3
		H159.1z M157.1,70.3h-5.8v4h5.8V70.3z M153.3,72.3v-5.4h-4v5.4H153.3z M79,125l-1.4-1.5l0,0L79,125z M58.1,129h-2v2h2V129z
		 M58.1,98.6v-2h-2v2H58.1z M64.5,103.9v-2h-2v2H64.5z M64.5,123.7h-2v2h2V123.7z M81.3,113.5c0,4.6-1.3,7.9-3.6,10l2.7,2.9
		c3.4-3.1,4.9-7.6,4.9-13H81.3z M77.7,123.5c-2.4,2.2-5.9,3.5-11,3.5v4c5.7,0,10.4-1.4,13.7-4.5L77.7,123.5z M66.7,127h-8.6v4h8.6
		V127z M60.1,129V98.6h-4V129H60.1z M58.1,100.6h9.5v-4h-9.5V100.6z M67.6,100.6c4.6,0,7.9,1.2,10.2,3.4l2.8-2.9
		c-3.2-3.1-7.6-4.5-12.9-4.5V100.6z M77.8,104c2.3,2.2,3.5,5.2,3.5,9.5h4c0-5.1-1.5-9.3-4.7-12.4L77.8,104z M78.6,113.7
		c0-3.5-0.8-6.5-2.7-8.7c-1.9-2.2-4.7-3.1-8-3.1v4c2.5,0,4,0.7,5,1.8c1,1.1,1.7,3,1.7,6H78.6z M68,101.9h-3.4v4H68V101.9z
		 M62.5,103.9v19.8h4v-19.8H62.5z M64.5,125.7h2.8v-4h-2.8V125.7z M67.3,125.7c3.5,0,6.4-0.9,8.5-3.1c2-2.2,2.9-5.3,2.9-8.9h-4
		c0,3.1-0.7,5-1.8,6.1c-1.1,1.1-2.8,1.9-5.5,1.9V125.7z M115.7,129v2h2v-2H115.7z M98.1,129h-2v2h2V129z M98.1,98.6v-2h-2v2H98.1z
		 M115.7,98.6h2v-2h-2V98.6z M115.7,103.9v2h2v-2H115.7z M104.6,103.9v-2h-2v2H104.6z M104.6,110.6h-2v2h2V110.6z M114.9,110.6h2v-2
		h-2V110.6z M114.9,115.8v2h2v-2H114.9z M104.6,115.8v-2h-2v2H104.6z M104.6,123.7h-2v2h2V123.7z M115.7,123.7h2v-2h-2V123.7z
		 M115.7,127H98.1v4h17.5V127z M100.1,129V98.6h-4V129H100.1z M98.1,100.6h17.5v-4H98.1V100.6z M113.7,98.6v5.3h4v-5.3H113.7z
		 M115.7,101.9h-11.1v4h11.1V101.9z M102.6,103.9v6.7h4v-6.7H102.6z M104.6,112.6h10.3v-4h-10.3V112.6z M112.9,110.6v5.3h4v-5.3
		H112.9z M114.9,113.8h-10.3v4h10.3V113.8z M102.6,115.8v7.8h4v-7.8H102.6z M104.6,125.7h11.1v-4h-11.1V125.7z M113.7,123.7v5.3h4
		v-5.3H113.7z M149.2,129l-1.9,0.6l0.4,1.4h1.5V129z M147,121.8l1.9-0.6l-0.4-1.4H147V121.8z M135.9,121.8v-2h-1.5l-0.4,1.4
		L135.9,121.8z M133.7,129v2h1.5l0.4-1.4L133.7,129z M126.7,129l-1.9-0.7l-0.9,2.7h2.8V129z M137.4,98.5v-2H136l-0.5,1.3L137.4,98.5
		z M145.3,98.5l1.9-0.7l-0.5-1.3h-1.4V98.5z M156.1,129v2h2.8l-0.9-2.7L156.1,129z M145.4,116.4v2h2.7l-0.8-2.6L145.4,116.4z
		 M142,105.2l-1.9,0.6l0,0l0,0L142,105.2z M141.4,103.2l2-0.4l-3.9-0.1L141.4,103.2z M137.5,116.4l-1.9-0.6l-0.8,2.6h2.7V116.4z
		 M151.1,128.4l-2.2-7.2l-3.8,1.2l2.2,7.2L151.1,128.4z M147,119.8h-11.1v4H147V119.8z M134,121.2l-2.2,7.2l3.8,1.2l2.2-7.2
		L134,121.2z M133.7,127h-6.9v4h6.9V127z M128.6,129.7l10.7-30.5l-3.8-1.3l-10.7,30.5L128.6,129.7z M137.4,100.5h7.9v-4h-7.9V100.5z
		 M143.4,99.1l10.8,30.5l3.8-1.3l-10.8-30.5L143.4,99.1z M156.1,127h-6.9v4h6.9V127z M147.3,115.8c-2-6.6-3.2-10.3-3.5-11.1
		l-3.8,1.2c0.3,0.9,1.4,4.6,3.5,11.1L147.3,115.8z M143.9,104.7c-0.2-0.8-0.4-1.5-0.5-1.9l-3.9,0.9c0.1,0.6,0.3,1.3,0.6,2.2
		L143.9,104.7z M139.5,102.7c-0.4,1.7-1.7,6.1-3.9,13.1l3.8,1.2c2.2-7,3.5-11.4,4-13.3L139.5,102.7z M137.5,118.4h7.9v-4h-7.9V118.4
		z M168.5,129h-2v2h2V129z M168.5,98.6v-2h-2v2H168.5z M174.9,98.6h2v-2h-2V98.6z M174.9,123.7h-2v2h2V123.7z M187.3,123.7h2v-2h-2
		V123.7z M187.3,129v2h2v-2H187.3z M170.5,129V98.6h-4V129H170.5z M168.5,100.6h6.4v-4h-6.4V100.6z M172.9,98.6v25.1h4V98.6H172.9z
		 M174.9,125.7h12.3v-4h-12.3V125.7z M185.3,123.7v5.3h4v-5.3H185.3z M187.3,127h-18.8v4h18.8V127z"/>
	<defs>
		
			<filter id="Adobe_OpacityMaskFilter_00000106145372747373247800000001556453291823641491_" filterUnits="userSpaceOnUse" x="46.1" y="6.2" width="155.5" height="124.8">
			<feColorMatrix  type="matrix" values="1 0 0 0 0  0 1 0 0 0  0 0 1 0 0  0 0 0 1 0"/>
		</filter>
	</defs>
	
		<mask maskUnits="userSpaceOnUse" x="46.1" y="6.2" width="155.5" height="124.8" id="path-1-outside-1_1_46761_00000181796578314259962870000012400597457172157057_">
		
			<rect x="46" y="6" style="fill:#FFFFFF;filter:url(#Adobe_OpacityMaskFilter_00000106145372747373247800000001556453291823641491_);" width="156" height="125"/>
		<path d="M48.1,39V8.6h6.4V39H48.1z M82.4,39H76V14h-8.3V8.6h23V14h-8.3V39z M108.5,8.6l0.3,0.5c-0.7,2.7-1.9,6.1-3.7,10h-4.6
			c1-4.1,1.7-7.6,2.1-10.4H108.5z M139.6,30.6c0,2.7-1,4.9-3,6.5c-2,1.6-4.7,2.4-8.2,2.4c-3.2,0-6.1-0.6-8.6-1.8v-6
			c2.1,0.9,3.8,1.6,5.2,1.9c1.4,0.4,2.7,0.6,3.9,0.6c1.4,0,2.5-0.3,3.2-0.8c0.8-0.5,1.1-1.3,1.1-2.4c0-0.6-0.2-1.1-0.5-1.6
			c-0.3-0.5-0.8-0.9-1.5-1.4c-0.6-0.4-1.9-1.1-3.9-2.1c-1.9-0.9-3.3-1.7-4.2-2.5c-0.9-0.8-1.7-1.7-2.2-2.8c-0.6-1.1-0.8-2.3-0.8-3.7
			c0-2.7,0.9-4.8,2.7-6.3c1.8-1.5,4.4-2.3,7.6-2.3c1.6,0,3.1,0.2,4.5,0.6c1.4,0.4,2.9,0.9,4.5,1.6l-2.1,5c-1.6-0.7-3-1.1-4-1.4
			c-1.1-0.3-2.1-0.4-3.1-0.4c-1.2,0-2.2,0.3-2.8,0.9c-0.7,0.6-1,1.3-1,2.2c0,0.6,0.1,1.1,0.4,1.5c0.3,0.4,0.7,0.8,1.2,1.2
			c0.6,0.4,1.9,1.1,4.1,2.1c2.8,1.4,4.8,2.7,5.8,4.1C139,26.9,139.6,28.6,139.6,30.6z M191.8,39l-2.2-7.2h-11.1l-2.2,7.2h-6.9
			l10.7-30.5h7.9L198.8,39H191.8z M188.1,26.4c-2-6.6-3.2-10.3-3.5-11.1c-0.2-0.9-0.4-1.5-0.5-2c-0.5,1.8-1.8,6.2-3.9,13.2H188.1z
			 M80,53.6h9.5c4.3,0,7.4,0.6,9.4,1.9c2,1.2,2.9,3.2,2.9,5.8c0,1.8-0.4,3.3-1.3,4.5c-0.8,1.2-2,1.9-3.4,2.1v0.2
			c1.9,0.4,3.3,1.2,4.2,2.4c0.9,1.2,1.3,2.7,1.3,4.7c0,2.8-1,4.9-3,6.5c-2,1.6-4.7,2.3-8.2,2.3H80V53.6z M86.5,65.6h3.7
			c1.7,0,3-0.3,3.8-0.8c0.8-0.5,1.2-1.4,1.2-2.7c0-1.2-0.4-2-1.3-2.5c-0.8-0.5-2.2-0.8-4-0.8h-3.4V65.6z M86.5,70.7v7.9h4.2
			c1.8,0,3.1-0.3,3.9-1s1.3-1.7,1.3-3.1c0-2.5-1.8-3.8-5.4-3.8H86.5z M117.2,84V53.6h6.4V84H117.2z M151.3,66.9h12.1v15.8
			c-2,0.6-3.8,1.1-5.5,1.3c-1.7,0.3-3.5,0.4-5.3,0.4c-4.6,0-8.1-1.3-10.5-4c-2.4-2.7-3.6-6.6-3.6-11.6c0-4.9,1.4-8.7,4.2-11.5
			c2.8-2.7,6.7-4.1,11.7-4.1c3.1,0,6.1,0.6,9,1.9l-2.1,5.2c-2.2-1.1-4.5-1.7-6.9-1.7c-2.8,0-5,0.9-6.7,2.8c-1.7,1.9-2.5,4.4-2.5,7.6
			c0,3.3,0.7,5.8,2,7.6c1.4,1.7,3.3,2.6,5.9,2.6c1.3,0,2.7-0.1,4.1-0.4v-6.3h-5.8V66.9z M83.3,113.5c0,5-1.4,8.8-4.3,11.5
			c-2.8,2.7-7,4-12.3,4h-8.6V98.6h9.5c5,0,8.8,1.3,11.6,3.9C81.9,105.1,83.3,108.8,83.3,113.5z M76.6,113.7c0-6.5-2.9-9.8-8.7-9.8
			h-3.4v19.8h2.8C73.5,123.7,76.6,120.3,76.6,113.7z M115.7,129H98.1V98.6h17.5v5.3h-11.1v6.7h10.3v5.3h-10.3v7.8h11.1V129z
			 M149.2,129l-2.2-7.2h-11.1l-2.2,7.2h-6.9l10.7-30.5h7.9l10.8,30.5H149.2z M145.4,116.4c-2-6.6-3.2-10.3-3.5-11.1
			c-0.2-0.9-0.4-1.5-0.5-2c-0.5,1.8-1.8,6.2-3.9,13.2H145.4z M168.5,129V98.6h6.4v25.1h12.3v5.3H168.5z"/>
	</mask>
	<path class="st4" d="M48.1,39h-2v2h2V39z M48.1,8.6v-2h-2v2H48.1z M54.5,8.6h2v-2h-2V8.6z M54.5,39v2h2v-2H54.5z M50.1,39V8.6h-4
		V39H50.1z M48.1,10.6h6.4v-4h-6.4V10.6z M52.5,8.6V39h4V8.6H52.5z M54.5,37h-6.4v4h6.4V37z M82.4,39v2h2v-2H82.4z M76,39h-2v2h2V39
		z M76,14h2v-2h-2V14z M67.7,14h-2v2h2V14z M67.7,8.6v-2h-2v2H67.7z M90.7,8.6h2v-2h-2V8.6z M90.7,14v2h2v-2H90.7z M82.4,14v-2h-2v2
		H82.4z M82.4,37H76v4h6.4V37z M78,39V14h-4v25H78z M76,12h-8.3v4H76V12z M69.7,14V8.6h-4V14H69.7z M67.7,10.6h23v-4h-23V10.6z
		 M88.7,8.6V14h4V8.6H88.7z M90.7,12h-8.3v4h8.3V12z M80.4,14v25h4V14H80.4z M108.5,8.6l1.7-1.1l-0.6-0.9h-1.1V8.6z M108.8,9
		l1.9,0.5l0.2-0.8L110.5,8L108.8,9z M105.1,19v2h1.3l0.5-1.2L105.1,19z M100.6,19l-1.9-0.5L98,21h2.5V19z M102.6,8.6v-2h-1.7
		l-0.3,1.7L102.6,8.6z M106.8,9.7l0.3,0.5l3.4-2.1l-0.3-0.5L106.8,9.7z M106.8,8.6c-0.7,2.6-1.8,5.8-3.5,9.6l3.7,1.6
		c1.8-4,3-7.4,3.8-10.3L106.8,8.6z M105.1,17h-4.6v4h4.6V17z M102.5,19.5c1-4.1,1.7-7.7,2.1-10.6l-4-0.6c-0.4,2.8-1.1,6.2-2.1,10.3
		L102.5,19.5z M102.6,10.6h5.8v-4h-5.8V10.6z M136.6,37l-1.2-1.6l0,0L136.6,37z M119.7,37.6h-2v1.2l1.1,0.5L119.7,37.6z M119.7,31.6
		l0.8-1.8l-2.8-1.3v3.1H119.7z M124.9,33.5l-0.5,1.9l0,0L124.9,33.5z M132.1,33.3l-1.2-1.6l0,0l0,0L132.1,33.3z M132.7,29.3
		l-1.6,1.2l0,0l0,0L132.7,29.3z M131.3,27.9l-1.1,1.7l0,0l0,0L131.3,27.9z M127.3,25.9l0.9-1.8l0,0L127.3,25.9z M122.8,10.5
		l-1.3-1.5l0,0L122.8,10.5z M134.9,8.7l-0.5,1.9l0,0L134.9,8.7z M139.4,10.3l1.8,0.8l0.8-1.8l-1.8-0.8L139.4,10.3z M137.3,15.3
		l-0.8,1.9l1.8,0.8l0.8-1.8L137.3,15.3z M133.3,13.9l-0.5,1.9l0,0L133.3,13.9z M126.8,18.1l-1.7,1l0,0l0,0L126.8,18.1z M128,19.3
		l-1.2,1.6l0,0l0,0L128,19.3z M132.1,21.4l0.9-1.8v0L132.1,21.4z M138,25.5l-1.6,1.2l0,0L138,25.5z M137.6,30.6
		c0,2.2-0.8,3.8-2.2,4.9l2.5,3.1c2.5-2,3.7-4.8,3.7-8.1H137.6z M135.3,35.5c-1.5,1.2-3.7,1.9-7,1.9v4c3.8,0,7-0.9,9.5-2.8
		L135.3,35.5z M128.4,37.4c-3,0-5.6-0.6-7.7-1.6l-1.8,3.6c2.8,1.4,6,2,9.5,2V37.4z M121.7,37.6v-6h-4v6H121.7z M118.9,33.4
		c2.1,0.9,3.9,1.6,5.5,2l1-3.9c-1.3-0.3-2.9-0.9-4.9-1.8L118.9,33.4z M124.4,35.5c1.6,0.4,3,0.6,4.4,0.6v-4c-1,0-2.1-0.2-3.4-0.5
		L124.4,35.5z M128.9,36.1c1.6,0,3.2-0.3,4.4-1.2l-2.3-3.2c-0.3,0.2-0.9,0.4-2.1,0.4V36.1z M133.3,34.9c1.4-1,2-2.4,2-4h-4
		c0,0.5-0.1,0.7-0.3,0.8L133.3,34.9z M135.2,30.9c0-1-0.3-1.9-0.9-2.8l-3.2,2.4c0.1,0.1,0.1,0.2,0.1,0.4H135.2z M134.4,28.1
		c-0.5-0.7-1.2-1.3-2-1.9l-2.2,3.3c0.5,0.3,0.8,0.6,0.9,0.8L134.4,28.1z M132.4,26.3c-0.8-0.5-2.2-1.3-4.2-2.2l-1.7,3.6
		c2,1,3.2,1.6,3.7,1.9L132.4,26.3z M128.2,24.1c-1.8-0.8-3-1.6-3.7-2.2l-2.6,3c1.1,1,2.7,1.9,4.6,2.8L128.2,24.1z M124.5,21.8
		c-0.7-0.6-1.3-1.4-1.8-2.2l-3.6,1.8c0.7,1.3,1.6,2.4,2.7,3.4L124.5,21.8z M122.7,19.6c-0.4-0.7-0.6-1.7-0.6-2.8h-4
		c0,1.7,0.3,3.3,1.1,4.7L122.7,19.6z M122.1,16.8c0-2.2,0.7-3.7,2-4.8l-2.6-3.1c-2.3,2-3.4,4.7-3.4,7.9H122.1z M124.1,12
		c1.4-1.1,3.4-1.8,6.3-1.8v-4c-3.5,0-6.6,0.8-8.9,2.8L124.1,12z M130.4,10.2c1.4,0,2.8,0.2,4,0.5l1-3.9c-1.6-0.4-3.3-0.6-5-0.6V10.2
		z M134.4,10.6c1.3,0.3,2.7,0.8,4.2,1.5l1.6-3.7c-1.6-0.7-3.3-1.3-4.8-1.7L134.4,10.6z M137.6,9.5l-2.1,5l3.7,1.5l2.1-5L137.6,9.5z
		 M138.1,13.5c-1.7-0.7-3.1-1.2-4.3-1.5l-1,3.9c0.9,0.2,2.2,0.7,3.8,1.3L138.1,13.5z M133.8,12c-1.2-0.3-2.4-0.5-3.6-0.5v4
		c0.9,0,1.7,0.1,2.6,0.3L133.8,12z M130.2,11.5c-1.5,0-3,0.4-4.1,1.3l2.6,3c0.2-0.1,0.6-0.4,1.5-0.4V11.5z M126.1,12.9
		c-1.1,1-1.7,2.3-1.7,3.7h4c0-0.4,0.1-0.6,0.3-0.7L126.1,12.9z M124.4,16.6c0,0.9,0.2,1.8,0.7,2.5l3.4-2.1c0-0.1-0.1-0.2-0.1-0.5
		H124.4z M125.1,19.2c0.4,0.7,1.1,1.3,1.8,1.8l2.3-3.3c-0.4-0.3-0.6-0.5-0.7-0.7L125.1,19.2z M126.9,21c0.7,0.5,2.2,1.3,4.3,2.3
		l1.7-3.6c-2.2-1-3.4-1.7-3.9-2L126.9,21z M131.3,23.2c2.8,1.3,4.4,2.5,5.1,3.5l3.2-2.4c-1.3-1.8-3.6-3.3-6.6-4.7L131.3,23.2z
		 M136.4,26.8c0.7,1,1.2,2.2,1.2,3.8h4c0-2.4-0.6-4.5-2-6.2L136.4,26.8z M191.8,39l-1.9,0.6l0.4,1.4h1.5V39z M189.6,31.8l1.9-0.6
		l-0.4-1.4h-1.5V31.8z M178.5,31.8v-2H177l-0.4,1.4L178.5,31.8z M176.3,39v2h1.5l0.4-1.4L176.3,39z M169.4,39l-1.9-0.7l-0.9,2.7h2.8
		V39z M180.1,8.5v-2h-1.4l-0.5,1.3L180.1,8.5z M188,8.5l1.9-0.7l-0.5-1.3H188V8.5z M198.8,39v2h2.8l-0.9-2.7L198.8,39z M188.1,26.4
		v2h2.7l-0.8-2.6L188.1,26.4z M184.6,15.2l-1.9,0.6l0,0l0,0L184.6,15.2z M184.1,13.2l2-0.4l-3.9-0.1L184.1,13.2z M180.1,26.4
		l-1.9-0.6l-0.8,2.6h2.7V26.4z M193.7,38.4l-2.2-7.2l-3.8,1.2l2.2,7.2L193.7,38.4z M189.6,29.8h-11.1v4h11.1V29.8z M176.6,31.2
		l-2.2,7.2l3.8,1.2l2.2-7.2L176.6,31.2z M176.3,37h-6.9v4h6.9V37z M171.2,39.7L182,9.1l-3.8-1.3l-10.7,30.5L171.2,39.7z M180.1,10.5
		h7.9v-4h-7.9V10.5z M186.1,9.1l10.8,30.5l3.8-1.3L189.9,7.8L186.1,9.1z M198.8,37h-6.9v4h6.9V37z M190,25.8
		c-2-6.6-3.2-10.3-3.4-11.1l-3.8,1.2c0.3,0.9,1.4,4.6,3.5,11.1L190,25.8z M186.5,14.7c-0.2-0.8-0.4-1.5-0.5-1.9l-3.9,0.9
		c0.1,0.6,0.3,1.3,0.6,2.2L186.5,14.7z M182.1,12.7c-0.4,1.7-1.7,6.1-3.9,13.1l3.8,1.2c2.2-7,3.5-11.4,4-13.3L182.1,12.7z
		 M180.1,28.4h7.9v-4h-7.9V28.4z M80,53.6v-2h-2v2H80z M98.9,55.4l-1.1,1.7l0,0l0,0L98.9,55.4z M100.5,65.8l-1.6-1.2l0,0l0,0
		L100.5,65.8z M97.1,67.9l-0.3-2l-1.7,0.3v1.7H97.1z M97.1,68.1h-2v1.6l1.6,0.3L97.1,68.1z M101.3,70.5l-1.6,1.2l0,0l0,0L101.3,70.5
		z M99.5,81.7l-1.2-1.6l0,0L99.5,81.7z M80,84h-2v2h2V84z M86.5,65.6h-2v2h2V65.6z M94,64.8l-1.1-1.7l0,0l0,0L94,64.8z M93.9,59.6
		l-1,1.7l0,0l0,0L93.9,59.6z M86.5,58.9v-2h-2v2H86.5z M86.5,70.7v-2h-2v2H86.5z M86.5,78.7h-2v2h2V78.7z M80,55.6h9.5v-4H80V55.6z
		 M89.5,55.6c4.2,0,6.9,0.6,8.3,1.5l2.1-3.4c-2.4-1.5-6-2.2-10.5-2.2V55.6z M97.8,57.1c1.3,0.8,2,2,2,4.1h4c0-3.2-1.2-5.9-3.9-7.5
		L97.8,57.1z M99.8,61.3c0,1.5-0.4,2.5-0.9,3.3l3.2,2.4c1.2-1.6,1.7-3.5,1.7-5.7H99.8z M98.9,64.6c-0.5,0.7-1.2,1.2-2.1,1.3l0.7,3.9
		c1.9-0.3,3.5-1.3,4.7-2.9L98.9,64.6z M95.1,67.9v0.2h4v-0.2H95.1z M96.7,70c1.6,0.4,2.5,1,3,1.6l3.2-2.3c-1.2-1.7-3.1-2.7-5.3-3.2
		L96.7,70z M99.7,71.7c0.5,0.7,0.9,1.8,0.9,3.5h4c0-2.2-0.5-4.3-1.7-5.9L99.7,71.7z M100.6,75.2c0,2.2-0.8,3.8-2.2,4.9l2.4,3.2
		c2.6-2,3.8-4.7,3.8-8.1H100.6z M98.3,80.1c-1.5,1.2-3.8,1.9-6.9,1.9v4c3.7,0,6.9-0.8,9.4-2.8L98.3,80.1z M91.4,82H80v4h11.4V82z
		 M82,84V53.6h-4V84H82z M86.5,67.6h3.7v-4h-3.7V67.6z M90.2,67.6c1.9,0,3.6-0.3,4.9-1.2l-2.3-3.3c-0.3,0.2-1,0.5-2.6,0.5V67.6z
		 M95.1,66.5c1.5-1,2.1-2.6,2.1-4.3h-4c0,0.8-0.2,1-0.3,1L95.1,66.5z M97.2,62.1c0-1.7-0.7-3.3-2.3-4.2l-2,3.5
		c0.1,0.1,0.3,0.2,0.3,0.8H97.2z M94.9,57.9c-1.3-0.8-3.1-1.1-5.1-1.1v4c1.7,0,2.6,0.3,3,0.5L94.9,57.9z M89.8,56.9h-3.4v4h3.4V56.9
		z M84.5,58.9v6.8h4v-6.8H84.5z M84.5,70.7v7.9h4v-7.9H84.5z M86.5,80.7h4.2v-4h-4.2V80.7z M90.7,80.7c2,0,3.8-0.4,5.2-1.5l-2.5-3.1
		c-0.3,0.3-1.1,0.6-2.7,0.6V80.7z M95.8,79.2c1.4-1.2,2-2.9,2-4.7h-4c0,1-0.3,1.4-0.5,1.6L95.8,79.2z M97.9,74.5
		c0-1.8-0.7-3.4-2.2-4.5c-1.4-1-3.2-1.3-5.2-1.3v4c1.6,0,2.5,0.3,2.9,0.6c0.3,0.2,0.5,0.5,0.5,1.2H97.9z M90.5,68.7h-4v4h4V68.7z
		 M117.2,84h-2v2h2V84z M117.2,53.6v-2h-2v2H117.2z M123.6,53.6h2v-2h-2V53.6z M123.6,84v2h2v-2H123.6z M119.2,84V53.6h-4V84H119.2z
		 M117.2,55.6h6.4v-4h-6.4V55.6z M121.6,53.6V84h4V53.6H121.6z M123.6,82h-6.4v4h6.4V82z M151.3,66.9v-2h-2v2H151.3z M163.4,66.9h2
		v-2h-2V66.9z M163.4,82.7l0.6,1.9l1.4-0.5v-1.5H163.4z M157.9,84l-0.3-2l0,0l0,0L157.9,84z M142,80.4l-1.5,1.3l0,0L142,80.4z
		 M142.6,57.3l-1.4-1.4l0,0L142.6,57.3z M163.3,55l1.8,0.8l0.8-1.8l-1.8-0.8L163.3,55z M161.2,60.2l-0.9,1.8l1.9,1l0.8-2L161.2,60.2
		z M147.1,76.4l-1.6,1.2l0,0l0,0L147.1,76.4z M157.1,78.6l0.4,2l1.6-0.3v-1.6H157.1z M157.1,72.3h2v-2h-2V72.3z M151.3,72.3h-2v2h2
		V72.3z M151.3,68.9h12.1v-4h-12.1V68.9z M161.4,66.9v15.8h4V66.9H161.4z M162.8,80.8c-1.9,0.6-3.6,1-5.2,1.3l0.6,4
		c1.9-0.3,3.8-0.7,5.9-1.4L162.8,80.8z M157.5,82c-1.6,0.2-3.3,0.4-5,0.4v4c1.9,0,3.8-0.1,5.6-0.4L157.5,82z M152.6,82.4
		c-4.2,0-7.1-1.2-9-3.4l-3,2.7c2.9,3.2,7,4.7,12,4.7V82.4z M143.5,79c-2-2.2-3.1-5.5-3.1-10.3h-4c0,5.3,1.3,9.8,4.1,13L143.5,79z
		 M140.4,68.8c0-4.5,1.3-7.8,3.6-10.1l-2.8-2.9c-3.3,3.2-4.8,7.6-4.8,12.9H140.4z M144,58.7c2.3-2.3,5.7-3.6,10.3-3.6v-4
		c-5.4,0-9.8,1.5-13.1,4.7L144,58.7z M154.3,55.2c2.8,0,5.6,0.6,8.2,1.7l1.6-3.7c-3.1-1.4-6.4-2-9.8-2V55.2z M161.5,54.3l-2.1,5.2
		L163,61l2.1-5.2L161.5,54.3z M162.1,58.4c-2.5-1.2-5.1-1.9-7.8-1.9v4c2.1,0,4.1,0.5,6,1.5L162.1,58.4z M154.3,56.5
		c-3.3,0-6.1,1.1-8.2,3.5l3,2.7c1.3-1.4,2.9-2.1,5.2-2.1V56.5z M146.1,60c-2.1,2.3-3,5.4-3,8.9h4c0-2.8,0.7-4.8,2-6.2L146.1,60z
		 M143.1,68.9c0,3.5,0.7,6.6,2.4,8.8l3.2-2.4c-1-1.3-1.6-3.3-1.6-6.4H143.1z M145.5,77.7c1.8,2.3,4.4,3.4,7.5,3.4v-4
		c-2.1,0-3.4-0.7-4.3-1.8L145.5,77.7z M153,81c1.5,0,3-0.2,4.5-0.5l-0.8-3.9c-1.3,0.3-2.5,0.4-3.7,0.4V81z M159.1,78.6v-6.3h-4v6.3
		H159.1z M157.1,70.3h-5.8v4h5.8V70.3z M153.3,72.3v-5.4h-4v5.4H153.3z M79,125l-1.4-1.5l0,0L79,125z M58.1,129h-2v2h2V129z
		 M58.1,98.6v-2h-2v2H58.1z M64.5,103.9v-2h-2v2H64.5z M64.5,123.7h-2v2h2V123.7z M81.3,113.5c0,4.6-1.3,7.9-3.6,10l2.7,2.9
		c3.4-3.1,4.9-7.6,4.9-13H81.3z M77.7,123.5c-2.4,2.2-5.9,3.5-11,3.5v4c5.7,0,10.4-1.4,13.7-4.5L77.7,123.5z M66.7,127h-8.6v4h8.6
		V127z M60.1,129V98.6h-4V129H60.1z M58.1,100.6h9.5v-4h-9.5V100.6z M67.6,100.6c4.6,0,7.9,1.2,10.2,3.4l2.8-2.9
		c-3.2-3.1-7.6-4.5-12.9-4.5V100.6z M77.8,104c2.3,2.2,3.5,5.2,3.5,9.5h4c0-5.1-1.5-9.3-4.7-12.4L77.8,104z M78.6,113.7
		c0-3.5-0.8-6.5-2.7-8.7c-1.9-2.2-4.7-3.1-8-3.1v4c2.5,0,4,0.7,5,1.8c1,1.1,1.7,3,1.7,6H78.6z M68,101.9h-3.4v4H68V101.9z
		 M62.5,103.9v19.8h4v-19.8H62.5z M64.5,125.7h2.8v-4h-2.8V125.7z M67.3,125.7c3.5,0,6.4-0.9,8.5-3.1c2-2.2,2.9-5.3,2.9-8.9h-4
		c0,3.1-0.7,5-1.8,6.1c-1.1,1.1-2.8,1.9-5.5,1.9V125.7z M115.7,129v2h2v-2H115.7z M98.1,129h-2v2h2V129z M98.1,98.6v-2h-2v2H98.1z
		 M115.7,98.6h2v-2h-2V98.6z M115.7,103.9v2h2v-2H115.7z M104.6,103.9v-2h-2v2H104.6z M104.6,110.6h-2v2h2V110.6z M114.9,110.6h2v-2
		h-2V110.6z M114.9,115.8v2h2v-2H114.9z M104.6,115.8v-2h-2v2H104.6z M104.6,123.7h-2v2h2V123.7z M115.7,123.7h2v-2h-2V123.7z
		 M115.7,127H98.1v4h17.5V127z M100.1,129V98.6h-4V129H100.1z M98.1,100.6h17.5v-4H98.1V100.6z M113.7,98.6v5.3h4v-5.3H113.7z
		 M115.7,101.9h-11.1v4h11.1V101.9z M102.6,103.9v6.7h4v-6.7H102.6z M104.6,112.6h10.3v-4h-10.3V112.6z M112.9,110.6v5.3h4v-5.3
		H112.9z M114.9,113.8h-10.3v4h10.3V113.8z M102.6,115.8v7.8h4v-7.8H102.6z M104.6,125.7h11.1v-4h-11.1V125.7z M113.7,123.7v5.3h4
		v-5.3H113.7z M149.2,129l-1.9,0.6l0.4,1.4h1.5V129z M147,121.8l1.9-0.6l-0.4-1.4H147V121.8z M135.9,121.8v-2h-1.5l-0.4,1.4
		L135.9,121.8z M133.7,129v2h1.5l0.4-1.4L133.7,129z M126.7,129l-1.9-0.7l-0.9,2.7h2.8V129z M137.4,98.5v-2H136l-0.5,1.3L137.4,98.5
		z M145.3,98.5l1.9-0.7l-0.5-1.3h-1.4V98.5z M156.1,129v2h2.8l-0.9-2.7L156.1,129z M145.4,116.4v2h2.7l-0.8-2.6L145.4,116.4z
		 M142,105.2l-1.9,0.6l0,0l0,0L142,105.2z M141.4,103.2l2-0.4l-3.9-0.1L141.4,103.2z M137.5,116.4l-1.9-0.6l-0.8,2.6h2.7V116.4z
		 M151.1,128.4l-2.2-7.2l-3.8,1.2l2.2,7.2L151.1,128.4z M147,119.8h-11.1v4H147V119.8z M134,121.2l-2.2,7.2l3.8,1.2l2.2-7.2
		L134,121.2z M133.7,127h-6.9v4h6.9V127z M128.6,129.7l10.7-30.5l-3.8-1.3l-10.7,30.5L128.6,129.7z M137.4,100.5h7.9v-4h-7.9V100.5z
		 M143.4,99.1l10.8,30.5l3.8-1.3l-10.8-30.5L143.4,99.1z M156.1,127h-6.9v4h6.9V127z M147.3,115.8c-2-6.6-3.2-10.3-3.5-11.1
		l-3.8,1.2c0.3,0.9,1.4,4.6,3.5,11.1L147.3,115.8z M143.9,104.7c-0.2-0.8-0.4-1.5-0.5-1.9l-3.9,0.9c0.1,0.6,0.3,1.3,0.6,2.2
		L143.9,104.7z M139.5,102.7c-0.4,1.7-1.7,6.1-3.9,13.1l3.8,1.2c2.2-7,3.5-11.4,4-13.3L139.5,102.7z M137.5,118.4h7.9v-4h-7.9V118.4
		z M168.5,129h-2v2h2V129z M168.5,98.6v-2h-2v2H168.5z M174.9,98.6h2v-2h-2V98.6z M174.9,123.7h-2v2h2V123.7z M187.3,123.7h2v-2h-2
		V123.7z M187.3,129v2h2v-2H187.3z M170.5,129V98.6h-4V129H170.5z M168.5,100.6h6.4v-4h-6.4V100.6z M172.9,98.6v25.1h4V98.6H172.9z
		 M174.9,125.7h12.3v-4h-12.3V125.7z M185.3,123.7v5.3h4v-5.3H185.3z M187.3,127h-18.8v4h18.8V127z"/>
</g>
<g class="st5">
	<defs>
		
			<filter id="Adobe_OpacityMaskFilter_00000120520268310957956430000015349692526230433679_" filterUnits="userSpaceOnUse" x="41.6" y="12.2" width="155.5" height="124.8">
			<feColorMatrix  type="matrix" values="1 0 0 0 0  0 1 0 0 0  0 0 1 0 0  0 0 0 1 0"/>
		</filter>
	</defs>
	
		<mask maskUnits="userSpaceOnUse" x="41.6" y="12.2" width="155.5" height="124.8" id="path-3-outside-2_1_46761_00000060019270474386856760000005321138996844587194_">
		
			<rect x="41" y="12" style="fill:#FFFFFF;filter:url(#Adobe_OpacityMaskFilter_00000120520268310957956430000015349692526230433679_);" width="157" height="125"/>
		<path d="M43.6,45V14.6H50V45H43.6z M77.9,45h-6.4V20h-8.3v-5.4h23V20h-8.3V45z M104,14.6l0.3,0.5c-0.7,2.7-1.9,6.1-3.7,10h-4.6
			c1-4.1,1.7-7.6,2.1-10.4H104z M135.1,36.6c0,2.7-1,4.9-3,6.5c-2,1.6-4.7,2.4-8.2,2.4c-3.2,0-6.1-0.6-8.6-1.8v-6
			c2.1,0.9,3.8,1.6,5.2,1.9c1.4,0.4,2.7,0.6,3.9,0.6c1.4,0,2.5-0.3,3.2-0.8c0.8-0.5,1.1-1.3,1.1-2.4c0-0.6-0.2-1.1-0.5-1.6
			c-0.3-0.5-0.8-0.9-1.5-1.4c-0.6-0.4-1.9-1.1-3.9-2.1c-1.9-0.9-3.3-1.7-4.2-2.5c-0.9-0.8-1.7-1.7-2.2-2.8c-0.6-1.1-0.8-2.3-0.8-3.7
			c0-2.7,0.9-4.8,2.7-6.3c1.8-1.5,4.4-2.3,7.6-2.3c1.6,0,3.1,0.2,4.5,0.6c1.4,0.4,2.9,0.9,4.5,1.6l-2.1,5c-1.6-0.7-3-1.1-4-1.4
			c-1.1-0.3-2.1-0.4-3.1-0.4c-1.2,0-2.2,0.3-2.8,0.9c-0.7,0.6-1,1.3-1,2.2c0,0.6,0.1,1.1,0.4,1.5c0.3,0.4,0.7,0.8,1.2,1.2
			c0.6,0.4,1.9,1.1,4.1,2.1c2.8,1.4,4.8,2.7,5.8,4.1C134.5,32.9,135.1,34.6,135.1,36.6z M187.3,45l-2.2-7.2H174l-2.2,7.2h-6.9
			l10.7-30.5h7.9L194.3,45H187.3z M183.6,32.4c-2-6.6-3.2-10.3-3.5-11.1c-0.2-0.9-0.4-1.5-0.5-2c-0.5,1.8-1.8,6.2-3.9,13.2H183.6z
			 M75.5,59.6H85c4.3,0,7.4,0.6,9.4,1.9c2,1.2,2.9,3.2,2.9,5.8c0,1.8-0.4,3.3-1.3,4.5c-0.8,1.2-2,1.9-3.4,2.1v0.2
			c1.9,0.4,3.3,1.2,4.2,2.4c0.9,1.2,1.3,2.7,1.3,4.7c0,2.8-1,4.9-3,6.5c-2,1.6-4.7,2.3-8.2,2.3H75.5V59.6z M82,71.6h3.7
			c1.7,0,3-0.3,3.8-0.8c0.8-0.5,1.2-1.4,1.2-2.7c0-1.2-0.4-2-1.3-2.5c-0.8-0.5-2.2-0.8-4-0.8H82V71.6z M82,76.7v7.9h4.2
			c1.8,0,3.1-0.3,3.9-1s1.3-1.7,1.3-3.1c0-2.5-1.8-3.8-5.4-3.8H82z M112.7,90V59.6h6.4V90H112.7z M146.8,72.9h12.1v15.8
			c-2,0.6-3.8,1.1-5.5,1.3c-1.7,0.3-3.5,0.4-5.3,0.4c-4.6,0-8.1-1.3-10.5-4c-2.4-2.7-3.6-6.6-3.6-11.6c0-4.9,1.4-8.7,4.2-11.5
			c2.8-2.7,6.7-4.1,11.7-4.1c3.1,0,6.1,0.6,9,1.9l-2.1,5.2c-2.2-1.1-4.5-1.7-6.9-1.7c-2.8,0-5,0.9-6.7,2.8c-1.7,1.9-2.5,4.4-2.5,7.6
			c0,3.3,0.7,5.8,2,7.6c1.4,1.7,3.3,2.6,5.9,2.6c1.3,0,2.7-0.1,4.1-0.4v-6.3h-5.8V72.9z M78.8,119.5c0,5-1.4,8.8-4.3,11.5
			c-2.8,2.7-7,4-12.3,4h-8.6v-30.4h9.5c5,0,8.8,1.3,11.6,3.9C77.4,111.1,78.8,114.8,78.8,119.5z M72.1,119.7c0-6.5-2.9-9.8-8.7-9.8
			H60v19.8h2.8C69,129.7,72.1,126.3,72.1,119.7z M111.2,135H93.6v-30.4h17.5v5.3h-11.1v6.7h10.3v5.3h-10.3v7.8h11.1V135z M144.7,135
			l-2.2-7.2h-11.1l-2.2,7.2h-6.9l10.7-30.5h7.9l10.8,30.5H144.7z M140.9,122.4c-2-6.6-3.2-10.3-3.5-11.1c-0.2-0.9-0.4-1.5-0.5-2
			c-0.5,1.8-1.8,6.2-3.9,13.2H140.9z M164,135v-30.4h6.4v25.1h12.3v5.3H164z"/>
	</mask>
	
		<linearGradient id="SVGID_00000088120449055650546100000004397036968664047507_" gradientUnits="userSpaceOnUse" x1="26" y1="77.4238" x2="208" y2="77.4238" gradientTransform="matrix(1 0 0 -1 0 152)">
		<stop  offset="0" style="stop-color:#2CD8D5"/>
		<stop  offset="0.48" style="stop-color:#6B8DD6"/>
		<stop  offset="1" style="stop-color:#8E37D7"/>
	</linearGradient>
	
		<path style="mask:url(#path-3-outside-2_1_46761_00000060019270474386856760000005321138996844587194_);fill:url(#SVGID_00000088120449055650546100000004397036968664047507_);" d="
		M43.6,45h-2v2h2V45z M43.6,14.6v-2h-2v2H43.6z M50,14.6h2v-2h-2V14.6z M50,45v2h2v-2H50z M45.6,45V14.6h-4V45H45.6z M43.6,16.6H50
		v-4h-6.4V16.6z M48,14.6V45h4V14.6H48z M50,43h-6.4v4H50V43z M77.9,45v2h2v-2H77.9z M71.5,45h-2v2h2V45z M71.5,20h2v-2h-2V20z
		 M63.2,20h-2v2h2V20z M63.2,14.6v-2h-2v2H63.2z M86.2,14.6h2v-2h-2V14.6z M86.2,20v2h2v-2H86.2z M77.9,20v-2h-2v2H77.9z M77.9,43
		h-6.4v4h6.4V43z M73.5,45V20h-4v25H73.5z M71.5,18h-8.3v4h8.3V18z M65.2,20v-5.4h-4V20H65.2z M63.2,16.6h23v-4h-23V16.6z
		 M84.2,14.6V20h4v-5.4H84.2z M86.2,18h-8.3v4h8.3V18z M75.9,20v25h4V20H75.9z M104,14.6l1.7-1.1l-0.6-0.9H104V14.6z M104.3,15
		l1.9,0.5l0.2-0.8L106,14L104.3,15z M100.6,25v2h1.3l0.5-1.2L100.6,25z M96.1,25l-1.9-0.5L93.5,27h2.5V25z M98.1,14.6v-2h-1.7
		l-0.3,1.7L98.1,14.6z M102.3,15.7l0.3,0.5L106,14l-0.3-0.5L102.3,15.7z M102.3,14.6c-0.7,2.6-1.8,5.8-3.5,9.6l3.7,1.6
		c1.8-4,3-7.4,3.8-10.3L102.3,14.6z M100.6,23h-4.6v4h4.6V23z M98,25.5c1-4.1,1.7-7.7,2.1-10.6l-4-0.6c-0.4,2.8-1.1,6.2-2.1,10.3
		L98,25.5z M98.1,16.6h5.8v-4h-5.8V16.6z M132.1,43l-1.2-1.6l0,0L132.1,43z M115.2,43.6h-2v1.2l1.1,0.5L115.2,43.6z M115.2,37.6
		l0.8-1.8l-2.8-1.3v3.1H115.2z M120.4,39.5l-0.5,1.9l0,0L120.4,39.5z M127.6,39.3l-1.2-1.6l0,0l0,0L127.6,39.3z M128.2,35.3
		l-1.6,1.2l0,0l0,0L128.2,35.3z M126.8,33.9l-1.1,1.7l0,0l0,0L126.8,33.9z M122.8,31.9l0.9-1.8l0,0L122.8,31.9z M118.3,16.5
		l-1.3-1.5l0,0L118.3,16.5z M130.4,14.7l-0.5,1.9l0,0L130.4,14.7z M134.9,16.3l1.8,0.8l0.8-1.8l-1.8-0.8L134.9,16.3z M132.8,21.3
		l-0.8,1.9l1.8,0.8l0.8-1.8L132.8,21.3z M128.8,19.9l-0.5,1.9l0,0L128.8,19.9z M122.3,24.1l-1.7,1l0,0l0,0L122.3,24.1z M123.5,25.3
		l-1.2,1.6l0,0l0,0L123.5,25.3z M127.6,27.4l0.9-1.8v0L127.6,27.4z M133.5,31.5l-1.6,1.2l0,0L133.5,31.5z M133.1,36.6
		c0,2.2-0.8,3.8-2.2,4.9l2.5,3.1c2.5-2,3.7-4.8,3.7-8.1H133.1z M130.8,41.5c-1.5,1.2-3.7,1.9-7,1.9v4c3.8,0,7-0.9,9.5-2.8
		L130.8,41.5z M123.9,43.4c-3,0-5.6-0.6-7.7-1.6l-1.8,3.6c2.8,1.4,6,2,9.5,2V43.4z M117.2,43.6v-6h-4v6H117.2z M114.4,39.4
		c2.1,0.9,3.9,1.6,5.5,2l1-3.9c-1.3-0.3-2.9-0.9-4.9-1.8L114.4,39.4z M119.9,41.5c1.6,0.4,3,0.6,4.4,0.6v-4c-1,0-2.1-0.2-3.4-0.5
		L119.9,41.5z M124.4,42.1c1.6,0,3.2-0.3,4.4-1.2l-2.3-3.2c-0.3,0.2-0.9,0.4-2.1,0.4V42.1z M128.8,40.9c1.4-1,2-2.4,2-4h-4
		c0,0.5-0.1,0.7-0.3,0.8L128.8,40.9z M130.7,36.9c0-1-0.3-1.9-0.9-2.8l-3.2,2.4c0.1,0.1,0.1,0.2,0.1,0.4H130.7z M129.9,34.1
		c-0.5-0.7-1.2-1.3-2-1.9l-2.2,3.3c0.5,0.3,0.8,0.6,0.9,0.8L129.9,34.1z M127.9,32.3c-0.8-0.5-2.2-1.3-4.2-2.2l-1.7,3.6
		c2,1,3.2,1.6,3.7,1.9L127.9,32.3z M123.7,30.1c-1.8-0.8-3-1.6-3.7-2.2l-2.6,3c1.1,1,2.7,1.9,4.6,2.8L123.7,30.1z M120,27.8
		c-0.7-0.6-1.3-1.4-1.8-2.2l-3.6,1.8c0.7,1.3,1.6,2.4,2.7,3.4L120,27.8z M118.2,25.6c-0.4-0.7-0.6-1.7-0.6-2.8h-4
		c0,1.7,0.3,3.3,1.1,4.7L118.2,25.6z M117.6,22.8c0-2.2,0.7-3.7,2-4.8l-2.6-3.1c-2.3,2-3.4,4.7-3.4,7.9H117.6z M119.6,18
		c1.4-1.1,3.4-1.8,6.3-1.8v-4c-3.5,0-6.6,0.8-8.9,2.8L119.6,18z M125.9,16.2c1.4,0,2.8,0.2,4,0.5l1-3.9c-1.6-0.4-3.3-0.6-5-0.6V16.2
		z M129.9,16.6c1.3,0.3,2.7,0.8,4.2,1.5l1.6-3.7c-1.6-0.7-3.3-1.3-4.8-1.7L129.9,16.6z M133.1,15.5l-2.1,5l3.7,1.5l2.1-5L133.1,15.5
		z M133.6,19.5c-1.7-0.7-3.1-1.2-4.3-1.5l-1,3.9c0.9,0.2,2.2,0.7,3.8,1.3L133.6,19.5z M129.3,18c-1.2-0.3-2.4-0.5-3.6-0.5v4
		c0.9,0,1.7,0.1,2.6,0.3L129.3,18z M125.7,17.5c-1.5,0-3,0.4-4.1,1.3l2.6,3c0.2-0.1,0.6-0.4,1.5-0.4V17.5z M121.6,18.9
		c-1.1,1-1.7,2.3-1.7,3.7h4c0-0.4,0.1-0.6,0.3-0.7L121.6,18.9z M119.9,22.6c0,0.9,0.2,1.8,0.7,2.5l3.4-2.1c0-0.1-0.1-0.2-0.1-0.5
		H119.9z M120.6,25.2c0.4,0.7,1.1,1.3,1.8,1.8l2.3-3.3c-0.4-0.3-0.6-0.5-0.7-0.7L120.6,25.2z M122.4,27c0.7,0.5,2.2,1.3,4.3,2.3
		l1.7-3.6c-2.2-1-3.4-1.7-3.9-2L122.4,27z M126.8,29.2c2.8,1.3,4.4,2.5,5.1,3.5l3.2-2.4c-1.3-1.8-3.6-3.3-6.6-4.7L126.8,29.2z
		 M131.9,32.8c0.7,1,1.2,2.2,1.2,3.8h4c0-2.4-0.6-4.5-2-6.2L131.9,32.8z M187.3,45l-1.9,0.6l0.4,1.4h1.5V45z M185.1,37.8l1.9-0.6
		l-0.4-1.4h-1.5V37.8z M174,37.8v-2h-1.5l-0.4,1.4L174,37.8z M171.8,45v2h1.5l0.4-1.4L171.8,45z M164.9,45l-1.9-0.7L162,47h2.8V45z
		 M175.6,14.5v-2h-1.4l-0.5,1.3L175.6,14.5z M183.5,14.5l1.9-0.7l-0.5-1.3h-1.4V14.5z M194.3,45v2h2.8l-0.9-2.7L194.3,45z
		 M183.6,32.4v2h2.7l-0.8-2.6L183.6,32.4z M180.1,21.2l-1.9,0.6l0,0l0,0L180.1,21.2z M179.6,19.2l2-0.4l-3.9-0.1L179.6,19.2z
		 M175.6,32.4l-1.9-0.6l-0.8,2.6h2.7V32.4z M189.2,44.4l-2.2-7.2l-3.8,1.2l2.2,7.2L189.2,44.4z M185.1,35.8H174v4h11.1V35.8z
		 M172.1,37.2l-2.2,7.2l3.8,1.2l2.2-7.2L172.1,37.2z M171.8,43h-6.9v4h6.9V43z M166.7,45.7l10.7-30.5l-3.8-1.3L163,44.3L166.7,45.7z
		 M175.6,16.5h7.9v-4h-7.9V16.5z M181.6,15.1l10.8,30.5l3.8-1.3l-10.8-30.5L181.6,15.1z M194.3,43h-6.9v4h6.9V43z M185.5,31.8
		c-2-6.6-3.2-10.3-3.4-11.1l-3.8,1.2c0.3,0.9,1.4,4.6,3.5,11.1L185.5,31.8z M182,20.7c-0.2-0.8-0.4-1.5-0.5-1.9l-3.9,0.9
		c0.1,0.6,0.3,1.3,0.6,2.2L182,20.7z M177.6,18.7c-0.4,1.7-1.7,6.1-3.9,13.1l3.8,1.2c2.2-7,3.5-11.4,4-13.3L177.6,18.7z M175.6,34.4
		h7.9v-4h-7.9V34.4z M75.5,59.6v-2h-2v2H75.5z M94.4,61.4l-1.1,1.7l0,0l0,0L94.4,61.4z M96,71.8l-1.6-1.2l0,0l0,0L96,71.8z
		 M92.6,73.9l-0.3-2l-1.7,0.3v1.7H92.6z M92.6,74.1h-2v1.6l1.6,0.3L92.6,74.1z M96.8,76.5l-1.6,1.2l0,0l0,0L96.8,76.5z M95,87.7
		l-1.2-1.6l0,0L95,87.7z M75.5,90h-2v2h2V90z M82,71.6h-2v2h2V71.6z M89.5,70.8l-1.1-1.7l0,0l0,0L89.5,70.8z M89.4,65.6l-1,1.7l0,0
		l0,0L89.4,65.6z M82,64.9v-2h-2v2H82z M82,76.7v-2h-2v2H82z M82,84.7h-2v2h2V84.7z M75.5,61.6H85v-4h-9.5V61.6z M85,61.6
		c4.2,0,6.9,0.6,8.3,1.5l2.1-3.4c-2.4-1.5-6-2.2-10.5-2.2V61.6z M93.3,63.1c1.3,0.8,2,2,2,4.1h4c0-3.2-1.2-5.9-3.9-7.5L93.3,63.1z
		 M95.3,67.3c0,1.5-0.4,2.5-0.9,3.3l3.2,2.4c1.2-1.6,1.7-3.5,1.7-5.7H95.3z M94.4,70.6c-0.5,0.7-1.2,1.2-2.1,1.3l0.7,3.9
		c1.9-0.3,3.5-1.3,4.7-2.9L94.4,70.6z M90.6,73.9v0.2h4v-0.2H90.6z M92.2,76c1.6,0.4,2.5,1,3,1.6l3.2-2.3c-1.2-1.7-3.1-2.7-5.3-3.2
		L92.2,76z M95.2,77.7c0.5,0.7,0.9,1.8,0.9,3.5h4c0-2.2-0.5-4.3-1.7-5.9L95.2,77.7z M96.1,81.2c0,2.2-0.8,3.8-2.2,4.9l2.4,3.2
		c2.6-2,3.8-4.7,3.8-8.1H96.1z M93.8,86.1C92.3,87.3,90,88,86.9,88v4c3.7,0,6.9-0.8,9.4-2.8L93.8,86.1z M86.9,88H75.5v4h11.4V88z
		 M77.5,90V59.6h-4V90H77.5z M82,73.6h3.7v-4H82V73.6z M85.7,73.6c1.9,0,3.6-0.3,4.9-1.2l-2.3-3.3c-0.3,0.2-1,0.5-2.6,0.5V73.6z
		 M90.6,72.5c1.5-1,2.1-2.6,2.1-4.3h-4c0,0.8-0.2,1-0.3,1L90.6,72.5z M92.7,68.1c0-1.7-0.7-3.3-2.3-4.2l-2,3.5
		c0.1,0.1,0.3,0.2,0.3,0.8H92.7z M90.4,63.9c-1.3-0.8-3.1-1.1-5.1-1.1v4c1.7,0,2.6,0.3,3,0.5L90.4,63.9z M85.3,62.9H82v4h3.4V62.9z
		 M80,64.9v6.8h4v-6.8H80z M80,76.7v7.9h4v-7.9H80z M82,86.7h4.2v-4H82V86.7z M86.2,86.7c2,0,3.8-0.4,5.2-1.5l-2.5-3.1
		c-0.3,0.3-1.1,0.6-2.7,0.6V86.7z M91.3,85.2c1.4-1.2,2-2.9,2-4.7h-4c0,1-0.3,1.4-0.5,1.6L91.3,85.2z M93.4,80.5
		c0-1.8-0.7-3.4-2.2-4.5c-1.4-1-3.2-1.3-5.2-1.3v4c1.6,0,2.5,0.3,2.9,0.6c0.3,0.2,0.5,0.5,0.5,1.2H93.4z M86,74.7h-4v4h4V74.7z
		 M112.7,90h-2v2h2V90z M112.7,59.6v-2h-2v2H112.7z M119.1,59.6h2v-2h-2V59.6z M119.1,90v2h2v-2H119.1z M114.7,90V59.6h-4V90H114.7z
		 M112.7,61.6h6.4v-4h-6.4V61.6z M117.1,59.6V90h4V59.6H117.1z M119.1,88h-6.4v4h6.4V88z M146.8,72.9v-2h-2v2H146.8z M158.9,72.9h2
		v-2h-2V72.9z M158.9,88.7l0.6,1.9l1.4-0.5v-1.5H158.9z M153.4,90l-0.3-2l0,0l0,0L153.4,90z M137.5,86.4l-1.5,1.3l0,0L137.5,86.4z
		 M138.1,63.3l-1.4-1.4l0,0L138.1,63.3z M158.8,61l1.8,0.8l0.8-1.8l-1.8-0.8L158.8,61z M156.7,66.2l-0.9,1.8l1.9,1l0.8-2L156.7,66.2
		z M142.6,82.4l-1.6,1.2l0,0l0,0L142.6,82.4z M152.6,84.6l0.4,2l1.6-0.3v-1.6H152.6z M152.6,78.3h2v-2h-2V78.3z M146.8,78.3h-2v2h2
		V78.3z M146.8,74.9h12.1v-4h-12.1V74.9z M156.9,72.9v15.8h4V72.9H156.9z M158.3,86.8c-1.9,0.6-3.6,1-5.2,1.3l0.6,4
		c1.9-0.3,3.8-0.7,5.9-1.4L158.3,86.8z M153,88c-1.6,0.2-3.3,0.4-5,0.4v4c1.9,0,3.8-0.1,5.6-0.4L153,88z M148.1,88.4
		c-4.2,0-7.1-1.2-9-3.4l-3,2.7c2.9,3.2,7,4.7,12,4.7V88.4z M139,85c-2-2.2-3.1-5.5-3.1-10.3h-4c0,5.3,1.3,9.8,4.1,13L139,85z
		 M135.9,74.8c0-4.5,1.3-7.8,3.6-10.1l-2.8-2.9c-3.3,3.2-4.8,7.6-4.8,12.9H135.9z M139.5,64.7c2.3-2.3,5.7-3.6,10.3-3.6v-4
		c-5.4,0-9.8,1.5-13.1,4.7L139.5,64.7z M149.8,61.2c2.8,0,5.6,0.6,8.2,1.7l1.6-3.7c-3.1-1.4-6.4-2-9.8-2V61.2z M157,60.3l-2.1,5.2
		l3.7,1.5l2.1-5.2L157,60.3z M157.6,64.4c-2.5-1.2-5.1-1.9-7.8-1.9v4c2.1,0,4.1,0.5,6,1.5L157.6,64.4z M149.8,62.5
		c-3.3,0-6.1,1.1-8.2,3.5l3,2.7c1.3-1.4,2.9-2.1,5.2-2.1V62.5z M141.6,66c-2.1,2.3-3,5.4-3,8.9h4c0-2.8,0.7-4.8,2-6.2L141.6,66z
		 M138.6,74.9c0,3.5,0.7,6.6,2.4,8.8l3.2-2.4c-1-1.3-1.6-3.3-1.6-6.4H138.6z M141,83.7c1.8,2.3,4.4,3.4,7.5,3.4v-4
		c-2.1,0-3.4-0.7-4.3-1.8L141,83.7z M148.5,87c1.5,0,3-0.2,4.5-0.5l-0.8-3.9c-1.3,0.3-2.5,0.4-3.7,0.4V87z M154.6,84.6v-6.3h-4v6.3
		H154.6z M152.6,76.3h-5.8v4h5.8V76.3z M148.8,78.3v-5.4h-4v5.4H148.8z M74.5,131l-1.4-1.5l0,0L74.5,131z M53.6,135h-2v2h2V135z
		 M53.6,104.6v-2h-2v2H53.6z M60,109.9v-2h-2v2H60z M60,129.7h-2v2h2V129.7z M76.8,119.5c0,4.6-1.3,7.9-3.6,10l2.7,2.9
		c3.4-3.1,4.9-7.6,4.9-13H76.8z M73.2,129.5c-2.4,2.2-5.9,3.5-11,3.5v4c5.7,0,10.4-1.4,13.7-4.5L73.2,129.5z M62.2,133h-8.6v4h8.6
		V133z M55.6,135v-30.4h-4V135H55.6z M53.6,106.6h9.5v-4h-9.5V106.6z M63.1,106.6c4.6,0,7.9,1.2,10.2,3.4l2.8-2.9
		c-3.2-3.1-7.6-4.5-12.9-4.5V106.6z M73.3,110c2.3,2.2,3.5,5.2,3.5,9.5h4c0-5.1-1.5-9.3-4.7-12.4L73.3,110z M74.1,119.7
		c0-3.5-0.8-6.5-2.7-8.7c-1.9-2.2-4.7-3.1-8-3.1v4c2.5,0,4,0.7,5,1.8c1,1.1,1.7,3,1.7,6H74.1z M63.5,107.9H60v4h3.4V107.9z
		 M58,109.9v19.8h4v-19.8H58z M60,131.7h2.8v-4H60V131.7z M62.8,131.7c3.5,0,6.4-0.9,8.5-3.1c2-2.2,2.9-5.3,2.9-8.9h-4
		c0,3.1-0.7,5-1.8,6.1c-1.1,1.1-2.8,1.9-5.5,1.9V131.7z M111.2,135v2h2v-2H111.2z M93.6,135h-2v2h2V135z M93.6,104.6v-2h-2v2H93.6z
		 M111.2,104.6h2v-2h-2V104.6z M111.2,109.9v2h2v-2H111.2z M100.1,109.9v-2h-2v2H100.1z M100.1,116.6h-2v2h2V116.6z M110.4,116.6h2
		v-2h-2V116.6z M110.4,121.8v2h2v-2H110.4z M100.1,121.8v-2h-2v2H100.1z M100.1,129.7h-2v2h2V129.7z M111.2,129.7h2v-2h-2V129.7z
		 M111.2,133H93.6v4h17.5V133z M95.6,135v-30.4h-4V135H95.6z M93.6,106.6h17.5v-4H93.6V106.6z M109.2,104.6v5.3h4v-5.3H109.2z
		 M111.2,107.9h-11.1v4h11.1V107.9z M98.1,109.9v6.7h4v-6.7H98.1z M100.1,118.6h10.3v-4h-10.3V118.6z M108.4,116.6v5.3h4v-5.3H108.4
		z M110.4,119.8h-10.3v4h10.3V119.8z M98.1,121.8v7.8h4v-7.8H98.1z M100.1,131.7h11.1v-4h-11.1V131.7z M109.2,129.7v5.3h4v-5.3
		H109.2z M144.7,135l-1.9,0.6l0.4,1.4h1.5V135z M142.5,127.8l1.9-0.6l-0.4-1.4h-1.5V127.8z M131.4,127.8v-2h-1.5l-0.4,1.4
		L131.4,127.8z M129.2,135v2h1.5l0.4-1.4L129.2,135z M122.2,135l-1.9-0.7l-0.9,2.7h2.8V135z M132.9,104.5v-2h-1.4l-0.5,1.3
		L132.9,104.5z M140.8,104.5l1.9-0.7l-0.5-1.3h-1.4V104.5z M151.6,135v2h2.8l-0.9-2.7L151.6,135z M140.9,122.4v2h2.7l-0.8-2.6
		L140.9,122.4z M137.5,111.2l-1.9,0.6l0,0l0,0L137.5,111.2z M136.9,109.2l2-0.4l-3.9-0.1L136.9,109.2z M133,122.4l-1.9-0.6l-0.8,2.6
		h2.7V122.4z M146.6,134.4l-2.2-7.2l-3.8,1.2l2.2,7.2L146.6,134.4z M142.5,125.8h-11.1v4h11.1V125.8z M129.5,127.2l-2.2,7.2l3.8,1.2
		l2.2-7.2L129.5,127.2z M129.2,133h-6.9v4h6.9V133z M124.1,135.7l10.7-30.5l-3.8-1.3l-10.7,30.5L124.1,135.7z M132.9,106.5h7.9v-4
		h-7.9V106.5z M138.9,105.1l10.8,30.5l3.8-1.3l-10.8-30.5L138.9,105.1z M151.6,133h-6.9v4h6.9V133z M142.8,121.8
		c-2-6.6-3.2-10.3-3.5-11.1l-3.8,1.2c0.3,0.9,1.4,4.6,3.5,11.1L142.8,121.8z M139.4,110.7c-0.2-0.8-0.4-1.5-0.5-1.9l-3.9,0.9
		c0.1,0.6,0.3,1.3,0.6,2.2L139.4,110.7z M135,108.7c-0.4,1.7-1.7,6.1-3.9,13.1l3.8,1.2c2.2-7,3.5-11.4,4-13.3L135,108.7z M133,124.4
		h7.9v-4H133V124.4z M164,135h-2v2h2V135z M164,104.6v-2h-2v2H164z M170.4,104.6h2v-2h-2V104.6z M170.4,129.7h-2v2h2V129.7z
		 M182.8,129.7h2v-2h-2V129.7z M182.8,135v2h2v-2H182.8z M166,135v-30.4h-4V135H166z M164,106.6h6.4v-4H164V106.6z M168.4,104.6
		v25.1h4v-25.1H168.4z M170.4,131.7h12.3v-4h-12.3V131.7z M180.8,129.7v5.3h4v-5.3H180.8z M182.8,133H164v4h18.8V133z"/>
	<defs>
		
			<filter id="Adobe_OpacityMaskFilter_00000115481589861466345560000007203780786863052450_" filterUnits="userSpaceOnUse" x="41.6" y="12.2" width="155.5" height="124.8">
			<feColorMatrix  type="matrix" values="1 0 0 0 0  0 1 0 0 0  0 0 1 0 0  0 0 0 1 0"/>
		</filter>
	</defs>
	
		<mask maskUnits="userSpaceOnUse" x="41.6" y="12.2" width="155.5" height="124.8" id="path-3-outside-2_1_46761_00000169527090795734296670000000966920017521118377_">
		
			<rect x="41" y="12" style="fill:#FFFFFF;filter:url(#Adobe_OpacityMaskFilter_00000115481589861466345560000007203780786863052450_);" width="157" height="125"/>
		<path d="M43.6,45V14.6H50V45H43.6z M77.9,45h-6.4V20h-8.3v-5.4h23V20h-8.3V45z M104,14.6l0.3,0.5c-0.7,2.7-1.9,6.1-3.7,10h-4.6
			c1-4.1,1.7-7.6,2.1-10.4H104z M135.1,36.6c0,2.7-1,4.9-3,6.5c-2,1.6-4.7,2.4-8.2,2.4c-3.2,0-6.1-0.6-8.6-1.8v-6
			c2.1,0.9,3.8,1.6,5.2,1.9c1.4,0.4,2.7,0.6,3.9,0.6c1.4,0,2.5-0.3,3.2-0.8c0.8-0.5,1.1-1.3,1.1-2.4c0-0.6-0.2-1.1-0.5-1.6
			c-0.3-0.5-0.8-0.9-1.5-1.4c-0.6-0.4-1.9-1.1-3.9-2.1c-1.9-0.9-3.3-1.7-4.2-2.5c-0.9-0.8-1.7-1.7-2.2-2.8c-0.6-1.1-0.8-2.3-0.8-3.7
			c0-2.7,0.9-4.8,2.7-6.3c1.8-1.5,4.4-2.3,7.6-2.3c1.6,0,3.1,0.2,4.5,0.6c1.4,0.4,2.9,0.9,4.5,1.6l-2.1,5c-1.6-0.7-3-1.1-4-1.4
			c-1.1-0.3-2.1-0.4-3.1-0.4c-1.2,0-2.2,0.3-2.8,0.9c-0.7,0.6-1,1.3-1,2.2c0,0.6,0.1,1.1,0.4,1.5c0.3,0.4,0.7,0.8,1.2,1.2
			c0.6,0.4,1.9,1.1,4.1,2.1c2.8,1.4,4.8,2.7,5.8,4.1C134.5,32.9,135.1,34.6,135.1,36.6z M187.3,45l-2.2-7.2H174l-2.2,7.2h-6.9
			l10.7-30.5h7.9L194.3,45H187.3z M183.6,32.4c-2-6.6-3.2-10.3-3.5-11.1c-0.2-0.9-0.4-1.5-0.5-2c-0.5,1.8-1.8,6.2-3.9,13.2H183.6z
			 M75.5,59.6H85c4.3,0,7.4,0.6,9.4,1.9c2,1.2,2.9,3.2,2.9,5.8c0,1.8-0.4,3.3-1.3,4.5c-0.8,1.2-2,1.9-3.4,2.1v0.2
			c1.9,0.4,3.3,1.2,4.2,2.4c0.9,1.2,1.3,2.7,1.3,4.7c0,2.8-1,4.9-3,6.5c-2,1.6-4.7,2.3-8.2,2.3H75.5V59.6z M82,71.6h3.7
			c1.7,0,3-0.3,3.8-0.8c0.8-0.5,1.2-1.4,1.2-2.7c0-1.2-0.4-2-1.3-2.5c-0.8-0.5-2.2-0.8-4-0.8H82V71.6z M82,76.7v7.9h4.2
			c1.8,0,3.1-0.3,3.9-1s1.3-1.7,1.3-3.1c0-2.5-1.8-3.8-5.4-3.8H82z M112.7,90V59.6h6.4V90H112.7z M146.8,72.9h12.1v15.8
			c-2,0.6-3.8,1.1-5.5,1.3c-1.7,0.3-3.5,0.4-5.3,0.4c-4.6,0-8.1-1.3-10.5-4c-2.4-2.7-3.6-6.6-3.6-11.6c0-4.9,1.4-8.7,4.2-11.5
			c2.8-2.7,6.7-4.1,11.7-4.1c3.1,0,6.1,0.6,9,1.9l-2.1,5.2c-2.2-1.1-4.5-1.7-6.9-1.7c-2.8,0-5,0.9-6.7,2.8c-1.7,1.9-2.5,4.4-2.5,7.6
			c0,3.3,0.7,5.8,2,7.6c1.4,1.7,3.3,2.6,5.9,2.6c1.3,0,2.7-0.1,4.1-0.4v-6.3h-5.8V72.9z M78.8,119.5c0,5-1.4,8.8-4.3,11.5
			c-2.8,2.7-7,4-12.3,4h-8.6v-30.4h9.5c5,0,8.8,1.3,11.6,3.9C77.4,111.1,78.8,114.8,78.8,119.5z M72.1,119.7c0-6.5-2.9-9.8-8.7-9.8
			H60v19.8h2.8C69,129.7,72.1,126.3,72.1,119.7z M111.2,135H93.6v-30.4h17.5v5.3h-11.1v6.7h10.3v5.3h-10.3v7.8h11.1V135z M144.7,135
			l-2.2-7.2h-11.1l-2.2,7.2h-6.9l10.7-30.5h7.9l10.8,30.5H144.7z M140.9,122.4c-2-6.6-3.2-10.3-3.5-11.1c-0.2-0.9-0.4-1.5-0.5-2
			c-0.5,1.8-1.8,6.2-3.9,13.2H140.9z M164,135v-30.4h6.4v25.1h12.3v5.3H164z"/>
	</mask>
	<path class="st9" d="M43.6,45h-2v2h2V45z M43.6,14.6v-2h-2v2H43.6z M50,14.6h2v-2h-2V14.6z M50,45v2h2v-2H50z M45.6,45V14.6h-4V45
		H45.6z M43.6,16.6H50v-4h-6.4V16.6z M48,14.6V45h4V14.6H48z M50,43h-6.4v4H50V43z M77.9,45v2h2v-2H77.9z M71.5,45h-2v2h2V45z
		 M71.5,20h2v-2h-2V20z M63.2,20h-2v2h2V20z M63.2,14.6v-2h-2v2H63.2z M86.2,14.6h2v-2h-2V14.6z M86.2,20v2h2v-2H86.2z M77.9,20v-2
		h-2v2H77.9z M77.9,43h-6.4v4h6.4V43z M73.5,45V20h-4v25H73.5z M71.5,18h-8.3v4h8.3V18z M65.2,20v-5.4h-4V20H65.2z M63.2,16.6h23v-4
		h-23V16.6z M84.2,14.6V20h4v-5.4H84.2z M86.2,18h-8.3v4h8.3V18z M75.9,20v25h4V20H75.9z M104,14.6l1.7-1.1l-0.6-0.9H104V14.6z
		 M104.3,15l1.9,0.5l0.2-0.8L106,14L104.3,15z M100.6,25v2h1.3l0.5-1.2L100.6,25z M96.1,25l-1.9-0.5L93.5,27h2.5V25z M98.1,14.6v-2
		h-1.7l-0.3,1.7L98.1,14.6z M102.3,15.7l0.3,0.5L106,14l-0.3-0.5L102.3,15.7z M102.3,14.6c-0.7,2.6-1.8,5.8-3.5,9.6l3.7,1.6
		c1.8-4,3-7.4,3.8-10.3L102.3,14.6z M100.6,23h-4.6v4h4.6V23z M98,25.5c1-4.1,1.7-7.7,2.1-10.6l-4-0.6c-0.4,2.8-1.1,6.2-2.1,10.3
		L98,25.5z M98.1,16.6h5.8v-4h-5.8V16.6z M132.1,43l-1.2-1.6l0,0L132.1,43z M115.2,43.6h-2v1.2l1.1,0.5L115.2,43.6z M115.2,37.6
		l0.8-1.8l-2.8-1.3v3.1H115.2z M120.4,39.5l-0.5,1.9l0,0L120.4,39.5z M127.6,39.3l-1.2-1.6l0,0l0,0L127.6,39.3z M128.2,35.3
		l-1.6,1.2l0,0l0,0L128.2,35.3z M126.8,33.9l-1.1,1.7l0,0l0,0L126.8,33.9z M122.8,31.9l0.9-1.8l0,0L122.8,31.9z M118.3,16.5
		l-1.3-1.5l0,0L118.3,16.5z M130.4,14.7l-0.5,1.9l0,0L130.4,14.7z M134.9,16.3l1.8,0.8l0.8-1.8l-1.8-0.8L134.9,16.3z M132.8,21.3
		l-0.8,1.9l1.8,0.8l0.8-1.8L132.8,21.3z M128.8,19.9l-0.5,1.9l0,0L128.8,19.9z M122.3,24.1l-1.7,1l0,0l0,0L122.3,24.1z M123.5,25.3
		l-1.2,1.6l0,0l0,0L123.5,25.3z M127.6,27.4l0.9-1.8v0L127.6,27.4z M133.5,31.5l-1.6,1.2l0,0L133.5,31.5z M133.1,36.6
		c0,2.2-0.8,3.8-2.2,4.9l2.5,3.1c2.5-2,3.7-4.8,3.7-8.1H133.1z M130.8,41.5c-1.5,1.2-3.7,1.9-7,1.9v4c3.8,0,7-0.9,9.5-2.8
		L130.8,41.5z M123.9,43.4c-3,0-5.6-0.6-7.7-1.6l-1.8,3.6c2.8,1.4,6,2,9.5,2V43.4z M117.2,43.6v-6h-4v6H117.2z M114.4,39.4
		c2.1,0.9,3.9,1.6,5.5,2l1-3.9c-1.3-0.3-2.9-0.9-4.9-1.8L114.4,39.4z M119.9,41.5c1.6,0.4,3,0.6,4.4,0.6v-4c-1,0-2.1-0.2-3.4-0.5
		L119.9,41.5z M124.4,42.1c1.6,0,3.2-0.3,4.4-1.2l-2.3-3.2c-0.3,0.2-0.9,0.4-2.1,0.4V42.1z M128.8,40.9c1.4-1,2-2.4,2-4h-4
		c0,0.5-0.1,0.7-0.3,0.8L128.8,40.9z M130.7,36.9c0-1-0.3-1.9-0.9-2.8l-3.2,2.4c0.1,0.1,0.1,0.2,0.1,0.4H130.7z M129.9,34.1
		c-0.5-0.7-1.2-1.3-2-1.9l-2.2,3.3c0.5,0.3,0.8,0.6,0.9,0.8L129.9,34.1z M127.9,32.3c-0.8-0.5-2.2-1.3-4.2-2.2l-1.7,3.6
		c2,1,3.2,1.6,3.7,1.9L127.9,32.3z M123.7,30.1c-1.8-0.8-3-1.6-3.7-2.2l-2.6,3c1.1,1,2.7,1.9,4.6,2.8L123.7,30.1z M120,27.8
		c-0.7-0.6-1.3-1.4-1.8-2.2l-3.6,1.8c0.7,1.3,1.6,2.4,2.7,3.4L120,27.8z M118.2,25.6c-0.4-0.7-0.6-1.7-0.6-2.8h-4
		c0,1.7,0.3,3.3,1.1,4.7L118.2,25.6z M117.6,22.8c0-2.2,0.7-3.7,2-4.8l-2.6-3.1c-2.3,2-3.4,4.7-3.4,7.9H117.6z M119.6,18
		c1.4-1.1,3.4-1.8,6.3-1.8v-4c-3.5,0-6.6,0.8-8.9,2.8L119.6,18z M125.9,16.2c1.4,0,2.8,0.2,4,0.5l1-3.9c-1.6-0.4-3.3-0.6-5-0.6V16.2
		z M129.9,16.6c1.3,0.3,2.7,0.8,4.2,1.5l1.6-3.7c-1.6-0.7-3.3-1.3-4.8-1.7L129.9,16.6z M133.1,15.5l-2.1,5l3.7,1.5l2.1-5L133.1,15.5
		z M133.6,19.5c-1.7-0.7-3.1-1.2-4.3-1.5l-1,3.9c0.9,0.2,2.2,0.7,3.8,1.3L133.6,19.5z M129.3,18c-1.2-0.3-2.4-0.5-3.6-0.5v4
		c0.9,0,1.7,0.1,2.6,0.3L129.3,18z M125.7,17.5c-1.5,0-3,0.4-4.1,1.3l2.6,3c0.2-0.1,0.6-0.4,1.5-0.4V17.5z M121.6,18.9
		c-1.1,1-1.7,2.3-1.7,3.7h4c0-0.4,0.1-0.6,0.3-0.7L121.6,18.9z M119.9,22.6c0,0.9,0.2,1.8,0.7,2.5l3.4-2.1c0-0.1-0.1-0.2-0.1-0.5
		H119.9z M120.6,25.2c0.4,0.7,1.1,1.3,1.8,1.8l2.3-3.3c-0.4-0.3-0.6-0.5-0.7-0.7L120.6,25.2z M122.4,27c0.7,0.5,2.2,1.3,4.3,2.3
		l1.7-3.6c-2.2-1-3.4-1.7-3.9-2L122.4,27z M126.8,29.2c2.8,1.3,4.4,2.5,5.1,3.5l3.2-2.4c-1.3-1.8-3.6-3.3-6.6-4.7L126.8,29.2z
		 M131.9,32.8c0.7,1,1.2,2.2,1.2,3.8h4c0-2.4-0.6-4.5-2-6.2L131.9,32.8z M187.3,45l-1.9,0.6l0.4,1.4h1.5V45z M185.1,37.8l1.9-0.6
		l-0.4-1.4h-1.5V37.8z M174,37.8v-2h-1.5l-0.4,1.4L174,37.8z M171.8,45v2h1.5l0.4-1.4L171.8,45z M164.9,45l-1.9-0.7L162,47h2.8V45z
		 M175.6,14.5v-2h-1.4l-0.5,1.3L175.6,14.5z M183.5,14.5l1.9-0.7l-0.5-1.3h-1.4V14.5z M194.3,45v2h2.8l-0.9-2.7L194.3,45z
		 M183.6,32.4v2h2.7l-0.8-2.6L183.6,32.4z M180.1,21.2l-1.9,0.6l0,0l0,0L180.1,21.2z M179.6,19.2l2-0.4l-3.9-0.1L179.6,19.2z
		 M175.6,32.4l-1.9-0.6l-0.8,2.6h2.7V32.4z M189.2,44.4l-2.2-7.2l-3.8,1.2l2.2,7.2L189.2,44.4z M185.1,35.8H174v4h11.1V35.8z
		 M172.1,37.2l-2.2,7.2l3.8,1.2l2.2-7.2L172.1,37.2z M171.8,43h-6.9v4h6.9V43z M166.7,45.7l10.7-30.5l-3.8-1.3L163,44.3L166.7,45.7z
		 M175.6,16.5h7.9v-4h-7.9V16.5z M181.6,15.1l10.8,30.5l3.8-1.3l-10.8-30.5L181.6,15.1z M194.3,43h-6.9v4h6.9V43z M185.5,31.8
		c-2-6.6-3.2-10.3-3.4-11.1l-3.8,1.2c0.3,0.9,1.4,4.6,3.5,11.1L185.5,31.8z M182,20.7c-0.2-0.8-0.4-1.5-0.5-1.9l-3.9,0.9
		c0.1,0.6,0.3,1.3,0.6,2.2L182,20.7z M177.6,18.7c-0.4,1.7-1.7,6.1-3.9,13.1l3.8,1.2c2.2-7,3.5-11.4,4-13.3L177.6,18.7z M175.6,34.4
		h7.9v-4h-7.9V34.4z M75.5,59.6v-2h-2v2H75.5z M94.4,61.4l-1.1,1.7l0,0l0,0L94.4,61.4z M96,71.8l-1.6-1.2l0,0l0,0L96,71.8z
		 M92.6,73.9l-0.3-2l-1.7,0.3v1.7H92.6z M92.6,74.1h-2v1.6l1.6,0.3L92.6,74.1z M96.8,76.5l-1.6,1.2l0,0l0,0L96.8,76.5z M95,87.7
		l-1.2-1.6l0,0L95,87.7z M75.5,90h-2v2h2V90z M82,71.6h-2v2h2V71.6z M89.5,70.8l-1.1-1.7l0,0l0,0L89.5,70.8z M89.4,65.6l-1,1.7l0,0
		l0,0L89.4,65.6z M82,64.9v-2h-2v2H82z M82,76.7v-2h-2v2H82z M82,84.7h-2v2h2V84.7z M75.5,61.6H85v-4h-9.5V61.6z M85,61.6
		c4.2,0,6.9,0.6,8.3,1.5l2.1-3.4c-2.4-1.5-6-2.2-10.5-2.2V61.6z M93.3,63.1c1.3,0.8,2,2,2,4.1h4c0-3.2-1.2-5.9-3.9-7.5L93.3,63.1z
		 M95.3,67.3c0,1.5-0.4,2.5-0.9,3.3l3.2,2.4c1.2-1.6,1.7-3.5,1.7-5.7H95.3z M94.4,70.6c-0.5,0.7-1.2,1.2-2.1,1.3l0.7,3.9
		c1.9-0.3,3.5-1.3,4.7-2.9L94.4,70.6z M90.6,73.9v0.2h4v-0.2H90.6z M92.2,76c1.6,0.4,2.5,1,3,1.6l3.2-2.3c-1.2-1.7-3.1-2.7-5.3-3.2
		L92.2,76z M95.2,77.7c0.5,0.7,0.9,1.8,0.9,3.5h4c0-2.2-0.5-4.3-1.7-5.9L95.2,77.7z M96.1,81.2c0,2.2-0.8,3.8-2.2,4.9l2.4,3.2
		c2.6-2,3.8-4.7,3.8-8.1H96.1z M93.8,86.1C92.3,87.3,90,88,86.9,88v4c3.7,0,6.9-0.8,9.4-2.8L93.8,86.1z M86.9,88H75.5v4h11.4V88z
		 M77.5,90V59.6h-4V90H77.5z M82,73.6h3.7v-4H82V73.6z M85.7,73.6c1.9,0,3.6-0.3,4.9-1.2l-2.3-3.3c-0.3,0.2-1,0.5-2.6,0.5V73.6z
		 M90.6,72.5c1.5-1,2.1-2.6,2.1-4.3h-4c0,0.8-0.2,1-0.3,1L90.6,72.5z M92.7,68.1c0-1.7-0.7-3.3-2.3-4.2l-2,3.5
		c0.1,0.1,0.3,0.2,0.3,0.8H92.7z M90.4,63.9c-1.3-0.8-3.1-1.1-5.1-1.1v4c1.7,0,2.6,0.3,3,0.5L90.4,63.9z M85.3,62.9H82v4h3.4V62.9z
		 M80,64.9v6.8h4v-6.8H80z M80,76.7v7.9h4v-7.9H80z M82,86.7h4.2v-4H82V86.7z M86.2,86.7c2,0,3.8-0.4,5.2-1.5l-2.5-3.1
		c-0.3,0.3-1.1,0.6-2.7,0.6V86.7z M91.3,85.2c1.4-1.2,2-2.9,2-4.7h-4c0,1-0.3,1.4-0.5,1.6L91.3,85.2z M93.4,80.5
		c0-1.8-0.7-3.4-2.2-4.5c-1.4-1-3.2-1.3-5.2-1.3v4c1.6,0,2.5,0.3,2.9,0.6c0.3,0.2,0.5,0.5,0.5,1.2H93.4z M86,74.7h-4v4h4V74.7z
		 M112.7,90h-2v2h2V90z M112.7,59.6v-2h-2v2H112.7z M119.1,59.6h2v-2h-2V59.6z M119.1,90v2h2v-2H119.1z M114.7,90V59.6h-4V90H114.7z
		 M112.7,61.6h6.4v-4h-6.4V61.6z M117.1,59.6V90h4V59.6H117.1z M119.1,88h-6.4v4h6.4V88z M146.8,72.9v-2h-2v2H146.8z M158.9,72.9h2
		v-2h-2V72.9z M158.9,88.7l0.6,1.9l1.4-0.5v-1.5H158.9z M153.4,90l-0.3-2l0,0l0,0L153.4,90z M137.5,86.4l-1.5,1.3l0,0L137.5,86.4z
		 M138.1,63.3l-1.4-1.4l0,0L138.1,63.3z M158.8,61l1.8,0.8l0.8-1.8l-1.8-0.8L158.8,61z M156.7,66.2l-0.9,1.8l1.9,1l0.8-2L156.7,66.2
		z M142.6,82.4l-1.6,1.2l0,0l0,0L142.6,82.4z M152.6,84.6l0.4,2l1.6-0.3v-1.6H152.6z M152.6,78.3h2v-2h-2V78.3z M146.8,78.3h-2v2h2
		V78.3z M146.8,74.9h12.1v-4h-12.1V74.9z M156.9,72.9v15.8h4V72.9H156.9z M158.3,86.8c-1.9,0.6-3.6,1-5.2,1.3l0.6,4
		c1.9-0.3,3.8-0.7,5.9-1.4L158.3,86.8z M153,88c-1.6,0.2-3.3,0.4-5,0.4v4c1.9,0,3.8-0.1,5.6-0.4L153,88z M148.1,88.4
		c-4.2,0-7.1-1.2-9-3.4l-3,2.7c2.9,3.2,7,4.7,12,4.7V88.4z M139,85c-2-2.2-3.1-5.5-3.1-10.3h-4c0,5.3,1.3,9.8,4.1,13L139,85z
		 M135.9,74.8c0-4.5,1.3-7.8,3.6-10.1l-2.8-2.9c-3.3,3.2-4.8,7.6-4.8,12.9H135.9z M139.5,64.7c2.3-2.3,5.7-3.6,10.3-3.6v-4
		c-5.4,0-9.8,1.5-13.1,4.7L139.5,64.7z M149.8,61.2c2.8,0,5.6,0.6,8.2,1.7l1.6-3.7c-3.1-1.4-6.4-2-9.8-2V61.2z M157,60.3l-2.1,5.2
		l3.7,1.5l2.1-5.2L157,60.3z M157.6,64.4c-2.5-1.2-5.1-1.9-7.8-1.9v4c2.1,0,4.1,0.5,6,1.5L157.6,64.4z M149.8,62.5
		c-3.3,0-6.1,1.1-8.2,3.5l3,2.7c1.3-1.4,2.9-2.1,5.2-2.1V62.5z M141.6,66c-2.1,2.3-3,5.4-3,8.9h4c0-2.8,0.7-4.8,2-6.2L141.6,66z
		 M138.6,74.9c0,3.5,0.7,6.6,2.4,8.8l3.2-2.4c-1-1.3-1.6-3.3-1.6-6.4H138.6z M141,83.7c1.8,2.3,4.4,3.4,7.5,3.4v-4
		c-2.1,0-3.4-0.7-4.3-1.8L141,83.7z M148.5,87c1.5,0,3-0.2,4.5-0.5l-0.8-3.9c-1.3,0.3-2.5,0.4-3.7,0.4V87z M154.6,84.6v-6.3h-4v6.3
		H154.6z M152.6,76.3h-5.8v4h5.8V76.3z M148.8,78.3v-5.4h-4v5.4H148.8z M74.5,131l-1.4-1.5l0,0L74.5,131z M53.6,135h-2v2h2V135z
		 M53.6,104.6v-2h-2v2H53.6z M60,109.9v-2h-2v2H60z M60,129.7h-2v2h2V129.7z M76.8,119.5c0,4.6-1.3,7.9-3.6,10l2.7,2.9
		c3.4-3.1,4.9-7.6,4.9-13H76.8z M73.2,129.5c-2.4,2.2-5.9,3.5-11,3.5v4c5.7,0,10.4-1.4,13.7-4.5L73.2,129.5z M62.2,133h-8.6v4h8.6
		V133z M55.6,135v-30.4h-4V135H55.6z M53.6,106.6h9.5v-4h-9.5V106.6z M63.1,106.6c4.6,0,7.9,1.2,10.2,3.4l2.8-2.9
		c-3.2-3.1-7.6-4.5-12.9-4.5V106.6z M73.3,110c2.3,2.2,3.5,5.2,3.5,9.5h4c0-5.1-1.5-9.3-4.7-12.4L73.3,110z M74.1,119.7
		c0-3.5-0.8-6.5-2.7-8.7c-1.9-2.2-4.7-3.1-8-3.1v4c2.5,0,4,0.7,5,1.8c1,1.1,1.7,3,1.7,6H74.1z M63.5,107.9H60v4h3.4V107.9z
		 M58,109.9v19.8h4v-19.8H58z M60,131.7h2.8v-4H60V131.7z M62.8,131.7c3.5,0,6.4-0.9,8.5-3.1c2-2.2,2.9-5.3,2.9-8.9h-4
		c0,3.1-0.7,5-1.8,6.1c-1.1,1.1-2.8,1.9-5.5,1.9V131.7z M111.2,135v2h2v-2H111.2z M93.6,135h-2v2h2V135z M93.6,104.6v-2h-2v2H93.6z
		 M111.2,104.6h2v-2h-2V104.6z M111.2,109.9v2h2v-2H111.2z M100.1,109.9v-2h-2v2H100.1z M100.1,116.6h-2v2h2V116.6z M110.4,116.6h2
		v-2h-2V116.6z M110.4,121.8v2h2v-2H110.4z M100.1,121.8v-2h-2v2H100.1z M100.1,129.7h-2v2h2V129.7z M111.2,129.7h2v-2h-2V129.7z
		 M111.2,133H93.6v4h17.5V133z M95.6,135v-30.4h-4V135H95.6z M93.6,106.6h17.5v-4H93.6V106.6z M109.2,104.6v5.3h4v-5.3H109.2z
		 M111.2,107.9h-11.1v4h11.1V107.9z M98.1,109.9v6.7h4v-6.7H98.1z M100.1,118.6h10.3v-4h-10.3V118.6z M108.4,116.6v5.3h4v-5.3H108.4
		z M110.4,119.8h-10.3v4h10.3V119.8z M98.1,121.8v7.8h4v-7.8H98.1z M100.1,131.7h11.1v-4h-11.1V131.7z M109.2,129.7v5.3h4v-5.3
		H109.2z M144.7,135l-1.9,0.6l0.4,1.4h1.5V135z M142.5,127.8l1.9-0.6l-0.4-1.4h-1.5V127.8z M131.4,127.8v-2h-1.5l-0.4,1.4
		L131.4,127.8z M129.2,135v2h1.5l0.4-1.4L129.2,135z M122.2,135l-1.9-0.7l-0.9,2.7h2.8V135z M132.9,104.5v-2h-1.4l-0.5,1.3
		L132.9,104.5z M140.8,104.5l1.9-0.7l-0.5-1.3h-1.4V104.5z M151.6,135v2h2.8l-0.9-2.7L151.6,135z M140.9,122.4v2h2.7l-0.8-2.6
		L140.9,122.4z M137.5,111.2l-1.9,0.6l0,0l0,0L137.5,111.2z M136.9,109.2l2-0.4l-3.9-0.1L136.9,109.2z M133,122.4l-1.9-0.6l-0.8,2.6
		h2.7V122.4z M146.6,134.4l-2.2-7.2l-3.8,1.2l2.2,7.2L146.6,134.4z M142.5,125.8h-11.1v4h11.1V125.8z M129.5,127.2l-2.2,7.2l3.8,1.2
		l2.2-7.2L129.5,127.2z M129.2,133h-6.9v4h6.9V133z M124.1,135.7l10.7-30.5l-3.8-1.3l-10.7,30.5L124.1,135.7z M132.9,106.5h7.9v-4
		h-7.9V106.5z M138.9,105.1l10.8,30.5l3.8-1.3l-10.8-30.5L138.9,105.1z M151.6,133h-6.9v4h6.9V133z M142.8,121.8
		c-2-6.6-3.2-10.3-3.5-11.1l-3.8,1.2c0.3,0.9,1.4,4.6,3.5,11.1L142.8,121.8z M139.4,110.7c-0.2-0.8-0.4-1.5-0.5-1.9l-3.9,0.9
		c0.1,0.6,0.3,1.3,0.6,2.2L139.4,110.7z M135,108.7c-0.4,1.7-1.7,6.1-3.9,13.1l3.8,1.2c2.2-7,3.5-11.4,4-13.3L135,108.7z M133,124.4
		h7.9v-4H133V124.4z M164,135h-2v2h2V135z M164,104.6v-2h-2v2H164z M170.4,104.6h2v-2h-2V104.6z M170.4,129.7h-2v2h2V129.7z
		 M182.8,129.7h2v-2h-2V129.7z M182.8,135v2h2v-2H182.8z M166,135v-30.4h-4V135H166z M164,106.6h6.4v-4H164V106.6z M168.4,104.6
		v25.1h4v-25.1H168.4z M170.4,131.7h12.3v-4h-12.3V131.7z M180.8,129.7v5.3h4v-5.3H180.8z M182.8,133H164v4h18.8V133z"/>
</g>
<defs>
	
		<filter id="Adobe_OpacityMaskFilter_00000018922862269610315140000016789168934176634790_" filterUnits="userSpaceOnUse" x="37.1" y="17.2" width="155.5" height="124.8">
		<feColorMatrix  type="matrix" values="1 0 0 0 0  0 1 0 0 0  0 0 1 0 0  0 0 0 1 0"/>
	</filter>
</defs>
<mask maskUnits="userSpaceOnUse" x="37.1" y="17.2" width="155.5" height="124.8" id="path-5-outside-3_1_46761_00000016053775149367901990000004736523768169820563_">
	
		<rect x="37" y="17" style="fill:#FFFFFF;filter:url(#Adobe_OpacityMaskFilter_00000018922862269610315140000016789168934176634790_);" width="156" height="125"/>
	<path d="M39.1,50V19.6h6.4V50H39.1z M73.4,50H67V25h-8.3v-5.4h23V25h-8.3V50z M99.5,19.6l0.3,0.5c-0.7,2.7-1.9,6.1-3.7,10h-4.6
		c1-4.1,1.7-7.6,2.1-10.4H99.5z M130.6,41.6c0,2.7-1,4.9-3,6.5c-2,1.6-4.7,2.4-8.2,2.4c-3.2,0-6.1-0.6-8.6-1.8v-6
		c2.1,0.9,3.8,1.6,5.2,1.9c1.4,0.4,2.7,0.6,3.9,0.6c1.4,0,2.5-0.3,3.2-0.8c0.8-0.5,1.1-1.3,1.1-2.4c0-0.6-0.2-1.1-0.5-1.6
		c-0.3-0.5-0.8-0.9-1.5-1.4c-0.6-0.4-1.9-1.1-3.9-2.1c-1.9-0.9-3.3-1.7-4.2-2.5c-0.9-0.8-1.7-1.7-2.2-2.8c-0.6-1.1-0.8-2.3-0.8-3.7
		c0-2.7,0.9-4.8,2.7-6.3c1.8-1.5,4.4-2.3,7.6-2.3c1.6,0,3.1,0.2,4.5,0.6c1.4,0.4,2.9,0.9,4.5,1.6l-2.1,5c-1.6-0.7-3-1.1-4-1.4
		c-1.1-0.3-2.1-0.4-3.1-0.4c-1.2,0-2.2,0.3-2.8,0.9c-0.7,0.6-1,1.3-1,2.2c0,0.6,0.1,1.1,0.4,1.5c0.3,0.4,0.7,0.8,1.2,1.2
		c0.6,0.4,1.9,1.1,4.1,2.1c2.8,1.4,4.8,2.7,5.8,4.1C130,37.9,130.6,39.6,130.6,41.6z M182.8,50l-2.2-7.2h-11.1l-2.2,7.2h-6.9
		l10.7-30.5h7.9L189.8,50H182.8z M179.1,37.4c-2-6.6-3.2-10.3-3.5-11.1c-0.2-0.9-0.4-1.5-0.5-2c-0.5,1.8-1.8,6.2-3.9,13.2H179.1z
		 M71,64.6h9.5c4.3,0,7.4,0.6,9.4,1.9c2,1.2,2.9,3.2,2.9,5.8c0,1.8-0.4,3.3-1.3,4.5c-0.8,1.2-2,1.9-3.4,2.1v0.2
		c1.9,0.4,3.3,1.2,4.2,2.4c0.9,1.2,1.3,2.7,1.3,4.7c0,2.8-1,4.9-3,6.5c-2,1.6-4.7,2.3-8.2,2.3H71V64.6z M77.5,76.6h3.7
		c1.7,0,3-0.3,3.8-0.8c0.8-0.5,1.2-1.4,1.2-2.7c0-1.2-0.4-2-1.3-2.5c-0.8-0.5-2.2-0.8-4-0.8h-3.4V76.6z M77.5,81.7v7.9h4.2
		c1.8,0,3.1-0.3,3.9-1s1.3-1.7,1.3-3.1c0-2.5-1.8-3.8-5.4-3.8H77.5z M108.2,95V64.6h6.4V95H108.2z M142.3,77.9h12.1v15.8
		c-2,0.6-3.8,1.1-5.5,1.3c-1.7,0.3-3.5,0.4-5.3,0.4c-4.6,0-8.1-1.3-10.5-4c-2.4-2.7-3.6-6.6-3.6-11.6c0-4.9,1.4-8.7,4.2-11.5
		c2.8-2.7,6.7-4.1,11.7-4.1c3.1,0,6.1,0.6,9,1.9l-2.1,5.2c-2.2-1.1-4.5-1.7-6.9-1.7c-2.8,0-5,0.9-6.7,2.8c-1.7,1.9-2.5,4.4-2.5,7.6
		c0,3.3,0.7,5.8,2,7.6c1.4,1.7,3.3,2.6,5.9,2.6c1.3,0,2.7-0.1,4.1-0.4v-6.3h-5.8V77.9z M74.3,124.5c0,5-1.4,8.8-4.3,11.5
		c-2.8,2.7-7,4-12.3,4h-8.6v-30.4h9.5c5,0,8.8,1.3,11.6,3.9C72.9,116.1,74.3,119.8,74.3,124.5z M67.6,124.7c0-6.5-2.9-9.8-8.7-9.8
		h-3.4v19.8h2.8C64.5,134.7,67.6,131.3,67.6,124.7z M106.7,140H89.1v-30.4h17.5v5.3H95.6v6.7h10.3v5.3H95.6v7.8h11.1V140z
		 M140.2,140l-2.2-7.2h-11.1l-2.2,7.2h-6.9l10.7-30.5h7.9l10.8,30.5H140.2z M136.4,127.4c-2-6.6-3.2-10.3-3.5-11.1
		c-0.2-0.9-0.4-1.5-0.5-2c-0.5,1.8-1.8,6.2-3.9,13.2H136.4z M159.5,140v-30.4h6.4v25.1h12.3v5.3H159.5z"/>
</mask>
<path class="st11" d="M39.1,50h-2v2h2V50z M39.1,19.6v-2h-2v2H39.1z M45.5,19.6h2v-2h-2V19.6z M45.5,50v2h2v-2H45.5z M41.1,50V19.6
	h-4V50H41.1z M39.1,21.6h6.4v-4h-6.4V21.6z M43.5,19.6V50h4V19.6H43.5z M45.5,48h-6.4v4h6.4V48z M73.4,50v2h2v-2H73.4z M67,50h-2v2
	h2V50z M67,25h2v-2h-2V25z M58.7,25h-2v2h2V25z M58.7,19.6v-2h-2v2H58.7z M81.7,19.6h2v-2h-2V19.6z M81.7,25v2h2v-2H81.7z M73.4,25
	v-2h-2v2H73.4z M73.4,48H67v4h6.4V48z M69,50V25h-4v25H69z M67,23h-8.3v4H67V23z M60.7,25v-5.4h-4V25H60.7z M58.7,21.6h23v-4h-23
	V21.6z M79.7,19.6V25h4v-5.4H79.7z M81.7,23h-8.3v4h8.3V23z M71.4,25v25h4V25H71.4z M99.5,19.6l1.7-1.1l-0.6-0.9h-1.1V19.6z
	 M99.8,20l1.9,0.5l0.2-0.8l-0.5-0.7L99.8,20z M96.1,30v2h1.3l0.5-1.2L96.1,30z M91.6,30l-1.9-0.5L89,32h2.5V30z M93.6,19.6v-2h-1.7
	l-0.3,1.7L93.6,19.6z M97.8,20.7l0.3,0.5l3.4-2.1l-0.3-0.5L97.8,20.7z M97.8,19.6c-0.7,2.6-1.8,5.8-3.5,9.6l3.7,1.6
	c1.8-4,3-7.4,3.8-10.3L97.8,19.6z M96.1,28h-4.6v4h4.6V28z M93.5,30.5c1-4.1,1.7-7.7,2.1-10.6l-4-0.6c-0.4,2.8-1.1,6.2-2.1,10.3
	L93.5,30.5z M93.6,21.6h5.8v-4h-5.8V21.6z M127.6,48l-1.2-1.6l0,0L127.6,48z M110.7,48.6h-2v1.2l1.1,0.5L110.7,48.6z M110.7,42.6
	l0.8-1.8l-2.8-1.3v3.1H110.7z M115.9,44.5l-0.5,1.9l0,0L115.9,44.5z M123.1,44.3l-1.2-1.6l0,0l0,0L123.1,44.3z M123.7,40.3l-1.6,1.2
	l0,0l0,0L123.7,40.3z M122.3,38.9l-1.1,1.7l0,0l0,0L122.3,38.9z M118.3,36.9l0.9-1.8l0,0L118.3,36.9z M113.8,21.5l-1.3-1.5l0,0
	L113.8,21.5z M125.9,19.7l-0.5,1.9l0,0L125.9,19.7z M130.4,21.3l1.8,0.8l0.8-1.8l-1.8-0.8L130.4,21.3z M128.3,26.3l-0.8,1.9l1.8,0.8
	l0.8-1.8L128.3,26.3z M124.3,24.9l-0.5,1.9l0,0L124.3,24.9z M117.8,29.1l-1.7,1l0,0l0,0L117.8,29.1z M119,30.3l-1.2,1.6l0,0l0,0
	L119,30.3z M123.1,32.4l0.9-1.8v0L123.1,32.4z M129,36.5l-1.6,1.2l0,0L129,36.5z M128.6,41.6c0,2.2-0.8,3.8-2.2,4.9l2.5,3.1
	c2.5-2,3.7-4.8,3.7-8.1H128.6z M126.3,46.5c-1.5,1.2-3.7,1.9-7,1.9v4c3.8,0,7-0.9,9.5-2.8L126.3,46.5z M119.4,48.4
	c-3,0-5.6-0.6-7.7-1.6l-1.8,3.6c2.8,1.4,6,2,9.5,2V48.4z M112.7,48.6v-6h-4v6H112.7z M109.9,44.4c2.1,0.9,3.9,1.6,5.5,2l1-3.9
	c-1.3-0.3-2.9-0.9-4.9-1.8L109.9,44.4z M115.4,46.5c1.6,0.4,3,0.6,4.4,0.6v-4c-1,0-2.1-0.2-3.4-0.5L115.4,46.5z M119.9,47.1
	c1.6,0,3.2-0.3,4.4-1.2l-2.3-3.2c-0.3,0.2-0.9,0.4-2.1,0.4V47.1z M124.3,45.9c1.4-1,2-2.4,2-4h-4c0,0.5-0.1,0.7-0.3,0.8L124.3,45.9z
	 M126.2,41.9c0-1-0.3-1.9-0.9-2.8l-3.2,2.4c0.1,0.1,0.1,0.2,0.1,0.4H126.2z M125.4,39.1c-0.5-0.7-1.2-1.3-2-1.9l-2.2,3.3
	c0.5,0.3,0.8,0.6,0.9,0.8L125.4,39.1z M123.4,37.3c-0.8-0.5-2.2-1.3-4.2-2.2l-1.7,3.6c2,1,3.2,1.6,3.7,1.9L123.4,37.3z M119.2,35.1
	c-1.8-0.8-3-1.6-3.7-2.2l-2.6,3c1.1,1,2.7,1.9,4.6,2.8L119.2,35.1z M115.5,32.8c-0.7-0.6-1.3-1.4-1.8-2.2l-3.6,1.8
	c0.7,1.3,1.6,2.4,2.7,3.4L115.5,32.8z M113.7,30.6c-0.4-0.7-0.6-1.7-0.6-2.8h-4c0,1.7,0.3,3.3,1.1,4.7L113.7,30.6z M113.1,27.8
	c0-2.2,0.7-3.7,2-4.8l-2.6-3.1c-2.3,2-3.4,4.7-3.4,7.9H113.1z M115.1,23c1.4-1.1,3.4-1.8,6.3-1.8v-4c-3.5,0-6.6,0.8-8.9,2.8
	L115.1,23z M121.4,21.2c1.4,0,2.8,0.2,4,0.5l1-3.9c-1.6-0.4-3.3-0.6-5-0.6V21.2z M125.4,21.6c1.3,0.3,2.7,0.8,4.2,1.5l1.6-3.7
	c-1.6-0.7-3.3-1.3-4.8-1.7L125.4,21.6z M128.6,20.5l-2.1,5l3.7,1.5l2.1-5L128.6,20.5z M129.1,24.5c-1.7-0.7-3.1-1.2-4.3-1.5l-1,3.9
	c0.9,0.2,2.2,0.7,3.8,1.3L129.1,24.5z M124.8,23c-1.2-0.3-2.4-0.5-3.6-0.5v4c0.9,0,1.7,0.1,2.6,0.3L124.8,23z M121.2,22.5
	c-1.5,0-3,0.4-4.1,1.3l2.6,3c0.2-0.1,0.6-0.4,1.5-0.4V22.5z M117.1,23.9c-1.1,1-1.7,2.3-1.7,3.7h4c0-0.4,0.1-0.6,0.3-0.7L117.1,23.9
	z M115.4,27.6c0,0.9,0.2,1.8,0.7,2.5l3.4-2.1c0-0.1-0.1-0.2-0.1-0.5H115.4z M116.1,30.2c0.4,0.7,1.1,1.3,1.8,1.8l2.3-3.3
	c-0.4-0.3-0.6-0.5-0.7-0.7L116.1,30.2z M117.9,32c0.7,0.5,2.2,1.3,4.3,2.3l1.7-3.6c-2.2-1-3.4-1.7-3.9-2L117.9,32z M122.3,34.2
	c2.8,1.3,4.4,2.5,5.1,3.5l3.2-2.4c-1.3-1.8-3.6-3.3-6.6-4.7L122.3,34.2z M127.4,37.8c0.7,1,1.2,2.2,1.2,3.8h4c0-2.4-0.6-4.5-2-6.2
	L127.4,37.8z M182.8,50l-1.9,0.6l0.4,1.4h1.5V50z M180.6,42.8l1.9-0.6l-0.4-1.4h-1.5V42.8z M169.5,42.8v-2H168l-0.4,1.4L169.5,42.8z
	 M167.3,50v2h1.5l0.4-1.4L167.3,50z M160.4,50l-1.9-0.7l-0.9,2.7h2.8V50z M171.1,19.5v-2h-1.4l-0.5,1.3L171.1,19.5z M179,19.5
	l1.9-0.7l-0.5-1.3H179V19.5z M189.8,50v2h2.8l-0.9-2.7L189.8,50z M179.1,37.4v2h2.7l-0.8-2.6L179.1,37.4z M175.6,26.2l-1.9,0.6l0,0
	l0,0L175.6,26.2z M175.1,24.2l2-0.4l-3.9-0.1L175.1,24.2z M171.1,37.4l-1.9-0.6l-0.8,2.6h2.7V37.4z M184.7,49.4l-2.2-7.2l-3.8,1.2
	l2.2,7.2L184.7,49.4z M180.6,40.8h-11.1v4h11.1V40.8z M167.6,42.2l-2.2,7.2l3.8,1.2l2.2-7.2L167.6,42.2z M167.3,48h-6.9v4h6.9V48z
	 M162.2,50.7L173,20.1l-3.8-1.3l-10.7,30.5L162.2,50.7z M171.1,21.5h7.9v-4h-7.9V21.5z M177.1,20.1l10.8,30.5l3.8-1.3l-10.8-30.5
	L177.1,20.1z M189.8,48h-6.9v4h6.9V48z M181,36.8c-2-6.6-3.2-10.3-3.4-11.1l-3.8,1.2c0.3,0.9,1.4,4.6,3.5,11.1L181,36.8z
	 M177.5,25.7c-0.2-0.8-0.4-1.5-0.5-1.9l-3.9,0.9c0.1,0.6,0.3,1.3,0.6,2.2L177.5,25.7z M173.1,23.7c-0.4,1.7-1.7,6.1-3.9,13.1
	l3.8,1.2c2.2-7,3.5-11.4,4-13.3L173.1,23.7z M171.1,39.4h7.9v-4h-7.9V39.4z M71,64.6v-2h-2v2H71z M89.9,66.4l-1.1,1.7l0,0l0,0
	L89.9,66.4z M91.5,76.8l-1.6-1.2l0,0l0,0L91.5,76.8z M88.1,78.9l-0.3-2l-1.7,0.3v1.7H88.1z M88.1,79.1h-2v1.6l1.6,0.3L88.1,79.1z
	 M92.3,81.5l-1.6,1.2l0,0l0,0L92.3,81.5z M90.5,92.7l-1.2-1.6l0,0L90.5,92.7z M71,95h-2v2h2V95z M77.5,76.6h-2v2h2V76.6z M85,75.8
	l-1.1-1.7l0,0l0,0L85,75.8z M84.9,70.6l-1,1.7l0,0l0,0L84.9,70.6z M77.5,69.9v-2h-2v2H77.5z M77.5,81.7v-2h-2v2H77.5z M77.5,89.7h-2
	v2h2V89.7z M71,66.6h9.5v-4H71V66.6z M80.5,66.6c4.2,0,6.9,0.6,8.3,1.5l2.1-3.4c-2.4-1.5-6-2.2-10.5-2.2V66.6z M88.8,68.1
	c1.3,0.8,2,2,2,4.1h4c0-3.2-1.2-5.9-3.9-7.5L88.8,68.1z M90.8,72.3c0,1.5-0.4,2.5-0.9,3.3l3.2,2.4c1.2-1.6,1.7-3.5,1.7-5.7H90.8z
	 M89.9,75.6c-0.5,0.7-1.2,1.2-2.1,1.3l0.7,3.9c1.9-0.3,3.5-1.3,4.7-2.9L89.9,75.6z M86.1,78.9v0.2h4v-0.2H86.1z M87.7,81
	c1.6,0.4,2.5,1,3,1.6l3.2-2.3c-1.2-1.7-3.1-2.7-5.3-3.2L87.7,81z M90.7,82.7c0.5,0.7,0.9,1.8,0.9,3.5h4c0-2.2-0.5-4.3-1.7-5.9
	L90.7,82.7z M91.6,86.2c0,2.2-0.8,3.8-2.2,4.9l2.4,3.2c2.6-2,3.8-4.7,3.8-8.1H91.6z M89.3,91.1c-1.5,1.2-3.8,1.9-6.9,1.9v4
	c3.7,0,6.9-0.8,9.4-2.8L89.3,91.1z M82.4,93H71v4h11.4V93z M73,95V64.6h-4V95H73z M77.5,78.6h3.7v-4h-3.7V78.6z M81.2,78.6
	c1.9,0,3.6-0.3,4.9-1.2l-2.3-3.3c-0.3,0.2-1,0.5-2.6,0.5V78.6z M86.1,77.5c1.5-1,2.1-2.6,2.1-4.3h-4c0,0.8-0.2,1-0.3,1L86.1,77.5z
	 M88.2,73.1c0-1.7-0.7-3.3-2.3-4.2l-2,3.5c0.1,0.1,0.3,0.2,0.3,0.8H88.2z M85.9,68.9c-1.3-0.8-3.1-1.1-5.1-1.1v4
	c1.7,0,2.6,0.3,3,0.5L85.9,68.9z M80.8,67.9h-3.4v4h3.4V67.9z M75.5,69.9v6.8h4v-6.8H75.5z M75.5,81.7v7.9h4v-7.9H75.5z M77.5,91.7
	h4.2v-4h-4.2V91.7z M81.7,91.7c2,0,3.8-0.4,5.2-1.5l-2.5-3.1c-0.3,0.3-1.1,0.6-2.7,0.6V91.7z M86.8,90.2c1.4-1.2,2-2.9,2-4.7h-4
	c0,1-0.3,1.4-0.5,1.6L86.8,90.2z M88.9,85.5c0-1.8-0.7-3.4-2.2-4.5c-1.4-1-3.2-1.3-5.2-1.3v4c1.6,0,2.5,0.3,2.9,0.6
	c0.3,0.2,0.5,0.5,0.5,1.2H88.9z M81.5,79.7h-4v4h4V79.7z M108.2,95h-2v2h2V95z M108.2,64.6v-2h-2v2H108.2z M114.6,64.6h2v-2h-2V64.6
	z M114.6,95v2h2v-2H114.6z M110.2,95V64.6h-4V95H110.2z M108.2,66.6h6.4v-4h-6.4V66.6z M112.6,64.6V95h4V64.6H112.6z M114.6,93h-6.4
	v4h6.4V93z M142.3,77.9v-2h-2v2H142.3z M154.4,77.9h2v-2h-2V77.9z M154.4,93.7l0.6,1.9l1.4-0.5v-1.5H154.4z M148.9,95l-0.3-2l0,0
	l0,0L148.9,95z M133,91.4l-1.5,1.3l0,0L133,91.4z M133.6,68.3l-1.4-1.4l0,0L133.6,68.3z M154.3,66l1.8,0.8l0.8-1.8l-1.8-0.8
	L154.3,66z M152.2,71.2l-0.9,1.8l1.9,1l0.8-2L152.2,71.2z M138.1,87.4l-1.6,1.2l0,0l0,0L138.1,87.4z M148.1,89.6l0.4,2l1.6-0.3v-1.6
	H148.1z M148.1,83.3h2v-2h-2V83.3z M142.3,83.3h-2v2h2V83.3z M142.3,79.9h12.1v-4h-12.1V79.9z M152.4,77.9v15.8h4V77.9H152.4z
	 M153.8,91.8c-1.9,0.6-3.6,1-5.2,1.3l0.6,4c1.9-0.3,3.8-0.7,5.9-1.4L153.8,91.8z M148.5,93c-1.6,0.2-3.3,0.4-5,0.4v4
	c1.9,0,3.8-0.1,5.6-0.4L148.5,93z M143.6,93.4c-4.2,0-7.1-1.2-9-3.4l-3,2.7c2.9,3.2,7,4.7,12,4.7V93.4z M134.5,90
	c-2-2.2-3.1-5.5-3.1-10.3h-4c0,5.3,1.3,9.8,4.1,13L134.5,90z M131.4,79.8c0-4.5,1.3-7.8,3.6-10.1l-2.8-2.9
	c-3.3,3.2-4.8,7.6-4.8,12.9H131.4z M135,69.7c2.3-2.3,5.7-3.6,10.3-3.6v-4c-5.4,0-9.8,1.5-13.1,4.7L135,69.7z M145.3,66.2
	c2.8,0,5.6,0.6,8.2,1.7l1.6-3.7c-3.1-1.4-6.4-2-9.8-2V66.2z M152.5,65.3l-2.1,5.2L154,72l2.1-5.2L152.5,65.3z M153.1,69.4
	c-2.5-1.2-5.1-1.9-7.8-1.9v4c2.1,0,4.1,0.5,6,1.5L153.1,69.4z M145.3,67.5c-3.3,0-6.1,1.1-8.2,3.5l3,2.7c1.3-1.4,2.9-2.1,5.2-2.1
	V67.5z M137.1,71c-2.1,2.3-3,5.4-3,8.9h4c0-2.8,0.7-4.8,2-6.2L137.1,71z M134.1,79.9c0,3.5,0.7,6.6,2.4,8.8l3.2-2.4
	c-1-1.3-1.6-3.3-1.6-6.4H134.1z M136.5,88.7c1.8,2.3,4.4,3.4,7.5,3.4v-4c-2.1,0-3.4-0.7-4.3-1.8L136.5,88.7z M144,92
	c1.5,0,3-0.2,4.5-0.5l-0.8-3.9c-1.3,0.3-2.5,0.4-3.7,0.4V92z M150.1,89.6v-6.3h-4v6.3H150.1z M148.1,81.3h-5.8v4h5.8V81.3z
	 M144.3,83.3v-5.4h-4v5.4H144.3z M70,136l-1.4-1.5l0,0L70,136z M49.1,140h-2v2h2V140z M49.1,109.6v-2h-2v2H49.1z M55.5,114.9v-2h-2
	v2H55.5z M55.5,134.7h-2v2h2V134.7z M72.3,124.5c0,4.6-1.3,7.9-3.6,10l2.7,2.9c3.4-3.1,4.9-7.6,4.9-13H72.3z M68.7,134.5
	c-2.4,2.2-5.9,3.5-11,3.5v4c5.7,0,10.4-1.4,13.7-4.5L68.7,134.5z M57.7,138h-8.6v4h8.6V138z M51.1,140v-30.4h-4V140H51.1z
	 M49.1,111.6h9.5v-4h-9.5V111.6z M58.6,111.6c4.6,0,7.9,1.2,10.2,3.4l2.8-2.9c-3.2-3.1-7.6-4.5-12.9-4.5V111.6z M68.8,115
	c2.3,2.2,3.5,5.2,3.5,9.5h4c0-5.1-1.5-9.3-4.7-12.4L68.8,115z M69.6,124.7c0-3.5-0.8-6.5-2.7-8.7c-1.9-2.2-4.7-3.1-8-3.1v4
	c2.5,0,4,0.7,5,1.8c1,1.1,1.7,3,1.7,6H69.6z M59,112.9h-3.4v4H59V112.9z M53.5,114.9v19.8h4v-19.8H53.5z M55.5,136.7h2.8v-4h-2.8
	V136.7z M58.3,136.7c3.5,0,6.4-0.9,8.5-3.1c2-2.2,2.9-5.3,2.9-8.9h-4c0,3.1-0.7,5-1.8,6.1c-1.1,1.1-2.8,1.9-5.5,1.9V136.7z
	 M106.7,140v2h2v-2H106.7z M89.1,140h-2v2h2V140z M89.1,109.6v-2h-2v2H89.1z M106.7,109.6h2v-2h-2V109.6z M106.7,114.9v2h2v-2H106.7
	z M95.6,114.9v-2h-2v2H95.6z M95.6,121.6h-2v2h2V121.6z M105.9,121.6h2v-2h-2V121.6z M105.9,126.8v2h2v-2H105.9z M95.6,126.8v-2h-2
	v2H95.6z M95.6,134.7h-2v2h2V134.7z M106.7,134.7h2v-2h-2V134.7z M106.7,138H89.1v4h17.5V138z M91.1,140v-30.4h-4V140H91.1z
	 M89.1,111.6h17.5v-4H89.1V111.6z M104.7,109.6v5.3h4v-5.3H104.7z M106.7,112.9H95.6v4h11.1V112.9z M93.6,114.9v6.7h4v-6.7H93.6z
	 M95.6,123.6h10.3v-4H95.6V123.6z M103.9,121.6v5.3h4v-5.3H103.9z M105.9,124.8H95.6v4h10.3V124.8z M93.6,126.8v7.8h4v-7.8H93.6z
	 M95.6,136.7h11.1v-4H95.6V136.7z M104.7,134.7v5.3h4v-5.3H104.7z M140.2,140l-1.9,0.6l0.4,1.4h1.5V140z M138,132.8l1.9-0.6
	l-0.4-1.4H138V132.8z M126.9,132.8v-2h-1.5l-0.4,1.4L126.9,132.8z M124.7,140v2h1.5l0.4-1.4L124.7,140z M117.7,140l-1.9-0.7
	l-0.9,2.7h2.8V140z M128.4,109.5v-2H127l-0.5,1.3L128.4,109.5z M136.3,109.5l1.9-0.7l-0.5-1.3h-1.4V109.5z M147.1,140v2h2.8
	l-0.9-2.7L147.1,140z M136.4,127.4v2h2.7l-0.8-2.6L136.4,127.4z M133,116.2l-1.9,0.6l0,0l0,0L133,116.2z M132.4,114.2l2-0.4
	l-3.9-0.1L132.4,114.2z M128.5,127.4l-1.9-0.6l-0.8,2.6h2.7V127.4z M142.1,139.4l-2.2-7.2l-3.8,1.2l2.2,7.2L142.1,139.4z M138,130.8
	h-11.1v4H138V130.8z M125,132.2l-2.2,7.2l3.8,1.2l2.2-7.2L125,132.2z M124.7,138h-6.9v4h6.9V138z M119.6,140.7l10.7-30.5l-3.8-1.3
	l-10.7,30.5L119.6,140.7z M128.4,111.5h7.9v-4h-7.9V111.5z M134.4,110.1l10.8,30.5l3.8-1.3l-10.8-30.5L134.4,110.1z M147.1,138h-6.9
	v4h6.9V138z M138.3,126.8c-2-6.6-3.2-10.3-3.5-11.1l-3.8,1.2c0.3,0.9,1.4,4.6,3.5,11.1L138.3,126.8z M134.9,115.7
	c-0.2-0.8-0.4-1.5-0.5-1.9l-3.9,0.9c0.1,0.6,0.3,1.3,0.6,2.2L134.9,115.7z M130.5,113.7c-0.4,1.7-1.7,6.1-3.9,13.1l3.8,1.2
	c2.2-7,3.5-11.4,4-13.3L130.5,113.7z M128.5,129.4h7.9v-4h-7.9V129.4z M159.5,140h-2v2h2V140z M159.5,109.6v-2h-2v2H159.5z
	 M165.9,109.6h2v-2h-2V109.6z M165.9,134.7h-2v2h2V134.7z M178.3,134.7h2v-2h-2V134.7z M178.3,140v2h2v-2H178.3z M161.5,140v-30.4
	h-4V140H161.5z M159.5,111.6h6.4v-4h-6.4V111.6z M163.9,109.6v25.1h4v-25.1H163.9z M165.9,136.7h12.3v-4h-12.3V136.7z M176.3,134.7
	v5.3h4v-5.3H176.3z M178.3,138h-18.8v4h18.8V138z"/>
<path class="st12" d="M17.6,26.9l3,10.2L7.5,27.5L17.6,26.9z"/>
<path class="st12" d="M34.1,79.8l-3.1-17.6l14.6,21.3L34.1,79.8z"/>
<path class="st12" d="M197.8,71.9l11.7,6.5l-0.1,10.9l-27.3,5.8L197.8,71.9z"/>
<path class="st12" d="M150.9,1.7l3.2,17.7l-9.4-3.1L150.9,1.7z"/>
<path class="st12" d="M234.7,21.7l-25.9,21.7L205,25L234.7,21.7z"/>
</svg>
