<svg width="46" height="47" viewBox="0 0 46 47" fill="none" xmlns="http://www.w3.org/2000/svg">
<g clip-path="url(#clip0_1_46909)">
<path d="M44.7991 24.3049C44.7991 36.4961 34.9162 46.379 22.725 46.379C10.5338 46.379 0.650879 36.4961 0.650879 24.3049C0.650879 12.1137 10.5338 2.23083 22.725 2.23083C34.9162 2.23083 44.7991 12.1137 44.7991 24.3049Z" fill="url(#paint0_linear_1_46909)" stroke="#2A2F66" stroke-width="0.5"/>
<path d="M16.3678 8.61908L19.3259 15.6695L19.4231 15.9011L19.4233 15.9017L19.5193 16.1303L22.6365 23.5598L22.7332 23.7903L22.9637 23.6936L30.6218 20.4805L30.8487 20.3853L30.8484 20.3846L37.8515 17.4463C38.6494 19.3731 39.0917 21.4846 39.0917 23.7004C39.0917 32.7393 31.7641 40.0668 22.7251 40.0668C13.6862 40.0668 6.35864 32.7393 6.35864 23.7004C6.35864 16.9173 10.487 11.1011 16.3678 8.61908Z" fill="#6EE7B7" stroke="#2A2F66" stroke-width="0.5"/>
<path d="M22.7254 35.7349C29.0379 35.7349 34.1553 30.6175 34.1553 24.3049C34.1553 17.9924 29.0379 12.875 22.7254 12.875C16.4128 12.875 11.2954 17.9924 11.2954 24.3049C11.2954 30.6175 16.4128 35.7349 22.7254 35.7349Z" fill="#10B981"/>
<path d="M27.281 24.3049C27.281 26.8212 25.2412 28.8611 22.7249 28.8611C20.2086 28.8611 18.1687 26.8212 18.1687 24.3049C18.1687 21.7886 20.2086 19.7488 22.7249 19.7488C25.2411 19.7488 27.281 21.7886 27.281 24.3049Z" fill="#2F2E38" stroke="#2A2F66" stroke-width="0.5"/>
<path d="M17.7083 13.7571C23.9564 11.1356 31.1464 14.0754 33.7679 20.3235L22.4548 25.0701L17.7083 13.7571Z" fill="#6EE7B7"/>
<path d="M17.8428 13.4311L13.3119 2.63211C25.519 -2.34511 39.4752 3.36121 44.6982 15.4652L33.8992 19.9962C31.1801 13.8556 24.0861 10.9543 17.8428 13.4311Z" fill="#A7F3D0" stroke="#2A2F66" stroke-width="0.5"/>
<path d="M27.351 23.0158C26.787 20.9884 24.932 19.4988 22.7249 19.4988C21.8709 19.4988 21.0705 19.7238 20.3755 20.1144L22.4548 25.0702L27.351 23.0158Z" fill="white"/>
</g>
<defs>
<linearGradient id="paint0_linear_1_46909" x1="0.400879" y1="24.3049" x2="45.0491" y2="24.3049" gradientUnits="userSpaceOnUse">
<stop stop-color="#A3EDBA"/>
<stop offset="1" stop-color="#C3C8FF"/>
</linearGradient>
<clipPath id="clip0_1_46909">
<rect width="44.6482" height="46.0445" fill="white" transform="translate(0.400879 0.584595)"/>
</clipPath>
</defs>
</svg>
