<?xml version="1.0" encoding="utf-8"?>
<!-- Generator: Adobe Illustrator 28.0.0, SVG Export Plug-In . SVG Version: 6.00 Build 0)  -->
<svg version="1.1" id="Layer_1" xmlns="http://www.w3.org/2000/svg" xmlns:xlink="http://www.w3.org/1999/xlink" x="0px" y="0px"
	 viewBox="0 0 209.2 52.2" style="enable-background:new 0 0 209.2 52.2;" xml:space="preserve">
<style type="text/css">
	.st0{clip-path:url(#SVGID_00000100351661218584578470000015796434662428672940_);}
	.st1{fill:url(#SVGID_00000076573241518207664680000011754746484306905758_);stroke:#2A2F66;stroke-width:0.5;}
	.st2{fill:#6EE7B7;stroke:#2A2F66;stroke-width:0.5;}
	.st3{fill:#10B981;}
	.st4{fill:#2F2E38;stroke:#2A2F66;stroke-width:0.5;}
	.st5{fill:#6EE7B7;}
	.st6{fill:#A7F3D0;stroke:#2A2F66;stroke-width:0.5;}
	.st7{fill:#FFFFFF;}
	.st8{fill:#FFFFFF;stroke:#2A2F66;stroke-width:0.5;}
	.st9{fill:#75738C;}
	.st10{fill:#FFFFFF;filter:url(#Adobe_OpacityMaskFilter);}
	.st11{mask:url(#path-10-inside-1_1_46873_00000112630167867730356980000014910676038260352927_);fill:#2A2F66;}
	.st12{fill:url(#SVGID_00000002365377432462689200000008012931718431926448_);}
	.st13{fill:#FFFFFF;filter:url(#Adobe_OpacityMaskFilter_00000098205435053416045280000008925457381882936973_);}
	.st14{mask:url(#path-12-inside-2_1_46873_00000077321511976327968080000011983425115093885624_);fill:#2A2F66;}
	.st15{fill:#FFFFFF;filter:url(#Adobe_OpacityMaskFilter_00000090997988946208318620000012623928370928982194_);}
	.st16{mask:url(#path-14-inside-3_1_46873_00000148648837297641188740000012264163406351175817_);fill:#2A2F66;}
	.st17{fill:url(#SVGID_00000005973132109982545810000016974012291558983611_);}
	.st18{fill:#FFFFFF;filter:url(#Adobe_OpacityMaskFilter_00000117676721863124890050000008097085701207246209_);}
	.st19{mask:url(#path-16-inside-4_1_46873_00000145744863346754471120000007840060566808629163_);fill:#2A2F66;}
	.st20{fill:none;stroke:#2A2F66;stroke-width:0.5;}
	.st21{fill:url(#SVGID_00000098199377624638128900000009345350469125647024_);stroke:#2A2F66;stroke-width:0.5;}
	.st22{fill:#75738C;stroke:#2A2F66;stroke-width:0.2;}
	.st23{fill:#E1E3FF;stroke:#2A2F66;stroke-width:0.2;}
	.st24{fill:url(#SVGID_00000087389473701951598390000011041976259986894478_);stroke:#2A2F66;stroke-width:0.5;}
	.st25{fill:#2A2F66;stroke:#2A2F66;stroke-width:8.949310e-02;stroke-linecap:round;stroke-miterlimit:10;}
	.st26{fill:url(#SVGID_00000170989637786287308540000012933116487512954269_);stroke:#2A2F66;stroke-width:0.5;}
</style>
<g>
	<g>
		<defs>
			<rect id="SVGID_1_" y="6.2" width="44.6" height="46"/>
		</defs>
		<clipPath id="SVGID_00000037685284027897677420000010906276043660826511_">
			<use xlink:href="#SVGID_1_"  style="overflow:visible;"/>
		</clipPath>
		<g style="clip-path:url(#SVGID_00000037685284027897677420000010906276043660826511_);">
			
				<linearGradient id="SVGID_00000038397757605315290010000013748239856780630697_" gradientUnits="userSpaceOnUse" x1="0" y1="33.2724" x2="44.6482" y2="33.2724" gradientTransform="matrix(1 0 0 -1 0 63.1545)">
				<stop  offset="0" style="stop-color:#A3EDBA"/>
				<stop  offset="1" style="stop-color:#C3C8FF"/>
			</linearGradient>
			<path style="fill:url(#SVGID_00000038397757605315290010000013748239856780630697_);stroke:#2A2F66;stroke-width:0.5;" d="
				M44.4,29.9c0,12.2-9.9,22.1-22.1,22.1S0.2,42.1,0.2,29.9S10.1,7.8,22.3,7.8S44.4,17.7,44.4,29.9z"/>
			<path class="st2" d="M16,14.2l3,7.1l0.1,0.2l0,0l0.1,0.2l3.1,7.4l0.1,0.2l0.2-0.1l7.7-3.2l0.2-0.1l0,0l7-2.9
				c0.8,1.9,1.2,4,1.2,6.3c0,9-7.3,16.4-16.4,16.4c-9,0-16.4-7.3-16.4-16.4C6,22.5,10.1,16.7,16,14.2z"/>
			<path class="st3" d="M22.3,41.3c6.3,0,11.4-5.1,11.4-11.4c0-6.3-5.1-11.4-11.4-11.4c-6.3,0-11.4,5.1-11.4,11.4
				C10.9,36.2,16,41.3,22.3,41.3z"/>
			<path class="st4" d="M26.9,29.9c0,2.5-2,4.6-4.6,4.6s-4.6-2-4.6-4.6s2-4.6,4.6-4.6C24.8,25.3,26.9,27.4,26.9,29.9z"/>
			<path class="st5" d="M17.3,19.3c6.2-2.6,13.4,0.3,16.1,6.6l-11.3,4.7L17.3,19.3z"/>
			<path class="st6" d="M17.4,19L12.9,8.2c12.2-5,26.2,0.7,31.4,12.8l-10.8,4.5C30.8,19.4,23.7,16.5,17.4,19z"/>
			<path class="st7" d="M27,28.6c-0.6-2-2.4-3.5-4.6-3.5c-0.9,0-1.7,0.2-2.3,0.6l2.1,5L27,28.6z"/>
		</g>
	</g>
</g>
<g>
	<path class="st2" d="M98.9,18.4H80.4V3.5h18.5l-3.6,7.3l-0.1,0.1l0.1,0.1L98.9,18.4z"/>
	<path class="st8" d="M77.9,33.7V3.5h3.3v30.1H77.9z"/>
	<path class="st9" d="M54.4,43.9h16v3.7h-16V43.9z"/>
	<defs>
		<filter id="Adobe_OpacityMaskFilter" filterUnits="userSpaceOnUse" x="53.9" y="43.9" width="17" height="4.2">
			<feColorMatrix  type="matrix" values="1 0 0 0 0  0 1 0 0 0  0 0 1 0 0  0 0 0 1 0"/>
		</filter>
	</defs>
	
		<mask maskUnits="userSpaceOnUse" x="53.9" y="43.9" width="17" height="4.2" id="path-10-inside-1_1_46873_00000112630167867730356980000014910676038260352927_">
		<path class="st10" d="M54.4,43.9h16v3.7h-16V43.9z"/>
	</mask>
	<path class="st11" d="M70.4,47.6v0.5h0.5v-0.5H70.4z M54.4,47.6h-0.5v0.5h0.5V47.6z M69.9,43.9v3.7h1v-3.7H69.9z M70.4,47.1h-16v1
		h16V47.1z M54.9,47.6v-3.7h-1v3.7H54.9z"/>
	
		<linearGradient id="SVGID_00000047749817732857620220000014755323935034492605_" gradientUnits="userSpaceOnUse" x1="58.063" y1="21.0628" x2="74.0775" y2="21.0628" gradientTransform="matrix(1 0 0 -1 0 63.1545)">
		<stop  offset="0" style="stop-color:#A3EDBA"/>
		<stop  offset="1" style="stop-color:#C3C8FF"/>
	</linearGradient>
	<path style="fill:url(#SVGID_00000047749817732857620220000014755323935034492605_);" d="M58.1,40.2h16v3.7h-16V40.2z"/>
	<defs>
		
			<filter id="Adobe_OpacityMaskFilter_00000056386899979720235400000015640367606551930811_" filterUnits="userSpaceOnUse" x="57.6" y="40.2" width="17" height="4.2">
			<feColorMatrix  type="matrix" values="1 0 0 0 0  0 1 0 0 0  0 0 1 0 0  0 0 0 1 0"/>
		</filter>
	</defs>
	
		<mask maskUnits="userSpaceOnUse" x="57.6" y="40.2" width="17" height="4.2" id="path-12-inside-2_1_46873_00000077321511976327968080000011983425115093885624_">
		<path style="fill:#FFFFFF;filter:url(#Adobe_OpacityMaskFilter_00000056386899979720235400000015640367606551930811_);" d="
			M58.1,40.2h16v3.7h-16V40.2z"/>
	</mask>
	<path class="st14" d="M74.1,43.9v0.5h0.5v-0.5H74.1z M58.1,43.9h-0.5v0.5h0.5V43.9z M73.6,40.2v3.7h1v-3.7H73.6z M74.1,43.4h-16v1
		h16V43.4z M58.6,43.9v-3.7h-1v3.7H58.6z"/>
	<path class="st9" d="M61.8,36.5h16v3.7h-16V36.5z"/>
	<defs>
		
			<filter id="Adobe_OpacityMaskFilter_00000084507554042270809460000014113290311298678447_" filterUnits="userSpaceOnUse" x="61.3" y="36.5" width="17" height="4.2">
			<feColorMatrix  type="matrix" values="1 0 0 0 0  0 1 0 0 0  0 0 1 0 0  0 0 0 1 0"/>
		</filter>
	</defs>
	
		<mask maskUnits="userSpaceOnUse" x="61.3" y="36.5" width="17" height="4.2" id="path-14-inside-3_1_46873_00000148648837297641188740000012264163406351175817_">
		<path style="fill:#FFFFFF;filter:url(#Adobe_OpacityMaskFilter_00000084507554042270809460000014113290311298678447_);" d="
			M61.8,36.5h16v3.7h-16V36.5z"/>
	</mask>
	<path class="st16" d="M77.8,40.2v0.5h0.5v-0.5H77.8z M61.8,40.2h-0.5v0.5h0.5V40.2z M77.3,36.5v3.7h1v-3.7H77.3z M77.8,39.7h-16v1
		h16V39.7z M62.3,40.2v-3.7h-1v3.7H62.3z"/>
	
		<linearGradient id="SVGID_00000004547240290415676300000012583664159371625875_" gradientUnits="userSpaceOnUse" x1="65.4543" y1="28.4541" x2="81.4688" y2="28.4541" gradientTransform="matrix(1 0 0 -1 0 63.1545)">
		<stop  offset="0" style="stop-color:#A3EDBA"/>
		<stop  offset="1" style="stop-color:#C3C8FF"/>
	</linearGradient>
	<path style="fill:url(#SVGID_00000004547240290415676300000012583664159371625875_);" d="M65.5,32.9h16v3.7h-16V32.9z"/>
	<defs>
		
			<filter id="Adobe_OpacityMaskFilter_00000032616252120949356750000008423179524674076047_" filterUnits="userSpaceOnUse" x="65" y="32.9" width="17" height="4.2">
			<feColorMatrix  type="matrix" values="1 0 0 0 0  0 1 0 0 0  0 0 1 0 0  0 0 0 1 0"/>
		</filter>
	</defs>
	
		<mask maskUnits="userSpaceOnUse" x="65" y="32.9" width="17" height="4.2" id="path-16-inside-4_1_46873_00000145744863346754471120000007840060566808629163_">
		<path style="fill:#FFFFFF;filter:url(#Adobe_OpacityMaskFilter_00000032616252120949356750000008423179524674076047_);" d="
			M65.5,32.9h16v3.7h-16V32.9z"/>
	</mask>
	<path class="st19" d="M81.5,36.5V37H82v-0.5H81.5z M65.5,36.5H65V37h0.5V36.5z M81,32.9v3.7h1v-3.7H81z M81.5,36h-16v1h16V36z
		 M66,36.5v-3.7h-1v3.7H66z"/>
	<path class="st20" d="M65.5,32.9h16"/>
	<path class="st20" d="M61.8,36.2h4.2"/>
	<path class="st20" d="M58.1,39.9h4.2"/>
	<path class="st20" d="M54.4,43.6h4.2"/>
</g>
<g>
	
		<linearGradient id="SVGID_00000022525697771479296150000015834768440175631800_" gradientUnits="userSpaceOnUse" x1="131.9761" y1="26.824" x2="154.9711" y2="26.824" gradientTransform="matrix(1 0 0 -1 0 63.1545)">
		<stop  offset="0" style="stop-color:#A3EDBA"/>
		<stop  offset="1" style="stop-color:#C3C8FF"/>
	</linearGradient>
	<path style="fill:url(#SVGID_00000022525697771479296150000015834768440175631800_);stroke:#2A2F66;stroke-width:0.5;" d="
		M132.5,34.5l14.6-7.3l7.3,18.3L132.5,34.5z"/>
	<path class="st22" d="M132,34.4l-14.9-7.4h29.8L132,34.4z"/>
	<path class="st23" d="M154.5,45.9h-45.1L132,34.6L154.5,45.9z"/>
	
		<linearGradient id="SVGID_00000111177587309513162490000013251163747536025768_" gradientUnits="userSpaceOnUse" x1="108.9811" y1="26.824" x2="131.9761" y2="26.824" gradientTransform="matrix(1 0 0 -1 0 63.1545)">
		<stop  offset="0" style="stop-color:#A3EDBA"/>
		<stop  offset="1" style="stop-color:#C3C8FF"/>
	</linearGradient>
	<path style="fill:url(#SVGID_00000111177587309513162490000013251163747536025768_);stroke:#2A2F66;stroke-width:0.5;" d="
		M131.4,34.5l-22,11l7.3-18.3L131.4,34.5z"/>
	<path class="st2" d="M131.9,0.3L131.9,0.3L131.9,0.3c7.6-0.2,13.2,7.9,10.6,15l0,0l0,0c-0.1,0.3-0.3,0.7-0.5,1.2
		c-0.3,0.5-0.7,1.1-1.1,1.8c-0.9,1.4-2.1,3-3.3,4.6c-0.9,1.2-1.8,2.4-2.7,3.5c-1.2,1.6-2.3,3-2.9,3.8c-0.6-0.8-1.7-2.2-2.9-3.9
		c-0.8-1.1-1.7-2.2-2.6-3.4c-1.2-1.6-2.4-3.3-3.4-4.6c-0.5-0.7-0.9-1.3-1.2-1.8c-0.3-0.5-0.5-0.9-0.5-1.2l0,0l0,0
		C118.7,8.2,124.3,0.1,131.9,0.3z"/>
	<path class="st25" d="M131.9,15.3c2.1,0,3.8-1.7,3.8-3.8s-1.7-3.8-3.8-3.8c-2.1,0-3.8,1.7-3.8,3.8S129.8,15.3,131.9,15.3z"/>
</g>
<g>
	
		<linearGradient id="SVGID_00000090295379028152141330000011717018950351539361_" gradientUnits="userSpaceOnUse" x1="163.1831" y1="25.7916" x2="209.1741" y2="25.7916" gradientTransform="matrix(1 0 0 -1 0 63.1545)">
		<stop  offset="0" style="stop-color:#A3EDBA"/>
		<stop  offset="1" style="stop-color:#C3C8FF"/>
	</linearGradient>
	<path style="fill:url(#SVGID_00000090295379028152141330000011717018950351539361_);stroke:#2A2F66;stroke-width:0.5;" d="
		M187.3,29.6h-23.8v-3.3h22.7h2.6l3.7,3.7l0,0l10.2,10l0.2,0.2L203,40l5.9-5.8v14.2h-14.5l5.9-5.8l0.2-0.2l-0.2-0.2l-12.9-12.6
		l-0.1-0.1H187.3z"/>
	<path class="st2" d="M200.3,8.2l-5.8-5.7h14.4v14.2l-5.9-5.8l-0.2-0.2l-0.2,0.2l-17.8,17.5l-3.8,3.7h-5.3h-12.3v-3.3h16.2h0.1
		l0.1-0.1l20.5-20.2l0.2-0.2L200.3,8.2z"/>
</g>
</svg>
