<?xml version="1.0" encoding="utf-8"?>
<!-- Generator: Adobe Illustrator 28.0.0, SVG Export Plug-In . SVG Version: 6.00 Build 0)  -->
<svg version="1.1" id="Layer_1" xmlns="http://www.w3.org/2000/svg" xmlns:xlink="http://www.w3.org/1999/xlink" x="0px" y="0px"
	 viewBox="0 0 67.5 60" style="enable-background:new 0 0 67.5 60;" xml:space="preserve">
<style type="text/css">
	.st0{clip-path:url(#SVGID_00000155832623299572990700000003657468393674804101_);}
	
		.st1{fill:url(#Vector_00000021822533821460230780000008015957346986599828_);stroke:#000000;stroke-linecap:round;stroke-linejoin:round;}
	.st2{fill:url(#SVGID_00000183927610917285242330000011917469717651380904_);}
	.st3{fill:none;stroke:#000000;stroke-linecap:round;stroke-linejoin:round;}
	.st4{fill:#A7F3D0;}
	
		.st5{fill:url(#Vector_5_00000069385741910508836840000001994944876539362459_);stroke:#000000;stroke-linecap:round;stroke-linejoin:round;}
	.st6{fill:#A5ACFF;stroke:#000000;stroke-linecap:round;stroke-linejoin:round;}
	.st7{fill:#A5ACFF;}
</style>
<g>
	<defs>
		<rect id="SVGID_1_" width="67.5" height="60"/>
	</defs>
	<clipPath id="SVGID_00000175304077949356867110000010547884000037151919_">
		<use xlink:href="#SVGID_1_"  style="overflow:visible;"/>
	</clipPath>
	<g id="_x5F_Ã_x8E_Ã_x93_Ã_x88__x5F_2" style="clip-path:url(#SVGID_00000175304077949356867110000010547884000037151919_);">
		<g id="Group">
			
				<linearGradient id="Vector_00000158721365358020034780000010299112935764808860_" gradientUnits="userSpaceOnUse" x1="0.6443" y1="58.7602" x2="66.8557" y2="58.7602" gradientTransform="matrix(1 0 0 -1 0 86)">
				<stop  offset="0" style="stop-color:#A3EDBA"/>
				<stop  offset="1" style="stop-color:#C3C8FF"/>
			</linearGradient>
			
				<path id="Vector" style="fill:url(#Vector_00000158721365358020034780000010299112935764808860_);stroke:#000000;stroke-linecap:round;stroke-linejoin:round;" d="
				M58.8,7.6h2.9c2.8,0,5.1,2.3,5.1,5.1v29c0,2.8-2.3,5.1-5.1,5.1h-56c-2.8,0-5.1-2.3-5.1-5.1v-29c0-2.8,2.3-5.1,5.1-5.1H58.8z"/>
			<g id="Vector_2">
				
					<linearGradient id="SVGID_00000108997492088608882400000008940003614146401414_" gradientUnits="userSpaceOnUse" x1="0.6443" y1="45.8994" x2="66.8557" y2="45.8994" gradientTransform="matrix(1 0 0 -1 0 86)">
					<stop  offset="0" style="stop-color:#A3EDBA"/>
					<stop  offset="1" style="stop-color:#C3C8FF"/>
				</linearGradient>
				<path style="fill:url(#SVGID_00000108997492088608882400000008940003614146401414_);" d="M0.6,40.1h42.3h13.9h10"/>
				<path class="st3" d="M0.6,40.1h42.3h13.9h10"/>
			</g>
			<g id="Group_2">
				<path id="Vector_36" class="st4" d="M23.8,47l-1.5,7h22l-1.5-7H23.8z"/>
				<path id="Vector_3" class="st3" d="M24.1,46.9l-1.2,6"/>
				<path id="Vector_4" class="st3" d="M43.4,46.9l1.2,6"/>
			</g>
			
				<linearGradient id="Vector_5_00000011011453375484157250000014499210124919359409_" gradientUnits="userSpaceOnUse" x1="10.3149" y1="29.6033" x2="57.1852" y2="29.6033" gradientTransform="matrix(1 0 0 -1 0 86)">
				<stop  offset="0" style="stop-color:#A3EDBA"/>
				<stop  offset="1" style="stop-color:#C3C8FF"/>
			</linearGradient>
			
				<path id="Vector_5" style="fill:url(#Vector_5_00000011011453375484157250000014499210124919359409_);stroke:#000000;stroke-linecap:round;stroke-linejoin:round;" d="
				M39.7,53.4h11.6c3.3,0,5.9,2.6,5.9,5.9H10.3c0-3.3,2.6-5.9,5.9-5.9H39.7z"/>
		</g>
		<g id="Group_3">
			<path id="Vector_6" class="st6" d="M35,22.1c1.7,1.5,2,4.1,0.5,5.8c-2.2,2.7-6.2,3-8.9,0.8l-1.5-1.2l1.5-0.4
				c1.4-0.3,2.4-1.5,2.5-2.9c0.1-1.6,1.3-2.9,2.9-3C33.1,21.1,34.1,21.4,35,22.1z"/>
			<g id="Vector_7">
				<path class="st4" d="M36.3,23.7c3.2-2,6.1-4.3,8.8-6.9c1.2-1.1,2.3-2.2,3.3-3.4l9.7-10.8c0.5-0.5,0.5-1.2,0.1-1.7
					c-0.2-0.2-0.5-0.3-0.8-0.3c-0.3,0-0.6,0.1-0.9,0.3l-11.3,9c-4.2,3.3-7.8,7.2-10.9,11.5"/>
				<path class="st3" d="M36.3,23.7c3.2-2,6.1-4.3,8.8-6.9c1.2-1.1,2.3-2.2,3.3-3.4l9.7-10.8c0.5-0.5,0.5-1.2,0.1-1.7
					c-0.2-0.2-0.5-0.3-0.8-0.3c-0.3,0-0.6,0.1-0.9,0.3l-11.3,9c-4.2,3.3-7.8,7.2-10.9,11.5"/>
			</g>
		</g>
		<g id="Vector_8">
			<path class="st7" d="M34.2,39.6c0,0-7-4.2-9.5-8.3s-3.5-8.7-3.5-8.7c-0.8-1.2-2.7-1.2-3.5,0L7.2,39.6"/>
			<path class="st3" d="M34.2,39.6c0,0-7-4.2-9.5-8.3s-3.5-8.7-3.5-8.7c-0.8-1.2-2.7-1.2-3.5,0L7.2,39.6"/>
		</g>
		<path id="Vector_9" class="st3" d="M1.2,30l5.7-5.5c0.8-0.7,1.9-0.7,2.6,0.1l3.8,4.3"/>
	</g>
</g>
</svg>
