<?xml version="1.0" encoding="utf-8"?>
<!-- Generator: Adobe Illustrator 28.0.0, SVG Export Plug-In . SVG Version: 6.00 Build 0)  -->
<svg version="1.1" id="Layer_1" xmlns="http://www.w3.org/2000/svg" xmlns:xlink="http://www.w3.org/1999/xlink" x="0px" y="0px"
	 viewBox="0 0 47.5 60" style="enable-background:new 0 0 47.5 60;" xml:space="preserve">
<style type="text/css">
	.st0{clip-path:url(#SVGID_00000048496405280746112970000008520682567313967491_);}
	.st1{fill:url(#SVGID_00000065069011210350371390000001354707537380412607_);}
	.st2{fill:#545ECC;}
	.st3{fill:url(#SVGID_00000021801870547220024780000018400141986410252420_);}
	.st4{fill:none;stroke:#2A2F66;stroke-linecap:round;stroke-linejoin:round;}
	.st5{fill:url(#SVGID_00000121990912102751534230000009258841133061701249_);}
	
		.st6{fill:url(#SVGID_00000161608758984703907410000008961561317469901219_);stroke:#2A2F66;stroke-linecap:round;stroke-linejoin:round;}
	.st7{fill:url(#SVGID_00000086684961582783264930000012467024082630935459_);}
</style>
<g>
	<defs>
		<rect id="SVGID_1_" width="47.5" height="60"/>
	</defs>
	<clipPath id="SVGID_00000065069591871754081530000014919717609151770542_">
		<use xlink:href="#SVGID_1_"  style="overflow:visible;"/>
	</clipPath>
	<g style="clip-path:url(#SVGID_00000065069591871754081530000014919717609151770542_);">
		
			<linearGradient id="SVGID_00000068655263288406736290000015348372135546330299_" gradientUnits="userSpaceOnUse" x1="16.9812" y1="60.6792" x2="30.5661" y2="60.6792" gradientTransform="matrix(1 0 0 -1 0 102)">
			<stop  offset="0" style="stop-color:#A3EDBA"/>
			<stop  offset="1" style="stop-color:#C3C8FF"/>
		</linearGradient>
		
			<rect x="17" y="38.5" style="fill:url(#SVGID_00000068655263288406736290000015348372135546330299_);" width="13.6" height="5.7"/>
		<path class="st2" d="M13.5,23.3l-5.7,5.1l3.7,3.4c1.1,1,1.3,2.7,0.4,3.9c-1,1.4-2.9,1.6-4.2,0.5l-4.8-4.1
			c-1.7-1.5-1.8-4.1-0.2-5.6l6.5-6.4"/>
		
			<linearGradient id="SVGID_00000012432824492213295290000008687160064511786148_" gradientUnits="userSpaceOnUse" x1="16.2354" y1="52.9992" x2="23.7735" y2="52.9992" gradientTransform="matrix(1 0 0 -1 0 102)">
			<stop  offset="0" style="stop-color:#A3EDBA"/>
			<stop  offset="1" style="stop-color:#C3C8FF"/>
		</linearGradient>
		<path style="fill:url(#SVGID_00000012432824492213295290000008687160064511786148_);" d="M16.2,38.7v16.9c0,2.1,1.7,3.8,3.8,3.8
			c2.1,0,3.8-1.7,3.8-3.8v-12"/>
		<path class="st4" d="M16.2,38.7v16.9c0,2.1,1.7,3.8,3.8,3.8c2.1,0,3.8-1.7,3.8-3.8v-12"/>
		
			<linearGradient id="SVGID_00000041260923879839957390000005664149469874463646_" gradientUnits="userSpaceOnUse" x1="23.7735" y1="52.9992" x2="31.3116" y2="52.9992" gradientTransform="matrix(1 0 0 -1 0 102)">
			<stop  offset="0" style="stop-color:#A3EDBA"/>
			<stop  offset="1" style="stop-color:#C3C8FF"/>
		</linearGradient>
		<path style="fill:url(#SVGID_00000041260923879839957390000005664149469874463646_);" d="M23.8,44.1v11.5c0,2.1,1.7,3.8,3.8,3.8
			s3.8-1.7,3.8-3.8V38.7"/>
		<path class="st4" d="M23.8,44.1v11.5c0,2.1,1.7,3.8,3.8,3.8s3.8-1.7,3.8-3.8V38.7"/>
		<path class="st2" d="M34,23.3l5.7,5.1L36,31.8c-1.1,1-1.3,2.7-0.4,3.9c1,1.4,2.9,1.6,4.2,0.5l4.8-4.1c1.7-1.5,1.8-4.1,0.2-5.6
			l-6.5-6.4"/>
		<path class="st4" d="M30.2,38.6H17.4"/>
		
			<linearGradient id="SVGID_00000096761555524192297190000006922577228290890376_" gradientUnits="userSpaceOnUse" x1="18.2474" y1="93.0521" x2="29.2994" y2="97.5862" gradientTransform="matrix(1 0 0 -1 0 102)">
			<stop  offset="0" style="stop-color:#A3EDBA"/>
			<stop  offset="1" style="stop-color:#C3C8FF"/>
		</linearGradient>
		
			<path style="fill:url(#SVGID_00000096761555524192297190000006922577228290890376_);stroke:#2A2F66;stroke-linecap:round;stroke-linejoin:round;" d="
			M26.1,12.2c3-1.3,4.5-4.8,3.2-7.9c-1.3-3.1-4.7-4.5-7.8-3.3c-3,1.3-4.5,4.8-3.2,7.9C19.5,12.1,23,13.5,26.1,12.2z"/>
		
			<linearGradient id="SVGID_00000119097085212310060430000012297006224723392396_" gradientUnits="userSpaceOnUse" x1="0.6524" y1="79.6577" x2="46.8949" y2="79.6577" gradientTransform="matrix(1 0 0 -1 0 102)">
			<stop  offset="0" style="stop-color:#A3EDBA"/>
			<stop  offset="1" style="stop-color:#C3C8FF"/>
		</linearGradient>
		<path style="fill:url(#SVGID_00000119097085212310060430000012297006224723392396_);" d="M17.4,38.6c-1.3,0-2.4-1.1-2.4-2.4V18.9
			h-3.2c-1.5,0-3-0.6-4-1.7l-6.3-6.3c-0.5-0.6-0.8-1.3-0.8-2c0-0.9,0.4-1.8,1.2-2.3c1.1-0.7,2.5-0.6,3.5,0.3l6.3,6
			c0.3,0.3,0.6,0.4,1,0.4h0.5c2.4,0,4.8,0.6,7,1.6c1.1,0.5,2.3,0.8,3.6,0.8c1.3,0,2.5-0.3,3.6-0.8c2.2-1,4.6-1.6,7-1.6h0.5
			c0.4,0,0.7-0.1,1-0.4l6.3-6C42.7,6.3,43.4,6,44.1,6c0.5,0,1.1,0.2,1.6,0.5c1.4,1,1.6,3.1,0.4,4.3l-6.3,6.3c-1.1,1.1-2.5,1.7-4,1.7
			h-3.2v17.4c0,1.3-1.1,2.4-2.4,2.4"/>
		<path class="st4" d="M17.4,38.6c-1.3,0-2.4-1.1-2.4-2.4V18.9h-3.2c-1.5,0-3-0.6-4-1.7l-6.3-6.3c-0.5-0.6-0.8-1.3-0.8-2
			c0-0.9,0.4-1.8,1.2-2.3c1.1-0.7,2.5-0.6,3.5,0.3l6.3,6c0.3,0.3,0.6,0.4,1,0.4h0.5c2.4,0,4.8,0.6,7,1.6c1.1,0.5,2.3,0.8,3.6,0.8
			c1.3,0,2.5-0.3,3.6-0.8c2.2-1,4.6-1.6,7-1.6h0.5c0.4,0,0.7-0.1,1-0.4l6.3-6C42.7,6.3,43.4,6,44.1,6c0.5,0,1.1,0.2,1.6,0.5
			c1.4,1,1.6,3.1,0.4,4.3l-6.3,6.3c-1.1,1.1-2.5,1.7-4,1.7h-3.2v17.4c0,1.3-1.1,2.4-2.4,2.4"/>
	</g>
</g>
</svg>
