<?xml version="1.0" encoding="utf-8"?>
<!-- Generator: Adobe Illustrator 28.0.0, SVG Export Plug-In . SVG Version: 6.00 Build 0)  -->
<svg version="1.1" id="Layer_1" xmlns="http://www.w3.org/2000/svg" xmlns:xlink="http://www.w3.org/1999/xlink" x="0px" y="0px"
	 viewBox="0 0 60 55.6" style="enable-background:new 0 0 60 55.6;" xml:space="preserve">
<style type="text/css">
	.st0{clip-path:url(#SVGID_00000016073042534310030120000005786668353439886740_);}
	.st1{fill:#A5ACFF;stroke:#16181D;stroke-linecap:round;stroke-linejoin:round;}
	.st2{fill:#A3C5F9;stroke:#16181D;stroke-linecap:round;stroke-linejoin:round;}
	.st3{fill:none;stroke:#16181D;stroke-linecap:round;stroke-linejoin:round;}
	.st4{fill:#6EE7B7;stroke:#16181D;stroke-linecap:round;stroke-linejoin:round;}
	
		.st5{fill:url(#SVGID_00000145769768269025667820000016883222191712324225_);stroke:#16181D;stroke-linecap:round;stroke-linejoin:round;}
	.st6{fill:none;stroke:#FFFFFF;stroke-linecap:round;stroke-linejoin:round;}
</style>
<g>
	<g>
		<defs>
			<rect id="SVGID_1_" width="60" height="55.6"/>
		</defs>
		<clipPath id="SVGID_00000119081394969287774730000018200399994772763550_">
			<use xlink:href="#SVGID_1_"  style="overflow:visible;"/>
		</clipPath>
		<g style="clip-path:url(#SVGID_00000119081394969287774730000018200399994772763550_);">
			<path class="st1" d="M0.7,10.7V14l2.8,0.4c0.2,1,0.6,2,1.2,2.8L3,19.5l2.3,2.3l2.3-1.7c0.9,0.5,1.8,0.9,2.9,1.2l0.4,2.8h3.3
				l0.4-2.8c1-0.2,2-0.6,2.9-1.2l2.3,1.7l2.3-2.3l-1.7-2.2c0.5-0.9,1-1.8,1.2-2.8l2.8-0.4v-3.3l-2.8-0.4c-0.2-1-0.6-2-1.2-2.8
				l1.7-2.2l-2.3-2.3l-2.3,1.7c-0.9-0.5-1.8-0.9-2.9-1.2l-0.4-2.8h-3.3l-0.4,2.8c-1,0.2-2,0.6-2.9,1.2L5.3,2.9L3,5.3l1.7,2.2
				c-0.5,0.9-1,1.8-1.2,2.8L0.7,10.7z"/>
			<path class="st2" d="M12.5,17.5c2.8,0,5.1-2.3,5.1-5.1s-2.3-5.1-5.1-5.1s-5.1,2.3-5.1,5.1S9.7,17.5,12.5,17.5z"/>
			<path class="st3" d="M48.9,30.1v2.1"/>
			<path class="st4" d="M48.9,32.1c5.8,0,10.4-4.6,10.4-10.3s-4.7-10.3-10.4-10.3s-10.4,4.6-10.4,10.3S43.1,32.1,48.9,32.1z"/>
			<path class="st3" d="M48.9,13.6v-2.1"/>
			<path class="st3" d="M57.2,21.8h2.1"/>
			<path class="st3" d="M40.6,21.8h-2.1"/>
			<path class="st3" d="M48.9,21.8l-4.5-3.7"/>
			<path class="st3" d="M48.9,21.8l5.2-4.9"/>
			
				<linearGradient id="SVGID_00000001639128922581551720000006582942325230627511_" gradientUnits="userSpaceOnUse" x1="10.2" y1="1042.7" x2="31.0805" y2="1042.7" gradientTransform="matrix(1 0 0 1 0 -998)">
				<stop  offset="0" style="stop-color:#A3EDBA"/>
				<stop  offset="1" style="stop-color:#C3C8FF"/>
			</linearGradient>
			
				<path style="fill:url(#SVGID_00000001639128922581551720000006582942325230627511_);stroke:#16181D;stroke-linecap:round;stroke-linejoin:round;" d="
				M20.6,55C26.4,55,31,50.4,31,44.7s-4.7-10.3-10.4-10.3S10.2,39,10.2,44.7C10.2,50.4,14.9,55,20.6,55z"/>
			<path class="st3" d="M17.6,48.6c0.6,0.8,1.6,1.3,2.8,1.3c1.8,0,3.3-1.2,3.3-2.7c0-1.4-1.3-2.5-3-2.7l0,0
				c-1.5-0.1-2.7-1.2-2.7-2.4c0-1.4,1.3-2.4,3-2.4c1,0,2,0.4,2.5,1.1"/>
			<path class="st3" d="M20.6,50v1.9"/>
			<path class="st3" d="M20.6,37.4v2"/>
			<path class="st6" d="M25.1,2.3c1.1-0.2,2.2-0.2,3.4-0.2c5.8,0,11.1,2,15.3,5.5"/>
			<path class="st6" d="M8,37.7c-2.1-3.5-3.3-7.6-3.3-12"/>
			<path class="st6" d="M49.3,37.2c-2.9,5.2-7.8,9.1-13.6,11"/>
		</g>
	</g>
</g>
</svg>
