<?xml version="1.0" encoding="utf-8"?>
<!-- Generator: Adobe Illustrator 28.0.0, SVG Export Plug-In . SVG Version: 6.00 Build 0)  -->
<svg version="1.1" id="Layer_1" xmlns="http://www.w3.org/2000/svg" xmlns:xlink="http://www.w3.org/1999/xlink" x="0px" y="0px"
	 viewBox="0 0 52.6 60" style="enable-background:new 0 0 52.6 60;" xml:space="preserve">
<style type="text/css">
	.st0{clip-path:url(#SVGID_00000021083999258228728860000005212726215494266547_);}
	.st1{fill:url(#SVGID_00000005254044977550712730000013998191824326896270_);}
	.st2{fill:#A5ACFF;}
	.st3{fill:#A7F3D0;}
	.st4{fill:#E1E3FF;}
	.st5{fill:#6EE7B7;}
	.st6{fill:none;stroke:#000000;stroke-linecap:round;stroke-linejoin:round;}
</style>
<g>
	<defs>
		<rect id="SVGID_1_" width="52.6" height="60"/>
	</defs>
	<clipPath id="SVGID_00000052818572336730306720000014617418320836593537_">
		<use xlink:href="#SVGID_1_"  style="overflow:visible;"/>
	</clipPath>
	<g style="clip-path:url(#SVGID_00000052818572336730306720000014617418320836593537_);">
		
			<linearGradient id="SVGID_00000020383613136734406410000011478051738740585881_" gradientUnits="userSpaceOnUse" x1="0.8066" y1="63.75" x2="51.3067" y2="63.75" gradientTransform="matrix(1 0 0 -1 0 86)">
			<stop  offset="0" style="stop-color:#A3EDBA"/>
			<stop  offset="1" style="stop-color:#C3C8FF"/>
		</linearGradient>
		<path style="fill:url(#SVGID_00000020383613136734406410000011478051738740585881_);" d="M0.8,44V15.5l25-15l25.5,15V44l-11-6
			l1.5-16l-16-9.5L11.3,22v16L0.8,44z"/>
		<path class="st2" d="M11.8,38.5V22l14,7.5V46L11.8,38.5z"/>
		<path class="st3" d="M26.3,13.5l-14,8l14,8.5l14-8.5L26.3,13.5z"/>
		<path class="st4" d="M26.3,46V30l15-8v17L26.3,46z"/>
		<path class="st5" d="M10.8,38l-9,6l24,15V46L10.8,38z"/>
		<path class="st3" d="M26.3,59V46l15-8l10.5,6.5L26.3,59z"/>
		<path class="st6" d="M0.6,15.2L26.3,0.6l25.8,14.6"/>
		<path class="st6" d="M26.3,59.4L1.2,44.8L0.6,15.2l25.8,14.6"/>
		<path class="st6" d="M51.5,44.8l0.6-29.6L26.3,29.8l0,29.6L51.5,44.8z"/>
		<path class="st6" d="M11.4,21.4L26.3,13l14.9,8.5"/>
		<path class="st6" d="M26.3,47l-14.6-8.5l-0.3-17.1"/>
		<path class="st6" d="M26.3,47l14.6-8.5l0.3-17.1"/>
		<path class="st6" d="M26.3,0.6V13"/>
		<path class="st6" d="M11.8,38.6L1.2,44.8"/>
		<path class="st6" d="M40.9,38.6l10.6,6.2"/>
	</g>
</g>
</svg>
