<svg width="61" height="50" viewBox="0 0 61 50" fill="none" xmlns="http://www.w3.org/2000/svg">
<g clip-path="url(#clip0_1_46825)">
<path d="M14.6817 43.4595H3.28931V48.7212H14.6817V43.4595Z" fill="#E1E3FF" stroke="#2A2F66" stroke-linecap="round" stroke-linejoin="round"/>
<path d="M29.7396 39.2746V48.7213H18.3472V38.1979H22.2975" fill="#C3C8FF"/>
<path d="M29.7396 39.2746V48.7213H18.3472V38.1979H22.2975" stroke="#2A2F66" stroke-linecap="round" stroke-linejoin="round"/>
<path d="M44.7977 32.9362H33.4053V48.7212H44.7977V32.9362Z" fill="#A5ACFF" stroke="#2A2F66" stroke-linecap="round" stroke-linejoin="round"/>
<path d="M59.8556 27.6744H48.4631V48.7212H59.8556V27.6744Z" fill="#8791FF" stroke="#2A2F66" stroke-linecap="round" stroke-linejoin="round"/>
<g filter="url(#filter0_dddd_1_46825)">
<path d="M14.375 27.1378C11.4936 26.6072 9.58785 23.8412 10.1184 20.9597L11.6465 12.6616" fill="url(#paint0_linear_1_46825)"/>
<path d="M14.375 27.1378C11.4936 26.6072 9.58785 23.8412 10.1184 20.9597L11.6465 12.6616" stroke="#2A2F66" stroke-linecap="round" stroke-linejoin="round"/>
<path d="M21.7058 16.3328L22.78 16.851C23.2975 17.1006 23.9019 17.1015 24.4192 16.8527L30.8733 13.7582C31.3749 13.5178 31.7014 13.0598 31.7949 12.5517C31.8569 12.2148 31.8168 11.8563 31.6557 11.5237C31.255 10.6938 30.2601 10.3449 29.4294 10.7427L24.1438 13.2737C23.7989 13.4395 23.3969 13.4391 23.0524 13.2723L22.1106 12.8181" fill="url(#paint1_linear_1_46825)"/>
<path d="M21.7058 16.3328L22.78 16.851C23.2975 17.1006 23.9019 17.1015 24.4192 16.8527L30.8733 13.7582C31.3749 13.5178 31.7014 13.0598 31.7949 12.5517C31.8569 12.2148 31.8168 11.8563 31.6557 11.5237C31.255 10.6938 30.2601 10.3449 29.4294 10.7427L24.1438 13.2737C23.7989 13.4395 23.3969 13.4391 23.0524 13.2723L22.1106 12.8181" stroke="#2A2F66" stroke-linecap="round" stroke-linejoin="round"/>
<path d="M11.6466 12.6617L7.16039 14.0803C6.83863 14.1821 6.57862 14.4214 6.45052 14.7335L4.36152 19.8248C4.01122 20.6785 3.03514 21.0867 2.18139 20.7364C1.32762 20.3861 0.919493 19.41 1.26979 18.5562L3.52975 13.0483C3.92862 12.0761 4.74145 11.3334 5.74552 11.0235L13.8962 8.50796C14.1919 8.41669 14.5053 8.39829 14.8097 8.45434L18.7988 9.50928C19.8012 9.77435 20.4134 10.7857 20.1836 11.7967L17.7848 22.3494L25.6417 25.6162C26.352 25.8768 26.8865 26.4731 27.0682 27.2075L29.1748 35.7232C29.4332 36.7676 28.7967 37.8238 27.7527 38.0833C26.707 38.3432 25.6488 37.7055 25.39 36.6595L23.6578 29.6572C23.5945 29.4011 23.3892 29.2045 23.1306 29.1523L14.3752 27.1379" fill="url(#paint2_linear_1_46825)"/>
<path d="M11.6466 12.6617L7.16039 14.0803C6.83863 14.1821 6.57862 14.4214 6.45052 14.7335L4.36152 19.8248C4.01122 20.6785 3.03513 21.0867 2.18139 20.7364C1.32762 20.3861 0.919493 19.41 1.26979 18.5562L3.52975 13.0483C3.92862 12.0761 4.74145 11.3334 5.74552 11.0235L13.8962 8.50796C14.1919 8.41669 14.5053 8.39829 14.8097 8.45434L18.7988 9.50928C19.8012 9.77435 20.4134 10.7857 20.1836 11.7967L17.7848 22.3494L25.6417 25.6162C26.352 25.8768 26.8865 26.4731 27.0682 27.2075L29.1748 35.7232C29.4332 36.7676 28.7967 37.8238 27.7527 38.0833C26.707 38.3432 25.6488 37.7055 25.39 36.6595L23.6578 29.6572C23.5945 29.4011 23.3892 29.2045 23.1306 29.1523L14.3752 27.1379" stroke="#2A2F66" stroke-linecap="round" stroke-linejoin="round"/>
<path d="M16.9281 27.8572L16.4389 31.5524C16.2361 32.9465 15.3603 34.1419 14.097 34.7551L7.70806 37.8511C6.73989 38.3198 5.57297 37.9153 5.10387 36.9458C4.6351 35.9776 5.03964 34.8107 6.00778 34.3419L12.3968 31.2459C12.4955 31.1992 12.5632 31.1042 12.5799 30.9951L13.3567 27.1429" fill="url(#paint3_linear_1_46825)"/>
<path d="M16.9281 27.8572L16.4389 31.5524C16.2361 32.9465 15.3603 34.1419 14.097 34.7551L7.70806 37.8511C6.73989 38.3198 5.57297 37.9153 5.10387 36.9458C4.6351 35.9776 5.03964 34.8107 6.00778 34.3419L12.3968 31.2459C12.4955 31.1992 12.5632 31.1042 12.5799 30.9951L13.3567 27.1429" stroke="#2A2F66" stroke-linecap="round" stroke-linejoin="round"/>
<path d="M21.2938 6.08249C22.308 4.37188 21.7434 2.16298 20.0328 1.14878C18.3222 0.134573 16.1133 0.699126 15.0991 2.40974C14.0849 4.12035 14.6494 6.32925 16.36 7.34346C18.0706 8.35766 20.2795 7.79311 21.2938 6.08249Z" fill="url(#paint4_linear_1_46825)" stroke="#2A2F66" stroke-linecap="round" stroke-linejoin="round"/>
</g>
</g>
<defs>
<filter id="filter0_dddd_1_46825" x="-6.35596" y="-0.855347" width="45.6787" height="64.4967" filterUnits="userSpaceOnUse" color-interpolation-filters="sRGB">
<feFlood flood-opacity="0" result="BackgroundImageFix"/>
<feColorMatrix in="SourceAlpha" type="matrix" values="0 0 0 0 0 0 0 0 0 0 0 0 0 0 0 0 0 0 127 0" result="hardAlpha"/>
<feOffset dy="1"/>
<feGaussianBlur stdDeviation="1"/>
<feColorMatrix type="matrix" values="0 0 0 0 0 0 0 0 0 0 0 0 0 0 0 0 0 0 0.08 0"/>
<feBlend mode="normal" in2="BackgroundImageFix" result="effect1_dropShadow_1_46825"/>
<feColorMatrix in="SourceAlpha" type="matrix" values="0 0 0 0 0 0 0 0 0 0 0 0 0 0 0 0 0 0 127 0" result="hardAlpha"/>
<feOffset dy="4"/>
<feGaussianBlur stdDeviation="2"/>
<feColorMatrix type="matrix" values="0 0 0 0 0 0 0 0 0 0 0 0 0 0 0 0 0 0 0.07 0"/>
<feBlend mode="normal" in2="effect1_dropShadow_1_46825" result="effect2_dropShadow_1_46825"/>
<feColorMatrix in="SourceAlpha" type="matrix" values="0 0 0 0 0 0 0 0 0 0 0 0 0 0 0 0 0 0 127 0" result="hardAlpha"/>
<feOffset dy="10"/>
<feGaussianBlur stdDeviation="3"/>
<feColorMatrix type="matrix" values="0 0 0 0 0 0 0 0 0 0 0 0 0 0 0 0 0 0 0.04 0"/>
<feBlend mode="normal" in2="effect2_dropShadow_1_46825" result="effect3_dropShadow_1_46825"/>
<feColorMatrix in="SourceAlpha" type="matrix" values="0 0 0 0 0 0 0 0 0 0 0 0 0 0 0 0 0 0 127 0" result="hardAlpha"/>
<feOffset dy="18"/>
<feGaussianBlur stdDeviation="3.5"/>
<feColorMatrix type="matrix" values="0 0 0 0 0 0 0 0 0 0 0 0 0 0 0 0 0 0 0.01 0"/>
<feBlend mode="normal" in2="effect3_dropShadow_1_46825" result="effect4_dropShadow_1_46825"/>
<feBlend mode="normal" in="SourceGraphic" in2="effect4_dropShadow_1_46825" result="shape"/>
</filter>
<linearGradient id="paint0_linear_1_46825" x1="10.0298" y1="19.8997" x2="14.375" y2="19.8997" gradientUnits="userSpaceOnUse">
<stop stop-color="#A3EDBA"/>
<stop offset="1" stop-color="#C3C8FF"/>
</linearGradient>
<linearGradient id="paint1_linear_1_46825" x1="21.7058" y1="13.8086" x2="31.8226" y2="13.8086" gradientUnits="userSpaceOnUse">
<stop stop-color="#A3EDBA"/>
<stop offset="1" stop-color="#C3C8FF"/>
</linearGradient>
<linearGradient id="paint2_linear_1_46825" x1="1.14429" y1="23.2819" x2="29.2323" y2="23.2819" gradientUnits="userSpaceOnUse">
<stop stop-color="#A3EDBA"/>
<stop offset="1" stop-color="#C3C8FF"/>
</linearGradient>
<linearGradient id="paint3_linear_1_46825" x1="4.90869" y1="32.5946" x2="16.9281" y2="32.5946" gradientUnits="userSpaceOnUse">
<stop stop-color="#A3EDBA"/>
<stop offset="1" stop-color="#C3C8FF"/>
</linearGradient>
<linearGradient id="paint4_linear_1_46825" x1="16.36" y1="7.34346" x2="20.0328" y2="1.14878" gradientUnits="userSpaceOnUse">
<stop stop-color="#A3EDBA"/>
<stop offset="1" stop-color="#C3C8FF"/>
</linearGradient>
<clipPath id="clip0_1_46825">
<rect width="60" height="49.3656" fill="white" transform="translate(0.5)"/>
</clipPath>
</defs>
</svg>
