<?xml version="1.0" encoding="utf-8"?>
<!-- Generator: Adobe Illustrator 28.0.0, SVG Export Plug-In . SVG Version: 6.00 Build 0)  -->
<svg version="1.1" id="Layer_1" xmlns="http://www.w3.org/2000/svg" xmlns:xlink="http://www.w3.org/1999/xlink" x="0px" y="0px"
	 viewBox="0 0 354.6 86.9" style="enable-background:new 0 0 354.6 86.9;" xml:space="preserve">
<style type="text/css">
	.st0{opacity:0.1;}
	.st1{fill:#FCD34D;}
	.st2{opacity:0.2;}
</style>
<g class="st0">
	<path class="st1" d="M52.4,12.3l-1.2-2.6l0,0L52.4,12.3z M47,16.5l2.2,1.8l0,0l0,0L47,16.5z M43.6,23.3l2.7,0.8l0,0L43.6,23.3z
		 M44.3,43.5l-2.7,1l0,0L44.3,43.5z M50,50.9l-1.6,2.4l0,0l0,0L50,50.9z M66.7,52.7l-0.6-2.8L66.7,52.7z M73.7,50.8h2.8v-3.9
		l-3.7,1.2L73.7,50.8z M73.7,58.7l1,2.6l1.8-0.7v-1.9C76.5,58.7,73.7,58.7,73.7,58.7z M66.7,60.7l-0.5-2.8L66.7,60.7z M44.1,57.7
		l-1.5,2.4l0,0L44.1,57.7z M35.5,47.5l-2.6,1.1l0,0l0,0L35.5,47.5z M39.7,11l2.1,1.9l0,0L39.7,11z M48.2,5l1.1,2.6l0,0L48.2,5z
		 M68.1,3.8l-0.7,2.8l0,0l0,0L68.1,3.8z M75.8,6.5l2.6,1.1l1-2.5L77.1,4L75.8,6.5z M72.6,14.2l-1.2,2.6L74,18l1.2-2.7L72.6,14.2z
		 M66.4,11.8l0.9-2.7L66.4,11.8z M59.7,7.9c-3.1,0-5.9,0.6-8.5,1.7l2.4,5.2c1.7-0.8,3.8-1.2,6.1-1.2V7.9z M51.2,9.7
		c-2.5,1.2-4.7,2.9-6.4,5.1l4.5,3.5c1.2-1.5,2.7-2.7,4.4-3.5L51.2,9.7z M44.7,14.8c-1.7,2.2-3,4.8-3.9,7.7l5.5,1.6
		c0.7-2.3,1.7-4.2,2.9-5.8L44.7,14.8z M40.9,22.5c-0.9,2.9-1.3,6.2-1.3,9.7h5.7c0-3.1,0.4-5.8,1-8.1L40.9,22.5z M39.6,32.1
		c0,4.7,0.7,8.8,2.1,12.4l5.3-2.1c-1.1-2.8-1.7-6.2-1.7-10.4L39.6,32.1L39.6,32.1z M41.6,44.6c1.4,3.6,3.7,6.6,6.7,8.6l3.2-4.7
		c-2-1.4-3.6-3.3-4.6-6L41.6,44.6z M48.4,53.2c3.1,2.1,6.9,3,11.2,3v-5.7c-3.5,0-6.1-0.8-8.1-2.1L48.4,53.2z M59.6,56.2
		c2.6,0,5.1-0.3,7.6-0.8l-1.1-5.6c-2.1,0.4-4.2,0.6-6.5,0.6V56.2z M67.2,55.5c2.4-0.5,4.9-1.2,7.4-2l-1.8-5.4
		c-2.3,0.8-4.6,1.4-6.8,1.8L67.2,55.5z M70.9,50.8v7.9h5.7v-7.9H70.9z M72.7,56.1c-2.1,0.8-4.3,1.4-6.5,1.8l1,5.6
		c2.6-0.4,5.1-1.2,7.6-2.1L72.7,56.1z M66.2,57.9c-2.2,0.4-4.7,0.6-7.7,0.6v5.7c3.2,0,6.1-0.2,8.7-0.7L66.2,57.9z M58.6,58.5
		c-5.4,0-9.7-1.1-13-3.2l-3,4.8c4.4,2.8,9.8,4.1,16,4.1V58.5z M45.6,55.3c-3.3-2.1-5.8-5-7.5-8.9l-5.2,2.3c2.1,4.9,5.3,8.7,9.7,11.5
		L45.6,55.3z M38.1,46.4c-1.7-4-2.6-8.7-2.6-14.3h-5.7c0,6.2,1,11.7,3,16.5L38.1,46.4z M35.6,32.1c0-4,0.6-7.7,1.6-10.9l-5.4-1.8
		c-1.3,3.9-1.9,8.2-1.9,12.7H35.6z M37.2,21.2c1.1-3.3,2.6-6,4.7-8.3l-4.3-3.8c-2.6,2.9-4.5,6.3-5.8,10.2L37.2,21.2z M41.9,12.9
		c2-2.3,4.4-4,7.4-5.3l-2.2-5.2c-3.7,1.6-6.9,3.8-9.5,6.8L41.9,12.9z M49.3,7.6c3-1.3,6.4-1.9,10.4-1.9V0C55.1,0,50.8,0.8,47,2.4
		L49.3,7.6z M59.7,5.7c2.6,0,5.2,0.3,7.8,0.9L68.8,1c-3-0.7-6-1-9.1-1C59.7,0,59.7,5.7,59.7,5.7z M67.5,6.6c2.6,0.6,4.9,1.4,7.1,2.5
		L77.1,4c-2.6-1.3-5.4-2.2-8.3-2.9L67.5,6.6z M73.2,5.4l-3.3,7.7l5.2,2.2l3.3-7.7L73.2,5.4z M73.8,11.6c-2.1-1-4.3-1.8-6.6-2.6
		l-1.7,5.4c2,0.6,4,1.4,5.8,2.3L73.8,11.6z M67.2,9.1c-2.4-0.8-5-1.1-7.5-1.1v5.7c2,0,4,0.3,5.8,0.9L67.2,9.1z M121.2,29.6l-2.5,1.3
		l2.5,4.9l2.5-4.9L121.2,29.6z M134.7,3.7V0.8H133l-0.8,1.5L134.7,3.7z M144.8,3.7l2.5,1.4l2.3-4.2h-4.8V3.7z M125.8,38.4l-2.5-1.4
		l-0.3,0.6v0.7h2.8V38.4z M125.8,60.5v2.8h2.8v-2.8H125.8z M116.5,60.5h-2.8v2.8h2.8V60.5z M116.5,38.8h2.8v-0.7l-0.3-0.6
		L116.5,38.8z M97.6,3.7V0.8h-4.8L95.1,5L97.6,3.7z M107.8,3.7l2.5-1.3l-0.8-1.5h-1.7V3.7z M123.7,30.9l13.5-26l-5-2.6l-13.5,26
		L123.7,30.9z M134.7,6.5h10.1V0.8h-10.1V6.5z M142.3,2.3l-18.9,34.8l5,2.7L147.3,5L142.3,2.3z M123,38.4v22.1h5.7V38.4H123z
		 M125.8,57.7h-9.3v5.7h9.3V57.7z M119.4,60.5V38.8h-5.7v21.7H119.4z M119.1,37.4l-19-35.1l-5,2.7L114,40.1L119.1,37.4z M97.6,6.5
		h10.2V0.8H97.6V6.5z M105.2,5l13.4,26l5.1-2.6l-13.4-26L105.2,5z M171.3,3.7V0.8h-2.8v2.8h2.8V3.7z M209.3,23.8l-2.6-1.1l0,0l0,0
		L209.3,23.8z M206,28.1l1.7,2.3l0,0l0,0L206,28.1z M200.6,30.4l-0.5-2.8l-2.3,0.4v2.4H200.6z M200.6,30.7h-2.8v2.4l2.4,0.4
		L200.6,30.7z M206.5,32.8l-1.4,2.5l0,0l0,0L206.5,32.8z M210.6,37l-2.5,1.3l0,0l0,0L210.6,37z M209.6,53.1l-2.4-1.6l0,0l0,0
		L209.6,53.1z M202.6,58.6l-1.1-2.6l0,0L202.6,58.6z M171.3,60.5h-2.8v2.8h2.8V60.5z M180.7,27.1h-2.8V30h2.8V27.1z M198,13.2
		l-1.5,2.4l0,0l0,0L198,13.2z M180.7,11.4V8.6h-2.8v2.8C177.9,11.4,180.7,11.4,180.7,11.4z M180.7,34.7v-2.8h-2.8v2.8H180.7z
		 M180.7,52.7h-2.8v2.8h2.8V52.7z M199.7,50.2l-2-2.1L199.7,50.2z M201.2,38.8l-2.4,1.5l0,0l0,0L201.2,38.8z M197.3,35.8l-1.1,2.6
		l0,0l0,0L197.3,35.8z M171.3,6.5h16.9V0.8h-16.9V6.5z M188.3,6.5c7.2,0,12.1,1.1,15.2,2.8l2.8-4.9c-4.4-2.5-10.5-3.6-18-3.6V6.5z
		 M203.5,9.3c2.6,1.5,4.2,4.1,4.2,8.5h5.7c0-6-2.2-10.7-7-13.5L203.5,9.3z M207.6,17.9c0,1.8-0.3,3.4-0.9,4.8l5.2,2.3
		c1-2.2,1.4-4.5,1.4-7.1H207.6z M206.7,22.6c-0.6,1.3-1.4,2.4-2.5,3.2l3.5,4.5c1.8-1.4,3.2-3.3,4.2-5.4L206.7,22.6z M204.3,25.8
		c-1,0.8-2.4,1.4-4.1,1.7l1,5.6c2.5-0.5,4.7-1.4,6.6-2.8L204.3,25.8z M197.8,30.4v0.4h5.7v-0.4H197.8z M200.2,33.5
		c1.9,0.3,3.6,0.9,5,1.7l2.8-4.9c-2-1.2-4.3-2-6.8-2.4L200.2,33.5z M205.1,35.3c1.2,0.7,2.2,1.7,3,3.1l5-2.7c-1.2-2.3-3-4.1-5.2-5.4
		L205.1,35.3z M208.1,38.4c0.7,1.3,1.2,3.2,1.2,5.8h5.7c0-3.2-0.6-6.1-1.9-8.5L208.1,38.4z M209.3,44.2c0,3-0.7,5.4-2,7.3l4.7,3.2
		c2-3,3-6.5,3-10.5H209.3z M207.3,51.5c-1.3,1.9-3.2,3.4-5.8,4.5l2.2,5.3c3.5-1.5,6.3-3.6,8.3-6.6L207.3,51.5z M201.5,56
		c-2.6,1.1-5.8,1.7-9.7,1.7v5.7c4.5,0,8.5-0.7,11.9-2.1L201.5,56z M191.8,57.7h-20.4v5.7h20.4V57.7z M174.2,60.5V3.7h-5.7v56.9h5.7
		V60.5z M180.7,30h8.9v-5.7h-8.9V30z M189.6,30c4.3,0,8.2-0.7,10.6-2.7l-3.7-4.4c-0.8,0.7-2.8,1.4-7,1.4L189.6,30L189.6,30z
		 M200.3,27.2c2.4-2,3.5-4.9,3.5-8.2H198c0,2-0.6,3.1-1.4,3.9L200.3,27.2z M203.7,19c0-3.5-1.3-6.4-4.3-8.3l-3,4.9
		c0.9,0.6,1.6,1.5,1.6,3.4H203.7z M199.5,10.8c-2.6-1.6-6.3-2.2-10.7-2.2v5.7c4.1,0,6.5,0.6,7.7,1.4L199.5,10.8z M188.8,8.6h-8.1
		v5.7h8.1V8.6z M177.8,11.4v15.7h5.7V11.4H177.8z M177.8,34.7v18.1h5.7V34.7H177.8z M180.7,55.6h9.8v-5.7h-9.8V55.6z M190.5,55.6
		c4.6,0,8.6-0.9,11.1-3.3l-3.9-4.1c-0.9,0.9-3.1,1.7-7.2,1.7L190.5,55.6L190.5,55.6z M201.7,52.3c2.4-2.3,3.5-5.4,3.5-8.9h-5.7
		c0,2.3-0.7,3.7-1.8,4.8L201.7,52.3z M205.2,43.3c0-2.2-0.5-4.3-1.6-6.1l-4.8,3c0.5,0.8,0.8,1.8,0.8,3.1H205.2z M203.6,37.3
		c-1.2-2-3-3.3-5.3-4.2l-2.1,5.3c1.4,0.5,2.1,1.2,2.4,1.8L203.6,37.3z M198.4,33.1c-2.3-0.9-5.1-1.3-8.3-1.3v5.7
		c2.9,0,4.9,0.3,6.2,0.9L198.4,33.1z M190.1,31.8h-9.4v5.7h9.4V31.8z M275.2,60.5v2.8h2.8v-2.8H275.2z M243,60.5h-2.8v2.8h2.8V60.5z
		 M243,3.7V0.8h-2.8v2.8h2.8V3.7z M275.2,3.7h2.8V0.8h-2.8V3.7z M275.2,11.5v2.8h2.8v-2.8H275.2z M252.3,11.5V8.7h-2.8v2.8H252.3z
		 M252.3,27h-2.8v2.8h2.8V27z M273.8,27h2.8v-2.8h-2.8V27z M273.8,34.8v2.8h2.8v-2.8H273.8z M252.3,34.8V32h-2.8v2.8H252.3z
		 M252.3,52.6h-2.8v2.8h2.8V52.6z M275.2,52.6h2.8v-2.8h-2.8V52.6z M275.2,57.7H243v5.7h32.2V57.7z M245.8,60.5V3.7h-5.7v56.9h5.7
		V60.5z M243,6.5h32.2V0.8H243V6.5z M272.4,3.7v7.9h5.7V3.7H272.4z M275.2,8.7h-22.9v5.7h22.9V8.7z M249.5,11.5V27h5.7V11.5H249.5z
		 M252.3,29.8h21.4v-5.7h-21.4L252.3,29.8L252.3,29.8z M270.9,27v7.8h5.7V27H270.9z M273.8,31.9h-21.4v5.7h21.4V31.9z M249.5,34.8
		v17.9h5.7V34.8H249.5z M252.3,55.5h22.9v-5.7h-22.9L252.3,55.5L252.3,55.5z M272.4,52.6v7.9h5.7v-7.9H272.4z M334.8,5.5l-1,2.7l0,0
		L334.8,5.5z M341.9,10.9l-2.4,1.5l0,0l0,0L341.9,10.9z M338.6,32.3l1.7,2.3L338.6,32.3z M333.2,35.4l-1.1-2.6L329,34l1.9,2.9
		L333.2,35.4z M349.4,60.5v2.8h5.2l-2.8-4.4L349.4,60.5z M338.8,60.5l-2.4,1.5l0.8,1.4h1.6V60.5z M325.1,37.7l2.4-1.5l-0.8-1.4h-1.6
		V37.7z M316,37.7v-2.8h-2.8v2.8H316z M316,60.5v2.8h2.8v-2.8H316z M306.6,60.5h-2.8v2.8h2.8V60.5z M306.6,3.7V0.8h-2.8v2.8h2.8V3.7
		z M316,11.4V8.6h-2.8v2.8C313.2,11.4,316,11.4,316,11.4z M316,30h-2.8v2.8h2.8V30z M331.8,27.6l-1.8-2.2l0,0l0,0L331.8,27.6z
		 M331.6,13.5l-1.6,2.4l0,0l0,0L331.6,13.5z M322.6,6.5c4.7,0,8.4,0.6,11.1,1.6l2-5.3c-3.6-1.4-8-2-13.1-2V6.5z M333.8,8.1
		c2.7,1,4.6,2.5,5.8,4.3l4.8-3.1c-1.9-3.1-4.9-5.2-8.6-6.6L333.8,8.1z M339.5,12.4c1.2,1.9,1.9,4.4,1.9,7.7h5.7
		c0-4.2-0.9-7.8-2.8-10.8L339.5,12.4z M341.4,20.2c0,2.5-0.5,4.4-1.2,5.8l5,2.7c1.3-2.5,1.9-5.3,1.9-8.5H341.4z M340.2,26
		c-0.9,1.6-2,2.9-3.3,4l3.5,4.5c2-1.6,3.6-3.5,4.9-5.8L340.2,26z M336.9,30c-1.5,1.1-3.1,2.1-4.7,2.7l2.1,5.3c2.2-0.9,4.2-2,6.1-3.5
		L336.9,30z M330.8,36.9L347,62.1l4.8-3.1l-16.1-25.2L330.8,36.9z M349.4,57.7h-10.5v5.7h10.5V57.7z M341.3,59.1l-13.7-22.8
		l-4.9,2.9L336.4,62L341.3,59.1z M325.1,34.9H316v5.7h9.1V34.9z M313.1,37.7v22.8h5.7V37.7H313.1z M316,57.7h-9.3v5.7h9.3V57.7z
		 M309.5,60.5V3.7h-5.7v56.9h5.7V60.5z M306.6,6.5h16V0.8h-16V6.5z M322,8.6h-6v5.7h6V8.6z M313.1,11.4V30h5.7V11.4H313.1z
		 M316,32.9h6.5v-5.7H316V32.9z M322.4,32.9c4.6,0,8.5-0.8,11.2-3.1l-3.6-4.4c-1.2,1-3.5,1.8-7.6,1.8V32.9z M333.6,29.8
		c2.8-2.3,4-5.6,4-9.3h-5.7c0,2.5-0.8,4-1.9,4.9L333.6,29.8z M337.6,20.5c0-3.9-1.3-7.3-4.4-9.4l-3.1,4.8c1.1,0.7,1.9,2,1.9,4.6
		H337.6z M333.2,11.1c-2.8-1.8-6.7-2.5-11.2-2.5v5.7c4.2,0,6.7,0.7,8.1,1.6L333.2,11.1z"/>
</g>
<g class="st2">
	<path class="st1" d="M36.7,25.1l-1.2-2.6l0,0L36.7,25.1z M31.3,29.3l2.2,1.8l0,0l0,0L31.3,29.3z M27.9,36.1l2.7,0.8l0,0L27.9,36.1z
		 M28.6,56.3l-2.7,1l0,0L28.6,56.3z M34.3,63.7L32.7,66l0,0l0,0L34.3,63.7z M51,65.5l-0.6-2.8L51,65.5z M58.1,63.6h2.8v-3.9
		l-3.7,1.2L58.1,63.6z M58.1,71.5l1,2.6l1.8-0.7v-1.9H58.1z M51.1,73.5l-0.5-2.8L51.1,73.5z M28.4,70.5l-1.5,2.4l0,0L28.4,70.5z
		 M19.9,60.3l-2.6,1.1l0,0l0,0L19.9,60.3z M24.1,23.8l2.1,1.9l0,0L24.1,23.8z M32.5,17.8l1.1,2.6l0,0L32.5,17.8z M52.5,16.6
		l-0.7,2.8l0,0l0,0L52.5,16.6z M60.2,19.3l2.6,1.1l1-2.5l-2.4-1.2L60.2,19.3z M56.9,27l-1.2,2.6l2.7,1.3l1.2-2.7L56.9,27z
		 M50.7,24.6l0.9-2.7L50.7,24.6z M44,20.7c-3.1,0-5.9,0.6-8.5,1.7l2.4,5.2c1.7-0.8,3.8-1.2,6.1-1.2V20.7z M35.5,22.5
		c-2.5,1.2-4.7,2.9-6.4,5.1l4.5,3.5c1.2-1.5,2.7-2.7,4.4-3.5L35.5,22.5z M29.1,27.6c-1.7,2.2-3,4.8-3.9,7.7l5.5,1.6
		c0.7-2.3,1.7-4.2,2.9-5.8L29.1,27.6z M25.2,35.3c-0.9,2.9-1.3,6.2-1.3,9.7h5.7c0-3.1,0.4-5.8,1-8.1L25.2,35.3z M23.9,44.9
		c0,4.7,0.7,8.8,2.1,12.4l5.3-2.1c-1.1-2.8-1.7-6.2-1.7-10.4L23.9,44.9L23.9,44.9z M26,57.4c1.4,3.6,3.7,6.6,6.7,8.6l3.2-4.7
		c-2-1.4-3.6-3.3-4.6-6L26,57.4z M32.7,66c3.1,2.1,6.9,3,11.2,3v-5.7c-3.5,0-6.1-0.8-8.1-2.1L32.7,66z M44,69c2.6,0,5.1-0.3,7.6-0.8
		l-1.1-5.6c-2.1,0.4-4.2,0.6-6.5,0.6V69z M51.6,68.3c2.4-0.5,4.9-1.2,7.4-2l-1.8-5.4c-2.3,0.8-4.6,1.4-6.8,1.8L51.6,68.3z
		 M55.2,63.6v7.9h5.7v-7.9H55.2z M57,68.9c-2.1,0.8-4.3,1.4-6.5,1.8l1,5.6c2.6-0.4,5.1-1.2,7.6-2.1L57,68.9z M50.6,70.7
		c-2.2,0.4-4.7,0.6-7.7,0.6V77c3.2,0,6.1-0.2,8.7-0.7L50.6,70.7z M42.9,71.3c-5.4,0-9.7-1.1-13-3.2l-3,4.8c4.4,2.8,9.8,4.1,16,4.1
		V71.3z M30,68.1c-3.3-2.1-5.8-5-7.5-8.9l-5.2,2.3c2.1,4.9,5.3,8.7,9.7,11.5L30,68.1z M22.5,59.2c-1.7-4-2.6-8.7-2.6-14.3h-5.7
		c0,6.2,1,11.7,3,16.5L22.5,59.2z M19.9,44.9c0-4,0.6-7.7,1.6-10.9l-5.4-1.8c-1.3,3.9-1.9,8.2-1.9,12.7H19.9z M21.6,34
		c1.1-3.3,2.6-6,4.7-8.3L22,21.9c-2.6,2.9-4.5,6.3-5.8,10.2L21.6,34z M26.2,25.7c2-2.3,4.4-4,7.4-5.3l-2.2-5.2
		c-3.7,1.6-6.9,3.8-9.5,6.8L26.2,25.7z M33.6,20.4c3-1.3,6.4-1.9,10.4-1.9v-5.7c-4.6,0-8.9,0.8-12.7,2.4L33.6,20.4z M44.1,18.5
		c2.6,0,5.2,0.3,7.8,0.9l1.3-5.5c-3-0.7-6-1-9.1-1V18.5z M51.9,19.4c2.6,0.6,4.9,1.4,7.1,2.5l2.5-5.1c-2.6-1.3-5.4-2.2-8.3-2.9
		L51.9,19.4z M57.6,18.2l-3.3,7.7l5.2,2.2l3.3-7.7L57.6,18.2z M58.1,24.4c-2.1-1-4.3-1.8-6.6-2.6l-1.7,5.4c2,0.6,4,1.4,5.8,2.3
		L58.1,24.4z M51.6,21.9c-2.4-0.8-5-1.1-7.5-1.1v5.7c2,0,4,0.3,5.8,0.9L51.6,21.9z M105.5,42.4l-2.5,1.3l2.5,4.9l2.5-4.9L105.5,42.4
		z M119,16.5v-2.8h-1.7l-0.8,1.5L119,16.5z M129.1,16.5l2.5,1.4l2.3-4.2h-4.8V16.5z M110.2,51.3l-2.5-1.4l-0.3,0.6v0.7h2.8V51.3z
		 M110.2,73.3v2.8h2.8v-2.8H110.2z M100.9,73.3h-2.8v2.8h2.8V73.3z M100.9,51.6h2.8v-0.7l-0.3-0.6L100.9,51.6z M82,16.5v-2.8h-4.8
		l2.3,4.2L82,16.5z M92.1,16.5l2.5-1.3l-0.8-1.5h-1.7V16.5z M108.1,43.7l13.5-26l-5-2.6l-13.5,26L108.1,43.7z M119,19.3h10.1v-5.7
		H119V19.3z M126.6,15.1l-18.9,34.8l5,2.7l18.9-34.8L126.6,15.1z M107.4,51.3v22.1h5.7V51.3H107.4z M110.2,70.5h-9.3v5.7h9.3V70.5z
		 M103.7,73.3V51.6H98v21.7H103.7z M103.4,50.2L84.5,15.1l-5,2.7L98.4,53L103.4,50.2z M82,19.3h10.2v-5.7H82V19.3z M89.6,17.8
		l13.4,26l5.1-2.6l-13.4-26L89.6,17.8z M155.7,16.5v-2.8h-2.8v2.8H155.7z M193.7,36.6l-2.6-1.1l0,0l0,0L193.7,36.6z M190.4,40.9
		l1.7,2.3l0,0l0,0L190.4,40.9z M185,43.2l-0.5-2.8l-2.3,0.4v2.4C182.2,43.2,185,43.2,185,43.2z M185,43.5h-2.8v2.4l2.4,0.4L185,43.5
		z M190.9,45.6l-1.4,2.5l0,0l0,0L190.9,45.6z M195,49.8l-2.5,1.3l0,0l0,0L195,49.8z M194,65.9l-2.4-1.6l0,0l0,0L194,65.9z
		 M186.9,71.4l-1.1-2.6l0,0L186.9,71.4z M155.7,73.3h-2.8v2.8h2.8V73.3z M165,39.9h-2.8v2.8h2.8V39.9z M182.3,26l-1.5,2.4l0,0l0,0
		L182.3,26z M165,24.2v-2.8h-2.8v2.8H165z M165,47.5v-2.8h-2.8v2.8H165z M165,65.5h-2.8v2.8h2.8V65.5z M184.1,63l-2-2.1L184.1,63z
		 M185.5,51.6l-2.4,1.5l0,0l0,0L185.5,51.6z M181.6,48.6l-1.1,2.6l0,0l0,0L181.6,48.6z M155.7,19.3h16.9v-5.7h-16.9V19.3z
		 M172.6,19.3c7.2,0,12.1,1.1,15.2,2.8l2.8-4.9c-4.4-2.5-10.5-3.6-18-3.6V19.3z M187.8,22.1c2.6,1.5,4.2,4.1,4.2,8.5h5.7
		c0-6-2.2-10.7-7-13.5L187.8,22.1z M192,30.7c0,1.8-0.3,3.4-0.9,4.8l5.2,2.3c1-2.2,1.4-4.5,1.4-7.1C197.7,30.7,192,30.7,192,30.7z
		 M191.1,35.5c-0.6,1.3-1.4,2.4-2.5,3.2l3.5,4.5c1.8-1.4,3.2-3.3,4.2-5.4L191.1,35.5z M188.6,38.6c-1,0.8-2.4,1.4-4.1,1.7l1,5.6
		c2.5-0.5,4.7-1.4,6.6-2.8L188.6,38.6z M182.1,43.2v0.4h5.7v-0.4H182.1z M184.5,46.3c1.9,0.3,3.6,0.9,4.9,1.7l2.8-4.9
		c-2-1.2-4.3-2-6.8-2.4L184.5,46.3z M189.5,48.1c1.2,0.7,2.2,1.7,3,3.1l5-2.7c-1.2-2.3-3-4.1-5.2-5.4L189.5,48.1z M192.5,51.2
		c0.7,1.3,1.2,3.2,1.2,5.8h5.7c0-3.2-0.6-6.1-1.9-8.5L192.5,51.2z M193.6,57c0,3-0.7,5.4-2,7.3l4.7,3.2c2-3,3-6.5,3-10.5H193.6z
		 M191.6,64.3c-1.3,1.9-3.2,3.4-5.8,4.5l2.2,5.3c3.5-1.5,6.3-3.6,8.3-6.6L191.6,64.3z M185.8,68.8c-2.6,1.1-5.8,1.7-9.7,1.7v5.7
		c4.5,0,8.5-0.7,11.9-2.1L185.8,68.8z M176.1,70.5h-20.4v5.7h20.4V70.5z M158.5,73.3V16.5h-5.7v56.9L158.5,73.3L158.5,73.3z
		 M165,42.8h8.9v-5.7H165V42.8z M174,42.8c4.3,0,8.2-0.7,10.6-2.7l-3.7-4.4c-0.8,0.7-2.8,1.4-7,1.4L174,42.8L174,42.8z M184.6,40
		c2.4-2,3.5-4.9,3.5-8.2h-5.7c0,2-0.6,3.1-1.4,3.9L184.6,40z M188.1,31.8c0-3.5-1.3-6.4-4.3-8.3l-3,4.9c0.9,0.6,1.6,1.5,1.6,3.4
		H188.1z M183.8,23.6c-2.6-1.6-6.3-2.2-10.7-2.2v5.7c4.1,0,6.5,0.6,7.7,1.4L183.8,23.6z M173.1,21.4H165v5.7h8.1V21.4z M162.2,24.2
		v15.7h5.7V24.2H162.2z M162.2,47.5v18.1h5.7V47.5H162.2z M165,68.4h9.8v-5.7H165V68.4z M174.9,68.4c4.6,0,8.6-0.9,11.1-3.3
		l-3.9-4.1c-0.9,0.9-3.1,1.7-7.2,1.7L174.9,68.4L174.9,68.4z M186,65.1c2.4-2.3,3.5-5.4,3.5-8.9h-5.7c0,2.3-0.7,3.7-1.8,4.8
		L186,65.1z M189.6,56.2c0-2.2-0.5-4.3-1.6-6.1l-4.8,3c0.5,0.8,0.8,1.8,0.8,3.1H189.6z M187.9,50.1c-1.2-2-3-3.3-5.3-4.2l-2.1,5.3
		c1.4,0.5,2.1,1.2,2.4,1.8L187.9,50.1z M182.7,45.9c-2.3-0.9-5.1-1.3-8.3-1.3v5.7c2.9,0,4.9,0.3,6.2,0.9L182.7,45.9z M174.4,44.6
		H165v5.7h9.4V44.6z M259.6,73.3v2.8h2.8v-2.8H259.6z M227.3,73.3h-2.8v2.8h2.8V73.3z M227.3,16.5v-2.8h-2.8v2.8H227.3z M259.6,16.5
		h2.8v-2.8h-2.8V16.5z M259.6,24.3v2.8h2.8v-2.8H259.6z M236.7,24.3v-2.8h-2.8v2.8H236.7z M236.7,39.8h-2.8v2.8h2.8V39.8z
		 M258.1,39.8h2.8V37h-2.8V39.8z M258.1,47.6v2.8h2.8v-2.8H258.1z M236.7,47.6v-2.8h-2.8v2.8H236.7z M236.7,65.5h-2.8v2.8h2.8V65.5z
		 M259.6,65.5h2.8v-2.8h-2.8V65.5z M259.6,70.5h-32.2v5.7h32.2V70.5z M230.2,73.3V16.5h-5.7v56.9L230.2,73.3L230.2,73.3z
		 M227.3,19.3h32.2v-5.7h-32.2V19.3z M256.7,16.5v7.9h5.7v-7.9H256.7z M259.6,21.5h-22.9v5.7h22.9V21.5z M233.8,24.3v15.4h5.7V24.3
		H233.8z M236.7,42.6h21.4v-5.7h-21.4L236.7,42.6L236.7,42.6z M255.3,39.8v7.8h5.7v-7.8H255.3z M258.1,44.7h-21.4v5.7h21.4V44.7z
		 M233.8,47.6v17.9h5.7V47.6H233.8z M236.7,68.3h22.9v-5.7h-22.9L236.7,68.3L236.7,68.3z M256.7,65.5v7.9h5.7v-7.9H256.7z
		 M319.1,18.3l-1,2.7l0,0L319.1,18.3z M326.3,23.7l-2.4,1.5l0,0l0,0L326.3,23.7z M323,45.1l1.7,2.3L323,45.1z M317.6,48.2l-1.1-2.6
		l-3.2,1.3l1.9,2.9L317.6,48.2z M333.7,73.3v2.8h5.2l-2.8-4.4L333.7,73.3z M323.2,73.3l-2.4,1.5l0.8,1.4h1.6V73.3z M309.5,50.5
		l2.4-1.5l-0.8-1.4h-1.6V50.5z M300.3,50.5v-2.8h-2.8v2.8H300.3z M300.3,73.3v2.8h2.8v-2.8H300.3z M291,73.3h-2.8v2.8h2.8V73.3z
		 M291,16.5v-2.8h-2.8v2.8H291z M300.3,24.2v-2.8h-2.8v2.8H300.3z M300.3,42.8h-2.8v2.8h2.8V42.8z M316.2,40.4l-1.8-2.2l0,0l0,0
		L316.2,40.4z M316,26.3l-1.6,2.4l0,0l0,0L316,26.3z M307,19.3c4.7,0,8.4,0.6,11.1,1.6l2-5.3c-3.6-1.4-8-2-13.1-2V19.3z M318.1,20.9
		c2.7,1,4.6,2.5,5.8,4.3l4.8-3.1c-1.9-3.1-4.9-5.2-8.6-6.6L318.1,20.9z M323.9,25.3c1.2,1.9,1.9,4.4,1.9,7.7h5.7
		c0-4.2-0.9-7.8-2.8-10.8L323.9,25.3z M325.8,33c0,2.5-0.5,4.4-1.2,5.8l5,2.7c1.3-2.5,1.9-5.3,1.9-8.5H325.8z M324.6,38.8
		c-0.9,1.6-2,2.9-3.3,4l3.5,4.5c2-1.6,3.6-3.5,4.9-5.8L324.6,38.8z M321.3,42.8c-1.5,1.1-3.1,2.1-4.7,2.7l2.1,5.3
		c2.2-0.9,4.2-2,6.1-3.5L321.3,42.8z M315.2,49.7l16.1,25.2l4.8-3.1L320,46.6L315.2,49.7z M333.7,70.5h-10.5v5.7h10.5V70.5z
		 M325.6,71.9l-13.7-22.8L307,52l13.7,22.8L325.6,71.9z M309.5,47.7h-9.1v5.7h9.1V47.7z M297.5,50.5v22.8h5.7V50.5H297.5z
		 M300.3,70.5H291v5.7h9.3V70.5z M293.8,73.3V16.5h-5.7v56.9L293.8,73.3L293.8,73.3z M291,19.3h16v-5.7h-16V19.3z M306.3,21.4h-6
		v5.7h6V21.4z M297.5,24.2v18.6h5.7V24.2H297.5z M300.3,45.7h6.5V40h-6.5V45.7z M306.8,45.7c4.6,0,8.5-0.8,11.2-3.1l-3.6-4.4
		c-1.2,1-3.5,1.8-7.6,1.8V45.7z M318,42.6c2.8-2.3,4-5.6,4-9.3h-5.7c0,2.5-0.8,4-1.9,4.9L318,42.6z M322,33.3c0-3.9-1.3-7.3-4.4-9.4
		l-3.1,4.8c1.1,0.7,1.9,2,1.9,4.6H322z M317.6,23.9c-2.8-1.8-6.7-2.5-11.2-2.5v5.7c4.2,0,6.7,0.7,8.1,1.6L317.6,23.9z"/>
</g>
<g>
	<path class="st1" d="M22.5,35l-1.2-2.6l0,0L22.5,35z M17.1,39.3l2.2,1.8l0,0l0,0L17.1,39.3z M13.7,46l2.7,0.8l0,0L13.7,46z
		 M14.4,66.3l-2.7,1l0,0L14.4,66.3z M20.1,73.6L18.5,76l0,0l0,0L20.1,73.6z M36.8,75.4l-0.6-2.8L36.8,75.4z M43.9,73.5h2.8v-3.9
		L43,70.8L43.9,73.5z M43.9,81.5l1,2.6l1.8-0.7v-1.9H43.9z M36.8,83.5l-0.5-2.8L36.8,83.5z M14.2,80.5l-1.5,2.4l0,0L14.2,80.5z
		 M5.6,70.3L3,71.4l0,0l0,0L5.6,70.3z M9.8,33.8l2.1,1.9l0,0L9.8,33.8z M18.3,27.8l1.1,2.6l0,0L18.3,27.8z M38.3,26.6l-0.7,2.8l0,0
		l0,0L38.3,26.6z M46,29.3l2.6,1.1l1-2.5l-2.4-1.2L46,29.3z M42.7,37l-1.2,2.6l2.7,1.3l1.2-2.7L42.7,37z M36.5,34.6l0.9-2.7
		L36.5,34.6z M29.8,30.7c-3.1,0-5.9,0.6-8.5,1.7l2.4,5.2c1.7-0.8,3.8-1.2,6.1-1.2V30.7z M21.3,32.4c-2.5,1.2-4.7,2.9-6.4,5.1
		l4.5,3.5c1.2-1.5,2.7-2.7,4.4-3.5L21.3,32.4z M14.9,37.5c-1.7,2.2-3,4.8-3.9,7.7l5.5,1.6c0.7-2.3,1.7-4.2,2.9-5.8L14.9,37.5z
		 M11,45.2c-0.9,2.9-1.3,6.2-1.3,9.7h5.7c0-3.1,0.4-5.8,1-8.1L11,45.2z M9.7,54.9c0,4.7,0.7,8.8,2.1,12.4l5.3-2.1
		c-1.1-2.8-1.7-6.2-1.7-10.4L9.7,54.9L9.7,54.9z M11.8,67.3c1.4,3.6,3.7,6.6,6.7,8.6l3.2-4.7c-2-1.4-3.6-3.3-4.6-6L11.8,67.3z
		 M18.5,76c3.1,2.1,6.9,3,11.2,3v-5.7c-3.5,0-6.1-0.8-8.1-2.1L18.5,76z M29.7,79c2.6,0,5.1-0.3,7.6-0.8l-1.1-5.6
		c-2.1,0.4-4.2,0.6-6.5,0.6V79z M37.3,78.2c2.4-0.5,4.9-1.2,7.4-2L43,70.8c-2.3,0.8-4.6,1.4-6.8,1.8L37.3,78.2z M41,73.5v7.9h5.7
		v-7.9H41z M42.8,78.8c-2.1,0.8-4.3,1.4-6.5,1.8l1,5.6c2.6-0.4,5.1-1.2,7.6-2.1L42.8,78.8z M36.4,80.7c-2.2,0.4-4.7,0.6-7.7,0.6V87
		c3.2,0,6.1-0.2,8.7-0.7L36.4,80.7z M28.7,81.2c-5.4,0-9.7-1.1-13-3.2l-3,4.8c4.4,2.8,9.8,4.1,16,4.1V81.2z M15.7,78.1
		c-3.3-2.1-5.8-5-7.5-8.9L3,71.4c2.1,4.9,5.3,8.7,9.7,11.5L15.7,78.1z M8.3,69.2c-1.7-4-2.6-8.7-2.6-14.3H0c0,6.2,1,11.7,3,16.5
		L8.3,69.2z M5.7,54.9c0-4,0.6-7.7,1.6-10.9l-5.4-1.8C0.6,46,0,50.3,0,54.9H5.7z M7.3,43.9c1.1-3.3,2.6-6,4.6-8.3l-4.3-3.8
		C5,34.7,3.1,38.1,1.8,42L7.3,43.9z M12,35.7c2-2.3,4.4-4,7.4-5.3l-2.2-5.2c-3.7,1.6-6.9,3.8-9.5,6.8L12,35.7z M19.4,30.4
		c3-1.3,6.4-1.9,10.4-1.9v-5.7c-4.6,0-8.9,0.8-12.7,2.4L19.4,30.4z M29.8,28.5c2.6,0,5.2,0.3,7.8,0.9l1.3-5.5c-3-0.7-6-1-9.1-1
		C29.8,22.9,29.8,28.5,29.8,28.5z M37.6,29.4c2.6,0.6,4.9,1.4,7.1,2.5l2.5-5.1c-2.6-1.3-5.4-2.2-8.3-2.9L37.6,29.4z M43.3,28.2
		L40,35.9l5.2,2.2l3.3-7.7L43.3,28.2z M43.9,34.4c-2.1-1-4.3-1.8-6.6-2.6l-1.7,5.4c2,0.6,4,1.4,5.8,2.3L43.9,34.4z M37.4,31.8
		c-2.4-0.8-5-1.1-7.5-1.1v5.7c2,0,4,0.3,5.8,0.9L37.4,31.8z M91.3,52.4l-2.5,1.3l2.5,4.9l2.5-4.9L91.3,52.4z M104.8,26.4v-2.8h-1.7
		l-0.8,1.5L104.8,26.4z M114.9,26.4l2.5,1.4l2.3-4.2h-4.8V26.4z M96,61.2l-2.5-1.4l-0.3,0.6v0.7H96V61.2z M96,83.3v2.8h2.8v-2.8H96z
		 M86.7,83.3h-2.8v2.8h2.8V83.3z M86.7,61.6h2.8v-0.7l-0.3-0.6L86.7,61.6z M67.7,26.4v-2.8H63l2.3,4.2L67.7,26.4z M77.9,26.4
		l2.5-1.3l-0.8-1.5h-1.7V26.4z M93.8,53.7l13.5-26l-5-2.6l-13.5,26L93.8,53.7z M104.8,29.3h10.1v-5.7h-10.1V29.3z M112.4,25.1
		L93.5,59.9l5,2.7l18.9-34.8L112.4,25.1z M93.1,61.2v22.1h5.7V61.2H93.1z M96,80.5h-9.3v5.7H96V80.5z M89.5,83.3V61.6h-5.7v21.7
		H89.5z M89.2,60.2l-19-35.1l-5,2.7l18.9,35.1L89.2,60.2z M67.7,29.3h10.2v-5.7H67.7V29.3z M75.3,27.7l13.4,26l5.1-2.6l-13.4-26
		L75.3,27.7z M141.5,26.4v-2.8h-2.8v2.8H141.5z M179.4,46.5l-2.6-1.1l0,0l0,0L179.4,46.5z M176.1,50.9l1.7,2.3l0,0l0,0L176.1,50.9z
		 M170.8,53.1l-0.5-2.8l-2.3,0.4v2.4C168,53.1,170.8,53.1,170.8,53.1z M170.8,53.5H168v2.4l2.4,0.4L170.8,53.5z M176.6,55.6
		l-1.4,2.5l0,0l0,0L176.6,55.6z M180.7,59.8l-2.5,1.3l0,0l0,0L180.7,59.8z M179.8,75.8l-2.4-1.6l0,0l0,0L179.8,75.8z M172.7,81.4
		l-1.1-2.6l0,0L172.7,81.4z M141.5,83.3h-2.8v2.8h2.8V83.3z M150.8,49.9H148v2.8h2.8V49.9z M168.1,36l-1.5,2.4l0,0l0,0L168.1,36z
		 M150.8,34.2v-2.8H148v2.8H150.8z M150.8,57.4v-2.8H148v2.8H150.8z M150.8,75.5H148v2.8h2.8V75.5z M169.8,73l-2-2.1L169.8,73z
		 M171.3,61.5l-2.4,1.5l0,0l0,0L171.3,61.5z M167.4,58.5l-1.1,2.6l0,0l0,0L167.4,58.5z M141.5,29.3h16.9v-5.7h-16.9V29.3z
		 M158.4,29.3c7.2,0,12.1,1.1,15.2,2.8l2.8-4.9c-4.4-2.5-10.5-3.6-18-3.6V29.3z M173.6,32.1c2.6,1.5,4.2,4.1,4.2,8.5h5.7
		c0-6-2.2-10.7-7-13.5L173.6,32.1z M177.8,40.6c0,1.8-0.3,3.4-0.9,4.8l5.2,2.3c1-2.2,1.4-4.5,1.4-7.1H177.8z M176.8,45.4
		c-0.6,1.3-1.4,2.4-2.5,3.2l3.5,4.5c1.8-1.4,3.2-3.3,4.2-5.4L176.8,45.4z M174.4,48.6c-1,0.8-2.4,1.4-4.1,1.7l1,5.6
		c2.5-0.5,4.7-1.4,6.6-2.8L174.4,48.6z M167.9,53.1v0.4h5.7v-0.4H167.9z M170.3,56.3c1.9,0.3,3.6,0.9,4.9,1.7l2.8-4.9
		c-2-1.2-4.3-2-6.8-2.4L170.3,56.3z M175.2,58c1.2,0.7,2.2,1.7,3,3.1l5-2.7c-1.2-2.3-3-4.1-5.2-5.4L175.2,58z M178.2,61.2
		c0.7,1.3,1.2,3.2,1.2,5.8h5.7c0-3.2-0.6-6.1-1.9-8.5L178.2,61.2z M179.4,67c0,3-0.7,5.4-2,7.3l4.7,3.2c2-3,3-6.5,3-10.5H179.4z
		 M177.4,74.3c-1.3,1.9-3.2,3.4-5.8,4.5l2.2,5.3c3.5-1.5,6.3-3.6,8.3-6.6L177.4,74.3z M171.6,78.8c-2.6,1.1-5.8,1.7-9.7,1.7v5.7
		c4.5,0,8.5-0.7,11.9-2.1L171.6,78.8z M161.9,80.5h-20.4v5.7h20.4V80.5z M144.3,83.3V26.4h-5.7v56.9H144.3z M150.8,52.7h8.9V47h-8.9
		V52.7z M159.8,52.7c4.3,0,8.2-0.7,10.6-2.7l-3.7-4.4c-0.8,0.7-2.8,1.4-7,1.4L159.8,52.7L159.8,52.7z M170.4,50
		c2.4-2,3.5-4.9,3.5-8.2h-5.7c0,2-0.6,3.1-1.4,3.9L170.4,50z M173.8,41.8c0-3.5-1.3-6.4-4.3-8.3l-3,4.9c0.9,0.6,1.6,1.5,1.6,3.4
		C168.1,41.8,173.8,41.8,173.8,41.8z M169.6,33.5c-2.6-1.6-6.3-2.2-10.7-2.2V37c4.1,0,6.5,0.6,7.7,1.4L169.6,33.5z M158.9,31.3h-8.1
		V37h8.1V31.3z M148,34.2v15.7h5.7V34.2H148z M148,57.4v18.1h5.7V57.4H148z M150.8,78.3h9.8v-5.7h-9.8V78.3z M160.7,78.3
		c4.6,0,8.6-0.9,11.1-3.3l-3.9-4.1c-0.9,0.9-3.1,1.7-7.2,1.7L160.7,78.3L160.7,78.3z M171.8,75c2.4-2.3,3.5-5.4,3.5-8.9h-5.7
		c0,2.3-0.7,3.7-1.8,4.8L171.8,75z M175.3,66.1c0-2.2-0.5-4.3-1.6-6.1l-4.8,3c0.5,0.8,0.8,1.8,0.8,3.1H175.3z M173.7,60.1
		c-1.2-2-3-3.3-5.3-4.2l-2.1,5.3c1.4,0.5,2.1,1.2,2.4,1.8L173.7,60.1z M168.5,55.9c-2.3-0.9-5.1-1.3-8.3-1.3v5.7
		c2.9,0,4.9,0.3,6.2,0.9L168.5,55.9z M160.2,54.6h-9.4v5.7h9.4V54.6z M245.3,83.3v2.8h2.8v-2.8H245.3z M213.1,83.3h-2.8v2.8h2.8
		V83.3z M213.1,26.4v-2.8h-2.8v2.8H213.1z M245.3,26.4h2.8v-2.8h-2.8V26.4z M245.3,34.3v2.8h2.8v-2.8H245.3z M222.5,34.3v-2.8h-2.8
		v2.8H222.5z M222.5,49.7h-2.8v2.8h2.8V49.7z M243.9,49.7h2.8v-2.8h-2.8V49.7z M243.9,57.6v2.8h2.8v-2.8H243.9z M222.5,57.6v-2.8
		h-2.8v2.8H222.5z M222.5,75.4h-2.8v2.8h2.8V75.4z M245.3,75.4h2.8v-2.8h-2.8V75.4z M245.3,80.5h-32.2v5.7h32.2V80.5z M216,83.3
		V26.4h-5.7v56.9H216z M213.1,29.3h32.2v-5.7h-32.2V29.3z M242.5,26.4v7.9h5.7v-7.9H242.5z M245.3,31.4h-22.9v5.7h22.9V31.4z
		 M219.6,34.3v15.4h5.7V34.3H219.6z M222.5,52.6h21.4v-5.7h-21.4V52.6z M241,49.7v7.8h5.7v-7.8H241z M243.9,54.7h-21.4v5.7h21.4
		V54.7z M219.6,57.6v17.9h5.7V57.6H219.6z M222.5,78.3h22.9v-5.7h-22.9V78.3z M242.5,75.4v7.9h5.7v-7.9H242.5z M304.9,28.2l-1,2.7
		l0,0L304.9,28.2z M312,33.7l-2.4,1.5l0,0l0,0L312,33.7z M308.8,55l1.7,2.3L308.8,55z M303.4,58.1l-1.1-2.6l-3.2,1.3l1.9,2.9
		L303.4,58.1z M319.5,83.3v2.8h5.2l-2.8-4.4L319.5,83.3z M309,83.3l-2.4,1.5l0.8,1.4h1.6V83.3z M295.2,60.5l2.4-1.5l-0.8-1.4h-1.6
		V60.5z M286.1,60.5v-2.8h-2.8v2.8H286.1z M286.1,83.3v2.8h2.8v-2.8H286.1z M276.7,83.3h-2.8v2.8h2.8V83.3z M276.7,26.4v-2.8h-2.8
		v2.8H276.7z M286.1,34.2v-2.8h-2.8v2.8H286.1z M286.1,52.8h-2.8v2.8h2.8V52.8z M302,50.4l-1.8-2.2l0,0l0,0L302,50.4z M301.8,36.3
		l-1.6,2.4l0,0l0,0L301.8,36.3z M292.7,29.3c4.7,0,8.4,0.6,11.1,1.6l2-5.3c-3.6-1.4-8-2-13.1-2V29.3z M303.9,30.9
		c2.7,1,4.6,2.5,5.7,4.3l4.8-3.1c-1.9-3.1-4.9-5.2-8.6-6.6L303.9,30.9z M309.6,35.2c1.2,1.9,1.9,4.4,1.9,7.7h5.7
		c0-4.2-0.9-7.8-2.8-10.8L309.6,35.2z M311.6,43c0,2.5-0.5,4.4-1.2,5.8l5,2.7c1.3-2.5,1.9-5.3,1.9-8.5H311.6z M310.3,48.8
		c-0.9,1.6-2,2.9-3.3,4l3.5,4.5c2-1.6,3.6-3.5,4.9-5.8L310.3,48.8z M307,52.8c-1.5,1.1-3.1,2.1-4.7,2.7l2.1,5.3
		c2.2-0.9,4.2-2,6.1-3.5L307,52.8z M301,59.7l16.1,25.2l4.8-3.1l-16.1-25.2L301,59.7z M319.5,80.5H309v5.7h10.5V80.5z M311.4,81.8
		L297.7,59l-4.9,2.9l13.7,22.8L311.4,81.8z M295.2,57.7h-9.1v5.7h9.1V57.7z M283.2,60.5v22.8h5.7V60.5H283.2z M286.1,80.5h-9.3v5.7
		h9.3V80.5z M279.6,83.3V26.4h-5.7v56.9H279.6z M276.7,29.3h16v-5.7h-16V29.3z M292.1,31.4h-6v5.7h6V31.4z M283.2,34.2v18.6h5.7
		V34.2H283.2z M286.1,55.7h6.5V50h-6.5V55.7z M292.5,55.7c4.6,0,8.5-0.8,11.2-3.1l-3.6-4.4c-1.2,1-3.5,1.8-7.6,1.8V55.7z
		 M303.8,52.6c2.8-2.3,4-5.6,4-9.3h-5.7c0,2.5-0.8,4-1.9,4.9L303.8,52.6z M307.8,43.3c0-3.9-1.3-7.3-4.4-9.4l-3.1,4.8
		c1.1,0.7,1.9,2,1.9,4.6H307.8z M303.3,33.9c-2.8-1.8-6.7-2.5-11.2-2.5v5.7c4.2,0,6.7,0.7,8.1,1.6L303.3,33.9z"/>
</g>
</svg>
