<svg width="386" height="82" viewBox="0 0 386 82" fill="none" xmlns="http://www.w3.org/2000/svg">
<g opacity="0.2">
<mask id="path-1-outside-1_270_3269" maskUnits="userSpaceOnUse" x="54.8831" y="27.9575" width="290" height="51" fill="black">
<rect fill="white" x="54.8831" y="27.9575" width="290" height="51"/>
<path d="M63.6155 74.9575L79.6995 39.8012H58.5764V32.184H89.3088V37.8676L73.1077 74.9575H63.6155ZM129.352 53.5414C129.352 61.0219 128.121 66.559 125.66 70.1528C123.219 73.7465 119.449 75.5434 114.352 75.5434C109.41 75.5434 105.68 73.6879 103.16 69.977C100.66 66.2661 99.4104 60.7875 99.4104 53.5414C99.4104 45.9828 100.631 40.4164 103.073 36.8422C105.514 33.2485 109.274 31.4516 114.352 31.4516C119.293 31.4516 123.024 33.3266 125.543 37.0766C128.082 40.8266 129.352 46.3149 129.352 53.5414ZM108.405 53.5414C108.405 58.7953 108.854 62.5649 109.752 64.85C110.67 67.1157 112.203 68.2485 114.352 68.2485C116.461 68.2485 117.985 67.0961 118.922 64.7914C119.86 62.4868 120.328 58.7368 120.328 53.5414C120.328 48.2875 119.85 44.518 118.893 42.2328C117.955 39.9282 116.442 38.7758 114.352 38.7758C112.223 38.7758 110.699 39.9282 109.781 42.2328C108.864 44.518 108.405 48.2875 108.405 53.5414ZM146.748 44.9575C146.748 47.4379 146.963 49.2934 147.393 50.5239C147.842 51.7348 148.555 52.3403 149.531 52.3403C151.406 52.3403 152.344 49.8793 152.344 44.9575C152.344 40.0746 151.406 37.6332 149.531 37.6332C148.555 37.6332 147.842 38.2387 147.393 39.4496C146.963 40.6411 146.748 42.477 146.748 44.9575ZM159.727 44.8989C159.727 49.3911 158.858 52.77 157.119 55.0356C155.381 57.2817 152.832 58.4047 149.473 58.4047C146.25 58.4047 143.76 57.2524 142.002 54.9477C140.244 52.6235 139.365 49.2739 139.365 44.8989C139.365 35.9731 142.735 31.5102 149.473 31.5102C152.774 31.5102 155.303 32.6723 157.061 34.9965C158.838 37.3012 159.727 40.602 159.727 44.8989ZM179.883 32.1254L156.123 74.9575H149.092L172.852 32.1254H179.883ZM176.748 62.0668C176.748 64.5473 176.963 66.4028 177.393 67.6332C177.842 68.8442 178.555 69.4496 179.531 69.4496C181.406 69.4496 182.344 66.9887 182.344 62.0668C182.344 57.184 181.406 54.7426 179.531 54.7426C178.555 54.7426 177.842 55.3481 177.393 56.559C176.963 57.7504 176.748 59.5864 176.748 62.0668ZM189.727 62.0082C189.727 66.4809 188.858 69.85 187.119 72.1157C185.381 74.3618 182.832 75.4848 179.473 75.4848C176.25 75.4848 173.76 74.3325 172.002 72.0278C170.244 69.7036 169.365 66.3637 169.365 62.0082C169.365 53.0825 172.735 48.6196 179.473 48.6196C182.774 48.6196 185.303 49.7817 187.061 52.1059C188.838 54.4106 189.727 57.7114 189.727 62.0082ZM263.455 53.4828C263.455 60.5727 261.698 66.0219 258.182 69.8305C254.666 73.6391 249.627 75.5434 243.065 75.5434C236.502 75.5434 231.463 73.6391 227.948 69.8305C224.432 66.0219 222.674 60.5532 222.674 53.4243C222.674 46.2953 224.432 40.8559 227.948 37.1059C231.483 33.3364 236.541 31.4516 243.123 31.4516C249.705 31.4516 254.735 33.3461 258.211 37.1352C261.707 40.9243 263.455 46.3735 263.455 53.4828ZM232.196 53.4828C232.196 58.268 233.104 61.8715 234.92 64.2934C236.737 66.7153 239.451 67.9262 243.065 67.9262C250.311 67.9262 253.934 63.1118 253.934 53.4828C253.934 43.8344 250.33 39.0102 243.123 39.0102C239.51 39.0102 236.785 40.2309 234.949 42.6723C233.114 45.0942 232.196 48.6977 232.196 53.4828ZM287.268 74.9575H278.332V32.1254H302.883V39.5668H287.268V50.6118H301.799V58.0239H287.268V74.9575ZM326.198 74.9575H317.262V32.1254H341.813V39.5668H326.198V50.6118H340.729V58.0239H326.198V74.9575Z"/>
</mask>
<path d="M63.6155 74.9575L60.8874 73.7094L58.9439 77.9575H63.6155V74.9575ZM79.6995 39.8012L82.4275 41.0493L84.371 36.8012H79.6995V39.8012ZM58.5764 39.8012H55.5764V42.8012H58.5764V39.8012ZM58.5764 32.184V29.184H55.5764V32.184H58.5764ZM89.3088 32.184H92.3088V29.184H89.3088V32.184ZM89.3088 37.8676L92.058 39.0685L92.3088 38.4942V37.8676H89.3088ZM73.1077 74.9575V77.9575H75.071L75.8568 76.1583L73.1077 74.9575ZM66.3435 76.2055L82.4275 41.0493L76.9714 38.5531L60.8874 73.7094L66.3435 76.2055ZM79.6995 36.8012H58.5764V42.8012H79.6995V36.8012ZM61.5764 39.8012V32.184H55.5764V39.8012H61.5764ZM58.5764 35.184H89.3088V29.184H58.5764V35.184ZM86.3088 32.184V37.8676H92.3088V32.184H86.3088ZM86.5597 36.6668L70.3585 73.7566L75.8568 76.1583L92.058 39.0685L86.5597 36.6668ZM73.1077 71.9575H63.6155V77.9575H73.1077V71.9575ZM125.66 70.1528L123.185 68.4577L123.179 68.4669L125.66 70.1528ZM103.16 69.977L100.672 71.6532L100.678 71.6621L103.16 69.977ZM103.073 36.8422L105.55 38.5343L105.554 38.528L103.073 36.8422ZM125.543 37.0766L123.053 38.7497L123.059 38.7586L125.543 37.0766ZM109.752 64.85L106.96 65.9477L106.966 65.9622L106.972 65.9766L109.752 64.85ZM118.893 42.2328L116.114 43.3632L116.12 43.3775L116.126 43.3917L118.893 42.2328ZM109.781 42.2328L112.565 43.3511L112.569 43.3429L109.781 42.2328ZM126.352 53.5414C126.352 60.803 125.137 65.6075 123.185 68.4578L128.136 71.8478C131.106 67.5105 132.352 61.2409 132.352 53.5414H126.352ZM123.179 68.4669C121.399 71.087 118.654 72.5434 114.352 72.5434V78.5434C120.245 78.5434 125.039 76.4061 128.142 71.8386L123.179 68.4669ZM114.352 72.5434C110.286 72.5434 107.54 71.0867 105.642 68.2918L100.678 71.6621C103.82 76.2891 108.535 78.5434 114.352 78.5434V72.5434ZM105.648 68.3008C103.631 65.3056 102.41 60.5272 102.41 53.5414H96.4104C96.4104 61.0479 97.6902 67.2265 100.672 71.6532L105.648 68.3008ZM102.41 53.5414C102.41 46.1889 103.62 41.36 105.55 38.5343L100.595 35.1501C97.6425 39.4729 96.4104 45.7768 96.4104 53.5414H102.41ZM105.554 38.528C107.336 35.9046 110.074 34.4516 114.352 34.4516V28.4516C108.474 28.4516 103.692 30.5924 100.591 35.1564L105.554 38.528ZM114.352 34.4516C118.405 34.4516 121.15 35.9168 123.053 38.7497L128.033 35.4035C124.898 30.7364 120.182 28.4516 114.352 28.4516V34.4516ZM123.059 38.7586C125.116 41.7967 126.352 46.5871 126.352 53.5414H132.352C132.352 46.0427 131.048 39.8565 128.027 35.3946L123.059 38.7586ZM105.405 53.5414C105.405 58.841 105.841 63.1 106.96 65.9477L112.544 63.7523C111.867 62.0297 111.405 58.7497 111.405 53.5414H105.405ZM106.972 65.9766C107.581 67.4794 108.487 68.8359 109.808 69.8117C111.155 70.8072 112.721 71.2485 114.352 71.2485V65.2485C113.834 65.2485 113.559 65.1233 113.373 64.986C113.161 64.829 112.842 64.4863 112.533 63.7235L106.972 65.9766ZM114.352 71.2485C115.988 71.2485 117.549 70.7884 118.886 69.7768C120.19 68.7904 121.089 67.4266 121.701 65.9218L116.143 63.661C115.818 64.461 115.486 64.8257 115.267 64.9916C115.081 65.1324 114.825 65.2485 114.352 65.2485V71.2485ZM121.701 65.9218C122.872 63.0443 123.328 58.7947 123.328 53.5414H117.328C117.328 58.6788 116.848 61.9293 116.143 63.661L121.701 65.9218ZM123.328 53.5414C123.328 48.2359 122.864 43.9484 121.66 41.074L116.126 43.3917C116.836 45.0876 117.328 48.3391 117.328 53.5414H123.328ZM121.672 41.1025C121.061 39.6021 120.168 38.2399 118.872 37.2531C117.541 36.2397 115.985 35.7758 114.352 35.7758V41.7758C114.809 41.7758 115.055 41.8881 115.237 42.0271C115.455 42.1925 115.787 42.5589 116.114 43.3632L121.672 41.1025ZM114.352 35.7758C112.713 35.7758 111.145 36.2322 109.803 37.2475C108.492 38.2388 107.597 39.6106 106.994 41.1228L112.569 43.3429C112.884 42.5504 113.21 42.1937 113.422 42.0327C113.604 41.8956 113.862 41.7758 114.352 41.7758V35.7758ZM106.998 41.1146C105.85 43.9714 105.405 48.24 105.405 53.5414H111.405C111.405 48.3351 111.877 45.0646 112.565 43.3511L106.998 41.1146ZM147.393 50.5239L144.561 51.5129L144.57 51.5402L144.58 51.5673L147.393 50.5239ZM147.393 39.4496L144.58 38.4062L144.575 38.419L144.571 38.4318L147.393 39.4496ZM157.119 55.0356L159.492 56.8717L159.5 56.8617L157.119 55.0356ZM142.002 54.9477L139.609 56.7573L139.617 56.767L142.002 54.9477ZM157.061 34.9965L154.668 36.8062L154.677 36.8174L154.685 36.8286L157.061 34.9965ZM179.883 32.1254L182.506 33.5807L184.978 29.1254H179.883V32.1254ZM156.123 74.9575V77.9575H157.89L158.747 76.4127L156.123 74.9575ZM149.092 74.9575L146.469 73.5022L143.997 77.9575H149.092V74.9575ZM172.852 32.1254V29.1254H171.085L170.228 30.6702L172.852 32.1254ZM177.393 67.6332L174.561 68.6223L174.57 68.6496L174.58 68.6767L177.393 67.6332ZM177.393 56.559L174.58 55.5156L174.575 55.5284L174.571 55.5412L177.393 56.559ZM187.119 72.1157L189.492 73.9518L189.5 73.9418L187.119 72.1157ZM172.002 72.0278L169.609 73.8374L169.617 73.8471L172.002 72.0278ZM187.061 52.1059L184.668 53.9155L184.677 53.9268L184.685 53.9379L187.061 52.1059ZM143.748 44.9575C143.748 47.5277 143.96 49.7941 144.561 51.5129L150.225 49.5348C149.966 48.7927 149.748 47.3481 149.748 44.9575H143.748ZM144.58 51.5673C144.919 52.48 145.453 53.4342 146.322 54.1728C147.247 54.9577 148.366 55.3403 149.531 55.3403V49.3403C149.602 49.3403 149.72 49.3521 149.861 49.4026C150.004 49.4538 150.121 49.5273 150.206 49.5996C150.363 49.7327 150.316 49.7787 150.206 49.4804L144.58 51.5673ZM149.531 55.3403C150.724 55.3403 151.837 54.9245 152.737 54.1366C153.578 53.401 154.103 52.4595 154.444 51.5626C155.111 49.8115 155.344 47.5228 155.344 44.9575H149.344C149.344 47.314 149.108 48.7167 148.837 49.4266C148.71 49.7601 148.649 49.7414 148.786 49.6211C148.984 49.4484 149.276 49.3403 149.531 49.3403V55.3403ZM155.344 44.9575C155.344 42.4105 155.111 40.1333 154.441 38.3889C154.098 37.4945 153.571 36.5569 152.729 35.8255C151.827 35.0431 150.717 34.6332 149.531 34.6332V40.6332C149.283 40.6332 148.994 40.5286 148.795 40.3565C148.656 40.2355 148.715 40.2134 148.84 40.5397C149.108 41.2367 149.344 42.6216 149.344 44.9575H155.344ZM149.531 34.6332C148.366 34.6332 147.247 35.0158 146.322 35.8008C145.453 36.5393 144.919 37.4935 144.58 38.4062L150.206 40.4931C150.316 40.1948 150.363 40.2408 150.206 40.3739C150.121 40.4462 150.004 40.5197 149.861 40.5709C149.72 40.6214 149.602 40.6332 149.531 40.6332V34.6332ZM144.571 38.4318C143.958 40.1307 143.748 42.3968 143.748 44.9575H149.748C149.748 42.5572 149.968 41.1514 150.215 40.4674L144.571 38.4318ZM156.727 44.8989C156.727 49.0845 155.903 51.6923 154.739 53.2094L159.5 56.8617C161.812 53.8477 162.727 49.6976 162.727 44.8989H156.727ZM154.747 53.1995C153.684 54.5728 152.095 55.4047 149.473 55.4047V61.4047C153.57 61.4047 157.078 59.9905 159.492 56.8717L154.747 53.1995ZM149.473 55.4047C147.066 55.4047 145.509 54.5985 144.388 53.1283L139.617 56.767C142.011 59.9063 145.435 61.4047 149.473 61.4047V55.4047ZM144.395 53.1381C143.185 51.5381 142.365 48.9321 142.365 44.8989H136.365C136.365 49.6156 137.304 53.7089 139.609 56.7573L144.395 53.1381ZM142.365 44.8989C142.365 40.7275 143.168 38.147 144.287 36.6649C145.286 35.3417 146.828 34.5102 149.473 34.5102V28.5102C145.379 28.5102 141.868 29.9101 139.498 33.0498C137.248 36.0306 136.365 40.1444 136.365 44.8989H142.365ZM149.473 34.5102C151.976 34.5102 153.558 35.3385 154.668 36.8062L159.454 33.1869C157.048 30.0061 153.571 28.5102 149.473 28.5102V34.5102ZM154.685 36.8286C155.905 38.4104 156.727 40.9619 156.727 44.8989H162.727C162.727 40.2421 161.771 36.192 159.436 33.1645L154.685 36.8286ZM177.26 30.6702L153.5 73.5022L158.747 76.4127L182.506 33.5807L177.26 30.6702ZM156.123 71.9575H149.092V77.9575H156.123V71.9575ZM151.715 76.4127L175.475 33.5807L170.228 30.6702L146.469 73.5022L151.715 76.4127ZM172.852 35.1254H179.883V29.1254H172.852V35.1254ZM173.748 62.0668C173.748 64.6371 173.96 66.9035 174.561 68.6223L180.225 66.6442C179.966 65.9021 179.748 64.4575 179.748 62.0668H173.748ZM174.58 68.6767C174.919 69.5893 175.453 70.5436 176.322 71.2821C177.247 72.0671 178.366 72.4496 179.531 72.4496V66.4496C179.602 66.4496 179.72 66.4615 179.861 66.512C180.004 66.5632 180.121 66.6367 180.206 66.709C180.363 66.842 180.316 66.8881 180.206 66.5898L174.58 68.6767ZM179.531 72.4496C180.724 72.4496 181.837 72.0339 182.737 71.246C183.578 70.5104 184.103 69.5689 184.444 68.6719C185.111 66.9209 185.344 64.6322 185.344 62.0668H179.344C179.344 64.4234 179.108 65.8261 178.837 66.536C178.71 66.8695 178.649 66.8508 178.786 66.7305C178.984 66.5578 179.276 66.4496 179.531 66.4496V72.4496ZM185.344 62.0668C185.344 59.5199 185.111 57.2427 184.441 55.4982C184.098 54.6039 183.571 53.6662 182.729 52.9349C181.827 52.1524 180.717 51.7426 179.531 51.7426V57.7426C179.283 57.7426 178.994 57.638 178.795 57.4659C178.656 57.3449 178.715 57.3228 178.84 57.6491C179.108 58.3461 179.344 59.7309 179.344 62.0668H185.344ZM179.531 51.7426C178.366 51.7426 177.247 52.1252 176.322 52.9101C175.453 53.6487 174.919 54.6029 174.58 55.5156L180.206 57.6024C180.316 57.3042 180.363 57.3502 180.206 57.4833C180.121 57.5556 180.004 57.629 179.861 57.6803C179.72 57.7308 179.602 57.7426 179.531 57.7426V51.7426ZM174.571 55.5412C173.958 57.2401 173.748 59.5061 173.748 62.0668H179.748C179.748 59.6666 179.968 58.2608 180.215 57.5768L174.571 55.5412ZM186.727 62.0082C186.727 66.1708 185.905 68.7705 184.739 70.2895L189.5 73.9418C191.811 70.9296 192.727 66.791 192.727 62.0082H186.727ZM184.747 70.2796C183.684 71.6529 182.095 72.4848 179.473 72.4848V78.4848C183.57 78.4848 187.078 77.0706 189.492 73.9518L184.747 70.2796ZM179.473 72.4848C177.066 72.4848 175.509 71.6786 174.388 70.2084L169.617 73.8471C172.011 76.9863 175.435 78.4848 179.473 78.4848V72.4848ZM174.395 70.2181C173.183 68.6162 172.365 66.0183 172.365 62.0082H166.365C166.365 66.7091 167.305 70.7909 169.609 73.8374L174.395 70.2181ZM172.365 62.0082C172.365 57.8369 173.168 55.2564 174.287 53.7743C175.286 52.4511 176.828 51.6196 179.473 51.6196V45.6196C175.379 45.6196 171.868 47.0195 169.498 50.1592C167.248 53.14 166.365 57.2538 166.365 62.0082H172.365ZM179.473 51.6196C181.976 51.6196 183.558 52.4479 184.668 53.9155L189.454 50.2963C187.048 47.1155 183.571 45.6196 179.473 45.6196V51.6196ZM184.685 53.9379C185.905 55.5198 186.727 58.0712 186.727 62.0082H192.727C192.727 57.3515 191.771 53.3014 189.436 50.2738L184.685 53.9379ZM227.948 37.1059L225.759 35.0537L225.759 35.0541L227.948 37.1059ZM258.211 37.1352L256.001 39.1634L256.006 39.1696L258.211 37.1352ZM234.949 42.6723L237.34 44.4846L237.347 44.4754L234.949 42.6723ZM260.455 53.4828C260.455 60.0991 258.819 64.7177 255.977 67.7957L260.386 71.8653C264.576 67.3261 266.455 61.0463 266.455 53.4828H260.455ZM255.977 67.7957C253.173 70.8339 249.027 72.5434 243.065 72.5434V78.5434C250.227 78.5434 256.16 76.4443 260.386 71.8653L255.977 67.7957ZM243.065 72.5434C237.102 72.5434 232.956 70.8339 230.152 67.7957L225.743 71.8653C229.97 76.4443 235.902 78.5434 243.065 78.5434V72.5434ZM230.152 67.7957C227.313 64.7205 225.674 60.0848 225.674 53.4243H219.674C219.674 61.0215 221.55 67.3233 225.743 71.8653L230.152 67.7957ZM225.674 53.4243C225.674 46.7601 227.315 42.1672 230.136 39.1577L225.759 35.0541C221.549 39.5446 219.674 45.8306 219.674 53.4243H225.674ZM230.136 39.1581C232.958 36.1489 237.13 34.4516 243.123 34.4516V28.4516C235.953 28.4516 230.007 30.5239 225.759 35.0537L230.136 39.1581ZM243.123 34.4516C249.115 34.4516 253.242 36.1565 256.001 39.1634L260.422 35.107C256.227 30.5358 250.296 28.4516 243.123 28.4516V34.4516ZM256.006 39.1696C258.825 42.224 260.455 46.8393 260.455 53.4828H266.455C266.455 45.9077 264.59 39.6245 260.416 35.1008L256.006 39.1696ZM229.196 53.4828C229.196 58.5663 230.146 62.9283 232.52 66.0934L237.32 62.4934C236.061 60.8147 235.196 57.9697 235.196 53.4828H229.196ZM232.52 66.0934C235.016 69.4214 238.713 70.9262 243.065 70.9262V64.9262C240.19 64.9262 238.457 64.0091 237.32 62.4934L232.52 66.0934ZM243.065 70.9262C247.416 70.9262 251.118 69.4359 253.614 66.1193C255.989 62.9632 256.934 58.5874 256.934 53.4828H250.934C250.934 58.0072 250.068 60.853 248.819 62.5115C247.692 64.0093 245.96 64.9262 243.065 64.9262V70.9262ZM256.934 53.4828C256.934 48.3721 255.995 43.9926 253.635 40.833C251.152 37.5091 247.463 36.0102 243.123 36.0102V42.0102C245.99 42.0102 247.707 42.9234 248.828 44.4237C250.071 46.0883 250.934 48.9452 250.934 53.4828H256.934ZM243.123 36.0102C238.762 36.0102 235.062 37.5312 232.552 40.8692L237.347 44.4754C238.509 42.9306 240.258 42.0102 243.123 42.0102V36.0102ZM232.559 40.86C230.158 44.0269 229.196 48.3942 229.196 53.4828H235.196C235.196 49.0012 236.069 46.1614 237.34 44.4846L232.559 40.86ZM287.268 74.9575V77.9575H290.268V74.9575H287.268ZM278.332 74.9575H275.332V77.9575H278.332V74.9575ZM278.332 32.1254V29.1254H275.332V32.1254H278.332ZM302.883 32.1254H305.883V29.1254H302.883V32.1254ZM302.883 39.5668V42.5668H305.883V39.5668H302.883ZM287.268 39.5668V36.5668H284.268V39.5668H287.268ZM287.268 50.6118H284.268V53.6118H287.268V50.6118ZM301.799 50.6118H304.799V47.6118H301.799V50.6118ZM301.799 58.0239V61.0239H304.799V58.0239H301.799ZM287.268 58.0239V55.0239H284.268V58.0239H287.268ZM287.268 71.9575H278.332V77.9575H287.268V71.9575ZM281.332 74.9575V32.1254H275.332V74.9575H281.332ZM278.332 35.1254H302.883V29.1254H278.332V35.1254ZM299.883 32.1254V39.5668H305.883V32.1254H299.883ZM302.883 36.5668H287.268V42.5668H302.883V36.5668ZM284.268 39.5668V50.6118H290.268V39.5668H284.268ZM287.268 53.6118H301.799V47.6118H287.268V53.6118ZM298.799 50.6118V58.0239H304.799V50.6118H298.799ZM301.799 55.0239H287.268V61.0239H301.799V55.0239ZM284.268 58.0239V74.9575H290.268V58.0239H284.268ZM326.198 74.9575V77.9575H329.198V74.9575H326.198ZM317.262 74.9575H314.262V77.9575H317.262V74.9575ZM317.262 32.1254V29.1254H314.262V32.1254H317.262ZM341.813 32.1254H344.813V29.1254H341.813V32.1254ZM341.813 39.5668V42.5668H344.813V39.5668H341.813ZM326.198 39.5668V36.5668H323.198V39.5668H326.198ZM326.198 50.6118H323.198V53.6118H326.198V50.6118ZM340.729 50.6118H343.729V47.6118H340.729V50.6118ZM340.729 58.0239V61.0239H343.729V58.0239H340.729ZM326.198 58.0239V55.0239H323.198V58.0239H326.198ZM326.198 71.9575H317.262V77.9575H326.198V71.9575ZM320.262 74.9575V32.1254H314.262V74.9575H320.262ZM317.262 35.1254H341.813V29.1254H317.262V35.1254ZM338.813 32.1254V39.5668H344.813V32.1254H338.813ZM341.813 36.5668H326.198V42.5668H341.813V36.5668ZM323.198 39.5668V50.6118H329.198V39.5668H323.198ZM326.198 53.6118H340.729V47.6118H326.198V53.6118ZM337.729 50.6118V58.0239H343.729V50.6118H337.729ZM340.729 55.0239H326.198V61.0239H340.729V55.0239ZM323.198 58.0239V74.9575H329.198V58.0239H323.198Z" fill="#FCD34D" mask="url(#path-1-outside-1_270_3269)"/>
</g>
<g opacity="0.2">
<mask id="path-3-outside-2_270_3269" maskUnits="userSpaceOnUse" x="45.6914" y="19.922" width="290" height="51" fill="black">
<rect fill="white" x="45.6914" y="19.922" width="290" height="51"/>
<path d="M54.4238 66.922L70.5078 31.7657H49.3848V24.1486H80.1172V29.8322L63.916 66.922H54.4238ZM120.16 45.506C120.16 52.9865 118.93 58.5236 116.469 62.1173C114.027 65.7111 110.258 67.5079 105.16 67.5079C100.219 67.5079 96.4883 65.6525 93.9688 61.9415C91.4688 58.2306 90.2188 52.7521 90.2188 45.506C90.2188 37.9474 91.4395 32.381 93.8809 28.8068C96.3223 25.213 100.082 23.4161 105.16 23.4161C110.102 23.4161 113.832 25.2911 116.352 29.0411C118.891 32.7911 120.16 38.2794 120.16 45.506ZM99.2129 45.506C99.2129 50.7599 99.6621 54.5294 100.561 56.8146C101.479 59.0802 103.012 60.213 105.16 60.213C107.27 60.213 108.793 59.0607 109.73 56.756C110.668 54.4513 111.137 50.7013 111.137 45.506C111.137 40.2521 110.658 36.4825 109.701 34.1974C108.764 31.8927 107.25 30.7404 105.16 30.7404C103.031 30.7404 101.508 31.8927 100.59 34.1974C99.6719 36.4825 99.2129 40.2521 99.2129 45.506ZM137.557 36.922C137.557 39.4025 137.771 41.2579 138.201 42.4884C138.65 43.6993 139.363 44.3048 140.34 44.3048C142.215 44.3048 143.152 41.8439 143.152 36.922C143.152 32.0392 142.215 29.5978 140.34 29.5978C139.363 29.5978 138.65 30.2032 138.201 31.4142C137.771 32.6056 137.557 34.4415 137.557 36.922ZM150.535 36.8634C150.535 41.3556 149.666 44.7345 147.928 47.0001C146.189 49.2462 143.641 50.3693 140.281 50.3693C137.059 50.3693 134.568 49.2169 132.811 46.9122C131.053 44.588 130.174 41.2384 130.174 36.8634C130.174 27.9376 133.543 23.4747 140.281 23.4747C143.582 23.4747 146.111 24.6368 147.869 26.9611C149.646 29.2657 150.535 32.5665 150.535 36.8634ZM170.691 24.09L146.932 66.922H139.9L163.66 24.09H170.691ZM167.557 54.0314C167.557 56.5118 167.771 58.3673 168.201 59.5978C168.65 60.8087 169.363 61.4142 170.34 61.4142C172.215 61.4142 173.152 58.9532 173.152 54.0314C173.152 49.1486 172.215 46.7072 170.34 46.7072C169.363 46.7072 168.65 47.3126 168.201 48.5236C167.771 49.715 167.557 51.5509 167.557 54.0314ZM180.535 53.9728C180.535 58.4454 179.666 61.8146 177.928 64.0802C176.189 66.3263 173.641 67.4493 170.281 67.4493C167.059 67.4493 164.568 66.297 162.811 63.9923C161.053 61.6681 160.174 58.3282 160.174 53.9728C160.174 45.047 163.543 40.5841 170.281 40.5841C173.582 40.5841 176.111 41.7462 177.869 44.0704C179.646 46.3751 180.535 49.6759 180.535 53.9728ZM254.264 45.4474C254.264 52.5372 252.506 57.9865 248.99 61.795C245.475 65.6036 240.436 67.5079 233.873 67.5079C227.311 67.5079 222.271 65.6036 218.756 61.795C215.24 57.9865 213.482 52.5177 213.482 45.3888C213.482 38.2599 215.24 32.8204 218.756 29.0704C222.291 25.3009 227.35 23.4161 233.932 23.4161C240.514 23.4161 245.543 25.3107 249.02 29.0997C252.516 32.8888 254.264 38.338 254.264 45.4474ZM223.004 45.4474C223.004 50.2325 223.912 53.8361 225.729 56.2579C227.545 58.6798 230.26 59.8907 233.873 59.8907C241.119 59.8907 244.742 55.0763 244.742 45.4474C244.742 35.799 241.139 30.9747 233.932 30.9747C230.318 30.9747 227.594 32.1954 225.758 34.6368C223.922 37.0587 223.004 40.6622 223.004 45.4474ZM278.076 66.922H269.141V24.09H293.691V31.5314H278.076V42.5763H292.607V49.9884H278.076V66.922ZM317.006 66.922H308.07V24.09H332.621V31.5314H317.006V42.5763H331.537V49.9884H317.006V66.922Z"/>
</mask>
<path d="M54.4238 66.922L51.6958 65.6739L49.7523 69.922H54.4238V66.922ZM70.5078 31.7657L73.2359 33.0138L75.1794 28.7657H70.5078V31.7657ZM49.3848 31.7657H46.3848V34.7657H49.3848V31.7657ZM49.3848 24.1486V21.1486H46.3848V24.1486H49.3848ZM80.1172 24.1486H83.1172V21.1486H80.1172V24.1486ZM80.1172 29.8322L82.8664 31.033L83.1172 30.4588V29.8322H80.1172ZM63.916 66.922V69.922H65.8793L66.6652 68.1229L63.916 66.922ZM57.1519 68.1701L73.2359 33.0138L67.7798 30.5177L51.6958 65.6739L57.1519 68.1701ZM70.5078 28.7657H49.3848V34.7657H70.5078V28.7657ZM52.3848 31.7657V24.1486H46.3848V31.7657H52.3848ZM49.3848 27.1486H80.1172V21.1486H49.3848V27.1486ZM77.1172 24.1486V29.8322H83.1172V24.1486H77.1172ZM77.368 28.6313L61.1668 65.7211L66.6652 68.1229L82.8664 31.033L77.368 28.6313ZM63.916 63.922H54.4238V69.922H63.916V63.922ZM116.469 62.1173L113.993 60.4223L113.987 60.4315L116.469 62.1173ZM93.9688 61.9415L91.4807 63.6177L91.4868 63.6267L93.9688 61.9415ZM93.8809 28.8068L96.3581 30.4989L96.3624 30.4926L93.8809 28.8068ZM116.352 29.0411L113.861 30.7142L113.867 30.7231L116.352 29.0411ZM100.561 56.8146L97.7686 57.9123L97.7743 57.9267L97.7801 57.9411L100.561 56.8146ZM109.701 34.1974L106.922 35.3278L106.928 35.3421L106.934 35.3563L109.701 34.1974ZM100.59 34.1974L103.374 35.3157L103.377 35.3075L100.59 34.1974ZM117.16 45.506C117.16 52.7675 115.945 57.5721 113.993 60.4223L118.944 63.8123C121.914 59.4751 123.16 53.2054 123.16 45.506H117.16ZM113.987 60.4315C112.207 63.0515 109.463 64.5079 105.16 64.5079V70.5079C111.053 70.5079 115.847 68.3706 118.95 63.8031L113.987 60.4315ZM105.16 64.5079C101.094 64.5079 98.3483 63.0513 96.4507 60.2564L91.4868 63.6267C94.6282 68.2537 99.3434 70.5079 105.16 70.5079V64.5079ZM96.4568 60.2654C94.439 57.2701 93.2188 52.4917 93.2188 45.506H87.2188C87.2188 53.0124 88.4985 59.1911 91.4807 63.6177L96.4568 60.2654ZM93.2188 45.506C93.2188 38.1535 94.428 33.3245 96.3581 30.4989L91.4036 27.1147C88.4509 31.4374 87.2188 37.7413 87.2188 45.506H93.2188ZM96.3624 30.4926C98.1447 27.8691 100.882 26.4161 105.16 26.4161V20.4161C99.2819 20.4161 94.4999 22.5569 91.3993 27.1209L96.3624 30.4926ZM105.16 26.4161C109.213 26.4161 111.958 27.8814 113.861 30.7142L118.842 27.3681C115.706 22.7009 110.99 20.4161 105.16 20.4161V26.4161ZM113.867 30.7231C115.924 33.7612 117.16 38.5516 117.16 45.506H123.16C123.16 38.0072 121.857 31.821 118.836 27.3592L113.867 30.7231ZM96.2129 45.506C96.2129 50.8055 96.649 55.0646 97.7686 57.9123L103.353 55.7169C102.675 53.9943 102.213 50.7143 102.213 45.506H96.2129ZM97.7801 57.9411C98.389 59.4439 99.2955 60.8005 100.616 61.7763C101.964 62.7718 103.529 63.213 105.16 63.213V57.213C104.642 57.213 104.368 57.0879 104.182 56.9506C103.969 56.7935 103.65 56.4508 103.341 55.688L97.7801 57.9411ZM105.16 63.213C106.796 63.213 108.357 62.7529 109.695 61.7414C110.999 60.7549 111.897 59.3911 112.509 57.8864L106.952 55.6256C106.626 56.4255 106.294 56.7903 106.075 56.9561C105.889 57.0969 105.633 57.213 105.16 57.213V63.213ZM112.509 57.8864C113.68 55.0088 114.137 50.7593 114.137 45.506H108.137C108.137 50.6433 107.656 53.8938 106.952 55.6256L112.509 57.8864ZM114.137 45.506C114.137 40.2005 113.672 35.913 112.468 33.0385L106.934 35.3563C107.644 37.0521 108.137 40.3037 108.137 45.506H114.137ZM112.48 33.067C111.87 31.5666 110.976 30.2045 109.68 29.2176C108.349 28.2042 106.793 27.7404 105.16 27.7404V33.7404C105.617 33.7404 105.863 33.8526 106.046 33.9916C106.263 34.1571 106.595 34.5235 106.922 35.3278L112.48 33.067ZM105.16 27.7404C103.521 27.7404 101.953 28.1967 100.611 29.212C99.3005 30.2034 98.4051 31.5751 97.8028 33.0873L103.377 35.3075C103.693 34.515 104.018 34.1582 104.231 33.9972C104.412 33.8602 104.67 33.7404 105.16 33.7404V27.7404ZM97.8061 33.0791C96.6585 35.9359 96.2129 40.2045 96.2129 45.506H102.213C102.213 40.2996 102.685 37.0292 103.374 35.3157L97.8061 33.0791ZM138.201 42.4884L135.369 43.4775L135.378 43.5047L135.388 43.5318L138.201 42.4884ZM138.201 31.4142L135.388 30.3708L135.384 30.3836L135.379 30.3964L138.201 31.4142ZM147.928 47.0001L150.3 48.8362L150.308 48.8263L147.928 47.0001ZM132.811 46.9122L130.418 48.7219L130.425 48.7316L132.811 46.9122ZM147.869 26.9611L145.476 28.7707L145.485 28.7819L145.494 28.7931L147.869 26.9611ZM170.691 24.09L173.315 25.5452L175.786 21.09H170.691V24.09ZM146.932 66.922V69.922H148.698L149.555 68.3772L146.932 66.922ZM139.9 66.922L137.277 65.4667L134.806 69.922H139.9V66.922ZM163.66 24.09V21.09H161.894L161.037 22.6347L163.66 24.09ZM168.201 59.5978L165.369 60.5868L165.378 60.6141L165.388 60.6412L168.201 59.5978ZM168.201 48.5236L165.388 47.4801L165.384 47.4929L165.379 47.5058L168.201 48.5236ZM177.928 64.0802L180.3 65.9163L180.308 65.9064L177.928 64.0802ZM162.811 63.9923L160.418 65.802L160.425 65.8117L162.811 63.9923ZM177.869 44.0704L175.476 45.8801L175.485 45.8913L175.494 45.9025L177.869 44.0704ZM134.557 36.922C134.557 39.4923 134.769 41.7586 135.369 43.4775L141.033 41.4994C140.774 40.7572 140.557 39.3127 140.557 36.922H134.557ZM135.388 43.5318C135.727 44.4445 136.261 45.3987 137.131 46.1373C138.055 46.9222 139.174 47.3048 140.34 47.3048V41.3048C140.41 41.3048 140.528 41.3166 140.669 41.3672C140.812 41.4184 140.93 41.4919 141.015 41.5641C141.171 41.6972 141.125 41.7432 141.014 41.445L135.388 43.5318ZM140.34 47.3048C141.533 47.3048 142.645 46.8891 143.546 46.1011C144.386 45.3656 144.911 44.424 145.253 43.5271C145.92 41.776 146.152 39.4873 146.152 36.922H140.152C140.152 39.2785 139.916 40.6812 139.646 41.3911C139.519 41.7247 139.457 41.7059 139.595 41.5857C139.792 41.4129 140.085 41.3048 140.34 41.3048V47.3048ZM146.152 36.922C146.152 34.3751 145.92 32.0978 145.25 30.3534C144.906 29.459 144.379 28.5214 143.537 27.79C142.636 27.0076 141.526 26.5978 140.34 26.5978V32.5978C140.091 32.5978 139.802 32.4931 139.604 32.3211C139.464 32.2 139.523 32.1779 139.649 32.5043C139.916 33.2013 140.152 34.5861 140.152 36.922H146.152ZM140.34 26.5978C139.174 26.5978 138.055 26.9804 137.131 27.7653C136.261 28.5038 135.727 29.4581 135.388 30.3708L141.014 32.4576C141.125 32.1593 141.171 32.2054 141.015 32.3385C140.93 32.4107 140.812 32.4842 140.669 32.5354C140.528 32.586 140.41 32.5978 140.34 32.5978V26.5978ZM135.379 30.3964C134.766 32.0953 134.557 34.3613 134.557 36.922H140.557C140.557 34.5217 140.777 33.1159 141.023 32.432L135.379 30.3964ZM147.535 36.8634C147.535 41.0491 146.712 43.6568 145.548 45.174L150.308 48.8263C152.62 45.8122 153.535 41.6621 153.535 36.8634H147.535ZM145.555 45.164C144.492 46.5374 142.903 47.3693 140.281 47.3693V53.3693C144.378 53.3693 147.887 51.955 150.3 48.8362L145.555 45.164ZM140.281 47.3693C137.874 47.3693 136.317 46.563 135.196 45.0929L130.425 48.7316C132.82 51.8708 136.243 53.3693 140.281 53.3693V47.3693ZM135.203 45.1026C133.993 43.5026 133.174 40.8966 133.174 36.8634H127.174C127.174 41.5802 128.112 45.6734 130.418 48.7219L135.203 45.1026ZM133.174 36.8634C133.174 32.6921 133.976 30.1115 135.095 28.6294C136.094 27.3063 137.637 26.4747 140.281 26.4747V20.4747C136.187 20.4747 132.677 21.8746 130.306 25.0144C128.056 27.9952 127.174 32.109 127.174 36.8634H133.174ZM140.281 26.4747C142.785 26.4747 144.366 27.303 145.476 28.7707L150.262 25.1514C147.856 21.9706 144.38 20.4747 140.281 20.4747V26.4747ZM145.494 28.7931C146.713 30.375 147.535 32.9264 147.535 36.8634H153.535C153.535 32.2067 152.58 28.1565 150.245 25.129L145.494 28.7931ZM168.068 22.6347L144.308 65.4667L149.555 68.3772L173.315 25.5452L168.068 22.6347ZM146.932 63.922H139.9V69.922H146.932V63.922ZM142.524 68.3772L166.284 25.5452L161.037 22.6347L137.277 65.4667L142.524 68.3772ZM163.66 27.09H170.691V21.09H163.66V27.09ZM164.557 54.0314C164.557 56.6016 164.769 58.868 165.369 60.5868L171.033 58.6087C170.774 57.8666 170.557 56.422 170.557 54.0314H164.557ZM165.388 60.6412C165.727 61.5539 166.261 62.5081 167.131 63.2467C168.055 64.0316 169.174 64.4142 170.34 64.4142V58.4142C170.41 58.4142 170.528 58.426 170.669 58.4765C170.812 58.5278 170.93 58.6012 171.015 58.6735C171.171 58.8066 171.125 58.8526 171.014 58.5544L165.388 60.6412ZM170.34 64.4142C171.533 64.4142 172.645 63.9984 173.546 63.2105C174.386 62.475 174.911 61.5334 175.253 60.6365C175.92 58.8854 176.152 56.5967 176.152 54.0314H170.152C170.152 56.3879 169.916 57.7906 169.646 58.5005C169.519 58.834 169.457 58.8153 169.595 58.695C169.792 58.5223 170.085 58.4142 170.34 58.4142V64.4142ZM176.152 54.0314C176.152 51.4845 175.92 49.2072 175.25 47.4628C174.906 46.5684 174.379 45.6308 173.537 44.8994C172.636 44.117 171.526 43.7072 170.34 43.7072V49.7072C170.091 49.7072 169.802 49.6025 169.604 49.4304C169.464 49.3094 169.523 49.2873 169.649 49.6136C169.916 50.3106 170.152 51.6955 170.152 54.0314H176.152ZM170.34 43.7072C169.174 43.7072 168.055 44.0897 167.131 44.8747C166.261 45.6132 165.727 46.5675 165.388 47.4801L171.014 49.567C171.125 49.2687 171.171 49.3148 171.015 49.4478C170.93 49.5201 170.812 49.5936 170.669 49.6448C170.528 49.6953 170.41 49.7072 170.34 49.7072V43.7072ZM165.379 47.5058C164.766 49.2046 164.557 51.4707 164.557 54.0314H170.557C170.557 51.6311 170.777 50.2253 171.023 49.5414L165.379 47.5058ZM177.535 53.9728C177.535 58.1353 176.713 60.7351 175.548 62.254L180.308 65.9064C182.619 62.8941 183.535 58.7555 183.535 53.9728H177.535ZM175.555 62.2441C174.492 63.6175 172.903 64.4493 170.281 64.4493V70.4493C174.378 70.4493 177.887 69.0351 180.3 65.9163L175.555 62.2441ZM170.281 64.4493C167.874 64.4493 166.317 63.6431 165.196 62.173L160.425 65.8117C162.82 68.9509 166.243 70.4493 170.281 70.4493V64.4493ZM165.203 62.1827C163.992 60.5807 163.174 57.9829 163.174 53.9728H157.174C157.174 58.6736 158.114 62.7554 160.418 65.8019L165.203 62.1827ZM163.174 53.9728C163.174 49.8014 163.976 47.2209 165.095 45.7388C166.094 44.4157 167.637 43.5841 170.281 43.5841V37.5841C166.187 37.5841 162.677 38.984 160.306 42.1237C158.056 45.1045 157.174 49.2183 157.174 53.9728H163.174ZM170.281 43.5841C172.785 43.5841 174.366 44.4124 175.476 45.8801L180.262 42.2608C177.856 39.08 174.38 37.5841 170.281 37.5841V43.5841ZM175.494 45.9025C176.713 47.4844 177.535 50.0358 177.535 53.9728H183.535C183.535 49.316 182.58 45.2659 180.245 42.2384L175.494 45.9025ZM218.756 29.0704L216.568 27.0182L216.567 27.0186L218.756 29.0704ZM249.02 29.0997L246.809 31.1279L246.815 31.1341L249.02 29.0997ZM225.758 34.6368L228.149 36.4492L228.156 36.4399L225.758 34.6368ZM251.264 45.4474C251.264 52.0637 249.627 56.6823 246.786 59.7602L251.195 63.8299C255.385 59.2906 257.264 53.0108 257.264 45.4474H251.264ZM246.786 59.7602C243.981 62.7985 239.836 64.5079 233.873 64.5079V70.5079C241.035 70.5079 246.968 68.4088 251.195 63.8299L246.786 59.7602ZM233.873 64.5079C227.91 64.5079 223.765 62.7985 220.96 59.7602L216.551 63.8299C220.778 68.4088 226.711 70.5079 233.873 70.5079V64.5079ZM220.96 59.7602C218.122 56.685 216.482 52.0493 216.482 45.3888H210.482C210.482 52.9861 212.359 59.2879 216.551 63.8299L220.96 59.7602ZM216.482 45.3888C216.482 38.7247 218.123 34.1317 220.944 31.1223L216.567 27.0186C212.357 31.5091 210.482 37.7951 210.482 45.3888H216.482ZM220.944 31.1226C223.766 28.1134 227.938 26.4161 233.932 26.4161V20.4161C226.761 20.4161 220.816 22.4884 216.568 27.0182L220.944 31.1226ZM233.932 26.4161C239.923 26.4161 244.05 28.121 246.809 31.1279L251.23 27.0715C247.036 22.5003 241.104 20.4161 233.932 20.4161V26.4161ZM246.815 31.1341C249.633 34.1885 251.264 38.8038 251.264 45.4474H257.264C257.264 37.8722 255.398 31.5891 251.224 27.0654L246.815 31.1341ZM220.004 45.4474C220.004 50.5309 220.955 54.8928 223.329 58.0579L228.129 54.4579C226.87 52.7793 226.004 49.9342 226.004 45.4474H220.004ZM223.329 58.0579C225.825 61.386 229.521 62.8907 233.873 62.8907V56.8907C230.998 56.8907 229.265 55.9737 228.129 54.4579L223.329 58.0579ZM233.873 62.8907C238.224 62.8907 241.926 61.4004 244.422 58.0838C246.797 54.9278 247.742 50.5519 247.742 45.4474H241.742C241.742 49.9718 240.876 52.8176 239.628 54.476C238.501 55.9739 236.768 56.8907 233.873 56.8907V62.8907ZM247.742 45.4474C247.742 40.3366 246.803 35.9571 244.443 32.7976C241.96 29.4736 238.272 27.9747 233.932 27.9747V33.9747C236.799 33.9747 238.515 34.8879 239.636 36.3882C240.879 38.0529 241.742 40.9097 241.742 45.4474H247.742ZM233.932 27.9747C229.57 27.9747 225.87 29.4957 223.36 32.8338L228.156 36.4399C229.317 34.8952 231.067 33.9747 233.932 33.9747V27.9747ZM223.367 32.8245C220.966 35.9914 220.004 40.3587 220.004 45.4474H226.004C226.004 40.9657 226.877 38.126 228.149 36.4492L223.367 32.8245ZM278.076 66.922V69.922H281.076V66.922H278.076ZM269.141 66.922H266.141V69.922H269.141V66.922ZM269.141 24.09V21.09H266.141V24.09H269.141ZM293.691 24.09H296.691V21.09H293.691V24.09ZM293.691 31.5314V34.5314H296.691V31.5314H293.691ZM278.076 31.5314V28.5314H275.076V31.5314H278.076ZM278.076 42.5763H275.076V45.5763H278.076V42.5763ZM292.607 42.5763H295.607V39.5763H292.607V42.5763ZM292.607 49.9884V52.9884H295.607V49.9884H292.607ZM278.076 49.9884V46.9884H275.076V49.9884H278.076ZM278.076 63.922H269.141V69.922H278.076V63.922ZM272.141 66.922V24.09H266.141V66.922H272.141ZM269.141 27.09H293.691V21.09H269.141V27.09ZM290.691 24.09V31.5314H296.691V24.09H290.691ZM293.691 28.5314H278.076V34.5314H293.691V28.5314ZM275.076 31.5314V42.5763H281.076V31.5314H275.076ZM278.076 45.5763H292.607V39.5763H278.076V45.5763ZM289.607 42.5763V49.9884H295.607V42.5763H289.607ZM292.607 46.9884H278.076V52.9884H292.607V46.9884ZM275.076 49.9884V66.922H281.076V49.9884H275.076ZM317.006 66.922V69.922H320.006V66.922H317.006ZM308.07 66.922H305.07V69.922H308.07V66.922ZM308.07 24.09V21.09H305.07V24.09H308.07ZM332.621 24.09H335.621V21.09H332.621V24.09ZM332.621 31.5314V34.5314H335.621V31.5314H332.621ZM317.006 31.5314V28.5314H314.006V31.5314H317.006ZM317.006 42.5763H314.006V45.5763H317.006V42.5763ZM331.537 42.5763H334.537V39.5763H331.537V42.5763ZM331.537 49.9884V52.9884H334.537V49.9884H331.537ZM317.006 49.9884V46.9884H314.006V49.9884H317.006ZM317.006 63.922H308.07V69.922H317.006V63.922ZM311.07 66.922V24.09H305.07V66.922H311.07ZM308.07 27.09H332.621V21.09H308.07V27.09ZM329.621 24.09V31.5314H335.621V24.09H329.621ZM332.621 28.5314H317.006V34.5314H332.621V28.5314ZM314.006 31.5314V42.5763H320.006V31.5314H314.006ZM317.006 45.5763H331.537V39.5763H317.006V45.5763ZM328.537 42.5763V49.9884H334.537V42.5763H328.537ZM331.537 46.9884H317.006V52.9884H331.537V46.9884ZM314.006 49.9884V66.922H320.006V49.9884H314.006Z" fill="#FCD34D" mask="url(#path-3-outside-2_270_3269)"/>
</g>
<mask id="path-5-outside-3_270_3269" maskUnits="userSpaceOnUse" x="37.5" y="11" width="290" height="51" fill="black">
<rect fill="white" x="37.5" y="11" width="290" height="51"/>
<path d="M46.2324 58L62.3164 22.8438H41.1934V15.2266H71.9258V20.9102L55.7246 58H46.2324ZM111.969 36.584C111.969 44.0645 110.738 49.6016 108.277 53.1953C105.836 56.7891 102.066 58.5859 96.9688 58.5859C92.0273 58.5859 88.2969 56.7305 85.7773 53.0195C83.2773 49.3086 82.0273 43.8301 82.0273 36.584C82.0273 29.0254 83.248 23.459 85.6895 19.8848C88.1309 16.291 91.8906 14.4941 96.9688 14.4941C101.91 14.4941 105.641 16.3691 108.16 20.1191C110.699 23.8691 111.969 29.3574 111.969 36.584ZM91.0215 36.584C91.0215 41.8379 91.4707 45.6074 92.3691 47.8926C93.2871 50.1582 94.8203 51.291 96.9688 51.291C99.0781 51.291 100.602 50.1387 101.539 47.834C102.477 45.5293 102.945 41.7793 102.945 36.584C102.945 31.3301 102.467 27.5605 101.51 25.2754C100.572 22.9707 99.0586 21.8184 96.9688 21.8184C94.8398 21.8184 93.3164 22.9707 92.3984 25.2754C91.4805 27.5605 91.0215 31.3301 91.0215 36.584ZM129.365 28C129.365 30.4805 129.58 32.3359 130.01 33.5664C130.459 34.7773 131.172 35.3828 132.148 35.3828C134.023 35.3828 134.961 32.9219 134.961 28C134.961 23.1172 134.023 20.6758 132.148 20.6758C131.172 20.6758 130.459 21.2813 130.01 22.4922C129.58 23.6836 129.365 25.5195 129.365 28ZM142.344 27.9414C142.344 32.4336 141.475 35.8125 139.736 38.0781C137.998 40.3242 135.449 41.4473 132.09 41.4473C128.867 41.4473 126.377 40.2949 124.619 37.9902C122.861 35.666 121.982 32.3164 121.982 27.9414C121.982 19.0156 125.352 14.5527 132.09 14.5527C135.391 14.5527 137.92 15.7148 139.678 18.0391C141.455 20.3438 142.344 23.6445 142.344 27.9414ZM162.5 15.168L138.74 58H131.709L155.469 15.168H162.5ZM159.365 45.1094C159.365 47.5898 159.58 49.4453 160.01 50.6758C160.459 51.8867 161.172 52.4922 162.148 52.4922C164.023 52.4922 164.961 50.0312 164.961 45.1094C164.961 40.2266 164.023 37.7852 162.148 37.7852C161.172 37.7852 160.459 38.3906 160.01 39.6016C159.58 40.793 159.365 42.6289 159.365 45.1094ZM172.344 45.0508C172.344 49.5234 171.475 52.8926 169.736 55.1582C167.998 57.4043 165.449 58.5273 162.09 58.5273C158.867 58.5273 156.377 57.375 154.619 55.0703C152.861 52.7461 151.982 49.4062 151.982 45.0508C151.982 36.125 155.352 31.6621 162.09 31.6621C165.391 31.6621 167.92 32.8242 169.678 35.1484C171.455 37.4531 172.344 40.7539 172.344 45.0508ZM246.072 36.5254C246.072 43.6152 244.314 49.0645 240.799 52.873C237.283 56.6816 232.244 58.5859 225.682 58.5859C219.119 58.5859 214.08 56.6816 210.564 52.873C207.049 49.0645 205.291 43.5957 205.291 36.4668C205.291 29.3379 207.049 23.8984 210.564 20.1484C214.1 16.3789 219.158 14.4941 225.74 14.4941C232.322 14.4941 237.352 16.3887 240.828 20.1777C244.324 23.9668 246.072 29.416 246.072 36.5254ZM214.812 36.5254C214.812 41.3105 215.721 44.9141 217.537 47.3359C219.354 49.7578 222.068 50.9688 225.682 50.9688C232.928 50.9688 236.551 46.1543 236.551 36.5254C236.551 26.877 232.947 22.0527 225.74 22.0527C222.127 22.0527 219.402 23.2734 217.566 25.7148C215.73 28.1367 214.812 31.7402 214.812 36.5254ZM269.885 58H260.949V15.168H285.5V22.6094H269.885V33.6543H284.416V41.0664H269.885V58ZM308.814 58H299.879V15.168H324.43V22.6094H308.814V33.6543H323.346V41.0664H308.814V58Z"/>
</mask>
<path d="M46.2324 58L43.5044 56.7519L41.5609 61H46.2324V58ZM62.3164 22.8438L65.0445 24.0918L66.988 19.8438H62.3164V22.8438ZM41.1934 22.8438H38.1934V25.8438H41.1934V22.8438ZM41.1934 15.2266V12.2266H38.1934V15.2266H41.1934ZM71.9258 15.2266H74.9258V12.2266H71.9258V15.2266ZM71.9258 20.9102L74.675 22.111L74.9258 21.5368V20.9102H71.9258ZM55.7246 58V61H57.6879L58.4738 59.2009L55.7246 58ZM48.9605 59.2481L65.0445 24.0918L59.5884 21.5957L43.5044 56.7519L48.9605 59.2481ZM62.3164 19.8438H41.1934V25.8438H62.3164V19.8438ZM44.1934 22.8438V15.2266H38.1934V22.8438H44.1934ZM41.1934 18.2266H71.9258V12.2266H41.1934V18.2266ZM68.9258 15.2266V20.9102H74.9258V15.2266H68.9258ZM69.1766 19.7093L52.9754 56.7991L58.4738 59.2009L74.675 22.111L69.1766 19.7093ZM55.7246 55H46.2324V61H55.7246V55ZM108.277 53.1953L105.802 51.5003L105.796 51.5095L108.277 53.1953ZM85.7773 53.0195L83.2893 54.6957L83.2954 54.7047L85.7773 53.0195ZM85.6895 19.8848L88.1667 21.5769L88.171 21.5706L85.6895 19.8848ZM108.16 20.1191L105.67 21.7922L105.676 21.8011L108.16 20.1191ZM92.3691 47.8926L89.5772 48.9903L89.5829 49.0047L89.5887 49.0191L92.3691 47.8926ZM101.51 25.2754L98.7309 26.4058L98.7367 26.4201L98.7426 26.4343L101.51 25.2754ZM92.3984 25.2754L95.1822 26.3937L95.1855 26.3855L92.3984 25.2754ZM108.969 36.584C108.969 43.8455 107.754 48.6501 105.802 51.5003L110.753 54.8903C113.723 50.5531 114.969 44.2834 114.969 36.584H108.969ZM105.796 51.5095C104.016 54.1295 101.271 55.5859 96.9688 55.5859V61.5859C102.862 61.5859 107.656 59.4486 110.759 54.8811L105.796 51.5095ZM96.9688 55.5859C92.9027 55.5859 90.1569 54.1293 88.2593 51.3344L83.2954 54.7047C86.4368 59.3317 91.152 61.5859 96.9688 61.5859V55.5859ZM88.2654 51.3434C86.2475 48.3481 85.0273 43.5697 85.0273 36.584H79.0273C79.0273 44.0904 80.3071 50.2691 83.2893 54.6957L88.2654 51.3434ZM85.0273 36.584C85.0273 29.2315 86.2366 24.4025 88.1667 21.5769L83.2122 18.1927C80.2595 22.5154 79.0273 28.8193 79.0273 36.584H85.0273ZM88.171 21.5706C89.9532 18.9471 92.6907 17.4941 96.9688 17.4941V11.4941C91.0905 11.4941 86.3085 13.6349 83.2079 18.1989L88.171 21.5706ZM96.9688 17.4941C101.021 17.4941 103.767 18.9594 105.67 21.7922L110.65 18.4461C107.515 13.7789 102.799 11.4941 96.9688 11.4941V17.4941ZM105.676 21.8011C107.733 24.8392 108.969 29.6296 108.969 36.584H114.969C114.969 29.0852 113.665 22.899 110.644 18.4372L105.676 21.8011ZM88.0215 36.584C88.0215 41.8835 88.4576 46.1426 89.5772 48.9903L95.1611 46.7949C94.4838 45.0723 94.0215 41.7923 94.0215 36.584H88.0215ZM89.5887 49.0191C90.1976 50.5219 91.1041 51.8785 92.4248 52.8543C93.7721 53.8498 95.3381 54.291 96.9688 54.291V48.291C96.451 48.291 96.1761 48.1659 95.9903 48.0286C95.7777 47.8715 95.4587 47.5288 95.1496 46.766L89.5887 49.0191ZM96.9688 54.291C98.6048 54.291 100.166 53.8309 101.503 52.8194C102.807 51.8329 103.706 50.4691 104.318 48.9644L98.7602 46.7036C98.4348 47.5035 98.1029 47.8683 97.8836 48.0341C97.6975 48.1749 97.442 48.291 96.9688 48.291V54.291ZM104.318 48.9644C105.488 46.0868 105.945 41.8373 105.945 36.584H99.9453C99.9453 41.7213 99.4646 44.9718 98.7602 46.7036L104.318 48.9644ZM105.945 36.584C105.945 31.2785 105.481 26.991 104.277 24.1165L98.7426 26.4343C99.4529 28.1301 99.9453 31.3817 99.9453 36.584H105.945ZM104.289 24.145C103.678 22.6446 102.785 21.2825 101.489 20.2956C100.157 19.2822 98.6017 18.8184 96.9688 18.8184V24.8184C97.4256 24.8184 97.6716 24.9307 97.8542 25.0696C98.0715 25.2351 98.4037 25.6015 98.7309 26.4058L104.289 24.145ZM96.9688 18.8184C95.3297 18.8184 93.7619 19.2747 92.4197 20.29C91.1091 21.2814 90.2137 22.6531 89.6114 24.1653L95.1855 26.3855C95.5012 25.593 95.8265 25.2362 96.0393 25.0752C96.2205 24.9382 96.4789 24.8184 96.9688 24.8184V18.8184ZM89.6147 24.1571C88.467 27.0139 88.0215 31.2825 88.0215 36.584H94.0215C94.0215 31.3776 94.4939 28.1072 95.1822 26.3937L89.6147 24.1571ZM130.01 33.5664L127.177 34.5555L127.187 34.5827L127.197 34.6098L130.01 33.5664ZM130.01 22.4922L127.197 21.4488L127.192 21.4616L127.188 21.4744L130.01 22.4922ZM139.736 38.0781L142.109 39.9142L142.116 39.9043L139.736 38.0781ZM124.619 37.9902L122.226 39.7999L122.234 39.8096L124.619 37.9902ZM139.678 18.0391L137.285 19.8487L137.293 19.8599L137.302 19.8711L139.678 18.0391ZM162.5 15.168L165.123 16.6232L167.595 12.168H162.5V15.168ZM138.74 58V61H140.507L141.364 59.4553L138.74 58ZM131.709 58L129.086 56.5447L126.614 61H131.709V58ZM155.469 15.168V12.168H153.702L152.845 13.7127L155.469 15.168ZM160.01 50.6758L157.177 51.6648L157.187 51.6921L157.197 51.7192L160.01 50.6758ZM160.01 39.6016L157.197 38.5581L157.192 38.5709L157.188 38.5838L160.01 39.6016ZM169.736 55.1582L172.109 56.9943L172.116 56.9844L169.736 55.1582ZM154.619 55.0703L152.226 56.88L152.234 56.8897L154.619 55.0703ZM169.678 35.1484L167.285 36.9581L167.293 36.9693L167.302 36.9805L169.678 35.1484ZM126.365 28C126.365 30.5703 126.577 32.8366 127.177 34.5555L132.842 32.5774C132.583 31.8352 132.365 30.3907 132.365 28H126.365ZM127.197 34.6098C127.536 35.5225 128.07 36.4767 128.939 37.2153C129.863 38.0002 130.983 38.3828 132.148 38.3828V32.3828C132.219 32.3828 132.337 32.3946 132.478 32.4452C132.62 32.4964 132.738 32.5699 132.823 32.6421C132.98 32.7752 132.933 32.8212 132.822 32.523L127.197 34.6098ZM132.148 38.3828C133.341 38.3828 134.454 37.9671 135.354 37.1791C136.195 36.4436 136.72 35.502 137.061 34.6051C137.728 32.854 137.961 30.5653 137.961 28H131.961C131.961 30.3566 131.725 31.7592 131.454 32.4691C131.327 32.8027 131.266 32.784 131.403 32.6637C131.601 32.4909 131.893 32.3828 132.148 32.3828V38.3828ZM137.961 28C137.961 25.4531 137.728 23.1758 137.058 21.4314C136.715 20.537 136.188 19.5994 135.345 18.868C134.444 18.0856 133.334 17.6758 132.148 17.6758V23.6758C131.9 23.6758 131.611 23.5711 131.412 23.3991C131.273 23.278 131.332 23.2559 131.457 23.5823C131.725 24.2793 131.961 25.6641 131.961 28H137.961ZM132.148 17.6758C130.983 17.6758 129.863 18.0584 128.939 18.8433C128.07 19.5819 127.536 20.5361 127.197 21.4488L132.822 23.5356C132.933 23.2374 132.98 23.2834 132.823 23.4165C132.738 23.4887 132.62 23.5622 132.478 23.6134C132.337 23.664 132.219 23.6758 132.148 23.6758V17.6758ZM127.188 21.4744C126.575 23.1733 126.365 25.4393 126.365 28H132.365C132.365 25.5998 132.585 24.1939 132.832 23.51L127.188 21.4744ZM139.344 27.9414C139.344 32.1271 138.52 34.7348 137.356 36.252L142.116 39.9043C144.429 36.8902 145.344 32.7401 145.344 27.9414H139.344ZM137.364 36.242C136.301 37.6154 134.711 38.4473 132.09 38.4473V44.4473C136.187 44.4473 139.695 43.033 142.109 39.9142L137.364 36.242ZM132.09 38.4473C129.683 38.4473 128.126 37.641 127.005 36.1709L122.234 39.8096C124.628 42.9488 128.051 44.4473 132.09 44.4473V38.4473ZM127.012 36.1806C125.802 34.5806 124.982 31.9746 124.982 27.9414H118.982C118.982 32.6582 119.921 36.7514 122.226 39.7999L127.012 36.1806ZM124.982 27.9414C124.982 23.7701 125.785 21.1895 126.904 19.7074C127.902 18.3843 129.445 17.5527 132.09 17.5527V11.5527C127.996 11.5527 124.485 12.9526 122.115 16.0924C119.865 19.0732 118.982 23.187 118.982 27.9414H124.982ZM132.09 17.5527C134.593 17.5527 136.175 18.381 137.285 19.8487L142.07 16.2294C139.665 13.0486 136.188 11.5527 132.09 11.5527V17.5527ZM137.302 19.8711C138.522 21.453 139.344 24.0044 139.344 27.9414H145.344C145.344 23.2847 144.388 19.2345 142.053 16.207L137.302 19.8711ZM159.877 13.7127L136.117 56.5447L141.364 59.4553L165.123 16.6232L159.877 13.7127ZM138.74 55H131.709V61H138.74V55ZM134.332 59.4553L158.092 16.6232L152.845 13.7127L129.086 56.5447L134.332 59.4553ZM155.469 18.168H162.5V12.168H155.469V18.168ZM156.365 45.1094C156.365 47.6796 156.577 49.946 157.177 51.6648L162.842 49.6867C162.583 48.9446 162.365 47.5 162.365 45.1094H156.365ZM157.197 51.7192C157.536 52.6319 158.07 53.5861 158.939 54.3247C159.863 55.1096 160.983 55.4922 162.148 55.4922V49.4922C162.219 49.4922 162.337 49.504 162.478 49.5545C162.62 49.6058 162.738 49.6792 162.823 49.7515C162.98 49.8846 162.933 49.9306 162.822 49.6324L157.197 51.7192ZM162.148 55.4922C163.341 55.4922 164.454 55.0764 165.354 54.2885C166.195 53.553 166.72 52.6114 167.061 51.7145C167.728 49.9634 167.961 47.6747 167.961 45.1094H161.961C161.961 47.4659 161.725 48.8686 161.454 49.5785C161.327 49.912 161.266 49.8933 161.403 49.773C161.601 49.6003 161.893 49.4922 162.148 49.4922V55.4922ZM167.961 45.1094C167.961 42.5625 167.728 40.2852 167.058 38.5408C166.715 37.6464 166.188 36.7088 165.345 35.9774C164.444 35.195 163.334 34.7852 162.148 34.7852V40.7852C161.9 40.7852 161.611 40.6805 161.412 40.5084C161.273 40.3874 161.332 40.3653 161.457 40.6916C161.725 41.3886 161.961 42.7735 161.961 45.1094H167.961ZM162.148 34.7852C160.983 34.7852 159.863 35.1677 158.939 35.9527C158.07 36.6912 157.536 37.6455 157.197 38.5581L162.822 40.645C162.933 40.3467 162.98 40.3928 162.823 40.5258C162.738 40.5981 162.62 40.6716 162.478 40.7228C162.337 40.7733 162.219 40.7852 162.148 40.7852V34.7852ZM157.188 38.5838C156.575 40.2826 156.365 42.5487 156.365 45.1094H162.365C162.365 42.7091 162.585 41.3033 162.832 40.6194L157.188 38.5838ZM169.344 45.0508C169.344 49.2133 168.522 51.8131 167.356 53.332L172.116 56.9844C174.428 53.9721 175.344 49.8335 175.344 45.0508H169.344ZM167.364 53.3221C166.301 54.6955 164.711 55.5273 162.09 55.5273V61.5273C166.187 61.5273 169.695 60.1131 172.109 56.9943L167.364 53.3221ZM162.09 55.5273C159.683 55.5273 158.126 54.7211 157.005 53.251L152.234 56.8897C154.628 60.0289 158.051 61.5273 162.09 61.5273V55.5273ZM157.012 53.2607C155.8 51.6588 154.982 49.0609 154.982 45.0508H148.982C148.982 49.7516 149.922 53.8334 152.226 56.8799L157.012 53.2607ZM154.982 45.0508C154.982 40.8795 155.785 38.2989 156.904 36.8168C157.902 35.4937 159.445 34.6621 162.09 34.6621V28.6621C157.996 28.6621 154.485 30.062 152.115 33.2017C149.865 36.1825 148.982 40.2963 148.982 45.0508H154.982ZM162.09 34.6621C164.593 34.6621 166.175 35.4904 167.285 36.9581L172.07 33.3388C169.665 30.158 166.188 28.6621 162.09 28.6621V34.6621ZM167.302 36.9805C168.522 38.5624 169.344 41.1138 169.344 45.0508H175.344C175.344 40.394 174.388 36.3439 172.053 33.3164L167.302 36.9805ZM210.564 20.1484L208.376 18.0962L208.376 18.0966L210.564 20.1484ZM240.828 20.1777L238.618 22.2059L238.623 22.2121L240.828 20.1777ZM217.566 25.7148L219.957 27.5272L219.964 27.5179L217.566 25.7148ZM243.072 36.5254C243.072 43.1417 241.436 47.7603 238.594 50.8382L243.003 54.9079C247.193 50.3686 249.072 44.0888 249.072 36.5254H243.072ZM238.594 50.8382C235.79 53.8765 231.644 55.5859 225.682 55.5859V61.5859C232.844 61.5859 238.777 59.4868 243.003 54.9079L238.594 50.8382ZM225.682 55.5859C219.719 55.5859 215.573 53.8765 212.769 50.8382L208.36 54.9079C212.587 59.4868 218.519 61.5859 225.682 61.5859V55.5859ZM212.769 50.8382C209.93 47.763 208.291 43.1273 208.291 36.4668H202.291C202.291 44.0641 204.167 50.3659 208.36 54.9079L212.769 50.8382ZM208.291 36.4668C208.291 29.8027 209.932 25.2097 212.753 22.2003L208.376 18.0966C204.166 22.5871 202.291 28.8731 202.291 36.4668H208.291ZM212.753 22.2006C215.575 19.1914 219.747 17.4941 225.74 17.4941V11.4941C218.57 11.4941 212.624 13.5664 208.376 18.0962L212.753 22.2006ZM225.74 17.4941C231.732 17.4941 235.859 19.199 238.618 22.2059L243.039 18.1495C238.844 13.5783 232.913 11.4941 225.74 11.4941V17.4941ZM238.623 22.2121C241.442 25.2665 243.072 29.8818 243.072 36.5254H249.072C249.072 28.9502 247.207 22.6671 243.033 18.1434L238.623 22.2121ZM211.812 36.5254C211.812 41.6089 212.763 45.9708 215.137 49.1359L219.937 45.5359C218.678 43.8573 217.812 41.0122 217.812 36.5254H211.812ZM215.137 49.1359C217.633 52.464 221.33 53.9688 225.682 53.9688V47.9688C222.807 47.9688 221.074 47.0517 219.937 45.5359L215.137 49.1359ZM225.682 53.9688C230.033 53.9688 233.735 52.4784 236.231 49.1618C238.606 46.0058 239.551 41.6299 239.551 36.5254H233.551C233.551 41.0498 232.684 43.8956 231.436 45.554C230.309 47.0519 228.577 47.9688 225.682 47.9688V53.9688ZM239.551 36.5254C239.551 31.4146 238.612 27.0351 236.252 23.8756C233.769 20.5516 230.08 19.0527 225.74 19.0527V25.0527C228.607 25.0527 230.324 25.9659 231.445 27.4662C232.688 29.1309 233.551 31.9877 233.551 36.5254H239.551ZM225.74 19.0527C221.379 19.0527 217.679 20.5737 215.169 23.9118L219.964 27.5179C221.126 25.9732 222.875 25.0527 225.74 25.0527V19.0527ZM215.176 23.9025C212.775 27.0695 211.812 31.4367 211.812 36.5254H217.812C217.812 32.0437 218.686 29.204 219.957 27.5272L215.176 23.9025ZM269.885 58V61H272.885V58H269.885ZM260.949 58H257.949V61H260.949V58ZM260.949 15.168V12.168H257.949V15.168H260.949ZM285.5 15.168H288.5V12.168H285.5V15.168ZM285.5 22.6094V25.6094H288.5V22.6094H285.5ZM269.885 22.6094V19.6094H266.885V22.6094H269.885ZM269.885 33.6543H266.885V36.6543H269.885V33.6543ZM284.416 33.6543H287.416V30.6543H284.416V33.6543ZM284.416 41.0664V44.0664H287.416V41.0664H284.416ZM269.885 41.0664V38.0664H266.885V41.0664H269.885ZM269.885 55H260.949V61H269.885V55ZM263.949 58V15.168H257.949V58H263.949ZM260.949 18.168H285.5V12.168H260.949V18.168ZM282.5 15.168V22.6094H288.5V15.168H282.5ZM285.5 19.6094H269.885V25.6094H285.5V19.6094ZM266.885 22.6094V33.6543H272.885V22.6094H266.885ZM269.885 36.6543H284.416V30.6543H269.885V36.6543ZM281.416 33.6543V41.0664H287.416V33.6543H281.416ZM284.416 38.0664H269.885V44.0664H284.416V38.0664ZM266.885 41.0664V58H272.885V41.0664H266.885ZM308.814 58V61H311.814V58H308.814ZM299.879 58H296.879V61H299.879V58ZM299.879 15.168V12.168H296.879V15.168H299.879ZM324.43 15.168H327.43V12.168H324.43V15.168ZM324.43 22.6094V25.6094H327.43V22.6094H324.43ZM308.814 22.6094V19.6094H305.814V22.6094H308.814ZM308.814 33.6543H305.814V36.6543H308.814V33.6543ZM323.346 33.6543H326.346V30.6543H323.346V33.6543ZM323.346 41.0664V44.0664H326.346V41.0664H323.346ZM308.814 41.0664V38.0664H305.814V41.0664H308.814ZM308.814 55H299.879V61H308.814V55ZM302.879 58V15.168H296.879V58H302.879ZM299.879 18.168H324.43V12.168H299.879V18.168ZM321.43 15.168V22.6094H327.43V15.168H321.43ZM324.43 19.6094H308.814V25.6094H324.43V19.6094ZM305.814 22.6094V33.6543H311.814V22.6094H305.814ZM308.814 36.6543H323.346V30.6543H308.814V36.6543ZM320.346 33.6543V41.0664H326.346V33.6543H320.346ZM323.346 38.0664H308.814V44.0664H323.346V38.0664ZM305.814 41.0664V58H311.814V41.0664H305.814Z" fill="#FCD34D" mask="url(#path-5-outside-3_270_3269)"/>
</svg>
