<svg width="385" height="190" viewBox="0 0 385 190" fill="none" xmlns="http://www.w3.org/2000/svg">
<path d="M73.1664 100.475L59.9187 104.084L72.5844 87.446L73.1664 100.475Z" stroke="#6EE7B7"/>
<path d="M61.6577 67.6085L53.2622 82.2009L39.5085 81.8252L32.7119 47.3322L61.6577 67.6085Z" stroke="#6EE7B7"/>
<path d="M57.1426 127.2L17.7451 133.687L24.9238 112.801L57.1426 127.2Z" stroke="#6EE7B7"/>
<path d="M350.259 120.659L320.903 128.965L364.615 135.533L350.259 120.659Z" stroke="#6EE7B7"/>
<path d="M340.427 42.7953L334.628 58.8996L343.772 69.0488L374.645 51.1749L340.427 42.7953Z" stroke="#6EE7B7"/>
<path d="M337.568 85.462L314.812 89.6104L322.802 99.6026L337.568 85.462Z" stroke="#6EE7B7"/>
<g filter="url(#filter0_d_268_3196)">
<path d="M230.338 136H156.081L148.655 128.5V53.5L156.081 46H230.338L237.764 53.5V128.5L230.338 136Z" fill="black"/>
<g clip-path="url(#clip0_268_3196)">
<path d="M186.8 67.563C184.463 65.2019 181.393 63.8516 178.108 63.7276C177.954 63.7217 177.826 63.8461 177.826 64.0018V68.2793C177.826 68.4246 177.939 68.5442 178.082 68.5525C182.44 68.8025 185.9 72.4963 185.833 76.9757C185.766 81.4341 182.181 85.0704 177.768 85.1542C175.724 85.1931 173.844 84.4738 172.385 83.2571C172.274 83.1647 172.112 83.1754 172.014 83.2817L169.13 86.42C169.024 86.5344 169.035 86.7138 169.153 86.8156C171.506 88.8612 174.474 89.9773 177.611 89.9773C181.082 89.9773 184.345 88.6116 186.8 86.1316C189.254 83.6517 190.606 80.3544 190.606 76.8473C190.606 73.3401 189.254 70.0429 186.8 67.563Z" fill="#8791FF"/>
<path d="M168.813 86.1251L171.698 82.9868C171.795 82.8803 171.794 82.7153 171.694 82.6107C170.267 81.1157 169.388 79.0834 169.388 76.8473C169.388 72.4256 172.824 68.7997 177.14 68.5524C177.283 68.5442 177.395 68.4244 177.395 68.2793V64.0018C177.395 63.8461 177.267 63.7217 177.113 63.7276C173.829 63.8516 170.759 65.2019 168.422 67.563C165.967 70.0429 164.616 73.3402 164.616 76.8473C164.616 80.3545 165.967 83.6517 168.422 86.1316C168.422 86.1323 168.423 86.133 168.424 86.1337C168.532 86.2429 168.709 86.2383 168.813 86.1251Z" fill="#34D399"/>
<mask id="mask0_268_3196" style="mask-type:luminance" maskUnits="userSpaceOnUse" x="194" y="62" width="25" height="26">
<path d="M216.712 62.6024H196.291C195.471 62.6024 194.806 63.274 194.806 64.1024V86.2274C194.806 87.0559 195.471 87.7274 196.291 87.7274H216.712C217.532 87.7274 218.197 87.0559 218.197 86.2274V64.1024C218.197 63.274 217.532 62.6024 216.712 62.6024Z" fill="white"/>
</mask>
<g mask="url(#mask0_268_3196)">
<path d="M307.42 83.3271C305.91 83.3271 305.025 74.6974 300.481 74.6974C299.897 74.6974 299.417 74.8333 298.985 75.0534C301.61 78.2338 303.905 82.3486 305.505 82.3486C309.31 82.3486 305.285 93.6489 305.285 93.6489H165.599C165.765 96.4064 165.935 98.529 165.935 98.529H306.823C306.823 98.529 311.192 83.3271 307.42 83.3271Z" fill="#34D399"/>
<path d="M197.985 82.2357C199.683 82.2357 200.856 80.5197 202.052 78.6776C200.653 77.1357 198.863 74.7269 196.901 74.7269C194.683 74.7269 193.145 76.8798 191.648 77.852C193.756 79.8899 195.855 82.2357 197.985 82.2357Z" fill="#34D399"/>
<path d="M207.134 74.2374C214.545 74.1773 211.37 81.1259 218.231 81.1259C222.886 81.1259 223.918 76.3987 226.297 73.3236C225.293 71.5668 224.381 69.8671 222.918 69.8671C220.441 69.8671 220.508 73.2115 217.488 73.2115C213.306 73.2115 212.732 62.8621 209.632 62.8621C207.281 62.8621 206.539 69.5819 205.68 74.5845C206.125 74.3679 206.606 74.2417 207.134 74.2374Z" fill="#34D399"/>
<path d="M305.431 82.3532C303.835 82.3532 301.549 78.2639 298.934 75.0875C298.951 75.0783 298.967 75.0671 298.985 75.0583C297.592 73.3708 296.106 71.9461 294.582 71.5392C292.094 70.8752 289.504 73.4133 287.047 75.4648C288.67 76.9734 290.123 78.4846 291.859 78.5021C291.844 78.5021 291.831 78.5037 291.815 78.5037C290.065 78.5037 288.605 76.9823 286.973 75.4648C285.437 76.7475 283.953 77.8404 282.579 77.8404C280.762 77.8404 278.964 76.1435 277.136 74.3341C277.149 74.3224 277.161 74.3099 277.174 74.2983C275.098 72.2427 272.981 70.0559 270.749 70.0559C269.338 70.0559 268.28 70.7447 267.334 71.681C268.653 74.8649 269.811 78.3845 271.759 78.4202C271.744 78.4206 271.73 78.4236 271.714 78.4236C269.748 78.4236 268.586 74.8815 267.26 71.681C265.243 73.6784 263.742 76.8062 260.44 76.8062C259.685 76.8062 259.047 76.2979 258.413 75.6005C258.419 75.5805 258.426 75.5611 258.432 75.5411C257.037 73.9828 255.647 71.5392 253.058 71.5392C248.437 71.5392 247.067 76.8239 244.593 79.3971C245.569 80.2813 246.626 80.906 247.851 80.9223C247.842 80.9226 247.834 80.9253 247.825 80.9253C246.579 80.9253 245.508 80.2933 244.519 79.3973C243.724 80.2247 242.815 80.7736 241.646 80.7736C238.652 80.7736 237.343 76.972 235.562 74.0501C235.579 74.0381 235.596 74.0249 235.614 74.0133C234.508 72.2078 233.218 70.7475 231.227 70.7475C228.9 70.7475 227.443 71.8472 226.297 73.3285C227.364 75.1957 228.535 77.1256 230.58 77.1502C230.568 77.1504 230.556 77.1525 230.544 77.1525C228.475 77.1525 227.297 75.2077 226.223 73.3285C223.844 76.4037 222.811 81.1308 218.157 81.1308C211.296 81.1308 214.47 74.1818 207.059 74.2422C206.531 74.2466 206.05 74.3726 205.605 74.5893C205.603 74.6058 205.6 74.6215 205.597 74.6379C204.157 75.3842 203.094 77.0778 202.052 78.6822C202.537 79.2165 202.976 79.6483 203.358 79.8374C203.475 79.8953 203.585 79.9129 203.691 79.9087C203.563 79.9308 203.428 79.9087 203.284 79.8374C202.902 79.6485 202.463 79.2166 201.978 78.6824C200.781 80.5245 199.608 82.2402 197.91 82.2402C195.79 82.2402 193.7 79.9157 191.601 77.8842C191.617 77.8743 191.632 77.8667 191.648 77.8566C190.184 76.4418 188.715 75.1793 187.229 74.9489C187.711 76.6547 188.373 78.2964 190.289 78.3246C190.28 78.3248 190.272 78.3273 190.263 78.3273C188.308 78.3273 187.64 76.6695 187.155 74.9489C186.996 74.9245 186.838 74.9073 186.68 74.9073C181.815 74.9073 181.341 80.9247 177.85 80.9247C172.818 80.9247 172.143 85.3994 168.843 85.3994C167.426 85.3994 166.228 85.9169 165.228 86.6933C165.229 86.7126 165.229 86.733 165.23 86.7526C162.292 89.0938 161.096 93.6536 161.096 93.6536H305.211C305.211 93.6536 309.235 82.3532 305.431 82.3532ZM251.938 78.1779C251.942 78.1777 251.946 78.1764 251.95 78.1764C254.04 78.1764 254.251 78.8974 256.041 78.9132C256.035 78.9134 256.03 78.9149 256.024 78.9149C254.198 78.9149 253.99 78.1928 251.938 78.1779Z" fill="#8791FF"/>
</g>
<path d="M195.578 113.487H201.916C202.699 113.487 203.333 112.846 203.333 112.056V102.382C203.333 101.592 202.699 100.951 201.916 100.951H195.578C194.796 100.951 194.161 101.592 194.161 102.382V112.056C194.161 112.846 194.796 113.487 195.578 113.487Z" fill="#8791FF"/>
<path d="M169.96 113.487H176.298C177.081 113.487 177.715 112.846 177.715 112.056V105.989C177.715 105.198 177.081 104.557 176.298 104.557H169.96C169.178 104.557 168.543 105.198 168.543 105.989V112.056C168.543 112.846 169.178 113.487 169.96 113.487Z" fill="#34D399"/>
<path d="M208.387 113.487H214.725C215.507 113.487 216.142 112.846 216.142 112.056V99.8016C216.142 99.0111 215.507 98.3702 214.725 98.3702H208.387C207.604 98.3702 206.97 99.0111 206.97 99.8016V112.056C206.97 112.846 207.604 113.487 208.387 113.487Z" fill="#34D399"/>
<path d="M182.77 113.487H189.107C189.89 113.487 190.524 112.846 190.524 112.056V101.34C190.524 100.55 189.89 99.9087 189.107 99.9087H182.77C181.987 99.9087 181.352 100.55 181.352 101.34V112.056C181.352 112.846 181.987 113.487 182.77 113.487Z" fill="#34D399"/>
</g>
</g>
<defs>
<filter id="filter0_d_268_3196" x="98" y="0" width="190" height="190" filterUnits="userSpaceOnUse" color-interpolation-filters="sRGB">
<feFlood flood-opacity="0" result="BackgroundImageFix"/>
<feColorMatrix in="SourceAlpha" type="matrix" values="0 0 0 0 0 0 0 0 0 0 0 0 0 0 0 0 0 0 127 0" result="hardAlpha"/>
<feOffset dy="4"/>
<feGaussianBlur stdDeviation="25"/>
<feComposite in2="hardAlpha" operator="out"/>
<feColorMatrix type="matrix" values="0 0 0 0 0.431373 0 0 0 0 0.905882 0 0 0 0 0.717647 0 0 0 0.4 0"/>
<feBlend mode="normal" in2="BackgroundImageFix" result="effect1_dropShadow_268_3196"/>
<feBlend mode="normal" in="SourceGraphic" in2="effect1_dropShadow_268_3196" result="shape"/>
</filter>
<clipPath id="clip0_268_3196">
<rect width="54.2079" height="51" fill="white" transform="translate(164.249 62.5)"/>
</clipPath>
</defs>
</svg>
