<svg width="386" height="21" viewBox="0 0 386 21" fill="none" xmlns="http://www.w3.org/2000/svg">
<path d="M94.4535 1.16626C93.6075 1.16626 92.9466 1.78288 92.9466 2.57215V9.00967H79.0139V2.57215C79.0139 1.78288 78.353 1.16626 77.507 1.16626C76.6609 1.16626 76 1.78288 76 2.57215V19.1716C76 19.9608 76.6609 20.5775 77.507 20.5775C78.353 20.5775 79.0139 19.9608 79.0139 19.1716V11.7228H92.9466V19.1716C92.9466 19.9608 93.6075 20.5775 94.4535 20.5775C95.2995 20.5775 95.9605 19.9608 95.9605 19.1716V2.57215C95.9605 1.78288 95.2995 1.16626 94.4535 1.16626Z" fill="#F7F7F8"/>
<path d="M106.562 1.16626C105.716 1.16626 105.055 1.78288 105.055 2.57215V19.1716C105.055 19.9608 105.716 20.5775 106.562 20.5775C107.408 20.5775 108.069 19.9608 108.069 19.1716V2.57215C108.069 1.78288 107.408 1.16626 106.562 1.16626Z" fill="#F7F7F8"/>
<path d="M131.81 10.8839C130.964 10.8839 130.303 11.4512 130.303 12.2405V16.2609C128.981 17.3461 127.263 17.9627 125.333 17.9627C121.156 17.9627 117.772 14.8056 117.772 10.9086C117.772 7.01155 121.156 3.85445 125.333 3.85445C127.448 3.85445 129.272 4.64373 130.673 5.95096C131.281 6.51825 132.233 6.46892 132.841 5.90163C133.449 5.33434 133.449 4.49574 132.841 3.92845C130.911 2.12791 128.294 1.04266 125.333 1.04266C119.464 1.04266 114.731 5.45767 114.731 10.9333C114.731 16.4088 119.464 20.8238 125.333 20.8238C128.294 20.8238 130.911 19.7633 132.841 17.9381C133.132 17.6667 133.317 17.1488 133.317 16.8035V12.3392C133.317 11.5005 132.656 10.8839 131.81 10.8839Z" fill="#F7F7F8"/>
<path d="M159.675 1.16626C158.829 1.16626 158.168 1.78288 158.168 2.57215V9.00967H144.235V2.57215C144.235 1.78288 143.574 1.16626 142.728 1.16626C141.882 1.16626 141.221 1.78288 141.221 2.57215V19.1716C141.221 19.9608 141.882 20.5775 142.728 20.5775C143.574 20.5775 144.235 19.9608 144.235 19.1716V11.7228H158.168V19.1716C158.168 19.9608 158.829 20.5775 159.675 20.5775C160.521 20.5775 161.182 19.9608 161.182 19.1716V2.57215C161.182 1.78288 160.521 1.16626 159.675 1.16626Z" fill="#F7F7F8"/>
<path d="M178.446 3.82983C180.561 3.82983 182.385 4.6191 183.787 5.92634C184.395 6.49363 185.373 6.4443 185.981 5.87701C186.589 5.30972 186.589 4.47111 185.981 3.90382C184.051 2.10329 181.434 1.01804 178.473 1.01804C172.603 1.01804 167.871 5.43304 167.871 10.9086C167.871 16.3842 172.603 20.7992 178.473 20.7992C181.434 20.7992 184.051 19.714 185.981 17.9134C186.589 17.3461 186.589 16.5075 185.981 15.9402C185.373 15.373 184.474 15.373 183.866 15.9402C182.465 17.2475 180.588 17.9628 178.473 17.9628C174.295 17.9628 170.911 14.8057 170.911 10.9086C170.859 6.98692 174.269 3.82983 178.446 3.82983Z" fill="#F7F7F8"/>
<path d="M211.547 1.16626C210.701 1.16626 210.04 1.78288 210.04 2.57215V9.00967H196.107V2.57215C196.107 1.78288 195.446 1.16626 194.6 1.16626C193.754 1.16626 193.093 1.78288 193.093 2.57215V19.1716C193.093 19.9608 193.754 20.5775 194.6 20.5775C195.446 20.5775 196.107 19.9608 196.107 19.1716V11.7228H210.04V19.1716C210.04 19.9608 210.701 20.5775 211.547 20.5775C212.393 20.5775 213.053 19.9608 213.053 19.1716V2.57215C213.08 1.78288 212.393 1.16626 211.547 1.16626Z" fill="#F7F7F8"/>
<path d="M232.3 2.3995C231.745 1.31425 230.661 1.16626 230.053 1.16626C229.445 1.16626 228.361 1.33891 227.806 2.3995L219.213 18.1603C219.028 18.5056 218.843 18.9496 218.843 19.3442C218.843 20.1335 219.398 20.5775 220.244 20.5775C220.852 20.5775 221.46 20.4048 221.883 19.6155L224.501 14.7072H235.578L238.248 19.6155C238.671 20.4048 239.28 20.5775 239.888 20.5775C240.734 20.5775 241.289 20.1335 241.289 19.3442C241.289 18.9496 241.104 18.5056 240.919 18.1603L232.3 2.3995ZM225.928 12.0188L230.053 4.39735L234.098 12.0188H225.928Z" fill="#F7F7F8"/>
<path d="M259.266 12.9068C262.28 12.3888 264.607 10.1443 264.607 7.13524C264.607 3.75616 261.646 1.26501 257.997 1.26501H248.533C247.687 1.26501 247.026 1.88164 247.026 2.67091V19.1717C247.026 19.9609 247.687 20.5776 248.533 20.5776C249.379 20.5776 250.04 20.0103 250.04 19.221V13.0055H255.38L262.518 20.0103C263.126 20.6269 264.289 20.7995 264.871 20.2323C265.479 19.7143 265.294 18.8264 264.739 18.3084L259.266 12.9068ZM250.066 10.317V3.97814H257.997C260.112 3.97814 261.566 5.33471 261.566 7.13524C261.566 8.93577 260.112 10.2923 257.997 10.2923H250.066V10.317Z" fill="#F7F7F8"/>
<path d="M288.955 1.28955H270.793C269.947 1.28955 269.286 1.85684 269.286 2.64612C269.286 3.43539 269.947 4.00268 270.793 4.00268H278.354V19.1962C278.354 19.9855 279.015 20.6021 279.861 20.6021C280.707 20.6021 281.368 19.9855 281.368 19.1962V4.00268H288.929C289.775 4.00268 290.436 3.43539 290.436 2.64612C290.462 1.83218 289.801 1.28955 288.955 1.28955Z" fill="#F7F7F8"/>
<path d="M307.436 2.39939C307.436 1.61012 306.775 0.9935 305.929 0.9935C302.413 0.9935 297.76 1.8321 297.76 8.9109V12.8573C297.76 17.3709 295.46 17.9382 292.605 17.9382C291.759 17.9382 291.098 18.5548 291.098 19.3441C291.098 20.1334 291.759 20.75 292.605 20.75C296.121 20.75 300.774 19.9114 300.774 12.8326V8.88624C300.774 4.37258 303.074 3.80529 305.929 3.80529C306.749 3.82995 307.436 3.18867 307.436 2.39939Z" fill="#F7F7F8"/>
<path d="M307.594 16.3103C306.272 16.3103 305.188 17.3216 305.188 18.5548C305.188 19.788 306.272 20.7993 307.594 20.7993C308.916 20.7993 310 19.788 310 18.5548C310 17.3216 308.916 16.3103 307.594 16.3103ZM307.594 20.3553C306.537 20.3553 305.664 19.5414 305.664 18.5548C305.664 17.5682 306.537 16.7543 307.594 16.7543C308.652 16.7543 309.524 17.5682 309.524 18.5548C309.498 19.5414 308.652 20.3553 307.594 20.3553Z" fill="#F7F7F8"/>
<path d="M308.229 18.7027C308.149 18.6287 308.07 18.604 307.991 18.5793C308.149 18.53 308.282 18.456 308.361 18.3574C308.44 18.2587 308.493 18.1354 308.493 17.9627C308.493 17.7407 308.414 17.5681 308.255 17.4694C308.097 17.3708 307.859 17.3214 307.515 17.3214H306.51V19.6893H307.171V18.8013H307.356C307.462 18.8013 307.541 18.826 307.621 18.8753C307.673 18.9247 307.753 18.9986 307.806 19.122L308.123 19.7139H308.81L308.467 19.048C308.387 18.8753 308.308 18.7767 308.229 18.7027ZM307.753 18.308C307.7 18.3574 307.594 18.382 307.462 18.382H307.198V17.7654H307.462C307.594 17.7654 307.7 17.7901 307.753 17.8394C307.806 17.8887 307.832 17.9627 307.832 18.0614C307.832 18.1847 307.806 18.2587 307.753 18.308Z" fill="#F7F7F8"/>
</svg>
