<?xml version="1.0" encoding="utf-8"?>
<!-- Generator: Adobe Illustrator 28.0.0, SVG Export Plug-In . SVG Version: 6.00 Build 0)  -->
<svg version="1.1" id="Layer_1" xmlns="http://www.w3.org/2000/svg" xmlns:xlink="http://www.w3.org/1999/xlink" x="0px" y="0px"
	 viewBox="0 0 311.2 85.3" style="enable-background:new 0 0 311.2 85.3;" xml:space="preserve">
<style type="text/css">
	.st0{opacity:0.1;}
	.st1{fill:#FCD34D;}
	.st2{opacity:0.2;}
</style>
<g class="st0">
	<path class="st1" d="M107.7,2.8l2.8,0.7l0.9-3.6h-3.7C107.7-0.1,107.7,2.8,107.7,2.8z M92.9,59.7v2.8h2.2l0.6-2.1L92.9,59.7z
		 M82.7,59.7L80,60.5l0.6,2.1h2.2L82.7,59.7L82.7,59.7z M73.2,25.6l2.7-0.8l0,0L73.2,25.6z M71.5,19.2l-2.8,0.6l0,0l0,0L71.5,19.2z
		 M70.8,15.9L68,16.4l0,0l0,0L70.8,15.9z M70.4,13.6l2.8-0.4l-5.7,0.1L70.4,13.6z M69.4,19.1l-2.8-0.6l0,0l0,0L69.4,19.1z
		 M68.7,22.6l2.8,0.7l0,0l0,0L68.7,22.6z M67.9,25.7l2.7,0.8l0,0l0,0L67.9,25.7z M58.5,59.7v2.8h2.2l0.6-2.1L58.5,59.7z M48.4,59.7
		l-2.8,0.7l0.6,2.1h2.2V59.7z M33.6,2.8V0h-3.7l0.9,3.6L33.6,2.8z M42.9,2.8l2.8-0.7L45.2,0H43L42.9,2.8L42.9,2.8z M51.1,36.2
		l2.8-0.7l0,0L51.1,36.2z M51.9,39.7l-2.8,0.6l0,0l0,0L51.9,39.7z M52.7,43.3l-2.8,0.5l0,0l0,0L52.7,43.3z M53.4,47l-2.8,0.5l0,0
		L53.4,47z M53.9,50.2l-2.8,0.4h5.6L53.9,50.2z M54.4,46.9l2.8,0.5l0,0L54.4,46.9z M55.1,43.2l-2.8-0.6l0,0l0,0L55.1,43.2z
		 M55.9,39.6l-2.8-0.7l0,0l0,0L55.9,39.6z M56.7,36.4l2.7,0.8l0,0l0,0L56.7,36.4z M66,2.8V0h-2.2l-0.6,2.1L66,2.8z M75.1,2.8L77.8,2
		l-0.6-2H75L75.1,2.8L75.1,2.8z M84.5,36.5l-2.7,0.8l0,0l0,0L84.5,36.5z M85.3,39.8l-2.8,0.6l0,0l0,0L85.3,39.8z M87.4,50.2
		l-2.8,0.4h5.6L87.4,50.2z M90.1,36.2l2.8,0.7l0,0l0,0L90.1,36.2z M98.3,2.8V0h-2.2l-0.5,2.2L98.3,2.8z M105,2.1L90.1,59l5.5,1.4
		l14.9-56.9L105,2.1z M92.9,56.9H82.7v5.7h10.2C92.9,62.6,92.9,56.9,92.9,56.9z M85.4,59l-9.5-34.1l-5.5,1.5l9.5,34.1L85.4,59z
		 M75.9,24.9c-0.2-0.8-0.5-1.8-0.8-2.9l-5.5,1.4c0.3,1.2,0.6,2.2,0.8,3L75.9,24.9z M75.2,22c-0.3-1.1-0.6-2.3-0.8-3.5l-5.5,1.3
		c0.3,1.2,0.6,2.4,0.9,3.5L75.2,22z M74.3,18.6c-0.3-1.2-0.5-2.3-0.7-3.2L68,16.5c0.2,1,0.4,2.1,0.7,3.3L74.3,18.6z M73.6,15.4
		c-0.2-1-0.3-1.7-0.4-2.2L67.6,14c0.1,0.6,0.2,1.4,0.4,2.4L73.6,15.4z M67.6,13.3c0,0.4-0.1,1.1-0.3,2l5.6,1c0.2-1,0.3-1.9,0.4-2.5
		L67.6,13.3z M67.3,15.4c-0.2,1-0.4,2-0.6,3.2l5.6,1.2c0.3-1.2,0.5-2.3,0.7-3.4L67.3,15.4z M66.6,18.6c-0.2,1.1-0.5,2.3-0.8,3.4
		l5.5,1.4c0.3-1.2,0.6-2.4,0.8-3.6L66.6,18.6z M65.9,22c-0.3,1.1-0.5,2.1-0.8,3l5.5,1.5c0.2-0.9,0.5-1.9,0.8-3.1L65.9,22z
		 M65.1,24.9l-9.3,34l5.5,1.5l9.3-34L65.1,24.9z M58.5,56.9H48.4v5.7h10.2v-5.7H58.5z M51.1,59L36.3,2.1l-5.5,1.4l14.8,56.9L51.1,59
		z M33.6,5.7H43V0h-9.4V5.7z M40.2,3.5l8.2,33.3l5.5-1.4L45.7,2.2L40.2,3.5z M48.4,36.9c0.3,1,0.5,2.2,0.8,3.4l5.6-1.2
		c-0.3-1.3-0.5-2.5-0.8-3.6L48.4,36.9z M49.2,40.3c0.3,1.2,0.5,2.4,0.8,3.6l5.6-1c-0.2-1.3-0.5-2.6-0.8-3.8L49.2,40.3z M49.9,43.9
		c0.3,1.2,0.5,2.4,0.7,3.6l5.6-1c-0.2-1.2-0.5-2.5-0.7-3.8L49.9,43.9z M50.6,47.5c0.2,1.1,0.4,2.2,0.5,3.1l5.6-0.8
		c-0.1-1-0.3-2.1-0.5-3.3L50.6,47.5z M56.7,50.6c0.1-0.9,0.3-2,0.5-3.2l-5.6-1c-0.2,1.2-0.4,2.4-0.5,3.4L56.7,50.6z M57.2,47.4
		c0.2-1.2,0.4-2.4,0.7-3.6l-5.6-1c-0.2,1.3-0.5,2.5-0.7,3.7L57.2,47.4z M57.9,43.8c0.3-1.3,0.5-2.5,0.8-3.6L53.1,39
		c-0.3,1.2-0.5,2.4-0.8,3.7L57.9,43.8z M58.6,40.2c0.3-1.1,0.5-2.1,0.8-3L54,35.6c-0.3,1-0.6,2.1-0.9,3.3L58.6,40.2z M59.5,37.2
		l9.3-33.6l-5.5-1.5L54,35.7L59.5,37.2z M66,5.7h9.1V0H66V5.7z M72.3,3.6l9.5,33.7l5.5-1.5L77.8,2.1L72.3,3.6z M81.8,37.3
		c0.3,0.9,0.5,1.9,0.8,3l5.6-1.2c-0.3-1.2-0.6-2.4-0.9-3.4L81.8,37.3z M82.6,40.4c0.3,1.2,0.5,2.4,0.8,3.6l5.6-1.2
		c-0.3-1.3-0.5-2.5-0.8-3.7L82.6,40.4z M83.4,44c0.3,1.2,0.5,2.4,0.7,3.5l5.6-1c-0.2-1.2-0.5-2.4-0.7-3.7L83.4,44z M84.1,47.5
		c0.2,1.1,0.4,2.2,0.5,3l5.6-0.8c-0.1-1-0.3-2.1-0.5-3.3L84.1,47.5z M90.2,50.6c0.2-1.2,0.4-2.7,0.7-4.3l-5.6-1
		c-0.3,1.7-0.5,3.1-0.7,4.4L90.2,50.6z M90.9,46.3c0.3-1.6,0.6-3.2,1-4.9l-5.6-1.2c-0.4,1.7-0.7,3.4-1,5.1L90.9,46.3z M91.8,41.5
		c0.4-1.7,0.7-3.2,1.1-4.6l-5.5-1.4c-0.4,1.5-0.7,3.1-1.1,4.8L91.8,41.5z M92.9,36.9l8.2-33.3l-5.5-1.4l-8.2,33.3L92.9,36.9z
		 M98.3,5.7h9.4V0h-9.4V5.7z M167.1,59.7v2.8h2.8v-2.8H167.1z M134.9,59.7H132v2.8h2.8L134.9,59.7L134.9,59.7z M134.9,2.8V0H132v2.8
		H134.9z M167.1,2.8h2.8V0h-2.8V2.8z M167.1,10.7v2.8h2.8v-2.8H167.1z M144.2,10.7V7.9h-2.8v2.8H144.2z M144.2,26.2h-2.8V29h2.8
		V26.2z M165.7,26.2h2.8v-2.8h-2.8V26.2z M165.7,34v2.8h2.8V34H165.7z M144.2,34v-2.8h-2.8V34H144.2z M144.2,51.8h-2.8v2.8h2.8V51.8
		z M167.1,51.8h2.8V49h-2.8V51.8z M167.1,56.9h-32.2v5.7h32.2V56.9z M137.7,59.7V2.8H132v56.9H137.7z M134.9,5.7h32.2V0h-32.2V5.7z
		 M164.3,2.8v7.9h5.7V2.8H164.3z M167.1,7.9h-22.9v5.7h22.9V7.9z M141.4,10.7v15.4h5.7V10.7H141.4z M144.2,29h21.4v-5.7h-21.4V29z
		 M162.8,26.2V34h5.7v-7.8H162.8z M165.7,31.1h-21.4v5.7h21.4V31.1z M141.4,34v17.9h5.7V34H141.4z M144.2,54.7h22.9V49h-22.9V54.7z
		 M164.3,51.8v7.9h5.7v-7.9H164.3z M230.7,59.7v2.8h2.8v-2.8H230.7z M198.5,59.7h-2.8v2.8h2.8V59.7z M198.5,2.8V0h-2.8v2.8H198.5z
		 M230.7,2.8h2.8V0h-2.8V2.8z M230.7,10.7v2.8h2.8v-2.8H230.7z M207.9,10.7V7.9H205v2.8H207.9z M207.9,26.2H205V29h2.8L207.9,26.2
		L207.9,26.2z M229.3,26.2h2.8v-2.8h-2.8V26.2z M229.3,34v2.8h2.8V34H229.3z M207.9,34v-2.8H205V34H207.9z M207.9,51.8H205v2.8h2.8
		L207.9,51.8L207.9,51.8z M230.7,51.8h2.8V49h-2.8V51.8z M230.7,56.9h-32.2v5.7h32.2V56.9z M201.4,59.7V2.8h-5.7v56.9H201.4z
		 M198.5,5.7h32.2V0h-32.2V5.7z M227.9,2.8v7.9h5.7V2.8H227.9z M230.7,7.9h-22.9v5.7h22.9V7.9z M205,10.7v15.4h5.7V10.7H205z
		 M207.9,29h21.4v-5.7h-21.4V29z M226.5,26.2V34h5.7v-7.8H226.5z M229.3,31.1h-21.4v5.7h21.4V31.1z M205,34v17.9h5.7V34H205z
		 M207.9,54.7h22.9V49h-22.9V54.7z M227.9,51.8v7.9h5.7v-7.9H227.9z M305.5,59.7v2.8h5.4l-3-4.4L305.5,59.7z M294.8,59.7l-2.3,1.6
		l0.8,1.2h1.5V59.7z M277.1,33.9l2.3-1.6l-1.7-2.5l-2.4,1.9L277.1,33.9z M271.5,38.4l-1.8-2.2l-1.1,0.9v1.4h2.9V38.4z M271.5,59.7
		v2.8h2.8v-2.8H271.5z M262.2,59.7h-2.8v2.8h2.8V59.7z M262.2,2.8V0h-2.8v2.8H262.2z M271.5,2.8h2.8V0h-2.8V2.8z M271.5,30h-2.8v8
		l5.1-6.2L271.5,30z M278.5,21.6l-2.2-1.8l0,0l0,0L278.5,21.6z M294.5,2.8V0h-1.3l-0.9,1L294.5,2.8z M305,2.8l2.2,1.8l4-4.7H305V2.8
		z M283.8,27.7l-2.2-1.8l-1.4,1.7l1.2,1.8L283.8,27.7z M305.5,56.9h-10.7v5.7h10.7V56.9z M297.1,58.1l-17.7-25.8l-4.7,3.2l17.7,25.8
		L297.1,58.1z M275.3,31.7l-5.6,4.6l3.6,4.4l5.6-4.6L275.3,31.7z M268.6,38.4v21.3h5.7V38.4H268.6z M271.5,56.9h-9.3v5.7h9.3V56.9z
		 M265,59.7V2.8h-5.7v56.9H265z M262.2,5.7h9.3V0h-9.3V5.7z M268.6,2.8V30h5.7V2.8H268.6z M273.7,31.8c1.1-1.4,2.3-2.8,3.4-4.2
		l-4.4-3.6c-1.2,1.4-2.3,2.8-3.5,4.2L273.7,31.8z M277.1,27.7L277.1,27.7C277.2,27.7,277.2,27.6,277.1,27.7
		C277.2,27.6,277.2,27.6,277.1,27.7C277.2,27.6,277.2,27.6,277.1,27.7C277.2,27.6,277.2,27.6,277.1,27.7
		C277.2,27.6,277.2,27.6,277.1,27.7C277.2,27.6,277.2,27.6,277.1,27.7C277.2,27.6,277.2,27.6,277.1,27.7
		C277.2,27.6,277.2,27.6,277.1,27.7C277.2,27.6,277.2,27.6,277.1,27.7C277.2,27.6,277.2,27.6,277.1,27.7
		C277.2,27.6,277.2,27.6,277.1,27.7c0.1-0.1,0.1-0.1,0.1-0.1l0,0l0,0l0,0l0,0l0,0l0,0l0,0l0,0l0,0l0,0l0,0l0,0l0,0l0,0l0,0l0,0l0,0
		l0,0l0,0l0,0l0,0l0,0l0,0l0,0l0,0l0,0l0,0l0,0l0,0l0,0l0,0l0,0l0,0l0,0l0,0l0,0l0,0l0,0l0,0l0,0l0,0l0,0l0,0l0,0l0,0l0,0l0,0l0,0
		l0,0l0,0l0,0l0,0l0,0l0,0l0,0l0,0l0,0l0,0l0,0l0,0l0,0l0,0l0,0l0,0l0,0l0,0l0,0l0,0l0,0l0,0l0,0l0,0l0,0l0,0l0,0l0,0l0,0l0,0l0,0
		l0,0l0,0l0,0l0,0l0,0l0,0l0,0l0,0l0,0l0,0l0,0l0,0l0,0l0,0l0,0l0,0l0,0l0,0l0,0l0,0l0,0l0,0l0,0l0,0l0,0l0,0l0,0l0,0l0,0l0,0l0,0
		l0,0l0,0l0,0l0,0l0,0l0,0l0,0l0,0l0,0l0,0l0,0l0,0l0,0l0,0l0,0l0,0l0,0l0,0l0,0l0,0l0,0l0,0l0,0l0,0l0,0l0,0l0,0l0,0l0,0l0,0l0,0
		l0,0l0,0l0,0l0,0l0,0l0,0l0,0l0,0l0,0l0,0l0,0l0,0l0,0l0,0l0,0l0,0l0,0l0,0l0,0l0,0l0,0l0,0l0,0l0,0l0,0l0,0l0,0l0,0l0,0l0,0l0,0
		l0,0l0,0l0,0l0,0l0,0l0,0l0,0l0,0l0,0l0,0l0,0l0,0l0,0l0,0l0,0l0,0l0,0l0,0l0,0l0,0l0,0l0,0l0,0l0,0l0,0l0,0l0,0l0,0l0,0l0,0l0,0
		l0,0l0,0l0,0l0,0l0,0l0,0l0,0l0,0l0,0l0,0l0,0l0,0l0,0l0,0l0,0l0,0l0,0l0,0l0,0l0,0l0,0l0,0l0,0l0,0l0,0l0,0l0,0l0,0l0,0l0,0l0,0
		l0,0l0,0l0,0l0,0l0,0l0,0l0,0l0,0l0,0l0,0l0,0l0,0l0,0l0,0l0,0l0,0l0,0l0,0l0,0l0,0l0,0l0,0l0,0l0,0l0,0l0,0l0,0l0,0l0,0l0,0l0,0
		l0,0l0,0l0,0l0,0l0,0l0,0l0,0l0,0l0,0l0,0l0,0l0,0l0,0l0,0l0,0l0,0l0,0l0,0l0,0l0,0l0,0l0,0l0,0l0,0l0,0l0,0l0,0l0,0l0,0l0,0l0,0
		l0,0l0,0l0,0l0,0l0,0l0,0l0,0l0,0l0,0l0,0l0,0l0,0l0,0l0,0l0,0l0,0l0,0l0,0l0,0l0,0l0,0l0,0l0,0l0,0l0,0l0,0l0,0l0,0l0,0l0,0l0,0
		l0,0l0,0l0,0l0,0l0,0l0,0l0,0l0,0l0,0l0,0l0,0l0,0l0,0l0,0l0,0l0,0l0,0l0,0l0,0l0,0l0,0l0,0l0,0l0,0l0,0l0,0l0,0l0,0l0,0l0,0l0,0
		l0,0l0,0l0,0l0,0l0,0l0,0l0,0l0,0l0,0l0,0l0,0l0,0l0,0l0,0l0,0l0,0l0,0l0,0l0,0l0,0l0,0l0,0l0,0l0,0l0,0l0,0l0,0l0,0l0,0l0,0l0,0
		l0,0l0,0l0,0l0,0l0,0l0,0l0,0l0,0l0,0l0,0l0,0l0,0l0,0l0,0l0,0l0,0l0,0l0,0l0,0l0,0l0,0l0,0l0,0l0,0l0,0l0,0l0,0l0,0l0,0l0,0l0,0
		l0,0l0,0l0,0l0,0l0,0l0,0l0,0l0,0l0,0l0,0l0,0l0,0l0,0l0,0l0,0l0,0l0,0l0,0l0,0l0,0l0,0l0,0l0,0l0,0l0,0l0,0l0,0l0,0l0,0l0,0l0,0
		l0,0l0,0l0,0l0,0l0,0l0,0l0,0l0,0l0,0l0,0l0,0l0,0l0,0l0,0l0,0l0,0l0,0l0,0l0,0l0,0l0,0l0,0l0,0l0,0l0,0l0,0l0,0l0,0l0,0l0,0l0,0
		l0,0l0,0l0,0l0,0l0,0l0,0l0,0l0,0l0,0l0,0l0,0l0,0l0,0l0,0l0,0l0,0l0,0l-4.4-3.6l0,0l0,0l0,0l0,0l0,0l0,0l0,0l0,0l0,0l0,0l0,0l0,0
		l0,0l0,0l0,0l0,0l0,0l0,0l0,0l0,0l0,0l0,0l0,0l0,0l0,0l0,0l0,0l0,0l0,0l0,0l0,0l0,0l0,0l0,0l0,0l0,0l0,0l0,0l0,0l0,0l0,0l0,0l0,0
		l0,0l0,0l0,0l0,0l0,0l0,0l0,0l0,0l0,0l0,0l0,0l0,0l0,0l0,0l0,0l0,0l0,0l0,0l0,0l0,0l0,0l0,0l0,0l0,0l0,0l0,0l0,0l0,0l0,0l0,0l0,0
		l0,0l0,0l0,0l0,0l0,0l0,0l0,0l0,0l0,0l0,0l0,0l0,0l0,0l0,0l0,0l0,0l0,0l0,0l0,0l0,0l0,0l0,0l0,0l0,0l0,0l0,0l0,0l0,0l0,0l0,0l0,0
		l0,0l0,0l0,0l0,0l0,0l0,0l0,0l0,0l0,0l0,0l0,0l0,0l0,0l0,0l0,0l0,0l0,0l0,0l0,0l0,0l0,0l0,0l0,0l0,0l0,0l0,0l0,0l0,0l0,0l0,0l0,0
		l0,0l0,0l0,0l0,0l0,0l0,0l0,0l0,0l0,0l0,0l0,0l0,0l0,0l0,0l0,0l0,0l0,0l0,0l0,0l0,0l0,0l0,0l0,0l0,0l0,0l0,0l0,0l0,0l0,0l0,0l0,0
		l0,0l0,0l0,0l0,0l0,0l0,0l0,0l0,0l0,0l0,0l0,0l0,0l0,0l0,0l0,0l0,0l0,0l0,0l0,0l0,0l0,0l0,0l0,0l0,0l0,0l0,0l0,0l0,0l0,0l0,0l0,0
		l0,0l0,0l0,0l0,0l0,0l0,0l0,0l0,0l0,0l0,0l0,0l0,0l0,0l0,0l0,0l0,0l0,0l0,0l0,0l0,0l0,0l0,0l0,0l0,0l0,0l0,0l0,0l0,0l0,0l0,0l0,0
		l0,0l0,0l0,0l0,0l0,0l0,0l0,0l0,0l0,0l0,0l0,0l0,0l0,0l0,0l0,0l0,0l0,0l0,0l0,0l0,0l0,0l0,0l0,0l0,0l0,0l0,0l0,0l0,0l0,0l0,0l0,0
		l0,0l0,0l0,0l0,0l0,0l0,0l0,0l0,0l0,0l0,0l0,0l0,0l0,0l0,0l0,0l0,0l0,0l0,0l0,0l0,0l0,0l0,0l0,0l0,0l0,0l0,0l0,0l0,0l0,0l0,0l0,0
		l0,0l0,0l0,0l0,0l0,0l0,0l0,0l0,0l0,0l0,0l0,0l0,0l0,0l0,0l0,0l0,0l0,0l0,0l0,0l0,0l0,0l0,0l0,0l0,0l0,0l0,0l0,0l0,0l0,0l0,0l0,0
		l0,0l0,0l0,0l0,0l0,0l0,0l0,0l0,0l0,0l0,0l0,0l0,0l0,0l0,0l0,0l0,0l0,0l0,0l0,0l0,0l0,0l0,0l0,0l0,0l0,0l0,0l0,0l0,0l0,0l0,0l0,0
		l0,0l0,0l0,0l0,0l0,0l0,0l0,0l0,0l0,0l0,0l0,0l0,0l0,0l0,0l0,0l0,0l0,0l0,0l0,0l0,0l0,0l0,0l0,0l0,0l0,0l0,0l0,0l0,0l0,0l0,0l0,0
		l0,0l0,0l0,0l0,0l0,0l0,0l0,0l0,0l0,0l0,0l0,0l0,0l0,0l0,0l0,0l0,0l0,0l0,0l0,0l0,0l0,0l0,0l0,0l0,0l0,0l0,0l0,0l0,0l0,0l0,0l0,0
		l0,0l0,0l0,0l0,0l0,0l0,0l0,0l0,0l0,0l0,0l0,0l0,0l0,0l0,0l0,0l0,0l0,0l0,0l0,0l0,0l0,0l0,0l0,0l0,0l0,0l0,0l0,0l0,0l0,0l0,0l0,0
		l0,0l0,0l0,0l0,0l0,0l0,0l0,0l0,0l0,0l0,0l0,0l0,0l0,0l0,0l0,0l0,0l0,0l0,0l0,0l0,0l0,0l0,0l0,0l0,0l0,0l0,0l0,0l0,0l0,0l0,0l0,0
		l0,0l0,0l0,0l0,0l0,0l0,0l0,0l0,0l0,0l0,0l0,0l0,0l0,0l0,0l0,0l0,0l0,0l0,0l0,0l0,0l0,0l0,0l0,0l0,0l0,0l0,0l0,0l0,0l0,0l0,0l0,0
		l0,0l0,0l0,0l0,0L277.1,27.7z M280.6,23.5l16-18.8L292.3,1l-16,18.8L280.6,23.5z M294.5,5.7H305V0h-10.5V5.7z M302.9,1l-21.2,24.9
		l4.3,3.7l21.2-24.9L302.9,1z M281.4,29.3l21.7,32l4.7-3.2l-21.7-32L281.4,29.3z"/>
</g>
<g class="st2">
	<path class="st1" d="M92.1,15.7l2.8,0.7l0.9-3.6h-3.7C92.1,12.8,92.1,15.7,92.1,15.7z M77.2,72.5v2.8h2.2l0.6-2.1L77.2,72.5z
		 M67,72.5l-2.7,0.8l0.6,2.1H67V72.5z M57.5,38.5l2.7-0.8l0,0L57.5,38.5z M55.9,32l-2.8,0.6l0,0l0,0L55.9,32z M55.2,28.7l-2.8,0.5
		l0,0l0,0L55.2,28.7z M54.8,26.4l2.8-0.4L52,26.1L54.8,26.4z M53.8,32L51,31.3l0,0l0,0L53.8,32z M53,35.5l2.8,0.7l0,0l0,0L53,35.5z
		 M52.2,38.5l2.7,0.8l0,0l0,0L52.2,38.5z M42.9,72.5v2.8h2.2l0.6-2.1L42.9,72.5z M32.7,72.5L30,73.2l0.6,2.1h2.2L32.7,72.5
		L32.7,72.5z M17.9,15.7v-2.8h-3.7l0.9,3.6L17.9,15.7z M27.3,15.7l2.8-0.7l-0.5-2.2h-2.2L27.3,15.7L27.3,15.7z M35.5,49l2.8-0.7l0,0
		L35.5,49z M36.3,52.5L33.5,53l0,0l0,0L36.3,52.5z M37.1,56.2l-2.8,0.5l0,0l0,0L37.1,56.2z M37.8,59.8L35,60.3l0,0L37.8,59.8z
		 M38.3,63l-2.8,0.4h5.6L38.3,63z M38.8,59.7l2.8,0.5l0,0L38.8,59.7z M39.4,56l-2.8-0.6l0,0l0,0L39.4,56z M40.2,52.4l-2.8-0.7l0,0
		l0,0L40.2,52.4z M41.1,49.2l2.7,0.8l0,0l0,0L41.1,49.2z M50.3,15.7v-2.8h-2.2L47.5,15L50.3,15.7z M59.4,15.7l2.7-0.8l-0.6-2.1h-2.2
		L59.4,15.7L59.4,15.7z M68.9,49.3l-2.7,0.8l0,0l0,0L68.9,49.3z M69.7,52.6l-2.8,0.6l0,0l0,0L69.7,52.6z M71.7,63l-2.8,0.4h5.6
		L71.7,63z M74.5,49l2.8,0.7l0,0l0,0L74.5,49z M82.7,15.7v-2.8h-2.2L79.9,15L82.7,15.7z M89.3,14.9L74.5,71.8l5.5,1.4l14.9-56.9
		L89.3,14.9z M77.2,69.7H67v5.7h10.2V69.7z M69.8,71.8l-9.5-34.1l-5.5,1.5l9.5,34.1L69.8,71.8z M60.3,37.7c-0.2-0.8-0.5-1.8-0.8-2.9
		L54,36.2c0.3,1.2,0.6,2.2,0.8,3L60.3,37.7z M59.5,34.8c-0.3-1.1-0.6-2.3-0.8-3.5l-5.5,1.3c0.3,1.2,0.6,2.4,0.9,3.5L59.5,34.8z
		 M58.7,31.4c-0.3-1.2-0.5-2.3-0.7-3.2l-5.6,1.2c0.2,1,0.4,2.1,0.7,3.3L58.7,31.4z M58,28.2c-0.2-1-0.3-1.7-0.4-2.2L52,26.8
		c0.1,0.6,0.2,1.4,0.4,2.4L58,28.2z M52,26.1c0,0.4-0.1,1.1-0.3,2l5.6,1c0.2-1,0.3-1.9,0.4-2.5L52,26.1z M51.6,28.2
		c-0.2,1-0.4,2-0.6,3.2l5.6,1.2c0.3-1.2,0.5-2.3,0.7-3.4L51.6,28.2z M51,31.4c-0.2,1.1-0.5,2.3-0.8,3.4l5.5,1.4
		c0.3-1.2,0.6-2.4,0.8-3.6L51,31.4z M50.2,34.8c-0.3,1.1-0.5,2.1-0.8,3l5.5,1.5c0.2-0.9,0.5-1.9,0.8-3.1L50.2,34.8z M49.5,37.7
		l-9.3,34l5.5,1.5l9.3-34L49.5,37.7z M42.9,69.7H32.7v5.7h10.2V69.7z M35.5,71.8L20.7,14.9l-5.5,1.4L30,73.2L35.5,71.8z M17.9,18.5
		h9.4v-5.7h-9.4V18.5z M24.5,16.3l8.2,33.3l5.5-1.4L30.1,15L24.5,16.3z M32.7,49.7c0.3,1,0.5,2.2,0.8,3.4l5.6-1.2
		c-0.3-1.3-0.5-2.5-0.8-3.6L32.7,49.7z M33.5,53.1c0.3,1.2,0.5,2.4,0.8,3.6l5.6-1c-0.2-1.3-0.5-2.6-0.8-3.8L33.5,53.1z M34.3,56.7
		c0.3,1.2,0.5,2.4,0.7,3.6l5.6-1c-0.2-1.2-0.5-2.5-0.7-3.8L34.3,56.7z M35,60.3c0.2,1.1,0.4,2.2,0.5,3.1l5.6-0.8
		c-0.1-1-0.3-2.1-0.5-3.3L35,60.3z M41.1,63.4c0.1-0.9,0.3-2,0.5-3.2l-5.6-1c-0.2,1.2-0.4,2.4-0.5,3.4L41.1,63.4z M41.6,60.2
		c0.2-1.2,0.4-2.4,0.7-3.6l-5.6-1c-0.2,1.3-0.5,2.5-0.7,3.7L41.6,60.2z M42.2,56.6c0.3-1.3,0.5-2.5,0.8-3.6l-5.6-1.2
		c-0.3,1.2-0.5,2.4-0.8,3.7L42.2,56.6z M43,53.1c0.3-1.1,0.5-2.1,0.8-3l-5.4-1.7c-0.3,1-0.6,2.1-0.9,3.3L43,53.1z M43.8,50l9.3-33.6
		l-5.5-1.5l-9.3,33.6L43.8,50z M50.3,18.5h9.1v-5.7h-9.1C50.3,12.8,50.3,18.5,50.3,18.5z M56.7,16.4l9.5,33.7l5.5-1.5l-9.5-33.7
		L56.7,16.4z M66.1,50.2c0.3,0.9,0.5,1.9,0.8,3l5.6-1.2c-0.3-1.2-0.6-2.4-0.9-3.4L66.1,50.2z M66.9,53.2c0.3,1.2,0.5,2.4,0.8,3.6
		l5.6-1.2c-0.3-1.3-0.5-2.5-0.8-3.7L66.9,53.2z M67.7,56.8c0.3,1.2,0.5,2.4,0.7,3.5l5.6-1c-0.2-1.2-0.5-2.4-0.7-3.7L67.7,56.8z
		 M68.4,60.3c0.2,1.1,0.4,2.2,0.5,3l5.6-0.8c-0.1-1-0.3-2.1-0.5-3.3L68.4,60.3z M74.5,63.4c0.2-1.2,0.4-2.7,0.7-4.3l-5.6-1
		c-0.3,1.7-0.5,3.1-0.7,4.4L74.5,63.4z M75.2,59.1c0.3-1.6,0.6-3.2,1-4.9L70.6,53c-0.4,1.7-0.7,3.4-1,5.1L75.2,59.1z M76.2,54.3
		c0.4-1.7,0.7-3.2,1.1-4.6l-5.5-1.4c-0.4,1.5-0.7,3.1-1.1,4.8L76.2,54.3z M77.2,49.7l8.2-33.3L79.9,15l-8.2,33.3L77.2,49.7z
		 M82.7,18.5h9.4v-5.7h-9.4V18.5z M151.5,72.5v2.8h2.8v-2.8H151.5z M119.2,72.5h-2.8v2.8h2.8V72.5z M119.2,15.7v-2.8h-2.8v2.8H119.2
		z M151.5,15.7h2.8v-2.8h-2.8V15.7z M151.5,23.5v2.8h2.8v-2.8H151.5z M128.6,23.5v-2.8h-2.8v2.8H128.6z M128.6,39h-2.8v2.8h2.8V39z
		 M150,39h2.8v-2.8H150V39z M150,46.8v2.8h2.8v-2.8H150z M128.6,46.8V44h-2.8v2.8H128.6z M128.6,64.6h-2.8v2.8h2.8V64.6z
		 M151.5,64.6h2.8v-2.8h-2.8V64.6z M151.5,69.7h-32.2v5.7h32.2V69.7z M122.1,72.5V15.7h-5.7v56.9L122.1,72.5L122.1,72.5z
		 M119.2,18.5h32.2v-5.7h-32.2V18.5z M148.6,15.7v7.9h5.7v-7.9C154.3,15.7,148.6,15.7,148.6,15.7z M151.5,20.7h-22.9v5.7h22.9V20.7z
		 M125.7,23.5V39h5.7V23.5H125.7z M128.6,41.8H150v-5.7h-21.4V41.8z M147.2,39v7.8h5.7V39H147.2z M150,43.9h-21.4v5.7H150V43.9z
		 M125.7,46.8v17.9h5.7V46.8H125.7z M128.6,67.5h22.9v-5.7h-22.9V67.5z M148.6,64.6v7.9h5.7v-7.9H148.6z M215.1,72.5v2.8h2.8v-2.8
		H215.1z M182.9,72.5H180v2.8h2.8L182.9,72.5L182.9,72.5z M182.9,15.7v-2.8H180v2.8H182.9z M215.1,15.7h2.8v-2.8h-2.8V15.7z
		 M215.1,23.5v2.8h2.8v-2.8H215.1z M192.2,23.5v-2.8h-2.8v2.8H192.2z M192.2,39h-2.8v2.8h2.8V39z M213.6,39h2.8v-2.8h-2.8V39z
		 M213.6,46.8v2.8h2.8v-2.8H213.6z M192.2,46.8V44h-2.8v2.8H192.2z M192.2,64.6h-2.8v2.8h2.8V64.6z M215.1,64.6h2.8v-2.8h-2.8V64.6z
		 M215.1,69.7h-32.2v5.7h32.2V69.7z M185.7,72.5V15.7H180v56.9L185.7,72.5L185.7,72.5z M182.9,18.5h32.2v-5.7h-32.2V18.5z
		 M212.2,15.7v7.9h5.7v-7.9C217.9,15.7,212.2,15.7,212.2,15.7z M215.1,20.7h-22.9v5.7h22.9V20.7z M189.4,23.5V39h5.7V23.5H189.4z
		 M192.2,41.8h21.4v-5.7h-21.4V41.8z M210.8,39v7.8h5.7V39H210.8z M213.6,43.9h-21.4v5.7h21.4V43.9z M189.4,46.8v17.9h5.7V46.8
		H189.4z M192.2,67.5h22.9v-5.7h-22.9V67.5z M212.2,64.6v7.9h5.7v-7.9H212.2z M289.9,72.5v2.8h5.4l-3-4.4L289.9,72.5z M279.1,72.5
		l-2.3,1.6l0.8,1.2h1.5V72.5z M261.4,46.7l2.3-1.6l-1.7-2.5l-2.4,1.9L261.4,46.7z M255.8,51.3L254,49l-1.1,0.9v1.4
		C252.9,51.3,255.8,51.3,255.8,51.3z M255.8,72.5v2.8h2.8v-2.8H255.8z M246.5,72.5h-2.8v2.8h2.8V72.5z M246.5,15.7v-2.8h-2.8v2.8
		H246.5z M255.8,15.7h2.8v-2.8h-2.8V15.7z M255.8,42.8H253v8l5.1-6.2L255.8,42.8z M262.8,34.4l-2.2-1.8l0,0l0,0L262.8,34.4z
		 M278.8,15.7v-2.8h-1.3l-0.9,1L278.8,15.7z M289.4,15.7l2.2,1.8l4-4.7h-6.2V15.7z M268.1,40.6l-2.2-1.8l-1.4,1.7l1.2,1.8
		L268.1,40.6z M289.9,69.7h-10.7v5.7h10.7V69.7z M281.5,70.9l-17.7-25.8l-4.7,3.2l17.7,25.8L281.5,70.9z M259.7,44.5L254,49l3.6,4.4
		l5.6-4.6L259.7,44.5z M253,51.3v21.3h5.7V51.3H253z M255.8,69.7h-9.3v5.7h9.3V69.7z M249.4,72.5V15.7h-5.7v56.9L249.4,72.5
		L249.4,72.5z M246.5,18.5h9.3v-5.7h-9.3V18.5z M253,15.7v27.2h5.7V15.7H253z M258,44.6c1.1-1.4,2.3-2.8,3.4-4.2l-4.4-3.6
		c-1.2,1.4-2.3,2.8-3.5,4.2L258,44.6z M261.5,40.5L261.5,40.5L261.5,40.5C261.5,40.4,261.5,40.4,261.5,40.5
		C261.5,40.4,261.5,40.4,261.5,40.5C261.5,40.4,261.5,40.4,261.5,40.5C261.5,40.4,261.5,40.4,261.5,40.5
		C261.5,40.4,261.5,40.4,261.5,40.5C261.5,40.4,261.5,40.4,261.5,40.5C261.5,40.4,261.6,40.4,261.5,40.5
		C261.6,40.4,261.6,40.4,261.5,40.5C261.6,40.4,261.6,40.4,261.5,40.5C261.6,40.4,261.6,40.4,261.5,40.5c0.1-0.1,0.1-0.1,0.1-0.1
		l0,0l0,0l0,0l0,0l0,0l0,0l0,0l0,0l0,0l0,0l0,0l0,0l0,0l0,0l0,0l0,0l0,0l0,0l0,0l0,0l0,0l0,0l0,0l0,0l0,0l0,0l0,0l0,0l0,0l0,0l0,0
		l0,0l0,0l0,0l0,0l0,0l0,0l0,0l0,0l0,0l0,0l0,0l0,0l0,0l0,0l0,0l0,0l0,0l0,0l0,0l0,0l0,0l0,0l0,0l0,0l0,0l0,0l0,0l0,0l0,0l0,0l0,0
		l0,0l0,0l0,0l0,0l0,0l0,0l0,0l0,0l0,0l0,0l0,0l0,0l0,0l0,0l0,0l0,0l0,0l0,0l0,0l0,0l0,0l0,0l0,0l0,0l0,0l0,0l0,0l0,0l0,0l0,0l0,0
		l0,0l0,0l0,0l0,0l0,0l0,0l0,0l0,0l0,0l0,0l0,0l0,0l0,0l0,0l0,0l0,0l0,0l0,0l0,0l0,0l0,0l0,0l0,0l0,0l0,0l0,0l0,0l0,0l0,0l0,0l0,0
		l0,0l0,0l0,0l0,0l0,0l0,0l0,0l0,0l0,0l0,0l0,0l0,0l0,0l0,0l0,0l0,0l0,0l0,0l0,0l0,0l0,0l0,0l0,0l0,0l0,0l0,0l0,0l0,0l0,0l0,0l0,0
		l0,0l0,0l0,0l0,0l0,0l0,0l0,0l0,0l0,0l0,0l0,0l0,0l0,0l0,0l0,0l0,0l0,0l0,0l0,0l0,0l0,0l0,0l0,0l0,0l0,0l0,0l0,0l0,0l0,0l0,0l0,0
		l0,0l0,0l0,0l0,0l0,0l0,0l0,0l0,0l0,0l0,0l0,0l0,0l0,0l0,0l0,0l0,0l0,0l0,0l0,0l0,0l0,0l0,0l0,0l0,0l0,0l0,0l0,0l0,0l0,0l0,0l0,0
		l0,0l0,0l0,0l0,0l0,0l0,0l0,0l0,0l0,0l0,0l0,0l0,0l0,0l0,0l0,0l0,0l0,0l0,0l0,0l0,0l0,0l0,0l0,0l0,0l0,0l0,0l0,0l0,0l0,0l0,0l0,0
		l0,0l0,0l0,0l0,0l0,0l0,0l0,0l0,0l0,0l0,0l0,0l0,0l0,0l0,0l0,0l0,0l0,0l0,0l0,0l0,0l0,0l0,0l0,0l0,0l0,0l0,0l0,0l0,0l0,0l0,0l0,0
		l0,0l0,0l0,0l0,0l0,0l0,0l0,0l0,0l0,0l0,0l0,0l0,0l0,0l0,0l0,0l0,0l0,0l0,0l0,0l0,0l0,0l0,0l0,0l0,0l0,0l0,0l0,0l0,0l0,0l0,0l0,0
		l0,0l0,0l0,0l0,0l0,0l0,0l0,0l0,0l0,0l0,0l0,0l0,0l0,0l0,0l0,0l0,0l0,0l0,0l0,0l0,0l0,0l0,0l0,0l0,0l0,0l0,0l0,0l0,0l0,0l0,0l0,0
		l0,0l0,0l0,0l0,0l0,0l0,0l0,0l0,0l0,0l0,0l0,0l0,0l0,0l0,0l0,0l0,0l0,0l0,0l0,0l0,0l0,0l0,0l0,0l0,0l0,0l0,0l0,0l0,0l0,0l0,0l0,0
		l0,0l0,0l0,0l0,0l0,0l0,0l0,0l0,0l0,0l0,0l0,0l0,0l0,0l0,0l0,0l0,0l0,0l0,0l0,0l0,0l0,0l0,0l0,0l0,0l0,0l0,0l0,0l0,0l0,0l0,0l0,0
		l0,0l0,0l0,0l0,0l0,0l0,0l0,0l0,0l0,0l0,0l0,0l0,0l0,0l0,0l0,0l0,0l0,0l0,0l0,0l0,0l0,0l0,0l0,0l0,0l0,0l0,0l0,0l0,0l0,0l0,0l0,0
		l0,0l0,0l0,0l0,0l0,0l0,0l0,0l0,0l0,0l0,0l0,0l0,0l0,0l0,0l0,0l0,0l0,0l0,0l0,0l0,0l0,0l0,0l0,0l0,0l0,0l0,0l0,0l0,0l0,0l0,0l0,0
		l0,0l0,0l0,0l0,0l0,0l0,0l0,0l0,0l0,0l0,0l0,0l0,0l0,0l0,0l0,0l0,0l0,0l0,0l0,0l0,0l0,0l0,0l0,0l0,0l0,0l0,0l0,0l0,0l0,0l0,0l0,0
		l0,0l0,0l0,0l-4.4-3.6l0,0l0,0l0,0l0,0l0,0l0,0l0,0l0,0l0,0l0,0l0,0l0,0l0,0l0,0l0,0l0,0l0,0l0,0l0,0l0,0l0,0l0,0l0,0l0,0l0,0l0,0
		l0,0l0,0l0,0l0,0l0,0l0,0l0,0l0,0l0,0l0,0l0,0l0,0l0,0l0,0l0,0l0,0l0,0l0,0l0,0l0,0l0,0l0,0l0,0l0,0l0,0l0,0l0,0l0,0l0,0l0,0l0,0
		l0,0l0,0l0,0l0,0l0,0l0,0l0,0l0,0l0,0l0,0l0,0l0,0l0,0l0,0l0,0l0,0l0,0l0,0l0,0l0,0l0,0l0,0l0,0l0,0l0,0l0,0l0,0l0,0l0,0l0,0l0,0
		l0,0l0,0l0,0l0,0l0,0l0,0l0,0l0,0l0,0l0,0l0,0l0,0l0,0l0,0l0,0l0,0l0,0l0,0l0,0l0,0l0,0l0,0l0,0l0,0l0,0l0,0l0,0l0,0l0,0l0,0l0,0
		l0,0l0,0l0,0l0,0l0,0l0,0l0,0l0,0l0,0l0,0l0,0l0,0l0,0l0,0l0,0l0,0l0,0l0,0l0,0l0,0l0,0l0,0l0,0l0,0l0,0l0,0l0,0l0,0l0,0l0,0l0,0
		l0,0l0,0l0,0l0,0l0,0l0,0l0,0l0,0l0,0l0,0l0,0l0,0l0,0l0,0l0,0l0,0l0,0l0,0l0,0l0,0l0,0l0,0l0,0l0,0l0,0l0,0l0,0l0,0l0,0l0,0l0,0
		l0,0l0,0l0,0l0,0l0,0l0,0l0,0l0,0l0,0l0,0l0,0l0,0l0,0l0,0l0,0l0,0l0,0l0,0l0,0l0,0l0,0l0,0l0,0l0,0l0,0l0,0l0,0l0,0l0,0l0,0l0,0
		l0,0l0,0l0,0l0,0l0,0l0,0l0,0l0,0l0,0l0,0l0,0l0,0l0,0l0,0l0,0l0,0l0,0l0,0l0,0l0,0l0,0l0,0l0,0l0,0l0,0l0,0l0,0l0,0l0,0l0,0l0,0
		l0,0l0,0l0,0l0,0l0,0l0,0l0,0l0,0l0,0l0,0l0,0l0,0l0,0l0,0l0,0l0,0l0,0l0,0l0,0l0,0l0,0l0,0l0,0l0,0l0,0l0,0l0,0l0,0l0,0l0,0l0,0
		l0,0l0,0l0,0l0,0l0,0l0,0l0,0l0,0l0,0l0,0l0,0l0,0l0,0l0,0l0,0l0,0l0,0l0,0l0,0l0,0l0,0l0,0l0,0l0,0l0,0l0,0l0,0l0,0l0,0l0,0l0,0
		l0,0l0,0l0,0l0,0l0,0l0,0l0,0l0,0l0,0l0,0l0,0l0,0l0,0l0,0l0,0l0,0l0,0l0,0l0,0l0,0l0,0l0,0l0,0l0,0l0,0l0,0l0,0l0,0l0,0l0,0l0,0
		l0,0l0,0l0,0l0,0l0,0l0,0l0,0l0,0l0,0l0,0l0,0l0,0l0,0l0,0l0,0l0,0l0,0l0,0l0,0l0,0l0,0l0,0l0,0l0,0l0,0l0,0l0,0l0,0l0,0l0,0l0,0
		l0,0l0,0l0,0l0,0l0,0l0,0l0,0l0,0l0,0l0,0l0,0l0,0l0,0l0,0l0,0l0,0l0,0l0,0l0,0l0,0l0,0l0,0l0,0l0,0l0,0l0,0l0,0l0,0l0,0l0,0l0,0
		l0,0l0,0l0,0l0,0l0,0l0,0l0,0l0,0l0,0l0,0l0,0l0,0l0,0l0,0l0,0l0,0l0,0l0,0l0,0l0,0l0,0l0,0l0,0l0,0l0,0l0,0l0,0l0,0l0,0l0,0l0,0
		l0,0l0,0l0,0l0,0l0,0l0,0l0,0l0,0l0,0l0,0l0,0l0,0l0,0l0,0l0,0l0,0l0,0l0,0l0,0l0,0l0,0l0,0l0,0l0,0l0,0l0,0l0,0l0,0l0,0l0,0l0,0
		l0,0l0,0l0,0l0,0l0,0l0,0l0,0l0,0l0,0l0,0l0,0l0,0l0,0l0,0l0,0l0,0l0,0l0,0l0,0l0,0l0,0l0,0l0,0l0,0l0,0l0,0l0,0l0,0l0,0l0,0l0,0
		l0,0l0,0l0,0l0,0l0,0l0,0l0,0l0,0l0,0l0,0l0,0l0,0l0,0l0,0l0,0l0,0l0,0l0,0l0,0l0,0l0,0L261.5,40.5z M265,36.3l16-18.8l-4.3-3.7
		l-16,18.8L265,36.3z M278.8,18.5h10.5v-5.7h-10.5V18.5z M287.2,13.8L266,38.7l4.3,3.7l21.2-24.9L287.2,13.8z M265.8,42.2l21.7,32
		l4.7-3.2l-21.7-32L265.8,42.2z"/>
</g>
<g>
	<path class="st1" d="M77.8,25.6l2.8,0.7l0.9-3.6h-3.7C77.8,22.7,77.8,25.6,77.8,25.6z M63,82.5v2.8h2.2l0.6-2.1L63,82.5z
		 M52.8,82.5L50,83.3l0.6,2.1h2.2V82.5z M43.3,48.4l2.7-0.8l0,0L43.3,48.4z M41.7,42l-2.8,0.6l0,0l0,0L41.7,42z M41,38.7l-2.8,0.5
		l0,0l0,0L41,38.7z M40.6,36.3l2.8-0.4L37.7,36L40.6,36.3z M39.6,41.9l-2.8-0.6l0,0l0,0L39.6,41.9z M38.8,45.4l2.8,0.7l0,0l0,0
		L38.8,45.4z M38,48.4l2.7,0.8l0,0l0,0L38,48.4z M28.7,82.5v2.8h2.2l0.6-2.1L28.7,82.5z M18.5,82.5l-2.8,0.7l0.6,2.1h2.2V82.5z
		 M3.7,25.6v-2.8H0l0.9,3.6L3.7,25.6z M13.1,25.6l2.8-0.7l-0.5-2.2h-2.2v2.9C13.2,25.6,13.1,25.6,13.1,25.6z M21.3,59l2.8-0.7l0,0
		L21.3,59z M22,62.4L19.3,63l0,0l0,0L22,62.4z M22.8,66.1L20,66.6l0,0l0,0L22.8,66.1z M23.5,69.8l-2.8,0.5l0,0L23.5,69.8z M24,73
		l-2.8,0.4h5.6L24,73z M24.5,69.7l2.8,0.5l0,0L24.5,69.7z M25.2,66l-2.8-0.6l0,0l0,0L25.2,66z M26,62.3l-2.8-0.7l0,0l0,0L26,62.3z
		 M26.8,59.2l2.7,0.8l0,0l0,0L26.8,59.2z M36.1,25.6v-2.8h-2.2l-0.6,2.1L36.1,25.6z M45.2,25.6l2.7-0.8l-0.6-2.1h-2.2L45.2,25.6
		L45.2,25.6z M54.6,59.3l-2.7,0.8l0,0l0,0L54.6,59.3z M55.5,62.5l-2.8,0.6l0,0l0,0L55.5,62.5z M57.5,73l-2.8,0.4h5.6L57.5,73z
		 M60.3,59l2.8,0.7l0,0l0,0L60.3,59z M68.4,25.6v-2.8h-2.2L65.7,25L68.4,25.6z M75.1,24.9L60.2,81.8l5.5,1.4l14.9-56.9L75.1,24.9z
		 M63,79.6H52.8v5.7H63V79.6z M55.5,81.7L46,47.6l-5.5,1.5L50,83.3L55.5,81.7z M46,47.6c-0.2-0.8-0.5-1.8-0.8-2.9l-5.5,1.4
		c0.3,1.2,0.6,2.2,0.8,3L46,47.6z M45.3,44.8c-0.3-1.1-0.6-2.3-0.8-3.5L39,42.6c0.3,1.2,0.6,2.4,0.9,3.5L45.3,44.8z M44.4,41.3
		c-0.3-1.2-0.5-2.3-0.7-3.2l-5.6,1.2c0.2,1,0.4,2.1,0.7,3.3L44.4,41.3z M43.8,38.2c-0.2-1-0.3-1.7-0.4-2.2l-5.6,0.8
		c0.1,0.6,0.2,1.4,0.4,2.4L43.8,38.2z M37.7,36.1c0,0.4-0.1,1.1-0.3,2l5.6,1c0.2-1,0.3-1.9,0.4-2.5L37.7,36.1z M37.4,38.1
		c-0.2,1-0.4,2-0.6,3.2l5.6,1.2c0.3-1.2,0.5-2.3,0.7-3.4L37.4,38.1z M36.8,41.4c-0.2,1.1-0.5,2.3-0.8,3.4l5.5,1.4
		c0.3-1.2,0.6-2.4,0.8-3.6L36.8,41.4z M36,44.7c-0.3,1.1-0.5,2.1-0.8,3l5.5,1.5c0.2-0.9,0.5-1.9,0.8-3.1L36,44.7z M35.3,47.7
		l-9.3,34l5.5,1.5l9.3-34L35.3,47.7z M28.7,79.6H18.5v5.7h10.2V79.6z M21.3,81.8L6.4,24.9l-5.5,1.4l14.8,56.9L21.3,81.8z M3.7,28.5
		h9.4v-5.7H3.7V28.5z M10.3,26.3l8.2,33.3l5.5-1.4l-8.2-33.3L10.3,26.3z M18.5,59.6c0.3,1,0.5,2.2,0.8,3.4l5.6-1.2
		c-0.3-1.3-0.5-2.5-0.8-3.6L18.5,59.6z M19.3,63.1c0.3,1.2,0.5,2.4,0.8,3.6l5.6-1c-0.2-1.3-0.5-2.6-0.8-3.8L19.3,63.1z M20,66.7
		c0.3,1.2,0.5,2.4,0.7,3.6l5.6-1c-0.2-1.2-0.5-2.5-0.7-3.8L20,66.7z M20.7,70.3c0.2,1.1,0.4,2.2,0.5,3.1l5.6-0.8
		c-0.1-1-0.3-2.1-0.5-3.3L20.7,70.3z M26.9,73.3c0.1-0.9,0.3-2,0.5-3.2l-5.6-1c-0.2,1.2-0.4,2.4-0.5,3.4L26.9,73.3z M27.3,70.2
		c0.2-1.2,0.4-2.4,0.7-3.6l-5.6-1c-0.2,1.3-0.5,2.5-0.7,3.7L27.3,70.2z M28,66.6c0.3-1.3,0.5-2.5,0.8-3.6l-5.6-1.2
		c-0.3,1.2-0.5,2.4-0.8,3.7L28,66.6z M28.7,63c0.3-1.1,0.5-2.1,0.8-3l-5.4-1.7c-0.3,1-0.6,2.1-0.9,3.3L28.7,63z M29.6,59.9l9.3-33.6
		l-5.5-1.5l-9.3,33.6L29.6,59.9z M36.1,28.5h9.1v-5.7h-9.1V28.5z M42.5,26.4L52,60.1l5.5-1.5L48,24.9L42.5,26.4z M51.9,60.1
		c0.3,0.9,0.5,1.9,0.8,3l5.6-1.2c-0.3-1.2-0.6-2.4-0.9-3.4L51.9,60.1z M52.7,63.2c0.3,1.2,0.5,2.4,0.8,3.6l5.6-1.2
		c-0.3-1.3-0.5-2.5-0.8-3.7L52.7,63.2z M53.5,66.8c0.3,1.2,0.5,2.4,0.7,3.5l5.6-1c-0.2-1.2-0.5-2.4-0.7-3.7L53.5,66.8z M54.2,70.3
		c0.2,1.1,0.4,2.2,0.5,3l5.6-0.8c-0.1-1-0.3-2.1-0.5-3.3L54.2,70.3z M60.3,73.4c0.2-1.2,0.4-2.7,0.7-4.3l-5.6-1
		c-0.3,1.7-0.5,3.1-0.7,4.4L60.3,73.4z M61,69.1c0.3-1.6,0.6-3.2,1-4.9L56.4,63c-0.4,1.7-0.7,3.4-1,5.1L61,69.1z M61.9,64.2
		c0.4-1.7,0.7-3.2,1.1-4.6l-5.5-1.4c-0.4,1.5-0.7,3.1-1.1,4.8L61.9,64.2z M63,59.6l8.2-33.3l-5.5-1.4l-8.2,33.3L63,59.6z M68.4,28.5
		h9.4v-5.7h-9.4V28.5z M137.2,82.5v2.8h2.8v-2.8H137.2z M105,82.5h-2.8v2.8h2.8V82.5z M105,25.6v-2.8h-2.8v2.8H105z M137.2,25.6h2.8
		v-2.8h-2.8V25.6z M137.2,33.5v2.8h2.8v-2.8H137.2z M114.4,33.5v-2.8h-2.8v2.8H114.4z M114.4,48.9h-2.8v2.8h2.8V48.9z M135.8,48.9
		h2.8v-2.8h-2.8V48.9z M135.8,56.7v2.8h2.8v-2.8H135.8z M114.4,56.7v-2.8h-2.8v2.8H114.4z M114.4,74.6h-2.8v2.8h2.8V74.6z
		 M137.2,74.6h2.8v-2.8h-2.8V74.6z M137.2,79.6H105v5.7h32.2V79.6z M107.9,82.5V25.6h-5.7v56.9H107.9z M105,28.5h32.2v-5.7H105V28.5
		z M134.4,25.6v7.9h5.7v-7.9H134.4z M137.2,30.6h-22.9v5.7h22.9V30.6z M111.5,33.5v15.4h5.7V33.5H111.5z M114.4,51.8h21.4v-5.7
		h-21.4V51.8z M132.9,48.9v7.8h5.7v-7.8H132.9z M135.8,53.9h-21.4v5.7h21.4V53.9z M111.5,56.7v17.9h5.7V56.7H111.5z M114.4,77.4
		h22.9v-5.7h-22.9V77.4z M134.4,74.6v7.9h5.7v-7.9H134.4z M200.9,82.5v2.8h2.8v-2.8H200.9z M168.6,82.5h-2.8v2.8h2.8V82.5z
		 M168.6,25.6v-2.8h-2.8v2.8H168.6z M200.9,25.6h2.8v-2.8h-2.8V25.6z M200.9,33.5v2.8h2.8v-2.8H200.9z M178,33.5v-2.8h-2.8v2.8H178z
		 M178,48.9h-2.8v2.8h2.8V48.9z M199.4,48.9h2.8v-2.8h-2.8V48.9z M199.4,56.7v2.8h2.8v-2.8H199.4z M178,56.7v-2.8h-2.8v2.8H178z
		 M178,74.6h-2.8v2.8h2.8V74.6z M200.9,74.6h2.8v-2.8h-2.8V74.6z M200.9,79.6h-32.2v5.7h32.2V79.6z M171.5,82.5V25.6h-5.7v56.9
		H171.5z M168.6,28.5h32.2v-5.7h-32.2V28.5z M198,25.6v7.9h5.7v-7.9H198z M200.9,30.6H178v5.7h22.9V30.6z M175.1,33.5v15.4h5.7V33.5
		H175.1z M178,51.8h21.4v-5.7H178V51.8z M196.6,48.9v7.8h5.7v-7.8H196.6z M199.4,53.9H178v5.7h21.4V53.9z M175.1,56.7v17.9h5.7V56.7
		H175.1z M178,77.4h22.9v-5.7H178V77.4z M198,74.6v7.9h5.7v-7.9H198z M275.7,82.5v2.8h5.4l-3-4.4L275.7,82.5z M264.9,82.5l-2.3,1.6
		l0.8,1.2h1.5V82.5z M247.2,56.7l2.3-1.6l-1.7-2.5l-2.4,1.9L247.2,56.7z M241.6,61.2l-1.8-2.2l-1.1,0.9v1.4h2.9L241.6,61.2
		L241.6,61.2z M241.6,82.5v2.8h2.8v-2.8H241.6z M232.3,82.5h-2.8v2.8h2.8V82.5z M232.3,25.6v-2.8h-2.8v2.8H232.3z M241.6,25.6h2.8
		v-2.8h-2.8V25.6z M241.6,52.8h-2.8v8l5.1-6.2L241.6,52.8z M248.6,44.4l-2.2-1.8l0,0l0,0L248.6,44.4z M264.6,25.6v-2.8h-1.3l-0.9,1
		L264.6,25.6z M275.2,25.6l2.2,1.8l4-4.7h-6.2V25.6z M253.9,50.5l-2.2-1.8l-1.4,1.7l1.2,1.8L253.9,50.5z M275.7,79.6H265v5.7h10.7
		V79.6z M267.3,80.9L249.6,55l-4.7,3.2L262.6,84L267.3,80.9z M245.4,54.4l-5.6,4.6l3.6,4.4l5.6-4.6L245.4,54.4z M238.8,61.2v21.3
		h5.7V61.2H238.8z M241.6,79.6h-9.3v5.7h9.3V79.6z M235.1,82.5V25.6h-5.7v56.9H235.1z M232.3,28.5h9.3v-5.7h-9.3V28.5z M238.8,25.6
		v27.2h5.7V25.6H238.8z M243.8,54.6c1.1-1.4,2.3-2.8,3.4-4.2l-4.4-3.6c-1.2,1.4-2.3,2.8-3.5,4.2L243.8,54.6z M247.3,50.4L247.3,50.4
		L247.3,50.4L247.3,50.4L247.3,50.4L247.3,50.4L247.3,50.4L247.3,50.4L247.3,50.4L247.3,50.4C247.3,50.3,247.3,50.3,247.3,50.4
		C247.3,50.3,247.3,50.3,247.3,50.4C247.3,50.3,247.3,50.3,247.3,50.4c0.1-0.1,0.1-0.1,0.1-0.1l0,0l0,0l0,0l0,0l0,0l0,0l0,0l0,0l0,0
		l0,0l0,0l0,0l0,0l0,0l0,0l0,0l0,0l0,0l0,0l0,0l0,0l0,0l0,0l0,0l0,0l0,0l0,0l0,0l0,0l0,0l0,0l0,0l0,0l0,0l0,0l0,0l0,0l0,0l0,0l0,0
		l0,0l0,0l0,0l0,0l0,0l0,0l0,0l0,0l0,0l0,0l0,0l0,0l0,0l0,0l0,0l0,0l0,0l0,0l0,0l0,0l0,0l0,0l0,0l0,0l0,0l0,0l0,0l0,0l0,0l0,0l0,0
		l0,0l0,0l0,0l0,0l0,0l0,0l0,0l0,0l0,0l0,0l0,0l0,0l0,0l0,0l0,0l0,0l0,0l0,0l0,0l0,0l0,0l0,0l0,0l0,0l0,0l0,0l0,0l0,0l0,0l0,0l0,0
		l0,0l0,0l0,0l0,0l0,0l0,0l0,0l0,0l0,0l0,0l0,0l0,0l0,0l0,0l0,0l0,0l0,0l0,0l0,0l0,0l0,0l0,0l0,0l0,0l0,0l0,0l0,0l0,0l0,0l0,0l0,0
		l0,0l0,0l0,0l0,0l0,0l0,0l0,0l0,0l0,0l0,0l0,0l0,0l0,0l0,0l0,0l0,0l0,0l0,0l0,0l0,0l0,0l0,0l0,0l0,0l0,0l0,0l0,0l0,0l0,0l0,0l0,0
		l0,0l0,0l0,0l0,0l0,0l0,0l0,0l0,0l0,0l0,0l0,0l0,0l0,0l0,0l0,0l0,0l0,0l0,0l0,0l0,0l0,0l0,0l0,0l0,0l0,0l0,0l0,0l0,0l0,0l0,0l0,0
		l0,0l0,0l0,0l0,0l0,0l0,0l0,0l0,0l0,0l0,0l0,0l0,0l0,0l0,0l0,0l0,0l0,0l0,0l0,0l0,0l0,0l0,0l0,0l0,0l0,0l0,0l0,0l0,0l0,0l0,0l0,0
		l0,0l0,0l0,0l0,0l0,0l0,0l0,0l0,0l0,0l0,0l0,0l0,0l0,0l0,0l0,0l0,0l0,0l0,0l0,0l0,0l0,0l0,0l0,0l0,0l0,0l0,0l0,0l0,0l0,0l0,0l0,0
		l0,0l0,0l0,0l0,0l0,0l0,0l0,0l0,0l0,0l0,0l0,0l0,0l0,0l0,0l0,0l0,0l0,0l0,0l0,0l0,0l0,0l0,0l0,0l0,0l0,0l0,0l0,0l0,0l0,0l0,0l0,0
		l0,0l0,0l0,0l0,0l0,0l0,0l0,0l0,0l0,0l0,0l0,0l0,0l0,0l0,0l0,0l0,0l0,0l0,0l0,0l0,0l0,0l0,0l0,0l0,0l0,0l0,0l0,0l0,0l0,0l0,0l0,0
		l0,0l0,0l0,0l0,0l0,0l0,0l0,0l0,0l0,0l0,0l0,0l0,0l0,0l0,0l0,0l0,0l0,0l0,0l0,0l0,0l0,0l0,0l0,0l0,0l0,0l0,0l0,0l0,0l0,0l0,0l0,0
		l0,0l0,0l0,0l0,0l0,0l0,0l0,0l0,0l0,0l0,0l0,0l0,0l0,0l0,0l0,0l0,0l0,0l0,0l0,0l0,0l0,0l0,0l0,0l0,0l0,0l0,0l0,0l0,0l0,0l0,0l0,0
		l0,0l0,0l0,0l0,0l0,0l0,0l0,0l0,0l0,0l0,0l0,0l0,0l0,0l0,0l0,0l0,0l0,0l0,0l0,0l0,0l0,0l0,0l0,0l0,0l0,0l0,0l0,0l0,0l0,0l0,0l0,0
		l0,0l0,0l0,0l0,0l0,0l0,0l0,0l0,0l0,0l0,0l0,0l0,0l0,0l0,0l0,0l0,0l0,0l0,0l0,0l0,0l0,0l0,0l0,0l0,0l0,0l0,0l0,0l0,0l0,0l0,0l0,0
		l0,0l0,0l0,0l0,0l0,0l0,0l0,0l0,0l0,0l0,0l0,0l0,0l0,0l0,0l0,0l0,0l0,0l0,0l0,0l0,0l0,0l0,0l0,0l0,0l0,0l0,0l0,0l0,0l0,0l0,0l0,0
		l0,0l0,0l0,0l0,0l0,0l0,0l0,0l0,0l0,0l0,0l0,0l0,0l0,0l0,0l0,0l0,0l0,0l0,0l0,0l0,0l0,0l0,0l0,0l0,0l0,0l-4.4-3.6l0,0l0,0l0,0l0,0
		l0,0l0,0l0,0l0,0l0,0l0,0l0,0l0,0l0,0l0,0l0,0l0,0l0,0l0,0l0,0l0,0l0,0l0,0l0,0l0,0l0,0l0,0l0,0l0,0l0,0l0,0l0,0l0,0l0,0l0,0l0,0
		l0,0l0,0l0,0l0,0l0,0l0,0l0,0l0,0l0,0l0,0l0,0l0,0l0,0l0,0l0,0l0,0l0,0l0,0l0,0l0,0l0,0l0,0l0,0l0,0l0,0l0,0l0,0l0,0l0,0l0,0l0,0
		l0,0l0,0l0,0l0,0l0,0l0,0l0,0l0,0l0,0l0,0l0,0l0,0l0,0l0,0l0,0l0,0l0,0l0,0l0,0l0,0l0,0l0,0l0,0l0,0l0,0l0,0l0,0l0,0l0,0l0,0l0,0
		l0,0l0,0l0,0l0,0l0,0l0,0l0,0l0,0l0,0l0,0l0,0l0,0l0,0l0,0l0,0l0,0l0,0l0,0l0,0l0,0l0,0l0,0l0,0l0,0l0,0l0,0l0,0l0,0l0,0l0,0l0,0
		l0,0l0,0l0,0l0,0l0,0l0,0l0,0l0,0l0,0l0,0l0,0l0,0l0,0l0,0l0,0l0,0l0,0l0,0l0,0l0,0l0,0l0,0l0,0l0,0l0,0l0,0l0,0l0,0l0,0l0,0l0,0
		l0,0l0,0l0,0l0,0l0,0l0,0l0,0l0,0l0,0l0,0l0,0l0,0l0,0l0,0l0,0l0,0l0,0l0,0l0,0l0,0l0,0l0,0l0,0l0,0l0,0l0,0l0,0l0,0l0,0l0,0l0,0
		l0,0l0,0l0,0l0,0l0,0l0,0l0,0l0,0l0,0l0,0l0,0l0,0l0,0l0,0l0,0l0,0l0,0l0,0l0,0l0,0l0,0l0,0l0,0l0,0l0,0l0,0l0,0l0,0l0,0l0,0l0,0
		l0,0l0,0l0,0l0,0l0,0l0,0l0,0l0,0l0,0l0,0l0,0l0,0l0,0l0,0l0,0l0,0l0,0l0,0l0,0l0,0l0,0l0,0l0,0l0,0l0,0l0,0l0,0l0,0l0,0l0,0l0,0
		l0,0l0,0l0,0l0,0l0,0l0,0l0,0l0,0l0,0l0,0l0,0l0,0l0,0l0,0l0,0l0,0l0,0l0,0l0,0l0,0l0,0l0,0l0,0l0,0l0,0l0,0l0,0l0,0l0,0l0,0l0,0
		l0,0l0,0l0,0l0,0l0,0l0,0l0,0l0,0l0,0l0,0l0,0l0,0l0,0l0,0l0,0l0,0l0,0l0,0l0,0l0,0l0,0l0,0l0,0l0,0l0,0l0,0l0,0l0,0l0,0l0,0l0,0
		l0,0l0,0l0,0l0,0l0,0l0,0l0,0l0,0l0,0l0,0l0,0l0,0l0,0l0,0l0,0l0,0l0,0l0,0l0,0l0,0l0,0l0,0l0,0l0,0l0,0l0,0l0,0l0,0l0,0l0,0l0,0
		l0,0l0,0l0,0l0,0l0,0l0,0l0,0l0,0l0,0l0,0l0,0l0,0l0,0l0,0l0,0l0,0l0,0l0,0l0,0l0,0l0,0l0,0l0,0l0,0l0,0l0,0l0,0l0,0l0,0l0,0l0,0
		l0,0l0,0l0,0l0,0l0,0l0,0l0,0l0,0l0,0l0,0l0,0l0,0l0,0l0,0l0,0l0,0l0,0l0,0l0,0l0,0l0,0l0,0l0,0l0,0l0,0l0,0l0,0l0,0l0,0l0,0l0,0
		l0,0l0,0l0,0l0,0l0,0l0,0l0,0l0,0l0,0l0,0l0,0l0,0l0,0l0,0l0,0l0,0l0,0l0,0l0,0l0,0l0,0l0,0l0,0l0,0l0,0l0,0l0,0l0,0l0,0l0,0l0,0
		l0,0l0,0l0,0l0,0l0,0l0,0l0,0l0,0l0,0l0,0l0,0l0,0l0,0l0,0l0,0l0,0l0,0l0,0l0,0l0,0l0,0l0,0l0,0l0,0l0,0l0,0l0,0l0,0l0,0l0,0l0,0
		l0,0l0,0l0,0l0,0l0,0l0,0l0,0l0,0l0,0l0,0l0,0l0,0l0,0l0,0l0,0l0,0l0,0l0,0l0,0l0,0l0,0l0,0l0,0l0,0l0,0l0,0l0,0l0,0l0,0l0,0l0,0
		l0,0l0,0l0,0l0,0l0,0l0,0l0,0l0,0l0,0l0,0l0,0l0,0L247.3,50.4z M250.7,46.2l16-18.8l-4.3-3.7l-16,18.8L250.7,46.2z M264.6,28.5
		h10.5v-5.7h-10.5V28.5z M273,23.8l-21.2,24.9l4.3,3.7l21.2-24.9L273,23.8z M251.6,52.1l21.7,32l4.7-3.2l-21.7-32L251.6,52.1z"/>
</g>
</svg>
