<svg width="32" height="33" viewBox="0 0 32 33" fill="none" xmlns="http://www.w3.org/2000/svg">
<path d="M14.7352 31.8544C5.42123 18.6894 3.69238 17.3383 3.69238 12.5C3.69238 5.87256 9.2027 0.5 16.0001 0.5C22.7974 0.5 28.3078 5.87256 28.3078 12.5C28.3078 17.3383 26.5789 18.6894 17.2649 31.8544C16.6537 32.7152 15.3464 32.7152 14.7352 31.8544ZM16.0001 17.5C18.8323 17.5 21.1283 15.2614 21.1283 12.5C21.1283 9.73856 18.8323 7.5 16.0001 7.5C13.1678 7.5 10.8719 9.73856 10.8719 12.5C10.8719 15.2614 13.1678 17.5 16.0001 17.5Z" fill="#9A92CE"/>
</svg>
