<svg width="32" height="33" viewBox="0 0 32 33" fill="none" xmlns="http://www.w3.org/2000/svg">
<path d="M31.7458 29.4188L17.346 1.41875C17.0515 0.84625 16.5445 0.5 16 0.5C15.4555 0.5 14.9485 0.84625 14.654 1.41875L0.254155 29.4188C0.0987581 29.7209 0.0113208 30.0698 0.00102717 30.4287C-0.00926646 30.7877 0.0579635 31.1435 0.195655 31.4587C0.333411 31.7739 0.536518 32.037 0.783648 32.2202C1.03078 32.4034 1.31281 32.5 1.60014 32.5H30.3999C30.9854 32.5 31.5238 32.1006 31.8043 31.4581C31.942 31.143 32.0093 30.7873 31.999 30.4284C31.9887 30.0695 31.9012 29.7208 31.7458 29.4188ZM16 6.19875L20.2695 14.5H16L12.8 18.5L10.8971 16.1213L16 6.19875Z" fill="#9A92CE"/>
</svg>
