<svg fill="none" height="512" viewBox="0 0 24 24" width="512" xmlns="http://www.w3.org/2000/svg"><path clip-rule="evenodd" d="m1.25 6c0-1.51878 1.23122-2.75 2.75-2.75h16c1.5188 0 2.75 1.23122 2.75 2.75v10c0 1.5188-1.2312 2.75-2.75 2.75h-5.7865l.75 1.5h2.0365c.4142 0 .75.3358.75.75s-.3358.75-.75.75h-10c-.41421 0-.75-.3358-.75-.75s.33579-.75.75-.75h2.03647l.75-1.5h-5.78647c-1.51878 0-2.75-1.2312-2.75-2.75zm18.75 11.25h-16c-.69036 0-1.25-.5596-1.25-1.25v-10c0-.69036.55964-1.25 1.25-1.25h16c.6904 0 1.25.55964 1.25 1.25v10c0 .6904-.5596 1.25-1.25 1.25z" fill="rgb(0,0,0)" fill-rule="evenodd"/></svg>