<svg width="26" height="27" viewBox="0 0 26 27" fill="none" xmlns="http://www.w3.org/2000/svg">
<path fill-rule="evenodd" clip-rule="evenodd" d="M22.2875 14.6114C22.3375 14.2018 22.375 13.7923 22.375 13.3572C22.375 12.9221 22.3375 12.5125 22.2875 12.103L24.925 9.99142C25.1625 9.79945 25.225 9.45391 25.075 9.17237L22.575 4.74439C22.4625 4.53963 22.25 4.42445 22.025 4.42445C21.95 4.42445 21.875 4.43725 21.8125 4.46284L18.7 5.74261C18.05 5.2307 17.35 4.80838 16.5875 4.48844L16.1125 1.09707C16.075 0.789927 15.8125 0.55957 15.5 0.55957H10.5C10.1875 0.55957 9.92504 0.789927 9.88754 1.09707L9.41254 4.48844C8.65004 4.80838 7.95004 5.2435 7.30004 5.74261L4.18754 4.46284C4.11254 4.43725 4.03754 4.42445 3.96254 4.42445C3.75004 4.42445 3.53754 4.53963 3.42504 4.74439L0.925043 9.17237C0.762543 9.45391 0.837543 9.79945 1.07504 9.99142L3.71254 12.103C3.66254 12.5125 3.62504 12.9349 3.62504 13.3572C3.62504 13.7795 3.66254 14.2018 3.71254 14.6114L1.07504 16.723C0.837543 16.9149 0.775043 17.2605 0.925043 17.542L3.42504 21.97C3.53754 22.1747 3.75004 22.2899 3.97504 22.2899C4.05004 22.2899 4.12504 22.2771 4.18754 22.2515L7.30004 20.9718C7.95004 21.4837 8.65004 21.906 9.41254 22.2259L9.88754 25.6173C9.92504 25.9244 10.1875 26.1548 10.5 26.1548H15.5C15.8125 26.1548 16.075 25.9244 16.1125 25.6173L16.5875 22.2259C17.35 21.906 18.05 21.4709 18.7 20.9718L21.8125 22.2515C21.8875 22.2771 21.9625 22.2899 22.0375 22.2899C22.25 22.2899 22.4625 22.1747 22.575 21.97L25.075 17.542C25.225 17.2605 25.1625 16.9149 24.925 16.723L22.2875 14.6114ZM19.8125 12.423C19.8625 12.8197 19.875 13.0884 19.875 13.3572C19.875 13.6259 19.85 13.9075 19.8125 14.2914L19.6375 15.7375L20.75 16.6334L22.1 17.7084L21.225 19.2569L19.6375 18.6042L18.3375 18.0667L17.2125 18.937C16.675 19.3465 16.1625 19.6536 15.65 19.8712L14.325 20.4215L14.125 21.8676L13.875 23.5953H12.125L11.8875 21.8676L11.6875 20.4215L10.3625 19.8712C9.82504 19.6408 9.32504 19.3465 8.82504 18.9625L7.68754 18.0667L6.36254 18.617L4.77504 19.2697L3.90004 17.7212L5.25004 16.6462L6.36254 15.7503L6.18754 14.3042C6.15004 13.9075 6.12504 13.6131 6.12504 13.3572C6.12504 13.1012 6.15004 12.8069 6.18754 12.423L6.36254 10.9768L5.25004 10.081L3.90004 9.006L4.77504 7.45749L6.36254 8.11017L7.66254 8.64767L8.78754 7.77743C9.32504 7.3679 9.83754 7.06076 10.35 6.8432L11.675 6.2929L11.875 4.84677L12.125 3.11909H13.8625L14.1 4.84677L14.3 6.2929L15.625 6.8432C16.1625 7.07356 16.6625 7.3679 17.1625 7.75183L18.3 8.64767L19.625 8.09737L21.2125 7.44469L22.0875 8.9932L20.75 10.081L19.6375 10.9768L19.8125 12.423ZM13 8.23814C10.2375 8.23814 8.00004 10.5289 8.00004 13.3572C8.00004 16.1855 10.2375 18.4762 13 18.4762C15.7625 18.4762 18 16.1855 18 13.3572C18 10.5289 15.7625 8.23814 13 8.23814ZM13 15.9167C11.625 15.9167 10.5 14.7649 10.5 13.3572C10.5 11.9495 11.625 10.7977 13 10.7977C14.375 10.7977 15.5 11.9495 15.5 13.3572C15.5 14.7649 14.375 15.9167 13 15.9167Z" fill="#241D3A"/>
</svg>
