<?xml version="1.0" encoding="utf-8"?>
<!-- Generator: Adobe Illustrator 24.0.3, SVG Export Plug-In . SVG Version: 6.00 Build 0)  -->
<svg version="1.1" id="Layer_1" xmlns="http://www.w3.org/2000/svg" xmlns:xlink="http://www.w3.org/1999/xlink" x="0px" y="0px"
	 viewBox="0 0 130 100" style="enable-background:new 0 0 130 100;" xml:space="preserve">
<style type="text/css">
	.st0{fill:#F9ECCF;}
	.st1{fill-rule:evenodd;clip-rule:evenodd;fill:#F9ECCF;}
	.st2{fill-rule:evenodd;clip-rule:evenodd;fill:#FFF7E9;}
</style>
<g>
	<path class="st0" d="M31.1,70.4c0.6,0.3,0.1,1.2-0.5,0.9l-0.2-0.1l-0.2-0.1L30.1,71L30,70.9l-0.1-0.1l-0.1-0.1l-0.1-0.1l-0.1-0.1
		l-0.1-0.1l-0.1-0.1L29,70.2l-0.1-0.1L28.7,70l-0.1-0.1l-0.1-0.1l-0.1-0.1l-0.1-0.1L28,69.5l-0.1-0.1l-0.1-0.1l-0.1-0.1l-0.1-0.1
		L27.4,69l-0.1-0.1l-0.1-0.1L27,68.6l-0.1-0.1l-0.1-0.1l-0.1-0.1l-0.1-0.1l-0.1-0.1c-0.4-0.4,0.1-1.1,0.7-0.8c0,0,0.1,0,0.1,0.1
		l0.1,0.1l0.1,0.1l0.1,0.1l0.1,0.1l0.1,0.1l0.1,0.1l0.1,0.1l0.1,0.1l0.1,0.1l0.1,0.1l0.1,0.1l0.1,0.1l0.1,0.1l0.1,0.1l0.1,0.1
		l0.1,0.1l0.1,0.1l0.1,0.1l0.1,0.1l0.1,0.1l0.1,0.1l0.1,0.1l0.1,0.1l0.1,0.1l0.1,0.1l0.1,0.1l0.1,0.1l0.1,0.1l0.1,0.1l0.1,0.1
		L31.1,70.4L31.1,70.4z M32.2,72.2L32.2,72.2l0.2,0.1l0.1,0.1l0.1,0.1l0.1,0.1l0.1,0.1l0.1,0.1l0.1,0.1l0.1,0.1l0.1,0.1l0.1,0.1
		l0.1,0.1l0.1,0.1l0.1,0.1l0.1,0.1l0.1,0.1l0.1,0.1l0.1,0.1l0.1,0.1l0.1,0.1l0.1,0.1l0.1,0.1l0.1,0.1l0.1,0l0.1,0l0.1,0l0.1,0l0.1,0
		l0.1,0l0.1,0l0.1,0l0.1,0l0.1,0l0.1,0l0.1,0l0.1,0l0.1,0l0.1,0l0,0l0.1,0c0.7,0.1,0.8-0.8,0.3-1l0,0l-0.1,0l-0.1,0l-0.1,0l-0.1,0
		l-0.1,0l-0.1,0l-0.1,0l-0.1,0l-0.1,0l-0.1,0l-0.1,0l-0.1,0l-0.1,0l-0.1,0l-0.1,0l-0.1,0l-0.1,0l-0.1,0l-0.1,0l-0.1-0.1l-0.1-0.1
		l-0.1-0.1l-0.1-0.1l-0.1-0.1L34.2,72L34.1,72L34,71.9l-0.1-0.1l-0.1-0.1l-0.1-0.1l-0.1-0.1l-0.1-0.1l-0.1-0.1l-0.1-0.1L33,71.5
		l-0.1-0.1l-0.1-0.1l-0.1,0l-0.1,0C32,71,31.6,71.9,32.2,72.2L32.2,72.2z M40.1,74.9c-0.7-0.1-0.5-1.1,0.2-1l0,0l0.1,0l0.1,0l0.1,0
		l0.1,0l0.1,0l0.1,0l0.1,0l0.1,0l0.1,0l0.1,0l0.1,0l0.1,0l0.1,0l0.1,0l0.1,0l0.1,0l0.1,0l0.1,0l0.1,0l0.1,0l0.1,0l0.1,0l0.1,0l0.1,0
		l0.1,0l0.1,0l0.1,0l0.1,0l0.1,0l0.1,0l0.1,0l0.1,0l0.1,0l0.1,0l0.1,0l0.1,0h0.1h0.1c0.6,0,0.8,0.9,0.1,1l-0.1,0l-0.1,0l-0.1,0
		l-0.1,0l-0.1,0l-0.1,0l-0.1,0l-0.1,0l-0.1,0l-0.1,0l-0.1,0l-0.1,0l-0.1,0l-0.1,0l-0.1,0l-0.1,0l-0.1,0l-0.1,0l-0.1,0l-0.1,0l-0.1,0
		l-0.1,0l-0.1,0l-0.1,0l-0.1,0l-0.1,0l-0.1,0l-0.1,0l-0.1,0l-0.1,0l-0.1,0l-0.1,0L41,75l-0.1,0l-0.1,0l-0.1,0l-0.1,0l-0.1,0
		L40.1,74.9L40.1,74.9L40.1,74.9z M48.5,75.2c-0.6,0.1-0.9-0.8-0.2-1l0.1,0l0,0l0.1,0l0.1,0l0.1,0l0.1,0l0.1,0l0.1,0l0.1,0l0.1,0
		l0.1,0l0.1,0l0.1,0l0.1,0l0.1,0l0.1,0l0.1,0l0.1,0l0.1,0l0.1,0l0.1,0l0.1,0l0.1,0l0.1,0l0.1,0l0.1,0l0.1,0l0.1,0l0.1,0l0.1,0l0.1,0
		l0.1,0l0.1,0l0.1,0l0.1,0l0.1,0l0.1,0l0.1,0l0.1,0l0.1,0l0.1,0c0.6-0.2,1,0.6,0.4,0.9l0,0l-0.1,0l-0.1,0l-0.1,0l-0.1,0l-0.1,0
		l-0.1,0l-0.1,0l-0.1,0l-0.1,0l-0.1,0l-0.1,0l-0.1,0l-0.1,0l-0.1,0l-0.1,0l-0.1,0l-0.1,0l-0.1,0l-0.1,0l-0.1,0l-0.1,0l-0.1,0l-0.1,0
		l-0.1,0l-0.1,0l-0.1,0l-0.1,0l-0.1,0l-0.1,0l-0.1,0l-0.1,0l-0.1,0l-0.1,0l-0.1,0l-0.1,0l-0.1,0l-0.1,0l-0.1,0L48.5,75.2L48.5,75.2
		L48.5,75.2z M56.5,72.5c-0.5,0.3-1.1-0.4-0.6-0.8c0,0,0.1,0,0.1-0.1l0,0l0.1-0.1l0.1-0.1l0.1-0.1l0.1-0.1l0.1-0.1l0.1-0.1l0.1-0.1
		l0.1-0.1L57,71l0.1-0.1l0.1-0.1l0.1-0.1l0.1-0.1l0.1-0.1l0.1-0.1l0.1-0.1l0.1-0.1l0.1-0.1l0.1-0.1l0.1-0.1l0.1-0.1l0.1-0.1l0.1-0.1
		l0.1-0.1l0.1-0.1l0.1-0.1l0.1-0.1l0.1-0.1l0.1-0.1l0.1-0.1l0.1-0.1l0.1-0.1l0.1-0.1l0.1-0.1l0.1-0.1l0.1-0.1l0.1-0.1l0.1-0.1
		c0.2-0.2,0.5-0.2,0.7-0.1c0.2,0.2,0.3,0.5,0.1,0.7l-0.1,0.1l-0.1,0.1l-0.1,0.1l-0.1,0.1l-0.1,0.1l-0.1,0.1L60,69.9L59.9,70
		l-0.1,0.1l-0.1,0.1l-0.1,0.1l-0.1,0.1l-0.1,0.1l-0.1,0.1l-0.1,0.1L59,70.8l-0.1,0.1l-0.1,0.1L58.7,71l-0.1,0.1l-0.1,0.1l-0.1,0.1
		l-0.1,0.1l-0.1,0.1L58,71.5l-0.1,0.1l-0.1,0.1l-0.1,0.1l-0.1,0.1l-0.1,0.1L57.4,72l-0.1,0.1l-0.1,0.1L57,72.2l-0.1,0.1l-0.1,0.1
		l-0.1,0.1L56.5,72.5L56.5,72.5L56.5,72.5z M62.6,66.8c-0.4,0.5-1.1,0.1-0.9-0.5c0,0,0-0.1,0-0.1c0.9-1.4,1.7-2.8,2.3-4.4
		c0.2-0.5,1.1-0.4,1,0.3l0,0.1C64.4,63.9,63.6,65.3,62.6,66.8L62.6,66.8z M65.9,59.3c-0.1,0.6-1.1,0.5-1-0.2l0,0
		c0.2-1,0.4-1.9,0.5-2.9l0-0.3l0-0.3l0-0.3l0-0.3l0-0.3l0-0.2l0-0.2l0-0.2c0-0.2,0.2-0.4,0.4-0.5c0.3-0.1,0.6,0.2,0.6,0.5l0,0.2
		l0,0.3l0,0.3l0,0.3l0,0.3l0,0.3l0,0.3l0,0.3C66.3,57.3,66.2,58.2,65.9,59.3L65.9,59.3z M66.4,51.1c0.1,0.6-0.9,0.8-1,0.2l0,0l0-0.2
		l0-0.2l0-0.2l0-0.2l0-0.2l0-0.2l0-0.2l0-0.2l0-0.2l0-0.2l0-0.2l0-0.2l-0.1-0.2l-0.1-0.2l-0.1-0.2l-0.1-0.2l-0.1-0.2l-0.1-0.2
		l-0.1-0.2l-0.1-0.2l-0.1-0.2l-0.1-0.2l0-0.1c-0.1-0.2,0-0.5,0.3-0.6c0.3-0.1,0.6,0,0.7,0.3l0,0.1l0.1,0.2l0.1,0.2l0.1,0.2l0.1,0.2
		l0.1,0.2l0.1,0.2l0.1,0.2l0.1,0.2l0.1,0.2l0.1,0.2l0.1,0.2l0.1,0.2l0,0.2l0,0.2l0,0.2l0,0.2l0,0.2l0,0.2l0,0.2l0,0.2l0,0.2
		L66.4,51.1L66.4,51.1z M64,43.2c0.3,0.6-0.6,1.1-0.9,0.5L63,43.6l-0.1-0.2l-0.1-0.2L62.7,43l-0.1-0.2l-0.1-0.2l-0.1-0.2l-0.1-0.2
		l-0.1-0.2L62.1,42l-0.1-0.2l-0.1-0.2l-0.1-0.2l-0.1-0.2l-0.1-0.2L61.3,41l-0.1-0.2l-0.1-0.2L61,40.5l-0.1-0.2l-0.1-0.2L60.6,40
		l-0.1-0.2l-0.1-0.2l-0.1-0.1c-0.1-0.1-0.1-0.2-0.1-0.3c0-0.5,0.6-0.7,0.9-0.3l0.1,0.1l0.1,0.2l0.1,0.2l0.1,0.2l0.1,0.2l0.1,0.2
		l0.1,0.2l0.1,0.2l0.1,0.2l0.1,0.2l0.1,0.2l0.1,0.2l0.1,0.2l0.1,0.2l0.1,0.2l0.1,0.2l0.1,0.2l0.1,0.2l0.1,0.2l0.1,0.2l0.1,0.2
		l0.1,0.2l0.1,0.2l0.1,0.2L64,43.2L64,43.2z M58.7,36.8c0.5,0.4-0.1,1.2-0.6,0.8l0,0l-0.1-0.1l-0.2-0.1l-0.2-0.1l-0.2-0.1L57.3,37
		l-0.2-0.1L57,36.8l-0.2-0.1l-0.2-0.1l-0.2-0.1l-0.2-0.1l-0.2-0.1L56,36.1L55.8,36l-0.2-0.1l-0.2-0.1l-0.2-0.1l-0.2-0.1l-0.2-0.1
		l-0.2-0.1l-0.2-0.1l-0.2-0.1l-0.2-0.1L54,35l-0.2-0.1l0,0c-0.4-0.2-0.4-0.7,0-0.9c0.1-0.1,0.3-0.1,0.5,0l0,0l0.2,0.1l0.2,0.1
		l0.2,0.1l0.2,0.1l0.2,0.1l0.2,0.1l0.2,0.1l0.2,0.1l0.2,0.1l0.2,0.1l0.2,0.1l0.2,0.1l0.2,0.1l0.2,0.1l0.2,0.1l0.2,0.1l0.2,0.1
		l0.2,0.1l0.2,0.1l0.2,0.1l0.2,0.1l0.2,0.1l0.2,0.1l0.2,0.1L58.7,36.8L58.7,36.8z M51.4,32.8c0.6,0.2,0.3,1.1-0.3,1l0,0l-0.2-0.1
		l-0.2-0.1l-0.2-0.1l-0.2-0.1l-0.2-0.1l-0.2-0.1l-0.2-0.1l-0.2-0.1l-0.2-0.1l-0.2,0l-0.2,0l-0.2,0l-0.2,0l-0.2,0l-0.2,0l-0.2,0
		l-0.2,0l-0.2,0l-0.2,0l-0.2,0l-0.2,0l-0.2,0l-0.2,0l-0.2,0l-0.2,0l0,0c-0.6-0.1-0.6-1,0.1-1l0,0l0,0l0.2,0l0.2,0l0.2,0l0.2,0l0.2,0
		l0.2,0l0.2,0l0.2,0l0.2,0l0.2,0l0.2,0l0.2,0l0.2,0l0.2,0l0.2,0l0.2,0.1l0.2,0.1l0.2,0.1l0.2,0.1l0.2,0.1l0.2,0.1l0.2,0.1l0.2,0.1
		l0.2,0.1L51.4,32.8L51.4,32.8z M43,31.5c0.7,0,0.7,0.9,0,1h0l-0.2,0l-0.2,0l-0.2,0l-0.2,0l-0.2,0l-0.2,0l-0.2,0l-0.2,0l-0.2,0
		l-0.2,0l-0.2,0l-0.2,0l-0.2,0l-0.2,0l-0.2,0l-0.2,0l-0.2,0l-0.2,0l-0.2,0l-0.2,0l-0.2,0l-0.2,0l-0.2,0l-0.2,0l-0.2,0.1l0,0
		c-0.5,0.2-0.9-0.6-0.4-0.9c0.1,0,0.1,0,0.1-0.1l0,0l0.2-0.1l0.2-0.1l0.2,0l0.2,0l0.2,0l0.2,0l0.2,0l0.2,0l0.2,0l0.2,0l0.2,0l0.2,0
		l0.2,0l0.2,0l0.2,0l0.2,0l0.2,0l0.2,0l0.2,0l0.2,0l0.2,0l0.2,0l0.2,0l0.2,0L43,31.5L43,31.5z M34.8,33.3c0.6-0.3,1,0.5,0.5,0.9
		l-0.1,0l0,0L35,34.4l-0.2,0.1l-0.2,0.1l-0.2,0.1l-0.2,0.1l-0.2,0.1l-0.2,0.1L33.7,35l-0.2,0.1l-0.2,0.1l-0.2,0.1L33,35.4l-0.2,0.1
		l-0.2,0.1l-0.2,0.1l-0.2,0.1l-0.2,0.1l-0.2,0.1l-0.2,0.1l-0.2,0.1l-0.2,0.1l-0.2,0.1l-0.2,0.1l-0.2,0.1c-0.5,0.4-1.1-0.3-0.7-0.8
		l0,0l0.2-0.1l0.2-0.1l0.2-0.1l0.2-0.1l0.2-0.1l0.2-0.1l0.2-0.1l0.2-0.1l0.2-0.1l0.2-0.1l0.2-0.1l0.2-0.1l0.2-0.1l0.2-0.1l0.2-0.1
		l0.2-0.1l0.2-0.1l0.2-0.1l0.2-0.1l0.2-0.1l0.2-0.1l0.2-0.1l0.2-0.1L34.8,33.3L34.8,33.3L34.8,33.3z M27.9,38.1
		C28,38,28.1,38,28.3,38c0.5,0,0.7,0.5,0.4,0.8l0,0L28.5,39l-0.2,0.2l-0.2,0.2l-0.1,0.1L28,39.5l-0.1,0.1l-0.1,0.1l-0.1,0.1
		l-0.1,0.1L27.6,40l-0.1,0.1l-0.1,0.1l-0.1,0.1l-0.1,0.1l-0.1,0.1l-0.1,0.1L27,40.7l-0.1,0.1L26.8,41l-0.1,0.1l-0.1,0.1l-0.1,0.1
		l-0.1,0.1l-0.1,0.1l-0.1,0.1l-0.1,0.1l-0.1,0.1l-0.1,0.1L26.1,42L26,42.2l-0.1,0.1l-0.1,0.1l-0.1,0.1l-0.1,0.1l-0.1,0.1l0,0
		c-0.3,0.6-1.2,0.1-0.9-0.5l0,0l0,0l0.1-0.1l0.1-0.1l0.1-0.1l0.1-0.1l0.1-0.1l0.1-0.1l0.1-0.1l0.1-0.1l0.1-0.1l0.1-0.1l0.1-0.1
		l0.1-0.1l0.1-0.1l0.1-0.1l0.1-0.1l0.1-0.1l0.1-0.1l0.1-0.1l0.1-0.1l0.1-0.1l0.1-0.1l0.1-0.1l0.1-0.1l0.1-0.1l0.1-0.1l0.1-0.1
		l0.1-0.1l0.1-0.1l0.1-0.1l0.1-0.1l0.1-0.1l0.1-0.1l0.2-0.2l0.2-0.2L27.9,38.1L27.9,38.1L27.9,38.1z M23.3,45
		c0.1-0.1,0.1-0.2,0.3-0.3c0.4-0.2,0.9,0.2,0.7,0.7l-0.1,0.1l-0.1,0.1l-0.1,0.1L24,45.9L24,46l-0.1,0.1l-0.1,0.1l-0.1,0.1l-0.1,0.1
		l-0.1,0.1l-0.1,0.1l0,0.1l0,0.1l0,0.1l0,0.1l0,0.1l0,0.1l0,0.1l0,0.1l0,0.1l0,0.1l0,0.1l0,0.1l0,0.1l0,0.1l0,0.1l0,0.1l0,0.1l0,0.1
		l0,0.1l0,0.1l0,0.1l0,0.1l0,0.1l0,0.1l0,0.1l0,0c-0.1,0.6-1.1,0.5-1-0.2v0l0,0l0-0.1l0-0.1l0-0.1l0-0.1l0-0.1l0-0.1l0-0.1l0-0.1
		l0-0.1l0-0.1l0-0.1l0-0.1l0-0.1l0-0.1l0-0.1l0-0.1l0-0.1l0-0.1l0-0.1l0-0.1l0-0.1l0-0.1l0.1-0.1l0-0.1l0-0.1l0.1-0.1l0.1-0.1
		l0.1-0.1l0.1-0.1l0.1-0.1l0.1-0.1l0.1-0.1l0.1-0.1l0.1-0.1l0.1-0.1L23.3,45L23.3,45z M21.2,52.9c0-0.3,0.3-0.5,0.5-0.5
		c0.3,0,0.5,0.3,0.5,0.5l0,0l0,0.1l0,0.1l0,0.1l0,0.1l0,0.1l0,0.1l0,0.1l0,0.1l0,0.1l0,0.1l0,0.1l0,0.1v0.1v0.1V55l0,0.1l0,0.1
		l0,0.1l0,0.1l0,0.1l0,0.1l0,0.1l0,0.1l0,0.1l0,0.1l0,0.1l0,0.1l0,0.1l0,0.1l0,0.1l0,0.1l0,0.1l0,0.1l0,0.1l0,0.1l0,0.1l0,0
		c0.1,0.6-0.8,0.8-1,0.2l0,0l0,0l0-0.1l0-0.1l0-0.1l0-0.1l0-0.1l0-0.1l0-0.1l0-0.1l0-0.1l0-0.1l0-0.1l0-0.1l0-0.1l0-0.1l0-0.1l0-0.1
		l0-0.1l0-0.1l0-0.1l0-0.1l0-0.1v-0.1v-0.1l0-0.1l0-0.1l0-0.1l0-0.1l0-0.1l0-0.1l0-0.1l0-0.1l0-0.1l0-0.1l0-0.1l0-0.1L21.2,52.9
		L21.2,52.9L21.2,52.9z M22.1,61.1c-0.2-0.6,0.8-0.9,1-0.3l0,0l0,0.1l0,0.1l0,0.1l0,0.1l0,0.1l0.1,0.1l0.1,0.1l0.1,0.1l0.1,0.1
		l0.1,0.1l0.1,0.1l0.1,0.1l0.1,0.1l0.1,0.1l0.1,0.1l0.1,0.1l0.1,0.1L24,63l0.1,0.1l0.1,0.1l0.1,0.1l0.1,0.1l0.1,0.1l0.1,0.1l0.1,0.1
		l0.1,0.1l0.1,0.1l0.1,0.1l0.1,0.1l0.1,0.1l0.1,0.1l0.1,0.1l0.1,0.1l0.1,0.1l0.1,0.1l0,0c0.4,0.5-0.4,1.1-0.8,0.6l0,0l-0.1-0.1
		l-0.1-0.1l-0.1-0.1l-0.1-0.1L24,65l-0.1-0.1l-0.1-0.1l-0.1-0.1l-0.1-0.1l-0.1-0.1l-0.1-0.1l-0.1-0.1L23.4,64l-0.1-0.1l-0.1-0.1
		l-0.1-0.1l-0.1-0.1L23,63.4L23,63.2l-0.1-0.1L22.8,63l-0.1-0.1l-0.1-0.1l-0.1-0.1l-0.1-0.1l-0.1-0.1l-0.1-0.1L22.4,62l-0.1-0.1
		l-0.1-0.1l-0.1-0.1l-0.1-0.1l0-0.1l0-0.1L22.1,61.1L22.1,61.1z"/>
	<g>
		<path class="st0" d="M57.8,76L57.8,76L57.8,76L57.8,76L57.8,76L57.8,76L57.8,76L57.8,76L57.8,76L57.8,76L57.8,76L57.8,76L57.8,76
			L57.8,76L57.8,76L57.8,76L57.8,76l-4.9,2c-0.5,0.2-1-0.5-0.5-0.9c0,0,0.1,0,0.1-0.1l4.8-1.9c1-0.6,2.1-1.1,3.1-1.7
			c0.3-0.2,0.7-0.4,0.9-0.6c0.5-0.3,1.1,0.3,0.7,0.7c0,0-0.1,0.1-0.1,0.1C60.6,74.5,59.2,75.2,57.8,76L57.8,76L57.8,76z M64.3,71.5
			c-0.4,0.5-1.2-0.1-0.8-0.6l0,0l0,0l0,0l0,0l0,0l0,0l0,0l0,0l0,0l0,0l0,0l0,0l0,0l0,0l0,0l0,0l0,0l0,0l0,0l0,0l0,0l0,0l0,0l0,0l0,0
			l0,0l0,0l0,0c0.7-1.3,1.3-2.5,2-3.8c0.3-0.6,1.2-0.2,0.9,0.4l0,0c-0.7,1.2-1.3,2.5-2,3.8l0,0l0,0l0,0l0,0l0,0l0,0l0,0l0,0l0,0l0,0
			l0,0l0,0l0,0l0,0l0,0l0,0l0,0l0,0l0,0l0,0l0,0l0,0l0,0L64.3,71.5L64.3,71.5L64.3,71.5L64.3,71.5L64.3,71.5L64.3,71.5z M68.2,64.2
			c-0.3,0.6-1.2,0.2-1-0.4l0,0c0.7-1.6,1.1-3,1.3-4.7c0-0.1,0.1-0.2,0.1-0.3c0.3-0.4,1-0.1,0.9,0.4C69.4,61.1,68.9,62.6,68.2,64.2
			L68.2,64.2z M69.7,56.2c0,0.7-1,0.7-1,0v0v-0.1V56v-0.1l0-0.1v-0.1l0-0.1v-0.1l0-0.1l0-0.1l0-0.1l0-0.1l0-0.1l0-0.1l0-0.1l0-0.1
			l0-0.1l0-0.1l0-0.1l0-0.1l0-0.1l0-0.1l0-0.1l0-0.1l0-0.1l0-0.1l0-0.1l0-0.1l0-0.1l0-0.1l0-0.1l0-0.1l0-0.1l0-0.1l0-0.1l0-0.1
			l0-0.1l0-0.1l0-0.1l0-0.1l0-0.1l0-0.1l0-0.1l0-0.1l0-0.1l0-0.1l0-0.1l0-0.1l0-0.1l0-0.1l0-0.1l0-0.1l0-0.1l0-0.1l0-0.1l0-0.1
			l0-0.1l0-0.1l0-0.1l0-0.1l0-0.1l0-0.1l0-0.1l0-0.1l0-0.1l0-0.1l0-0.1l0-0.1c-0.1-0.6,0.8-0.8,1-0.2l0,0.1l0,0.1l0,0.1l0,0.1l0,0.1
			l0,0.1l0,0.1l0,0.1l0,0.1l0,0.1l0,0.1l0,0.1l0,0.1l0,0.1l0,0.1l0,0.1l0,0.1l0,0.1l0,0.1l0,0.1l0,0.1l0,0.1l0,0.1l0,0.1l0,0.1
			l0,0.1l0,0.1l0,0.1l0,0.1l0,0.1l0,0.1l0,0.1l0,0.1l0,0.1l0,0.1l0,0.1l0,0.1l0,0.1l0,0.1l0,0.1l0,0.1l0,0.1l0,0.1l0,0.1l0,0.1
			l0,0.1l0,0.1l0,0.1l0,0.1l0,0.1l0,0.1l0,0.1l0,0.1l0,0.1l0,0.1l0,0.1l0,0.1l0,0.1l0,0.1l0,0.1l0,0.1l0,0.1l0,0.1v0.1l0,0.1V56
			V56.2L69.7,56.2L69.7,56.2L69.7,56.2z M68.8,48.1c0.1,0.6-0.7,0.9-1,0.3l0,0c-0.4-1.6-0.8-3.2-1.4-4.8c-0.1-0.2,0-0.5,0.2-0.6
			c0.3-0.2,0.7,0,0.8,0.3C68,44.8,68.4,46.4,68.8,48.1L68.8,48.1z M66.2,40.3c0.3,0.6-0.6,1-0.9,0.4l0,0c-0.7-1.5-1.5-2.9-2.6-4.2
			c-0.4-0.4,0.1-1,0.6-0.8c0.1,0,0.1,0.1,0.2,0.1C64.6,37.2,65.5,38.8,66.2,40.3L66.2,40.3z M61.2,33.7c0.5,0.4-0.1,1.1-0.6,0.8
			l-0.1,0c-1.3-1.1-2.7-2-4.1-2.9c-0.5-0.3-0.2-1.1,0.5-0.9c0,0,0.1,0,0.1,0C58.4,31.6,59.8,32.6,61.2,33.7L61.2,33.7z M54.1,29.3
			c0.6,0.2,0.3,1.1-0.4,0.9l0,0l-0.1,0c-1.5-0.7-3.1-1.2-4.7-1.6c-0.6-0.1-0.5-1,0.1-1c0,0,0.1,0,0.1,0C50.8,28,52.5,28.6,54.1,29.3
			L54.1,29.3L54.1,29.3z M45.9,27.3c0.6,0,0.7,0.9,0,1c0,0-0.1,0-0.1,0c-1.7-0.1-3.4,0-5,0.3l0,0c-0.7,0.1-0.9-0.9-0.2-1l0.1,0
			C42.4,27.2,44.2,27.2,45.9,27.3L45.9,27.3z M40.6,27.5l0.2,1L40.6,27.5L40.6,27.5z M37.6,28.3c0.2-0.1,0.5,0,0.6,0.2
			c0.2,0.3,0,0.6-0.3,0.7L37.6,28.3L37.6,28.3z M37.9,29.3l-3.6,1.4l-0.4-0.9l0,0l0,0l0,0l0,0l0,0l0,0l0,0l0,0l0,0l0,0l0,0l0,0l0,0
			l0,0l0,0l0,0l0,0l0,0l0,0l0,0l0,0l0,0l0,0l0,0l0,0l0,0l0,0l0,0l0,0c-0.6,0.3-0.2,1.2,0.5,0.9l0,0l0,0l0,0l0,0l0,0l0,0l0,0l0,0l0,0
			l0,0l0,0l0,0l0,0l0,0l0,0l0,0l0,0l0,0l0,0l0,0l0,0l0,0l0,0l0,0l0,0l0,0l0,0l0,0l0,0v0C35.5,30.2,36.7,29.7,37.9,29.3L37.9,29.3z
			 M33.9,29.7l3.7-1.4C36.3,28.8,35.1,29.2,33.9,29.7L33.9,29.7z M33.9,29.7L33.9,29.7L33.9,29.7L33.9,29.7z M30,31.8
			c0.6-0.4,1.1,0.5,0.6,0.8l0,0c-1.3,0.9-2.7,2-3.7,3.2c-0.4,0.5-1.2-0.1-0.8-0.6l0,0C27.2,33.9,28.5,32.8,30,31.8L30,31.8L30,31.8z
			 M24.1,37.8c0.4-0.6,1.2-0.1,0.9,0.5c-0.6,0.9-1.1,1.8-1.7,2.6c-0.3,0.5-0.6,1.1-0.8,1.7c-0.2,0.5-1,0.3-1-0.2c0-0.1,0-0.1,0-0.2
			c0.3-0.6,0.5-1.2,0.9-1.8c0.4-0.5,0.7-1.1,1.1-1.6C23.7,38.4,23.9,38.1,24.1,37.8L24.1,37.8z M20.3,45c0.2-0.4,0.7-0.4,0.9-0.1
			c0.1,0.1,0.1,0.3,0,0.4c-0.7,1.5-1.2,3.1-1.6,4.7c-0.1,0.6-1.1,0.5-1-0.2l0,0C19.1,48.2,19.6,46.6,20.3,45L20.3,45z M18.2,52.9
			c0-0.6,1-0.7,1,0V53c-0.1,1.6,0.2,3.2,0.5,4.8l0,0.1c0.1,0.6-0.8,0.9-1,0.3l0-0.1l0-0.1C18.4,56.3,18.2,54.6,18.2,52.9L18.2,52.9z
			 M19.6,61c-0.2-0.5,0.6-0.9,0.9-0.4c0,0,0.1,0.1,0.1,0.1c0.5,1.6,1,3.2,1.7,4.7c0.3,0.5-0.5,1-0.9,0.5c0,0,0,0,0-0.1
			C20.6,64.3,20.1,62.7,19.6,61L19.6,61z M22.8,68.6c-0.3-0.5,0.2-1,0.7-0.7c0.1,0,0.1,0.1,0.1,0.1c0.9,1.4,2,2.6,3.3,3.7
			c0.5,0.4-0.1,1.1-0.7,0.8l0,0C25,71.3,23.8,70,22.8,68.6L22.8,68.6z M28.8,74.4c-0.2-0.2-0.3-0.5-0.2-0.7c0.2-0.2,0.5-0.3,0.7-0.2
			c1.4,0.9,2.9,1.6,4.5,2.3c0.4,0.2,0.4,0.7,0.1,0.9c-0.1,0.1-0.3,0.1-0.5,0C31.8,76.2,30.2,75.4,28.8,74.4L28.8,74.4z M36.4,77.9
			c-0.6-0.2-0.5-1,0.2-1c0,0,0.1,0,0.1,0c1.6,0.5,3.3,0.9,5,1.2c0.6,0.1,0.5,1.1-0.1,1l0,0C39.8,78.8,38.1,78.4,36.4,77.9L36.4,77.9
			z M44.6,79.4c-0.7-0.1-0.6-1,0.1-1h0c1.6,0.1,3.2,0.1,4.8-0.1l0.1-0.1c0.5-0.2,1,0.5,0.5,0.9c0,0-0.1,0-0.1,0.1l-0.2,0.1
			c-0.1,0-0.1,0-0.2,0C48,79.5,46.3,79.6,44.6,79.4z"/>
	</g>
	<g>
		<path class="st0" d="M51.4,24.3c1.7,0.3,3.4,0.5,5.1,1c0.2,0.1,0.3,0.2,0.4,0.4c0.1,0.4-0.3,0.7-0.6,0.6c-1.7-0.4-3.3-0.7-5-1
			l-0.2,0l-0.2,0l-0.2,0l-0.2,0l-0.2,0l-0.2,0l-0.2,0l-0.2,0l-0.2,0l-0.2,0l-0.2,0l-0.2,0l-0.2,0L48,25l-0.2,0l-0.2,0l-0.2,0l-0.2,0
			l-0.2,0l-0.1,0c-0.5,0-0.7-0.6-0.3-0.9c0.1-0.1,0.2-0.1,0.3-0.1l0.1,0l0.2,0l0.2,0l0.2,0l0.2,0l0.2,0l0.2,0l0.2,0l0.2,0l0.2,0
			l0.2,0l0.2,0l0.2,0l0.2,0l0.2,0l0.2,0l0.2,0l0.2,0l0.2,0L51.4,24.3L51.4,24.3z M43.7,24.1c0.6-0.1,0.8,0.9,0.1,1l-0.1,0l-0.1,0
			l-0.2,0l-0.2,0l-0.2,0l-0.2,0l-0.2,0l-0.2,0l-0.2,0l-0.2,0l-0.2,0l-0.2,0l-0.2,0l-0.2,0l-0.2,0l-0.2,0l-0.2,0l-0.2,0l-0.2,0
			l-0.2,0l-0.2,0l-0.2,0l-0.2,0l-0.2,0l0,0c-0.6,0.1-0.9-0.8-0.3-1l0,0l0,0l0.2-0.1l0.2,0l0.2,0l0.2,0l0.2,0l0.2,0l0.2,0l0.2,0
			l0.2,0l0.2,0l0.2,0l0.2,0l0.2,0l0.2,0l0.2,0l0.2,0l0.2,0l0.2,0l0.2,0l0.2,0l0.2,0L43.7,24.1L43.7,24.1L43.7,24.1z M35.5,25.7
			c0.5-0.2,0.9,0.4,0.5,0.8c-0.1,0.1-0.1,0.1-0.2,0.1l-0.1,0l-0.2,0.1l-0.2,0.1L35,26.9L34.8,27l-0.2,0.1l-0.2,0.1l-0.2,0.1
			l-0.2,0.1l-0.2,0.1l-0.2,0.1l-0.2,0.1l-0.2,0.1l-0.2,0.1l-0.2,0.1l-0.2,0.1L32.3,28l-0.2,0.1l-0.2,0.1l-0.2,0.1l-0.2,0.1l-0.2,0.1
			l-0.2,0.1c-0.6,0.3-1.1-0.6-0.5-0.9l0.2-0.1l0.2-0.1l0.2-0.1l0.2-0.1l0.2-0.1l0.2-0.1l0.2-0.1l0.2-0.1l0.2-0.1l0.2-0.1l0.2-0.1
			l0.2-0.1l0.2-0.1l0.2-0.1l0.2-0.1l0.2-0.1l0.2-0.1l0.2-0.1l0.2-0.1l0.2-0.1l0.2-0.1l0.2-0.1L35.5,25.7L35.5,25.7z M27.8,29.1
			c0.5-0.3,1.1,0.4,0.6,0.8l0,0l-0.1,0l-0.2,0.1l-0.2,0.1l-0.2,0.1l-0.2,0.1l-0.2,0.1l-0.2,0.1L27,30.9L26.8,31l-0.2,0.1l-0.2,0.1
			l-0.2,0.1l-0.2,0.1l-0.2,0.1l-0.2,0.1l-0.2,0.1L25.4,32l-0.2,0.1L25,32.3l-0.2,0.1l-0.2,0.1l-0.2,0.1l-0.2,0.1l-0.1,0.1
			c-0.5,0.4-1.2-0.2-0.7-0.7l0,0l0.1-0.1l0.2-0.1l0.2-0.1l0.2-0.1l0.2-0.1l0.2-0.1l0.2-0.1l0.2-0.1l0.2-0.1l0.2-0.1l0.2-0.1l0.2-0.1
			l0.2-0.1l0.2-0.1l0.2-0.1l0.2-0.1l0.2-0.1l0.2-0.1l0.2-0.1l0.2-0.1l0.2-0.1l0.2-0.1L27.8,29.1L27.8,29.1L27.8,29.1z M21.3,34.3
			c0.4-0.4,1.2,0.1,0.8,0.6l0,0L22,35.1l-0.1,0.2l-0.1,0.2l-0.1,0.2l-0.1,0.2l-0.1,0.2L21.1,36l-0.1,0.2l-0.1,0.2l-0.1,0.2l-0.1,0.2
			l-0.1,0.2L20.3,37l-0.1,0.2L20,37.4l-0.1,0.2l-0.1,0.2l-0.1,0.2l-0.1,0.2l-0.1,0.2l-0.1,0.2l-0.1,0.2L19,38.8l-0.1,0.1
			c-0.1,0.1-0.2,0.2-0.4,0.2c-0.4,0-0.7-0.4-0.5-0.8l0.1-0.1l0.1-0.2l0.1-0.2l0.1-0.2l0.1-0.2l0.1-0.2l0.1-0.2l0.1-0.2l0.1-0.2
			l0.1-0.2l0.1-0.2l0.1-0.2l0.1-0.2l0.1-0.2l0.1-0.2l0.1-0.2l0.1-0.2l0.1-0.2l0.1-0.2l0.2-0.2l0.2-0.2l0.2-0.2l0.2-0.2L21.3,34.3
			L21.3,34.3z M16.5,41c0.3-0.6,1.2-0.2,0.9,0.4l-0.1,0.1l-0.1,0.2l-0.1,0.2l-0.1,0.2L17,42.3L17,42.5l-0.1,0.2l-0.1,0.2l-0.1,0.2
			l-0.1,0.2l-0.1,0.2l-0.1,0.2l-0.1,0.2l-0.1,0.2l-0.1,0.2l-0.1,0.2l-0.1,0.2L16.1,45L16,45.2l-0.1,0.2l-0.1,0.2l-0.1,0.2L15.8,46
			l0,0.1c-0.1,0.4-0.7,0.5-0.9,0.2c-0.1-0.1-0.1-0.2-0.1-0.4l0-0.1l0.1-0.2l0.1-0.2l0.1-0.2l0.1-0.2l0.1-0.2l0.1-0.2l0.1-0.2
			l0.1-0.2l0.1-0.2l0.1-0.2l0.1-0.2l0.1-0.2l0.1-0.2l0.1-0.2l0.1-0.2l0.1-0.2l0.1-0.2l0.1-0.2l0.1-0.2l0.1-0.2l0.1-0.2l0.1-0.2
			L16.5,41L16.5,41z M14.2,48.9c0.1-0.6,1-0.6,1,0c0,0,0,0.1,0,0.1l0,0.1l0,0.2l0,0.2l0,0.2l0,0.2l0,0.2l0,0.2l0,0.2l0,0.2l0,0.2
			l0,0.2l0,0.2l0,0.2v0.2l0,0.2l0,0.2l0,0.2l0,0.2l0,0.2l0,0.2l0,0.2l0,0.2c0.1,0.6-0.9,0.8-1,0.1l0-0.1l0-0.2l0-0.2l0-0.2l0-0.2
			l0-0.2l0-0.2l0-0.2l0-0.2v-0.2l0-0.2l0-0.2l0-0.2l0-0.2l0-0.2l0-0.2l0-0.2l0-0.2l0-0.2l0-0.2l0-0.2L14.2,48.9L14.2,48.9L14.2,48.9
			z M14.5,57.1c-0.1-0.7,0.9-0.8,1-0.2v0l0,0.1l0,0.3l0.1,0.3l0.1,0.3l0.1,0.3l0.1,0.3l0.1,0.3l0.1,0.3L16,59l0,0.1l0,0.1l0,0.1
			l0,0.1l0,0.1l0,0.1l0,0.1l0,0.1l0,0.1l0,0.1l0,0.1l0,0.1l0,0.1l0,0.1l0,0.1l0,0.1l0,0.1l0,0.1l0,0.1l0,0.1l0,0.1l0,0.1v0
			c0.1,0.2,0,0.5-0.2,0.6c-0.3,0.2-0.7,0-0.8-0.3l0,0l0-0.1l0-0.1l0-0.1l0-0.1l0-0.1l0-0.1l0-0.1l0-0.1l0-0.1l0-0.1l0-0.1l0-0.1
			l0-0.1l0-0.1l0-0.1l0-0.1l0-0.1l0-0.1l0-0.1l0-0.1l0-0.1l0-0.1L14.9,59l-0.1-0.3l-0.1-0.3l-0.1-0.3l-0.1-0.3l-0.1-0.3l-0.1-0.3
			L14.5,57.1L14.5,57.1L14.5,57.1z M16.8,61.7L16.8,61.7L16.8,61.7L16.8,61.7z M17,64.9c-0.2-0.5,0.5-1,0.9-0.5c0,0,0,0.1,0.1,0.1
			l0,0.1l0.1,0.1l0.1,0.1l0.1,0.1l0.1,0.1l0.1,0.1l0.1,0.1l0.1,0.1l0.1,0.1l0.1,0.1l0.1,0.1l0.1,0.1l0.1,0.1l0.1,0.1l0.1,0.1
			l0.1,0.1l0.1,0.1l0.1,0.1l0.1,0.1l0.1,0.1l0.1,0.1l0.1,0.1l0.1,0.1l0.1,0.1l0.1,0.1l0.1,0.1l0.1,0.1l0.1,0.1l0.1,0.1l0.1,0.1
			l0.1,0.1l0.1,0.1l0.1,0.1l0.1,0.1l0.1,0.1l0.1,0.1l0.1,0.1l0,0.1c0.3,0.5-0.4,1.1-0.8,0.6c0,0,0-0.1-0.1-0.1l0-0.1l-0.1-0.1
			l-0.1-0.1L19.2,69l-0.1-0.1L19,68.7L19,68.6l-0.1-0.1l-0.1-0.1l-0.1-0.1l-0.1-0.1L18.6,68l-0.1-0.1l-0.1-0.1l-0.1-0.1l-0.1-0.1
			l-0.1-0.1l-0.1-0.1l-0.1-0.1L18.1,67L18,66.9L18,66.8l-0.1-0.1l-0.1-0.1l-0.1-0.1l-0.1-0.1l-0.1-0.1L17.6,66l-0.1-0.1l-0.1-0.1
			l-0.1-0.1l-0.1-0.1l-0.1-0.1l-0.1-0.1l-0.1-0.1L17.1,65L17,64.9L17,64.9L17,64.9z M21.2,71.9c-0.2-0.2-0.1-0.5,0.1-0.7
			c0.2-0.2,0.6-0.2,0.8,0.1l0,0l0.1,0.1l0.1,0.1l0.1,0.1l0.1,0.1l0.1,0.1l0.1,0.1l0.1,0.1l0.1,0.1l0.1,0.1l0.1,0.1l0.1,0.1l0.1,0.1
			l0.1,0.1l0.1,0.1l0.1,0.1l0.1,0.1l0.1,0.1l0.1,0.1l0.1,0.1l0.1,0.1l0.1,0.1l0.1,0.1l0.1,0.1l0.1,0.1l0.1,0.1l0.1,0.1l0.1,0.1
			l0.1,0.1l0.1,0.1l0.1,0.1l0.1,0.1l0.1,0.1l0.1,0.1l0.1,0.1l0.1,0.1l0.1,0.1l0.1,0.1c0.2,0.2,0.2,0.5,0,0.7c-0.2,0.2-0.6,0.2-0.8,0
			l-0.1-0.1l-0.1-0.1l-0.1-0.1l-0.1-0.1l-0.1-0.1L24,75.3l-0.1-0.1l-0.1-0.1L23.7,75l-0.1-0.1l-0.1-0.1l-0.1-0.1l-0.1-0.1l-0.1-0.1
			l-0.1-0.1l-0.1-0.1L23,74.2l-0.1-0.1L22.8,74l-0.1-0.1l-0.1-0.1l-0.1-0.1l-0.1-0.1l-0.1-0.1l-0.1-0.1l-0.1-0.1l-0.1-0.1L22,73
			l-0.1-0.1l-0.1-0.1l-0.1-0.1l-0.1-0.1l-0.1-0.1l-0.1-0.1l-0.1-0.1l-0.1-0.1L21.2,71.9L21.2,71.9L21.2,71.9z M26.8,78
			c-0.5-0.4,0.1-1.1,0.6-0.8l0.1,0l0.1,0.1l0.1,0.1l0.1,0.1l0.1,0.1l0.1,0.1l0.1,0.1l0.1,0.1l0.1,0.1l0.1,0.1l0.1,0.1l0.1,0.1
			l0.1,0.1l0.1,0.1l0.1,0.1l0.1,0.1l0.1,0.1l0.1,0.1l0.1,0.1l0.1,0.1l0.1,0.1l0.1,0.1l0.1,0.1l0.1,0.1l0.1,0.1l0.1,0.1l0.1,0.1
			l0.1,0.1l0.1,0.1l0.1,0.1l0.1,0.1l0.1,0.1l0.1,0.1l0.1,0.1l0.1,0.1l0.1,0.1l0.1,0.1l0.1,0.1l0.1,0.1l0.1,0.1
			c0.1,0.1,0.2,0.2,0.2,0.3c0.1,0.4-0.4,0.8-0.8,0.6l-0.1-0.1L30.8,81l-0.1-0.1l-0.1-0.1l-0.1-0.1l-0.1-0.1l-0.1-0.1l-0.1-0.1
			L30,80.5l-0.1-0.1l-0.1-0.1l-0.1-0.1l-0.1-0.1l-0.1-0.1L29.3,80l-0.1-0.1l-0.1-0.1L29,79.8l-0.1-0.1l-0.1-0.1l-0.1-0.1l-0.1-0.1
			l-0.1-0.1l-0.1-0.1l-0.1-0.1l-0.1-0.1L28,79L27.9,79l-0.1-0.1l-0.1-0.1l-0.1-0.1l-0.1-0.1l-0.1-0.1l-0.1-0.1l-0.1-0.1l-0.1-0.1
			L27,78.2L26.8,78L26.8,78L26.8,78z M33.8,82.6c-0.2-0.1-0.3-0.3-0.3-0.5c0.1-0.3,0.4-0.5,0.7-0.4l0.1,0l0.1,0l0.1,0l0.1,0l0.1,0
			l0.1,0l0.1,0l0.1,0l0.1,0l0.1,0l0.1,0l0.1,0l0.1,0l0.1,0l0.1,0l0.1,0l0.1,0l0.1,0l0.1,0l0.1,0l0.1,0l0.1,0l0.1,0l0.1,0l0.1,0
			l0.1,0l0.1,0l0.1,0l0.1,0l0.1,0l0.1,0l0.1,0l0.1,0l0.1,0l0.1,0l0.1,0l0.1,0l0.1,0l0.1,0l0.1,0l0.1,0l0,0c0.6,0.1,0.5,1.1-0.2,1
			l-0.1,0l0,0l-0.1,0l-0.1,0l-0.1,0l-0.1,0l-0.1,0L38,84l-0.1,0l-0.1,0l-0.1,0l-0.1,0l-0.1,0l-0.1,0l-0.1,0l-0.1,0l-0.1,0l-0.1,0
			l-0.1,0l-0.1,0l-0.1,0l-0.1,0l-0.1,0l-0.1,0l-0.1,0l-0.1,0l-0.1,0l-0.1,0l-0.1,0l-0.1,0l-0.1,0l-0.1,0l-0.1,0l-0.1,0l-0.1,0
			l-0.1,0l-0.1,0l-0.1,0l-0.1-0.1l-0.1-0.1L34,82.7l-0.1-0.1L33.8,82.6L33.8,82.6z M41.9,84.7c-0.6-0.1-0.6-1,0.1-1l0.1,0l0,0l0.1,0
			l0.1,0l0.1,0l0.1,0l0.1,0l0.1,0l0.1,0l0.1,0l0.1,0l0.1,0l0.1,0l0.1,0l0.1,0l0.1,0l0.1,0l0.1,0l0.1,0l0.1,0l0.1,0l0.1,0l0.1,0
			l0.1,0l0.1,0l0.1,0l0.1,0h0.1h0.1l0.1,0l0.1,0l0.1,0l0.1,0l0.1,0l0.1,0l0.1,0l0.1,0l0.1,0l0.1,0l0.1,0l0.1,0l0,0
			c0.7,0,0.7,0.9,0.1,1h0l0,0l-0.1,0l-0.1,0l-0.1,0l-0.1,0l-0.1,0l-0.1,0l-0.1,0l-0.1,0l-0.1,0l-0.1,0l-0.1,0l-0.1,0h-0.1h-0.1
			l-0.1,0l-0.1,0l-0.1,0l-0.1,0l-0.1,0l-0.1,0l-0.1,0l-0.1,0l-0.1,0l-0.1,0l-0.1,0l-0.1,0l-0.1,0l-0.1,0l-0.1,0l-0.1,0l-0.1,0
			l-0.1,0l-0.1,0l-0.1,0l-0.1,0l-0.1,0l-0.1,0l-0.1,0L41.9,84.7L41.9,84.7L41.9,84.7z M50.3,84.6c-0.2,0-0.5-0.1-0.6-0.3
			c-0.1-0.3,0.1-0.6,0.4-0.7l0.1,0l0.1,0l0.1,0l0.1,0l0.1,0l0.1,0l0.1,0l0.1,0l0.1,0l0.1,0l0.1,0l0.1,0l0.1,0l0.1,0l0.1,0l0.1,0
			l0.1,0l0.1,0l0.1,0l0.1,0l0.1,0l0.1,0l0.1,0l0.1,0l0.1,0l0.1,0l0.1,0l0.1,0l0.1,0l0.1,0l0.1,0l0.1,0l0.1,0l0.1,0l0.1,0l0.1,0
			l0.1,0l0.1,0l0.1,0l0,0c0.2-0.1,0.5,0,0.6,0.2c0.2,0.3,0,0.6-0.3,0.7l0,0l-0.1,0l-0.1,0l-0.1,0l-0.1,0l-0.1,0l-0.1,0l-0.1,0
			l-0.1,0l-0.1,0l-0.1,0l-0.1,0l-0.1,0l-0.1,0l-0.1,0l-0.1,0l-0.1,0l-0.1,0l-0.1,0l-0.1,0l-0.1,0l-0.1,0l-0.1,0l-0.1,0l-0.1,0
			l-0.1,0l-0.1,0l-0.1,0l-0.1,0l-0.1,0l-0.1,0l-0.1,0l-0.1,0l-0.1,0l-0.1,0l-0.1,0l-0.1,0l-0.1,0L50.3,84.6L50.3,84.6L50.3,84.6z
			 M58.4,82.5c-0.3,0.1-0.5,0-0.7-0.3c-0.1-0.3,0-0.6,0.3-0.7l0.1,0l0.1,0l0.1,0l0.1,0l0.1,0l0.1,0l0.1-0.1l0.1-0.1l0.1-0.1l0.1-0.1
			l0.1-0.1l0.1-0.1l0.1-0.1l0.1-0.1l0.1-0.1l0.1-0.1l0.1-0.1l0.1-0.1l0.1-0.1l0.1-0.1l0.1-0.1l0.1-0.1l0.1-0.1l0.1-0.1l0.1-0.1
			l0.1-0.1l0.1-0.1l0.1-0.1l0.1-0.1l0.1-0.1l0.1-0.1l0.1-0.1l0.1-0.1l0.1-0.1l0.1-0.1l0.1-0.1l0.1-0.1l0.1-0.1l0,0
			c0.5-0.3,1.1,0.4,0.6,0.8c0,0,0,0-0.1,0l-0.1,0L63,80.4l-0.1,0.1l-0.1,0.1l-0.1,0.1l-0.1,0.1l-0.1,0.1l-0.1,0.1l-0.1,0.1L62,80.9
			l-0.1,0.1L61.8,81l-0.1,0.1l-0.1,0.1l-0.1,0.1l-0.1,0.1l-0.1,0.1L61,81.3l-0.1,0.1l-0.1,0.1l-0.1,0.1l-0.1,0.1l-0.1,0.1l-0.1,0.1
			l-0.1,0.1L60,81.8l-0.1,0.1l-0.1,0.1L59.7,82L59.5,82l-0.1,0.1l-0.1,0.1l-0.1,0.1L59,82.2l-0.1,0.1l-0.1,0.1l-0.1,0l-0.1,0
			L58.4,82.5L58.4,82.5z M65.8,78.6c-0.5,0.3-1.1-0.4-0.6-0.8l0,0l0.1,0l0.1-0.1l0.1-0.1l0.1-0.1l0.1-0.1l0.1-0.1l0.1-0.1l0.1-0.1
			l0.1-0.1l0.1-0.1l0.1-0.1l0.1-0.1l0.1-0.1l0.1-0.1l0.1-0.1l0.1-0.1l0.1-0.1l0.1-0.1l0.1-0.1l0.1-0.1l0.1-0.1l0.1-0.1l0.1-0.1
			l0.1-0.1l0.1-0.1l0.1-0.1l0.1-0.1l0.1-0.1l0.1-0.1l0.1-0.1l0.1-0.1l0.1-0.1l0.1-0.1l0.1-0.1l0.1-0.1l0.1-0.1l0,0l0,0l0,0l0,0l0,0
			l0,0c0.5-0.4,1.1,0.1,0.8,0.6c0,0,0,0.1-0.1,0.1l0,0l0,0l0,0l0,0l0,0l0,0l-0.1,0.1l-0.1,0.1l-0.1,0.1L69.3,76l-0.1,0.1L69,76.2
			l-0.1,0.1l-0.1,0.1l-0.1,0.1l-0.1,0.1l-0.1,0.1l-0.1,0.1l-0.1,0.1l-0.1,0.1L68.1,77L68,77.1l-0.1,0.1l-0.1,0.1l-0.1,0.1l-0.1,0.1
			l-0.1,0.1l-0.1,0.1l-0.1,0.1l-0.1,0.1L67,77.8l-0.1,0.1L66.8,78L66.7,78l-0.1,0.1l-0.1,0.1l-0.1,0.1l-0.1,0.1l-0.1,0.1L66,78.5
			L65.8,78.6L65.8,78.6L65.8,78.6z M72.1,73.2c-0.4,0.5-1.2-0.1-0.8-0.6c1.1-1.3,1.9-2.7,2.7-4.2c0.2-0.5,1.1-0.3,1,0.3l0,0.1
			C74.1,70.4,73.2,71.8,72.1,73.2L72.1,73.2z M76,65.9c-0.2,0.6-1.1,0.4-1-0.2l0-0.1l0.1-0.3c0.4-1.5,0.7-3,0.9-4.5l0,0
			c0.1-0.6,1-0.6,1,0.1l0,0.1v0c-0.2,1.6-0.5,3.1-0.9,4.7L76,65.9L76,65.9z M77.4,57.9c-0.1,0.7-1.1,0.5-1-0.1c0-0.5,0.1-1,0.2-1.5
			c0.1-1-0.1-2-0.1-2.9l0-0.4c-0.1-0.6,0.9-0.8,1-0.1l0,0.1c0.1,0.8,0.2,1.7,0.2,2.6C77.6,56.2,77.5,57,77.4,57.9L77.4,57.9
			L77.4,57.9z M77,49.7c0.1,0.6-0.8,0.9-1,0.3l0-0.1c0-0.1-0.1-0.3-0.1-0.4c-0.4-1.5-1-2.9-1.6-4.3c-0.2-0.5,0.5-1,0.9-0.5
			c0,0,0,0.1,0.1,0.1c0.5,1.2,1,2.4,1.4,3.7C76.8,48.9,76.9,49.3,77,49.7L77,49.7z M73.9,42.1c0.3,0.6-0.5,1-0.9,0.5
			c0,0,0-0.1-0.1-0.1l0-0.1l0-0.1l-0.1-0.1l0-0.1L72.7,42l-0.1-0.1l0-0.1l-0.1-0.1l-0.1-0.1l-0.1-0.1l-0.1-0.1l-0.1-0.1l-0.1-0.1
			l-0.1-0.1L72.2,41l-0.1-0.1l-0.1-0.1l-0.1-0.1L72,40.6L72,40.5l-0.1-0.1l-0.1-0.1l-0.1-0.1l-0.1-0.1l-0.1-0.1L71.6,40l-0.1-0.1
			l-0.1-0.1l-0.1-0.1l-0.1-0.1l-0.1-0.1l-0.1-0.1l-0.1-0.1l-0.1-0.1l-0.1-0.1L71.1,39L71,38.9L71,38.8l-0.1-0.1l-0.1-0.1l-0.1-0.1
			l-0.1-0.1l-0.1-0.1l-0.1-0.1l-0.1-0.1l0,0c-0.3-0.6,0.5-1.1,0.9-0.5l0,0l0,0l0.1,0.1l0.1,0.1l0.1,0.1l0.1,0.1l0.1,0.1l0.1,0.1
			l0.1,0.1l0.1,0.1l0.1,0.1l0.1,0.1l0.1,0.1l0.1,0.1l0.1,0.1l0.1,0.1l0.1,0.1l0.1,0.1l0.1,0.1l0.1,0.1l0.1,0.1l0.1,0.1l0.1,0.1
			l0.1,0.1l0.1,0.1l0.1,0.1l0.1,0.1l0.1,0.1l0.1,0.1l0.1,0.1l0.1,0.1l0.1,0.1l0.1,0.1l0.1,0.1l0.1,0.1l0.1,0.1l0.1,0.1l0.1,0.1
			l0.1,0.1l0.1,0.1l0.1,0.1l0.1,0.1l0.1,0.1l0.1,0.1l0.1,0.1L73.9,42.1L73.9,42.1L73.9,42.1z M69.8,35c0.3,0.5-0.4,1.1-0.9,0.6l0,0
			c-0.4-0.7-0.9-1.3-1.4-1.9c-0.5-0.7-1.1-1.4-1.7-2c-0.4-0.4,0-1.1,0.6-0.8c0.1,0,0.1,0,0.1,0.1c0.5,0.5,1,1,1.5,1.6
			C68.7,33.3,69.3,34.1,69.8,35L69.8,35z M64.1,29c0.5,0.4,0,1.2-0.6,0.8l0,0c-1.4-0.9-2.8-1.9-4.4-2.5c-0.1-0.1-0.2-0.1-0.3-0.3
			c-0.2-0.4,0.3-0.8,0.7-0.6C61.1,27.1,62.6,28,64.1,29z"/>
	</g>
	<g>
		<path class="st0" d="M25.2,85L25.2,85L25.2,85L25.2,85l-0.1-0.1L25,84.9l-0.1-0.1l-0.1-0.1l-0.1-0.1l-0.1-0.1l-0.1-0.1l-0.1-0.1
			l-0.1-0.1l-0.1-0.1l-0.1-0.1L24,84.3l-0.1-0.1l-0.1-0.1l-0.1-0.1L23.6,84L23.5,84l-0.1-0.1l-0.1-0.1l-0.1-0.1l-0.1-0.1L23,83.6
			l-0.1-0.1l-0.1-0.1l-0.1-0.1l-0.1-0.1l-0.1-0.1l-0.1-0.1l-0.1-0.1l-0.1-0.1L22.2,83l-0.1-0.1L22,82.8l-0.1-0.1l-0.1-0.1l-0.1-0.1
			l-0.1-0.1l-0.1-0.1l-0.1-0.1l-0.1-0.1l-0.1-0.1l-0.1-0.1l-0.1-0.1L21,82L21,81.9l0,0c-0.5-0.5,0.2-1.2,0.7-0.7l0,0l0.1,0.1
			l0.1,0.1l0.1,0.1l0.1,0.1l0.1,0.1l0.1,0.1l0.1,0.1l0.1,0.1l0.1,0.1l0.1,0.1l0.1,0.1l0.1,0.1l0.1,0.1l0.1,0.1l0.1,0.1l0.1,0.1
			l0.1,0.1l0.1,0.1l0.1,0.1l0.1,0.1l0.1,0.1l0.1,0.1l0.1,0.1l0.1,0.1l0.1,0.1l0.1,0.1l0.1,0.1l0.1,0.1l0.1,0.1l0.1,0.1l0.1,0.1
			l0.1,0.1l0.1,0.1l0.1,0.1l0.1,0.1l0.1,0.1l0.1,0.1l0.1,0.1l0.1,0.1l0.1,0.1l0.1,0.1l0.1,0.1l0.1,0.1l0.1,0.1l0.1,0.1l0.2,0.1
			l0.2,0.1l0.2,0.1l0.1,0.1c0.6,0.3,0.2,1.1-0.4,0.9l-0.1,0l-0.1-0.1l-0.2-0.1l-0.2-0.1L25.2,85L25.2,85z M28.7,86.6
			c-0.5-0.2-0.4-1,0.2-1c0.1,0,0.1,0,0.2,0l0.1,0l0.2,0.1l0.2,0.1l0.2,0.1l0.2,0.1L30,86l0.2,0.1l0.2,0.1l0.2,0.1l0.2,0.1l0.2,0.1
			l0.2,0.1l0.2,0.1l0.2,0.1l0.2,0.1l0.2,0.1l0.2,0.1l0.2,0.1l0.2,0.1l0.2,0.1l0.2,0.1l0.2,0.1l0.2,0l0.2,0l0.2,0l0.2,0l0.1,0
			c0.6,0.1,0.5,1.1-0.2,1l0,0l-0.1,0l-0.2,0l-0.2,0L33,87.9l-0.2-0.1l-0.2-0.1l-0.2-0.1l-0.2-0.1L32,87.7l-0.2-0.1l-0.2-0.1
			l-0.2-0.1l-0.2-0.1L31,87.4l-0.2-0.1l-0.2-0.1l-0.2-0.1l-0.2-0.1l-0.2-0.1L29.9,87l-0.2-0.1l-0.2-0.1l-0.2-0.1l-0.2-0.1l-0.2-0.1
			L28.7,86.6L28.7,86.6L28.7,86.6z M36.8,88.7c-0.6-0.1-0.6-1,0.1-1l0.1,0l0.1,0l0.2,0l0.2,0l0.2,0l0.2,0l0.2,0l0.2,0l0.2,0l0.2,0
			l0.2,0l0.2,0l0.2,0l0.2,0l0.2,0l0.2,0l0.2,0l0.2,0l0.2,0l0.2,0l0.2,0l0.2,0l0.2,0l0.2,0l0.2,0l0.1,0c0.6,0,0.7,0.9,0,1H42l-0.1,0
			l-0.2,0l-0.2,0l-0.2,0l-0.2,0l-0.2,0l-0.2,0l-0.2,0l-0.2,0l-0.2,0l-0.2,0l-0.2,0l-0.2,0L39,89l-0.2,0l-0.2,0l-0.2,0l-0.2,0l-0.2,0
			l-0.2,0l-0.2,0l-0.2,0l-0.2,0L36.8,88.7L36.8,88.7L36.8,88.7z M45.1,89.3c-0.6,0-0.7-0.9-0.1-1c0,0,0.1,0,0.1,0l0.1,0l0.2,0l0.2,0
			l0.2,0l0.2,0l0.2,0l0.2,0l0.2,0l0.2,0l0.2,0l0.2,0l0.2,0l0.2,0l0.2,0l0.2,0l0.2,0l0.2,0l0.2,0l0.2,0l0.2,0l0.2,0l0.2,0l0.2,0
			l0.2,0c0.6-0.1,0.8,0.7,0.2,1c0,0-0.1,0-0.1,0l-0.2,0L50,89l-0.2,0l-0.2,0l-0.2,0l-0.2,0l-0.2,0l-0.2,0l-0.2,0l-0.2,0l-0.2,0
			l-0.2,0l-0.2,0l-0.2,0l-0.2,0l-0.2,0l-0.2,0l-0.2,0l-0.2,0l-0.2,0l-0.2,0l-0.2,0L45.1,89.3L45.1,89.3L45.1,89.3z M53.5,88.4
			c-0.6,0.1-0.9-0.7-0.3-1c0,0,0.1,0,0.1,0l0.1,0l0.2,0l0.2,0l0.2,0l0.2,0l0.2,0l0.2,0l0.2-0.1l0.2-0.1l0.2-0.1l0.2-0.1l0.2-0.1
			l0.2-0.1l0.2-0.1l0.2-0.1l0.2-0.1l0.2-0.1l0.2-0.1l0.2-0.1l0.2-0.1l0.2-0.1l0.2-0.1l0.2-0.1l0.1,0c0.6-0.2,1,0.6,0.4,0.9l0,0
			l-0.1,0l-0.2,0.1L58,87.3l-0.2,0.1l-0.2,0.1l-0.2,0.1l-0.2,0.1l-0.2,0.1l-0.2,0.1l-0.2,0.1l-0.2,0.1L56,87.9l-0.2,0.1L55.6,88
			L55.4,88l-0.2,0.1l-0.2,0.1l-0.2,0.1l-0.2,0l-0.2,0l-0.2,0l-0.2,0l-0.2,0L53.5,88.4L53.5,88.4z M61.5,86c-0.5,0.2-1-0.5-0.5-0.9
			c0,0,0.1,0,0.1-0.1l0.2-0.1l0.2-0.1l0.2-0.1l0.2-0.1l0.2-0.1l0.2-0.1l0.2-0.1l0.2-0.1l0.2-0.1l0.2-0.1l0.2-0.1l0.2-0.1l0.2-0.1
			l0.2-0.1l0.2-0.1l0.2-0.1l0.2-0.1l0.2-0.1l0.2-0.1l0.2-0.1l0.2-0.1l0.2-0.1l0.2-0.1c0.5-0.3,1.1,0.3,0.7,0.8c0,0-0.1,0.1-0.1,0.1
			L66,83.8l-0.2,0.1L65.6,84l-0.2,0.1l-0.2,0.1L65,84.4l-0.2,0.1l-0.2,0.1l-0.2,0.1l-0.2,0.1L64,84.9L63.8,85l-0.2,0.1l-0.2,0.1
			l-0.2,0.1l-0.2,0.1l-0.2,0.1l-0.2,0.1l-0.2,0.1l-0.2,0.1l-0.2,0.1L61.7,86L61.5,86L61.5,86z M68.7,81.9c-0.5,0.3-1.1-0.2-0.7-0.7
			c0,0,0.1-0.1,0.1-0.1l0.1-0.1l0.2-0.1l0.2-0.1l0.2-0.1l0.2-0.1l0.2-0.1l0.2-0.1l0.2-0.1l0.2-0.1l0.2-0.1l0.2-0.1l0.2-0.1l0.2-0.1
			l0.2-0.2l0.2-0.2l0.2-0.2l0.2-0.2l0.2-0.2l0.2-0.2l0.2-0.2l0.2-0.2l0.2-0.2l0.1-0.1c0.4-0.4,1.2,0.1,0.8,0.6l0,0l-0.1,0.1
			l-0.2,0.2L72.2,79L72,79.1l-0.2,0.2l-0.2,0.2l-0.2,0.2l-0.2,0.2l-0.2,0.2L71,80.1l-0.2,0.2l-0.2,0.2l-0.2,0.2l-0.2,0.2l-0.2,0.1
			L69.9,81l-0.2,0.1l-0.2,0.1l-0.2,0.1l-0.2,0.1L69,81.7l-0.2,0.1L68.7,81.9L68.7,81.9z M74.7,76.1c-0.3,0.4-1,0.1-0.9-0.4
			c0-0.1,0-0.1,0.1-0.2l0,0l0.1-0.2l0.1-0.2l0.1-0.2l0.1-0.2l0.1-0.2l0.1-0.2l0.1-0.2l0.1-0.2l0.1-0.2l0.1-0.2l0.1-0.2
			c0.1-0.1,0.2-0.3,0.2-0.4c0.3-0.6,0.5-1.1,0.7-1.7c0.2-0.5,1.1-0.4,1,0.3l0,0.1c-0.2,0.4-0.3,0.8-0.5,1.2
			c-0.2,0.4-0.3,0.8-0.6,1.1l-0.1,0.2l-0.1,0.2l-0.1,0.2l-0.1,0.2L75.5,75l-0.1,0.2l-0.1,0.2l-0.1,0.2L75,75.8l-0.1,0.2L74.7,76.1
			L74.7,76.1L74.7,76.1z M78.3,68.8c-0.2,0.6-1.1,0.4-1-0.2c0,0,0-0.1,0-0.1c0.5-1.4,0.9-2.8,1.3-4.1l0.2-0.6c0.2-0.6,1.1-0.4,1,0.2
			c0,0,0,0.1,0,0.1c-0.4,1.3-0.8,2.6-1.2,3.9L78.3,68.8L78.3,68.8z M80.7,61c-0.2,0.6-1.2,0.4-1-0.2c0.1-0.5,0.3-1,0.4-1.5
			c0.1-0.5,0.2-1,0.2-1.4l0-0.1v-0.1l0-0.1l0-0.1v-0.1l0-0.1v-0.1l0-0.1v-0.1l0-0.1l0-0.1v-0.1l0-0.1l0-0.1V57v-0.1v-0.1l0-0.1
			l0-0.1v-0.1l0-0.1v-0.1v-0.1l0-0.1v-0.1v-0.1v-0.1l0-0.1l0-0.1v-0.1l0-0.1V56v0c0-0.6,0.9-0.7,1-0.1c0,0,0,0.1,0,0.1l0,0.1V56
			l0,0.1v0.1v0.1v0.1l0,0.1v0.1v0.1v0.1l0,0.1l0,0.1l0,0.1l0,0.1v0.1v0.1v0.1V57l0,0.1v0.1v0.1v0.1l0,0.1v0.1l0,0.1l0,0.1v0.1l0,0.1
			l0,0.1v0.1l0,0.1l0,0.1l0,0.1c0,0.3-0.1,0.6-0.1,0.9C81.1,59.5,80.9,60.3,80.7,61L80.7,61z M81.2,52.9c0,0.1-0.1,0.3-0.2,0.4
			c-0.3,0.3-0.8,0.1-0.9-0.3c-0.1-1.6-0.3-3.3-0.6-5c-0.1-0.7,0.9-0.8,1-0.2l0,0C80.9,49.4,81.1,51.2,81.2,52.9L81.2,52.9z M80,44.8
			c0.1,0.2-0.1,0.5-0.3,0.6c-0.3,0.1-0.6,0-0.7-0.3c-0.3-1.1-0.7-2.2-1.2-3.2l-0.1-0.2l-0.1-0.2l-0.1-0.2l-0.1-0.2l-0.1-0.2
			l-0.1-0.2l-0.1-0.2l-0.1-0.2l-0.1-0.1c-0.3-0.5,0.5-1,0.9-0.5c0,0,0,0,0,0.1l0.1,0.1l0.1,0.2l0.1,0.2l0.1,0.2l0.1,0.2l0.1,0.2
			l0.1,0.2l0.1,0.2l0.1,0.2C79.3,42.5,79.6,43.6,80,44.8L80,44.8z M76.5,37.3c0.3,0.6-0.5,1.1-0.9,0.5l0,0l-0.1-0.1l-0.1-0.2
			l-0.1-0.2l-0.1-0.2l-0.1-0.2L75.1,37L75,36.9l-0.1-0.2l-0.1-0.1l-0.1-0.1l-0.1-0.1l-0.1-0.1L74.4,36l-0.1-0.1l-0.1-0.1l-0.1-0.1
			L74,35.4l-0.1-0.1l-0.1-0.1L73.7,35l-0.1-0.1l-0.1-0.1l-0.1-0.1l-0.1-0.1l-0.1-0.1l-0.1-0.1L73,34l-0.1-0.1l-0.1-0.1v0
			c0-0.1-0.1-0.2-0.1-0.2c-0.1-0.5,0.6-0.8,0.9-0.4l0,0l0.1,0.1l0.1,0.1l0.1,0.1l0.1,0.1l0.1,0.1l0.1,0.1l0.1,0.1l0.1,0.1l0.1,0.1
			l0.1,0.1l0.1,0.1l0.1,0.1L75,35l0.1,0.1l0.1,0.1l0.1,0.2l0.1,0.2l0.1,0.2l0.1,0.2l0.1,0.2l0.1,0.2l0.1,0.2l0.1,0.2l0.1,0.2
			l0.1,0.2l0.1,0.2l0.1,0.2L76.5,37.3L76.5,37.3L76.5,37.3z M73.6,33.1l-0.8,0.6L73.6,33.1L73.6,33.1z M71.7,30.7
			c0.4,0.5-0.3,1.2-0.8,0.6l-0.1-0.1l-0.1-0.1L70.6,31l-0.1-0.1l-0.1-0.1l-0.1-0.1l-0.1-0.1L70,30.4l-0.1-0.1l-0.1-0.1L69.7,30
			l-0.1-0.1l-0.1-0.1l-0.1-0.1l-0.1-0.1l-0.1-0.1L69,29.3l-0.1-0.1L68.8,29l-0.1-0.1l-0.1-0.1l-0.1-0.1l-0.1-0.1l-0.1-0.1L68,28.3
			l-0.1-0.1l-0.1-0.1L67.7,28l-0.1-0.1l-0.1-0.1l0,0c-0.5-0.4,0.1-1.2,0.7-0.8l0,0l0,0l0.1,0.1l0.1,0.1l0.1,0.1l0.1,0.1l0.1,0.1
			l0.1,0.1l0.1,0.1l0.1,0.1l0.1,0.1l0.1,0.1l0.1,0.1l0.1,0.1l0.1,0.1l0.1,0.1l0.1,0.1l0.1,0.1l0.1,0.1l0.1,0.1l0.1,0.1l0.1,0.1
			l0.1,0.1l0.1,0.1l0.1,0.1l0.1,0.1l0.1,0.1l0.1,0.1l0.1,0.1l0.1,0.1L71.7,30.7L71.7,30.7L71.7,30.7z M65.6,25
			c0.4,0.3,0.1,1.1-0.5,0.9c-0.1,0-0.1,0-0.1-0.1l0,0l-0.1-0.1l-0.1-0.1l-0.1-0.1l-0.1-0.1l-0.1-0.1l-0.1-0.1L64,25.1L63.9,25
			l-0.1-0.1l-0.1-0.1l-0.1-0.1l-0.1-0.1l-0.1-0.1l-0.1-0.1l-0.1-0.1l-0.1-0.1l-0.1-0.1l-0.1-0.1l-0.1-0.1L62.2,24l-0.1-0.1l-0.1-0.1
			l-0.1-0.1l-0.1-0.1l-0.1-0.1l-0.1-0.1l-0.1-0.1L61,23.4l-0.1-0.1l-0.1-0.1l-0.1,0c-0.5-0.3-0.2-1.1,0.4-0.9c0,0,0.1,0,0.1,0l0.1,0
			l0.2,0.1l0.2,0.1l0.2,0.1l0.2,0.1l0.2,0.1l0.2,0.1l0.2,0.1l0.1,0.1l0.1,0.1l0.1,0.1l0.1,0.1l0.1,0.1l0.1,0.1l0.1,0.1l0.1,0.1
			l0.1,0.1l0.1,0.1l0.1,0.1l0.1,0.1l0.1,0.1l0.1,0.1l0.1,0.1l0.1,0.1l0.1,0.1l0.1,0.1l0.1,0.1l0.1,0.1l0.1,0.1l0.1,0.1L65.6,25
			L65.6,25L65.6,25z M58.3,21c0.6,0.2,0.4,1.1-0.3,1l0,0l0,0l-0.2-0.1l-0.2-0.1l-0.2-0.1l-0.2-0.1l-0.2-0.1l-0.2-0.1l-0.2-0.1
			l-0.2,0l-0.2,0l-0.2,0l-0.2,0l-0.2,0l-0.2,0l-0.2,0l-0.2,0l-0.2,0l-0.2,0l-0.2,0l-0.2,0l-0.2,0l-0.2,0l-0.2,0l-0.2,0l-0.2,0
			l-0.2,0l-0.2,0l-0.2,0l-0.2,0l-0.2,0l-0.1,0c-0.1,0-0.2-0.1-0.3-0.1c-0.4-0.4-0.1-0.9,0.4-0.9l0.1,0l0.2,0l0.2,0l0.2,0l0.2,0
			l0.2,0l0.2,0l0.2,0l0.2,0l0.2,0l0.2,0l0.2,0l0.2,0l0.2,0l0.2,0l0.2,0l0.2,0l0.2,0l0.2,0l0.2,0l0.2,0l0.2,0.1l0.2,0.1l0.2,0.1
			l0.2,0.1l0.2,0.1l0.2,0.1l0.2,0.1l0.2,0.1L58.3,21L58.3,21L58.3,21z M50,19.4c0.6,0,0.7,0.8,0.1,1c-0.1,0-0.1,0-0.1,0l0,0l-0.2,0
			l-0.2,0l-0.2,0l-0.2,0l-0.2,0l-0.2,0l-0.2,0l-0.2,0l-0.2,0h-0.2l-0.2,0l-0.2,0l-0.2,0l-0.2,0l-0.2,0l-0.2,0l-0.2,0l-0.2,0l-0.2,0
			l-0.2,0l-0.2,0l-0.2,0l-0.2,0l-0.2,0l-0.2,0l-0.2,0l-0.2,0c-0.7,0.1-0.8-0.9-0.1-1l0,0l0.2,0l0.2,0l0.2,0l0.2,0l0.2,0l0.2,0l0.2,0
			l0.2,0l0.2,0l0.2,0l0.2,0l0.2,0l0.2,0l0.2,0l0.2,0l0.2,0l0.2,0l0.2,0l0.2,0l0.2,0l0.2,0l0.2,0l0.2,0l0.2,0l0.2,0l0.2,0L50,19.4
			L50,19.4L50,19.4z M41.7,19.9c0.7-0.1,0.8,0.8,0.2,1l0,0l0,0l-0.2,0l-0.2,0l-0.2,0l-0.2,0l-0.2,0l-0.2,0l-0.2,0l-0.2,0l-0.2,0.1
			l-0.2,0.1l-0.2,0.1L39,21.5l-0.2,0.1l-0.2,0.1l-0.2,0.1l-0.2,0.1l-0.2,0.1l-0.2,0.1l-0.2,0.1L37.1,22L36.9,22l-0.1,0
			c-0.6,0.2-1-0.7-0.4-0.9l0.1,0l0.1,0l0.2-0.1l0.2-0.1l0.2-0.1l0.2-0.1l0.2-0.1l0.2-0.1l0.2-0.1l0.2-0.1l0.2-0.1l0.2-0.1l0.2-0.1
			l0.2-0.1l0.2-0.1l0.2-0.1l0.2,0l0.2,0l0.2,0l0.2,0l0.2,0l0.2,0L41.7,19.9L41.7,19.9L41.7,19.9z M33.6,22c0.6-0.2,1,0.6,0.4,0.9
			l-0.1,0l-0.1,0l-0.2,0.1l-0.2,0.1l-0.2,0.1l-0.2,0.1l-0.2,0.1l-0.2,0.1l-0.2,0.1L32,23.6l-0.2,0.1l-0.2,0.1l-0.2,0.1l-0.2,0.1
			L31,24l-0.2,0.1l-0.2,0.1l-0.2,0.1l-0.2,0.1l-0.2,0.1l-0.2,0.1l-0.2,0.1l-0.2,0.1l-0.2,0.1c-0.6,0.3-1-0.6-0.5-0.9l0,0l0.2-0.1
			l0.2-0.1l0.2-0.1l0.2-0.1l0.2-0.1l0.2-0.1l0.2-0.1l0.2-0.1l0.2-0.1l0.2-0.1l0.2-0.1l0.2-0.1l0.2-0.1l0.2-0.1l0.2-0.1l0.2-0.1
			l0.2-0.1l0.2-0.1l0.2-0.1l0.2-0.1l0.2-0.1l0.2-0.1L33.6,22L33.6,22z M25.9,25.3c0.6-0.3,1.1,0.5,0.5,0.9l0,0l-0.1,0l-0.2,0.1
			l-0.2,0.1l-0.2,0.1l-0.2,0.1l-0.2,0.1l-0.2,0.1L25,27l-0.2,0.1l-0.2,0.1l-0.2,0.1l-0.2,0.1l-0.2,0.1l-0.2,0.1l-0.2,0.1l-0.2,0.1
			L23.3,28l-0.2,0.1L23,28.2l-0.2,0.1l-0.2,0.1l-0.2,0.1l-0.2,0.1l-0.2,0.1l0,0c-0.5,0.4-1.1-0.3-0.7-0.8c0,0,0,0,0.1-0.1l0,0
			l0.2-0.1l0.2-0.1l0.2-0.1l0.2-0.1l0.2-0.1l0.2-0.1l0.2-0.1l0.2-0.1l0.2-0.1l0.2-0.1l0.2-0.1l0.2-0.1l0.2-0.1l0.2-0.1l0.2-0.1
			l0.2-0.1l0.2-0.1l0.2-0.1l0.2-0.1l0.2-0.1l0.2-0.1l0.2-0.1L25.9,25.3L25.9,25.3L25.9,25.3z M19,30c0.5-0.4,1.1,0.2,0.8,0.7
			c0,0,0,0-0.1,0.1l-0.1,0.1l-0.2,0.1l-0.2,0.1l-0.2,0.1L19,31.4l-0.2,0.1l-0.2,0.1l-0.1,0.1l-0.1,0.1l-0.1,0.1l-0.1,0.1L18,32.4
			l-0.1,0.1l-0.1,0.1l-0.1,0.1l-0.1,0.1l-0.1,0.2l-0.1,0.2L17,33.4l-0.1,0.2l-0.1,0.2l-0.1,0.2L16.5,34l-0.1,0.2l-0.1,0.1
			c-0.4,0.4-1.1,0.1-0.9-0.5c0-0.1,0-0.1,0.1-0.1l0.1-0.2l0.1-0.2l0.1-0.2l0.1-0.2l0.1-0.2l0.1-0.2l0.1-0.2l0.1-0.2l0.1-0.2l0.1-0.2
			l0.1-0.2l0.1-0.2l0.1-0.2l0.1-0.2l0.2-0.2l0.2-0.1l0.2-0.1l0.2-0.1l0.2-0.1l0.2-0.1l0.2-0.1l0.2-0.1l0.2-0.1L19,30L19,30L19,30z
			 M13.6,36.2c0.1-0.1,0.2-0.2,0.3-0.2c0.5-0.2,0.9,0.3,0.6,0.7l0,0L14.3,37l-0.1,0.2l-0.1,0.2L14,37.5l-0.1,0.2l-0.1,0.2L13.7,38
			l-0.1,0.2l-0.1,0.2l-0.1,0.2l-0.1,0.2l-0.1,0.2l-0.1,0.2L13,39.3l-0.1,0.2l-0.1,0.2l-0.1,0.2L12.7,40l-0.1,0.2l-0.1,0.2l-0.1,0.2
			l-0.1,0.2l-0.1,0.2l-0.1,0.2l0,0c-0.2,0.5-1.1,0.4-1-0.3l0-0.1l0,0l0.1-0.2l0.1-0.2l0.1-0.2l0.1-0.2l0.1-0.2l0.1-0.2l0.1-0.2
			l0.1-0.2L12,39l0.1-0.2l0.1-0.2l0.1-0.2l0.1-0.2l0.1-0.2l0.1-0.2l0.1-0.2l0.1-0.2l0.1-0.2l0.1-0.2l0.1-0.2l0.1-0.2l0.1-0.2
			l0.1-0.2L13.6,36.2L13.6,36.2L13.6,36.2z M10.2,43.7c0.2-0.6,1.2-0.4,1,0.3l0,0.1l-0.1,0.2l-0.1,0.2l0,0.2l0,0.2l0,0.2l0,0.2
			l0,0.2l0,0.2l0,0.2l0,0.2l0,0.2l0,0.2l0,0.2l0,0.2l0,0.2l0,0.2l0,0.2l0,0.2l0,0.2l0,0.2l0,0.2l0,0.2l0,0.1c-0.1,0.6-0.9,0.6-1,0
			c0,0,0-0.1,0-0.1l0-0.1l0-0.2l0-0.2l0-0.2l0-0.2l0-0.2l0-0.2l0-0.2l0-0.2l0-0.2l0-0.2l0-0.2l0-0.2l0-0.2l0-0.2l0-0.2l0-0.2l0-0.2
			l0-0.2l0.1-0.2l0.1-0.2l0.1-0.2L10.2,43.7L10.2,43.7L10.2,43.7z M9.3,51.9c0-0.1,0-0.3,0.1-0.3c0.3-0.3,0.9-0.1,0.9,0.3l0,0.1
			l0,0.2l0,0.2l0,0.2l0,0.2l0,0.2l0,0.2l0,0.2l0,0.2l0,0.2l0,0.2l0,0.2l0,0.2l0,0.2l0,0.2l0,0.2l0,0.2l0,0.2l0,0.3l0,0.3l0,0.2
			c0.1,0.6-0.8,0.8-1,0.2l0,0l0-0.2l0-0.3l0-0.3l0-0.3l0-0.3l0-0.3l0-0.3l0-0.3l0-0.3l0-0.3l0-0.3l0-0.3l0-0.2l0-0.2l0-0.2l0-0.2
			l0-0.2l0-0.2l0-0.2l0-0.2L9.3,51.9L9.3,51.9z M10.4,59.9c-0.2-0.6,0.8-0.9,1-0.3l0,0l0,0.1l0,0.1l0,0.1l0,0.1l0,0.1l0,0.1l0,0.1
			l0,0.1l0,0.1l0,0.1l0,0.1l0,0.1l0,0.1l0,0.1l0,0.1l0,0.1l0,0.1l0,0.1l0,0.1l0,0.1l0,0.1l0,0.1l0,0.1l0,0.1l0,0.1l0,0.1l0,0.1
			l0,0.1l0,0.1l0,0.1l0,0.1l0,0.1l0,0.1l0,0.1l0,0.1l0,0.1l0,0.1l0,0.1l0,0.1l0,0.1l0,0.1l0,0.1l0,0.1l0,0.1l0,0.1l0,0.1l0,0.1
			c0.2,0.6-0.7,0.9-1,0.3l0-0.1l0-0.1l0-0.1l0-0.1l0-0.1l0-0.1l0-0.1l0-0.1l0-0.1l0-0.1l0-0.1l0-0.1l0-0.1l0-0.1l0-0.1l0-0.1l0-0.1
			l0-0.1l0-0.1l0-0.1l0-0.1l0-0.1l0-0.1l0-0.1l0-0.1l0-0.1l0-0.1l0-0.1l0-0.1l0-0.1l0-0.1l0-0.1l0-0.1l0-0.1l0-0.1l0-0.1l0-0.1
			l0-0.1l0-0.1l0-0.1l0-0.1l0-0.1l0-0.1l0-0.1l0-0.1l0-0.1L10.4,59.9L10.4,59.9L10.4,59.9z M12.7,67.7c-0.2-0.6,0.7-1,1-0.4l0,0l0,0
			l0,0.1l0,0.1l0,0.1l0,0.1l0,0.1l0,0.1l0,0.1l0,0.1l0,0.1l0,0.1l0,0.1l0,0.1l0,0.1l0,0.1l0,0.1l0,0.1l0,0.1l0,0.1l0,0.1l0,0.1
			l0,0.1l0,0.1l0,0.1l0,0.1l0,0.1l0,0.1l0,0.1l0,0.1l0,0.1l0,0.1l0,0.1l0,0.1l0,0.1l0,0.1l0,0.1l0,0.1l0,0.1l0,0.1l0,0.1l0,0.1
			l0,0.1l0,0.1l0,0c0.2,0.5-0.4,1-0.9,0.5c0,0-0.1-0.1-0.1-0.1l0,0l-0.1-0.1l0-0.1l-0.1-0.1l0-0.1l0-0.1l0-0.1l0-0.1l0-0.1l0-0.1
			l0-0.1l0-0.1l0-0.1l0-0.1l0-0.1l0-0.1l0-0.1l0-0.1l0-0.1l0-0.1l0-0.1l0-0.1l0-0.1l0-0.1l0-0.1l0-0.1l0-0.1l0-0.1l0-0.1l0-0.1
			l0-0.1l0-0.1l0-0.1l0-0.1l0-0.1l0-0.1l0-0.1l0-0.1l0-0.1l0-0.1l0-0.1l0-0.1L12.7,67.7L12.7,67.7L12.7,67.7z M16,75.2
			c-0.3-0.5,0.4-1,0.9-0.5c0,0,0,0,0,0.1l0,0l0.1,0.1l0.1,0.1l0.1,0.1l0.1,0.1l0.1,0.1l0.1,0.1l0.1,0.1l0.1,0.1l0.1,0.1l0.1,0.1
			l0.1,0.1l0.1,0.1l0.1,0.1l0.1,0.1l0.1,0.1l0.1,0.1l0.1,0.1l0.1,0.1l0.1,0.1l0.1,0.1l0.1,0.1l0.1,0.1l0.1,0.1l0.1,0.1l0.1,0.1
			l0.1,0.1l0.1,0.1l0.1,0.1l0.1,0.1l0.1,0.1l0.1,0.1l0.1,0.1L19,78l0.1,0.1l0.1,0.1l0.1,0.1l0.1,0.1l0.1,0.1l0.1,0.1l0.1,0.1
			l0.1,0.1l0.1,0.1l0.1,0.1c0.4,0.5-0.3,1.1-0.8,0.7c0,0,0,0-0.1-0.1l-0.1-0.1l-0.1-0.1l-0.1-0.1l-0.1-0.1l-0.1-0.1L18.4,79
			l-0.1-0.1l-0.1-0.1l-0.1-0.1l-0.1-0.1l-0.1-0.1L18,78.4l-0.1-0.1l-0.1-0.1l-0.1-0.1L17.7,78l-0.1-0.1l-0.1-0.1l-0.1-0.1l-0.1-0.1
			l-0.1-0.1l-0.1-0.1l-0.1-0.1l-0.1-0.1l-0.1-0.1L17.1,77L17,76.9l-0.1-0.1l-0.1-0.1l-0.1-0.1l-0.1-0.1l-0.1-0.1l-0.1-0.1l-0.1-0.1
			l-0.1-0.1L16.4,76l-0.1-0.1l-0.1-0.1l-0.1-0.1l-0.1-0.1l-0.1-0.1l-0.1-0.1L16,75.2L16,75.2z"/>
	</g>
	<path class="st0" d="M21.9,92.2L21.9,92.2L21.9,92.2L21.9,92.2l-0.1-0.1l-0.1-0.1L21.5,92L21.4,92l-0.1-0.1l-0.1-0.1L21,91.7
		l-0.1-0.1l-0.1-0.1l-0.1-0.1l-0.1-0.1l-0.1-0.1l-0.1-0.1l-0.1-0.1l-0.1-0.1L20,91.1L19.8,91l-0.1-0.1l-0.1-0.1l-0.1-0.1l-0.1-0.1
		l-0.1-0.1l-0.1-0.1l-0.1-0.1L19,90.4l-0.1-0.1l-0.1-0.1l-0.1-0.1L18.5,90l-0.1-0.1l-0.1-0.1l-0.1-0.1l-0.1-0.1L18,89.6l-0.1-0.1
		l-0.1-0.1l-0.1-0.1l-0.1-0.1l0,0c-0.5-0.4,0.2-1.2,0.7-0.8l0,0l0,0l0.1,0.1l0.1,0.1l0.1,0.1l0.1,0.1l0.1,0.1l0.1,0.1l0.1,0.1
		l0.1,0.1l0.1,0.1l0.1,0.1l0.1,0.1l0.1,0.1l0.1,0.1l0.1,0.1l0.1,0.1l0.1,0.1l0.1,0.1l0.1,0.1l0.1,0.1l0.1,0.1l0.1,0.1l0.1,0.1
		l0.1,0.1l0.1,0.1l0.1,0.1l0.1,0.1l0.1,0.1l0.1,0.1l0.1,0.1l0.1,0.1l0.1,0.1l0.1,0.1l0.1,0.1l0.1,0.1l0.1,0.1l0.1,0.1l0.1,0.1
		l0.1,0.1l0.2,0.1l0.2,0.1l0.2,0.1l0.2,0.1l0.2,0.1l0.2,0.1l0.2,0.1l0.2,0.1l0.2,0.1l0.2,0.1l0.2,0.1l0.2,0.1l0.1,0
		c0.4,0.2,0.4,0.7,0,0.9c-0.1,0.1-0.3,0.1-0.4,0l-0.1,0L24,93.3l-0.2-0.1l-0.2-0.1L23.4,93l-0.2-0.1L23,92.8l-0.2-0.1l-0.2-0.1
		l-0.2-0.1l-0.2-0.1L22,92.3L21.9,92.2L21.9,92.2z M27.3,94.6c-0.6-0.2-0.4-1.1,0.3-1l0,0l0.2,0.1l0.2,0.1l0.2,0.1l0.2,0.1l0.2,0.1
		l0.2,0.1l0.2,0.1l0.2,0.1l0.2,0.1l0.2,0.1l0.2,0.1l0.2,0.1l0.2,0.1l0.2,0.1l0.2,0.1l0.2,0.1l0.2,0.1l0.2,0.1l0.2,0.1l0.2,0.1
		l0.2,0.1l0.2,0c0.6,0.1,0.5,1-0.2,1c0,0-0.1,0-0.1,0l-0.2,0l-0.2-0.1l-0.2-0.1l-0.2-0.1l-0.2-0.1l-0.2-0.1l-0.2-0.1l-0.2-0.1
		l-0.2-0.1L30,95.4l-0.2-0.1l-0.2-0.1l-0.2-0.1L29,95.1l-0.2-0.1L28.6,95l-0.2-0.1l-0.2-0.1l-0.2-0.1l-0.2-0.1l-0.2-0.1L27.3,94.6
		L27.3,94.6z M35.4,96.6c-0.1,0-0.2-0.1-0.3-0.1c-0.4-0.4-0.1-0.9,0.4-0.9l0.2,0l0.2,0l0.2,0l0.2,0l0.2,0l0.2,0l0.3,0l0.2,0l0.3,0
		l0.3,0l0.3,0l0.3,0l0.3,0l0.3,0l0.3,0l0.3,0l0.3,0l0.3,0l0.3,0l0.3,0l0.1,0c0.6,0.1,0.7,0.9,0,1c0,0-0.1,0-0.1,0l-0.1,0l-0.3,0
		l-0.3,0l-0.3,0l-0.3,0l-0.3,0l-0.3,0l-0.3,0l-0.3,0l-0.3,0l-0.3,0l-0.3,0l-0.3,0l-0.3,0l-0.3,0l-0.3,0l-0.3,0l-0.3,0l-0.3,0l-0.3,0
		L35.4,96.6L35.4,96.6z M43.7,97.3c-0.7,0-0.7-1,0-1h0l0.2,0l0.3,0l0.3,0l0.3,0h0.3l0.3,0l0.3,0l0.3,0l0.3,0l0.3,0l0.3,0l0.3,0
		l0.3,0l0.3,0l0.3,0l0.3,0l0.3,0l0.3,0l0.3,0l0.2,0c0.6-0.1,0.8,0.8,0.2,1c0,0-0.1,0-0.1,0l-0.2,0l-0.3,0l-0.3,0l-0.3,0l-0.3,0
		l-0.3,0l-0.3,0l-0.3,0l-0.3,0l-0.3,0l-0.3,0l-0.3,0l-0.3,0l-0.3,0l-0.3,0l-0.3,0l-0.3,0l-0.3,0l-0.3,0L43.7,97.3L43.7,97.3z
		 M52.1,96.9c-0.6,0.1-0.9-0.7-0.2-1c0,0,0.1,0,0.1,0l0.1,0l0.3,0l0.3,0l0.3,0l0.3,0l0.3,0l0.3,0l0.3,0l0.3,0l0.3,0l0.3,0l0.3,0
		l0.3,0l0.3-0.1l0.3-0.1l0.3-0.1l0.3-0.1l0.3-0.1l0.3-0.1l0.2,0c0.6-0.1,0.9,0.8,0.3,1l0,0L57,96l-0.3,0.1l-0.3,0.1l-0.3,0.1
		L56,96.2l-0.3,0.1l-0.3,0.1l-0.3,0.1l-0.3,0l-0.3,0l-0.3,0l-0.3,0l-0.3,0l-0.3,0l-0.3,0l-0.3,0l-0.3,0l-0.3,0l-0.3,0L52.1,96.9
		L52.1,96.9z M60.2,95.2c-0.3,0.1-0.5,0-0.6-0.3c-0.1-0.3,0-0.6,0.3-0.7l0.2-0.1l0.3-0.1l0.3-0.1l0.3-0.1l0.3-0.1l0.3-0.1l0.3-0.1
		l0.3-0.1l0.3-0.1l0.3-0.1l0.3-0.1l0.2-0.1l0.2-0.1l0.2-0.1l0.2-0.1l0.2-0.1l0.2-0.1l0.2-0.1l0.2-0.1l0.1,0c0.5-0.2,1,0.5,0.5,0.9
		c0,0-0.1,0-0.1,0.1l-0.1,0l-0.3,0.1l-0.3,0.1l-0.3,0.1l-0.3,0.1L63.8,94l-0.3,0.1l-0.3,0.1l-0.3,0.1l-0.3,0.1l-0.3,0.1l-0.3,0.1
		L62,94.6l-0.3,0.1l-0.3,0.1l-0.3,0.1L61,95L60.7,95l-0.3,0.1L60.2,95.2L60.2,95.2z M68,92.1c-0.6,0.3-1.1-0.5-0.5-0.9l0,0l0.1,0
		l0.2-0.1l0.2-0.1l0.2-0.1l0.2-0.1l0.2-0.1l0.2-0.1l0.2-0.1l0.2-0.1l0.2-0.1l0.2-0.1l0.2-0.1l0.2-0.1l0.2-0.1l0.2-0.1l0.2-0.1
		l0.2-0.1l0.2-0.1l0.2-0.1l0.2-0.1c0.6-0.4,1.2,0.4,0.6,0.8l-0.2,0.1l-0.2,0.2l-0.2,0.2l-0.2,0.1l-0.2,0.1l-0.2,0.1l-0.2,0.1
		l-0.2,0.1l-0.2,0.1l-0.2,0.1L70,91.1l-0.2,0.1l-0.2,0.1l-0.2,0.1L69,91.6l-0.2,0.1l-0.2,0.1L68.3,92L68,92.1L68,92.1L68,92.1z
		 M75,87.6c-0.5,0.4-1.2-0.3-0.7-0.8l0.2-0.1l0.2-0.2l0.2-0.2l0.2-0.2l0.2-0.2l0.2-0.2l0.2-0.2l0.2-0.2l0.2-0.2l0.2-0.2l0.2-0.2
		l0.2-0.2l0.2-0.2l0.2-0.2l0.2-0.2l0.2-0.2l0.2-0.2l0.2-0.2l0.1-0.2c0.5-0.5,1.2,0.2,0.8,0.7l0,0l-0.2,0.2l-0.2,0.2l-0.2,0.2
		l-0.2,0.2l-0.2,0.2l-0.2,0.2l-0.2,0.2l-0.2,0.2l-0.2,0.2L76.9,86l-0.2,0.2l-0.2,0.2l-0.2,0.2L76,86.8l-0.2,0.2l-0.2,0.2l-0.2,0.2
		l-0.2,0.2L75,87.6L75,87.6z M80.8,81.7c-0.3,0.4-1.1,0.1-0.9-0.5c0-0.1,0-0.1,0.1-0.1l0,0l0.2-0.2l0.2-0.2l0.2-0.2l0.2-0.2l0.2-0.2
		l0.2-0.2l0.2-0.2l0.2-0.2l0.2-0.2l0.2-0.2l0.2-0.2l0,0l0,0l0,0l0,0l0,0l0,0l0,0l0,0l0,0l0,0l0,0l0,0l0,0l0,0l0,0l0,0l0,0l0,0l0,0
		l0,0l0,0l0,0l0,0l0,0l0,0l0-0.1l0-0.1l0-0.1l0-0.1l0-0.1l0-0.1l0-0.1l0-0.1l0-0.1l0-0.1l0-0.1l0-0.1l0-0.1l0,0
		c0.1-0.2,0.3-0.3,0.6-0.3c0.3,0.1,0.5,0.4,0.4,0.7l0,0l0,0.1l0,0.1l0,0.1l0,0.1l0,0.1l0,0.1l0,0.1l0,0.1l0,0.1l0,0.1l0,0.1l0,0.1
		l0,0.1l0,0.1l0,0.1l0,0.1l0,0l0,0l0,0l0,0l0,0l0,0l0,0l0,0l0,0l0,0l0,0l0,0l0,0l0,0l0,0l0,0l0,0l0,0l0,0l0,0l0,0l0,0l-0.2,0.2
		l-0.2,0.2l-0.2,0.2L82,80l-0.2,0.2l-0.2,0.2l-0.2,0.2L81.4,81l-0.2,0.2L81,81.4L80.8,81.7L80.8,81.7L80.8,81.7z M84.6,74.4
		c-0.2,0.6-1.1,0.4-1-0.3l0,0c0.6-1.6,1.1-3.2,1.6-4.8c0.2-0.6,1.1-0.4,1,0.2l0,0.1C85.7,71.2,85.2,72.8,84.6,74.4L84.6,74.4z
		 M87.1,66.7c-0.2,0.6-1.2,0.4-1-0.3l0,0c0.5-1.6,0.9-3.2,1.3-4.8c0.1-0.6,1.1-0.5,1,0.2l0,0C88.1,63.5,87.6,65.1,87.1,66.7
		L87.1,66.7z M88.8,58.7c0,0.7-1,0.7-1,0c0-1.7-0.1-3.3-0.2-5l0,0c-0.1-0.6,0.8-0.8,1-0.2c0,0,0,0.1,0,0.1
		C88.7,55.3,88.8,57,88.8,58.7L88.8,58.7z M88.3,50.6c0,0.3-0.2,0.5-0.4,0.6c-0.3,0-0.6-0.2-0.6-0.4c-0.2-1.6-0.5-3.3-0.9-4.9
		c-0.1-0.6,0.8-0.9,1-0.3l0,0.1C87.8,47.2,88.1,48.9,88.3,50.6L88.3,50.6z M86.6,42.6c0.2,0.5-0.6,0.9-0.9,0.4c0,0,0-0.1-0.1-0.1
		l0,0l0-0.1l0-0.1l0-0.1l0-0.1l0-0.1l0-0.1l0-0.1l0-0.1l0-0.1l0-0.1l0-0.1l0-0.1l0-0.1l0-0.1l0-0.1l0-0.1l0-0.1l0-0.1l0-0.1l0-0.1
		l0-0.1l0-0.1l0-0.1l0-0.1l0-0.1l0-0.1l0-0.1l0-0.1l0-0.1l0-0.1l0-0.1l0-0.1l0-0.1l0-0.1l-0.1-0.2l-0.1-0.2l-0.1-0.2L84.3,40
		l-0.1-0.2l-0.1-0.2L84,39.4l-0.1-0.2l-0.1-0.2l-0.1-0.2l-0.1-0.2l-0.1-0.2l0-0.1c-0.3-0.5,0.4-1,0.9-0.5l0,0.1l0,0.1l0.1,0.2
		l0.1,0.2l0.1,0.2l0.1,0.2l0.1,0.2l0.1,0.2l0.1,0.2l0.1,0.2l0.1,0.2l0.1,0.2l0.1,0.2l0.1,0.2l0,0.1l0,0.1l0,0.1l0,0.1l0,0.1l0,0.1
		l0,0.1l0,0.1l0,0.1l0,0.1l0,0.1l0,0.1l0,0.1l0,0.1l0,0.1l0,0.1l0,0.1l0,0.1l0,0.1l0,0.1l0,0.1l0,0.1l0,0.1l0,0.1l0,0.1l0,0.1l0,0.1
		l0,0.1l0,0.1l0,0.1l0,0.1l0,0.1l0,0.1L86.6,42.6L86.6,42.6L86.6,42.6z M82.9,35.3c0.3,0.6-0.5,1.1-0.9,0.5l-0.1-0.1l-0.1-0.2
		l-0.1-0.2l-0.1-0.2L81.5,35l-0.1-0.2l-0.1-0.2l-0.1-0.2L81,34.3l-0.1-0.2l-0.1-0.2l-0.1-0.2l-0.1-0.2l-0.1-0.2l-0.1-0.2L80.2,33
		l-0.1-0.2l-0.1-0.2l-0.1-0.2l-0.1-0.2l-0.1-0.2L79.5,32l-0.1-0.2l-0.1-0.2l0-0.1c0,0-0.1-0.1-0.1-0.1c-0.2-0.6,0.6-0.9,0.9-0.5
		l0,0.1l0.1,0.2l0.1,0.2l0.1,0.2l0.1,0.2l0.1,0.2l0.1,0.2l0.1,0.2l0.1,0.2l0.1,0.2l0.1,0.2l0.1,0.2l0.1,0.2l0.1,0.2l0.1,0.2l0.1,0.2
		l0.1,0.2l0.1,0.2l0.1,0.2l0.1,0.2l0.1,0.2l0.1,0.2l0.1,0.2l0.1,0.2L82.9,35.3L82.9,35.3z M78.2,28.6c0.4,0.5-0.2,1.1-0.7,0.7
		c0,0-0.1,0-0.1-0.1l0,0L77.2,29l-0.1-0.2l-0.1-0.2l-0.1-0.2l-0.1-0.2l-0.1-0.2l-0.1-0.2l-0.1-0.2l-0.1-0.2L76,27.6l-0.1-0.2
		l-0.1-0.2l-0.1-0.2L75.5,27l-0.1-0.1l-0.1-0.1L75,26.6l-0.1-0.1l-0.1-0.1l-0.1-0.1L74.5,26l-0.1-0.1l-0.1-0.1l-0.1-0.1L74,25.5
		c-0.4-0.4,0.1-1.1,0.7-0.8c0,0,0.1,0,0.1,0.1l0.1,0.1l0.1,0.1l0.1,0.1l0.1,0.1l0.1,0.1l0.1,0.1l0.1,0.1l0.1,0.2l0.1,0.2l0.1,0.2
		l0.1,0.2l0.1,0.2l0.1,0.2l0.1,0.2l0.1,0.2l0.1,0.2l0.1,0.2l0.1,0.2l0.1,0.2l0.1,0.2l0.1,0.2l0.1,0.2l0.1,0.2l0.1,0.2L78.2,28.6
		L78.2,28.6L78.2,28.6z M72.4,22.6c0.5,0.5-0.2,1.2-0.7,0.8l0,0l-0.2-0.1l-0.2-0.1L71.2,23l-0.2-0.1l-0.2-0.1l-0.2-0.1l-0.2-0.1
		l-0.2-0.1l-0.2-0.1l-0.2-0.1L70,22l-0.2-0.1l-0.2-0.1l-0.2-0.1l-0.2-0.1l-0.2-0.1l-0.2-0.1l-0.2-0.1l-0.2-0.1L68.6,21l-0.2-0.1
		l-0.2-0.1l-0.2-0.1l-0.2-0.1l-0.2-0.1l-0.1,0c-0.6-0.4,0-1.2,0.6-0.8l0,0l0.1,0.1l0.2,0.1l0.2,0.1l0.2,0.1L69,20l0.2,0.1l0.2,0.1
		l0.2,0.1l0.2,0.1l0.2,0.1l0.2,0.1l0.2,0.1l0.2,0.1l0.2,0.1l0.2,0.1l0.2,0.1l0.2,0.1l0.2,0.1l0.2,0.1l0.2,0.1l0.2,0.1l0.2,0.1
		l0.2,0.1l0.2,0.1l0.2,0.1L72.4,22.6L72.4,22.6L72.4,22.6z M65.5,18c0.5,0.3,0.2,1.1-0.4,0.9c0,0-0.1,0-0.1,0l0,0l-0.2-0.1l-0.2-0.1
		l-0.2-0.1l-0.2-0.1l-0.2-0.1L64,18.3l-0.2-0.1l-0.2-0.1L63.4,18L63.3,18l-0.2-0.1l-0.2-0.1l-0.2-0.1l-0.2-0.1l-0.2-0.1l-0.2-0.1
		L62,17.4l-0.2-0.1l-0.2-0.1l-0.2-0.1l-0.2-0.1l-0.2-0.1L60.9,17l-0.2-0.1l-0.2-0.1l-0.1,0c-0.6-0.2-0.4-1,0.2-1c0,0,0.1,0,0.1,0
		l0.1,0l0.2,0.1l0.2,0.1l0.2,0.1l0.2,0.1l0.2,0.1l0.2,0.1l0.2,0.1l0.2,0.1l0.2,0.1l0.2,0.1l0.2,0.1l0.2,0.1l0.2,0.1l0.2,0.1l0.2,0.1
		l0.2,0.1l0.2,0.1l0.2,0.1l0.2,0.1l0.2,0.1l0.2,0.1l0.2,0.1l0.2,0.1l0.2,0.1L65.5,18L65.5,18L65.5,18z M57.7,15c0.6,0.1,0.5,1-0.2,1
		c0,0-0.1,0-0.1,0l-0.1,0l-0.2,0l-0.2,0l-0.2,0l-0.2,0l-0.2,0l-0.2,0l-0.2,0l-0.2,0l-0.2,0l-0.2,0l-0.2,0l-0.2,0l-0.2,0l-0.2,0
		l-0.2,0l-0.2,0l-0.2,0l-0.2,0l-0.2,0l-0.2,0l-0.2,0l-0.2,0l-0.2,0l-0.2,0l0,0c-0.6-0.1-0.6-0.9,0-1c0,0,0.1,0,0.1,0l0,0l0.2,0
		l0.2,0l0.2,0l0.2,0l0.2,0l0.2,0l0.2,0l0.2,0l0.2,0l0.2,0l0.2,0l0.2,0l0.2,0l0.2,0l0.2,0l0.2,0l0.2,0l0.2,0l0.2,0l0.2,0l0.2,0l0.2,0
		l0.2,0L57.7,15L57.7,15L57.7,15z M49.4,14c0.6,0,0.7,0.9,0.1,1c0,0-0.1,0-0.1,0h-0.2L49,15l-0.2,0l-0.2,0l-0.2,0l-0.2,0l-0.2,0
		l-0.2,0l-0.2,0l-0.2,0l-0.2,0l-0.2,0l-0.2,0l-0.2,0l-0.2,0l-0.2,0l-0.2,0l-0.2,0l-0.2,0l-0.2,0l-0.2,0l-0.2,0l-0.1,0
		c-0.6,0.1-0.8-0.7-0.3-1c0.1,0,0.1,0,0.2,0l0.1,0l0.2,0l0.2,0l0.2,0l0.2,0l0.2,0l0.2,0l0.2,0l0.2,0l0.2,0l0.2,0l0.2,0l0.2,0l0.2,0
		l0.2,0l0.2,0l0.2,0l0.2,0l0.2,0l0.2,0l0.2,0l0.2,0H49.4L49.4,14z M41,14.8c0.6-0.1,0.9,0.8,0.3,1l-0.1,0l-0.1,0l-0.3,0.1L40.5,16
		L40.2,16L40,16.1l-0.3,0.1l-0.3,0.1l-0.3,0.1l-0.3,0.1l-0.3,0.1l-0.3,0.1L38,16.5l-0.3,0.1l-0.3,0.1l-0.3,0.1l-0.3,0.1l-0.3,0.1
		l-0.3,0.1l-0.1,0c-0.6,0.2-1-0.7-0.3-1l0.1,0l0.1,0l0.3-0.1l0.3-0.1l0.3-0.1l0.3-0.1l0.3-0.1l0.3-0.1l0.3-0.1l0.3-0.1l0.3-0.1
		l0.3-0.1l0.3-0.1l0.3-0.1l0.3-0.1L40,15l0.3-0.1l0.3-0.1l0.3-0.1L41,14.8L41,14.8z M32.9,16.8c0.5-0.2,0.9,0.5,0.5,0.9
		c-0.1,0-0.1,0.1-0.2,0.1l-0.2,0l-0.3,0.1L32.6,18l-0.3,0.1l-0.3,0.1l-0.3,0.1l-0.3,0.1l-0.3,0.1L31,18.6l-0.3,0.1l-0.3,0.1
		l-0.3,0.1L30,18.9L29.7,19l-0.3,0.1l-0.3,0.1L29,19.3l-0.3,0.1l-0.3,0.1l0,0c-0.2,0.1-0.4,0-0.5-0.1c-0.3-0.2-0.2-0.7,0.1-0.9l0,0
		l0.3-0.1l0.3-0.1l0.3-0.1l0.3-0.1l0.3-0.1l0.3-0.1l0.3-0.1l0.3-0.1l0.3-0.1l0.3-0.1l0.3-0.1l0.3-0.1l0.3-0.1l0.3-0.1l0.3-0.1
		l0.3-0.1l0.3-0.1l0.3-0.1L32.9,16.8L32.9,16.8z M25.2,19.9c0.6-0.3,1,0.5,0.5,0.9l0,0l-0.1,0.1L25.3,21L25,21.1l-0.2,0.1l-0.2,0.1
		l-0.2,0.1l-0.2,0.1l-0.2,0.1l-0.2,0.1l-0.2,0.1L23.1,22l-0.2,0.1l-0.2,0.1l-0.2,0.1l-0.2,0.1L22,22.7l-0.2,0.1l-0.2,0.1l-0.2,0.1
		l-0.2,0.1c-0.5,0.3-1.1-0.3-0.6-0.8c0,0,0,0,0.1,0l0.2-0.1l0.2-0.1l0.2-0.1l0.2-0.1l0.2-0.1l0.2-0.1l0.2-0.1l0.2-0.1l0.2-0.1
		l0.2-0.1l0.2-0.1l0.2-0.1l0.2-0.1l0.2-0.1l0.2-0.1l0.2-0.1l0.2-0.1l0.2-0.1l0.2-0.1L25.2,19.9L25.2,19.9z M18,24
		c0.4-0.3,1,0.2,0.7,0.7c0,0.1-0.1,0.1-0.1,0.1l-0.1,0.1L18.3,25l-0.2,0.1l-0.2,0.1l-0.2,0.1l-0.2,0.2l-0.2,0.2l-0.2,0.2l-0.2,0.2
		l-0.2,0.2l-0.2,0.2l-0.2,0.2l-0.2,0.2l-0.2,0.2l-0.2,0.2l-0.2,0.2l-0.2,0.2l-0.2,0.2L15,27.7l-0.2,0.2L14.6,28
		c-0.2,0.2-0.4,0.2-0.6,0.1c-0.3-0.2-0.3-0.6-0.1-0.8l0.2-0.1l0.2-0.2l0.2-0.2l0.2-0.2l0.2-0.2l0.2-0.2l0.2-0.2l0.2-0.2l0.2-0.2
		l0.2-0.2l0.2-0.2l0.2-0.2l0.2-0.2l0.2-0.2l0.2-0.2l0.2-0.2l0.2-0.2l0.2-0.2l0.2-0.2L18,24L18,24L18,24z M11.7,29.5
		c0.5-0.5,1.2,0.2,0.8,0.7l0,0l-0.2,0.2l-0.2,0.2L12,30.7l-0.2,0.2L11.7,31l-0.2,0.2l-0.2,0.2l-0.2,0.2l-0.2,0.2L10.9,32l-0.2,0.2
		l-0.2,0.2l-0.1,0.2l-0.1,0.2l-0.1,0.2L10,33.1l-0.1,0.2l-0.1,0.2l-0.1,0.2l-0.1,0.2L9.4,34c-0.4,0.5-1.1,0.1-0.9-0.5
		c0,0,0-0.1,0-0.1l0.1-0.1l0.1-0.2l0.1-0.2L9,32.7l0.1-0.2l0.1-0.2l0.2-0.2l0.2-0.2l0.2-0.2l0.2-0.2l0.2-0.2l0.2-0.2l0.2-0.2
		l0.2-0.2l0.2-0.2l0.2-0.2l0.2-0.2l0.2-0.2l0.2-0.2l0.2-0.2L11.7,29.5L11.7,29.5z M6.9,36.1c0.3-0.5,1.2-0.2,0.9,0.4l0,0l-0.1,0.2
		L7.6,37l-0.1,0.2l-0.1,0.2l-0.1,0.2l-0.1,0.2L7,38.1l-0.1,0.2l-0.1,0.2l-0.1,0.2L6.6,39l-0.1,0.2l-0.1,0.2l-0.1,0.2l-0.1,0.2
		l-0.1,0.2l-0.1,0.2L6,40.6l-0.1,0.2L5.8,41l0,0.1c-0.2,0.6-1.1,0.4-1-0.3l0,0l0-0.1l0.1-0.2L5,40.2L5.1,40l0.1-0.2l0.1-0.2l0.1-0.2
		l0.1-0.2l0.1-0.2l0.1-0.2l0.1-0.2l0.1-0.2L6,37.9l0.1-0.2l0.1-0.2l0.1-0.2L6.4,37l0.1-0.2l0.1-0.2l0.1-0.2L6.9,36.1L6.9,36.1z
		 M3.9,43.8c0.1-0.6,1.1-0.5,1,0.2l0,0l0,0.2l-0.1,0.2l-0.1,0.2l-0.1,0.2l-0.1,0.3l0,0.3l0,0.3l0,0.3l0,0.3l0,0.3l0,0.3l0,0.3l0,0.3
		l0,0.3l0,0.3l0,0.3l0,0.3l0,0.3l0,0.3l0,0.1c-0.1,0.7-1.1,0.6-1-0.1l0,0l0-0.1l0-0.3l0-0.3l0-0.3l0-0.3l0-0.3l0-0.3l0-0.3l0-0.3
		l0-0.3l0-0.3l0-0.3l0-0.3l0-0.3L3.7,45l0.1-0.3l0.1-0.3l0.1-0.3l0.1-0.3L3.9,43.8L3.9,43.8z M3,51.9c0-0.6,0.9-0.7,1-0.1
		c0,0,0,0.1,0,0.1V52l0,0.3l0,0.3l0,0.3l0,0.3l0,0.3l0,0.3l0,0.3l0,0.3l0,0.3l0,0.3l0,0.3l0,0.3l0,0.3l0,0.3l0,0.3l0,0.3l0,0.2
		c0.1,0.7-0.9,0.8-1,0.1l0-0.2l0-0.3l0-0.3l0-0.3l0-0.3l0-0.3l0-0.3l0-0.3l0-0.3l0-0.3l0-0.3l0-0.3l0-0.3l0-0.3l0-0.3l0-0.3L3,52
		V51.9L3,51.9z M3.8,60c-0.1-0.5,0.6-0.8,0.9-0.4c0,0.1,0.1,0.1,0.1,0.2l0,0.1l0.1,0.3L5,60.6L5,60.9l0.1,0.3l0.1,0.3l0.1,0.3
		l0.1,0.3l0,0.1l0,0.1l0,0.1l0,0.1l0,0.1l0,0.1l0,0.1l0,0.1l0,0.1l0,0.1l0,0.1l0,0.1l0,0.1l0,0.1l0,0.1l0,0.1l0,0.1l0,0.1l0,0.1
		l0,0.1l0,0.1l0,0c0.2,0.5-0.6,0.9-1,0.4C5,65,5,65,5,64.9l0,0l0-0.1l0-0.1l0-0.1l0-0.1l0-0.1l0-0.1l0-0.1l0-0.1l0-0.1l0-0.1l0-0.1
		l0-0.1l0-0.1l0-0.1l0-0.1l0-0.1l0-0.1l0-0.1l0-0.1l0-0.1l0-0.1L4.2,62l-0.1-0.3l-0.1-0.3L4,61.1L4,60.8l-0.1-0.3l-0.1-0.3L3.8,60
		L3.8,60z M5.8,67.9c-0.2-0.6,0.7-0.9,1-0.3l0,0l0,0.1l0,0.1l0,0.1l0,0.1l0,0.1l0,0.1l0,0.1l0,0.1l0,0.1l0,0.1l0,0.1l0,0.1l0,0.1
		l0,0.1l0,0.1l0,0.1l0,0.1l0,0.1l0,0.1l0,0.1l0,0.1l0,0.1l0,0.1l0,0.1l0,0.1l0,0.1l0,0.1l0,0.1l0,0.1l0,0.1l0,0.1l0,0.1l0,0.1l0,0.1
		l0,0.1l0,0.1l0,0.1c0.2,0.6-0.7,1-1,0.4l0,0l0-0.1l0-0.1l0-0.1l0-0.1l0-0.1l0-0.1l0-0.1l0-0.1l0-0.1l0-0.1l0-0.1l0-0.1l0-0.1l0-0.1
		l0-0.1l0-0.1l0-0.1l0-0.1l0-0.1l0-0.1l0-0.1l0-0.1l0-0.1l0-0.1l0-0.1l0-0.1l0-0.1l0-0.1l0-0.1l0-0.1l0-0.1l0-0.1l0-0.1l0-0.1l0-0.1
		l0-0.1L5.8,67.9L5.8,67.9z M8.5,75.5c-0.2-0.6,0.7-1,1-0.4l0,0l0.1,0.1l0.1,0.1l0.1,0.1l0.1,0.1l0.1,0.1L9.8,76l0.1,0.1l0.1,0.1
		l0.1,0.1l0.1,0.1l0.1,0.1l0.1,0.1l0.1,0.1l0.1,0.1l0.1,0.1l0.1,0.1l0.1,0.1l0.1,0.1l0.1,0.1l0.1,0.1l0.1,0.1l0.1,0.1l0.1,0.1
		l0.1,0.1l0.1,0.1l0.1,0.1l0.1,0.1l0.1,0.1l0.1,0.1l0.1,0.1l0.1,0.1l0.1,0.1l0.1,0.1l0.1,0.1l0.1,0.1l0,0c0.3,0.5-0.4,1-0.9,0.6
		c0,0,0-0.1-0.1-0.1l0,0L10.6,80l-0.1-0.1l-0.1-0.1l-0.1-0.1l-0.1-0.1l-0.1-0.1l-0.1-0.1l-0.1-0.1L10.1,79L10,78.9L10,78.7l-0.1-0.1
		l-0.1-0.1l-0.1-0.1l-0.1-0.1l-0.1-0.1L9.6,78l-0.1-0.1l-0.1-0.1l-0.1-0.1l-0.1-0.1l-0.1-0.1l-0.1-0.1L9.2,77l-0.1-0.1l-0.1-0.1
		L9,76.6l-0.1-0.1l-0.1-0.1l-0.1-0.1l-0.1-0.1L8.7,76l-0.1-0.1l-0.1-0.1L8.5,75.5L8.5,75.5L8.5,75.5z M12.3,82.8
		c-0.3-0.5,0.4-1.1,0.8-0.6l0,0l0,0l0.1,0.1l0.1,0.1l0.1,0.1l0.1,0.1l0.1,0.1l0.1,0.1l0.1,0.1l0.1,0.1l0.1,0.1l0.1,0.1l0.1,0.1
		l0.1,0.1l0.1,0.1l0.1,0.1l0.1,0.1l0.1,0.1l0.1,0.1l0.1,0.1l0.1,0.1l0.1,0.1l0.1,0.1l0.1,0.1l0.1,0.1l0.1,0.1l0.1,0.1l0.1,0.1
		l0.1,0.1l0.1,0.1l0.1,0.1l0.1,0.1l0.1,0.1l0.1,0.1l0.1,0.1l0.1,0.1l0.1,0.1l0.1,0.1l0,0c0.4,0.4-0.2,1.1-0.7,0.7c0,0,0,0-0.1-0.1
		l0,0l-0.1-0.1l-0.1-0.1l-0.1-0.1L15,86.5l-0.1-0.1l-0.1-0.1l-0.1-0.1l-0.1-0.1L14.5,86l-0.1-0.1l-0.1-0.1l-0.1-0.1l-0.1-0.1
		l-0.1-0.1L14,85.3l-0.1-0.1l-0.1-0.1L13.7,85l-0.1-0.1l-0.1-0.1l-0.1-0.1l-0.1-0.1l-0.1-0.1l-0.1-0.1l-0.1-0.1l-0.1-0.1L13,83.9
		l-0.1-0.1l-0.1-0.1l-0.1-0.1l-0.1-0.1l-0.1-0.1l-0.1-0.1l-0.1-0.1L12.4,83L12.3,82.8L12.3,82.8z"/>
	<path class="st1" d="M33.6,69.7c-4.6-2.4-6.7-8.5-7.9-12.8c-3.1-11.8,5.7-18.5,16.8-20.4C52,34.9,58.2,40.3,62,47.6
		c1.1,2.1,1.5,6,1.4,8.4c0,1.2-2.1,7.3-2.7,8.2C54.8,73.1,40.8,73.4,33.6,69.7z"/>
	<g>
		<g>
			<path class="st2" d="M54.3,69.6c-0.3,0.2-0.6,0.3-0.9,0.4c-0.1-0.1-0.2-0.2-0.2-0.4c0-0.3,0.2-0.5,0.6-0.5
				C54.1,69.1,54.3,69.3,54.3,69.6L54.3,69.6L54.3,69.6z M51.8,62.5c0.2-0.2,0.1-0.6-0.1-0.8c-0.3-0.2-0.6-0.1-0.8,0.2
				c-0.2,0.2-0.1,0.6,0.1,0.8C51.3,62.9,51.6,62.8,51.8,62.5L51.8,62.5z M62.5,56.8c-0.3-0.2-0.6-0.1-0.8,0.2
				c-0.2,0.3-0.1,0.6,0.2,0.8c0.3,0.2,0.6,0,0.8-0.2C62.9,57.3,62.8,57,62.5,56.8L62.5,56.8z M58.3,59.9c0.3,0.2,0.6,0.1,0.8-0.2
				c0.1-0.3,0-0.6-0.2-0.8c-0.3-0.2-0.6,0-0.8,0.2C57.9,59.4,58,59.8,58.3,59.9L58.3,59.9z M37.8,62.4c-0.2-0.2-0.6-0.1-0.8,0.2
				c-0.2,0.3-0.1,0.6,0.2,0.8c0.3,0.2,0.6,0.1,0.8-0.1C38.2,62.9,38.1,62.6,37.8,62.4L37.8,62.4z M39.4,69.8c-0.3,0-0.6,0.2-0.6,0.5
				c0,0.3,0.2,0.6,0.5,0.6c0.3,0,0.6-0.2,0.6-0.5C39.9,70,39.7,69.7,39.4,69.8L39.4,69.8z M43,59.4c-0.3,0-0.6,0.2-0.6,0.5
				c0,0.3,0.2,0.5,0.5,0.6c0.3,0,0.6-0.2,0.6-0.5C43.6,59.7,43.3,59.5,43,59.4L43,59.4z M39.8,62.7c-0.2-0.3-0.5-0.3-0.8-0.2
				c-0.3,0.2-0.3,0.6-0.1,0.8c0.2,0.2,0.6,0.3,0.8,0.1C39.9,63.3,40,63,39.8,62.7L39.8,62.7z M45.4,66.9c-0.2,0.2-0.2,0.6,0,0.8
				c0.2,0.2,0.6,0.2,0.8,0c0.2-0.2,0.2-0.5,0-0.8C46,66.7,45.6,66.7,45.4,66.9L45.4,66.9z M35.1,66.8c-0.3-0.2-0.6,0-0.8,0.2
				c-0.1,0.3-0.1,0.6,0.2,0.8c0.2,0.2,0.6,0.1,0.7-0.2C35.5,67.3,35.4,67,35.1,66.8L35.1,66.8z M41.7,59.3c-0.3-0.1-0.6-0.1-0.8,0.2
				c-0.1,0.3,0,0.6,0.2,0.8c0.3,0.2,0.6,0,0.8-0.2C42,59.8,41.9,59.4,41.7,59.3L41.7,59.3z M41.6,67.8c-0.3,0-0.6,0.2-0.6,0.6
				c0,0.3,0.3,0.5,0.6,0.5c0.3,0,0.5-0.2,0.5-0.5C42.1,68,41.9,67.8,41.6,67.8z"/>
			<g>
				<path class="st2" d="M63.4,56.4c0,0.2-0.1,0.6-0.2,0.9c-0.1-0.1-0.1-0.1-0.2-0.2c-0.2-0.2-0.1-0.6,0.2-0.8L63.4,56.4L63.4,56.4z
					 M35.1,69.3c0.1,0.3,0.5,0.4,0.8,0.3c0.3-0.1,0.4-0.4,0.3-0.7c-0.1-0.3-0.5-0.4-0.8-0.3C35.1,68.7,35,69.1,35.1,69.3L35.1,69.3z
					 M56.9,67.9c0.3-0.1,0.5-0.4,0.4-0.7c-0.1-0.3-0.4-0.5-0.7-0.4c-0.3,0.1-0.5,0.4-0.4,0.7C56.3,67.8,56.6,68,56.9,67.9L56.9,67.9
					z M61.3,55.7c-0.3,0-0.6,0.2-0.5,0.6c0,0.3,0.3,0.5,0.6,0.5c0.3-0.1,0.6-0.3,0.6-0.6C61.9,55.9,61.6,55.7,61.3,55.7L61.3,55.7z
					 M54.3,59.1c-0.3,0-0.6,0.3-0.5,0.6c0,0.3,0.3,0.6,0.6,0.6c0.3,0,0.6-0.3,0.5-0.6C54.8,59.4,54.6,59.1,54.3,59.1L54.3,59.1z
					 M47.4,66c0.2,0.2,0.6,0.3,0.8,0.2c0.3-0.2,0.3-0.5,0.2-0.8c-0.2-0.2-0.5-0.3-0.8-0.2C47.3,65.3,47.3,65.7,47.4,66L47.4,66z
					 M52.5,65.3c0.3-0.2,0.4-0.5,0.2-0.7c-0.2-0.3-0.6-0.3-0.8-0.2c-0.3,0.2-0.3,0.5-0.1,0.7C51.9,65.4,52.2,65.5,52.5,65.3
					L52.5,65.3z M44.7,68.3c0.3-0.2,0.4-0.5,0.2-0.8c-0.2-0.2-0.5-0.3-0.8-0.2c-0.3,0.2-0.3,0.5-0.2,0.8
					C44.1,68.4,44.4,68.5,44.7,68.3L44.7,68.3z M51.5,68.2c-0.2-0.3-0.6-0.3-0.8-0.2c-0.2,0.2-0.4,0.6-0.2,0.8
					c0.2,0.3,0.5,0.3,0.8,0.2C51.6,68.8,51.6,68.5,51.5,68.2L51.5,68.2z M54.6,66.4c-0.3,0.1-0.5,0.3-0.4,0.6
					c0.1,0.3,0.4,0.5,0.7,0.5c0.3-0.1,0.5-0.4,0.5-0.7C55.2,66.5,54.9,66.3,54.6,66.4L54.6,66.4z M49,64.4c0.3-0.1,0.6,0.1,0.7,0.4
					c0,0.3-0.2,0.6-0.5,0.7c-0.3,0.1-0.6-0.1-0.7-0.5C48.5,64.7,48.7,64.5,49,64.4L49,64.4z M35.9,62.6c-0.2-0.2-0.6-0.3-0.8-0.1
					c-0.3,0.2-0.3,0.6-0.1,0.8c0.2,0.2,0.5,0.3,0.8,0.1C36.1,63.2,36.1,62.9,35.9,62.6L35.9,62.6z M38.4,56.5
					c-0.2-0.2-0.5-0.3-0.8-0.1c-0.3,0.2-0.3,0.6-0.1,0.8c0.2,0.2,0.6,0.3,0.8,0.1C38.6,57.1,38.6,56.7,38.4,56.5L38.4,56.5z
					 M56.1,54.1c-0.3-0.1-0.6,0.1-0.7,0.4c0,0.3,0.1,0.6,0.4,0.7c0.3,0.1,0.6-0.1,0.7-0.4C56.6,54.4,56.4,54.1,56.1,54.1L56.1,54.1z
					 M34.7,57.8c-0.1-0.3-0.5-0.4-0.8-0.2c-0.3,0.2-0.4,0.5-0.2,0.8c0.1,0.3,0.5,0.4,0.8,0.2C34.7,58.4,34.8,58.1,34.7,57.8
					L34.7,57.8z M54.1,62.8c-0.3-0.2-0.6-0.1-0.8,0.2c-0.1,0.2-0.1,0.6,0.2,0.7c0.3,0.2,0.6,0.1,0.8-0.2
					C54.5,63.3,54.4,62.9,54.1,62.8z"/>
				<path class="st2" d="M61.8,61.7c-0.1,0.3-0.2,0.7-0.4,0.9c0,0-0.1-0.1-0.1-0.1c-0.2-0.3,0-0.6,0.2-0.8
					C61.6,61.7,61.7,61.7,61.8,61.7L61.8,61.7z M55.4,55.6c-0.2-0.2-0.6-0.2-0.8,0c-0.2,0.2-0.3,0.6,0,0.8c0.2,0.2,0.6,0.2,0.8,0.1
					C55.6,56.2,55.6,55.8,55.4,55.6L55.4,55.6z M31.9,65.1c-0.2-0.2-0.6-0.2-0.8,0c-0.2,0.2-0.3,0.5,0,0.8c0.2,0.2,0.6,0.3,0.8,0.1
					C32,65.7,32,65.4,31.9,65.1L31.9,65.1z M55,63c-0.3-0.1-0.6,0-0.7,0.3c-0.1,0.3,0,0.6,0.3,0.7c0.3,0.1,0.6-0.1,0.7-0.3
					C55.4,63.4,55.3,63.1,55,63L55,63z M57.2,56.4c-0.1-0.3-0.4-0.4-0.7-0.4c-0.3,0.2-0.4,0.5-0.3,0.8c0.1,0.3,0.5,0.4,0.8,0.3
					C57.2,57,57.3,56.7,57.2,56.4L57.2,56.4z M38.8,54.6c-0.3-0.2-0.6-0.1-0.8,0.1c-0.2,0.3-0.2,0.6,0.1,0.8
					c0.3,0.2,0.6,0.1,0.8-0.1C39.1,55.1,39,54.8,38.8,54.6L38.8,54.6z M37.5,58.3c-0.3-0.1-0.6,0-0.7,0.3c-0.1,0.2,0,0.6,0.3,0.7
					c0.3,0.1,0.6,0,0.8-0.3C37.9,58.7,37.8,58.4,37.5,58.3L37.5,58.3z M38,52.6c-0.3,0-0.5,0.3-0.5,0.6c0,0.3,0.3,0.5,0.6,0.5
					c0.3,0,0.5-0.3,0.5-0.7C38.6,52.8,38.3,52.5,38,52.6L38,52.6z M51.6,59.1c-0.2-0.2-0.6-0.2-0.8,0c-0.2,0.2-0.2,0.6,0,0.8
					c0.2,0.2,0.6,0.2,0.8,0C51.8,59.7,51.8,59.3,51.6,59.1L51.6,59.1z M57.6,61.7c-0.3-0.1-0.6,0.1-0.7,0.4
					c-0.1,0.3,0.1,0.6,0.4,0.7c0.3,0.1,0.6-0.1,0.7-0.4C58.1,62,57.9,61.7,57.6,61.7z"/>
				<path class="st2" d="M52.3,64.1c-0.3,0-0.6,0.3-0.6,0.6c0,0.3,0.3,0.6,0.6,0.5c0.3,0,0.5-0.3,0.5-0.6
					C52.9,64.3,52.6,64,52.3,64.1z"/>
			</g>
		</g>
		<g>
			<path class="st2" d="M25.3,49.9c0.1-0.5,0.2-1,0.3-1.4c0.3,0.1,0.5,0.3,0.5,0.7C26.1,49.5,25.8,49.8,25.3,49.9L25.3,49.9
				L25.3,49.9z M49,50.7c-0.4,0.2-0.6,0.6-0.5,1c0.2,0.4,0.6,0.6,1,0.5c0.4-0.2,0.6-0.6,0.5-1C49.9,50.8,49.4,50.6,49,50.7L49,50.7z
				 M37.7,57.7c-0.1-0.4-0.6-0.6-1-0.5c-0.4,0.2-0.6,0.6-0.5,1c0.2,0.4,0.6,0.7,1,0.5C37.7,58.5,37.9,58.1,37.7,57.7L37.7,57.7z
				 M52.4,44.3c0.4,0.2,0.8,0.1,1.1-0.3c0.3-0.3,0.1-0.8-0.2-1c-0.4-0.2-0.8-0.1-1.1,0.2C52,43.6,52,44.1,52.4,44.3L52.4,44.3z
				 M58.3,63.2c-0.4-0.2-0.8-0.1-1.1,0.2c-0.3,0.4-0.1,0.8,0.2,1c0.3,0.2,0.8,0.1,1.1-0.2C58.7,63.9,58.7,63.4,58.3,63.2L58.3,63.2z
				 M48.8,48.2c0,0.2-0.1,0.4,0,0.5c0.3,0.3,0.8,0.4,1.1,0c0.3-0.3,0.3-0.8,0-1.1c-0.3-0.3-0.8-0.3-1.1,0
				C48.7,47.9,48.9,48,48.8,48.2c0.2-0.4,0.2-0.8-0.2-1c-0.3-0.2-0.8-0.1-1.1,0.2c-0.3,0.3-0.1,0.8,0.2,1
				C48.1,48.7,48.6,48.6,48.8,48.2L48.8,48.2z M37.4,53.8c0.3-0.3,0.3-0.8,0-1c-0.3-0.4-0.8-0.4-1.1-0.1c-0.3,0.3-0.3,0.8,0,1.1
				C36.6,54.1,37.1,54.1,37.4,53.8L37.4,53.8z M57.4,57.7c0.4,0,0.8-0.3,0.8-0.7c0-0.5-0.3-0.8-0.7-0.9c-0.5,0-0.8,0.3-0.9,0.8
				C56.7,57.3,57,57.6,57.4,57.7L57.4,57.7z M41.6,51.5c0.2-0.4,0-0.8-0.4-1c-0.4-0.2-0.8,0-1,0.3c-0.2,0.5,0,0.9,0.4,1
				C41,52.1,41.5,51.9,41.6,51.5L41.6,51.5z M36.1,49.4c0.2-0.4,0-0.8-0.4-1c-0.4-0.2-0.8,0-1,0.3c-0.2,0.5,0,0.9,0.4,1
				C35.4,50,35.9,49.7,36.1,49.4L36.1,49.4z M48.7,43.3c0.3-0.3,0.3-0.8,0-1.1c-0.3-0.3-0.8-0.3-1.1,0c-0.3,0.3-0.3,0.8,0,1.1
				C47.9,43.5,48.4,43.6,48.7,43.3L48.7,43.3z M61.1,62.7c0.3-0.3,0.3-0.7,0-1c-0.3-0.3-0.8-0.4-1.1,0c-0.3,0.3-0.3,0.8,0,1.1
				C60.3,63,60.8,63,61.1,62.7L61.1,62.7z M55.8,48c0.4,0.1,0.8-0.1,1-0.5c0.1-0.4-0.1-0.8-0.5-1c-0.4-0.1-0.9,0.1-1,0.5
				C55.2,47.4,55.4,47.8,55.8,48L55.8,48z M49.2,62.5c-0.4-0.1-0.8,0-1,0.4c-0.1,0.4,0.1,0.8,0.5,1c0.4,0.1,0.8-0.1,1-0.4
				C49.9,63.1,49.7,62.6,49.2,62.5L49.2,62.5z M34.8,53.2c0.4-0.2,0.7-0.6,0.5-1c-0.2-0.4-0.6-0.7-1-0.5c-0.4,0.2-0.6,0.6-0.4,1
				C34,53.2,34.4,53.4,34.8,53.2L34.8,53.2z M40.5,69c-0.4-0.2-0.8,0-1.1,0.3c-0.2,0.3-0.1,0.8,0.3,1c0.4,0.1,0.9,0,1.1-0.3
				C41,69.7,40.9,69.2,40.5,69L40.5,69z M54.6,58.3c-0.4-0.2-0.8,0-1.1,0.3c-0.2,0.4-0.1,0.8,0.3,1c0.4,0.2,0.8,0.1,1.1-0.3
				C55.1,59,55,58.6,54.6,58.3L54.6,58.3z M53.6,59.8c0.4,0.2,0.5,0.7,0.3,1c-0.2,0.4-0.7,0.5-1.1,0.3c-0.4-0.2-0.5-0.7-0.3-1
				C52.8,59.7,53.2,59.5,53.6,59.8L53.6,59.8z M54.7,63.3c0.4,0,0.8-0.3,0.8-0.7c0-0.5-0.4-0.7-0.8-0.7c-0.4,0-0.8,0.3-0.8,0.7
				C53.9,63.1,54.3,63.4,54.7,63.3L54.7,63.3z M44.6,45.4c0.5,0,0.8-0.4,0.8-0.7c0-0.5-0.4-0.7-0.8-0.7c-0.4,0-0.8,0.3-0.8,0.7
				C43.9,45.1,44.2,45.4,44.6,45.4z"/>
			<g>
				<path class="st2" d="M26.5,46.2c0.2-0.4,0.5-0.9,0.7-1.3c0.1,0.1,0.1,0.2,0.2,0.3c0.1,0.4-0.2,0.8-0.6,0.9
					C26.7,46.2,26.6,46.2,26.5,46.2L26.5,46.2z M53.9,38.4c0.2,0.1,0.4,0.3,0.6,0.4C54.3,38.8,54,38.6,53.9,38.4L53.9,38.4z
					 M63.4,55.6c0,0.1,0,0.2,0,0.3c0,0.2-0.1,0.6-0.2,1.1c-0.2-0.1-0.4-0.4-0.4-0.6C62.8,56,63.1,55.7,63.4,55.6L63.4,55.6z
					 M51.3,70.8c-0.5,0.1-1,0.3-1.5,0.4c0-0.3,0.1-0.5,0.4-0.7C50.7,70.3,51.1,70.4,51.3,70.8L51.3,70.8z M41.5,71.8
					c-0.5,0-1-0.1-1.5-0.2c0-0.3,0.3-0.7,0.7-0.7c0.5,0,0.8,0.3,0.8,0.7C41.5,71.7,41.5,71.7,41.5,71.8L41.5,71.8z M41.7,67.7
					c0.4,0.2,0.8,0.2,1.1-0.2c0.2-0.3,0.2-0.8-0.1-1c-0.4-0.2-0.9-0.2-1.2,0.2C41.2,66.9,41.3,67.4,41.7,67.7L41.7,67.7z M46.5,64.5
					c0.5,0,0.8-0.3,0.7-0.8c0-0.4-0.4-0.8-0.8-0.7c-0.4,0-0.8,0.3-0.7,0.8C45.7,64.2,46.1,64.5,46.5,64.5L46.5,64.5z M37.5,70.2
					c0,0.2-0.1,0.4,0,0.5c0.4,0.2,0.8,0.2,1.1-0.2c0.2-0.3,0.2-0.8-0.1-1c-0.2-0.1-0.4,0-0.6,0.1c0-0.1,0.1-0.2,0-0.3
					c-0.2-0.3-0.7-0.4-1.1-0.2c-0.4,0.2-0.4,0.7-0.2,1.1C36.9,70.3,37.2,70.3,37.5,70.2L37.5,70.2z M59.3,58.3
					c0.4-0.1,0.7-0.5,0.6-0.9c-0.1-0.4-0.5-0.6-0.9-0.6c-0.4,0.1-0.7,0.5-0.6,0.9C58.4,58.1,58.8,58.4,59.3,58.3L59.3,58.3z
					 M57.2,62.5c-0.4,0.3-0.5,0.8-0.1,1c0.3,0.3,0.7,0.4,1.1,0.1c0.3-0.2,0.4-0.7,0.1-1C58,62.2,57.5,62.2,57.2,62.5L57.2,62.5z
					 M58.8,55.5c0,0.2-0.1,0.4,0.1,0.5c0.4,0.2,0.8,0.2,1.1-0.2c0.2-0.3,0.2-0.8-0.1-1c-0.4-0.2-0.9-0.2-1.1,0.2
					c-0.1,0.1,0.1,0.2,0.1,0.3c-0.3-0.3-0.7-0.3-1-0.1c-0.3,0.2-0.4,0.7-0.1,1c0.3,0.3,0.7,0.4,1.1,0.1
					C58.9,56.1,58.9,55.8,58.8,55.5L58.8,55.5z M45.5,70.9c0.2,0.4,0.7,0.5,1.1,0.3c0.4-0.2,0.5-0.7,0.3-1c-0.2-0.4-0.7-0.5-1.1-0.3
					C45.4,70.1,45.3,70.5,45.5,70.9L45.5,70.9z M50.6,58.8c-0.2,0.4-0.1,0.9,0.2,1.1c0.4,0.2,0.9,0.1,1.1-0.3c0.2-0.3,0.1-0.8-0.3-1
					C51.3,58.3,50.8,58.4,50.6,58.8L50.6,58.8z M29.6,46.7c0.4-0.1,0.7-0.5,0.6-0.9c-0.1-0.4-0.5-0.7-0.9-0.6
					c-0.4,0.1-0.7,0.5-0.6,0.9C28.7,46.5,29.2,46.8,29.6,46.7L29.6,46.7z M27.6,51.6c0.4-0.1,0.7-0.5,0.6-0.9
					c-0.1-0.4-0.5-0.6-0.9-0.5c-0.4,0.1-0.7,0.5-0.6,0.9C26.8,51.4,27.2,51.7,27.6,51.6L27.6,51.6z M52.7,42.6
					c0.4-0.1,0.7-0.5,0.6-0.9c-0.1-0.4-0.5-0.6-0.9-0.6c-0.4,0.1-0.7,0.5-0.6,0.9C51.8,42.5,52.2,42.7,52.7,42.6L52.7,42.6z
					 M48.2,52.6c0.4,0.2,0.8,0.2,1.1-0.2c0.2-0.3,0.2-0.8-0.2-1.1c-0.4-0.2-0.8-0.2-1.1,0.1C47.8,51.8,47.9,52.3,48.2,52.6
					L48.2,52.6z M35.4,65.8c-0.4-0.2-0.8-0.2-1.1,0.2c-0.3,0.3-0.2,0.8,0.1,1c0.4,0.2,0.8,0.2,1.1-0.2
					C35.8,66.6,35.7,66.1,35.4,65.8L35.4,65.8z M45.6,56c0.4,0.2,0.9,0.2,1.1-0.1c0.2-0.4,0.2-0.9-0.2-1.1c-0.3-0.3-0.8-0.2-1.1,0.1
					C45.2,55.3,45.3,55.7,45.6,56L45.6,56z M30.8,53.2c-0.4,0-0.6,0.5-0.6,0.9c0.1,0.4,0.5,0.7,0.9,0.6c0.4-0.1,0.7-0.5,0.6-0.9
					C31.6,53.4,31.2,53.2,30.8,53.2L30.8,53.2z M35.3,50c-0.3-0.3-0.8-0.2-1.1,0c-0.3,0.3-0.3,0.8,0.1,1.1c0.3,0.3,0.8,0.2,1.1-0.1
					C35.6,50.8,35.6,50.3,35.3,50L35.3,50z M31.6,63.2c0.4,0.1,0.8-0.1,0.9-0.6c0.1-0.4-0.2-0.8-0.6-0.9c-0.4-0.1-0.9,0.2-0.9,0.6
					C30.9,62.8,31.2,63.1,31.6,63.2L31.6,63.2z M28.3,55.9c0.4,0.1,0.8-0.2,0.9-0.6c0.1-0.4-0.2-0.8-0.6-0.9
					c-0.4-0.1-0.8,0.2-0.9,0.6C27.6,55.3,27.9,55.8,28.3,55.9L28.3,55.9z M43.2,42.1c0.4,0.1,0.9-0.2,0.9-0.6
					c0.1-0.5-0.2-0.8-0.6-0.9c-0.4-0.1-0.8,0.1-0.9,0.6C42.5,41.6,42.8,42,43.2,42.1L43.2,42.1z M33.2,56.1c0.1-0.5-0.2-0.8-0.6-0.9
					c-0.4-0.1-0.8,0.1-0.9,0.6c-0.1,0.4,0.2,0.8,0.6,0.9C32.6,56.7,33.1,56.4,33.2,56.1L33.2,56.1z M48.8,39.1
					c0.2,0.4,0.7,0.5,1,0.4c0.4-0.2,0.5-0.7,0.3-1c-0.2-0.4-0.6-0.5-1-0.4C48.7,38.3,48.6,38.8,48.8,39.1L48.8,39.1z M36.6,64.5
					c0.4-0.2,0.5-0.6,0.3-1.1c-0.2-0.4-0.7-0.5-1-0.3c-0.4,0.2-0.5,0.6-0.3,1C35.7,64.6,36.2,64.7,36.6,64.5L36.6,64.5z M45.6,38.3
					c-0.2-0.4-0.7-0.5-1.1-0.3c-0.4,0.2-0.5,0.6-0.3,1.1c0.2,0.4,0.7,0.5,1.1,0.3C45.7,39.1,45.8,38.7,45.6,38.3L45.6,38.3z
					 M41.4,40.2c-0.4-0.2-0.8-0.1-1,0.3c-0.2,0.3-0.1,0.8,0.2,1c0.4,0.2,0.9,0.1,1.1-0.2C41.9,40.8,41.8,40.4,41.4,40.2z"/>
				<path class="st2" d="M48,71.6c-0.2,0-0.4,0.1-0.6,0.1c-0.2-0.1-0.4-0.2-0.5-0.5c-0.2-0.4,0.1-0.8,0.4-1c0.4-0.1,0.8,0,1,0.5
					C48.5,71,48.3,71.4,48,71.6L48,71.6z M43.6,71.9c-0.2,0-0.5,0-0.7,0c0-0.1-0.1-0.2-0.2-0.3c0.1,0.1,0.1,0.2,0.1,0.3
					c-0.4,0-0.9,0-1.3-0.1c0-0.1,0.1-0.2,0.1-0.3c0.2-0.3,0.6-0.4,1-0.2c0-0.1-0.2-0.1-0.2-0.3c0.1-0.4,0.6-0.6,1-0.5
					c0.4,0.2,0.6,0.6,0.5,0.9C43.9,71.7,43.8,71.8,43.6,71.9L43.6,71.9z M55.7,56.2c0-0.4-0.4-0.7-0.8-0.7c-0.4,0-0.7,0.4-0.7,0.8
					c0,0.5,0.4,0.8,0.8,0.7C55.4,57,55.7,56.6,55.7,56.2L55.7,56.2z M56.4,52.4c0.4-0.2,0.5-0.7,0.3-1c-0.2-0.4-0.7-0.6-1.1-0.3
					c-0.4,0.2-0.5,0.7-0.3,1.1C55.5,52.5,56,52.6,56.4,52.4L56.4,52.4z M61,51.3c0.3-0.3,0.2-0.8-0.1-1c-0.3-0.3-0.8-0.3-1.1,0.1
					c-0.3,0.4-0.3,0.8,0.1,1.1C60.3,51.6,60.8,51.6,61,51.3L61,51.3z M56.2,47.8c0.3-0.3,0.2-0.8-0.1-1c-0.3-0.3-0.8-0.3-1.1,0.1
					c-0.3,0.4-0.2,0.9,0.1,1.1C55.5,48.2,56,48.1,56.2,47.8L56.2,47.8z M54,51.2c0.4,0,0.8-0.4,0.7-0.8c0-0.5-0.4-0.8-0.9-0.8
					c-0.4,0.1-0.7,0.4-0.7,0.8C53.2,50.9,53.6,51.2,54,51.2L54,51.2z M55.4,67.9c-0.3-0.3-0.8-0.3-1.1,0c-0.3,0.2-0.3,0.8,0,1.1
					c0.3,0.2,0.8,0.3,1.1,0C55.7,68.6,55.7,68.2,55.4,67.9L55.4,67.9z M45.1,44.7c-0.1,0.4,0.1,0.8,0.6,0.9c0.4,0.1,0.8-0.1,0.9-0.6
					c0.1-0.4-0.1-0.8-0.6-0.9C45.6,44,45.2,44.2,45.1,44.7L45.1,44.7z M32.9,61.2c0.4-0.2,0.5-0.7,0.3-1.1c-0.2-0.3-0.7-0.5-1.1-0.3
					c-0.4,0.2-0.5,0.7-0.3,1.1C32,61.3,32.5,61.4,32.9,61.2L32.9,61.2z M35.9,38.4c-0.4,0.2-0.5,0.7-0.3,1.1
					c0.2,0.4,0.7,0.5,1.1,0.3c0.4-0.1,0.5-0.6,0.3-1C36.7,38.3,36.2,38.2,35.9,38.4L35.9,38.4z M37.6,47.1c-0.4,0-0.7,0.4-0.7,0.8
					c0.1,0.4,0.4,0.7,0.9,0.7c0.4,0,0.7-0.4,0.7-0.8C38.4,47.3,38.1,47.1,37.6,47.1L37.6,47.1z M32.7,56.8c0.3,0.3,0.8,0.3,1.1,0
					c0.3-0.3,0.3-0.8,0-1.1c-0.3-0.3-0.8-0.4-1.1,0C32.3,56,32.3,56.5,32.7,56.8L32.7,56.8z M28.1,59c0.3,0.3,0.8,0.3,1.1,0
					c0.3-0.3,0.3-0.9,0-1.1c-0.3-0.3-0.8-0.3-1.1,0C27.7,58.3,27.8,58.7,28.1,59L28.1,59z M35.7,45.4c-0.4-0.1-0.8,0.1-0.9,0.5
					c-0.1,0.4,0.2,0.8,0.6,0.9c0.4,0.1,0.8-0.1,1-0.5C36.4,45.9,36.1,45.5,35.7,45.4z"/>
				<path class="st2" d="M63.4,54.6c0,0.5,0,0.9,0,1.3l0,0.1c-0.2,0.1-0.5,0-0.7-0.1c-0.4-0.2-0.4-0.7-0.2-1
					C62.8,54.6,63.1,54.5,63.4,54.6L63.4,54.6z M52.1,43.2c-0.4,0.1-0.5,0.6-0.3,1c0.2,0.4,0.7,0.6,1.1,0.3c0.4-0.2,0.6-0.6,0.3-1
					C52.9,43.2,52.4,43,52.1,43.2L52.1,43.2z M32.5,66.6c0.4,0.2,0.9,0,1-0.4c0.2-0.3,0-0.8-0.4-1c-0.4-0.2-0.9,0-1,0.4
					C32,66,32.1,66.4,32.5,66.6L32.5,66.6z M58.9,48.2c-0.3,0.3-0.2,0.8,0.1,1.1c0.4,0.2,0.9,0.2,1.1-0.2c0.3-0.3,0.2-0.8-0.2-1
					C59.6,47.8,59.1,47.9,58.9,48.2L58.9,48.2z M56.5,63.1c0-0.4-0.4-0.7-0.8-0.7c-0.4,0.1-0.8,0.4-0.7,0.9c0.1,0.4,0.4,0.7,0.9,0.7
					C56.2,63.9,56.5,63.6,56.5,63.1L56.5,63.1z M44.6,67c-0.3-0.3-0.8-0.3-1.1,0c-0.3,0.3-0.3,0.8,0,1c0.3,0.3,0.8,0.3,1.1,0.1
					C44.9,67.7,44.9,67.2,44.6,67L44.6,67z M57.9,61.2c-0.4-0.1-0.8,0.1-0.9,0.5c-0.1,0.4,0.1,0.8,0.5,1c0.4,0.1,0.9-0.1,1-0.6
					C58.5,61.7,58.3,61.3,57.9,61.2L57.9,61.2z M55.9,52.9c-0.4-0.1-0.8,0.1-1,0.5c-0.1,0.4,0.1,0.8,0.5,0.9c0.4,0.2,0.8-0.1,1-0.5
					C56.5,53.4,56.3,53,55.9,52.9L55.9,52.9z M51,57.1c0.1-0.4-0.1-0.8-0.5-0.9c-0.4-0.1-0.9,0.1-1,0.5c-0.1,0.4,0.1,0.8,0.5,0.9
					C50.5,57.8,50.9,57.5,51,57.1L51,57.1z M39.8,50.7c-0.3,0.3-0.2,0.9,0.2,1.1c0.3,0.2,0.8,0.2,1-0.2c0.3-0.3,0.2-0.8-0.1-1
					C40.5,50.3,40,50.3,39.8,50.7L39.8,50.7z M42.6,65.4c0.3-0.4,0.2-0.8-0.1-1.1c-0.4-0.2-0.8-0.2-1.1,0.2c-0.3,0.3-0.2,0.8,0.1,1
					C41.8,65.7,42.3,65.7,42.6,65.4L42.6,65.4z M36.4,69.7c0.4,0.1,0.8-0.2,0.9-0.6c0.1-0.4-0.2-0.8-0.6-0.9
					c-0.4-0.1-0.8,0.2-0.9,0.6C35.7,69.2,36,69.7,36.4,69.7L36.4,69.7z M48,59.9c-0.3,0.2-0.5,0.7-0.3,1c0.2,0.4,0.7,0.5,1.1,0.3
					c0.4-0.1,0.5-0.6,0.3-1C48.8,59.8,48.4,59.7,48,59.9L48,59.9z M38,56.2c-0.4,0.2-0.5,0.7-0.3,1c0.2,0.3,0.6,0.5,1,0.3
					c0.4-0.2,0.5-0.7,0.3-1C38.8,56.2,38.4,56,38,56.2L38,56.2z M56.9,58.6c0.4-0.2,0.5-0.7,0.3-1c-0.2-0.3-0.7-0.5-1.1-0.3
					c-0.4,0.2-0.5,0.7-0.3,1C56.1,58.8,56.6,58.8,56.9,58.6L56.9,58.6z M46.5,55.4c0.2,0.4,0.7,0.6,1.1,0.3c0.4-0.2,0.5-0.7,0.3-1.1
					c-0.2-0.4-0.7-0.5-1.1-0.3C46.4,54.6,46.3,55.1,46.5,55.4L46.5,55.4z M44.4,60.1c0.4-0.1,0.7-0.4,0.7-0.8
					c-0.1-0.4-0.5-0.7-0.9-0.6c-0.4,0.1-0.7,0.5-0.6,0.8C43.6,60,44,60.2,44.4,60.1z"/>
			</g>
		</g>
	</g>
</g>
</svg>
