<?xml version="1.0" encoding="utf-8"?>
<!-- Generator: Adobe Illustrator 24.0.3, SVG Export Plug-In . SVG Version: 6.00 Build 0)  -->
<svg version="1.1" id="Layer_1" xmlns="http://www.w3.org/2000/svg" xmlns:xlink="http://www.w3.org/1999/xlink" x="0px" y="0px"
	 viewBox="0 0 107.7 97.3" style="enable-background:new 0 0 107.7 97.3;" xml:space="preserve">
<style type="text/css">
	.st0{fill:#FFFFFF;}
</style>
<g>
	<polygon class="st0" points="24.8,31.9 44.1,31.9 44.2,31.7 44.3,31.7 53.9,15.1 63.4,31.6 63.7,31.6 63.9,31.9 82.9,31.9 
		73.4,48.3 73.6,48.5 73.4,48.9 82.9,65.5 63.9,65.5 63.9,65.5 63.5,65.5 53.9,82.3 44.2,65.5 24.8,65.5 34.5,48.7 	"/>
	<polygon class="st0" points="83.6,19.8 73.2,19.8 83.3,25.1 67.5,25.1 58.5,12.1 69,17.6 63.1,9.1 	"/>
	<polygon class="st0" points="83.8,14.6 73.6,14.6 67.7,6.2 	"/>
	<polygon class="st0" points="84,9.3 76.6,9.3 72.3,3.2 	"/>
	<polygon class="st0" points="76.9,0.2 84.3,4.1 79.6,4.1 	"/>
	<polygon class="st0" points="93.7,60 88.5,51 89,62.3 81.1,48.7 87.8,34.4 88.3,46.2 92.7,36.9 	"/>
	<polygon class="st0" points="97.6,39.4 98.4,57.5 93.2,48.7 	"/>
	<polygon class="st0" points="102.5,41.9 103,55.1 99.3,48.7 	"/>
	<polygon class="st0" points="107.4,44.4 107.7,52.7 105.4,48.7 	"/>
	<polygon class="st0" points="59.6,85.9 67.5,72.3 83.2,70.9 73.2,77.3 83.5,76.4 64,88.8 69.2,79.9 	"/>
	<polygon class="st0" points="83.7,81.9 68.4,91.6 73.5,82.8 	"/>
	<polygon class="st0" points="84,87.4 72.8,94.5 76.6,88 	"/>
	<polygon class="st0" points="84.3,92.9 77.3,97.3 79.6,93.3 	"/>
	<polygon class="st0" points="24.1,77.5 34.5,77.5 24.4,72.3 40.2,72.3 49.3,85.2 38.7,79.7 44.6,88.2 	"/>
	<polygon class="st0" points="23.9,82.8 34.2,82.8 40,91.2 	"/>
	<polygon class="st0" points="23.7,88 31.1,88 35.4,94.2 	"/>
	<polygon class="st0" points="30.8,97.1 23.4,93.3 28.1,93.3 	"/>
	<polygon class="st0" points="14,37.4 19.2,46.3 18.7,35 26.6,48.7 19.9,63 19.4,51.1 15,60.4 	"/>
	<polygon class="st0" points="9.4,39.8 14.5,48.7 10.1,57.9 	"/>
	<polygon class="st0" points="4.7,42.2 8.4,48.7 5.2,55.4 	"/>
	<polygon class="st0" points="0,44.6 2.3,48.7 0.3,52.9 	"/>
	<polygon class="st0" points="48.1,11.4 40.2,25.1 24.5,26.4 34.5,20 24.2,20.9 43.7,8.5 38.6,17.5 	"/>
	<polygon class="st0" points="24,15.4 39.3,5.7 34.2,14.6 	"/>
	<polygon class="st0" points="23.7,9.9 34.9,2.9 31.1,9.3 	"/>
	<polygon class="st0" points="23.4,4.4 30.4,0 28.1,4.1 	"/>
</g>
</svg>
