<?xml version="1.0" encoding="utf-8"?>
<!-- Generator: Adobe Illustrator 24.0.3, SVG Export Plug-In . SVG Version: 6.00 Build 0)  -->
<svg version="1.1" id="Layer_1" xmlns="http://www.w3.org/2000/svg" xmlns:xlink="http://www.w3.org/1999/xlink" x="0px" y="0px"
	 viewBox="0 0 65 65" style="enable-background:new 0 0 65 65;" xml:space="preserve">
<style type="text/css">
	.st0{fill:#74CDD8;}
</style>
<g>
	<path class="st0" d="M1.1,32.5C0,33,36.6,53.5,35.9,54.1C34.7,54.9,0.5,22,0,22.7c-0.9,1.2,23.4-7.9,24.8-7.6
		c0.8,0.1,2.9,47.3,4.3,47c0.9-0.2,13.9-41.1,15.1-41.5C43.9,21.8,3,34.8,2.8,35.8c-0.3,1.4,46.9,3.5,47,4.3
		c0.3,1.5-8.8,25.7-7.6,24.9c0.7-0.5-32.2-34.6-31.4-35.8c0.5-0.8,21,35.9,21.6,34.7c0.6,1.1,21-35.5,21.6-34.7
		c0.8,1.2-32,35.4-31.4,35.8c1.2,0.9-7.9-23.4-7.6-24.8c0.1-0.8,47.3-2.9,47-4.3C61.9,34.8,21,21.8,20.6,20.6
		c1.2,0.4,14.2,41.3,15.2,41.5c1.4,0.3,3.5-46.9,4.3-47c1.5-0.3,25.7,8.8,24.9,7.6C64.5,22,30.3,54.9,29.1,54.1
		c-0.8-0.5,35.9-21,34.7-21.6c1.1-0.6-35.5-21-34.7-21.6c1.2-0.8,35.4,32,35.8,31.4c0.9-1.2-23.4,7.9-24.8,7.6
		c-0.8-0.1-2.9-47.3-4.3-47C34.8,3,21.8,43.9,20.6,44.4c0.4-1.2,41.3-14.2,41.5-15.2c0.3-1.4-46.9-3.5-47-4.3
		C14.8,23.4,23.9-0.8,22.7,0C22,0.5,54.9,34.7,54.1,35.9C53.5,36.6,33.1,0,32.5,1.1c-0.6-1.1-21,35.5-21.6,34.7
		C10.1,34.7,42.9,0.5,42.3,0c-1.2-0.9,7.9,23.4,7.6,24.8c-0.1,0.8-47.3,2.9-47,4.3C3,30.1,43.9,43.1,44.4,44.3
		C43.2,43.9,30.1,3,29.2,2.8c-1.4-0.3-3.5,46.9-4.3,47C23.4,50.1-0.8,41,0,42.3c0.5,0.7,34.6-32.2,35.8-31.4
		C36.6,11.4,0,31.9,1.1,32.5z"/>
	<path class="st0" d="M10.3,10.3c-1.2-0.4,10.3,40,9.3,39.8c-1.4-0.3-2.4-47.7-3.2-47.5c-1.5,0.3,22.1,11,23,12.2
		C39.9,15.5,8,50.3,9.2,51.1c0.8,0.5,38.9-19.2,40.1-18.7C48.1,33,10,13.3,9.2,13.8C8,14.6,39.9,49.5,39.4,50.1
		C38.6,51.4,15,62.1,16.5,62.3c0.8,0.1,1.7-47.2,3.1-47.5c0.9-0.2-10.5,40.2-9.3,39.8c-0.4,1.2,40-10.3,39.8-9.3
		c-0.3,1.4-47.7,2.4-47.5,3.2c0.3,1.5,11-22.1,12.2-23c0.7-0.5,35.5,31.4,36.3,30.2c0.5-0.8-19.2-38.9-18.7-40.1
		c0.5,1.2-19.2,39.3-18.6,40.1c0.8,1.2,35.7-30.7,36.3-30.2c1.2,0.9,11.9,24.4,12.2,22.9c0.1-0.8-47.2-1.7-47.5-3.1
		c-0.2-0.9,40.2,10.5,39.8,9.3c1.2,0.4-10.3-40-9.3-39.8c1.4,0.3,2.4,47.7,3.2,47.5c1.5-0.3-22.1-11-23-12.2
		C25.1,49.5,57,14.6,55.8,13.8C54.9,13.3,16.8,33,15.7,32.5c1.2-0.5,39.3,19.2,40.1,18.6c1.2-0.8-30.7-35.7-30.2-36.3
		C26.4,13.6,50,2.9,48.5,2.6c-0.8-0.1-1.7,47.2-3.1,47.5c-0.9,0.2,10.5-40.2,9.3-39.8c0.4-1.2-40,10.3-39.8,9.3
		c0.3-1.4,47.7-2.4,47.5-3.2c-0.3-1.5-11,22.1-12.2,23C49.5,39.9,14.6,8,13.8,9.2C13.3,10,33,48.1,32.5,49.3
		C32,48.1,51.6,10,51.1,9.2C50.3,8,15.5,39.9,14.8,39.4C13.6,38.6,2.9,15,2.6,16.5c-0.1,0.8,47.2,1.7,47.5,3.1
		C50.3,20.6,9.9,9.1,10.3,10.3z"/>
</g>
</svg>
