<?xml version="1.0" encoding="utf-8"?>
<!-- Generator: Adobe Illustrator 24.0.3, SVG Export Plug-In . SVG Version: 6.00 Build 0)  -->
<svg version="1.1" id="Layer_1" xmlns="http://www.w3.org/2000/svg" xmlns:xlink="http://www.w3.org/1999/xlink" x="0px" y="0px"
	 viewBox="0 0 82.7 81.5" style="enable-background:new 0 0 82.7 81.5;" xml:space="preserve">
<style type="text/css">
	.st0{fill:#70CCDC;}
</style>
<path class="st0" d="M39.7,8.1c0.7-10.7,2.6-10.7,3.3,0c1.5-3.8,3.3,1.9,3.3,10.3c2.2-1.5,5.7-0.3,6.3,2.3c5.6-6.4,10.6-9.6,9.2-5.8
	c7.6-7.7,9-6.5,2.5,2.1c3.7-1.9,1.5,3.6-4.1,10c2.8,0.3,4.7,3.5,3.3,5.8c8.5-1.3,14.5-0.4,10.7,1.5c10.9-0.9,11.3,0.9,0.6,3.3
	c4.2,1-1,3.8-9.6,5.1c2.1,2.1,1.5,5.7-1.2,6.6c7.5,4.6,11.5,9,7.3,8c9.1,6.4,8.2,8-1.7,2.9c2.8,3.5-3.1,2.3-10.6-2.3
	c0.4,3-2.4,5.4-5.1,4.3c3,8.4,3.2,14.4,0.4,10.8c3,10.8,1.3,11.4-3.1,1.1c0,4.5-3.7-0.2-6.7-8.6c-1.5,2.6-5.2,2.6-6.7,0
	c-3,8.4-6.6,13.1-6.7,8.6c-4.5,10.3-6.2,9.7-3.1-1.1c-2.8,3.5-2.6-2.4,0.4-10.8c-2.7,1.1-5.5-1.2-5.1-4.3C16,62.4,10.2,63.7,13,60.1
	c-9.9,5.1-10.8,3.5-1.7-2.9c-4.2,1-0.2-3.5,7.3-8c-2.6-0.8-3.3-4.4-1.2-6.6c-8.5-1.3-13.8-4.1-9.6-5.1c-10.7-2.4-10.4-4.2,0.6-3.3
	c-3.7-1.9,2.2-2.7,10.7-1.5c-1.3-2.3,0.5-5.4,3.3-5.8c-5.6-6.4-7.8-11.9-4.1-10c-6.5-8.7-5.1-9.8,2.5-2.1c-1.5-3.8,3.6-0.6,9.2,5.8
	c0.6-2.5,4-3.8,6.3-2.3C36.4,9.9,38.2,4.3,39.7,8.1z"/>
</svg>
