<?xml version="1.0" encoding="utf-8"?>
<!-- Generator: Adobe Illustrator 24.0.3, SVG Export Plug-In . SVG Version: 6.00 Build 0)  -->
<svg version="1.1" id="Layer_1" xmlns="http://www.w3.org/2000/svg" xmlns:xlink="http://www.w3.org/1999/xlink" x="0px" y="0px"
	 viewBox="0 0 39.5 22.6" style="enable-background:new 0 0 39.5 22.6;" xml:space="preserve">
<style type="text/css">
	.st0{fill-rule:evenodd;clip-rule:evenodd;fill:#000006;}
	.st1{fill-rule:evenodd;clip-rule:evenodd;fill:#9C531E;}
	.st2{fill-rule:evenodd;clip-rule:evenodd;fill:#C06724;}
	.st3{fill-rule:evenodd;clip-rule:evenodd;fill:#8B4918;}
	.st4{fill-rule:evenodd;clip-rule:evenodd;fill:#DB7927;}
	.st5{fill-rule:evenodd;clip-rule:evenodd;fill:#A55B1E;}
	.st6{fill-rule:evenodd;clip-rule:evenodd;fill:#E7F5EA;}
	.st7{fill-rule:evenodd;clip-rule:evenodd;fill:#111617;}
	.st8{fill-rule:evenodd;clip-rule:evenodd;fill:#7A7C80;}
	.st9{fill-rule:evenodd;clip-rule:evenodd;fill:#FFFFFF;}
	.st10{fill-rule:evenodd;clip-rule:evenodd;fill:#F3F1F1;}
	.st11{fill-rule:evenodd;clip-rule:evenodd;fill:#843923;}
	.st12{fill-rule:evenodd;clip-rule:evenodd;fill:#67ABA0;}
	.st13{fill-rule:evenodd;clip-rule:evenodd;fill:#48756E;}
	.st14{fill-rule:evenodd;clip-rule:evenodd;fill:#81B6AF;}
	.st15{fill-rule:evenodd;clip-rule:evenodd;fill:#579085;}
	.st16{fill-rule:evenodd;clip-rule:evenodd;fill:#A0CAC8;}
</style>
<g>
	<g>
		<polygon class="st0" points="37.4,16.8 31.3,14.4 2.4,16.8 2.4,20.2 37.4,20.2 		"/>
		<path class="st1" d="M0.3,20L2,20c0,0.1,0,0.1,0.1,0.1c0.5,0.2,1.2-0.2,1.7-0.5c0.6-0.4,0.3-0.3,0.6-0.5c0.6-0.5,1.4-1.8,1.7-2
			c0.7-0.9,1.7-0.7,2.6-0.7c1,0,1.5,0.4,2.2,0.8c0.5,0.4,1.4,1.3,1.3,2.4c0,0.9,1.1,1.1,1.3,0.1h13.9c0-0.1,0,0,0-0.1
			c0,0,0.2,0.4,0.3,0.4c0,0.2,1.9,0.6,1.9,0c0.1-0.1,0.1-0.4,0.2-0.5c0.2-0.8,0.3-1.5,0.7-2.2c0.9-1.4,3.3-1.6,4.8-1
			c1.6,0.7,2.1,2.2,2.1,3.7c0.1,0,0.7-0.6,0.7-0.7c0.3-0.6,0.5-1.3,0.3-2c-0.6-1.4-1.3-2-2.7-2.7c-0.7-0.4-1-0.4-1.5-0.6
			c-0.5-0.2-5.2-1.5-5.3-1.4l-4.1-3.6C22.9,8.1,10,8.5,9.2,8.9l-3.5,3.5c-0.2,0.1-2,2.2-2.5,2.7c-0.6,0.6-0.9,1.4-0.9,2.3
			c0,0.1,0,0,0,0.1c0,0-0.1,0-0.1,0C1.5,17.3,1,18.6,1,19c-0.1,0-1,0.1-1,0.3C0,19.8,0,19.8,0.3,20z"/>
		<path class="st2" d="M3.7,19.6L3.7,19.6c0.6-0.4,0.4-0.3,0.6-0.5c0.6-0.5,1.4-1.8,1.7-2c0.7-0.9,1.7-0.7,2.6-0.7
			c1,0,1.5,0.4,2.2,0.8c0.5,0.4,1.4,1.3,1.3,2.4c0,0.9,1.1,1.1,1.3,0.1h13.9c0-0.1,0,0,0-0.1c0,0,0.2,0.4,0.3,0.4
			c0,0.2,1.9,0.6,1.9,0c0.1-0.1,0.1-0.4,0.2-0.5c0.2-0.8,0.3-1.5,0.7-2.2c0.9-1.4,3.3-1.6,4.8-1c1.6,0.7,2.1,2.2,2.1,3.7
			c0.1,0,0.7-0.6,0.7-0.7c0.3-0.6,0.5-1.3,0.3-2c-0.1-0.4-0.3-0.7-0.5-0.9c-0.7-0.3-1.4-0.6-2.1-0.9c-4.7-2.3-26.4-4.1-31.3,2.4
			C3.8,18.7,3.7,19.2,3.7,19.6z"/>
		<rect x="27" y="12.6" class="st3" width="0.2" height="7.2"/>
		<g>
			<path class="st4" d="M0.3,20L2,20c0,0.1,0,0.1,0.1,0.1c0.5,0.2,1.2-0.2,1.7-0.5c0.6-0.4,0.3-0.3,0.6-0.5c0.6-0.5,1.4-1.8,1.7-2
				c0.7-0.9,1.7-0.7,2.6-0.7c1,0,1.5,0.4,2.2,0.8c0.5,0.4,1.4,1.3,1.3,2.4c0,0.7,0.9,1,1.3,0.3c0.2-1.2-0.1-5.3-5.1-5.8
				c-1.2-0.1-4.1,0.4-4.6,1.3c-0.4,0.8-0.5,1.3-0.7,1.8c-0.2,0-0.4,0-0.7,0c0,0,0,0.1,0,0.1c0,0.1,0,0,0,0.1c0,0-0.1,0-0.1,0
				C1.5,17.3,1,18.6,1,19c-0.1,0-1,0.1-1,0.3C0,19.8,0,19.8,0.3,20z"/>
			<path class="st4" d="M27.4,20c0.6,0.4,1.9,0.7,2.2,0c0.1-0.1,0.1-0.4,0.2-0.5c0.2-0.8,0.3-1.5,0.7-2.2c0.9-1.4,3.3-1.6,4.8-1
				c1.6,0.7,2.1,2.2,2.1,3.7c0.1,0,0.7-0.6,0.7-0.7c0.3-0.6,0.5-1.3,0.3-2c-0.3-0.7-0.6-1.2-1.1-1.7c-1.2-0.7-3.8-1.1-4.7-1
				c-3.8,0.4-4.9,2.5-5.3,4.4C27.2,19.4,26.9,19.8,27.4,20z"/>
		</g>
		<path class="st5" d="M36.7,14.9c-0.2,0-0.4,0.5-0.4,1.2c0,0.6,0.2,1.2,0.3,1.2v0.1h0.7v-2.4L36.7,14.9
			C36.7,14.9,36.7,14.9,36.7,14.9z"/>
		<path class="st6" d="M37.4,14.9c-0.1,0-0.3,0.5-0.3,1.1c0,0.6,0.1,1.1,0.3,1.1c0.1,0,0.3-0.5,0.3-1.1
			C37.6,15.4,37.5,14.9,37.4,14.9z"/>
		<path class="st4" d="M39.1,18.6h-1.7v0.8h1.7c0.2,0,0.4-0.2,0.4-0.4v0C39.5,18.8,39.3,18.6,39.1,18.6z"/>
		<path class="st7" d="M33.5,16.6c-1.8,0-3.3,1.3-3.3,3c0,1.7,1.5,3,3.3,3c1.8,0,3.3-1.3,3.3-3C36.8,17.9,35.3,16.6,33.5,16.6z"/>
		<path class="st8" d="M33.5,18.2c-0.9,0-1.6,0.6-1.6,1.4c0,0.8,0.7,1.4,1.6,1.4c0.9,0,1.6-0.6,1.6-1.4
			C35.1,18.8,34.4,18.2,33.5,18.2z"/>
		<path class="st7" d="M8.3,16.6c-1.8,0-3.3,1.3-3.3,3c0,1.7,1.5,3,3.3,3c1.8,0,3.3-1.3,3.3-3C11.6,17.9,10.1,16.6,8.3,16.6z"/>
		<path class="st8" d="M8.3,18.2c-0.9,0-1.6,0.6-1.6,1.4c0,0.8,0.7,1.4,1.6,1.4c0.9,0,1.6-0.6,1.6-1.4C9.8,18.8,9.1,18.2,8.3,18.2z"
			/>
		<g>
			<path class="st5" d="M3.6,16.2c0.2,0,0.4,0.4,0.4,1c0,0.5-0.2,1-0.4,1v0H2.9v-2L3.6,16.2C3.6,16.2,3.6,16.2,3.6,16.2z"/>
			<path class="st6" d="M2.8,16.2c0.1,0,0.3,0.4,0.3,0.9c0,0.5-0.1,0.9-0.3,0.9s-0.3-0.4-0.3-0.9C2.6,16.6,2.7,16.2,2.8,16.2z"/>
		</g>
		<g>
			<polygon class="st9" points="26,12.5 24.1,9.6 23.1,9.6 23.9,12.5 			"/>
			<polygon class="st10" points="22.8,9.7 13.4,9.7 10.7,12.5 23.7,12.5 			"/>
			<path class="st9" d="M24.7,9.1l-0.1,0.1c-0.1,0.2-0.1,0.1-0.2,0.3c0.2,0.3,2.4,2.9,2.7,2.9c0,0,0.2,0,0.5,0.1h0.9
				C27.7,12,25.6,9.7,24.7,9.1z"/>
		</g>
		<rect x="17.2" y="9.7" class="st3" width="0.2" height="10.1"/>
	</g>
	<g>
		<polygon class="st11" points="11.3,6 11.5,4.6 8.8,4.2 8.7,5.5 		"/>
		<polygon class="st12" points="18.6,6.3 18.3,8.1 10.2,10.9 12,0 18.4,3.9 		"/>
		<g>
			<path class="st13" d="M18.4,7.3l0,0.2c0,0,0-0.1,0-0.1C18.3,7.4,18.4,7.4,18.4,7.3L18.4,7.3z M18.3,8.1l-0.2,0.1c0,0,0-0.1,0-0.1
				C18.2,8,18.2,8,18.3,8.1C18.3,8.1,18.3,8.1,18.3,8.1L18.3,8.1z M12.2,0.3L12.2,0.3C12.3,0.4,12.3,0.4,12.2,0.3
				C12.2,0.3,12.2,0.3,12.2,0.3L12.2,0.3z M13.9,1.4c0.1,0,0.1,0.1,0.1,0.1C14.1,1.5,14.1,1.4,13.9,1.4C14,1.4,14,1.4,13.9,1.4
				L13.9,1.4z M15.2,6.2c0,0.1,0.1,0.1,0.1,0.1c0,0,0.1-0.1,0.1-0.2C15.3,6,15.3,6,15.2,6C15.2,6,15.1,6.1,15.2,6.2L15.2,6.2z
				 M16.1,7.9c0,0-0.1,0.1-0.1,0.2c0,0.1,0.1,0.1,0.1,0.1c0.1,0,0.1-0.1,0.1-0.2C16.2,7.9,16.2,7.8,16.1,7.9L16.1,7.9z M14.3,5.8
				c0-0.1,0-0.1,0-0.2c0,0-0.1,0-0.1,0.1c0,0.1,0,0.1,0,0.2C14.2,5.9,14.3,5.8,14.3,5.8L14.3,5.8z M16.6,4.3c0,0.1,0,0.1,0,0.2
				c0,0,0.1,0,0.1-0.1c0-0.1,0-0.1,0-0.2C16.7,4.2,16.7,4.3,16.6,4.3L16.6,4.3z M14.9,6.3C14.9,6.3,14.9,6.3,14.9,6.3
				c0.1-0.1,0.1-0.2,0.1-0.2c0,0-0.1,0-0.1,0C14.7,6.1,14.7,6.2,14.9,6.3C14.8,6.3,14.8,6.3,14.9,6.3c0,0-0.1,0-0.1,0.1
				c0,0.1,0,0.1,0,0.2c0,0,0.1,0,0.1-0.1C14.9,6.4,14.9,6.3,14.9,6.3L14.9,6.3z M15.6,8c0,0-0.1,0-0.1,0c0,0.1,0,0.1,0,0.2
				c0,0,0.1,0,0.1,0C15.7,8.1,15.7,8.1,15.6,8L15.6,8z M16,4.6c0-0.1,0-0.1-0.1-0.1c-0.1,0-0.1,0.1-0.1,0.1c0,0.1,0,0.1,0.1,0.1
				C15.9,4.7,16,4.7,16,4.6L16,4.6z M14.5,3.7c0,0.1,0,0.1,0,0.2c0,0.1,0.1,0,0.1,0c0,0,0-0.1,0-0.2C14.6,3.7,14.5,3.7,14.5,3.7
				L14.5,3.7z M18.5,6.7c0-0.1,0-0.1,0-0.2c0,0-0.1,0-0.1,0c0,0,0-0.1,0-0.1c-0.1,0-0.1,0-0.1,0.1c0,0.1,0,0.1,0,0.2
				c0,0,0.1,0,0.1,0c0,0,0,0,0,0.1C18.4,6.7,18.5,6.7,18.5,6.7L18.5,6.7z M18.3,6.7c0,0.1,0,0.1,0,0.2c0,0.1-0.1,0.1-0.1,0
				c0-0.1,0-0.1,0-0.2C18.2,6.7,18.3,6.7,18.3,6.7L18.3,6.7z M15.3,7.4c0,0-0.1,0-0.1,0.1c0,0.1,0,0.1,0,0.2c0.1,0,0.1,0,0.1-0.1
				C15.4,7.5,15.4,7.4,15.3,7.4L15.3,7.4z M17.7,4.4c0-0.1,0-0.1,0-0.2c-0.1,0-0.1,0-0.1,0.1c0,0.1,0,0.1,0.1,0.2
				C17.6,4.5,17.7,4.4,17.7,4.4L17.7,4.4z M15.1,8.4c0,0-0.1,0-0.1,0.1c0,0.1,0,0.1,0,0.2c0.1,0,0.1,0,0.1-0.1
				C15.2,8.4,15.1,8.4,15.1,8.4L15.1,8.4z M14.2,6.4c0,0-0.1,0-0.1,0c0,0.1,0,0.1,0,0.2c0,0,0.1,0,0.1,0C14.3,6.5,14.3,6.4,14.2,6.4
				L14.2,6.4z M16.6,3.9c0,0-0.1,0-0.1,0c0,0.1,0,0.1,0,0.2c0,0,0.1,0,0.1,0C16.6,4,16.6,3.9,16.6,3.9L16.6,3.9z M14.3,4.1
				c0-0.1-0.1,0-0.1,0c0,0.1,0,0.1,0,0.2c0,0,0.1,0,0.1,0C14.3,4.2,14.3,4.1,14.3,4.1L14.3,4.1z M18.2,5.6c0-0.1,0-0.1-0.1-0.1
				c0,0-0.1,0.1-0.1,0.1c0,0.1,0,0.1,0.1,0.1C18.1,5.7,18.2,5.7,18.2,5.6L18.2,5.6z M14.8,5.1c0-0.1,0-0.1-0.1-0.2
				c0,0-0.1,0-0.1,0.1c0,0.1,0,0.1,0.1,0.2C14.7,5.2,14.7,5.2,14.8,5.1L14.8,5.1z M16.6,5.9c0,0.1,0,0.1,0.1,0.2
				c0.1,0,0.1,0,0.1-0.1c0-0.1,0-0.1-0.1-0.2C16.7,5.7,16.7,5.8,16.6,5.9L16.6,5.9z M15.6,8.5c0-0.1-0.1-0.1-0.1-0.1
				c-0.1,0-0.1,0.1-0.1,0.2c0,0.1,0.1,0.1,0.1,0C15.6,8.6,15.6,8.5,15.6,8.5L15.6,8.5z M17.5,7.1c0,0.1,0,0.1,0,0.2
				c0,0,0.1,0,0.1-0.1c0-0.1,0-0.1,0-0.2C17.6,7,17.5,7.1,17.5,7.1L17.5,7.1z M16.1,5.1c0,0.1,0,0.1,0,0.2c0,0,0.1,0,0.1-0.1
				c0-0.1,0-0.1,0-0.2C16.1,5,16.1,5,16.1,5.1L16.1,5.1z M16.3,5.2c0-0.1,0.1-0.1,0.1-0.1c0,0,0.1,0.1,0,0.2c0,0.1-0.1,0.1-0.1,0.1
				C16.3,5.3,16.2,5.3,16.3,5.2L16.3,5.2z M12.9,8.6c0,0.1,0,0.1,0,0.2c0,0,0.1,0,0.1-0.1c0-0.1,0-0.1,0-0.2
				C12.9,8.5,12.9,8.5,12.9,8.6L12.9,8.6z M13.4,9.4c0-0.1,0-0.1,0-0.2c0,0-0.1,0-0.1,0.1c0,0.1,0,0.1,0,0.2
				C13.4,9.5,13.4,9.5,13.4,9.4L13.4,9.4z M16.7,4.9c0-0.1,0-0.1-0.1-0.1c-0.1,0-0.1,0.1-0.1,0.1c0,0.1,0,0.1,0.1,0.1
				C16.7,5.1,16.7,5,16.7,4.9L16.7,4.9z M14.5,7c0-0.1-0.1-0.1-0.1-0.1c-0.1,0-0.1,0.1-0.1,0.2c0,0.1,0,0.1,0.1,0.1
				C14.5,7.2,14.5,7.1,14.5,7L14.5,7z M13.2,7.7c0.1,0,0.1-0.1,0.1-0.1c0-0.1,0-0.1-0.1-0.1c0,0-0.1,0.1-0.1,0.2
				C13.2,7.6,13.2,7.7,13.2,7.7z"/>
			<g>
				<path class="st13" d="M18.4,7.4l0,0.2c0,0,0,0-0.1,0c-0.1,0-0.1-0.1-0.1-0.1C18.2,7.4,18.3,7.4,18.4,7.4
					C18.4,7.4,18.4,7.4,18.4,7.4L18.4,7.4z M16.8,8.6L16.8,8.6C16.8,8.6,16.8,8.6,16.8,8.6L16.8,8.6z M16,8.9L16,8.9
					c-0.1,0-0.2,0-0.2-0.1c0-0.1,0-0.1,0.1-0.1C16,8.7,16,8.7,16,8.9C16,8.8,16,8.9,16,8.9L16,8.9z M15.8,9l-0.1,0
					C15.6,9,15.7,9,15.8,9C15.7,9,15.7,9,15.8,9L15.8,9z M12.6,10.1l-0.2,0.1v0C12.5,10.1,12.5,10,12.6,10.1
					C12.6,10,12.6,10,12.6,10.1L12.6,10.1z M15.6,2.2l0.1,0.1c0,0,0,0.1,0,0.1c0,0-0.1,0-0.1,0C15.5,2.4,15.6,2.3,15.6,2.2L15.6,2.2
					L15.6,2.2z M18.5,5.1l0,0.2C18.5,5.2,18.5,5.2,18.5,5.1C18.5,5.1,18.5,5.1,18.5,5.1L18.5,5.1z M14.3,1.9l0,0.2
					C14.2,2.1,14.3,2,14.3,1.9C14.3,2,14.3,1.9,14.3,1.9L14.3,1.9z M13.4,5.5L13.4,5.5c0,0.1,0,0.1,0,0.1c0,0.1,0.1,0.1,0.1,0
					c0,0,0.1-0.1,0-0.2C13.6,5.4,13.5,5.4,13.4,5.5C13.5,5.5,13.4,5.5,13.4,5.5L13.4,5.5z M12.8,8.3l0,0.2c0,0.1,0.1,0.1,0.1,0
					c0,0,0.1-0.1,0-0.2C12.9,8.2,12.8,8.2,12.8,8.3L12.8,8.3z M18,5.5c0-0.1-0.1-0.1-0.1-0.1c-0.1,0-0.1,0.1-0.1,0.2
					c0,0.1,0.1,0.1,0.1,0.1C18,5.6,18.1,5.6,18,5.5L18,5.5z M18.5,6.3c-0.1,0-0.1,0-0.1,0c0,0.1,0,0.1,0,0.2c0,0,0.1,0,0.1-0.1
					C18.5,6.4,18.5,6.4,18.5,6.3L18.5,6.3z M17.3,7c0-0.1,0-0.1,0-0.2c0,0-0.1,0-0.1,0c0,0.1,0,0.1,0,0.2C17.3,7.1,17.3,7,17.3,7
					L17.3,7z M18.4,6.8c0-0.1-0.1-0.1-0.1-0.1c0,0-0.1,0.1-0.1,0.2c0,0.1,0,0.1,0.1,0.1C18.4,6.9,18.4,6.8,18.4,6.8L18.4,6.8z
					 M16.9,6.3c0-0.1,0-0.1-0.1-0.1c-0.1,0-0.1,0.1-0.1,0.2c0,0.1,0,0.1,0.1,0.1C16.9,6.4,16.9,6.3,16.9,6.3L16.9,6.3z M17.8,7.1
					c0,0.1,0.1,0.1,0.1,0.1C17.9,7.2,18,7.1,18,7c0-0.1-0.1-0.1-0.1-0.1C17.8,6.9,17.8,7,17.8,7.1L17.8,7.1z M15.7,3.5
					c-0.1,0-0.1,0.1-0.1,0.1c0,0.1,0.1,0.1,0.1,0.1c0.1,0,0.1-0.1,0.1-0.1C15.8,3.5,15.8,3.5,15.7,3.5L15.7,3.5z M17.7,7.6
					C17.7,7.6,17.8,7.6,17.7,7.6c0.1-0.1,0.1-0.2,0-0.2c0,0-0.1,0-0.1,0C17.6,7.5,17.6,7.5,17.7,7.6c-0.1,0-0.1-0.1-0.1-0.1
					c0,0,0,0.1,0,0.2c0,0.1,0.1,0.1,0.1,0C17.7,7.7,17.7,7.7,17.7,7.6L17.7,7.6z M16,4.3c0-0.1-0.1-0.1-0.1-0.1c0,0-0.1,0.1-0.1,0.2
					c0,0.1,0.1,0.1,0.1,0.1C16,4.4,16,4.4,16,4.3L16,4.3z M18.1,7.1c0,0.1,0,0.1-0.1,0.2c-0.1,0-0.1,0-0.1-0.1C17.9,7.1,18,7,18,7
					C18.1,7,18.1,7,18.1,7.1L18.1,7.1z M16.6,4.5c0,0.1,0.1,0.1,0.1,0c0-0.1,0-0.1,0-0.2c0,0-0.1,0-0.1,0
					C16.5,4.4,16.5,4.5,16.6,4.5L16.6,4.5z M15.7,4.4C15.7,4.4,15.7,4.4,15.7,4.4c0.1-0.1,0.1-0.2,0-0.2c0,0-0.1,0-0.1,0
					C15.5,4.3,15.6,4.4,15.7,4.4C15.6,4.5,15.6,4.5,15.7,4.4c-0.1,0.1-0.1,0.1,0,0.2c0,0.1,0.1,0.1,0.1,0c0-0.1,0-0.1,0-0.2
					C15.8,4.4,15.7,4.4,15.7,4.4L15.7,4.4z M18,4.8c-0.1,0-0.1,0-0.1,0.1c0,0.1,0,0.1,0.1,0.1C18,5.1,18,5,18,4.9
					C18,4.9,18,4.8,18,4.8L18,4.8z M17.8,5.5c0,0,0.1-0.1,0-0.2c0-0.1-0.1-0.1-0.1,0c0,0-0.1,0.1,0,0.2C17.7,5.5,17.7,5.6,17.8,5.5
					L17.8,5.5z M17.7,6.3c0,0,0.1-0.1,0-0.2c0-0.1-0.1-0.1-0.1,0c0,0-0.1,0.1,0,0.2C17.6,6.3,17.7,6.3,17.7,6.3L17.7,6.3z M16.2,5.7
					c0.1,0,0.1,0,0.1-0.1c0-0.1,0-0.1,0-0.2c0,0-0.1,0-0.1,0.1C16.1,5.6,16.1,5.7,16.2,5.7L16.2,5.7z M16.3,3.3c0-0.1,0-0.1,0-0.2
					c0,0-0.1,0-0.1,0.1c0,0.1,0,0.1,0,0.2C16.2,3.4,16.3,3.3,16.3,3.3L16.3,3.3z M14.1,5.8c0-0.1-0.1-0.1-0.1-0.1
					c0,0-0.1,0.1-0.1,0.2C13.9,5.9,14,6,14,5.9C14.1,5.9,14.1,5.8,14.1,5.8L14.1,5.8z M15.4,6.3c0-0.1,0-0.1,0-0.2
					c0,0-0.1,0-0.1,0.1c0,0.1,0,0.1,0,0.2C15.3,6.3,15.4,6.3,15.4,6.3L15.4,6.3z M17.2,8.1c0,0.1,0,0.1,0,0.2c0,0,0.1,0,0.1,0
					c0-0.1,0-0.1,0-0.2C17.3,8,17.2,8,17.2,8.1L17.2,8.1z M15.9,6.6c0-0.1,0-0.1,0-0.2c0,0-0.1,0-0.1,0.1c0,0.1,0,0.1,0,0.2
					C15.8,6.7,15.8,6.7,15.9,6.6L15.9,6.6z M12.7,8.9c0,0.1,0,0.1,0.1,0.1c0.1,0,0.1-0.1,0.1-0.2c0-0.1-0.1-0.1-0.1-0.1
					C12.7,8.8,12.7,8.8,12.7,8.9L12.7,8.9z M15.2,8.5c0,0.1,0,0.1,0,0.2c0,0,0.1,0,0.1,0c0-0.1,0-0.1,0-0.2
					C15.3,8.4,15.2,8.4,15.2,8.5L15.2,8.5z M14.1,7.3c0-0.1,0-0.1-0.1-0.1c-0.1,0-0.1,0.1-0.1,0.1c0,0.1,0,0.1,0.1,0.1
					C14.1,7.5,14.1,7.4,14.1,7.3L14.1,7.3z M13.7,6.5c0,0,0.1-0.1,0-0.2c0-0.1-0.1-0.1-0.1,0c0,0-0.1,0.1,0,0.2
					C13.6,6.5,13.7,6.5,13.7,6.5L13.7,6.5z M17,7.9c0-0.1-0.1-0.1-0.1,0c0,0-0.1,0.1,0,0.2c0,0.1,0.1,0.1,0.1,0C17,8.1,17,8,17,7.9
					L17,7.9z M13.6,7c0,0-0.1,0.1,0,0.2c0,0.1,0.1,0.1,0.1,0c0,0,0.1-0.1,0-0.2C13.7,7,13.7,7,13.6,7L13.6,7z M13.9,7.7
					c0,0.1,0,0.1,0,0.2c0,0,0.1,0,0.1-0.1c0-0.1,0-0.1,0-0.2C14,7.6,13.9,7.6,13.9,7.7z"/>
				<path class="st13" d="M16.6,8.7l-0.2,0.1c0-0.1,0-0.1,0-0.2C16.5,8.5,16.6,8.5,16.6,8.7C16.6,8.6,16.6,8.7,16.6,8.7L16.6,8.7z
					 M13.9,9.6l-0.1,0c0,0-0.1-0.1,0-0.1c0-0.1,0.1-0.1,0.1-0.1C13.9,9.4,13.9,9.5,13.9,9.6C13.9,9.6,13.9,9.6,13.9,9.6L13.9,9.6z
					 M13,10L12.8,10c0,0,0,0,0,0c0-0.1,0-0.1,0.1-0.2c0.1,0,0.1,0,0.1,0.1C13,9.9,13,9.9,13,10L13,10z M13.1,7.1l0,0.2c0,0,0,0,0,0
					c0,0,0.1,0,0.1,0c0-0.1,0-0.1,0-0.2C13.2,7,13.1,7,13.1,7.1L13.1,7.1z M15.2,2.9C15.2,3,15.3,3,15.3,3c0,0,0.1-0.1,0.1-0.2
					c0-0.1-0.1-0.1-0.1-0.1C15.2,2.8,15.2,2.9,15.2,2.9L15.2,2.9z M15.8,4.9c0,0-0.1,0.1-0.1,0.2c0,0.1,0.1,0.1,0.1,0.1
					c0.1,0,0.1-0.1,0.1-0.2C15.9,5,15.8,4.9,15.8,4.9L15.8,4.9z M14.5,2.2c0-0.1,0-0.1,0-0.2c0,0-0.1,0-0.1,0c0,0.1,0,0.1,0,0.2
					C14.4,2.3,14.5,2.3,14.5,2.2L14.5,2.2z M14.9,2.9C14.9,2.9,14.9,2.9,14.9,2.9C15,2.9,15,2.8,15,2.7c0-0.1-0.1-0.1-0.1,0
					C14.8,2.7,14.8,2.8,14.9,2.9C14.8,2.9,14.9,2.9,14.9,2.9c0,0-0.1,0-0.1,0c0,0.1,0,0.1,0,0.2c0,0,0.1,0,0.1,0
					C14.9,3,14.9,2.9,14.9,2.9L14.9,2.9z M15.3,4.9c0-0.1-0.1-0.1-0.1,0c-0.1,0-0.1,0.1,0,0.2c0,0.1,0.1,0.1,0.1,0
					C15.3,5.1,15.3,5,15.3,4.9L15.3,4.9z M18.3,4.6c0,0,0.1-0.1,0-0.2c0-0.1-0.1-0.1-0.1,0c0,0,0-0.1,0-0.1c0,0-0.1,0-0.1,0
					c0,0.1,0,0.1,0,0.2c0,0,0.1,0,0.1,0c0,0,0,0,0,0.1C18.2,4.6,18.2,4.6,18.3,4.6L18.3,4.6z M17.7,5.8c0,0-0.1,0.1,0,0.2
					c0,0.1,0.1,0.1,0.1,0.1c0,0,0.1-0.1,0-0.2C17.8,5.8,17.7,5.8,17.7,5.8L17.7,5.8z M18.1,4.6c0,0.1,0,0.1,0,0.2
					c-0.1,0-0.1,0-0.1,0c0-0.1,0-0.1,0-0.2C18,4.5,18.1,4.5,18.1,4.6L18.1,4.6z M15.1,4.2c0,0-0.1,0-0.1,0c0,0.1,0,0.1,0,0.2
					c0.1,0,0.1,0,0.1,0C15.2,4.3,15.2,4.2,15.1,4.2L15.1,4.2z M14.7,5c0,0-0.1,0-0.1,0c0,0.1,0,0.1,0,0.2c0.1,0,0.1,0,0.1,0
					C14.8,5.2,14.8,5.1,14.7,5L14.7,5z M14.3,2.8c0-0.1-0.1-0.1-0.1,0c0,0-0.1,0.1,0,0.2c0,0.1,0.1,0.1,0.1,0
					C14.3,3,14.3,2.9,14.3,2.8L14.3,2.8z M18.1,6.4c0-0.1-0.1-0.1-0.1,0c0,0-0.1,0.1,0,0.2c0,0.1,0.1,0.1,0.1,0
					C18.1,6.6,18.2,6.5,18.1,6.4L18.1,6.4z M17.8,6.7C17.9,6.7,17.9,6.6,17.8,6.7C18,6.7,18,6.8,18,6.8c0,0.1-0.1,0.1-0.1,0.1
					C17.8,6.9,17.8,6.8,17.8,6.7C17.8,6.7,17.8,6.8,17.8,6.7c-0.1,0-0.1,0-0.1-0.1c0-0.1,0.1-0.1,0.1-0.1
					C17.9,6.5,17.9,6.6,17.8,6.7C17.9,6.7,17.8,6.7,17.8,6.7L17.8,6.7z M16.7,3.1c0,0.1,0,0.1,0,0.2c0,0,0.1,0,0.1-0.1s0-0.1,0-0.2
					C16.7,3,16.7,3.1,16.7,3.1L16.7,3.1z M15.2,5.3c0-0.1-0.1-0.1-0.1-0.1C15,5.3,15,5.3,15,5.4c0,0.1,0.1,0.1,0.1,0.1
					C15.2,5.5,15.2,5.4,15.2,5.3L15.2,5.3z M17.3,4.7c0,0.1,0,0.1,0,0.2c0,0,0.1,0,0.1,0c0-0.1,0-0.1,0-0.2
					C17.4,4.6,17.3,4.6,17.3,4.7L17.3,4.7z M14.4,7c0.1,0,0.1,0,0.1-0.1c0-0.1,0-0.1-0.1-0.1c-0.1,0-0.1,0-0.1,0.1
					C14.3,6.9,14.4,7,14.4,7L14.4,7z M14.4,3.5c0-0.1,0-0.1-0.1-0.1c-0.1,0-0.1,0-0.1,0.1c0,0.1,0,0.1,0.1,0.1
					C14.4,3.7,14.4,3.6,14.4,3.5L14.4,3.5z M18.2,5.4c0-0.1,0-0.1-0.1-0.1c-0.1,0-0.1,0-0.1,0.1c0,0.1,0,0.1,0.1,0.1
					C18.1,5.5,18.2,5.4,18.2,5.4L18.2,5.4z M13.7,8.6c0,0.1,0.1,0.1,0.1,0c0,0,0.1-0.1,0-0.2c0-0.1-0.1-0.1-0.1,0
					C13.7,8.5,13.7,8.6,13.7,8.6L13.7,8.6z M14.8,8.1c0,0.1,0.1,0.1,0.1,0.1c0,0,0.1-0.1,0.1-0.2C15,8,14.9,8,14.9,8
					C14.8,8,14.8,8.1,14.8,8.1L14.8,8.1z M16.1,8.7c0-0.1,0-0.1,0-0.2c0,0-0.1,0-0.1,0c0,0.1,0,0.1,0,0.2C16,8.8,16,8.8,16.1,8.7
					L16.1,8.7z M14.6,8.5c0,0.1,0,0.1,0.1,0.1c0.1,0,0.1,0,0.1-0.1c0-0.1,0-0.1-0.1-0.1C14.7,8.4,14.6,8.4,14.6,8.5z"/>
				<path class="st13" d="M17.3,8.4l-0.2,0.1c0,0,0,0,0-0.1C17.1,8.4,17.2,8.3,17.3,8.4C17.3,8.4,17.3,8.4,17.3,8.4L17.3,8.4z
					 M18.3,3.9L18.3,3.9L18.4,4C18.4,4,18.3,4,18.3,3.9C18.3,3.9,18.3,3.9,18.3,3.9L18.3,3.9z M18.4,4.2l0,0.2c0,0-0.1,0-0.1,0
					C18.3,4.3,18.3,4.2,18.4,4.2C18.4,4.2,18.4,4.2,18.4,4.2L18.4,4.2z M14.2,2l-0.1,0.3c0,0,0.1,0,0.1-0.1
					C14.3,2.1,14.3,2.1,14.2,2L14.2,2z M13.9,3.3l0,0.2c0,0,0,0,0-0.1C14,3.4,14,3.4,13.9,3.3L13.9,3.3z M14.2,5.8
					c0,0.1,0.1,0.1,0.1,0c0,0,0.1-0.1,0-0.2c0-0.1-0.1-0.1-0.1,0C14.2,5.7,14.2,5.8,14.2,5.8L14.2,5.8z M14.8,4.6c0,0,0.1,0,0.1,0
					c0-0.1,0-0.2,0-0.2c0,0-0.1,0-0.1,0.1C14.7,4.5,14.7,4.6,14.8,4.6L14.8,4.6z M15.6,3.8c0,0,0.1,0,0.1-0.1c0-0.1,0-0.1,0-0.2
					c0,0-0.1,0-0.1,0.1C15.5,3.7,15.5,3.8,15.6,3.8L15.6,3.8z M14.6,3.7c0,0-0.1,0-0.1,0c0,0.1,0,0.1,0,0.2c0,0,0.1,0,0.1-0.1
					C14.7,3.8,14.7,3.7,14.6,3.7L14.6,3.7z M16.7,4.6c0,0-0.1,0.1-0.1,0.2c0,0.1,0.1,0.1,0.1,0.1c0,0,0.1-0.1,0.1-0.2
					C16.8,4.7,16.7,4.6,16.7,4.6L16.7,4.6z M14,4.5c0,0-0.1,0-0.1,0c0,0.1,0,0.1,0,0.2c0,0,0.1,0,0.1,0C14.1,4.7,14.1,4.6,14,4.5
					L14,4.5z M17.2,6.5c0,0.1,0,0.1,0,0.2c0,0,0.1,0,0.1,0c0-0.1,0-0.1,0-0.2C17.3,6.4,17.3,6.5,17.2,6.5L17.2,6.5z M16.4,4.5
					c0,0.1,0,0.1,0.1,0.1c0.1,0,0.1,0,0.1-0.1c0-0.1,0-0.1-0.1-0.2C16.5,4.3,16.4,4.4,16.4,4.5L16.4,4.5z M15.4,5
					c0,0.1,0,0.1,0.1,0.1c0.1,0,0.1,0,0.1-0.1c0-0.1,0-0.1-0.1-0.1C15.4,4.9,15.4,4.9,15.4,5L15.4,5z M15.9,5.7
					c-0.1,0-0.1,0-0.1,0.1c0,0.1,0,0.1,0.1,0.2c0.1,0,0.1,0,0.1-0.1C16,5.8,16,5.7,15.9,5.7L15.9,5.7z M15.2,7.7c0,0,0.1,0,0.1-0.1
					c0-0.1,0-0.1,0-0.2c0,0-0.1,0-0.1,0C15.2,7.6,15.2,7.7,15.2,7.7L15.2,7.7z M17,6.9c0,0-0.1,0-0.1,0.1c0,0.1,0,0.1,0,0.2
					c0,0,0.1,0,0.1,0C17.1,7,17.1,6.9,17,6.9L17,6.9z M17.6,7.8c0-0.1,0-0.1-0.1-0.1c0,0-0.1,0.1-0.1,0.1c0,0.1,0,0.1,0.1,0.1
					C17.6,7.9,17.6,7.9,17.6,7.8L17.6,7.8z M14.5,3.3c0,0,0.1-0.1,0.1-0.1c0-0.1,0-0.1-0.1-0.1c-0.1,0-0.1,0.1-0.1,0.1
					C14.4,3.2,14.4,3.3,14.5,3.3L14.5,3.3z M16.3,6.1c0,0.1,0.1,0.1,0.1,0c0,0,0.1-0.1,0-0.2c0-0.1-0.1-0.1-0.1,0
					C16.3,6,16.3,6.1,16.3,6.1L16.3,6.1z M15.9,7.9c0,0.1,0.1,0.1,0.1,0c0,0,0.1-0.1,0-0.2c0-0.1-0.1-0.1-0.1,0
					C15.9,7.7,15.9,7.8,15.9,7.9L15.9,7.9z M16.1,4.7c0-0.1-0.1-0.1-0.1,0c0,0-0.1,0.1,0,0.2c0,0.1,0.1,0.1,0.1,0
					C16.1,4.8,16.1,4.7,16.1,4.7L16.1,4.7z M15.8,6.5c0,0,0.1-0.1,0-0.2c0-0.1-0.1-0.1-0.1,0c0,0-0.1,0.1,0,0.2
					C15.7,6.5,15.7,6.5,15.8,6.5L15.8,6.5z M17.9,4C17.9,4,17.9,4,18,4c0.1,0,0.1-0.1,0-0.2c0-0.1-0.1-0.1-0.1,0
					C17.8,3.8,17.8,3.9,17.9,4L17.9,4z M16.4,6.7c0-0.1-0.1-0.1-0.1-0.1c0,0-0.1,0.1-0.1,0.2c0,0.1,0.1,0.1,0.1,0.1
					C16.4,6.8,16.4,6.8,16.4,6.7L16.4,6.7z M17.5,4.2c0-0.1-0.1-0.1-0.1-0.1c-0.1,0-0.1,0.1-0.1,0.2c0,0.1,0.1,0.1,0.1,0.1
					C17.4,4.3,17.5,4.3,17.5,4.2z"/>
			</g>
		</g>
		<polygon class="st14" points="24.1,6.5 23.8,8.1 15.7,10.5 17.4,0.8 23.8,4.5 		"/>
		<g>
			<path class="st15" d="M21.3,8.9L21.3,8.9l-0.1,0c0,0-0.1-0.1,0-0.2c0-0.1,0.1-0.1,0.1-0.1C21.3,8.7,21.4,8.7,21.3,8.9
				C21.3,8.8,21.3,8.9,21.3,8.9L21.3,8.9z M17.3,1l0-0.1l0.1,0.1C17.4,0.9,17.4,1,17.3,1C17.4,1,17.4,1,17.3,1L17.3,1z M18,1.3
				L18,1.3C18.1,1.4,18.1,1.4,18,1.3C18.1,1.3,18.1,1.3,18,1.3L18,1.3z M19.9,2.5c0.1,0,0.1,0.1,0.1,0.1C20,2.5,20,2.5,19.9,2.5
				C19.9,2.5,19.9,2.5,19.9,2.5L19.9,2.5z M21.1,7.4c0,0.1,0.1,0.1,0.1,0.1c0,0,0.1-0.1,0.1-0.2c0-0.1-0.1-0.1-0.1-0.1
				C21.1,7.3,21.1,7.3,21.1,7.4L21.1,7.4z M20.3,7c0-0.1,0-0.1,0-0.2c0,0-0.1,0-0.1,0.1c0,0.1,0,0.1,0,0.2C20.2,7.1,20.2,7,20.3,7
				L20.3,7z M22.7,5.5c0,0.1,0,0.1,0,0.2c0,0,0.1,0,0.1-0.1c0-0.1,0-0.1,0-0.2C22.7,5.4,22.7,5.4,22.7,5.5L22.7,5.5z M20.8,7.5
				C20.8,7.5,20.9,7.5,20.8,7.5c0.1-0.1,0.1-0.2,0.1-0.2c0,0-0.1,0-0.1,0C20.7,7.4,20.7,7.5,20.8,7.5C20.8,7.5,20.8,7.5,20.8,7.5
				c0,0-0.1,0-0.1,0.1c0,0.1,0,0.1,0,0.2c0,0,0.1,0,0.1-0.1C20.9,7.6,20.9,7.5,20.8,7.5L20.8,7.5z M22,5.8c0-0.1,0-0.1-0.1-0.1
				c-0.1,0-0.1,0.1-0.1,0.1c0,0.1,0,0.1,0.1,0.1C21.9,5.9,21.9,5.8,22,5.8L22,5.8z M20.4,4.9c0,0.1,0,0.1,0,0.2c0,0.1,0.1,0.1,0.1,0
				c0,0,0.1-0.1,0-0.2C20.5,4.8,20.5,4.8,20.4,4.9L20.4,4.9z M23.8,5.5c0-0.1,0-0.1,0-0.2c-0.1,0-0.1,0-0.1,0.1c0,0.1,0,0.1,0.1,0.2
				C23.7,5.6,23.7,5.6,23.8,5.5L23.8,5.5z M20.2,7.6c0,0-0.1,0-0.1,0c0,0.1,0,0.1,0,0.2c0,0,0.1,0,0.1,0C20.2,7.8,20.2,7.7,20.2,7.6
				L20.2,7.6z M22.6,5c0,0-0.1,0-0.1,0c0,0.1,0,0.1,0,0.2c0,0,0.1,0,0.1,0C22.6,5.2,22.6,5.1,22.6,5L22.6,5z M20.2,5.2
				c0-0.1-0.1,0-0.1,0c0,0.1,0,0.1,0,0.2c0,0,0.1,0,0.1,0C20.2,5.3,20.2,5.3,20.2,5.2L20.2,5.2z M20.7,6.3c0-0.1,0-0.1-0.1-0.2
				c0,0-0.1,0-0.1,0.1c0,0.1,0,0.1,0.1,0.2C20.6,6.4,20.7,6.4,20.7,6.3L20.7,6.3z M22.7,7.1c0,0.1,0,0.1,0.1,0.2
				c0.1,0,0.1,0,0.1-0.1c0-0.1,0-0.1-0.1-0.2C22.7,6.9,22.7,7,22.7,7.1L22.7,7.1z M22.1,6.3c0,0.1,0,0.1,0.1,0.2c0,0,0.1,0,0.1-0.1
				c0-0.1,0-0.1-0.1-0.2C22.1,6.2,22.1,6.2,22.1,6.3L22.1,6.3z M22.3,6.4c0-0.1,0.1-0.1,0.1-0.1c0,0,0.1,0.1,0,0.2
				c0,0.1-0.1,0.1-0.1,0.1C22.3,6.5,22.2,6.5,22.3,6.4L22.3,6.4z M22.7,6.1c0-0.1,0-0.1-0.1-0.1c-0.1,0-0.1,0.1-0.1,0.2
				c0,0.1,0,0.1,0.1,0.1C22.7,6.3,22.7,6.2,22.7,6.1L22.7,6.1z M20.5,8.3c0-0.1-0.1-0.1-0.1-0.1c-0.1,0-0.1,0.1-0.1,0.2
				c0,0.1,0,0.1,0.1,0.1C20.4,8.4,20.5,8.4,20.5,8.3L20.5,8.3z M19.1,8.9c0.1,0,0.1-0.1,0.1-0.1c0-0.1,0-0.1-0.1-0.1
				c0,0-0.1,0.1-0.1,0.2C19,8.9,19.1,8.9,19.1,8.9z"/>
			<g>
				<path class="st15" d="M24.1,6.6l0,0.3c0,0-0.1,0-0.1-0.1C23.9,6.7,23.9,6.7,24.1,6.6C24,6.6,24,6.6,24.1,6.6L24.1,6.6z
					 M23.4,8.3l-0.1,0l0,0c0,0-0.1-0.1,0-0.2c0-0.1,0.1-0.1,0.1,0C23.4,8.1,23.4,8.2,23.4,8.3C23.4,8.3,23.4,8.3,23.4,8.3L23.4,8.3z
					 M18.8,9.6l-0.2,0l0-0.1C18.7,9.5,18.8,9.5,18.8,9.6C18.8,9.6,18.8,9.6,18.8,9.6L18.8,9.6z M22.2,3.6l0.2,0.1c0,0,0,0-0.1,0.1
					C22.3,3.7,22.2,3.7,22.2,3.6C22.2,3.6,22.2,3.6,22.2,3.6L22.2,3.6z M24,6l0,0.3c0,0,0,0,0,0c-0.1,0-0.1-0.1-0.1-0.1
					C23.9,6,24,6,24,6L24,6z M20.2,3l0,0.2C20.2,3.1,20.2,3.1,20.2,3C20.2,3,20.2,3,20.2,3L20.2,3z M19.3,6.7L19.3,6.7
					c0,0.1,0,0.1,0,0.1c0,0.1,0.1,0.1,0.1,0c0,0,0.1-0.1,0-0.2C19.5,6.6,19.4,6.6,19.3,6.7C19.4,6.7,19.3,6.7,19.3,6.7L19.3,6.7z
					 M22.9,7.5c0-0.1,0-0.1-0.1-0.1c-0.1,0-0.1,0.1-0.1,0.2c0,0.1,0,0.1,0.1,0.1C22.9,7.6,22.9,7.6,22.9,7.5L22.9,7.5z M21.7,4.6
					c-0.1,0-0.1,0.1-0.1,0.2c0,0.1,0.1,0.1,0.1,0.1c0.1,0,0.1-0.1,0.1-0.2C21.8,4.7,21.8,4.6,21.7,4.6L21.7,4.6z M22,5.4
					c0-0.1-0.1-0.1-0.1-0.1c0,0-0.1,0.1-0.1,0.2c0,0.1,0.1,0.1,0.1,0.1C22,5.6,22,5.5,22,5.4L22,5.4z M22.6,5.7c0,0.1,0.1,0.1,0.1,0
					c0-0.1,0.1-0.1,0-0.2c0-0.1-0.1,0-0.1,0C22.5,5.6,22.5,5.7,22.6,5.7L22.6,5.7z M21.7,5.6C21.7,5.6,21.7,5.6,21.7,5.6
					c0.1-0.1,0.1-0.2,0-0.2c0,0-0.1,0-0.1,0C21.5,5.5,21.5,5.6,21.7,5.6C21.6,5.6,21.6,5.6,21.7,5.6c-0.1,0.1-0.1,0.1,0,0.2
					c0,0.1,0.1,0.1,0.1,0c0-0.1,0-0.1,0-0.2C21.7,5.6,21.7,5.6,21.7,5.6L21.7,5.6z M23.8,6.7c0,0,0.1-0.1,0-0.2c0-0.1-0.1-0.1-0.1,0
					c0,0-0.1,0.1,0,0.2C23.7,6.8,23.8,6.8,23.8,6.7L23.8,6.7z M23.8,7.5c0,0,0.1-0.1,0-0.2c0-0.1-0.1-0.1-0.1,0c0,0-0.1,0.1,0,0.2
					C23.7,7.5,23.7,7.6,23.8,7.5L23.8,7.5z M21.6,3.3c0,0-0.1,0.1,0,0.2c0,0.1,0.1,0.1,0.1,0c0,0,0.1-0.1,0-0.2
					C21.7,3.3,21.6,3.3,21.6,3.3L21.6,3.3z M22.2,6.9c0.1,0,0.1,0,0.1-0.1c0-0.1,0-0.1,0-0.2c0,0-0.1,0-0.1,0.1
					C22.1,6.8,22.1,6.9,22.2,6.9L22.2,6.9z M22.3,4.4c0-0.1,0-0.1,0-0.2c-0.1,0-0.1,0-0.1,0.1c0,0.1,0,0.2,0,0.2
					C22.2,4.5,22.3,4.5,22.3,4.4L22.3,4.4z M20,7c0-0.1-0.1-0.1-0.1-0.1c-0.1,0-0.1,0.1-0.1,0.2c0,0.1,0.1,0.1,0.1,0.1
					C20,7.1,20.1,7,20,7L20,7z M21.4,7.5c0-0.1,0-0.1,0-0.2c0,0-0.1,0-0.1,0.1c0,0.1,0,0.1,0,0.2C21.3,7.6,21.3,7.6,21.4,7.5
					L21.4,7.5z M21.8,7.8c0-0.1,0-0.2,0-0.2c0,0-0.1,0-0.1,0.1c0,0.1,0,0.1,0,0.2C21.7,7.9,21.8,7.9,21.8,7.8L21.8,7.8z M20.1,8.6
					c0-0.1,0-0.1-0.1-0.1c-0.1,0-0.1,0.1-0.1,0.1c0,0.1,0,0.1,0.1,0.1C20,8.7,20,8.7,20.1,8.6L20.1,8.6z M19.6,7.7
					c0.1,0,0.1-0.1,0-0.2c0-0.1-0.1-0.1-0.1,0c-0.1,0-0.1,0.1,0,0.2C19.5,7.8,19.6,7.8,19.6,7.7L19.6,7.7z M19.5,8.3
					c0,0-0.1,0.1,0,0.2c0,0.1,0.1,0.1,0.1,0c0,0,0.1-0.1,0-0.2C19.6,8.2,19.6,8.2,19.5,8.3L19.5,8.3z M19.8,9c0,0.1,0,0.1,0,0.2
					c0,0,0.1,0,0.1-0.1c0-0.1,0-0.2,0-0.2C19.9,8.9,19.8,8.9,19.8,9z"/>
				<path class="st15" d="M24.1,6.5L24.1,6.5C24,6.6,24,6.5,24.1,6.5C24,6.5,24.1,6.5,24.1,6.5L24.1,6.5L24.1,6.5z M23.9,7.8l0,0.3
					c0,0,0,0,0,0c-0.1,0-0.1-0.1-0.1-0.2C23.8,7.8,23.8,7.7,23.9,7.8L23.9,7.8L23.9,7.8z M20.8,2.8l0.1,0.1
					C20.9,2.9,20.9,2.9,20.8,2.8C20.8,2.8,20.8,2.8,20.8,2.8L20.8,2.8z M19,8.3l0,0.2c0,0,0,0,0,0c0,0,0.1,0,0.1,0
					c0-0.1,0-0.1,0-0.2C19.1,8.3,19,8.3,19,8.3L19,8.3z M21.2,4c0,0.1,0.1,0.1,0.1,0.1c0.1,0,0.1-0.1,0.1-0.2c0-0.1-0.1-0.1-0.1-0.1
					C21.2,3.9,21.2,4,21.2,4L21.2,4z M21.8,6.1c0,0-0.1,0.1-0.1,0.2c0,0.1,0.1,0.1,0.1,0.1c0.1,0,0.1-0.1,0.1-0.2
					C21.9,6.1,21.8,6.1,21.8,6.1L21.8,6.1z M20.4,3.3c0-0.1,0-0.1,0-0.2c0-0.1-0.1,0-0.1,0c0,0.1,0,0.1,0,0.2
					C20.3,3.4,20.4,3.4,20.4,3.3L20.4,3.3z M20.8,4C20.9,4,20.9,4,20.8,4C21,4,21,3.9,20.9,3.8c0-0.1-0.1-0.1-0.1,0
					C20.8,3.8,20.7,3.9,20.8,4C20.8,4,20.8,4,20.8,4c0,0-0.1,0-0.1,0c0,0.1,0,0.1,0,0.2c0,0.1,0.1,0,0.1,0C20.9,4.1,20.9,4.1,20.8,4
					L20.8,4z M21.3,6.1c0-0.1-0.1-0.1-0.1,0c-0.1,0-0.1,0.1,0,0.2c0,0.1,0.1,0.1,0.1,0C21.3,6.2,21.3,6.1,21.3,6.1L21.3,6.1z
					 M23.7,7c-0.1,0-0.1,0.1-0.1,0.2c0,0.1,0.1,0.1,0.1,0.1c0.1,0,0.1-0.1,0.1-0.2C23.8,7,23.8,7,23.7,7L23.7,7z M21.1,5.3
					c0,0-0.1,0-0.1,0c0,0.1,0,0.1,0,0.2c0.1,0,0.1,0,0.1,0C21.1,5.4,21.1,5.4,21.1,5.3L21.1,5.3z M20.7,6.2c0,0-0.1,0-0.1,0
					c0,0.1,0,0.1,0,0.2c0.1,0,0.1,0,0.1,0C20.7,6.4,20.7,6.3,20.7,6.2L20.7,6.2z M20.2,3.9c0-0.1-0.1-0.1-0.1,0c0,0-0.1,0.1,0,0.2
					c0,0.1,0.1,0.1,0.1,0C20.2,4.1,20.2,4,20.2,3.9L20.2,3.9z M22.7,4.2c0,0.1,0,0.1,0,0.2c0,0,0.1,0,0.1-0.1c0-0.1,0-0.1,0-0.2
					C22.8,4.1,22.7,4.2,22.7,4.2L22.7,4.2z M21.1,6.5c0-0.1-0.1-0.1-0.1-0.1c-0.1,0-0.1,0.1-0.1,0.2c0,0.1,0.1,0.1,0.1,0.1
					C21.1,6.7,21.2,6.6,21.1,6.5L21.1,6.5z M23.3,5.9c0,0.1,0,0.1,0,0.2c0,0,0.1,0,0.1,0c0-0.1,0-0.1,0-0.2
					C23.4,5.8,23.3,5.8,23.3,5.9L23.3,5.9z M20.4,8.2c0.1,0,0.1,0,0.1-0.1c0-0.1,0-0.1-0.1-0.1c-0.1,0-0.1,0-0.1,0.1
					C20.3,8.1,20.3,8.2,20.4,8.2L20.4,8.2z M20.4,4.7c0-0.1,0-0.1-0.1-0.2c-0.1,0-0.1,0-0.1,0.1c0,0.1,0,0.1,0.1,0.1
					C20.3,4.8,20.4,4.7,20.4,4.7z"/>
				<path class="st15" d="M23.1,8.4l-0.1,0c0,0,0,0,0,0c0,0-0.1-0.1,0-0.2c0-0.1,0.1-0.1,0.1-0.1C23.1,8.2,23.1,8.3,23.1,8.4
					C23.1,8.3,23.1,8.3,23.1,8.4L23.1,8.4z M21.4,8.9l-0.2,0.1c0,0,0-0.1,0-0.1c0-0.1,0.1-0.1,0.1,0C21.3,8.8,21.4,8.8,21.4,8.9
					L21.4,8.9z M20.2,3.1l-0.1,0.3c0.1,0,0.1,0,0.1-0.1C20.2,3.2,20.2,3.1,20.2,3.1L20.2,3.1z M19.9,4.4l0,0.2c0,0,0,0,0-0.1
					C19.9,4.5,19.9,4.5,19.9,4.4L19.9,4.4z M20.1,7.1c0,0.1,0.1,0.1,0.1,0c0,0,0.1-0.1,0-0.2c0-0.1-0.1-0.1-0.1,0
					C20.1,6.9,20.1,7,20.1,7.1L20.1,7.1z M20.7,5.8c0,0,0.1,0,0.1-0.1c0-0.1,0-0.2,0-0.2c0,0-0.1,0-0.1,0.1
					C20.7,5.6,20.7,5.7,20.7,5.8L20.7,5.8z M21.5,5c0,0,0.1,0,0.1-0.1c0-0.1,0-0.1,0-0.2c0,0-0.1,0-0.1,0.1
					C21.5,4.8,21.5,4.9,21.5,5L21.5,5z M20.6,4.8c0,0-0.1,0-0.1,0.1c0,0.1,0,0.1,0,0.2c0,0,0.1,0,0.1-0.1
					C20.6,4.9,20.6,4.8,20.6,4.8L20.6,4.8z M22.7,5.8c0,0-0.1,0.1-0.1,0.2c0,0.1,0.1,0.1,0.1,0.1c0,0,0.1-0.1,0.1-0.2
					C22.8,5.8,22.7,5.8,22.7,5.8L22.7,5.8z M20,5.7c0,0-0.1,0-0.1,0c0,0.1,0,0.1,0,0.2c0,0,0.1,0,0.1,0C20,5.8,20,5.7,20,5.7L20,5.7
					z M23.3,7.7c0,0.1,0,0.2,0,0.2c0,0,0.1,0,0.1,0c0-0.1,0-0.1,0-0.2C23.4,7.7,23.3,7.7,23.3,7.7L23.3,7.7z M22.4,5.6
					c0,0.1,0,0.1,0.1,0.1c0.1,0,0.1,0,0.1-0.1c0-0.1,0-0.1-0.1-0.2C22.5,5.5,22.4,5.5,22.4,5.6L22.4,5.6z M21.3,6.2
					c0,0.1,0,0.1,0.1,0.2c0.1,0,0.1,0,0.1-0.1c0-0.1,0-0.1-0.1-0.2C21.4,6,21.4,6.1,21.3,6.2L21.3,6.2z M21.9,6.9
					c-0.1,0-0.1,0-0.1,0.1c0,0.1,0,0.1,0.1,0.2C22,7.2,22,7.1,22,7C22,7,22,6.9,21.9,6.9L21.9,6.9z M20.4,4.4c0.1,0,0.1-0.1,0.1-0.1
					c0-0.1,0-0.1-0.1-0.1c-0.1,0-0.1,0.1-0.1,0.1C20.3,4.3,20.4,4.4,20.4,4.4L20.4,4.4z M22.3,7.3c0,0.1,0.1,0.1,0.1,0
					c0,0,0.1-0.1,0-0.2c0-0.1-0.1-0.1-0.1,0C22.3,7.2,22.3,7.3,22.3,7.3L22.3,7.3z M22.1,5.8c0-0.1-0.1-0.1-0.1,0c0,0-0.1,0.1,0,0.2
					c0,0.1,0.1,0.1,0.1,0C22.1,6,22.1,5.9,22.1,5.8L22.1,5.8z M21.8,7.7c0,0,0.1-0.1,0-0.2c0-0.1-0.1-0.1-0.1,0c0,0-0.1,0.1,0,0.2
					C21.7,7.7,21.7,7.8,21.8,7.7L21.8,7.7z M22.4,8c0-0.1-0.1-0.1-0.1-0.1c0,0-0.1,0.1-0.1,0.2c0,0.1,0.1,0.1,0.1,0.1
					C22.4,8.1,22.4,8,22.4,8L22.4,8z M23.5,5.4c0-0.1-0.1-0.1-0.1-0.1c-0.1,0-0.1,0.1-0.1,0.2c0,0.1,0.1,0.1,0.1,0.1
					C23.5,5.5,23.5,5.4,23.5,5.4z"/>
			</g>
		</g>
		<polygon class="st16" points="29.8,7.1 29.6,7.5 21.5,10.3 22.9,2.2 		"/>
		<g>
			<path class="st9" d="M28.9,7.8l-0.1,0c0,0,0,0,0-0.1C28.8,7.7,28.8,7.7,28.9,7.8L28.9,7.8z M26.3,8.7l-0.2,0.1c0,0,0,0,0,0
				C26.1,8.6,26.2,8.6,26.3,8.7C26.2,8.6,26.3,8.6,26.3,8.7L26.3,8.7z M24.3,9.3l-0.1,0c0,0,0,0,0-0.1c0-0.1,0-0.1,0.1-0.1
				C24.3,9.2,24.3,9.3,24.3,9.3C24.3,9.3,24.3,9.3,24.3,9.3L24.3,9.3z M28.5,6.2l0.1,0.1c0,0,0,0-0.1,0C28.6,6.4,28.5,6.3,28.5,6.2
				C28.5,6.2,28.5,6.2,28.5,6.2L28.5,6.2z M29.3,6.8L29.3,6.8C29.3,6.8,29.3,6.8,29.3,6.8C29.3,6.8,29.3,6.8,29.3,6.8L29.3,6.8z
				 M23,3.4L23,3.4C23,3.4,23,3.4,23,3.4C23,3.4,23,3.4,23,3.4L23,3.4z M24.3,4.6c0,0,0.1,0.1,0.1,0.1C24.4,4.6,24.4,4.6,24.3,4.6
				C24.3,4.5,24.3,4.6,24.3,4.6L24.3,4.6z M27.6,6.5c0,0,0.1-0.1,0.1-0.1c0-0.1-0.1-0.1-0.1-0.1C27.5,6.3,27.5,6.4,27.6,6.5
				C27.5,6.5,27.6,6.5,27.6,6.5L27.6,6.5z M24.9,8.7C24.9,8.8,24.9,8.8,24.9,8.7c0.1,0,0.2,0,0.2-0.1c0-0.1-0.1-0.1-0.1-0.1
				C24.9,8.6,24.9,8.7,24.9,8.7L24.9,8.7z M24.2,8.2c0-0.1,0-0.1,0-0.2c0,0-0.1,0-0.1,0c0,0.1,0,0.1,0,0.1
				C24.2,8.3,24.2,8.3,24.2,8.2L24.2,8.2z M26.3,7.4c0,0.1,0,0.1,0,0.2c0,0,0.1,0,0.1,0c0,0,0-0.1,0-0.2C26.3,7.3,26.3,7.4,26.3,7.4
				L26.3,7.4z M24.6,8.7C24.6,8.7,24.7,8.8,24.6,8.7c0.1,0,0.1-0.1,0.1-0.2c0,0-0.1,0-0.1,0C24.5,8.6,24.5,8.7,24.6,8.7
				C24.6,8.7,24.6,8.7,24.6,8.7c0,0-0.1,0-0.1,0c0,0,0,0.1,0,0.1c0,0,0.1,0,0.1,0C24.7,8.8,24.7,8.8,24.6,8.7L24.6,8.7z M27.9,6.3
				c0,0-0.1,0-0.1,0c0,0,0,0.1,0,0.2c0,0,0.1,0,0.1,0C27.9,6.4,27.9,6.3,27.9,6.3L27.9,6.3z M23.7,3.8c0,0,0.1,0,0.1,0
				c0,0,0-0.1,0-0.2c0,0-0.1,0-0.1,0C23.7,3.7,23.7,3.8,23.7,3.8L23.7,3.8z M25.7,7.5c0-0.1,0-0.1-0.1-0.1c0,0-0.1,0-0.1,0.1
				c0,0.1,0,0.1,0.1,0.1C25.6,7.6,25.7,7.6,25.7,7.5L25.7,7.5z M26,4.8c0-0.1,0-0.1-0.1-0.1c0,0-0.1,0-0.1,0.1c0,0.1,0,0.1,0.1,0.1
				C26,4.9,26,4.9,26,4.8L26,4.8z M29.4,7.3c0,0-0.1,0-0.1,0c0-0.1,0-0.1-0.1-0.1c0,0-0.1,0-0.1,0.1c0,0.1,0,0.1,0.1,0.1
				c0,0,0.1,0,0.1-0.1c0,0,0,0.1,0,0.1c0,0,0.1,0,0.1,0C29.4,7.4,29.4,7.3,29.4,7.3L29.4,7.3z M28.2,7.2c0-0.1,0-0.1-0.1-0.1
				c0,0-0.1,0-0.1,0.1C28,7.2,28.1,7.3,28.2,7.2C28.2,7.3,28.2,7.2,28.2,7.2L28.2,7.2z M26.4,5.5C26.3,5.4,26.3,5.4,26.4,5.5
				c-0.1-0.1-0.1-0.1-0.1,0c0,0.1,0,0.1,0.1,0.1C26.3,5.6,26.3,5.6,26.4,5.5c0,0.1,0,0.1,0,0.1c0,0,0.1,0.1,0.1,0c0,0,0-0.1,0-0.2
				C26.4,5.4,26.4,5.4,26.4,5.5C26.4,5.4,26.4,5.5,26.4,5.5L26.4,5.5z M24.5,6.6c0,0,0,0.1,0,0.2c0,0,0.1,0.1,0.1,0
				c0,0,0.1-0.1,0-0.1C24.6,6.5,24.6,6.5,24.5,6.6L24.5,6.6z M26.7,5.8c0,0-0.1-0.1-0.1,0c0,0,0,0.1,0,0.2c0,0.1,0.1,0.1,0.1,0
				C26.7,5.9,26.7,5.8,26.7,5.8L26.7,5.8z M27.1,7.6c0-0.1,0-0.1,0-0.1c0,0-0.1,0-0.1,0.1c0,0.1,0,0.1,0,0.1
				C27.1,7.7,27.1,7.7,27.1,7.6L27.1,7.6z M28.9,6.9c0-0.1,0-0.1,0-0.1c0,0-0.1,0-0.1,0.1c0,0.1,0,0.1,0,0.1C28.8,7,28.9,7,28.9,6.9
				L28.9,6.9z M27.1,6.3c0,0-0.1,0-0.1,0.1c0,0.1,0,0.1,0,0.1c0,0,0.1,0,0.1-0.1C27.1,6.4,27.1,6.3,27.1,6.3L27.1,6.3z M24.1,8.7
				c0,0-0.1,0-0.1,0c0,0,0,0.1,0,0.2c0,0,0.1,0,0.1,0C24.1,8.9,24.1,8.8,24.1,8.7L24.1,8.7z M26.2,7c0,0-0.1,0-0.1,0
				c0,0,0,0.1,0,0.2c0,0,0.1,0,0.1,0C26.3,7.1,26.3,7.1,26.2,7L26.2,7z M24.3,6.8c0,0-0.1,0-0.1,0c0,0,0,0.1,0,0.2c0,0,0.1,0,0.1,0
				C24.4,6.9,24.4,6.9,24.3,6.8L24.3,6.8z M26.1,5.5c0,0-0.1,0-0.1,0c0,0,0,0.1,0,0.2c0,0,0.1,0,0.1,0C26.1,5.6,26.1,5.6,26.1,5.5
				L26.1,5.5z M28,7.5c0-0.1,0-0.1-0.1-0.1c0,0-0.1,0-0.1,0.1C27.8,7.5,27.9,7.6,28,7.5C27.9,7.6,28,7.5,28,7.5L28,7.5z M27.4,6.1
				c0,0.1,0,0.1,0.1,0.1c0,0,0.1,0,0.1-0.1C27.5,6.1,27.5,6,27.4,6.1C27.4,6,27.4,6.1,27.4,6.1L27.4,6.1z M27.1,5.5
				c0-0.1,0-0.1-0.1-0.1c0,0-0.1,0-0.1,0.1C27,5.6,27,5.6,27.1,5.5C27.1,5.6,27.1,5.6,27.1,5.5L27.1,5.5z M24.7,7.8
				c0-0.1,0-0.1,0-0.1c0,0-0.1,0-0.1,0.1c0,0.1,0,0.1,0,0.1C24.6,7.8,24.6,7.8,24.7,7.8L24.7,7.8z M28.3,7.4c0,0-0.1,0-0.1,0.1
				c0,0.1,0,0.1,0,0.1c0,0,0.1,0,0.1-0.1C28.4,7.5,28.4,7.4,28.3,7.4L28.3,7.4z M23,3c0,0,0.1,0,0.1-0.1c0-0.1,0-0.1,0-0.1
				c0,0-0.1,0-0.1,0.1C22.9,2.9,22.9,3,23,3L23,3z M27,5.6c0,0.1,0,0.1-0.1,0.1c0,0-0.1,0-0.1-0.1C26.8,5.6,26.8,5.5,27,5.6
				C26.9,5.5,27,5.5,27,5.6L27,5.6z M25.9,5.1C25.9,5,25.8,5,25.9,5.1c-0.1,0-0.2,0-0.1,0.1c0,0.1,0.1,0.1,0.1,0.1
				C25.9,5.2,25.9,5.1,25.9,5.1L25.9,5.1z M25.5,4.7C25.5,4.7,25.5,4.8,25.5,4.7c0.1,0,0.2,0,0.2-0.1c0-0.1,0-0.1-0.1-0.1
				C25.5,4.6,25.5,4.6,25.5,4.7L25.5,4.7z M25.7,7.9c0,0.1,0,0.1,0,0.1c0,0,0.1,0,0.1,0c0-0.1,0-0.1,0-0.1
				C25.8,7.9,25.8,7.9,25.7,7.9L25.7,7.9z M25.9,8.1C25.9,8,25.9,8,26,8c0,0,0.1,0.1,0,0.1c0,0.1-0.1,0.1-0.1,0
				C25.9,8.2,25.8,8.1,25.9,8.1L25.9,8.1z M28.4,7.1c0,0-0.1,0-0.1,0c0,0.1,0,0.1,0,0.1c0,0,0.1,0,0.1,0C28.4,7.2,28.4,7.1,28.4,7.1
				L28.4,7.1z M26.2,7.9c0-0.1,0-0.1-0.1-0.1c0,0-0.1,0.1-0.1,0.1c0,0.1,0,0.1,0.1,0.1C26.2,8,26.2,8,26.2,7.9L26.2,7.9z M23.2,9.6
				c0,0,0.1,0,0.1-0.1c0-0.1,0-0.1-0.1-0.1c0,0-0.1,0-0.1,0.1C23.1,9.6,23.2,9.6,23.2,9.6L23.2,9.6z M25.1,4.7c0-0.1,0-0.1-0.1-0.1
				c0,0-0.1,0-0.1,0.1c0,0.1,0,0.1,0.1,0.1C25.1,4.9,25.1,4.8,25.1,4.7z"/>
			<g>
				<path class="st9" d="M28.9,7.7l-0.1,0c0,0,0-0.1,0-0.1c0-0.1,0.1-0.1,0.1-0.1C28.9,7.6,28.9,7.6,28.9,7.7
					C28.9,7.7,28.9,7.7,28.9,7.7L28.9,7.7z M27.9,8.1l-0.2,0.1c0,0,0,0,0,0C27.7,8.1,27.7,8,27.9,8.1C27.8,8,27.9,8,27.9,8.1
					L27.9,8.1L27.9,8.1z M27.1,8.4L27.1,8.4C27,8.4,27,8.4,27.1,8.4C27,8.4,27.1,8.4,27.1,8.4L27.1,8.4z M23.9,9.5l-0.2,0.1
					c0,0,0,0,0,0C23.8,9.4,23.8,9.4,23.9,9.5C23.9,9.4,23.9,9.4,23.9,9.5L23.9,9.5z M22.9,2.7l0-0.2c0,0,0,0,0.1,0c0,0,0,0.1,0,0.1
					C22.9,2.7,22.9,2.7,22.9,2.7L22.9,2.7z M25.5,4.1l0.1,0.1C25.6,4.2,25.6,4.2,25.5,4.1C25.5,4.1,25.5,4.1,25.5,4.1L25.5,4.1z
					 M26.5,4.8l0.1,0.1c0,0,0,0.1,0,0.1c0,0-0.1,0-0.1,0C26.4,4.9,26.4,4.8,26.5,4.8C26.5,4.8,26.5,4.8,26.5,4.8L26.5,4.8z
					 M27.2,5.3l0.1,0.1C27.3,5.3,27.3,5.3,27.2,5.3C27.2,5.3,27.2,5.3,27.2,5.3L27.2,5.3L27.2,5.3z M29.2,6.7l0.1,0.1
					c0,0,0,0.1,0,0.1c0,0-0.1,0-0.1,0C29.1,6.8,29.1,6.7,29.2,6.7L29.2,6.7z M24.5,5l0,0.1C24.5,5.1,24.5,5.1,24.5,5
					C24.5,5.1,24.5,5,24.5,5L24.5,5z M23.5,7.9L23.5,7.9C23.5,7.9,23.5,8,23.5,7.9c0,0.2,0.1,0.2,0.1,0.1c0,0,0.1-0.1,0-0.1
					C23.7,7.8,23.6,7.8,23.5,7.9C23.6,7.8,23.5,7.9,23.5,7.9L23.5,7.9z M28.6,7.6c0,0,0-0.1,0-0.1h0c0,0,0.1-0.1,0.1-0.1
					c0-0.1-0.1-0.1-0.1-0.1c0,0-0.1,0.1-0.1,0.1c0,0,0,0,0,0.1c0,0-0.1,0-0.1,0.1c0,0.1,0,0.1,0,0.1C28.5,7.7,28.6,7.7,28.6,7.6
					L28.6,7.6z M28.6,6.8c0,0,0.1,0,0.1,0c0,0,0-0.1,0-0.1c0,0,0.1,0,0.1,0c0,0,0.1-0.1,0-0.1c0-0.1-0.1-0.1-0.1,0
					c0,0-0.1,0.1,0,0.1c0,0-0.1,0-0.1,0C28.6,6.7,28.6,6.8,28.6,6.8L28.6,6.8z M27.9,6.7c0,0,0.1,0,0.1,0c0-0.1,0-0.1,0-0.2
					c0,0-0.1,0-0.1,0C27.8,6.6,27.8,6.7,27.9,6.7L27.9,6.7z M28.9,7.5c0,0,0-0.1,0-0.2c0,0-0.1,0-0.1,0c0,0,0,0,0,0c0,0-0.1,0-0.1,0
					c0,0,0,0.1,0,0.2c0,0,0.1,0,0.1,0c0,0,0,0,0-0.1C28.9,7.5,28.9,7.5,28.9,7.5L28.9,7.5z M26.3,5.9c0,0,0.1-0.1,0.1-0.1
					c0-0.1,0-0.1-0.1-0.1c0,0,0,0,0-0.1c0-0.1-0.1-0.1-0.1-0.1c0,0-0.1,0.1,0,0.1c0,0,0,0,0.1,0c0,0,0,0,0,0
					C26.3,5.9,26.3,5.9,26.3,5.9L26.3,5.9z M25.6,6.6c0,0-0.1,0.1-0.1,0.1c0,0.1,0,0.1,0.1,0.1c0,0,0.1-0.1,0.1-0.1
					C25.7,6.6,25.6,6.6,25.6,6.6L25.6,6.6z M26.2,5.8c0,0.1,0,0.1-0.1,0.1c0,0-0.1,0-0.1-0.1c0-0.1,0-0.1,0.1-0.1
					C26.2,5.7,26.2,5.8,26.2,5.8L26.2,5.8z M24.2,4c0-0.1-0.1-0.1-0.1,0c0,0-0.1,0.1,0,0.1c0,0.1,0.1,0.1,0.1,0
					C24.2,4.1,24.2,4.1,24.2,4L24.2,4z M25.8,7.3C25.7,7.2,25.7,7.2,25.8,7.3c-0.1-0.1-0.2,0-0.2,0c0,0.1,0,0.1,0.1,0.1
					C25.7,7.4,25.8,7.3,25.8,7.3L25.8,7.3z M27.3,6.1c0,0,0-0.1,0-0.2c0,0-0.1,0-0.1,0c0,0,0,0.1,0,0.2C27.2,6.1,27.3,6.1,27.3,6.1
					L27.3,6.1z M26.2,7.6c0,0.1,0.1,0.1,0.1,0c0,0,0.1-0.1,0-0.1c0,0-0.1-0.1-0.1,0C26.2,7.4,26.1,7.5,26.2,7.6L26.2,7.6z M25.5,7.3
					C25.5,7.3,25.5,7.4,25.5,7.3c0.1-0.1,0.1-0.1,0-0.2c0,0-0.1,0-0.1,0C25.4,7.2,25.4,7.3,25.5,7.3C25.4,7.4,25.4,7.3,25.5,7.3
					c-0.1,0-0.1,0.1,0,0.1c0,0,0.1,0.1,0.1,0C25.6,7.5,25.6,7.4,25.5,7.3C25.5,7.3,25.5,7.3,25.5,7.3L25.5,7.3z M27.3,8
					C27.2,8,27.2,8,27.3,8c-0.1,0.1-0.1,0.2,0,0.2c0,0,0.1,0,0.1-0.1C27.4,8.1,27.3,8,27.3,8L27.3,8z M27.5,6.5c0-0.1,0-0.1-0.1-0.1
					c0,0-0.1,0-0.1,0.1c0,0.1,0,0.1,0.1,0.1C27.4,6.6,27.4,6.6,27.5,6.5L27.5,6.5z M25.6,5.5c0,0-0.1,0.1,0,0.1c0,0.1,0.1,0.1,0.1,0
					c0,0,0.1-0.1,0-0.1C25.7,5.5,25.6,5.5,25.6,5.5L25.6,5.5z M28.6,6.5c0,0-0.1,0-0.1,0c0-0.1,0-0.1,0-0.1c0,0,0.1,0,0.1,0
					C28.6,6.4,28.6,6.5,28.6,6.5L28.6,6.5z M27.7,7.1c0-0.1,0-0.1,0-0.2c0,0-0.1,0-0.1,0c0,0.1,0,0.1,0,0.2
					C27.6,7.2,27.6,7.1,27.7,7.1L27.7,7.1z M23.9,3.2c0-0.1,0-0.1,0-0.2c0,0-0.1,0-0.1,0c0,0.1,0,0.1,0,0.1
					C23.8,3.3,23.8,3.2,23.9,3.2L23.9,3.2z M25.7,8.5c0,0,0.1,0,0.1,0c0,0,0-0.1,0-0.2c0,0-0.1,0-0.1,0C25.7,8.4,25.7,8.5,25.7,8.5
					L25.7,8.5z M28.2,7.8c0-0.1,0-0.1,0-0.2c0,0-0.1,0-0.1,0c0,0.1,0,0.1,0,0.1C28.1,7.8,28.2,7.8,28.2,7.8L28.2,7.8z M26.1,6.5
					c0,0,0-0.1,0-0.1c0,0-0.1,0-0.1,0c0,0,0,0.1,0,0.2C26,6.5,26,6.5,26.1,6.5L26.1,6.5z M24.1,8.2C24.1,8.1,24,8.1,24.1,8.2
					c-0.1-0.1-0.2,0-0.2,0c0,0.1,0.1,0.1,0.1,0.1C24,8.3,24.1,8.3,24.1,8.2L24.1,8.2z M25.1,8.8c0,0,0-0.1,0-0.2c0,0-0.1,0-0.1,0
					c0,0,0,0.1,0,0.1C25,8.9,25,8.9,25.1,8.8L25.1,8.8z M23.7,8.7c0,0,0.1-0.1,0-0.1c0-0.1-0.1-0.1-0.1,0c0,0-0.1,0.1,0,0.1
					C23.6,8.7,23.6,8.8,23.7,8.7L23.7,8.7z M23.6,9.2c0,0-0.1,0.1,0,0.1c0,0.1,0.1,0.1,0.1,0c0,0,0.1-0.1,0-0.1
					C23.7,9.2,23.6,9.1,23.6,9.2z"/>
				<path class="st9" d="M29.8,7.1L29.8,7.1L29.8,7.1C29.7,7.2,29.7,7.1,29.8,7.1L29.8,7.1L29.8,7.1z M24.5,3.3l0.1,0.1
					c0,0.1-0.1,0.1-0.1,0.1C24.5,3.5,24.5,3.4,24.5,3.3C24.5,3.3,24.5,3.3,24.5,3.3L24.5,3.3z M25.2,3.8l0.1,0.1c0,0,0,0,0,0
					C25.3,4,25.2,4,25.2,3.8C25.2,3.9,25.2,3.9,25.2,3.8L25.2,3.8z M26.6,4.9L26.8,5l0,0C26.7,5,26.7,5,26.6,4.9
					C26.6,4.9,26.6,4.9,26.6,4.9L26.6,4.9z M29,6.6L29,6.6C29,6.6,29,6.6,29,6.6L29,6.6z M23.1,9.1l0,0.1c0,0,0,0,0,0
					c0,0,0.1,0,0.1,0C23.2,9.3,23.2,9.2,23.1,9.1C23.2,9.1,23.1,9.1,23.1,9.1L23.1,9.1z M25.2,6c0,0.1,0,0.1,0.1,0.1
					c0,0,0.1-0.1,0.1-0.1c0-0.1,0-0.1-0.1-0.1C25.2,5.9,25.2,5.9,25.2,6L25.2,6z M25.5,7.8c0,0-0.1,0.1-0.1,0.1c0,0.1,0,0.1,0.1,0.1
					C25.6,8,25.6,7.9,25.5,7.8C25.6,7.8,25.6,7.8,25.5,7.8L25.5,7.8z M24.7,5.3c0,0,0-0.1,0-0.2c0,0-0.1,0-0.1,0c0,0,0,0.1,0,0.2
					C24.6,5.3,24.6,5.3,24.7,5.3L24.7,5.3z M26.7,5.2c0,0,0,0.1,0,0.2c0,0,0.1,0,0.1,0c0,0,0-0.1,0-0.2C26.8,5.2,26.8,5.2,26.7,5.2
					L26.7,5.2z M24.9,5.9C25,5.9,25,6,24.9,5.9c0.1,0,0.1-0.1,0.1-0.1c0-0.1-0.1-0.1-0.1,0C24.9,5.8,24.9,5.9,24.9,5.9
					C24.9,5.9,24.9,5.9,24.9,5.9c0,0-0.1-0.1-0.1,0c0,0,0,0.1,0,0.2c0,0,0.1,0,0.1,0C25,6,25,6,24.9,5.9L24.9,5.9z M25.1,7.7
					c0-0.1-0.1-0.1-0.1,0c0,0-0.1,0.1,0,0.1c0,0,0.1,0.1,0.1,0C25.1,7.8,25.1,7.7,25.1,7.7L25.1,7.7z M28.4,6.8c0-0.1-0.1-0.1-0.1,0
					c0,0-0.1,0.1,0,0.1c0,0.1,0.1,0.1,0.1,0C28.4,6.9,28.4,6.8,28.4,6.8L28.4,6.8z M26.2,5.1c0-0.1,0-0.1,0-0.1C26.1,5,26,5,26,5
					c0,0.1,0,0.1,0,0.1C26.1,5.2,26.1,5.2,26.2,5.1L26.2,5.1z M27.6,7.9c0,0,0.1-0.1,0-0.1c0,0,0-0.1-0.1-0.1c0,0,0,0,0-0.1
					c0,0-0.1,0-0.1,0c0,0,0,0.1,0,0.2c0,0,0,0,0.1,0c0,0,0,0,0,0C27.5,7.9,27.5,7.9,27.6,7.9L27.6,7.9z M27.4,7.8c0,0.1,0,0.1,0,0.1
					c0,0-0.1,0-0.1-0.1C27.3,7.9,27.3,7.8,27.4,7.8C27.4,7.8,27.4,7.8,27.4,7.8L27.4,7.8z M25,7c0,0-0.1,0-0.1,0c0,0,0,0.1,0,0.1
					c0,0,0.1,0,0.1,0C25.1,7.1,25.1,7.1,25,7L25,7z M27.5,5.7c0,0,0-0.1,0-0.1c0,0-0.1,0-0.1,0c0,0,0,0.1,0,0.2
					C27.4,5.8,27.5,5.7,27.5,5.7L27.5,5.7z M24.6,7.7c0,0-0.1,0-0.1,0c0,0,0,0.1,0,0.1c0,0,0.1,0,0.1,0C24.7,7.8,24.7,7.7,24.6,7.7
					L24.6,7.7z M24.5,5.8c0-0.1-0.1-0.1-0.1,0c0,0-0.1,0.1,0,0.1c0,0.1,0.1,0.1,0.1,0C24.4,5.9,24.5,5.8,24.5,5.8L24.5,5.8z
					 M23.5,3.5c0,0.1,0.1,0.1,0.1,0c0,0,0.1-0.1,0-0.1c0-0.1-0.1-0.1-0.1,0C23.5,3.4,23.5,3.4,23.5,3.5L23.5,3.5z M25,3.9
					c0-0.1-0.1-0.1-0.1,0c0,0-0.1,0.1,0,0.1c0,0.1,0.1,0.1,0.1,0C25,4.1,25.1,4,25,3.9L25,3.9z M27.6,6.9c0-0.1,0-0.1,0-0.1
					c0,0-0.1,0-0.1,0.1c0,0.1,0,0.1,0,0.1C27.5,6.9,27.6,6.9,27.6,6.9L27.6,6.9z M28.5,7.6c0-0.1,0-0.1,0-0.1c0,0-0.1,0-0.1,0.1
					c0,0.1,0,0.1,0,0.1C28.5,7.7,28.5,7.7,28.5,7.6L28.5,7.6z M25.1,5c0,0,0-0.1,0-0.2c0,0-0.1,0-0.1,0C25,4.9,25,5,25,5
					C25.1,5,25.1,5,25.1,5L25.1,5z M26.4,6.4c0,0.1,0,0.1,0,0.1c0,0,0.1,0,0.1,0c0-0.1,0-0.1,0-0.1C26.4,6.3,26.4,6.3,26.4,6.4
					L26.4,6.4z M25,8c0-0.1,0-0.1-0.1-0.1c-0.1,0-0.1,0.1-0.1,0.1c0,0.1,0,0.1,0.1,0.1C24.9,8.1,25,8.1,25,8L25,8z M24,4
					C24,4.1,24,4.1,24,4c0.1,0.1,0.2,0,0.2,0c0-0.1,0-0.1-0.1-0.1C24,3.9,24,4,24,4L24,4z M26.7,7.8c0,0,0,0.1,0,0.2
					c0,0,0.1,0,0.1,0c0,0,0-0.1,0-0.2C26.8,7.8,26.8,7.8,26.7,7.8L26.7,7.8z M26.1,5.5c0,0,0,0.1,0,0.2c0,0,0.1,0,0.1,0
					c0,0,0-0.1,0-0.2C26.2,5.5,26.2,5.5,26.1,5.5L26.1,5.5z M26.2,5.7c0,0,0.1,0,0.1,0c0,0,0,0.1,0,0.2c0,0-0.1,0-0.1,0
					C26.2,5.8,26.2,5.8,26.2,5.7L26.2,5.7z M26.6,5.7c0-0.1,0-0.1,0-0.1c0,0-0.1,0-0.1,0.1C26.5,5.7,26.5,5.8,26.6,5.7
					C26.6,5.8,26.6,5.8,26.6,5.7L26.6,5.7z M24.2,9.2C24.3,9.3,24.3,9.2,24.2,9.2c0.1-0.1,0.1-0.2,0-0.2c0,0-0.1,0-0.1,0.1
					C24.2,9.2,24.2,9.2,24.2,9.2L24.2,9.2z M24.5,6.4c0-0.1,0-0.1,0-0.1c0,0-0.1,0-0.1,0.1C24.4,6.4,24.4,6.5,24.5,6.4
					C24.5,6.5,24.5,6.5,24.5,6.4z"/>
				<path class="st9" d="M29,7.7L29,7.7C28.9,7.7,28.9,7.7,29,7.7C29,7.7,29,7.7,29,7.7L29,7.7z M28.4,7.9l-0.1,0c0,0,0,0,0,0
					c0,0,0,0,0,0l-0.1,0c0,0,0,0,0-0.1c0-0.1,0-0.1,0.1-0.1c0,0,0.1,0,0.1,0.1c0,0,0,0,0,0C28.3,7.8,28.3,7.8,28.4,7.9
					C28.4,7.9,28.4,7.9,28.4,7.9L28.4,7.9z M28,8l-0.2,0.1c0,0,0-0.1,0-0.1C27.9,8,28,8,28,8C28,8,28,8,28,8L28,8z M26,8.8l-0.2,0.1
					c0,0,0-0.1,0-0.1C25.9,8.7,26,8.7,26,8.8C26,8.7,26,8.8,26,8.8L26,8.8z M25.4,9L25.3,9c0-0.1,0-0.1,0-0.1
					C25.3,8.8,25.4,8.9,25.4,9C25.4,8.9,25.4,8.9,25.4,9L25.4,9z M24.4,3.2l0.1,0.1c0,0,0,0,0,0c0,0.1-0.1,0.1-0.1,0.1
					C24.4,3.4,24.4,3.3,24.4,3.2C24.4,3.2,24.4,3.2,24.4,3.2L24.4,3.2z M27.6,5.5L27.6,5.5C27.6,5.6,27.6,5.6,27.6,5.5L27.6,5.5z
					 M28.6,6.3l0.1,0.1c0,0,0,0.1-0.1,0.1c0,0-0.1,0-0.1,0C28.6,6.4,28.6,6.4,28.6,6.3L28.6,6.3z M28.9,6.5L29,6.6
					C29,6.6,28.9,6.6,28.9,6.5C28.9,6.5,28.9,6.5,28.9,6.5L28.9,6.5z M24.5,5.1l-0.1,0.2c0,0,0.1,0,0.1-0.1
					C24.5,5.2,24.5,5.1,24.5,5.1L24.5,5.1z M24.1,6.1l0,0.1c0,0,0,0,0,0C24.1,6.2,24.1,6.2,24.1,6.1L24.1,6.1z M24.1,8.3
					C24.1,8.3,24.2,8.4,24.1,8.3c0.1,0,0.2,0,0.1-0.1c0-0.1-0.1-0.1-0.1,0C24.1,8.2,24.1,8.2,24.1,8.3L24.1,8.3z M26.6,4.9
					c0,0-0.1,0-0.1,0.1c0,0.1,0,0.1,0,0.1c0,0,0.1,0,0.1-0.1C26.6,4.9,26.6,4.9,26.6,4.9L26.6,4.9z M27.6,6.5c0,0.1,0,0.1,0,0.1
					c0,0,0.1,0,0.1-0.1c0-0.1,0-0.1,0-0.1C27.7,6.4,27.6,6.5,27.6,6.5L27.6,6.5z M24.7,7.3c0,0,0.1,0,0.1,0c0,0,0-0.1,0-0.2
					c0,0-0.1,0-0.1,0C24.7,7.2,24.7,7.3,24.7,7.3L24.7,7.3z M25.4,6.8c0,0,0.1,0,0.1,0c0,0,0-0.1,0-0.1c0,0-0.1,0-0.1,0
					C25.4,6.7,25.4,6.8,25.4,6.8L25.4,6.8z M24.7,6.5c0,0-0.1,0-0.1,0c0,0.1,0,0.1,0,0.2c0,0,0.1,0,0.1,0
					C24.7,6.6,24.7,6.6,24.7,6.5L24.7,6.5z M27.4,6C27.3,5.9,27.3,5.9,27.4,6c-0.1-0.1-0.2,0-0.2,0c0,0.1,0,0.1,0.1,0.1
					C27.3,6.1,27.3,6.1,27.4,6L27.4,6z M27.8,7.3c0-0.1,0-0.1-0.1-0.1c0,0-0.1,0.1-0.1,0.1c0,0.1,0,0.1,0.1,0.1
					C27.8,7.4,27.8,7.4,27.8,7.3L27.8,7.3z M24.7,4.4c0,0.1,0,0.1,0.1,0.1c0,0,0.1-0.1,0.1-0.1c0-0.1,0-0.1-0.1-0.1
					C24.7,4.3,24.7,4.4,24.7,4.4L24.7,4.4z M26.2,7.7c0,0-0.1,0.1-0.1,0.1c0,0.1,0,0.1,0.1,0.1C26.3,7.9,26.3,7.8,26.2,7.7
					C26.3,7.7,26.3,7.7,26.2,7.7L26.2,7.7z M24.1,7.2c0,0-0.1,0-0.1,0c0,0,0,0.1,0,0.2c0,0,0.1,0,0.1,0C24.1,7.3,24.1,7.2,24.1,7.2
					L24.1,7.2z M26.1,7.5c0,0.1,0,0.1,0,0.1c0,0,0.1,0,0.1-0.1c0-0.1,0-0.1,0-0.1C26.1,7.4,26.1,7.4,26.1,7.5L26.1,7.5z M25.2,7.8
					c0,0.1,0,0.1,0,0.1c0,0,0.1,0,0.1-0.1C25.3,7.8,25.3,7.7,25.2,7.8C25.2,7.7,25.2,7.7,25.2,7.8L25.2,7.8z M25.6,8.4
					C25.5,8.4,25.5,8.4,25.6,8.4c-0.1,0.1-0.1,0.2,0,0.2c0,0,0.1,0,0.1-0.1C25.6,8.5,25.6,8.4,25.6,8.4L25.6,8.4z M25.7,5.2
					c0,0,0.1-0.1,0.1-0.1c0-0.1,0-0.1-0.1-0.1c0,0-0.1,0.1-0.1,0.1C25.6,5.2,25.7,5.2,25.7,5.2L25.7,5.2z M26,5.1c0,0-0.1,0-0.1,0.1
					c0,0.1,0,0.1,0.1,0.1c0,0,0.1,0,0.1-0.1C26.1,5.2,26.1,5.1,26,5.1L26,5.1z M25.4,4.3c0,0,0.1,0,0.1-0.1c0-0.1,0-0.1-0.1-0.1
					c0,0-0.1,0-0.1,0.1C25.3,4.3,25.4,4.3,25.4,4.3L25.4,4.3z M24.6,6.2C24.6,6.2,24.7,6.1,24.6,6.2C24.7,6,24.7,6,24.6,6
					c0,0-0.1,0-0.1,0.1C24.5,6.1,24.5,6.2,24.6,6.2L24.6,6.2z M25.8,7.6c0-0.1-0.1-0.1-0.1,0c0,0-0.1,0.1,0,0.1c0,0.1,0.1,0.1,0.1,0
					C25.8,7.7,25.8,7.6,25.8,7.6L25.8,7.6z M27.8,7.6c0,0-0.1-0.1-0.1,0c0,0-0.1,0.1,0,0.1c0,0.1,0.1,0.1,0.1,0
					C27.8,7.7,27.8,7.6,27.8,7.6L27.8,7.6z M27.3,7.3c0,0.1,0.1,0.1,0.1,0c0,0,0.1-0.1,0-0.1c0-0.1-0.1-0.1-0.1,0
					C27.3,7.2,27.3,7.2,27.3,7.3L27.3,7.3z M27.8,6.7c0-0.1,0.1-0.1,0.1-0.1c0,0,0.1,0.1,0,0.1c0,0.1-0.1,0.1-0.1,0.1
					C27.8,6.8,27.7,6.7,27.8,6.7L27.8,6.7z M28.1,6.4c0,0,0.1,0,0.1-0.1c0-0.1,0-0.1,0-0.1c0,0-0.1,0-0.1,0.1
					C28,6.3,28.1,6.4,28.1,6.4L28.1,6.4z M26.9,7.4C26.9,7.4,26.9,7.3,26.9,7.4c-0.1-0.1-0.2,0-0.2,0c0,0.1,0,0.1,0.1,0.1
					C26.9,7.5,26.9,7.5,26.9,7.4L26.9,7.4z M26.4,5.5c0,0-0.1,0.1-0.1,0.1c0,0.1,0,0.1,0.1,0.1C26.4,5.7,26.5,5.6,26.4,5.5
					C26.5,5.5,26.4,5.5,26.4,5.5z"/>
			</g>
		</g>
	</g>
</g>
</svg>
