<?xml version="1.0" encoding="utf-8"?>
<!-- Generator: Adobe Illustrator 24.0.3, SVG Export Plug-In . SVG Version: 6.00 Build 0)  -->
<svg version="1.1" id="Layer_1" xmlns="http://www.w3.org/2000/svg" xmlns:xlink="http://www.w3.org/1999/xlink" x="0px" y="0px"
	 viewBox="0 0 98.8 92.5" style="enable-background:new 0 0 98.8 92.5;" xml:space="preserve">
<style type="text/css">
	.st0{fill:#6BBE45;}
</style>
<g>
	<path class="st0" d="M49.4,56.2c-5.5,0-9.9-4.4-9.9-9.9c0-5.5,4.4-9.9,9.9-9.9s9.9,4.4,9.9,9.9C59.3,51.7,54.9,56.2,49.4,56.2z
		 M49.4,38.2c-4.4,0-8,3.6-8,8s3.6,8,8,8c4.4,0,8-3.6,8-8S53.8,38.2,49.4,38.2z"/>
	<path class="st0" d="M49.4,75.5l-8.5-14.6l-16.9,0l8.5-14.6L24,31.6l16.9,0L49.4,17l8.5,14.6l16.9,0l-8.5,14.6l8.5,14.6l-16.9,0
		L49.4,75.5z M27.3,59L42,59l7.4,12.7L56.7,59l14.7,0l-7.4-12.7l7.4-12.7l-14.7,0l-7.4-12.7L42,33.5l-14.7,0l7.4,12.7L27.3,59z"/>
	<path class="st0" d="M38.3,28H25.4c-0.5,0-1-0.4-1-1c0-0.5,0.4-1,1-1h12.4l7.1-10.2c0.3-0.4,0.9-0.5,1.3-0.2
		c0.4,0.3,0.5,0.9,0.2,1.3l-7.3,10.6C38.9,27.8,38.6,28,38.3,28z"/>
	<path class="st0" d="M35.8,23.7H25.2c-0.5,0-1-0.4-1-1c0-0.5,0.4-1,1-1h10.1l5.8-8.3c0.3-0.4,0.9-0.5,1.3-0.2
		c0.4,0.3,0.5,0.9,0.2,1.3l-6.1,8.7C36.4,23.5,36.1,23.7,35.8,23.7z"/>
	<path class="st0" d="M33.3,19.4H25c-0.5,0-1-0.4-1-1c0-0.5,0.4-1,1-1h7.8l4.5-6.4c0.3-0.4,0.9-0.5,1.3-0.2c0.4,0.3,0.5,0.9,0.2,1.3
		L34.1,19C33.9,19.2,33.7,19.4,33.3,19.4z"/>
	<path class="st0" d="M30.9,15.1h-6.1c-0.5,0-1-0.4-1-1s0.4-1,1-1h5.6l3.2-4.6c0.3-0.4,0.9-0.5,1.3-0.2c0.4,0.3,0.5,0.9,0.2,1.3
		l-3.5,5C31.5,15,31.2,15.1,30.9,15.1z"/>
	<path class="st0" d="M28.4,10.8h-3.8c-0.5,0-1-0.4-1-1c0-0.5,0.4-1,1-1h3.3l1.9-2.7c0.3-0.4,0.9-0.5,1.3-0.2
		c0.4,0.3,0.5,0.9,0.2,1.3l-2.2,3.1C29,10.7,28.7,10.8,28.4,10.8z"/>
	<path class="st0" d="M41.4,33.3c-0.3,0-0.7-0.2-0.8-0.5l-16.2-28c-0.3-0.5-0.1-1,0.3-1.3c0.5-0.3,1-0.1,1.3,0.3l16.2,28
		c0.3,0.5,0.1,1-0.3,1.3C41.7,33.3,41.5,33.3,41.4,33.3z"/>
	<path class="st0" d="M20.7,58.4c-0.2,0-0.3,0-0.5-0.1c-0.5-0.3-0.6-0.8-0.3-1.3l6.2-10.7L20.8,35c-0.2-0.5,0-1,0.5-1.3
		c0.5-0.2,1,0,1.3,0.5L28,45.8c0.1,0.3,0.1,0.6,0,0.9l-6.4,11.2C21.4,58.2,21.1,58.4,20.7,58.4z"/>
	<path class="st0" d="M16.9,56.4c-0.2,0-0.3,0-0.5-0.1C16,56,15.8,55.4,16.1,55l5.1-8.8l-4.3-9.2c-0.2-0.5,0-1,0.5-1.3
		c0.5-0.2,1,0,1.3,0.5l4.5,9.6c0.1,0.3,0.1,0.6,0,0.9l-5.3,9.2C17.6,56.2,17.2,56.4,16.9,56.4z"/>
	<path class="st0" d="M13.1,54.4c-0.2,0-0.3,0-0.5-0.1C12.2,54,12,53.5,12.3,53l3.9-6.8l-3.3-7.1c-0.2-0.5,0-1,0.5-1.3
		c0.5-0.2,1,0,1.3,0.5l3.6,7.6c0.1,0.3,0.1,0.6,0,0.9L13.9,54C13.8,54.3,13.4,54.4,13.1,54.4z"/>
	<path class="st0" d="M9.3,52.5c-0.2,0-0.3,0-0.5-0.1c-0.5-0.3-0.6-0.8-0.3-1.3l2.8-4.8l-2.4-5.1c-0.2-0.5,0-1,0.5-1.3
		c0.5-0.2,1,0,1.3,0.5l2.6,5.5c0.1,0.3,0.1,0.6,0,0.9l-3,5.3C10,52.3,9.6,52.5,9.3,52.5z"/>
	<path class="st0" d="M5.5,50.5c-0.2,0-0.3,0-0.5-0.1c-0.5-0.3-0.6-0.8-0.3-1.3l1.7-2.9l-1.4-3c-0.2-0.5,0-1,0.5-1.3
		c0.5-0.2,1,0,1.3,0.5l1.6,3.5c0.1,0.3,0.1,0.6,0,0.9L6.3,50C6.1,50.3,5.8,50.5,5.5,50.5z"/>
	<path class="st0" d="M33.3,47.2L33.3,47.2L1,47.2c-0.5,0-1-0.4-1-1c0-0.5,0.4-1,1-1l0,0l32.4,0c0.5,0,1,0.4,1,1
		S33.9,47.2,33.3,47.2z"/>
	<path class="st0" d="M44.7,77.6c-0.3,0-0.7-0.2-0.8-0.5l-6.2-10.7l-12.3-1c-0.5,0-0.9-0.5-0.9-1c0-0.5,0.5-0.9,1-0.9l12.8,1.1
		c0.3,0,0.6,0.2,0.7,0.5l6.4,11.2c0.3,0.5,0.1,1-0.3,1.3C45.1,77.5,44.9,77.6,44.7,77.6z"/>
	<path class="st0" d="M41.1,79.9c-0.3,0-0.7-0.2-0.8-0.5l-5.1-8.8l-10.1-0.8c-0.5,0-0.9-0.5-0.9-1c0-0.5,0.5-0.9,1-0.9l10.6,0.9
		c0.3,0,0.6,0.2,0.7,0.5l5.3,9.2c0.3,0.5,0.1,1-0.3,1.3C41.5,79.9,41.3,79.9,41.1,79.9z"/>
	<path class="st0" d="M37.5,82.2c-0.3,0-0.7-0.2-0.8-0.5L32.8,75l-7.8-0.7c-0.5,0-0.9-0.5-0.9-1c0-0.5,0.5-0.9,1-0.9l8.3,0.7
		c0.3,0,0.6,0.2,0.7,0.5l4.2,7.2c0.3,0.5,0.1,1-0.3,1.3C37.8,82.2,37.7,82.2,37.5,82.2z"/>
	<path class="st0" d="M33.9,84.6c-0.3,0-0.7-0.2-0.8-0.5l-2.8-4.8l-5.6-0.5c-0.5,0-0.9-0.5-0.9-1c0-0.5,0.5-0.9,1-0.9l6.1,0.5
		c0.3,0,0.6,0.2,0.7,0.5l3,5.3c0.3,0.5,0.1,1-0.3,1.3C34.2,84.5,34.1,84.6,33.9,84.6z"/>
	<path class="st0" d="M30.3,86.9c-0.3,0-0.7-0.2-0.8-0.5l-1.7-2.9l-3.3-0.3c-0.5,0-0.9-0.5-0.9-1c0-0.5,0.5-0.9,1-0.9l3.8,0.3
		c0.3,0,0.6,0.2,0.7,0.5l1.9,3.3c0.3,0.5,0.1,1-0.3,1.3C30.6,86.8,30.5,86.9,30.3,86.9z"/>
	<path class="st0" d="M25.2,89.2c-0.2,0-0.3,0-0.5-0.1c-0.5-0.3-0.6-0.8-0.3-1.3l16.2-28c0.3-0.5,0.8-0.6,1.3-0.3
		c0.5,0.3,0.6,0.8,0.3,1.3L26,88.7C25.8,89,25.5,89.2,25.2,89.2z"/>
	<path class="st0" d="M53.1,77c-0.2,0-0.4-0.1-0.5-0.2c-0.4-0.3-0.5-0.9-0.2-1.3l7.3-10.6c0.2-0.3,0.5-0.4,0.8-0.4h12.9
		c0.5,0,1,0.4,1,1c0,0.5-0.4,1-1,1H61l-7.1,10.2C53.7,76.9,53.4,77,53.1,77z"/>
	<path class="st0" d="M56.9,79.4c-0.2,0-0.4-0.1-0.5-0.2c-0.4-0.3-0.5-0.9-0.2-1.3l6.1-8.7c0.2-0.3,0.5-0.4,0.8-0.4h10.6
		c0.5,0,1,0.4,1,1c0,0.5-0.4,1-1,1H63.5L57.7,79C57.5,79.3,57.2,79.4,56.9,79.4z"/>
	<path class="st0" d="M60.7,81.9c-0.2,0-0.4-0.1-0.5-0.2c-0.4-0.3-0.5-0.9-0.2-1.3l4.8-6.9c0.2-0.3,0.5-0.4,0.8-0.4h8.3
		c0.5,0,1,0.4,1,1c0,0.5-0.4,1-1,1h-7.8l-4.5,6.4C61.3,81.7,61,81.9,60.7,81.9z"/>
	<path class="st0" d="M64.4,84.3c-0.2,0-0.4-0.1-0.5-0.2c-0.4-0.3-0.5-0.9-0.2-1.3l3.5-5c0.2-0.3,0.5-0.4,0.8-0.4H74
		c0.5,0,1,0.4,1,1c0,0.5-0.4,1-1,1h-5.6l-3.2,4.6C65,84.1,64.8,84.3,64.4,84.3z"/>
	<path class="st0" d="M68.2,86.7c-0.2,0-0.4-0.1-0.5-0.2c-0.4-0.3-0.5-0.9-0.2-1.3l2.2-3.1c0.2-0.3,0.5-0.4,0.8-0.4h3.8
		c0.5,0,1,0.4,1,1c0,0.5-0.4,1-1,1h-3.3L69,86.3C68.8,86.6,68.5,86.7,68.2,86.7z"/>
	<path class="st0" d="M73.6,89.2c-0.3,0-0.7-0.2-0.8-0.5l-16.2-28c-0.3-0.5-0.1-1,0.3-1.3c0.5-0.3,1-0.1,1.3,0.3l16.2,28
		c0.3,0.5,0.1,1-0.3,1.3C73.9,89.1,73.8,89.2,73.6,89.2z"/>
	<path class="st0" d="M77.1,58.9c-0.4,0-0.7-0.2-0.9-0.5l-5.5-11.7c-0.1-0.3-0.1-0.6,0-0.9l6.4-11.2c0.3-0.5,0.8-0.6,1.3-0.3
		c0.5,0.3,0.6,0.8,0.3,1.3l-6.2,10.7l5.3,11.2c0.2,0.5,0,1-0.5,1.3C77.4,58.8,77.2,58.9,77.1,58.9z"/>
	<path class="st0" d="M81.1,56.8c-0.4,0-0.7-0.2-0.9-0.5l-4.5-9.6c-0.1-0.3-0.1-0.6,0-0.9l5.3-9.2c0.3-0.5,0.8-0.6,1.3-0.3
		c0.5,0.3,0.6,0.8,0.3,1.3l-5.1,8.8l4.3,9.2c0.2,0.5,0,1-0.5,1.3C81.3,56.8,81.2,56.8,81.1,56.8z"/>
	<path class="st0" d="M85,54.8c-0.4,0-0.7-0.2-0.9-0.5l-3.6-7.6c-0.1-0.3-0.1-0.6,0-0.9l4.2-7.2c0.3-0.5,0.8-0.6,1.3-0.3
		c0.5,0.3,0.6,0.8,0.3,1.3l-3.9,6.8l3.3,7.1c0.2,0.5,0,1-0.5,1.3C85.3,54.7,85.2,54.8,85,54.8z"/>
	<path class="st0" d="M89,52.7c-0.4,0-0.7-0.2-0.9-0.5l-2.6-5.5c-0.1-0.3-0.1-0.6,0-0.9l3-5.3c0.3-0.5,0.8-0.6,1.3-0.3
		c0.5,0.3,0.6,0.8,0.3,1.3l-2.8,4.8l2.4,5.1c0.2,0.5,0,1-0.5,1.3C89.3,52.7,89.2,52.7,89,52.7z"/>
	<path class="st0" d="M93,50.7c-0.4,0-0.7-0.2-0.9-0.5l-1.6-3.5c-0.1-0.3-0.1-0.6,0-0.9l1.9-3.3c0.3-0.5,0.8-0.6,1.3-0.3
		c0.5,0.3,0.6,0.8,0.3,1.3l-1.7,2.9l1.4,3c0.2,0.5,0,1-0.5,1.3C93.3,50.6,93.2,50.7,93,50.7z"/>
	<path class="st0" d="M97.8,47.2L97.8,47.2l-32.4,0c-0.5,0-1-0.4-1-1s0.4-1,1-1l0,0l32.4,0c0.5,0,1,0.4,1,1
		C98.8,46.8,98.4,47.2,97.8,47.2z"/>
	<path class="st0" d="M73.3,29C73.3,29,73.3,29,73.3,29L60.4,28c-0.3,0-0.6-0.2-0.7-0.5l-6.4-11.2c-0.3-0.5-0.1-1,0.3-1.3
		c0.5-0.3,1-0.1,1.3,0.3l6.2,10.7l12.3,1c0.5,0,0.9,0.5,0.9,1C74.2,28.7,73.8,29,73.3,29z"/>
	<path class="st0" d="M73.5,24.6C73.5,24.6,73.5,24.6,73.5,24.6l-10.7-0.9c-0.3,0-0.6-0.2-0.7-0.5L56.8,14c-0.3-0.5-0.1-1,0.3-1.3
		c0.5-0.3,1-0.1,1.3,0.3l5.1,8.8l10.1,0.8c0.5,0,0.9,0.5,0.9,1C74.5,24.2,74,24.6,73.5,24.6z"/>
	<path class="st0" d="M73.8,20.1C73.7,20.1,73.7,20.1,73.8,20.1l-8.4-0.7c-0.3,0-0.6-0.2-0.7-0.5l-4.2-7.2c-0.3-0.5-0.1-1,0.3-1.3
		c0.5-0.3,1-0.1,1.3,0.3l3.9,6.8l7.8,0.7c0.5,0,0.9,0.5,0.9,1C74.7,19.7,74.3,20.1,73.8,20.1z"/>
	<path class="st0" d="M74,15.6C74,15.6,73.9,15.6,74,15.6l-6.1-0.5c-0.3,0-0.6-0.2-0.7-0.5l-3-5.3c-0.3-0.5-0.1-1,0.3-1.3
		c0.5-0.3,1-0.1,1.3,0.3l2.8,4.8l5.6,0.5c0.5,0,0.9,0.5,0.9,1C74.9,15.2,74.5,15.6,74,15.6z"/>
	<path class="st0" d="M74.2,11.1C74.2,11.1,74.2,11.1,74.2,11.1l-3.9-0.3c-0.3,0-0.6-0.2-0.7-0.5L67.7,7c-0.3-0.5-0.1-1,0.3-1.3
		c0.5-0.3,1-0.1,1.3,0.3L71,9l3.3,0.3c0.5,0,0.9,0.5,0.9,1C75.1,10.8,74.7,11.1,74.2,11.1z"/>
	<path class="st0" d="M57.4,33.3c-0.2,0-0.3,0-0.5-0.1c-0.5-0.3-0.6-0.8-0.3-1.3l16.2-28c0.3-0.5,0.8-0.6,1.3-0.3
		c0.5,0.3,0.6,0.8,0.3,1.3l-16.2,28C58.1,33.1,57.7,33.3,57.4,33.3z"/>
	<path class="st0" d="M49.4,37.7c-0.5,0-1-0.4-1-1v-30c0-0.5,0.4-1,1-1c0.5,0,1,0.4,1,1v30C50.3,37.3,49.9,37.7,49.4,37.7z"/>
	<path class="st0" d="M41.2,42.4c-0.2,0-0.3,0-0.5-0.1l-26-15c-0.5-0.3-0.6-0.8-0.3-1.3c0.3-0.5,0.8-0.6,1.3-0.3l26,15
		c0.5,0.3,0.6,0.8,0.3,1.3C41.8,42.3,41.5,42.4,41.2,42.4z"/>
	<path class="st0" d="M49.4,46.2"/>
	<path class="st0" d="M15.2,67c-0.3,0-0.7-0.2-0.8-0.5c-0.3-0.5-0.1-1,0.3-1.3l26-15c0.5-0.3,1-0.1,1.3,0.3c0.3,0.5,0.1,1-0.3,1.3
		l-26,15C15.5,66.9,15.3,67,15.2,67z"/>
	<path class="st0" d="M49.4,86.7c-0.5,0-1-0.4-1-1v-30c0-0.5,0.4-1,1-1c0.5,0,1,0.4,1,1v30C50.3,86.3,49.9,86.7,49.4,86.7z"/>
	<path class="st0" d="M83.6,67c-0.2,0-0.3,0-0.5-0.1L56.9,51.7c-0.5-0.3-0.6-0.8-0.3-1.3c0.3-0.5,0.8-0.6,1.3-0.3l26.2,15.1
		c0.5,0.3,0.6,0.8,0.3,1.3C84.3,66.8,83.9,67,83.6,67z"/>
	<path class="st0" d="M57.6,42.4c-0.3,0-0.6-0.2-0.8-0.5c-0.3-0.5-0.1-1,0.3-1.3l26-15c0.5-0.3,1-0.1,1.3,0.3c0.3,0.5,0.1,1-0.3,1.3
		l-26,15C58,42.4,57.8,42.4,57.6,42.4z"/>
	<path class="st0" d="M49.4,62.3c-8.9,0-16.1-7.2-16.1-16.1c0-8.9,7.2-16.1,16.1-16.1c8.9,0,16.1,7.2,16.1,16.1
		C65.5,55.1,58.3,62.3,49.4,62.3z M49.4,32.1c-7.8,0-14.2,6.4-14.2,14.2c0,7.8,6.4,14.2,14.2,14.2c7.8,0,14.2-6.4,14.2-14.2
		C63.5,38.4,57.2,32.1,49.4,32.1z"/>
	<path class="st0" d="M49.4,7.7c-2.1,0-3.8-1.7-3.8-3.8S47.3,0,49.4,0c2.1,0,3.8,1.7,3.8,3.8S51.5,7.7,49.4,7.7z M49.4,1.9
		c-1.1,0-1.9,0.9-1.9,1.9c0,1.1,0.9,1.9,1.9,1.9c1.1,0,1.9-0.9,1.9-1.9C51.3,2.8,50.5,1.9,49.4,1.9z"/>
	<path class="st0" d="M12.7,28.9c-0.7,0-1.3-0.2-1.9-0.5C9.9,27.9,9.2,27,9,26c-0.3-1-0.1-2,0.4-2.9c0.5-0.9,1.3-1.5,2.3-1.8
		c1-0.3,2-0.1,2.9,0.4v0c0.9,0.5,1.5,1.3,1.8,2.3c0.3,1,0.1,2-0.4,2.9c-0.5,0.9-1.3,1.5-2.3,1.8C13.3,28.8,13,28.9,12.7,28.9z
		 M12.7,23.1c-0.2,0-0.3,0-0.5,0.1c-0.5,0.1-0.9,0.5-1.2,0.9c-0.3,0.4-0.3,1-0.2,1.5c0.1,0.5,0.5,0.9,0.9,1.2c0.4,0.3,1,0.3,1.5,0.2
		c0.5-0.1,0.9-0.5,1.2-0.9c0.5-0.9,0.2-2.1-0.7-2.6v0C13.3,23.2,13,23.1,12.7,23.1z"/>
	<path class="st0" d="M12.7,71.3c-0.3,0-0.7,0-1-0.1c-1-0.3-1.8-0.9-2.3-1.8c-0.5-0.9-0.6-1.9-0.4-2.9c0.3-1,0.9-1.8,1.8-2.3
		c0.9-0.5,1.9-0.6,2.9-0.4c1,0.3,1.8,0.9,2.3,1.8c0.5,0.9,0.6,1.9,0.4,2.9c-0.3,1-0.9,1.8-1.8,2.3C14,71.1,13.3,71.3,12.7,71.3z
		 M12.7,65.5c-0.3,0-0.7,0.1-1,0.3v0c-0.4,0.3-0.8,0.7-0.9,1.2c-0.1,0.5-0.1,1,0.2,1.5c0.3,0.4,0.7,0.8,1.2,0.9
		c0.5,0.1,1,0.1,1.5-0.2c0.4-0.3,0.8-0.7,0.9-1.2c0.1-0.5,0.1-1-0.2-1.5c-0.3-0.4-0.7-0.8-1.2-0.9C13,65.5,12.8,65.5,12.7,65.5z"/>
	<path class="st0" d="M49.4,92.5c-2.1,0-3.8-1.7-3.8-3.8c0-2.1,1.7-3.8,3.8-3.8c2.1,0,3.8,1.7,3.8,3.8
		C53.2,90.8,51.5,92.5,49.4,92.5z M49.4,86.7c-1.1,0-1.9,0.9-1.9,1.9c0,1.1,0.9,1.9,1.9,1.9c1.1,0,1.9-0.9,1.9-1.9
		C51.3,87.6,50.5,86.7,49.4,86.7z"/>
	<path class="st0" d="M86.1,71.3c-0.7,0-1.3-0.2-1.9-0.5l0,0c-1.8-1.1-2.5-3.4-1.4-5.2c1.1-1.8,3.4-2.5,5.3-1.4
		c0.9,0.5,1.5,1.3,1.8,2.3c0.3,1,0.1,2-0.4,2.9C88.7,70.6,87.4,71.3,86.1,71.3z M85.1,69.1c0.9,0.5,2.1,0.2,2.6-0.7
		c0.3-0.4,0.3-1,0.2-1.5c-0.1-0.5-0.5-0.9-0.9-1.2c-0.9-0.5-2.1-0.2-2.6,0.7C83.9,67.4,84.2,68.6,85.1,69.1L85.1,69.1z"/>
	<path class="st0" d="M86.1,28.9c-1.3,0-2.6-0.7-3.3-1.9c-1.1-1.8-0.4-4.2,1.4-5.3c1.8-1.1,4.2-0.4,5.3,1.4C90,24,90.1,25,89.8,26
		c-0.3,1-0.9,1.8-1.8,2.3C87.4,28.7,86.8,28.9,86.1,28.9z M86.1,23.1c-0.3,0-0.7,0.1-1,0.3c-0.9,0.5-1.2,1.7-0.7,2.6
		c0.5,0.9,1.7,1.2,2.6,0.7c0.4-0.3,0.8-0.7,0.9-1.2c0.1-0.5,0.1-1-0.2-1.5C87.4,23.5,86.8,23.1,86.1,23.1z"/>
</g>
</svg>
