<?xml version="1.0" encoding="utf-8"?>
<!-- Generator: Adobe Illustrator 24.0.3, SVG Export Plug-In . SVG Version: 6.00 Build 0)  -->
<svg version="1.1" id="Layer_1" xmlns="http://www.w3.org/2000/svg" xmlns:xlink="http://www.w3.org/1999/xlink" x="0px" y="0px"
	 viewBox="0 0 61 60.4" style="enable-background:new 0 0 61 60.4;" xml:space="preserve">
<style type="text/css">
	.st0{fill:#6CBE45;}
</style>
<path class="st0" d="M30,28.6c-11.9-40.8-12.8-34,0,0.2C17.2-5.4,16.3,1.4,30,29.1c-13.6-27.7-14.5-21,0,0.2
	c-14.5-21.2-15.4-14.4,0,0.2c-15.4-14.7-22.1-13.5-0.2,0c-21.8-13.5-28.6-12.3-0.2,0c-28.3-12.4-35-11.2-0.2,0
	c-34.8-11.2-41.5-10-0.2,0c-41.3-10.1-35.9-5.9,0.2,0.2c-36.1-6.1-30.6-1.9,0.2,0.2c-30.8-2.1-25.4,2.1,0.2,0.2
	c-25.6,1.9-20.2,6.1,0.2,0.2c-20.4,6-22.7,12.4-0.1,0.2C7,42.8,4.7,49.2,29.6,30.9C4.7,49.2,2.3,55.6,29.5,31.1
	C2.3,55.6,0,62,29.4,31.3C0,62,6.3,59.4,29.6,31.2c-23.3,28.2-17,25.6,0.2-0.1C12.6,56.8,19,54.2,30.1,31C19,54.2,25.3,51.6,30.3,31
	c-5,20.6-0.6,25.9,0.2,0.2c-0.8,25.7,3.6,30.9,0.2,0.2c3.4,30.7,7.8,35.9,0.2,0.2c7.7,35.7,12.1,41,0.2,0.2c11.9,40.8,12.8,34,0-0.2
	c12.8,34.3,13.7,27.5,0-0.2c13.6,27.7,14.5,21,0-0.2c14.5,21.2,15.4,14.4,0-0.2c15.4,14.7,22.1,13.5,0.2,0
	c21.8,13.5,28.6,12.3,0.2,0c28.3,12.4,35,11.2,0.2,0c34.8,11.2,41.5,10,0.2,0c41.3,10.1,35.9,5.9-0.2-0.2c36.1,6.1,30.6,1.9-0.2-0.2
	c30.8,2.1,25.4-2.1-0.2-0.2c25.6-1.9,20.2-6.1-0.2-0.2c20.4-6,22.7-12.4,0.1-0.2c22.6-12.1,25-18.6,0.1-0.2
	c24.9-18.3,27.2-24.8,0.1-0.2C58.6,4.7,61-1.7,31.6,29C61-1.7,54.7,0.9,31.4,29.1c23.3-28.2,17-25.6-0.2,0.1
	C48.3,3.5,42,6.1,30.9,29.3C42,6.1,35.7,8.8,30.7,29.4c5-20.6,0.6-25.9-0.2-0.2c0.8-25.7-3.6-30.9-0.2-0.2
	c-3.4-30.7-7.8-35.9-0.2-0.2C22.5-6.9,18.1-12.1,30,28.6z"/>
</svg>
