<?xml version="1.0" encoding="utf-8"?>
<!-- Generator: Adobe Illustrator 24.0.3, SVG Export Plug-In . SVG Version: 6.00 Build 0)  -->
<svg version="1.1" id="Layer_1" xmlns="http://www.w3.org/2000/svg" xmlns:xlink="http://www.w3.org/1999/xlink" x="0px" y="0px"
	 viewBox="0 0 99.4 120" style="enable-background:new 0 0 99.4 120;" xml:space="preserve">
<style type="text/css">
	.st0{fill-rule:evenodd;clip-rule:evenodd;fill:#EBEBEB;}
	.st1{fill-rule:evenodd;clip-rule:evenodd;fill:#FFFFFF;}
	.st2{fill-rule:evenodd;clip-rule:evenodd;fill:#E4E1E2;}
	.st3{fill-rule:evenodd;clip-rule:evenodd;fill:#582100;}
	.st4{fill-rule:evenodd;clip-rule:evenodd;fill:#6C898A;}
</style>
<g>
	<g>
		<path class="st0" d="M6.1,63.8c-3,8,34-30.3,36.5-36.2c1.3-2.9,2.8-6.2,6.8-10.1c2-2,3.9-3.9,7.1-2.5c7.4,3.2,11.9,15.4,16.1,21.4
			c3.3,4.7,8,10,12,14.8v14.1c-10.1-1.1-31.4-3.6-35.4-3.5C41,62,39.4,69.4,29,68.2C26.8,68,8.1,64.9,6.1,63.8z"/>
		<path class="st1" d="M66.4,26.5c-0.3,1.8,0.5,5.5,0.5,5.6c-0.9,0.2-7.5-2.6-8.2-3.4C57.1,29,55.2,32,54,32.1
			c-0.1-0.6-4.4-2.1-4.9-2.7c-1.3-1.6-6.2,3.8-9.8,4.6c0-0.5,0-1.1,0.1-1.7c4-7.7,6.1-11.3,9.9-14.8c2.1-1.9,3.9-3.9,7.1-2.5
			C60.6,16.9,63.7,21.7,66.4,26.5z"/>
		<g>
			<path class="st2" d="M66.4,26.9c0,0.1,0,0.3,0,0.4c-0.1,0-0.2,0-0.3,0C66,27.2,65.9,27.1,66,27C66,26.9,66.2,26.9,66.4,26.9
				L66.4,26.9L66.4,26.9z M59.8,26c-0.2,0-0.3,0.1-0.3,0.3c0,0.1,0.1,0.2,0.3,0.2s0.3-0.1,0.3-0.3C60.1,26.1,60,26,59.8,26L59.8,26z
				 M63.2,24.9c-0.2,0-0.3,0.1-0.3,0.3c0,0.1,0.2,0.2,0.3,0.2c0.2,0,0.3-0.1,0.3-0.3C63.5,25,63.4,24.9,63.2,24.9z"/>
			<g>
				<g>
					<path class="st2" d="M65.5,31.8c-0.2-0.1-0.3-0.1-0.5-0.2c0,0,0,0,0.1-0.1s0.3-0.1,0.4,0C65.5,31.6,65.5,31.7,65.5,31.8
						L65.5,31.8z M45.3,22.1c0-0.1,0.1-0.1,0.1-0.2C45.4,22,45.4,22,45.3,22.1L45.3,22.1L45.3,22.1z M51.7,15.5
						c0.1-0.1,0.2-0.2,0.3-0.2c0,0,0,0,0.1,0c0.1,0.1,0.2,0.2,0.1,0.3c-0.1,0.1-0.2,0.2-0.4,0.1C51.7,15.7,51.7,15.6,51.7,15.5
						L51.7,15.5z M52.4,15.1c0.2-0.1,0.3-0.2,0.5-0.2l0,0l0,0c0.1-0.1,0.3-0.1,0.4-0.1c0.1,0.1,0.1,0.2,0.1,0.3
						c-0.1,0.1-0.3,0.2-0.4,0.1v-0.1c0,0.1,0,0.2-0.1,0.2C52.6,15.3,52.4,15.2,52.4,15.1L52.4,15.1z M54.5,14.6c0.2,0,0.3,0,0.5,0
						l0,0C54.9,14.8,54.7,14.8,54.5,14.6C54.6,14.6,54.5,14.6,54.5,14.6L54.5,14.6z M52,23c0.1,0.1,0.3,0.1,0.4,0
						c0.1-0.1,0.1-0.2,0-0.3c-0.1-0.1-0.3-0.1-0.4,0C51.8,22.7,51.8,22.9,52,23L52,23z M56,25.3c-0.1,0.1-0.1,0.2,0,0.3
						c0.1,0.1,0.3,0.1,0.4,0c0.1-0.1,0.1-0.2,0-0.3C56.3,25.2,56.1,25.2,56,25.3L56,25.3z M49.2,22.8c0-0.1-0.1-0.3-0.2-0.3
						c-0.1,0-0.3,0.1-0.3,0.2s0.1,0.3,0.2,0.3C49,23,49.2,23,49.2,22.8L49.2,22.8z M54.9,18.8c0,0.1,0.1,0.3,0.2,0.3
						c0.2,0,0.3-0.1,0.3-0.2s-0.1-0.3-0.2-0.3C55.1,18.6,54.9,18.7,54.9,18.8L54.9,18.8z M51.1,23.3c0.1,0,0.1,0,0.2-0.1
						c0.1-0.1,0-0.3-0.1-0.3s-0.3,0-0.4,0.1C50.7,23.1,50.8,23.3,51.1,23.3C51,23.4,51,23.4,51.1,23.3c-0.2,0-0.3,0.1-0.3,0.2
						s0.1,0.3,0.2,0.3c0.1,0,0.3-0.1,0.3-0.2C51.4,23.5,51.3,23.4,51.1,23.3L51.1,23.3z M54.7,25.9c-0.2,0-0.3,0-0.4,0.1
						c-0.1,0.1,0,0.3,0.1,0.3s0.3,0,0.4-0.1C54.9,26,54.8,25.9,54.7,25.9L54.7,25.9z M53.1,19.7c-0.1-0.1-0.2-0.2-0.4-0.1
						s-0.2,0.2-0.2,0.3c0.1,0.1,0.2,0.2,0.4,0.1C53.1,20,53.2,19.9,53.1,19.7L53.1,19.7z M48.2,19.2c-0.1,0.1,0,0.3,0.1,0.3
						c0.1,0.1,0.3,0,0.4-0.1c0.1-0.1,0-0.3-0.1-0.3C48.5,19.1,48.3,19.1,48.2,19.2L48.2,19.2z M62,21.6c0.1-0.1,0-0.3-0.1-0.3
						c-0.1-0.1-0.2,0-0.3,0.1c0,0,0-0.1-0.1-0.1c-0.2,0-0.3,0.1-0.4,0.2c0,0.1,0.1,0.3,0.2,0.3c0.1,0,0.1-0.1,0.2-0.1v0.1
						C61.7,21.7,61.9,21.7,62,21.6L62,21.6z M61.9,24.2c-0.1,0.1,0,0.3,0.1,0.3c0.1,0.1,0.3,0,0.4-0.1c0.1-0.1,0-0.3-0.1-0.3
						C62.2,24.1,62,24.1,61.9,24.2L61.9,24.2z M54.2,15.1c-0.1-0.1-0.3,0-0.4,0.1c-0.1,0.1,0,0.3,0.1,0.3c0.2,0.1,0.3,0,0.4-0.1
						S54.3,15.2,54.2,15.1L54.2,15.1z M61.5,21.8c0.1,0.1,0.2,0.2,0.1,0.3c-0.1,0.1-0.2,0.2-0.4,0.1c-0.1-0.1-0.2-0.2-0.1-0.3
						C61.3,21.8,61.4,21.7,61.5,21.8L61.5,21.8z M53.3,25c-0.2,0-0.3,0.1-0.3,0.2s0.1,0.2,0.3,0.2s0.3-0.1,0.3-0.2S53.5,25,53.3,25
						L53.3,25z M58,18.1c0-0.1-0.1-0.2-0.3-0.2s-0.3,0.1-0.3,0.2s0.1,0.2,0.3,0.2C57.9,18.4,58,18.3,58,18.1L58,18.1z M53.4,26.8
						c-0.2,0-0.3,0.1-0.3,0.2s0.1,0.2,0.3,0.2s0.3-0.1,0.3-0.2S53.5,26.8,53.4,26.8L53.4,26.8z M56.3,15.6c-0.2,0-0.3,0.1-0.3,0.2
						c0,0.1,0.1,0.2,0.3,0.2s0.3-0.1,0.3-0.2C56.5,15.7,56.4,15.6,56.3,15.6L56.3,15.6z M49.4,24c-0.2,0-0.3,0-0.4,0.1
						c0,0.1,0,0.3,0.2,0.3c0.1,0,0.3,0,0.4-0.1C49.6,24.2,49.6,24,49.4,24L49.4,24z M63.9,24.6c-0.1,0-0.3,0-0.4,0.1
						c-0.1,0.1,0,0.3,0.2,0.3c0.1,0,0.3,0,0.4-0.1C64.1,24.8,64.1,24.6,63.9,24.6L63.9,24.6z M54.3,18.1c-0.1,0-0.3,0-0.4,0.1
						c-0.1,0.1,0,0.3,0.1,0.3s0.3,0,0.4-0.1C54.6,18.3,54.5,18.1,54.3,18.1L54.3,18.1z M47.8,19.9c-0.2-0.1-0.3,0-0.4,0.1
						c-0.1,0.1,0,0.2,0.2,0.3c0.2,0,0.3,0,0.4-0.1C48,20.1,48,20,47.8,19.9L47.8,19.9z M60.2,19.9c0-0.1-0.2-0.2-0.4-0.2
						c-0.1,0-0.2,0.2-0.2,0.3c0,0.1,0.2,0.2,0.3,0.2C60.2,20.2,60.3,20.1,60.2,19.9L60.2,19.9z M50,21.4c0-0.1-0.2-0.2-0.3-0.2
						s-0.3,0.1-0.3,0.3c0,0.1,0.2,0.2,0.3,0.2C49.9,21.7,50,21.5,50,21.4L50,21.4z M63.5,25.4c0-0.1,0.1-0.1,0.1-0.1
						c-0.1-0.1-0.2-0.2-0.4-0.1c-0.1,0-0.2,0.2-0.2,0.3c0.1,0.1,0.2,0.2,0.4,0.1C63.4,25.5,63.4,25.5,63.5,25.4
						c0,0.2,0.1,0.3,0.2,0.3c0.2,0,0.3-0.1,0.3-0.2s-0.2-0.2-0.3-0.2C63.6,25.2,63.5,25.3,63.5,25.4L63.5,25.4z M56,21.4
						c0,0.1,0.1,0.2,0.3,0.2s0.3-0.1,0.3-0.3c0-0.1-0.2-0.2-0.3-0.2C56.1,21.2,56,21.3,56,21.4L56,21.4z M54.9,26.7
						c-0.1-0.1-0.3-0.1-0.4,0c-0.1,0.1-0.1,0.3,0,0.4s0.3,0.1,0.4,0C55,26.9,55,26.8,54.9,26.7L54.9,26.7z M59.5,23.1
						c0,0.1,0.1,0.2,0.3,0.3c0.1,0,0.3-0.1,0.3-0.2S60,23,59.8,22.9C59.7,22.8,59.5,22.9,59.5,23.1L59.5,23.1z M53.8,20.5
						c0,0.1,0.1,0.2,0.3,0.3c0.2,0,0.3-0.1,0.3-0.2s-0.1-0.2-0.3-0.3C53.9,20.2,53.8,20.3,53.8,20.5L53.8,20.5z M54.4,20.5
						c0,0.1,0.1,0.2,0.3,0.3c0.2,0,0.3-0.1,0.3-0.2s-0.1-0.2-0.3-0.3C54.6,20.3,54.4,20.4,54.4,20.5L54.4,20.5z M47.1,28.7
						c0,0.1,0.1,0.3,0.3,0.3s0.3-0.1,0.3-0.2s-0.1-0.2-0.3-0.3C47.2,28.5,47.1,28.6,47.1,28.7L47.1,28.7z M55.5,19.8
						c-0.1-0.1-0.2-0.2-0.4-0.1c-0.1,0-0.2,0.2-0.1,0.3s0.2,0.2,0.4,0.1C55.5,20.1,55.6,19.9,55.5,19.8L55.5,19.8z M55,30.1
						c0.2-0.1,0.2-0.2,0.1-0.3c-0.1-0.1-0.2-0.2-0.4-0.1c-0.1,0.1-0.2,0.2-0.1,0.3C54.7,30.1,54.8,30.1,55,30.1L55,30.1z M50.8,24.9
						c-0.1-0.1-0.2-0.2-0.4-0.1s-0.2,0.2-0.1,0.3c0.1,0.1,0.2,0.2,0.4,0.1C50.7,25.1,50.8,25,50.8,24.9L50.8,24.9z M47.5,26.8
						c0.1-0.1,0.2-0.2,0.1-0.3c-0.1-0.1-0.2-0.2-0.4-0.1c-0.1,0.1-0.2,0.2-0.1,0.3C47.2,26.8,47.4,26.9,47.5,26.8L47.5,26.8z
						 M62.7,22.9c-0.1-0.1-0.2-0.2-0.4-0.1s-0.2,0.2-0.2,0.3c0.1,0.1,0.2,0.2,0.4,0.1C62.7,23.2,62.8,23,62.7,22.9L62.7,22.9z
						 M62.6,29.8c-0.2,0-0.3,0-0.4,0.1c0,0.1,0,0.3,0.2,0.3c0.1,0,0.3,0,0.4-0.1C62.9,30,62.8,29.9,62.6,29.8L62.6,29.8z M66.1,27.9
						c-0.1-0.1-0.2-0.2-0.4-0.1c-0.1,0-0.2,0.2-0.2,0.3c0.1,0.1,0.2,0.2,0.4,0.1C66.1,28.2,66.1,28.1,66.1,27.9z"/>
					<path class="st2" d="M66.7,32.1c-0.1,0-0.2,0-0.3,0C66.5,32,66.5,32,66.7,32.1C66.6,32,66.7,32,66.7,32.1L66.7,32.1z
						 M55.7,30.8c-0.1,0.1-0.2,0.2-0.2,0.2S55.6,30.9,55.7,30.8C55.7,30.9,55.7,30.8,55.7,30.8L55.7,30.8z M41.2,28.9l0.2-0.4
						c0,0,0,0,0.1,0c0.1,0.1,0.2,0.2,0.1,0.3C41.5,28.9,41.4,28.9,41.2,28.9L41.2,28.9z M44.5,23.2c0.1-0.1,0.2-0.3,0.3-0.4
						c0.1,0,0.1,0,0.2,0.1c0.1,0.1,0.1,0.2,0,0.3C44.8,23.4,44.6,23.4,44.5,23.2C44.5,23.3,44.5,23.3,44.5,23.2L44.5,23.2z
						 M53.5,14.7c0.2,0,0.4-0.1,0.6-0.1l0,0c0,0.1-0.1,0.2-0.3,0.2C53.6,14.8,53.5,14.8,53.5,14.7L53.5,14.7z M54.9,14.6
						c0.2,0,0.4,0.1,0.6,0.1c0,0.1,0,0.1-0.1,0.2c-0.1,0.1-0.3,0.1-0.4,0C54.9,14.8,54.9,14.7,54.9,14.6L54.9,14.6z M56.4,15
						L56.4,15c0.2,0.1,0.3,0.1,0.5,0.2c-0.1,0-0.1,0.1-0.2,0C56.5,15.3,56.4,15.2,56.4,15L56.4,15z M57.2,15.4
						c0.2,0.1,0.3,0.2,0.5,0.3c-0.1,0-0.1,0.1-0.2,0.1C57.3,15.7,57.2,15.6,57.2,15.4C57.2,15.5,57.2,15.4,57.2,15.4L57.2,15.4z
						 M58.6,16.3c0.1,0.1,0.2,0.1,0.3,0.2C58.8,16.5,58.7,16.4,58.6,16.3L58.6,16.3L58.6,16.3z M60.5,17.9L60.5,17.9
						C60.5,18,60.5,18,60.5,17.9L60.5,17.9z M63.2,21.3L63.2,21.3c0,0.1,0.1,0.1,0,0.1c0,0.1,0,0.1-0.1,0.2h0.1
						c0.1,0,0.2,0.2,0.2,0.3c0,0.1-0.2,0.2-0.3,0.2c-0.2,0-0.3-0.1-0.2-0.3c0-0.1,0.1-0.1,0.1-0.2l0,0c-0.2,0-0.3-0.1-0.3-0.2
						s0.1-0.2,0.3-0.2C63.1,21.2,63.2,21.3,63.2,21.3L63.2,21.3z M65.3,24.6c0.1,0.1,0.2,0.3,0.2,0.4c-0.1,0-0.1,0.1-0.2,0.1
						c-0.2,0-0.3-0.1-0.3-0.2L64.9,25c-0.1,0-0.3,0-0.4-0.2c0-0.1,0-0.3,0.2-0.3s0.3,0,0.4,0.1v0.1C65.2,24.7,65.3,24.6,65.3,24.6
						L65.3,24.6z M59.4,25.6c-0.1,0-0.2,0.2-0.1,0.3c0.1,0.1,0.2,0.2,0.4,0.1s0.2-0.2,0.2-0.3C59.8,25.6,59.6,25.6,59.4,25.6
						L59.4,25.6z M56.1,16.4c-0.1,0-0.1,0.1-0.1,0.1S56,16.5,56.1,16.4C56,16.4,56.1,16.4,56.1,16.4L56.1,16.4z M55.9,16.3
						c-0.1-0.1-0.2-0.1-0.4,0c-0.1,0.1-0.1,0.2,0,0.3c0.1,0.1,0.3,0.1,0.4,0l0,0c0,0.1,0.1,0.2,0.2,0.2c0.1,0,0.3-0.1,0.3-0.2
						s0-0.2-0.2-0.3c0.1,0,0.1-0.1,0.1-0.1c0.1-0.1,0-0.3-0.2-0.3c-0.1,0-0.3,0-0.4,0.1C55.9,16.2,55.9,16.2,55.9,16.3L55.9,16.3z
						 M52.1,29.7c0-0.1-0.1-0.3-0.2-0.3c-0.1,0-0.3,0.1-0.3,0.2s0.1,0.3,0.2,0.3C51.9,29.9,52,29.8,52.1,29.7L52.1,29.7z M51.8,24.3
						c0,0.1,0.1,0.3,0.2,0.3c0.1,0,0.3-0.1,0.3-0.2s-0.1-0.2-0.2-0.3C51.9,24.1,51.8,24.2,51.8,24.3L51.8,24.3z M62.7,22.5
						c0-0.1-0.1-0.3-0.2-0.3c-0.1,0-0.3,0.1-0.3,0.2s0.1,0.3,0.2,0.3C62.5,22.7,62.7,22.6,62.7,22.5L62.7,22.5z M54,29
						c0-0.1-0.1-0.3-0.2-0.3c0,0,0-0.1-0.1-0.1c-0.2,0-0.3,0.1-0.3,0.2s0.1,0.3,0.2,0.3l0,0v0.1C53.8,29.2,53.9,29.1,54,29L54,29z
						 M48.3,23.4c0.1,0,0.3,0,0.4-0.1c0.1-0.1,0-0.3-0.2-0.3c-0.1,0-0.3,0-0.4,0.1C48,23.2,48.1,23.3,48.3,23.4L48.3,23.4z M52.3,20
						c0.1,0,0.3,0,0.4-0.1c0.1-0.1,0-0.3-0.2-0.3c-0.1,0-0.2,0-0.3,0.1c-0.1-0.1-0.1-0.2-0.2-0.2c-0.1,0-0.3,0.1-0.3,0.3
						c0,0.1,0.1,0.2,0.3,0.2c0.1,0,0.2-0.1,0.2-0.2C52.2,19.8,52.2,19.9,52.3,20L52.3,20z M64.5,29.7c-0.1,0-0.3,0-0.4,0.1
						s0,0.3,0.2,0.3c0.1,0,0.3,0,0.4-0.1C64.7,29.9,64.6,29.8,64.5,29.7L64.5,29.7z M44.2,24.2c-0.1,0-0.3,0-0.4,0.1
						c-0.1,0.1,0,0.2,0.2,0.3c0.1,0,0.3,0,0.4-0.1C44.5,24.4,44.4,24.2,44.2,24.2L44.2,24.2z M64.4,25.6c0.1,0,0.3,0,0.4-0.1
						s0-0.3-0.2-0.3s-0.3,0-0.4,0.1C64.1,25.4,64.2,25.5,64.4,25.6L64.4,25.6z M54.4,23.8c0.1,0,0.3,0,0.4-0.1
						c0.1-0.1,0-0.3-0.2-0.3s-0.3,0-0.4,0.1C54.2,23.6,54.3,23.7,54.4,23.8L54.4,23.8z M52.7,15.6c0,0.1,0.2,0.2,0.4,0.1
						c0.2,0,0.2-0.2,0.2-0.3s-0.2-0.2-0.4-0.1C52.7,15.3,52.6,15.4,52.7,15.6L52.7,15.6z M47.9,25.5c0.1,0.1,0.2,0.2,0.4,0.1
						c0.1,0,0.2-0.2,0.2-0.3c-0.1-0.1-0.2-0.2-0.4-0.1C48,25.2,47.9,25.4,47.9,25.5L47.9,25.5z M60.4,26.9c0.1,0.1,0.2,0.2,0.4,0.1
						c0.2,0,0.2-0.2,0.2-0.3c0-0.1-0.2-0.2-0.4-0.1S60.3,26.8,60.4,26.9L60.4,26.9z M59,18.9c-0.1-0.1-0.2-0.2-0.4-0.1
						c-0.1,0-0.2,0.2-0.2,0.3c0.1,0.1,0.2,0.2,0.4,0.1C59,19.2,59.1,19.1,59,18.9L59,18.9z M53.3,18.7c-0.1-0.1-0.3,0-0.4,0.1
						c-0.1,0.1,0,0.3,0.1,0.3c0.1,0.1,0.3,0,0.4-0.1S53.5,18.8,53.3,18.7L53.3,18.7z M54.1,29.9c0,0.1,0,0.1,0.1,0.2
						c-0.1,0-0.2-0.1-0.3,0s-0.1,0.2,0,0.3c0.1,0.1,0.3,0.1,0.4,0c0.1-0.1,0-0.1,0-0.2c0.1,0,0.2,0,0.3-0.1s0-0.3-0.1-0.3
						C54.3,29.8,54.2,29.8,54.1,29.9L54.1,29.9z M46,28c0-0.1-0.1-0.2-0.3-0.2s-0.3,0.1-0.3,0.2s0.1,0.2,0.3,0.2
						C45.8,28.3,46,28.1,46,28L46,28z M43.7,27.1c-0.2,0-0.3,0.1-0.3,0.2s0.1,0.2,0.3,0.2s0.3-0.1,0.3-0.2S43.9,27,43.7,27.1
						L43.7,27.1z M53.2,29.1c0.2,0,0.3,0.1,0.3,0.2s-0.1,0.2-0.3,0.2c-0.1,0-0.3-0.1-0.3-0.2S53,29.1,53.2,29.1L53.2,29.1z
						 M47.8,27.8c-0.2,0-0.3,0.1-0.3,0.2s0.1,0.2,0.3,0.2s0.3-0.1,0.3-0.2S48,27.8,47.8,27.8L47.8,27.8z M63.9,29
						c-0.1,0-0.3,0.1-0.3,0.2s0.1,0.2,0.3,0.2c0.2,0,0.3-0.1,0.3-0.2C64.2,29.2,64.1,29,63.9,29L63.9,29z M44.9,26.3
						c0,0.1,0.1,0.2,0.3,0.2c0.1,0,0.3-0.1,0.3-0.2s-0.1-0.2-0.3-0.2C45.1,26,45,26.1,44.9,26.3L44.9,26.3z M43.1,26.2
						c0.1,0,0.3,0,0.4-0.1c0.1-0.1,0-0.3-0.1-0.3s-0.3,0-0.4,0.1C42.9,26,43,26.1,43.1,26.2L43.1,26.2z M60.9,22.2
						c-0.1,0-0.3,0-0.4,0.1c-0.1,0.1,0,0.3,0.1,0.3s0.3,0,0.4-0.1C61.1,22.4,61,22.3,60.9,22.2L60.9,22.2z M44.9,28.2
						c0.2,0,0.3,0,0.4-0.1c0.1-0.1,0-0.3-0.1-0.3c-0.2,0-0.3,0-0.4,0.1C44.7,28,44.7,28.2,44.9,28.2L44.9,28.2z M55.9,15.5
						c0.2,0,0.2,0.2,0.2,0.3C56,16,55.8,16,55.7,16c-0.2-0.1-0.2-0.2-0.1-0.3C55.6,15.5,55.8,15.5,55.9,15.5L55.9,15.5z M59.8,24.9
						c0.2,0.1,0.3,0,0.4-0.1c0.1-0.1,0-0.3-0.1-0.3s-0.3,0-0.4,0.1C59.5,24.7,59.6,24.8,59.8,24.9L59.8,24.9z M54.5,26.7
						c0.2,0,0.3,0,0.4-0.1c0.1-0.1,0-0.3-0.1-0.3c-0.2,0-0.3,0-0.4,0.1C54.3,26.5,54.3,26.7,54.5,26.7L54.5,26.7z M54.2,19.8
						c-0.1,0-0.3,0-0.4,0.1c-0.1,0.1,0,0.3,0.2,0.3c0.1,0.1,0.3,0,0.4-0.1C54.4,20,54.4,19.8,54.2,19.8L54.2,19.8z M50.1,24.5
						c-0.1,0-0.2,0.2-0.2,0.3c0,0.1,0.2,0.2,0.4,0.2c0.1,0,0.2-0.2,0.2-0.3C50.4,24.6,50.2,24.5,50.1,24.5L50.1,24.5z M58.7,17.2
						c-0.1,0-0.2,0.2-0.2,0.3c0,0.1,0.2,0.2,0.4,0.2c0.1,0,0.2-0.1,0.2-0.3C59,17.2,58.9,17.1,58.7,17.2L58.7,17.2z M56.3,19.9
						c-0.1,0-0.3,0.2-0.2,0.3c0,0.1,0.2,0.2,0.3,0.2s0.2-0.2,0.2-0.3C56.7,19.9,56.5,19.8,56.3,19.9L56.3,19.9z M58,19.3
						c0.1,0,0.2-0.2,0.2-0.3c0-0.1-0.2-0.2-0.4-0.2c-0.1,0-0.2,0.2-0.2,0.3C57.7,19.3,57.9,19.4,58,19.3L58,19.3z M53.7,17.4
						c0-0.1-0.2-0.2-0.3-0.2s-0.3,0.1-0.3,0.3c0,0.1,0.2,0.2,0.3,0.2C53.6,17.6,53.7,17.5,53.7,17.4L53.7,17.4z M62.3,26.9
						c-0.1,0-0.3,0.1-0.3,0.3c0,0.1,0.2,0.2,0.3,0.2c0.2,0,0.3-0.1,0.3-0.3C62.6,27,62.5,26.9,62.3,26.9L62.3,26.9z M56,20
						c-0.1,0-0.3-0.1-0.3-0.2s0.1-0.2,0.3-0.3c0.1,0,0.3,0.1,0.3,0.2C56.3,19.9,56.1,20,56,20L56,20z M60.1,22
						c0-0.1-0.1-0.2-0.3-0.2s-0.3,0.1-0.3,0.3c0,0.1,0.2,0.2,0.3,0.2C60,22.3,60.1,22.2,60.1,22L60.1,22z M61.1,18.9
						c-0.1-0.1-0.3-0.1-0.4,0c-0.1,0.1-0.1,0.2,0,0.3c0.1,0.1,0.3,0.1,0.4,0C61.2,19.1,61.2,19,61.1,18.9L61.1,18.9z M59.2,24.8
						c-0.1-0.1-0.3-0.1-0.4,0c-0.1,0.1-0.1,0.2,0,0.3c0.1,0.1,0.3,0.1,0.4,0C59.3,25,59.3,24.9,59.2,24.8L59.2,24.8z M56.7,19.4
						c0.1,0.1,0.1,0.2,0,0.3c-0.1,0.1-0.3,0.1-0.4,0c-0.1-0.1-0.1-0.2,0-0.3C56.4,19.3,56.6,19.3,56.7,19.4L56.7,19.4z M56.2,17.8
						c-0.1-0.1-0.3-0.1-0.4,0c-0.1,0.1-0.1,0.2,0,0.3c0.1,0.1,0.3,0.1,0.4,0C56.4,18.1,56.4,17.9,56.2,17.8L56.2,17.8z M51,23.8
						c-0.1-0.1-0.3-0.1-0.4,0c-0.1,0.1-0.1,0.2,0,0.3c0.1,0.1,0.3,0.1,0.4,0C51.1,24,51.1,23.9,51,23.8L51,23.8z M49.8,18.5
						c-0.2,0-0.3,0.1-0.3,0.2s0.1,0.2,0.3,0.3c0.1,0,0.3-0.1,0.3-0.2C50.1,18.7,50,18.5,49.8,18.5L49.8,18.5z M61.4,20.2
						c0-0.1-0.1-0.3-0.2-0.3c-0.2,0-0.3,0.1-0.3,0.2s0.1,0.3,0.2,0.3C61.2,20.5,61.4,20.4,61.4,20.2L61.4,20.2z M49.4,21.2
						c0-0.1-0.1-0.2-0.2-0.3c-0.2,0-0.3,0.1-0.3,0.2s0.1,0.3,0.2,0.3C49.2,21.4,49.4,21.3,49.4,21.2L49.4,21.2z M62.5,23.3
						c-0.2,0-0.3,0.1-0.3,0.2s0.1,0.2,0.3,0.3c0.2,0,0.3-0.1,0.3-0.2C62.8,23.5,62.6,23.3,62.5,23.3L62.5,23.3z M59.8,19.4
						c-0.2,0-0.3,0.1-0.3,0.2s0.1,0.2,0.2,0.3c0.2,0,0.3-0.1,0.3-0.2C60.1,19.5,60,19.4,59.8,19.4L59.8,19.4z M58.5,24
						c0-0.1-0.1-0.2-0.2-0.2c0.1,0,0.2-0.2,0.1-0.3c-0.1-0.1-0.2-0.2-0.4-0.1s-0.2,0.2-0.1,0.3c0,0.1,0.2,0.1,0.3,0.1
						c-0.1,0-0.2,0.1-0.2,0.2s0.1,0.2,0.3,0.3C58.4,24.2,58.5,24.1,58.5,24L58.5,24z M42.3,27.6c0.1,0.1,0.2,0.2,0.4,0.1
						c0.1,0,0.2-0.2,0.1-0.3c-0.1-0.1-0.2-0.2-0.4-0.1C42.3,27.3,42.2,27.5,42.3,27.6L42.3,27.6z M62.7,20.8
						c-0.1-0.1-0.2-0.2-0.4-0.1c-0.1,0-0.2,0.2-0.1,0.3c0.1,0.1,0.2,0.2,0.4,0.1C62.7,21,62.8,20.9,62.7,20.8z"/>
				</g>
				<path class="st2" d="M41.4,28.6l0.2-0.4l0,0c0.1,0,0.3,0.1,0.3,0.2s-0.1,0.3-0.2,0.3C41.5,28.8,41.4,28.7,41.4,28.6L41.4,28.6z
					 M42.9,25.8l0.2-0.3c0.1-0.1,0.3,0,0.4,0.1c0.1,0.1,0.1,0.3-0.1,0.3C43.2,26,43,26,42.9,25.8C42.9,25.9,42.9,25.9,42.9,25.8
					L42.9,25.8z M44.6,28c-0.1,0-0.2,0.2-0.2,0.3c0.1,0.1,0.2,0.2,0.4,0.2s0.2-0.2,0.2-0.3C44.9,28,44.7,28,44.6,28L44.6,28z M45,30
					c0.1,0.1,0.3,0.1,0.4,0.1c0.1-0.1,0.2-0.2,0.1-0.3c-0.1-0.1-0.3-0.1-0.4-0.1C45,29.8,45,29.9,45,30L45,30z M47.6,28.4
					c0.1,0.1,0.3,0.1,0.4,0c0.1-0.1,0.1-0.2,0-0.3c-0.1-0.1-0.3-0.1-0.4,0C47.5,28.1,47.5,28.3,47.6,28.4z"/>
			</g>
		</g>
	</g>
	<g>
		<path class="st3" d="M76.1,48.8L76.1,48.8c0.1,0,0.2,0.1,0.2,0.2v7.5l0,0h-0.4l0,0V49C75.9,48.9,76,48.8,76.1,48.8z"/>
		<path class="st4" d="M76.4,49c0.1,0.3,0,0.8,0.3,1.2c0.1,0.2,0.5,0.5,0.6,0.6c0.3,0.1,0.5,0.1,0.5,0.2c0,0,0,0,0,0.1
			c-0.7,0.2-1.2-0.5-1.5-1v0.4c0.1,0.1,0.1,0.2,0.1,0.3c0.2,0.3,0.8,0.7,1.1,0.8c0.1,0,0.4,0,0.4,0.2c-0.3,0.2-1.1-0.2-1.4-0.6
			c0,0-0.2-0.2-0.2-0.3v0.7c0,0.1,0.1,0.2,0.2,0.3c0.4,0.6,1.2,1,1.8,1.1c0.1,0,0.1,0.2,0,0.2c-0.6,0.1-1.3-0.4-1.7-0.8
			c-0.1-0.1-0.2-0.3-0.3-0.3v0.5c0.2,0.5,0.9,1.1,1.5,1.2c0.2,0.1,0.4,0,0.6,0.1c0.1,0,0.1,0.1,0.1,0.2c-0.3,0.1-0.9,0.1-1.5-0.3
			c-0.1-0.1-0.5-0.4-0.7-0.6v0.1h-0.4c-0.2,0.2-0.5,0.5-0.6,0.5c-0.9,0.7-1.8,0.2-1.3,0.1c0.2-0.1,0.3,0,0.5,0c0.5,0,1.1-0.5,1.4-1
			v-0.6c-0.1,0.1-0.2,0.2-0.2,0.2c-0.4,0.3-1.2,0.9-1.7,0.7c-0.1,0-0.1-0.2,0-0.2c0.6-0.1,1.4-0.5,1.8-1.1l0.1-0.1V51
			c-0.1,0.1-0.1,0.1-0.1,0.1c-0.3,0.4-1.2,0.9-1.4,0.6c0-0.1,0.3-0.2,0.4-0.2c0.4-0.1,0.9-0.5,1.1-0.8l0,0V50c0,0.1-0.1,0.2-0.1,0.2
			c-0.2,0.4-0.9,1.1-1.3,0.8c-0.1-0.2,0.1,0.2,0-0.1s0.4,0,1.1-0.9c0.1-0.2,0.2-0.5,0.2-0.8v-0.3C75.9,48.8,76.3,48.6,76.4,49z"/>
	</g>
	<g>
		<path class="st3" d="M65.9,43L65.9,43c0.1,0,0.2,0.1,0.2,0.2v6l0,0h-0.3l0,0v-6C65.8,43.1,65.8,43,65.9,43z"/>
		<path class="st4" d="M66.2,43.2c0,0.3,0,0.6,0.2,0.9c0.1,0.1,0.4,0.4,0.5,0.5c0.2,0.1,0.4,0,0.4,0.2c0,0,0,0,0,0.1
			c-0.5,0.2-1-0.4-1.2-0.8v0.3c0,0.1,0.1,0.2,0.1,0.2c0.2,0.2,0.6,0.6,0.9,0.7c0.1,0,0.3,0,0.3,0.2c-0.2,0.2-0.8-0.2-1.1-0.5
			c0,0-0.1-0.1-0.2-0.2v0.6c0,0.1,0.1,0.1,0.2,0.3c0.3,0.4,0.9,0.8,1.4,0.9c0.1,0,0.1,0.1,0,0.2c-0.4,0.1-1.1-0.4-1.4-0.6
			c0,0-0.2-0.2-0.2-0.3v0.4c0.2,0.4,0.7,0.8,1.2,1c0.2,0,0.3,0,0.5,0c0.1,0,0.1,0.1,0.1,0.2c-0.3,0.1-0.7,0.1-1.2-0.2
			c-0.1-0.1-0.4-0.3-0.5-0.5v0.1h-0.3c-0.2,0.2-0.4,0.4-0.5,0.4c-0.7,0.5-1.5,0.2-1.1,0.1c0.2,0,0.2,0,0.4,0c0.4,0,0.9-0.4,1.1-0.8
			v-0.5c-0.1,0.1-0.1,0.2-0.2,0.2c-0.3,0.3-0.9,0.7-1.4,0.6c-0.1,0,0-0.1,0-0.2c0.5-0.1,1.1-0.4,1.4-0.9c0,0,0-0.1,0.1-0.1v-0.6
			l-0.1,0.1c-0.3,0.3-1,0.7-1.1,0.4c0-0.1,0.2-0.2,0.3-0.2c0.3-0.1,0.7-0.4,0.9-0.7l0,0V44c0,0.1,0,0.1-0.1,0.1
			c-0.1,0.3-0.7,0.9-1,0.7c-0.1-0.1,0.1,0.2,0-0.1c-0.1-0.2,0.3,0,0.9-0.7c0.1-0.1,0.1-0.4,0.2-0.7V43
			C65.8,43.1,66.1,42.9,66.2,43.2z"/>
	</g>
	<g>
		<path class="st3" d="M62.8,33.7L62.8,33.7c0.1,0,0.2,0.1,0.2,0.2v4.5l0,0h-0.3l0,0v-4.5C62.6,33.8,62.7,33.7,62.8,33.7z"/>
		<path class="st4" d="M63,33.8c0,0.2,0,0.5,0.2,0.7c0.1,0.1,0.3,0.3,0.5,0.4c0.2,0.1,0.4,0,0.4,0.1l0,0c-0.5,0.1-0.9-0.3-1.1-0.6
			v0.3c0,0.1,0.1,0.1,0.1,0.2c0.1,0.2,0.6,0.4,0.8,0.5c0.1,0,0.3,0,0.3,0.1c-0.2,0.1-0.8-0.1-1-0.4c0,0-0.1-0.1-0.2-0.2v0.4
			c0,0,0.1,0.1,0.2,0.2c0.3,0.3,0.9,0.6,1.3,0.7c0.1,0,0.1,0.1,0,0.1c-0.4,0.1-1-0.3-1.3-0.5L63,35.6v0.3c0.2,0.3,0.6,0.6,1.1,0.7
			c0.1,0,0.3,0,0.4,0s0.1,0.1,0.1,0.1c-0.3,0.1-0.7,0.1-1.1-0.2c-0.1,0-0.4-0.3-0.5-0.4v0.1h-0.3c-0.1,0.1-0.4,0.3-0.4,0.3
			c-0.7,0.4-1.4,0.1-1,0.1c0.1,0,0.2,0,0.4,0c0.4,0,0.8-0.3,1-0.6v-0.4c-0.1,0.1-0.1,0.1-0.1,0.1c-0.3,0.2-0.9,0.5-1.3,0.4
			c-0.1,0,0-0.1,0-0.1c0.5-0.1,1.1-0.3,1.3-0.7c0,0,0-0.1,0.1-0.1v-0.5l-0.1,0.1c-0.3,0.2-0.9,0.5-1.1,0.3c0-0.1,0.2-0.1,0.3-0.1
			c0.3-0.1,0.7-0.3,0.8-0.5l0,0v-0.4c0,0.1,0,0.1-0.1,0.1c-0.1,0.2-0.7,0.7-1,0.5c-0.1-0.1,0.1,0.1,0,0c-0.1-0.2,0.3,0,0.9-0.6
			c0.1-0.1,0.1-0.3,0.2-0.5v-0.2C62.6,33.7,62.9,33.6,63,33.8z"/>
	</g>
	<g>
		<path class="st3" d="M52.7,36.7L52.7,36.7c0.1,0,0.2,0.1,0.2,0.2v4.5l0,0h-0.3l0,0v-4.5C52.6,36.8,52.6,36.7,52.7,36.7z"/>
		<path class="st4" d="M53,36.8c0,0.2,0,0.5,0.2,0.7c0.1,0.1,0.3,0.3,0.5,0.4c0.2,0.1,0.4,0,0.4,0.1l0,0c-0.5,0.1-0.9-0.3-1.1-0.6
			v0.3c0,0.1,0.1,0.1,0.1,0.2c0.1,0.2,0.6,0.4,0.8,0.5c0.1,0,0.3,0,0.3,0.1c-0.2,0.1-0.8-0.1-1-0.4c0,0-0.1-0.1-0.2-0.2v0.4
			c0,0,0.1,0.1,0.2,0.2c0.3,0.3,0.9,0.6,1.3,0.7c0.1,0,0.1,0.1,0,0.1c-0.4,0.1-1-0.3-1.3-0.5L53,38.6v0.3c0.2,0.3,0.6,0.6,1.1,0.7
			c0.1,0,0.3,0,0.4,0c0.1,0,0.1,0.1,0.1,0.1c-0.3,0.1-0.7,0.1-1.1-0.2c-0.1,0-0.4-0.3-0.5-0.4v0.1h-0.3c-0.1,0.1-0.4,0.3-0.4,0.3
			c-0.7,0.4-1.4,0.1-1,0.1c0.1,0,0.2,0,0.4,0c0.4,0,0.8-0.3,1-0.6v-0.4c-0.1,0.1-0.1,0.1-0.1,0.1c-0.3,0.2-0.9,0.5-1.3,0.4
			c-0.1,0,0-0.1,0-0.1c0.5-0.1,1.1-0.3,1.3-0.7c0,0,0-0.1,0.1-0.1v-0.5l-0.1,0.1c-0.3,0.2-0.9,0.5-1.1,0.3c0-0.1,0.2-0.1,0.3-0.1
			c0.3-0.1,0.7-0.3,0.8-0.5l0,0v-0.4c0,0.1,0,0.1-0.1,0.1c-0.1,0.2-0.7,0.7-1,0.5c-0.1-0.1,0.1,0.1,0,0c-0.1-0.2,0.3,0,0.9-0.6
			c0.1-0.1,0.1-0.3,0.2-0.5v-0.2C52.6,36.7,52.9,36.6,53,36.8z"/>
	</g>
</g>
</svg>
