<?xml version="1.0" encoding="utf-8"?>
<!-- Generator: Adobe Illustrator 24.0.3, SVG Export Plug-In . SVG Version: 6.00 Build 0)  -->
<svg version="1.1" id="Layer_1" xmlns="http://www.w3.org/2000/svg" xmlns:xlink="http://www.w3.org/1999/xlink" x="0px" y="0px"
	 viewBox="0 0 99.4 120" style="enable-background:new 0 0 99.4 120;" xml:space="preserve">
<style type="text/css">
	.st0{fill-rule:evenodd;clip-rule:evenodd;fill:#EBEBEB;}
	.st1{fill-rule:evenodd;clip-rule:evenodd;fill:#FFFFFF;}
	.st2{fill-rule:evenodd;clip-rule:evenodd;fill:#E4E1E2;}
	.st3{fill-rule:evenodd;clip-rule:evenodd;fill:#582100;}
	.st4{fill-rule:evenodd;clip-rule:evenodd;fill:#6C898A;}
</style>
<g>
	<path class="st0" d="M96.8,72.3c3.5,9.2-39.7-44.1-42.7-50.9c-1.5-3.4-3.3-7.2-7.9-11.8c-2.4-2.3-4.5-4.5-8.2-2.9
		c-8.6,3.8-13,18.2-18.7,24.8c-3.3,3.8-3.1,4.9-7.8,9c-6.8,6-10.2,4.8,1.4,10.8c4.6,2.3,27.8,9.4,33.6,9.6
		c9.5,0.2,11.4,8.9,23.3,7.5C72.4,68.1,94.4,73.5,96.8,72.3z"/>
	<path class="st1" d="M26.4,20c0.4,2.1-0.6,6.4-0.6,6.4c1.1,0.2,8.7-3,9.6-3.9c1.9,0.4,4.1,3.8,5.5,4c0.1-0.7,5.1-2.5,5.6-3.2
		c1.5-1.8,7.2,4.4,11.3,5.3c0-0.6,0-1.3-0.1-1.9c-4.7-9-7-13.1-11.5-17.1c-2.5-2.2-4.5-4.5-8.2-2.9C33.1,8.9,29.6,14.4,26.4,20z"/>
	<g>
		<path class="st2" d="M26.5,20.5c0,0.2,0,0.3,0,0.5c0.1,0.1,0.2,0.1,0.3,0c0.2-0.1,0.2-0.3,0.1-0.4C26.8,20.5,26.6,20.5,26.5,20.5
			L26.5,20.5L26.5,20.5z M34.1,19.5c0.2,0,0.3,0.1,0.3,0.3c0,0.2-0.2,0.3-0.4,0.3c-0.2,0-0.3-0.2-0.3-0.3
			C33.7,19.6,33.9,19.5,34.1,19.5L34.1,19.5z M30.1,18.2c0.2,0,0.3,0.2,0.3,0.3c0,0.1-0.2,0.3-0.4,0.2c-0.2,0-0.3-0.1-0.3-0.3
			C29.8,18.3,29.9,18.2,30.1,18.2z"/>
		<g>
			<g>
				<path class="st2" d="M27.5,26.1c0.2-0.1,0.4-0.1,0.6-0.2c0,0,0,0-0.1-0.1c-0.1-0.1-0.3-0.1-0.5,0C27.5,26,27.4,26.1,27.5,26.1
					L27.5,26.1z M51,14.9c-0.1-0.1-0.1-0.2-0.2-0.2C50.8,14.8,50.8,14.8,51,14.9C50.9,14.9,50.9,14.9,51,14.9L51,14.9z M43.5,7.3
					c-0.1-0.1-0.3-0.2-0.4-0.3c0,0,0,0-0.1,0c-0.1,0.1-0.2,0.2-0.2,0.4c0.1,0.1,0.3,0.2,0.4,0.1C43.4,7.5,43.5,7.4,43.5,7.3
					L43.5,7.3z M42.7,6.8c-0.2-0.1-0.4-0.2-0.5-0.3l0,0l0,0c-0.2-0.1-0.3-0.1-0.5-0.2c-0.1,0.1-0.1,0.2-0.1,0.4
					c0.1,0.1,0.3,0.2,0.5,0.1c0.1,0,0-0.1,0.1-0.2c0,0.1,0,0.2,0.1,0.3C42.4,7,42.6,6.9,42.7,6.8L42.7,6.8z M40.2,6.2
					c-0.2,0-0.4,0-0.6,0.1c0,0,0,0,0.1,0.1c0.1,0.1,0.3,0.1,0.5,0C40.2,6.3,40.2,6.2,40.2,6.2L40.2,6.2z M43.2,15.9
					c-0.1,0.1-0.3,0.1-0.5,0c-0.1-0.1-0.1-0.3,0-0.4c0.1-0.1,0.4-0.1,0.5,0C43.3,15.7,43.3,15.8,43.2,15.9L43.2,15.9z M38.5,18.6
					c0.1,0.1,0.1,0.3,0,0.4c-0.1,0.1-0.3,0.1-0.5,0c-0.2-0.1-0.2-0.3,0-0.4C38.2,18.5,38.4,18.5,38.5,18.6L38.5,18.6z M46.3,15.8
					c0-0.1,0.1-0.3,0.3-0.3c0.2,0,0.3,0.1,0.4,0.2c0,0.1-0.1,0.3-0.3,0.3C46.6,16,46.4,15.9,46.3,15.8L46.3,15.8z M39.8,11.1
					c0,0.2-0.1,0.3-0.3,0.3c-0.2,0-0.4-0.1-0.4-0.2c0-0.1,0.1-0.3,0.3-0.3C39.6,10.9,39.7,10.9,39.8,11.1L39.8,11.1z M44.2,16.4
					c-0.1,0-0.2,0-0.2-0.1c-0.1-0.1,0-0.3,0.2-0.4c0.2-0.1,0.4,0,0.4,0.2c0.1,0.1,0,0.3-0.2,0.4C44.3,16.5,44.3,16.4,44.2,16.4
					c0.2,0,0.4,0.1,0.4,0.2c0,0.1-0.1,0.3-0.3,0.3c-0.2,0-0.4-0.1-0.4-0.2C43.9,16.5,44,16.4,44.2,16.4L44.2,16.4z M40,19.3
					c0.2-0.1,0.4,0,0.4,0.2c0.1,0.2,0,0.3-0.2,0.4c-0.2,0-0.4,0-0.4-0.2C39.8,19.5,39.8,19.3,40,19.3L40,19.3z M41.8,12.2
					c0.1-0.1,0.3-0.2,0.4-0.2c0.2,0.1,0.3,0.2,0.2,0.4c-0.1,0.2-0.3,0.2-0.5,0.2C41.9,12.5,41.8,12.3,41.8,12.2L41.8,12.2z
					 M47.5,11.6c0.1,0.1,0,0.3-0.1,0.4c-0.1,0.1-0.4,0-0.4-0.1c-0.1-0.1-0.1-0.3,0.1-0.4C47.2,11.4,47.5,11.4,47.5,11.6L47.5,11.6z
					 M31.6,14.3c-0.1-0.1,0-0.3,0.1-0.4c0.1-0.1,0.3,0,0.4,0.1c0.1,0,0.1-0.1,0.1-0.1c0.2,0,0.4,0.1,0.4,0.2c0,0.1-0.1,0.3-0.3,0.3
					c-0.1,0-0.2-0.1-0.2-0.1c0,0,0,0.1,0,0.1C31.9,14.5,31.7,14.5,31.6,14.3L31.6,14.3z M31.6,17.4c0.1,0.1,0,0.3-0.1,0.4
					c-0.1,0.1-0.4,0-0.4-0.1c-0.1-0.1-0.1-0.3,0.1-0.4C31.3,17.2,31.5,17.3,31.6,17.4L31.6,17.4z M40.6,6.8c0.2-0.1,0.3,0,0.5,0.1
					c0.1,0.1,0,0.3-0.1,0.4c-0.2,0.1-0.4,0-0.5-0.1C40.4,7.1,40.4,6.9,40.6,6.8L40.6,6.8z M32.1,14.6c-0.1,0.1-0.2,0.3-0.1,0.4
					c0.1,0.1,0.3,0.2,0.5,0.1c0.1-0.1,0.2-0.2,0.1-0.4C32.4,14.5,32.2,14.5,32.1,14.6L32.1,14.6z M41.6,18.2c0.2,0,0.3,0.1,0.3,0.3
					c0,0.2-0.1,0.3-0.3,0.3c-0.2,0-0.4-0.1-0.3-0.3C41.3,18.4,41.4,18.2,41.6,18.2L41.6,18.2z M36.2,10.3c0-0.2,0.1-0.3,0.3-0.3
					c0.2,0,0.4,0.1,0.3,0.3c0,0.1-0.1,0.3-0.3,0.3C36.3,10.6,36.2,10.5,36.2,10.3L36.2,10.3z M41.6,20.4c0.2,0,0.3,0.1,0.3,0.3
					c0,0.2-0.1,0.3-0.3,0.3c-0.2,0-0.4-0.1-0.3-0.3C41.2,20.5,41.4,20.4,41.6,20.4L41.6,20.4z M38.2,7.4c0.2,0,0.3,0.1,0.3,0.3
					c0,0.2-0.1,0.3-0.3,0.3c-0.2,0-0.3-0.1-0.3-0.3C37.9,7.5,38,7.4,38.2,7.4L38.2,7.4z M46.1,17.1c0.2-0.1,0.4,0,0.5,0.2
					c0.1,0.1,0,0.3-0.2,0.4c-0.2,0.1-0.4,0-0.4-0.1C45.9,17.4,46,17.2,46.1,17.1L46.1,17.1z M29.3,17.8c0.2,0,0.4,0,0.4,0.2
					c0.1,0.1,0,0.3-0.2,0.4c-0.2,0-0.4,0-0.4-0.2C29.1,18,29.1,17.8,29.3,17.8L29.3,17.8z M40.4,10.2c0.2-0.1,0.3,0,0.4,0.1
					c0.1,0.1,0,0.3-0.2,0.4c-0.2,0-0.4,0-0.4-0.2C40.2,10.5,40.3,10.3,40.4,10.2L40.4,10.2z M48,12.4c0.2-0.1,0.4,0,0.5,0.2
					c0.1,0.1,0,0.3-0.2,0.4c-0.2,0.1-0.4,0-0.4-0.1C47.8,12.6,47.8,12.5,48,12.4L48,12.4z M33.6,12.4c0-0.1,0.2-0.2,0.4-0.2
					c0.2,0,0.3,0.2,0.2,0.3c0,0.1-0.2,0.2-0.4,0.2C33.7,12.7,33.5,12.6,33.6,12.4L33.6,12.4z M45.5,14.1c0-0.1,0.2-0.3,0.4-0.3
					c0.2,0,0.3,0.1,0.3,0.3c0,0.2-0.2,0.3-0.4,0.3C45.6,14.4,45.4,14.3,45.5,14.1L45.5,14.1z M29.8,18.7c0-0.1-0.1-0.1-0.1-0.2
					c0.1-0.1,0.3-0.2,0.4-0.2c0.2,0,0.3,0.2,0.2,0.3c-0.1,0.1-0.3,0.2-0.4,0.2C29.9,18.9,29.9,18.9,29.8,18.7c0,0.2-0.1,0.3-0.3,0.3
					c-0.2,0-0.3-0.1-0.3-0.3c0-0.2,0.2-0.3,0.3-0.3C29.7,18.5,29.8,18.6,29.8,18.7L29.8,18.7z M38.5,14.2c0,0.2-0.1,0.3-0.3,0.3
					c-0.2,0-0.3-0.1-0.3-0.3c0-0.2,0.2-0.3,0.3-0.3C38.4,13.9,38.5,14,38.5,14.2L38.5,14.2z M39.8,20.2c0.1-0.1,0.3-0.1,0.5,0
					c0.2,0.1,0.2,0.3,0,0.4c-0.1,0.1-0.3,0.1-0.5,0C39.7,20.5,39.7,20.3,39.8,20.2L39.8,20.2z M34.4,16.1c0,0.2-0.1,0.3-0.3,0.3
					c-0.2,0-0.3-0.1-0.4-0.2c0-0.1,0.1-0.3,0.3-0.3C34.2,15.8,34.4,15.9,34.4,16.1L34.4,16.1z M41.1,13c0,0.2-0.1,0.3-0.3,0.3
					c-0.2,0-0.3-0.1-0.4-0.3c0-0.2,0.1-0.3,0.3-0.3C40.9,12.8,41.1,12.9,41.1,13L41.1,13z M40.4,13.1c0,0.2-0.1,0.3-0.3,0.3
					c-0.2,0-0.3-0.1-0.4-0.2c0-0.2,0.1-0.3,0.3-0.3C40.2,12.9,40.3,13,40.4,13.1L40.4,13.1z M48.9,22.6c0,0.2-0.1,0.3-0.3,0.3
					c-0.2,0-0.3-0.1-0.4-0.2c0-0.2,0.1-0.3,0.3-0.3C48.7,22.3,48.8,22.4,48.9,22.6L48.9,22.6z M39.1,12.3c0.1-0.1,0.2-0.2,0.4-0.1
					c0.2,0.1,0.2,0.2,0.2,0.4c-0.1,0.1-0.3,0.2-0.4,0.1C39.1,12.6,39,12.4,39.1,12.3L39.1,12.3z M39.7,24.2
					c-0.2-0.1-0.2-0.2-0.2-0.4c0.1-0.1,0.3-0.2,0.4-0.1c0.2,0.1,0.2,0.2,0.2,0.4C40,24.2,39.9,24.2,39.7,24.2L39.7,24.2z M44.6,18.2
					C44.7,18,44.9,18,45,18c0.2,0.1,0.2,0.2,0.2,0.4c-0.1,0.1-0.2,0.2-0.4,0.1C44.6,18.5,44.5,18.3,44.6,18.2L44.6,18.2z M48.4,20.4
					c-0.2-0.1-0.2-0.2-0.2-0.4c0.1-0.1,0.3-0.2,0.4-0.1c0.2,0.1,0.2,0.2,0.2,0.4C48.7,20.4,48.5,20.5,48.4,20.4L48.4,20.4z
					 M30.7,15.8c0.1-0.1,0.3-0.2,0.4-0.1c0.2,0.1,0.3,0.2,0.2,0.4c-0.1,0.1-0.3,0.2-0.5,0.1C30.7,16.2,30.7,16,30.7,15.8L30.7,15.8z
					 M30.8,23.9c0.2-0.1,0.4,0,0.4,0.2c0.1,0.1,0,0.3-0.2,0.4c-0.2,0-0.4,0-0.4-0.2C30.5,24.1,30.6,23.9,30.8,23.9L30.8,23.9z
					 M26.8,21.7c0.1-0.1,0.3-0.2,0.4-0.2c0.2,0.1,0.2,0.2,0.2,0.4c-0.1,0.1-0.3,0.2-0.4,0.2C26.8,22,26.7,21.8,26.8,21.7z"/>
				<path class="st2" d="M26.1,26.5c0.1,0,0.2,0,0.3-0.1c-0.1,0-0.2,0-0.2,0C26.2,26.4,26.1,26.5,26.1,26.5L26.1,26.5z M38.8,25.1
					c0.1,0.1,0.2,0.2,0.3,0.3C39.1,25.2,39,25.1,38.8,25.1C38.8,25.1,38.8,25.1,38.8,25.1L38.8,25.1z M55.6,22.8l-0.3-0.5
					c0,0,0,0-0.1,0c-0.1,0.1-0.2,0.2-0.1,0.4C55.3,22.8,55.5,22.9,55.6,22.8L55.6,22.8z M51.9,16.3c-0.1-0.1-0.2-0.3-0.3-0.4
					c-0.1,0-0.1,0-0.2,0.1c-0.1,0.1-0.1,0.3,0,0.4C51.5,16.4,51.7,16.4,51.9,16.3C51.8,16.3,51.9,16.3,51.9,16.3L51.9,16.3z
					 M41.4,6.3c-0.2-0.1-0.4-0.1-0.6-0.1l0,0c0,0.2,0.2,0.3,0.3,0.3C41.3,6.5,41.4,6.4,41.4,6.3L41.4,6.3z M39.8,6.2
					c-0.2,0-0.4,0.1-0.6,0.1c0,0.1,0,0.1,0.1,0.2c0.1,0.1,0.3,0.1,0.5,0C39.8,6.4,39.8,6.3,39.8,6.2L39.8,6.2z M38,6.7L38,6.7
					c-0.2,0.1-0.4,0.2-0.5,0.2c0.1,0,0.2,0.1,0.3,0.1C37.9,7,38,6.9,38,6.7L38,6.7z M37.1,7.2c-0.2,0.1-0.4,0.2-0.5,0.3
					c0.1,0,0.2,0.1,0.3,0.1C37,7.5,37.1,7.4,37.1,7.2C37.1,7.2,37.1,7.2,37.1,7.2L37.1,7.2z M35.5,8.2c-0.1,0.1-0.2,0.1-0.3,0.2
					C35.3,8.4,35.4,8.4,35.5,8.2C35.5,8.2,35.5,8.2,35.5,8.2L35.5,8.2z M33.3,10.1l-0.1,0.1C33.3,10.2,33.3,10.1,33.3,10.1
					L33.3,10.1z M30.1,14L30.1,14C30,14.1,30,14.2,30,14.2c0,0.1,0,0.2,0.1,0.2c0,0-0.1,0-0.1,0c-0.2,0-0.3,0.2-0.3,0.3
					c0,0.2,0.2,0.2,0.4,0.2c0.2,0,0.3-0.2,0.3-0.3c0-0.1-0.1-0.1-0.1-0.2l0,0c0.2,0,0.4-0.1,0.3-0.3c0-0.1-0.1-0.3-0.3-0.3
					C30.3,13.9,30.2,14,30.1,14L30.1,14z M27.7,17.8c-0.1,0.2-0.2,0.3-0.3,0.5c0.1,0.1,0.2,0.1,0.3,0.1c0.2,0,0.3-0.1,0.3-0.3
					c0,0,0.1,0.1,0.2,0.1c0.2,0,0.3,0,0.4-0.2c0-0.1-0.1-0.3-0.2-0.3c-0.2-0.1-0.4,0-0.4,0.2c0,0,0,0.1,0,0.1
					C27.8,17.9,27.8,17.9,27.7,17.8L27.7,17.8z M34.5,19c0.1,0.1,0.2,0.2,0.2,0.4c-0.1,0.1-0.3,0.2-0.4,0.1
					c-0.2-0.1-0.3-0.2-0.2-0.4C34.1,19,34.3,19,34.5,19L34.5,19z M38.4,8.4c0.1,0,0.1,0.1,0.1,0.2C38.5,8.5,38.5,8.4,38.4,8.4
					C38.5,8.3,38.4,8.4,38.4,8.4L38.4,8.4z M38.6,8.2c0.1-0.1,0.3-0.1,0.4,0c0.1,0.1,0.1,0.3,0,0.4c-0.1,0.1-0.3,0.1-0.5,0l0,0
					c0,0.1-0.1,0.3-0.3,0.3c-0.2,0-0.4-0.1-0.4-0.2c0-0.1,0-0.2,0.2-0.3c-0.1,0-0.1-0.1-0.2-0.1c-0.1-0.1,0-0.3,0.2-0.4
					c0.2,0,0.4,0,0.4,0.2C38.6,8.1,38.6,8.1,38.6,8.2L38.6,8.2z M43.1,23.7c0-0.1,0.1-0.3,0.3-0.3c0.2,0,0.3,0.1,0.4,0.2
					c0,0.1-0.1,0.3-0.3,0.3C43.3,24,43.1,23.9,43.1,23.7L43.1,23.7z M43.4,17.5c0,0.2-0.1,0.3-0.3,0.3c-0.2,0-0.4-0.1-0.4-0.2
					c0-0.2,0.1-0.3,0.3-0.3C43.2,17.3,43.4,17.4,43.4,17.5L43.4,17.5z M30.7,15.4c0-0.2,0.1-0.3,0.3-0.3c0.2,0,0.4,0.1,0.4,0.2
					c0,0.1-0.1,0.3-0.3,0.3C30.9,15.6,30.7,15.5,30.7,15.4L30.7,15.4z M40.8,22.9c0-0.1,0.1-0.3,0.3-0.3c0,0,0-0.1,0.1-0.1
					c0.2,0,0.4,0.1,0.4,0.2c0,0.1-0.1,0.3-0.3,0.3c0,0,0,0,0,0c0,0,0,0.1,0,0.1C41,23.2,40.9,23.1,40.8,22.9L40.8,22.9z M47.5,16.4
					c-0.2,0.1-0.4,0-0.4-0.2c-0.1-0.1,0-0.3,0.2-0.4c0.2-0.1,0.4,0,0.4,0.2C47.7,16.2,47.6,16.4,47.5,16.4L47.5,16.4z M42.8,12.5
					c-0.2,0-0.4,0-0.4-0.2c-0.1-0.1,0-0.3,0.2-0.4c0.1-0.1,0.3,0,0.4,0.1c0.1-0.1,0.1-0.2,0.3-0.2c0.2,0,0.3,0.1,0.3,0.3
					c0,0.1-0.2,0.3-0.4,0.2c-0.1,0-0.2-0.1-0.2-0.2C42.9,12.3,42.9,12.4,42.8,12.5L42.8,12.5z M28.6,23.8c0.2-0.1,0.4,0,0.4,0.2
					c0.1,0.1,0,0.3-0.2,0.4c-0.2,0.1-0.4,0-0.4-0.2C28.4,24,28.5,23.8,28.6,23.8L28.6,23.8z M52.2,17.3c0.2-0.1,0.3,0,0.4,0.2
					c0.1,0.1,0,0.3-0.2,0.3c-0.2,0.1-0.3,0-0.4-0.1C51.9,17.5,52,17.4,52.2,17.3L52.2,17.3z M28.8,18.9c-0.2,0.1-0.3,0-0.4-0.2
					c-0.1-0.1,0-0.3,0.2-0.4c0.2-0.1,0.4,0,0.4,0.2C29.1,18.7,29,18.9,28.8,18.9L28.8,18.9z M40.3,16.9c-0.2,0.1-0.4,0-0.4-0.1
					c-0.1-0.2,0-0.3,0.2-0.4c0.2-0.1,0.4,0,0.4,0.2C40.6,16.6,40.5,16.8,40.3,16.9L40.3,16.9z M42.3,7.4c0,0.1-0.2,0.2-0.4,0.2
					c-0.2-0.1-0.3-0.2-0.2-0.4C41.8,7,42,7,42.1,7C42.3,7.1,42.4,7.2,42.3,7.4L42.3,7.4z M47.8,18.9c-0.1,0.1-0.3,0.2-0.4,0.2
					c-0.2,0-0.3-0.2-0.2-0.3c0.1-0.1,0.3-0.2,0.4-0.2C47.8,18.5,47.9,18.7,47.8,18.9L47.8,18.9z M33.4,20.5
					c-0.1,0.2-0.3,0.2-0.4,0.2c-0.2-0.1-0.3-0.2-0.2-0.3c0-0.1,0.2-0.2,0.4-0.2C33.4,20.2,33.5,20.4,33.4,20.5L33.4,20.5z M35,11.2
					c0.1-0.2,0.3-0.2,0.5-0.2c0.2,0,0.2,0.2,0.2,0.4c-0.1,0.1-0.3,0.2-0.4,0.2C35,11.5,35,11.4,35,11.2L35,11.2z M41.6,11
					c0.2-0.1,0.3,0,0.4,0.1c0.1,0.1,0,0.3-0.1,0.4c-0.2,0.1-0.3,0-0.4-0.1C41.4,11.2,41.4,11,41.6,11L41.6,11z M40.7,24
					c0,0.1,0,0.1-0.1,0.2c0.1,0,0.3-0.1,0.3,0c0.1,0.1,0.1,0.3,0,0.4c-0.1,0.1-0.3,0.1-0.5,0c-0.1-0.1,0-0.1,0-0.2
					c-0.2,0-0.3,0-0.4-0.1c-0.1-0.1,0-0.3,0.1-0.4C40.4,23.8,40.6,23.9,40.7,24L40.7,24z M50.1,21.8c0-0.1,0.2-0.3,0.3-0.3
					c0.2,0,0.3,0.1,0.3,0.3c0,0.1-0.1,0.3-0.3,0.3C50.3,22.1,50.1,21.9,50.1,21.8L50.1,21.8z M52.8,20.7c0.2,0,0.3,0.1,0.3,0.3
					c0,0.2-0.2,0.3-0.3,0.3c-0.2,0-0.3-0.1-0.3-0.3C52.4,20.8,52.6,20.7,52.8,20.7L52.8,20.7z M41.8,23c-0.2,0-0.3,0.1-0.3,0.3
					c0,0.1,0.2,0.3,0.4,0.3c0.2,0,0.3-0.1,0.3-0.3C42.1,23.2,41.9,23,41.8,23L41.8,23z M48,21.5c0.2,0,0.4,0.1,0.3,0.3
					c0,0.1-0.1,0.3-0.3,0.3c-0.2,0-0.3-0.1-0.4-0.3C47.7,21.7,47.8,21.5,48,21.5L48,21.5z M29.3,23c0.2,0,0.3,0.1,0.3,0.3
					c0,0.1-0.2,0.3-0.3,0.3c-0.2,0-0.3-0.1-0.4-0.3C29,23.1,29.2,23,29.3,23L29.3,23z M51.3,19.8c0,0.2-0.2,0.3-0.3,0.3
					c-0.2,0-0.4-0.1-0.3-0.3c0-0.2,0.2-0.3,0.3-0.3C51.2,19.5,51.3,19.6,51.3,19.8L51.3,19.8z M53.4,19.7c-0.2,0.1-0.4,0-0.4-0.1
					c-0.1-0.1,0-0.3,0.2-0.4c0.2-0.1,0.4,0,0.5,0.2C53.7,19.5,53.6,19.6,53.4,19.7L53.4,19.7z M32.8,15.1c0.2,0,0.4,0,0.4,0.2
					c0.1,0.1,0,0.3-0.2,0.4c-0.2,0-0.3,0-0.4-0.2C32.6,15.3,32.7,15.2,32.8,15.1L32.8,15.1z M51.4,22c-0.2,0.1-0.3,0-0.4-0.1
					c-0.1-0.2,0-0.3,0.2-0.4c0.2-0.1,0.4,0,0.5,0.2C51.6,21.8,51.6,21.9,51.4,22L51.4,22z M38.6,7.3c-0.2,0.1-0.3,0.2-0.2,0.3
					c0.1,0.2,0.3,0.2,0.4,0.2C39,7.7,39.1,7.6,39,7.4C39,7.3,38.8,7.2,38.6,7.3L38.6,7.3z M34.1,18.2c-0.2,0.1-0.4,0-0.4-0.1
					c-0.1-0.1,0-0.3,0.2-0.4c0.2,0,0.4,0,0.4,0.2C34.4,17.9,34.3,18.1,34.1,18.2L34.1,18.2z M40.3,20.3c-0.2,0.1-0.3,0-0.4-0.1
					c-0.1-0.1,0-0.3,0.2-0.4c0.2-0.1,0.4,0,0.5,0.2C40.5,20.1,40.4,20.2,40.3,20.3L40.3,20.3z M40.5,12.2c0.2,0,0.4,0,0.4,0.2
					c0.1,0.1,0,0.3-0.2,0.4c-0.1,0.1-0.3,0-0.4-0.1C40.3,12.4,40.4,12.3,40.5,12.2L40.5,12.2z M45.4,17.7c0.2,0,0.3,0.2,0.2,0.3
					c0,0.1-0.2,0.2-0.4,0.2c-0.1,0-0.3-0.2-0.2-0.3C45,17.8,45.2,17.7,45.4,17.7L45.4,17.7z M35.3,9.2c0.2,0,0.3,0.2,0.2,0.3
					c0,0.1-0.2,0.2-0.4,0.2c-0.2,0-0.3-0.2-0.2-0.3C35,9.3,35.1,9.2,35.3,9.2L35.3,9.2z M38.1,12.3c0.2,0,0.3,0.2,0.2,0.3
					c0,0.2-0.2,0.2-0.4,0.2c-0.2,0-0.3-0.2-0.2-0.3C37.7,12.4,37.9,12.3,38.1,12.3L38.1,12.3z M36.1,11.7c-0.2,0-0.3-0.2-0.2-0.3
					c0-0.1,0.2-0.2,0.4-0.2c0.2,0,0.3,0.2,0.2,0.4C36.5,11.7,36.3,11.8,36.1,11.7L36.1,11.7z M41.2,9.4c0-0.2,0.2-0.3,0.4-0.3
					c0.2,0,0.3,0.1,0.3,0.3c0,0.1-0.2,0.3-0.4,0.2C41.3,9.7,41.2,9.6,41.2,9.4L41.2,9.4z M31.2,20.5c0.2,0,0.3,0.2,0.3,0.3
					c0,0.1-0.2,0.3-0.4,0.2c-0.2,0-0.3-0.2-0.3-0.3C30.8,20.6,31,20.5,31.2,20.5L31.2,20.5z M38.5,12.5c0.2,0,0.3-0.1,0.4-0.3
					c0-0.2-0.1-0.3-0.3-0.3c-0.2,0-0.3,0.1-0.4,0.3C38.2,12.3,38.3,12.5,38.5,12.5L38.5,12.5z M33.8,14.9c0-0.2,0.2-0.3,0.3-0.3
					c0.2,0,0.3,0.1,0.3,0.3c0,0.2-0.2,0.3-0.3,0.2C33.9,15.1,33.8,15,33.8,14.9L33.8,14.9z M32.6,11.2c0.1-0.1,0.3-0.1,0.5,0
					c0.1,0.1,0.1,0.3,0,0.4c-0.1,0.1-0.3,0.1-0.5,0C32.4,11.5,32.4,11.3,32.6,11.2L32.6,11.2z M34.8,18c0.1-0.1,0.3-0.1,0.5,0
					c0.1,0.1,0.1,0.3,0,0.4c-0.1,0.1-0.3,0.1-0.5,0C34.6,18.3,34.6,18.2,34.8,18L34.8,18z M37.6,11.8c-0.1,0.1-0.1,0.3,0,0.4
					c0.1,0.1,0.3,0.1,0.5,0c0.1-0.1,0.1-0.3,0-0.4C38,11.7,37.8,11.7,37.6,11.8L37.6,11.8z M38.2,10c0.1-0.1,0.3-0.1,0.5,0
					c0.1,0.1,0.1,0.3,0,0.4c-0.1,0.1-0.3,0.1-0.5,0C38.1,10.3,38.1,10.1,38.2,10L38.2,10z M44.3,16.9c0.1-0.1,0.3-0.1,0.5,0
					c0.2,0.1,0.1,0.3,0,0.4c-0.1,0.1-0.3,0.1-0.5,0C44.2,17.2,44.1,17,44.3,16.9L44.3,16.9z M45.7,10.8c0.2,0,0.3,0.1,0.4,0.3
					c0,0.1-0.1,0.3-0.3,0.3c-0.2,0-0.3-0.1-0.4-0.2C45.4,10.9,45.5,10.8,45.7,10.8L45.7,10.8z M32.2,12.8c0-0.2,0.1-0.3,0.3-0.3
					c0.2,0,0.4,0.1,0.4,0.2c0,0.2-0.1,0.3-0.3,0.3C32.4,13,32.2,12.9,32.2,12.8L32.2,12.8z M46.2,13.8c0-0.2,0.1-0.3,0.3-0.3
					c0.2,0,0.4,0.1,0.4,0.3c0,0.1-0.1,0.3-0.3,0.3C46.3,14.1,46.2,14,46.2,13.8L46.2,13.8z M31,16.4c0.2,0,0.3,0.1,0.4,0.2
					c0,0.2-0.1,0.3-0.3,0.3c-0.2,0-0.3-0.1-0.4-0.2C30.6,16.5,30.8,16.4,31,16.4L31,16.4z M34,11.8c0.2,0,0.3,0.1,0.4,0.2
					c0,0.2-0.1,0.3-0.3,0.3c-0.2,0-0.4-0.1-0.4-0.2C33.7,11.9,33.9,11.8,34,11.8L34,11.8z M35.6,17.1c0-0.1,0.1-0.2,0.2-0.2
					c-0.1-0.1-0.2-0.2-0.1-0.3c0.1-0.1,0.3-0.2,0.4-0.1c0.2,0.1,0.2,0.2,0.2,0.4c-0.1,0.1-0.2,0.1-0.3,0.1c0.1,0,0.3,0.1,0.3,0.2
					c0,0.2-0.1,0.3-0.3,0.3C35.7,17.4,35.6,17.3,35.6,17.1L35.6,17.1z M54.4,21.3c-0.1,0.1-0.3,0.2-0.5,0.1
					c-0.1-0.1-0.2-0.2-0.2-0.4c0.1-0.1,0.3-0.2,0.4-0.1C54.4,21,54.5,21.2,54.4,21.3L54.4,21.3z M30.7,13.4c0.1-0.1,0.3-0.2,0.5-0.1
					c0.1,0.1,0.2,0.2,0.2,0.4c-0.1,0.1-0.3,0.2-0.4,0.1C30.7,13.7,30.6,13.5,30.7,13.4z"/>
			</g>
			<path class="st2" d="M55.5,22.5l-0.2-0.4l0,0c-0.2,0-0.3,0.1-0.4,0.2c0,0.2,0.1,0.3,0.3,0.3C55.3,22.7,55.4,22.6,55.5,22.5
				L55.5,22.5z M53.7,19.2l-0.2-0.3c-0.2-0.1-0.3,0-0.4,0.1c-0.1,0.1-0.1,0.3,0.1,0.4c0.1,0.1,0.4,0.1,0.5-0.1
				C53.7,19.3,53.7,19.3,53.7,19.2L53.7,19.2z M51.8,21.8c0.2,0,0.3,0.2,0.2,0.3c-0.1,0.1-0.2,0.2-0.4,0.2c-0.2,0-0.3-0.2-0.2-0.3
				C51.4,21.8,51.6,21.7,51.8,21.8L51.8,21.8z M51.2,24.1c-0.1,0.1-0.3,0.2-0.5,0.1c-0.1-0.1-0.2-0.2-0.1-0.4
				c0.1-0.1,0.3-0.2,0.5-0.1C51.3,23.8,51.3,24,51.2,24.1L51.2,24.1z M48.3,22.2c-0.1,0.1-0.3,0.1-0.5,0c-0.2-0.1-0.2-0.3,0-0.4
				c0.1-0.1,0.3-0.1,0.5,0C48.4,21.9,48.4,22.1,48.3,22.2z"/>
		</g>
	</g>
</g>
<g>
	<path class="st3" d="M48.5,31.1L48.5,31.1c0.2,0,0.3,0.1,0.3,0.3v10c0,0,0,0,0,0h-0.5c0,0,0,0,0,0v-10
		C48.2,31.2,48.4,31.1,48.5,31.1z"/>
	<path class="st4" d="M48.9,31.3c0.1,0.4,0.1,1.1,0.3,1.6c0.1,0.2,0.6,0.7,0.9,0.8c0.4,0.2,0.6,0.1,0.7,0.3c0,0,0,0,0,0.1
		c-0.9,0.3-1.7-0.7-2-1.4v0.6c0.1,0.2,0.2,0.3,0.2,0.4c0.3,0.4,1,1,1.5,1.1c0.1,0,0.5,0,0.5,0.3c-0.4,0.3-1.4-0.3-1.9-0.8
		c0,0-0.2-0.2-0.3-0.3v0.9c0.1,0.1,0.2,0.2,0.3,0.4c0.5,0.8,1.6,1.3,2.4,1.5c0.1,0,0.2,0.2,0.1,0.3c-0.7,0.2-1.8-0.6-2.3-1.1
		c-0.1-0.1-0.3-0.4-0.4-0.4v0.7c0.3,0.7,1.1,1.4,2,1.7c0.3,0.1,0.5,0,0.8,0.1c0.2,0.1,0.2,0.1,0.2,0.3c-0.5,0.1-1.2,0.2-2-0.4
		c-0.1-0.1-0.7-0.6-0.9-0.8v0.1h-0.6c-0.3,0.3-0.6,0.6-0.8,0.7c-1.3,0.9-2.5,0.3-1.8,0.1c0.3-0.1,0.4,0,0.7,0
		c0.7-0.1,1.5-0.7,1.9-1.4v-0.8c-0.1,0.1-0.2,0.3-0.3,0.3c-0.5,0.5-1.6,1.2-2.3,1c-0.1,0-0.1-0.2,0.1-0.3c0.8-0.2,1.9-0.7,2.4-1.5
		c0-0.1,0.1-0.1,0.1-0.2v-1c-0.1,0.1-0.1,0.2-0.2,0.2c-0.5,0.5-1.6,1.2-1.9,0.7c0-0.2,0.4-0.3,0.5-0.3c0.5-0.1,1.2-0.7,1.5-1.1
		c0,0,0,0,0-0.1v-0.9c0,0.1-0.1,0.2-0.1,0.2c-0.2,0.5-1.2,1.5-1.7,1.1c-0.1-0.2,0.1,0.3,0-0.1c-0.2-0.4,0.6,0,1.5-1.2
		c0.2-0.2,0.2-0.7,0.3-1.1v-0.4C48.2,31.1,48.8,30.8,48.9,31.3z"/>
</g>
</svg>
