<?xml version="1.0" encoding="utf-8"?>
<!-- Generator: Adobe Illustrator 24.0.3, SVG Export Plug-In . SVG Version: 6.00 Build 0)  -->
<svg version="1.1" id="Layer_1" xmlns="http://www.w3.org/2000/svg" xmlns:xlink="http://www.w3.org/1999/xlink" x="0px" y="0px"
	 viewBox="0 0 39.7 28.8" style="enable-background:new 0 0 39.7 28.8;" xml:space="preserve">
<style type="text/css">
	.st0{fill:#9A846F;}
	.st1{fill:#8B5854;}
</style>
<g>
	<g>
		<path class="st0" d="M7.5,13.5c-0.2,0.1-0.9-1.9-0.2-2.5c0.3-0.2,0.7-0.2,1.1-0.3c0.3-0.1,0.7-0.2,1.2-0.6c0.4-0.3,0.4-0.7,0.6-1
			c0.1-0.3,0.3-0.5,0.6-0.7c0.3-0.3,0.7-0.3,1.1-0.3c0.4,0,0.7,0.1,1.1,0.1c0.4,0,0.8-0.1,1.1-0.2c0.5-0.1,0.9,0,1.3,0.2
			c-0.1,0.4-0.4,0.7-0.5,1c-0.1,0.3-0.3,0.5-0.5,0.6c0.7,0.7,1.5,1.3,1.8,1.3c0.3,0,0.7-0.2,1-0.3c0.9-0.3,1.9-0.4,2.8,0.1
			c0.3,0.2,0.6,0.5,1,0.7c0.4,0.3,0.9,0.4,1.4,0.5c1,0.2,1.6,0.1,2.6-0.2c0.7-0.2,1.6,0,2.3,0.2c0.7,0.3,1.4,0.7,1.9,1.2
			c0.4,0.4,0.7,0.6,0.9,1.1c0.3,0.6,0.5,1.1,0.5,1.8c0,0.1,0,0.4-0.2,0.3c-0.2-0.1-0.4-0.6-0.5-0.8c-0.1,0.8-0.3,1.6-0.7,2.3
			c-0.4,0.6-0.4,1.2-0.2,1.7c0.2,0.5,0.6,0.7,0.8,0.9c0.3,0.2,0.2,0.6,0.3,1c0.2,0.7,0.2,1.1,0.5,1.8c0.1,0.4,0.4,0.7,0.5,1.1
			c0.1,0.4,0.3,0.6,0.7,0.8c0,0.1-0.1,1.2-0.5,1.3c-0.1-0.2-0.1-0.3-0.2-0.4c0,0-0.2-0.6-0.2-0.8c-0.1,0-0.7-1.4-1-2
			c-0.2-0.5-0.4-0.9-0.6-1.4c0-0.2-0.1-0.4-0.2-0.5c-0.1-0.2-0.3-0.2-0.5-0.3c-0.6-0.3-0.6-0.6-1.1-0.9c-0.1,0.6-0.8,1.2-1,1.6
			c-0.3,0.5-0.8,1.9-1,2.4c-0.1,0.3-0.1,1.2-0.4,1.7c-0.2,0.3-0.1,0.7-0.2,0.8c-0.2,0.1-0.8,0.2-1-0.2c0.2-0.1,0.4-0.3,0.6-0.6
			c0.2-0.2,1-3.4,1.1-4.1c0-0.6-0.6-0.4-0.7-2.3c0-0.3,0-0.9,0-1.1c-0.8,0.5-1.4,0.7-2.8,0.5c-1-0.2-1.7-0.9-1.9-0.9
			c-0.2,0.1-0.2,0.5-0.3,0.8c-0.1,0.5-0.2,1.1-0.2,1.6c0,0.4-0.1,0.9-0.1,1.3c0,0.9,0.5,2.4,0.6,3c0.1,0.4,0,0.7,0.2,1
			c0.2,0.3,0.2,0.4,0.2,0.8c-0.2,0.2-0.7,0.3-1.1,0.3c0-0.1,0.2-0.5,0.2-0.7c0-0.2-0.5-3-0.6-3.3c0-0.2-0.5-0.9-0.5-1.1
			c0-0.2-0.2-1.6-0.2-1.8c-0.1-0.5,0,1.8-0.4,2.8c-0.2,0.4-0.1,0.9-0.1,1.3c0,0.5,0,0.9,0,1.4c0,0.1-0.1,0.4,0,0.8
			c0,0.2,0.1,0.6,0.1,0.8c-0.1,0.2-0.4,0.2-0.6,0.2c-0.3,0-0.5,0-0.7-0.3c0.3-0.4,0.3-0.2,0.4-0.7c0.1-0.7,0.1-2,0.1-2.7
			c-0.1-1.4-0.1-2.9-0.5-4.2c-0.2-0.6-0.4-0.9-0.9-1.2c-0.7-0.4-1.3-0.8-1.5-1.5c-0.4-1.4-0.6-2.3-1.7-3.8c-0.3-0.3-0.6-0.8-0.6-0.8
			s-0.3,0.4-0.5,0.5c-0.7,0.4-1,0.3-1.9,0.2c-0.1,0.4-0.5,1.1-0.8,1c-0.1,0-0.1-0.5-0.3-0.3C7.9,13.9,7.5,13.5,7.5,13.5z"/>
	</g>
	<g>
		<path class="st1" d="M12.5,8.3c0.4-0.7,0.9-1.7,1.8-1.4c1.5,0.5,2.2,0.6,2.9,0.7c1.8,0.1,3.2,0,4.5-1.2c0.7-0.6,1.3-1.5,1.2-2
			c-0.2-0.2-0.6,0.4-0.9,0.6c-0.1,0.1-0.9,0.5-0.8,0.2c0-0.2,1-0.7,0.7-0.9c-0.2-0.2-1.4,0.6-1.6,0.7c-0.2,0.1-0.8,0.4-0.9,0
			c0-0.2-0.1-0.5-0.4-0.4c-0.2,0.1-1.9,1.2-2,0.9c-0.1-0.2,1.3-1,1.2-1.2c0,0-0.3-0.1-1,0.4c-0.2,0.1-0.4,0.3-0.9,0.2
			c-0.3-0.1,0.2-0.3,0.3-0.3c0.3-0.2,0.9-0.5,0.8-0.8c0-0.2-0.5,0-0.6,0.1c-0.1,0-0.5,0.2-0.4-0.1c0.2-0.2,1-0.6,0.8-1
			c-0.2-0.4-1.2,0.1-1.5,0.2c-0.9,0.4-1.3,0.9-1.9,1.9c-0.3,0.5-0.5,0.9-1,1.4c-0.2,0-0.1-0.6,0-0.9c0.5-1.7,1.1-2,1-2.2
			c-0.1-0.2-0.7,0.5-0.8,0.6C12,4.9,12.1,6,11.8,6.1c-0.1,0-0.2-0.3-0.1-0.6c0.1-0.5,0.2-0.7,0.2-1c0-0.3-0.1-0.3-0.4,0
			c-0.2,0.2-0.3,0.5-0.3,0.8c-0.1,0.4-0.4,1.1-0.9,0.6C9.7,5.3,9.9,4.7,9.9,4c0-0.3-0.1-0.7-0.3-0.4C9.3,3.9,9.2,4.4,9.3,4.8
			C9.2,5.2,8.9,4.2,8.9,4c0-0.2-0.1-0.4-0.1-0.6c0-0.9-0.1-0.7-0.3-0.5C8.2,3.5,8.1,3.7,8.1,4.2c0,0.6,0.2,1.2,0.5,1.7
			c0.2,0.4,0.5,0.9,1,1.1c0.4,0.2,0.9,0.2,1.4,0.3C11.4,7.4,12,8,12.5,8.3z"/>
	</g>
</g>
</svg>
