<svg id="ekt5g4wmpyj1" xmlns="http://www.w3.org/2000/svg" xmlns:xlink="http://www.w3.org/1999/xlink" viewBox="0 0 39.700000 28.800000" shape-rendering="geometricPrecision" text-rendering="geometricPrecision" width="39.700000" height="28.800000"><style><![CDATA[#ekt5g4wmpyj4_tr {animation: ekt5g4wmpyj4_tr__tr 8000ms linear infinite normal forwards}@keyframes ekt5g4wmpyj4_tr__tr { 0% {transform: translate(16.200000px,11.288442px) rotate(0deg)} 25% {transform: translate(16.200000px,11.288442px) rotate(-43.539080deg)} 26.250000% {transform: translate(16.200000px,11.288442px) rotate(-43.539080deg)} 50% {transform: translate(16.200000px,11.288442px) rotate(-43.539080deg)} 75% {transform: translate(16.200000px,11.288442px) rotate(0deg)} 100% {transform: translate(16.200000px,11.288442px) rotate(0deg)} }]]></style><g id="ekt5g4wmpyj2"><path id="ekt5g4wmpyj3" d="M16.200000,11.100000C16.500000,11.100000,16.900000,10.900000,17.200000,10.800000C18.100000,10.500000,19.100000,10.400000,20,10.900000C20.300000,11.100000,20.600000,11.400000,21,11.600000C21.400000,11.900000,21.900000,12,22.400000,12.100000C23.400000,12.300000,24,12.200000,25,11.900000C25.700000,11.700000,26.600000,11.900000,27.300000,12.100000C28,12.400000,28.700000,12.800000,29.200000,13.300000C29.600000,13.700000,29.900000,13.900000,30.100000,14.400000C30.400000,15,30.600000,15.500000,30.600000,16.200000C30.600000,16.300000,30.600000,16.600000,30.400000,16.500000C30.200000,16.400000,30,15.900000,29.900000,15.700000C29.800000,16.500000,29.600000,17.300000,29.200000,18C28.800000,18.600000,28.800000,19.200000,29,19.700000C29.200000,20.200000,29.600000,20.400000,29.800000,20.600000C30.100000,20.800000,30,21.200000,30.100000,21.600000C30.300000,22.300000,30.300000,22.700000,30.600000,23.400000C30.700000,23.800000,31,24.100000,31.100000,24.500000C31.200000,24.900000,31.400000,25.100000,31.800000,25.300000C31.800000,25.400000,31.700000,26.500000,31.300000,26.600000C31.200000,26.400000,31.200000,26.300000,31.100000,26.200000C31.100000,26.200000,30.900000,25.600000,30.900000,25.400000C30.800000,25.400000,30.200000,24,29.900000,23.400000C29.700000,22.900000,29.500000,22.500000,29.300000,22C29.300000,21.800000,29.200000,21.600000,29.100000,21.500000C29,21.300000,28.800000,21.300000,28.600000,21.200000C28,20.900000,28,20.600000,27.500000,20.300000C27.400000,20.900000,26.700000,21.500000,26.500000,21.900000C26.200000,22.400000,25.700000,23.800000,25.500000,24.300000C25.400000,24.600000,25.400000,25.500000,25.100000,26C24.900000,26.300000,25,26.700000,24.900000,26.800000C24.700000,26.900000,24.100000,27,23.900000,26.600000C24.100000,26.500000,24.300000,26.300000,24.500000,26C24.700000,25.800000,25.500000,22.600000,25.600000,21.900000C25.600000,21.300000,25,21.500000,24.900000,19.600000C24.900000,19.300000,24.900000,18.700000,24.900000,18.500000C24.100000,19,23.500000,19.200000,22.100000,19C21.100000,18.800000,20.400000,18.100000,20.200000,18.100000C20,18.200000,20,18.600000,19.900000,18.900000C19.800000,19.400000,19.700000,20,19.700000,20.500000C19.700000,20.900000,19.600000,21.400000,19.600000,21.800000C19.600000,22.700000,20.100000,24.200000,20.200000,24.800000C20.300000,25.200000,20.200000,25.500000,20.400000,25.800000C20.600000,26.100000,20.600000,26.200000,20.600000,26.600000C20.400000,26.800000,19.900000,26.900000,19.500000,26.900000C19.500000,26.800000,19.700000,26.400000,19.700000,26.200000C19.700000,26,19.200000,23.200000,19.100000,22.900000C19.100000,22.700000,18.600000,22,18.600000,21.800000C18.600000,21.600000,18.400000,20.200000,18.400000,20C18.300000,19.500000,18.400000,21.800000,18,22.800000C17.800000,23.200000,17.900000,23.700000,17.900000,24.100000C17.900000,24.600000,17.900000,25,17.900000,25.500000C17.900000,25.600000,17.800000,25.900000,17.900000,26.300000C17.900000,26.500000,18,26.900000,18,27.100000C17.900000,27.300000,17.600000,27.300000,17.400000,27.300000C17.100000,27.300000,16.900000,27.300000,16.700000,27C17,26.600000,17,26.800000,17.100000,26.300000C17.200000,25.600000,17.200000,24.300000,17.200000,23.600000C17.100000,22.200000,17.100000,20.700000,16.700000,19.400000C16.500000,18.800000,16.300000,18.500000,15.800000,18.200000C15.100000,17.800000,14.500000,17.400000,14.300000,16.700000" fill="rgb(154,132,111)" stroke="none" stroke-width="1"/><g id="ekt5g4wmpyj4_tr" transform="translate(16.200000,11.288442) rotate(0)"><g id="ekt5g4wmpyj4" transform="translate(-16.200000,-11.288442)"><path id="ekt5g4wmpyj5" d="M14.300000,16.700000C13.900000,15.300000,13.700000,14.400000,12.600000,12.900000C12.300000,12.600000,12,12.100000,12,12.100000C12,12.100000,11.700000,12.500000,11.500000,12.600000C10.800000,13,10.500000,12.900000,9.600000,12.800000C9.500000,13.200000,9.100000,13.900000,8.800000,13.800000C8.700000,13.800000,8.700000,13.300000,8.500000,13.500000C7.900000,13.900000,7.500000,13.500000,7.500000,13.500000C7.300000,13.600000,6.600000,11.600000,7.300000,11C7.600000,10.800000,8,10.800000,8.400000,10.700000C8.700000,10.600000,9.100000,10.500000,9.600000,10.100000C10,9.800000,10,9.400000,10.200000,9.100000C10.300000,8.800000,10.500000,8.600000,10.800000,8.400000C11.100000,8.100000,11.500000,8.100000,11.900000,8.100000C12.300000,8.100000,12.600000,8.200000,13,8.200000C13.400000,8.200000,13.800000,8.100000,14.100000,8C14.600000,7.900000,15,8,15.400000,8.200000C15.300000,8.600000,15,8.900000,14.900000,9.200000C14.800000,9.500000,14.600000,9.700000,14.400000,9.800000C15.100000,10.500000,15.900000,11.100000,16.200000,11.100000" fill="rgb(154,132,111)" stroke="none" stroke-width="1"/><path id="ekt5g4wmpyj6" d="M12.500000,8.300000C12.900000,7.600000,13.400000,6.600000,14.300000,6.900000C15.800000,7.400000,16.500000,7.500000,17.200000,7.600000C19,7.700000,20.400000,7.600000,21.700000,6.400000C22.400000,5.800000,23,4.900000,22.900000,4.400000C22.700000,4.200000,22.300000,4.800000,22,5C21.900000,5.100000,21.100000,5.500000,21.200000,5.200000C21.200000,5,22.200000,4.500000,21.900000,4.300000C21.700000,4.100000,20.500000,4.900000,20.300000,5C20.100000,5.100000,19.500000,5.400000,19.400000,5C19.400000,4.800000,19.300000,4.500000,19,4.600000C18.800000,4.700000,17.100000,5.800000,17,5.500000C16.900000,5.300000,18.300000,4.500000,18.200000,4.300000C18.200000,4.300000,17.900000,4.200000,17.200000,4.700000C17,4.800000,16.800000,5,16.300000,4.900000C16,4.800000,16.500000,4.600000,16.600000,4.600000C16.900000,4.400000,17.500000,4.100000,17.400000,3.800000C17.400000,3.600000,16.900000,3.800000,16.800000,3.900000C16.700000,3.900000,16.300000,4.100000,16.400000,3.800000C16.600000,3.600000,17.400000,3.200000,17.200000,2.800000C17,2.400000,16,2.900000,15.700000,3C14.800000,3.400000,14.400000,3.900000,13.800000,4.900000C13.500000,5.400000,13.300000,5.800000,12.800000,6.300000C12.600000,6.300000,12.700000,5.700000,12.800000,5.400000C13.300000,3.700000,13.900000,3.400000,13.800000,3.200000C13.700000,3,13.100000,3.700000,13,3.800000C12,4.900000,12.100000,6,11.800000,6.100000C11.700000,6.100000,11.600000,5.800000,11.700000,5.500000C11.800000,5,11.900000,4.800000,11.900000,4.500000C11.900000,4.200000,11.800000,4.200000,11.500000,4.500000C11.300000,4.700000,11.200000,5,11.200000,5.300000C11.100000,5.700000,10.800000,6.400000,10.300000,5.900000C9.700000,5.300000,9.900000,4.700000,9.900000,4C9.900000,3.700000,9.800000,3.300000,9.600000,3.600000C9.300000,3.900000,9.200000,4.400000,9.300000,4.800000C9.200000,5.200000,8.900000,4.200000,8.900000,4C8.900000,3.800000,8.800000,3.600000,8.800000,3.400000C8.800000,2.500000,8.700000,2.700000,8.500000,2.900000C8.200000,3.500000,8.100000,3.700000,8.100000,4.200000C8.100000,4.800000,8.300000,5.400000,8.600000,5.900000C8.800000,6.300000,9.100000,6.800000,9.600000,7C10,7.200000,10.500000,7.200000,11,7.300000C11.400000,7.400000,12,8,12.500000,8.300000Z" fill="rgb(139,88,84)" stroke="none" stroke-width="1"/></g></g></g></svg>