<?xml version="1.0" encoding="utf-8"?>
<!-- Generator: Adobe Illustrator 24.0.3, SVG Export Plug-In . SVG Version: 6.00 Build 0)  -->
<svg version="1.1" id="Layer_1" xmlns="http://www.w3.org/2000/svg" xmlns:xlink="http://www.w3.org/1999/xlink" x="0px" y="0px"
	 viewBox="0 0 61.5 39.7" style="enable-background:new 0 0 61.5 39.7;" xml:space="preserve">
<style type="text/css">
	
		.st0{fill-rule:evenodd;clip-rule:evenodd;fill:none;stroke:#633536;stroke-width:0.2811;stroke-linecap:round;stroke-linejoin:round;stroke-miterlimit:22.9256;}
	.st1{fill:#3C7432;}
	.st2{fill-rule:evenodd;clip-rule:evenodd;fill:#34A442;}
	.st3{fill-rule:evenodd;clip-rule:evenodd;fill:#571B16;}
</style>
<g>
	<path class="st0" d="M32.4,39.6c0-0.8-0.1-1.3-0.3-1.4c-0.1,0-0.2,0.6-0.2,1.4 M32.4,39.6c0-1.4-0.1-2.7-0.2-3.4
		c-0.2,0.4-0.2,1.9-0.2,3.4 M32.2,39.6c0.1-1.7-0.1-3.6-0.6-4.9c-0.1,0.2,0,2.7,0,4.9 M31.9,39.6c0.2-2.6,0.5-5.1,0.1-8
		c-0.1,0.2-0.2,4.3,0,4.5c0-1.9,0.4-4.8-0.4-6.6c-0.2,0.7-0.1,3,0.1,3.6c0.1-2.6,0.5-3.7-0.1-6.4c-0.3,0.3-0.5,3.8,0.1,4.1
		c0.1-0.8,0-6.2-0.6-6.3c-0.1,0.5-0.2,3.1,0.6,3.2c0-0.9,0.1-5.1-0.4-5.6c-0.1,0.2-0.2,2.8-0.1,3.1c0-0.6,0.3-5.2,0.3-5.3l-0.2,0.8
		c-0.1,0.5-0.3,3.3,0,3.7c-0.2-1.4,0.7-5.4,0.1-7.1c-0.2,0.5-0.6,4.1-0.2,4.6c0.3-0.6,0.5-5,0-5.2c0,0-0.1,1.8-0.1,2l0.1-0.4
		c0.3-1,0-3.4,0-3.5c0,0.2,0,0.5,0.1,0.7c0.2-0.2,0.1-1.1,0.1-1.4c0,0.1,0,0.2,0,0.3c0-0.1-0.1-0.3-0.1-0.4"/>
	<g>
		<path class="st1" d="M31.5,13.3c-0.1,0.2-0.2,0.5-0.3,0.9l0,0.1c0,0,0,0.1,0,0.1h0l-0.1,0.3v0l0,0c-0.1,0.3-0.2,0.5-0.4,0.8l0,0.1
			c0,0,0.1,0,0.1,0c0.1,0,0.1,0.1,0,0.1l0,0c0,0-0.1,0.1-0.1,0.2c0,0.1,0,0.1,0,0.2c0,0,0,0.1,0,0.1c0,0,0.1,0.1,0.1,0.1l0,0v0
			c0,0.1,0,0.3-0.1,0.6c0,0.2-0.1,0.4-0.1,0.5l0,0c0,0,0-0.1,0.1-0.1c0-0.1,0.1-0.1,0.1-0.2v0c0,0,0,0,0.1,0c0.1,0,0.1,0,0.2,0.1
			c0.2,0.4-0.1,1.1-0.4,1.6c0.1-0.1,0.1-0.1,0.2-0.2c0.1-0.1,0.2-0.3,0.3-0.4c0,0,0.1-0.1,0.2,0c0,0,0.1,0.1,0.1,0.1h0
			c0,0.5,0,1.5-0.2,2.4c0,0,0,0,0,0c0.1,0,0.1,0.1,0,0.2L31.1,21c-0.1,0.4-0.2,0.7-0.3,1l0.1-0.2c0.1-0.1,0.2-0.2,0.2-0.3
			c0,0,0.1-0.1,0.2,0c0.1,0,0.1,0.1,0.1,0.1c0,0,0,0.1-0.1,0.2l0,0l0.2-0.1l0,0c0,0,0.1,0,0.1,0c0.1,0,0.1,0.1,0.1,0.1
			c-0.1,0.3-0.7,1.2-1.3,1.9c0,0-0.1,0.1-0.1,0.1c-0.1,0.2-0.1,0.3-0.1,0.5c0.3-0.2,0.7-0.9,1-1.3c0.1-0.2,0.2-0.4,0.3-0.4
			c0.1,0,0.1,0,0.2,0c0,0,0,0.1,0,0.1c-0.4,0.7-0.6,1.3-0.8,1.7c0.1-0.1,0.2-0.2,0.2-0.3c0.1,0,0.1,0,0.2,0c0,0,0,0.1,0,0.1l0,0
			c-0.1,0.3-0.4,0.7-0.6,1.1c0,0.2-0.1,0.4-0.2,0.7c0,0,0,0,0,0c0,0,0,0.1,0,0.1c0,0.1-0.1,0.3-0.3,0.5l0,0c0,0,0.1,0,0.1,0
			c0.1,0,0.1,0.1,0.1,0.1c0.2-0.3,0.5-0.6,0.6-0.8l0,0c-0.1,0-0.1-0.1,0-0.2l0.1-0.1c0,0,0.1,0,0.1,0c0,0,0,0,0.1,0l0,0
			c0.1,0,0.1,0,0.2,0.1c0,0,0,0,0,0l0,0c0.1,0.3-0.1,0.7-0.2,1.1l0,0.1c0.1-0.2,0.2-0.4,0.3-0.4c0.1,0,0.1,0,0.1,0.1c0,0,0,0,0,0
			c0,0.1,0,0.4-0.1,0.6c0,0,0.1,0,0.1,0c0.1,0,0.1,0.1,0.1,0.1l0,0c-0.2,1.3-1,2.3-1.5,2.9l-0.1,0.1c0,0,0,0.1-0.1,0.2
			c0,0,0.1,0,0.1,0c0,0,0,0,0.1,0c0.5-0.5,0.9-1,1.1-1.1l0.3-0.2c0.1,0,0.1,0,0.2,0c0.1,0,0.1,0.1,0,0.2c-0.1,0.1-0.2,0.2-0.4,0.4
			c0,0,0,0,0,0c0,0.1-0.1,0.3-0.3,0.5c0,0,0,0.1,0,0.1v0c0,0,0,0.1,0,0.1c0.2,0,0.8,0,1.1-0.1l0-0.1l0,0c0-0.1,0.1-0.2,0.1-0.2
			c0,0,0.1-0.1,0.2,0c0,0,0,0.1,0,0.1l0,0c0,0.2,0,0.2-0.1,0.3l0,0c0,0,0,0,0,0c-0.1,0.1-0.2,0.3-0.3,0.5c-0.1,0.3-0.4,0.6-0.8,1
			c0,0.2-0.2,0.8-0.5,1.4c0.1,0,0.1,0.1,0.1,0.1c0,0-0.1,0.1-0.2,0.3c-0.1,0.1-0.1,0.2-0.2,0.3c-0.1,0.2-0.2,0.5-0.3,0.7
			c0.2-0.2,0.4-0.3,0.4-0.3c0.1,0,0.1,0,0.2,0.1c0,0,0,0,0,0c0,0,0,0,0,0.1v0l0,0c0,0,0,0,0,0.1c0,0,0.1,0,0.1,0c0,0,0,0.1,0,0.1
			l0,0l-0.1,0.1c0,0,0,0,0,0c-0.2,0.3-0.5,0.8-0.7,1c-0.3,0.4-0.7,0.9-1.1,1.4c-0.2,0.3-0.5,0.7-0.7,0.9c0,0.1,0,0.2,0,0.3
			c0.1-0.2,0.2-0.4,0.3-0.6c0.2-0.3,0.3-0.6,0.4-0.7c0,0,0.1-0.1,0.2,0c0-0.1,0.1-0.1,0.1-0.1c0-0.1,0.1-0.1,0.2-0.1
			c0.1,0,0.1,0.1,0.1,0.2c0,0-0.1,0.2-0.2,0.3l0,0.1c0,0.2-0.1,0.4-0.3,0.5l0,0l-0.1,0.1c0,0-0.1,0.1-0.2,0v0
			c-0.3,0.5-0.6,1.1-0.9,1.1l0,0l0,0c-0.1,0-0.1-0.1-0.1-0.1c0-0.2,0.1-0.3,0.2-0.5l0,0c-0.1,0.1-0.2,0.3-0.4,0.5l-0.1,0.2h-1.6
			l0.1-0.1l0,0c0,0,0,0,0-0.1v0c-0.1,0.1-0.1,0.1-0.2,0.2h-0.4c0.2-0.2,0.4-0.4,0.6-0.5c-0.2,0.2-0.4,0.3-0.7,0.5h-0.4
			c0.7-0.5,1.3-1.1,1.5-1.2l0,0c0,0,0.1,0,0.1,0c0.1,0,0.1,0.1,0.1,0.1c0,0,0,0,0,0.1c0.3-0.3,0.7-0.5,1-0.8c0,0,0-0.1,0-0.1
			c0,0,0,0,0-0.1c0-0.1,0.2-0.2,0.3-0.3c0,0,0-0.1,0-0.1c0,0,0,0,0,0h0c0-0.1,0.4-0.5,0.9-1.1c0.3-0.3,0.6-0.7,0.9-1.1l0.1-0.1
			c0,0,0-0.1,0-0.1c0.1-0.2,0.2-0.5,0.3-0.8c0,0.1-0.1,0.1-0.1,0.1c0,0-0.1,0.1-0.2,0c-0.1,0-0.1-0.1,0-0.2c0,0,0.1-0.1,0.1-0.2
			c0.1-0.2,0.2-0.5,0.3-0.8c-0.4,0.3-0.7,0.5-1,0.7c-0.1,0.1-0.2,0.2-0.3,0.2c0,0-0.1,0-0.1,0c0,0-0.1,0-0.1,0
			c-0.3,0.3-0.8,0.5-1.2,0.8l0,0c0,0,0.1,0.1,0,0.1c0,0,0,0,0,0c-0.2,0.1-0.5,0.3-0.8,0.6c-0.5,0.4-1.2,0.8-1.8,1.2
			c-0.3,0.3-0.9,0.6-1.6,0.8c-1,0.7-1.9,1.4-2.3,1.4l0,0c-0.1,0-0.1,0-0.1-0.1c0,0,0,0,0,0c-0.1,0.1-0.2,0.1-0.4,0.2
			c-0.4,0.2-0.9,0.4-1,0.5h-0.1c0,0-0.1-0.1-0.1-0.1c0-0.1,0.2-0.3,0.5-0.4c-0.6,0.1-1.4,0.2-1.6,0.2h0l0,0c-0.1,0-0.1-0.1-0.1-0.1
			c0-0.2,0.2-0.4,0.5-0.5c0,0-0.1,0-0.1-0.1c0-0.1,0-0.1,0.1-0.1c0.6-0.1,1.1-0.3,1.7-0.5c0.6-0.2,1.2-0.5,1.7-0.5l0.5-0.1v0
			c0,0,0.1,0,0.1,0c0,0,0,0.1,0,0.1c0.1-0.1,0.2-0.1,0.4-0.2l0,0l0,0c0,0,0,0,0-0.1c0,0,0,0,0,0c-0.1,0-0.1-0.1-0.1-0.1
			c0,0,0,0,0.1-0.1l0,0c0.1,0,0.1-0.1,0.2-0.1c0.1-0.1,0.3-0.2,0.4-0.3c0,0,0,0,0-0.1c0-0.1,0-0.1,0.1-0.1c0.1,0,0.4-0.2,0.8-0.4
			c0.6-0.3,1.3-0.7,1.9-1c0.5-0.3,1-0.6,1.2-0.8c-0.5,0.2-1.8,0.8-2.7,1.3c-0.3,0.2-0.6,0.3-0.8,0.4c-0.3,0.1-0.5,0.2-0.6,0.3
			l-0.1-0.2c0.1,0,0.3-0.1,0.6-0.3c0.3-0.2,0.6-0.4,1-0.6c0,0,0,0,0-0.1c0,0,0-0.1,0-0.1c0.5-0.5,1.5-1.3,2.4-2l0.3-0.3
			c0.4-0.4,0.8-0.8,1.1-1.1c0.5-0.7,1.1-1.5,1.5-1.8v0c0,0,0,0,0,0c0,0,0.1,0,0.1,0c0.2-0.3,0.4-0.5,0.7-0.8l0,0
			c0.1-0.1,0.1-0.2,0.2-0.3c-0.1,0-0.1-0.1-0.1-0.1c0-0.1,0.1-0.3,0.1-0.6c0-0.2,0.1-0.3,0.1-0.5c-0.1,0.1-0.1,0.2-0.2,0.3
			c-0.1,0-0.1,0-0.2,0c-0.2-0.2,0-0.6,0.2-1c0.1-0.3,0.2-0.6,0.2-0.8c-0.2,0.4-0.8,1.1-1.2,1.7c-0.2,0.3-0.4,0.5-0.5,0.6
			c0,0,0,0-0.1,0c-0.2,0.2-0.4,0.5-0.7,0.8c-0.1,0.2-0.3,0.5-0.6,0.7c-0.3,0.4-0.9,0.9-1.5,1.4c-0.7,0.5-1.5,0.9-2,0.8c0,0,0,0,0,0
			l-0.1,0c-0.5,0.3-0.9,0.4-1.5,0.7c0.1,0,0.2,0,0.3,0l0,0l0.2-0.1c0.2-0.1,0.4-0.1,0.5-0.1l0,0c0,0,0.1,0,0.1,0
			c0.1,0,0.1,0.1,0.1,0.1c-0.1,0.1-0.9,0.4-1.6,0.6c-0.2,0-0.3,0.1-0.5,0.1c-0.7,0.2-1.4,0.3-1.7,0.4v0c0,0-0.1,0-0.1,0
			c0-0.1,0-0.1,0-0.2c0.1,0,0.2-0.1,0.4-0.1c-0.3,0-0.6,0-0.7,0c0,0-0.1,0-0.1,0c0-0.1,0-0.1,0-0.2l0,0c0,0-0.1-0.1-0.1-0.1
			c0-0.1,0.1-0.1,0.1-0.1v0h0c0.1,0,0.2-0.1,0.4-0.1c0.4-0.3,1.2-0.5,1.9-0.7c0.3-0.1,0.6-0.2,0.8-0.2l0,0l0,0c0-0.1,0-0.1,0.1-0.1
			c0.1,0,0.3-0.2,0.6-0.3c0.3-0.2,0.6-0.5,0.9-0.7c0.7-0.5,1.5-1,2.1-1.2l0,0c0.1,0,0.1,0,0.2,0c0,0,0,0.1,0,0.2
			c-0.1,0-0.7,0.4-1.5,0.9c0.6-0.3,1.2-0.7,1.8-1c0,0,0.1-0.1,0.2-0.1c0.1-0.1,0.2-0.2,0.3-0.3c0.1-0.1,0.1-0.2,0.2-0.3l0.2-0.2
			c-0.2,0.2-0.3,0.3-0.5,0.4c0,0-0.1,0-0.1,0c-0.1,0-0.1-0.1-0.1-0.1c0-0.1,0.1-0.2,0.1-0.3c-0.1,0-0.1-0.1-0.1-0.1
			c0-0.1,0.6-1,1.2-1.9c0.5-0.8,1-1.5,1.1-1.6l0,0c0,0,0.1,0,0.1,0c0,0,0,0,0.1,0c0.2-0.3,0.3-0.4,0.3-0.4c0,0,0.1,0,0.1,0
			c0-0.2,0.1-0.3,0.1-0.5c-0.2,0.3-0.4,0.5-0.7,0.5v0l0,0c-0.1,0-0.1-0.1-0.1-0.1c0-0.1,0-0.2,0-0.3c-0.1,0.1-0.3,0.2-0.4,0.2
			c0,0,0,0,0,0l-0.1,0c0,0-0.1,0.1-0.2,0.1l0,0c-0.6,0.6-1.2,1.1-1.7,1.2l0,0c0,0-0.1,0-0.1,0c0,0,0,0,0,0c-0.5,0.3-1,0.6-1.4,0.8
			c-0.1,0.1-0.3,0.2-0.5,0.3c0,0,0,0,0,0c0,0.1,0,0.1-0.1,0.1c0,0,0,0,0,0c-0.1,0-0.2,0.1-0.4,0.2c-0.2,0.1-0.3,0.2-0.5,0.3
			c-0.2,0.1-0.5,0.2-0.8,0.4c-0.6,0.3-1.1,0.5-1.3,0.5l0,0h0c0,0-0.1,0-0.1,0c-0.3,0.1-0.6,0.2-0.8,0.2c-0.1,0-0.1,0-0.1-0.1
			c0-0.1,0-0.1,0.1-0.1c0.1,0,0.3-0.1,0.5-0.2c-0.1,0-0.3,0-0.5,0c-0.1,0-0.1,0-0.1-0.1c0-0.1,0-0.1,0.1-0.1c0,0,0.1,0,0.2-0.1
			c0.1,0,0.2,0,0.3-0.1c0,0,0-0.1,0.1-0.1c0.1,0,0.1-0.1,0.2-0.1c-0.2,0-0.3,0-0.3,0v0c0,0-0.1,0-0.1,0c0-0.1,0-0.1,0-0.2
			c0.3-0.2,1.5-0.6,2.5-0.9l0,0c0.2-0.1,0.5-0.2,0.7-0.2c0.2-0.1,0.3-0.2,0.5-0.2c0.1-0.1,0.2-0.1,0.4-0.2c0,0,0,0,0-0.1
			c0,0,0-0.1,0.1-0.1c0.1-0.1,0.3-0.2,0.5-0.3c0.2-0.1,0.4-0.3,0.7-0.4c0.5-0.4,1.1-1,1.6-1.5c0.4-0.6,0.9-1.2,1.2-1.6l0.4-0.5
			c0-0.1,0.1-0.1,0.1-0.2l0,0c0-0.1,0.1-0.1,0.2-0.1c0,0,0,0,0,0c0.1-0.1,0.2-0.3,0.2-0.4c0.1-0.7,0.2-1.6,0.2-2.2l0,0.1
			c-0.1,0.1-0.2,0.2-0.3,0.3l-0.1,0.2c0,0,0,0-0.1,0c-0.1,0-0.1,0-0.2-0.1c-0.1,0.1-0.2,0.3-0.3,0.4c-0.2,0.2-0.3,0.4-0.3,0.5
			c0,0.1-0.1,0.1-0.2,0.1c0,0,0,0-0.1,0c-0.1,0.1-0.1,0.2-0.2,0.3l-0.1,0.1l-0.1,0.1c0,0,0,0,0,0c0,0,0.1-0.1,0.1-0.1
			c0.1,0,0.1,0,0.2,0.1c0,0,0,0.1,0,0.1c0,0-0.1,0.1-0.1,0.1c-0.1,0.1-0.2,0.2-0.3,0.3c-0.1,0.1-0.3,0.3-0.5,0.4
			c-0.3,0.4-0.6,0.7-0.9,0.9c0,0,0,0,0,0c0,0,0,0.1-0.1,0.1h0c-0.4,0.2-1.6,0.8-2.6,1.2c-0.2,0.1-0.5,0.2-0.7,0.2c0,0,0,0.1,0,0.1
			c0,0.1,0,0.1-0.1,0.1c-0.1,0-0.2,0-0.3,0.1c0,0,0,0.1-0.1,0.1c-0.1,0.1-0.4,0.2-0.7,0.3c-0.3,0.1-0.6,0.2-0.7,0.2c0,0-0.1,0-0.1,0
			c-0.2,0.1-0.4,0.1-0.5,0.2c-0.1,0-0.1,0-0.2,0c0,0,0-0.1,0-0.2c0,0,0.1-0.1,0.2-0.1c0,0,0-0.1,0.1-0.1c0.1-0.1,0.4-0.2,0.7-0.3
			c-0.1,0-0.2,0-0.3,0c0,0,0,0,0,0h0l0,0l0,0c0,0,0,0,0,0c0,0,0,0-0.1-0.1l0,0c-0.1,0-0.1,0-0.2-0.1c0-0.1,0-0.1,0.1-0.1l0,0
			c0.1-0.1,1-0.4,1.8-0.7l0.6-0.2c0,0,0,0,0,0c-0.1,0-0.1-0.1-0.1-0.1c0-0.1,0.8-0.6,1.7-1.3c1.1-0.8,2.3-1.6,2.5-1.8l0,0
			c0,0,0.1,0,0.1,0c0.1-0.1,0.1-0.1,0.2-0.2c0.3-0.5,0.9-1.4,1.2-1.9l0-0.1c0-0.2,0.1-0.6,0.1-0.9c0-0.2,0.1-0.4,0.1-0.5
			c0,0-0.1-0.1-0.1-0.1c-0.2,0.3-0.6,0.8-0.9,1.2c0,0.1-0.1,0.1-0.1,0.2c0,0,0,0.1,0,0.1c-0.1,0.1-0.3,0.3-0.4,0.4
			c0,0-0.1,0.1-0.1,0.1c-0.4,0.3-0.9,0.7-1.3,1c-0.2,0.1-0.3,0.2-0.5,0.3c-0.1,0.1-0.2,0.1-0.3,0.2c-0.1,0.4-0.6,0.6-1.3,0.7
			c-0.2,0-0.5,0.1-0.8,0.1c-0.5,0.1-0.9,0.2-1.2,0.2v0c-0.1,0-0.1,0-0.1-0.1l0,0c-0.2,0-0.4,0-0.5,0l0,0c0,0,0,0-0.1,0
			c-0.1,0-0.1-0.1-0.1-0.1v0l0,0v0c0-0.2,0.4-0.3,0.9-0.5c0.2-0.1,0.5-0.1,0.7-0.2c0.3-0.1,0.6-0.1,0.8-0.1c0.1,0,0.1,0,0.1,0.1l0,0
			c0.1-0.1,0.4-0.2,0.6-0.3c0.1,0,0.2-0.1,0.3-0.1c0,0,0,0,0,0c0-0.1,0-0.1,0-0.2c0.1,0,0.2-0.1,0.3-0.1c0,0,0-0.1,0-0.1
			c0.1-0.1,0.3-0.3,0.4-0.4c0.2-0.2,0.4-0.4,0.6-0.5c0,0,0-0.1,0.1-0.1c0,0,0.1,0,0.1-0.1c0.4-0.3,0.8-0.6,1.1-0.9l0.1-0.1
			c0.1-0.1,0.2-0.2,0.4-0.3c0.3-0.3,0.5-0.5,0.8-0.7c0,0,0,0,0,0l0.1,0c0.1-0.1,0.1-0.2,0.2-0.3c0-0.1,0.1-0.2,0.2-0.4l0,0
			c0.1-0.1,0.1-0.3,0.2-0.4c0.1-0.2,0.2-0.4,0.2-0.7c0.1-0.2,0.1-0.3,0.2-0.4C31.2,13.5,31.3,13.4,31.5,13.3L31.5,13.3z M29.5,17.1
			L29.5,17.1C29.4,17.2,29.4,17.2,29.5,17.1L29.5,17.1L29.5,17.1L29.5,17.1z M29.1,17.3L29.1,17.3c-0.1-0.1-0.1-0.1,0-0.2l0,0l0,0
			c0.2-0.2,0.4-0.4,0.6-0.6l-0.2,0.2l-0.2,0.1c0,0,0,0,0,0.1c-0.2,0.2-0.4,0.4-0.7,0.7c-0.3,0.2-0.5,0.4-0.7,0.5
			c-0.2,0.2-0.4,0.3-0.6,0.5c0.2-0.1,0.3-0.2,0.5-0.3c0.1-0.1,0.3-0.2,0.4-0.3c0.1-0.1,0.2-0.1,0.3-0.2c0.2-0.1,0.3-0.2,0.4-0.3
			c0,0,0.1,0,0.1,0C29,17.5,29.1,17.4,29.1,17.3L29.1,17.3z M28.2,18.1c0.1-0.1,0.2-0.1,0.3-0.2L28.2,18.1L28.2,18.1z M27.1,19.1
			c-0.2,0.1-0.3,0.1-0.5,0.2l0,0c0,0,0,0,0,0C26.9,19.3,27,19.2,27.1,19.1L27.1,19.1z M25.9,19.7c0.1,0,0.2-0.1,0.4-0.1
			c-0.1,0-0.1,0-0.2,0.1C25.9,19.6,25.9,19.7,25.9,19.7L25.9,19.7z M25.2,20C25.1,20,25.1,20,25.2,20c-0.1,0-0.2,0.1-0.4,0.1
			C24.9,20.1,25,20.1,25.2,20L25.2,20z M30.5,18L30.5,18c-0.1,0.1-0.1,0.1,0,0.1c0,0,0,0,0,0C30.5,18,30.5,18,30.5,18L30.5,18z
			 M30.4,18.3c-0.1,0.1-0.3,0.4-0.5,0.7c0,0,0.1,0,0.1-0.1c0.1,0,0.1,0,0.2,0c0,0,0,0,0,0c0-0.1,0.1-0.1,0.1-0.2
			C30.4,18.6,30.4,18.4,30.4,18.3L30.4,18.3z M29.3,19.9c-0.2,0.2-0.4,0.4-0.6,0.6l0,0c0,0-0.1,0.1-0.2,0.2c0.1-0.1,0.2-0.1,0.2-0.1
			c0.1-0.1,0.3-0.3,0.4-0.5c0.1-0.2,0.2-0.4,0.4-0.5L29.3,19.9L29.3,19.9z M27.1,21.9c0-0.1,0-0.1,0.1-0.2c-0.1,0.1-0.3,0.2-0.4,0.2
			c-0.3,0.2-0.6,0.4-0.9,0.5c0,0,0.1,0,0.1,0c0,0,0,0.1,0,0.1l0.4-0.2l0.1-0.1c0.2-0.1,0.3-0.2,0.5-0.3C27,22,27.1,21.9,27.1,21.9
			L27.1,21.9z M27.2,21.3c0.1-0.1,0.2-0.2,0.3-0.2c-0.3,0.2-0.6,0.5-1,0.7l-0.2,0.2l0.1,0C26.6,21.6,26.9,21.4,27.2,21.3L27.2,21.3z
			 M25.6,22.3l-0.1,0.1L25.6,22.3L25.6,22.3L25.6,22.3z M27.5,22.3L27.5,22.3L27.5,22.3L27.5,22.3C27.5,22.3,27.5,22.3,27.5,22.3
			L27.5,22.3z M29.5,20.7L29.5,20.7C29.5,20.7,29.5,20.7,29.5,20.7L29.5,20.7z M24.7,23.4c-0.2,0.1-0.3,0.1-0.4,0.2l0.1,0
			c0.1-0.1,0.3-0.1,0.4-0.2L24.7,23.4L24.7,23.4z M24.3,24L24.3,24C24.3,24,24.3,24,24.3,24L24.3,24z M30.8,17.8
			c0-0.1,0-0.1,0.1-0.2C30.8,17.7,30.8,17.8,30.8,17.8L30.8,17.8z M30.6,22.2c-0.1,0-0.1,0-0.2,0c0,0-0.1-0.1,0-0.1c0,0,0-0.1,0-0.1
			L30.4,22c0,0.1-0.1,0.1-0.1,0.2c0,0,0,0,0,0.1c-0.1,0.2-0.3,0.5-0.4,0.7c0.1-0.1,0.2-0.1,0.3-0.2C30.3,22.6,30.5,22.4,30.6,22.2
			L30.6,22.2z M30,22.1L30,22.1L30,22.1L30,22.1L30,22.1z M29.1,23.9c0,0-0.1-0.1,0-0.1c0.1-0.2,0.2-0.4,0.3-0.6l-0.2,0.3
			c-0.2,0.3-0.4,0.5-0.6,0.8c0.1,0,0.1,0.1,0.1,0.1c0,0,0,0,0,0.1c-0.1,0.1-0.2,0.2-0.3,0.3c0.2-0.1,0.4-0.3,0.6-0.4
			C29,24.3,29,24.1,29.1,23.9L29.1,23.9z M27.7,24.9C27.7,24.9,27.7,24.9,27.7,24.9c-0.1,0-0.3,0.1-0.4,0.2
			c-0.1,0.1-0.2,0.1-0.2,0.2l0,0c0,0,0,0,0,0c0.1,0,0.1-0.1,0.2-0.1l0,0l0,0v0c0,0,0.1,0,0.1,0C27.5,25.1,27.7,25,27.7,24.9
			C27.8,24.9,27.7,24.9,27.7,24.9L27.7,24.9z M28.7,24.5l-0.1,0.1C28.6,24.5,28.7,24.5,28.7,24.5L28.7,24.5z M24.9,26.8L24.9,26.8
			c0,0.1-0.1,0.1-0.1,0.1c0,0,0,0-0.1,0l0,0c-0.2,0-0.3,0.1-0.5,0.1c-0.1,0.1-0.3,0.1-0.4,0.2c0.3-0.1,0.6-0.2,0.8-0.2
			c0.1,0,0.2-0.1,0.3-0.1c0,0,0.1-0.1,0.1-0.1C25,26.8,25,26.8,24.9,26.8L24.9,26.8C24.9,26.8,24.9,26.8,24.9,26.8L24.9,26.8z
			 M23.4,27.1c0.1,0,0.1-0.1,0.2-0.1c-0.1,0.1-0.3,0.1-0.4,0.2L23.4,27.1L23.4,27.1z M30.4,22.9C30.4,22.9,30.4,22.9,30.4,22.9
			c0,0,0.1-0.1,0.1-0.2L30.4,22.9L30.4,22.9z M29.1,27.5c0-0.1,0.1-0.2,0.2-0.3l0.1-0.2c-0.1,0.2-0.3,0.4-0.4,0.6
			c-0.2,0.3-0.4,0.6-0.6,0.8C28.6,28.1,28.8,27.8,29.1,27.5L29.1,27.5z M29.5,27.7l-0.2,0.2c0,0,0.1,0,0.1,0
			C29.4,27.8,29.5,27.7,29.5,27.7L29.5,27.7z M27.2,30.7c-0.1,0-0.2,0.1-0.3,0.1c0,0,0,0-0.1,0c0,0-0.1,0-0.2,0.1l0,0
			c-0.6,0.4-1,0.7-1.4,0.9c0.4-0.1,0.9-0.4,1.4-0.7C26.8,30.9,27,30.8,27.2,30.7L27.2,30.7z M23.9,32.1c0.3-0.1,0.5-0.3,0.8-0.4
			l0.1-0.1C24.5,31.7,24.2,31.9,23.9,32.1l-0.1,0.1C23.8,32.1,23.9,32.1,23.9,32.1L23.9,32.1z M21.8,33L21.8,33l-0.1,0
			c-0.1,0-0.2,0.1-0.3,0.1C21.5,33.2,21.6,33.1,21.8,33C21.7,33.1,21.8,33.1,21.8,33L21.8,33z M22.3,32.6c0.1,0,0.1,0,0.2-0.1l0.1,0
			l0.1,0l-0.1,0c-0.1,0-0.3,0.1-0.4,0.1C22.2,32.6,22.2,32.6,22.3,32.6L22.3,32.6z M20.9,33.3c-0.1,0-0.1,0-0.2,0l-0.1,0
			C20.7,33.3,20.8,33.3,20.9,33.3L20.9,33.3z M29.5,30.9L29.5,30.9L29.5,30.9L29.5,30.9L29.5,30.9z M28.7,32
			c0.1-0.1,0.2-0.3,0.3-0.4c-0.1,0-0.1,0.1-0.2,0.1C28.8,31.9,28.8,31.9,28.7,32C28.7,32,28.7,32,28.7,32L28.7,32z M28.5,32.8
			L28.5,32.8l-0.3,0.3C28.3,33,28.4,32.9,28.5,32.8L28.5,32.8z M30.5,30.9L30.5,30.9C30.4,31,30.4,31,30.5,30.9L30.5,30.9L30.5,30.9
			z M29.3,32.3c-0.1,0.1-0.2,0.3-0.3,0.4l0.1-0.1L29.3,32.3l0.1,0c0.2-0.2,0.3-0.4,0.4-0.6C29.7,31.9,29.5,32.1,29.3,32.3L29.3,32.3
			z M28.5,33.3c0,0,0-0.1,0-0.1c-0.3,0.4-0.6,0.7-0.9,0.9c0.1,0,0.1,0,0.1,0c0.1,0,0.1,0.1,0.1,0.1c0,0.1-0.1,0.3-0.4,0.5l0,0
			c1-0.6,1.8-1.2,2-1.5c-0.5,0.4-1,0.7-1.2,0.8c-0.1,0-0.1,0-0.2-0.1c0,0,0-0.1,0-0.1h0C28.3,33.6,28.4,33.4,28.5,33.3L28.5,33.3z
			 M30,32.3c0,0.1-0.1,0.1-0.1,0.2c0.2-0.1,0.3-0.3,0.4-0.4c0.2-0.2,0.4-0.4,0.6-0.5c0-0.1,0-0.1,0-0.2l-0.1,0.1
			c-0.1,0.2-0.2,0.4-0.2,0.4c0,0-0.1,0.1-0.2,0C30.2,32,30.1,32.2,30,32.3L30,32.3z M29.3,32.9c0,0,0-0.1,0-0.1v0l0,0
			c-0.1,0.1-0.2,0.3-0.4,0.4C29.1,33.1,29.2,33,29.3,32.9L29.3,32.9z M31.2,30.8L31.2,30.8L31.2,30.8L31.2,30.8L31.2,30.8L31.2,30.8
			L31.2,30.8z M31.3,31.1c0,0-0.1,0.1-0.1,0.1l0,0.1C31.2,31.2,31.3,31.1,31.3,31.1L31.3,31.1z M31.7,30.8c0,0.2-0.3,0.5-0.6,0.9
			c0,0.2-0.1,0.5-0.1,0.7c0.2-0.1,0.3-0.3,0.5-0.4c0,0-0.1,0-0.1,0c-0.1,0-0.1-0.1-0.1-0.1c0-0.1,0.2-0.3,0.4-0.5
			c0.2-0.2,0.4-0.3,0.6-0.3c0-0.1,0.1-0.1,0.1-0.2C32.1,30.8,31.9,30.8,31.7,30.8L31.7,30.8z M30.8,32c-0.1,0.1-0.2,0.2-0.3,0.2
			c-0.3,0.3-0.6,0.5-0.9,0.7c0,0,0,0,0.1,0c0.1,0,0.1,0.1,0.1,0.1c0,0,0,0.1,0,0.1c0.3-0.2,0.5-0.4,0.8-0.6
			C30.7,32.4,30.7,32.2,30.8,32L30.8,32z M27.1,34.2L27.1,34.2c0,0,0-0.1,0-0.1c0.1-0.1,0.4-0.5,0.8-1c-0.6,0.5-1.3,1.1-2,1.6
			c-0.1,0.1-0.2,0.1-0.3,0.2C26.2,34.7,26.7,34.4,27.1,34.2L27.1,34.2z M25.6,34.6c0.1-0.1,0.3-0.2,0.4-0.3
			C25.9,34.4,25.7,34.5,25.6,34.6L25.6,34.6z M24.5,36.8c0.1,0,0.1-0.1,0.2-0.1L24.5,36.8L24.5,36.8L24.5,36.8z M25.1,36.5
			c0.5-0.3,1-0.7,1.4-1c-0.3,0.2-0.6,0.4-0.9,0.5c-0.2,0.1-0.4,0.3-0.6,0.4C25,36.4,25.1,36.4,25.1,36.5L25.1,36.5L25.1,36.5
			L25.1,36.5z M22.6,37.9c-0.3,0.1-0.6,0.2-0.9,0.3l0,0c-0.2,0.1-0.4,0.1-0.5,0.2c-0.1,0.1-0.3,0.1-0.3,0.1l0,0l0,0c0,0,0,0,0,0
			c0,0,0,0,0,0c0.1,0,0.1,0.1,0,0.2c0,0,0,0-0.1,0c0,0,0,0-0.1,0c0.5-0.3,1.1-0.5,1.3-0.5c0,0,0.1,0,0.1,0
			C22.3,38.1,22.5,38,22.6,37.9L22.6,37.9z M20.8,38.5C20.8,38.5,20.8,38.5,20.8,38.5C20.8,38.5,20.8,38.5,20.8,38.5l-0.7,0.2
			c-0.1,0-0.1,0-0.2,0.1l0,0l0,0c0,0,0,0-0.1,0h0l0,0c0,0-0.1,0-0.1-0.1c0-0.1,0-0.1,0.1-0.1c-0.2,0-0.4,0.1-0.6,0.1
			c-0.1,0-0.2,0.1-0.3,0.1c-0.2,0.1-0.4,0.2-0.5,0.3c0.3,0,0.9-0.1,1.4-0.2c0.4-0.1,0.7-0.2,0.9-0.2C20.7,38.6,20.7,38.5,20.8,38.5
			C20.7,38.5,20.8,38.5,20.8,38.5L20.8,38.5z M20.7,38.2l0.1,0c0.4-0.2,0.8-0.4,1.1-0.5c-0.5,0.1-1,0.3-1.5,0.5l-0.2,0.1
			c0.1,0,0.3,0,0.3,0v0C20.5,38.1,20.6,38.1,20.7,38.2C20.6,38.1,20.6,38.2,20.7,38.2L20.7,38.2z M20.7,38.5L20.7,38.5L20.7,38.5
			L20.7,38.5z M32,31.3c-0.1,0-0.1,0.1-0.2,0.1c-0.1,0.1-0.2,0.2-0.3,0.3C31.7,31.7,31.8,31.5,32,31.3L32,31.3z M30.8,33.3l-0.1,0.1
			c0,0,0.1,0,0.1,0c0,0,0,0,0,0c0,0,0,0,0,0c0.1-0.2,0.2-0.5,0.2-0.7L30.8,33.3L30.8,33.3z M29.9,35.6L29.9,35.6
			C29.9,35.6,29.9,35.6,29.9,35.6L29.9,35.6L29.9,35.6L29.9,35.6z M30.4,35.5c-0.1,0.1-0.3,0.3-0.5,0.4c0,0,0,0,0.1,0
			C30.1,35.8,30.2,35.6,30.4,35.5L30.4,35.5L30.4,35.5z M27.1,38.8c0.1-0.1,0.2-0.1,0.3-0.2c0.2-0.1,0.3-0.3,0.5-0.4l0.2-0.1
			c0-0.1,0.1-0.1,0.1-0.2c-0.5,0.3-1.1,0.8-1.4,1.1L27.1,38.8z"/>
	</g>
	<path class="st1" d="M32,37.1c0.1,0,0.1,0.1,0.1,0.1c0,0.1-0.1,0.1-0.2,0.1c-0.2,0-0.5,0.6-0.9,1.3c-0.1,0.2-0.2,0.4-0.3,0.6
		l0.6-0.7c0,0,0,0,0,0v0c0,0,0.1-0.1,0.2,0c0.1,0,0.1,0.1,0.1,0.2l0,0l0,0c0,0-0.3,0.5-0.7,1h-0.7c0.2-0.3,0.5-0.7,0.7-1.1
		C31.2,37.7,31.6,37,32,37.1L32,37.1z M31,39.6h0.3c0-0.1,0.1-0.1,0.1-0.2c0-0.1,0.1-0.1,0.1-0.1c0-0.1,0-0.1-0.1-0.1
		c-0.1,0-0.1,0-0.1,0.1l0,0c0,0-0.1,0.1-0.1,0.2C31.1,39.5,31,39.5,31,39.6L31,39.6z M29.7,39.6h0.4c0.3-0.6,0.6-1.2,0.8-1.6
		c0.1-0.3,0.3-0.5,0.3-0.6c0-0.1,0-0.1-0.1-0.1c-0.1,0-0.1,0-0.2,0.1l0,0c0,0.1-0.1,0.3-0.3,0.6c-0.1,0.2-0.3,0.5-0.5,0.8
		C30.1,39,29.9,39.3,29.7,39.6z"/>
	<g>
		<path class="st1" d="M31.2,13.5l0.2,0.3c0,0,0,0,0.1,0C31.4,13.6,31.3,13.5,31.2,13.5c0.2-0.2,0.4-0.3,0.8-0.3l0,0c0,0,0,0,0,0
			c0.1,0,0.1,0,0.2,0c0.1,0,0.1,0,0.2,0.1c0.1,0.3,0.4,0.7,0.5,1.1c0.2,0.4,0.3,0.7,0.2,0.8l0,0l0,0l0,0l0,0c0,0,0,0,0,0
			c0,0-0.1,0.1-0.2,0c0.3,0.6,0.6,1.2,0.8,1.6l0.1,0.1c0.1,0.1,0.3,0.3,0.4,0.5c0,0-0.1-0.1-0.1-0.1c-0.1,0-0.1-0.1,0-0.1
			c0-0.1,0.1-0.1,0.2,0c0.2,0.1,1,0.9,1.6,1.7l0,0c0.1,0,0.1,0,0.2,0l0,0c0,0,0.4,0.4,0.8,0.8c0.5,0.5,1.2,1.2,1.5,1.5
			c0.3,0.1,0.6,0.2,0.9,0.3c0,0,0.1,0,0.1,0c0,0,0.1-0.1,0.1-0.1c0,0,0.1,0,0.1,0l0.1,0l0,0l0.1,0c0-0.1,0.1-0.1,0.1-0.1
			c0,0,0,0,0.1,0c0.2,0,0.5,0,0.5,0.3h0c0,0,0,0.1-0.1,0.1c-0.1,0-0.1,0-0.2,0l0,0c0,0.1,0,0.1-0.1,0.1c-0.1,0-0.1,0-0.2-0.1
			c0,0,0,0,0,0c-0.2,0-0.5-0.1-0.8-0.1c-0.1,0-0.2-0.1-0.3-0.1c0.2,0.2,0.3,0.4,0.3,0.5c0,0,0,0,0,0c0,0.1-0.1,0.1-0.1,0.1
			c-0.1,0-0.2,0-0.3,0c-0.6-0.1-1.2-0.5-1.8-0.9c-0.6-0.5-1-1-1-1.4l0,0c0,0-0.1-0.1-0.1-0.1c0.1,0.2,0.1,0.3,0.1,0.4h0
			c0,0,0,0,0,0.1c0,0.1-0.1,0.1-0.2,0c-0.4-0.2-1.4-1-2.2-1.9c0,0,0,0,0,0c-0.1,0-0.1,0-0.2,0c-0.1-0.1-0.1-0.2-0.2-0.2
			c-0.6-0.7-1.7-2-1.6-2.7c0,0,0-0.1,0.1-0.1c0-0.1-0.1-0.2-0.1-0.4l0,0v0c0-0.1,0-0.1,0.1-0.1c0,0,0,0,0,0
			c-0.2-0.3-0.3-0.6-0.5-0.9c-0.1-0.1-0.2-0.3-0.2-0.4C31.1,13.6,31.1,13.5,31.2,13.5L31.2,13.5z M32.2,15.6c0-0.1-0.1-0.2-0.2-0.3
			c0,0,0,0-0.1-0.1c0,0.1,0.1,0.2,0.1,0.2C32.1,15.5,32.2,15.6,32.2,15.6L32.2,15.6z M32.5,15.2c0,0.1,0,0.1,0,0.2
			c0.1,0.1,0.1,0.1,0.2,0.2l0,0c0-0.1,0-0.1,0-0.2L32.5,15.2L32.5,15.2z M32.9,16.3L32.9,16.3C32.9,16.3,32.9,16.3,32.9,16.3
			L32.9,16.3c0.5,0.8,1.1,1.8,1.2,2.2l0,0c0,0,0,0.1-0.1,0.1c0.6,0.6,1.2,1.1,1.6,1.4c-0.1-0.2-0.2-0.5-0.4-0.7l-0.1-0.1
			c-0.8-0.8-1.6-1.9-1.8-2.2c0,0,0,0,0-0.1l0,0h0c0,0,0,0,0-0.1C33.2,16.7,33.1,16.5,32.9,16.3L32.9,16.3z M32.2,14.5
			c-0.2-0.4-0.5-0.8-0.7-1.1C31.6,13.7,31.9,14.1,32.2,14.5L32.2,14.5z M32.6,14.4c0,0.1,0.1,0.2,0.1,0.3c0,0,0,0.1,0.1,0.1
			C32.8,14.7,32.7,14.6,32.6,14.4c0-0.1-0.1-0.3-0.2-0.4C32.5,14.1,32.6,14.3,32.6,14.4L32.6,14.4z M32.4,16.1
			c0.1,0.1,0.1,0.2,0.2,0.3c0.1,0.2,0.4,0.4,0.6,0.7c-0.1-0.2-0.3-0.5-0.5-0.7C32.6,16.3,32.5,16.2,32.4,16.1L32.4,16.1z M32.2,16.3
			C32.1,16.2,32,16.1,32,16C32,16.1,32.1,16.2,32.2,16.3C32.2,16.3,32.2,16.3,32.2,16.3L32.2,16.3z M35.2,18.8
			c0.1,0.1,0.2,0.3,0.3,0.4c0.2,0.2,0.4,0.5,0.6,0.6c0,0,0,0,0,0c0,0,0.1,0,0.1,0c-0.1-0.1-0.2-0.3-0.3-0.5
			c-0.3-0.3-0.5-0.5-0.8-0.8c-0.3-0.3-0.5-0.6-0.7-0.8C34.7,18.1,35,18.4,35.2,18.8L35.2,18.8z M36.6,20.3c-0.1,0-0.1,0-0.2-0.1
			c0.1,0.3,0.5,0.7,0.9,1c0.5,0.4,1.2,0.8,1.7,0.9c0,0,0.1,0,0.1,0c0-0.1-0.2-0.3-0.4-0.4c0,0-0.1,0-0.1,0c-0.1-0.1-0.2-0.1-0.3-0.3
			c-0.2-0.1-0.4-0.2-0.5-0.3c0,0-0.1-0.1-0.1-0.1c0,0,0-0.1,0-0.1c-0.1,0-0.1-0.1-0.2-0.1c0,0-0.1,0-0.1,0c0,0-0.1-0.1-0.2-0.2
			c-0.1,0-0.1-0.1-0.2-0.1c-0.1-0.1-0.2-0.1-0.3-0.2C36.7,20.3,36.6,20.3,36.6,20.3L36.6,20.3z M40.3,21.7L40.3,21.7L40.3,21.7
			L40.3,21.7z"/>
	</g>
	<path class="st1" d="M32.6,16.8c0.1,0.1,0.2,0.5,0.3,0.9c0-0.1,0-0.1,0-0.1l0,0c0,0,0.1-0.1,0.1-0.1c0.1,0,0.1,0,0.1,0.1
		c0,0.1,0.2,0.6,0.3,1.1c0.1,0.4,0.2,0.7,0.4,1.1c0.2,0.3,0.3,0.7,0.5,1c0.1,0.1,0.2,0.2,0.2,0.3c0.4,0.5,0.7,0.9,0.8,1.3
		c0.2,0.2,0.5,0.4,0.9,0.8c0,0,0,0,0.1,0c0,0,0,0,0.1,0l0,0l0,0c0.1,0.1,0.3,0.3,0.6,0.5c0.5,0.3,1,0.7,1.4,1c0.2,0,0.4,0.1,0.7,0.2
		c0.5,0.1,1,0.1,1.3,0.3l0,0c0.2,0,0.3,0,0.3,0.2l0,0c0.1,0,0.1,0,0.2,0.1l0,0c0.1,0,0.1,0.1,0.1,0.1l0,0l0,0c0,0,0,0-0.1,0.1l0,0
		c0,0,0,0,0,0c0,0,0,0.1,0,0.1l0,0l0,0c-0.1,0.2-0.7,0.2-1.2,0.1c-0.3-0.1-0.7-0.1-0.9-0.2l0,0c-0.2,0-0.4,0-0.7,0
		c-0.2,0-0.3-0.1-0.5-0.1c0,0,0,0,0,0l0,0c0,0.1-0.1,0.1-0.1,0.1c-0.1,0-0.2,0-0.3,0l0,0c-0.5-0.1-1-0.5-1.5-0.9
		c-0.5-0.4-0.8-1-0.8-1.3l0,0c0-0.1-0.1-0.1-0.1-0.2c-0.3-0.4-0.5-0.7-0.6-1c-0.1-0.1-0.2-0.2-0.2-0.3c-0.2-0.3-0.4-0.6-0.5-0.8l0,0
		c0,0-0.1,0.1-0.2,0c0,0-0.4-0.8-0.7-1.5c-0.2-0.2-0.5-0.6-0.6-1c-0.3-0.6-0.4-1.2-0.4-1.6c0,0,0-0.1,0-0.1c0,0,0.1,0,0.1,0
		c-0.1-0.3-0.2-0.5-0.2-0.7c0-0.1,0-0.1,0-0.2c0,0,0,0,0-0.1c0.1,0,0.1,0,0.2,0c0,0,0.1,0.1,0.1,0.2c0-0.2,0-0.3,0-0.4h0
		c0,0,0,0,0,0c0-0.1,0.1-0.1,0.2-0.1c0.2,0,0.4,0.4,0.5,0.7c0,0.2,0.1,0.4,0.1,0.5C32.5,16.7,32.5,16.7,32.6,16.8L32.6,16.8z
		 M33.1,18.7l0,0.1c0.1,0.3,0.2,0.6,0.3,0.8c0,0.1,0.1,0.2,0.1,0.3l0,0l0-0.1l0-0.1C33.3,19.4,33.2,19,33.1,18.7L33.1,18.7z
		 M35.1,22.8L35.1,22.8c0.1,0.1,0.3,0.3,0.4,0.3c-0.1-0.1-0.1-0.2-0.2-0.4C35.2,22.8,35.1,22.8,35.1,22.8L35.1,22.8z M32,17.8
		C32,17.8,32,17.8,32,17.8c-0.1-0.2-0.2-0.4-0.3-0.5c0,0.2,0.1,0.4,0.2,0.6C31.9,17.8,32,17.8,32,17.8L32,17.8z M32.1,16.9l0.1,0.2
		c0-0.3-0.1-0.6-0.1-0.8c0-0.1-0.1-0.3-0.1-0.4C32,16.2,32,16.5,32.1,16.9L32.1,16.9z M35.7,23.4L35.7,23.4L35.7,23.4L35.7,23.4
		L35.7,23.4z M35.5,23.5c0.4,0.5,0.9,0.9,1.2,1.2c-0.2-0.2-0.4-0.5-0.7-0.8C35.8,23.8,35.6,23.7,35.5,23.5L35.5,23.5z M36.5,24.9
		c-0.3-0.3-0.7-0.6-1-1c0.1,0.2,0.3,0.3,0.4,0.5C36.1,24.6,36.3,24.8,36.5,24.9L36.5,24.9z M37.1,25.2
		C37.1,25.2,37.1,25.2,37.1,25.2c0,0,0.1,0.1,0.1,0.1l0,0c0,0,0.1,0,0.1,0c0,0,0,0,0,0C37.3,25.2,37.2,25.2,37.1,25.2
		C37.1,25.2,37.1,25.2,37.1,25.2L37.1,25.2L37.1,25.2z M36.7,24.3c0.1,0.1,0.1,0.1,0.2,0.2l0,0l0,0L36.7,24.3L36.7,24.3z M37.5,25
		C37.5,25.1,37.5,25.1,37.5,25c0.2,0.2,0.5,0.2,0.7,0.3c0.1,0,0.1,0,0.2,0l0,0c0,0,0,0,0,0l0,0c-0.2-0.1-0.4-0.1-0.5-0.2l0,0
		c0,0-0.1,0.1-0.2,0C37.6,25.1,37.5,25.1,37.5,25z"/>
	<g>
		<path class="st1" d="M31.5,18.5c0-0.1,0.1-0.1,0.1-0.1c0.1,0,0.1,0.1,0.1,0.1c0,0.2,0,0.4-0.1,0.5c0,0.4,0.1,0.9,0.2,1.3
			c0-0.1,0-0.2,0-0.2c-0.1-0.4-0.1-0.8-0.1-1c0,0,0-0.1,0.1-0.1c0.1,0,0.1,0,0.2,0.1c0.1,0.1,0.1,0.5,0.1,0.9c0-0.1,0-0.2,0-0.2l0,0
			l0,0c0,0,0,0,0.1-0.1c0.1,0,0.1,0,0.2,0c0.2,0.3,0.3,0.8,0.3,1.3c0,0.1,0.1,0.2,0.1,0.3c0,0.1,0,0.1,0,0.2c0,0,0,0,0.1,0
			c0.1,0,0.1,0,0.1,0.1c0,0,0,0,0,0.1c0,0.2,0.2,0.6,0.5,1c0.1,0.1,0.1,0.2,0.2,0.4c0.1,0.2,0.2,0.4,0.3,0.6
			c0.2,0.3,0.4,0.6,0.6,0.9c0,0,0,0,0,0c0,0,0.1-0.1,0.2,0c0.2,0.1,1.1,1,1.7,1.7c0.5,0.5,0.9,1,0.9,1.2v0l0,0l0,0l0,0h0l0,0
			c0,0,0,0,0,0l0.1,0.1l0,0c0.4,0.1,1.2,0.6,1.8,0.9c0.2,0.1,0.4,0.3,0.5,0.3c0,0,0,0,0.1,0l0.2,0.1c0.4,0,0.8,0,1,0
			c-0.1,0-0.1-0.1-0.2-0.1c-0.1,0-0.1-0.1-0.1-0.2c0,0,0.1-0.1,0.1-0.1v0c0.1,0,0.2,0,0.3,0.1c0.1,0,0.2,0.1,0.2,0.1
			c0,0,0.1,0.1,0.1,0.1l0,0l0,0c0,0,0,0,0,0c0,0.1,0,0.1-0.1,0.2c-0.1,0-0.3,0-0.7,0c0,0,0.1,0,0.1,0.1c0.1,0.1,0.3,0.1,0.4,0.2l0,0
			c0,0,0.1,0.1,0.1,0.1c0,0.1-0.1,0.1-0.2,0.1l-0.2,0l0,0.1l0,0c-0.2,0-0.4-0.1-0.6-0.2c-0.1,0-0.1,0-0.2,0c-0.4,0-0.5-0.1-1.6-0.4
			c-0.1,0-0.1-0.1-0.1-0.1c0-0.1,0.1-0.1,0.1-0.1c0.1,0,0.2,0,0.3,0c-0.2-0.1-0.4-0.2-0.6-0.3c0,0-0.1,0-0.1-0.1
			c0.1,0.2,0.2,0.3,0.2,0.5l0,0c0,0.1-0.1,0.1-0.2,0.1c-0.2,0-0.4-0.1-0.6-0.3c0,0-0.1,0.1-0.1,0.1l0,0v0h0c-0.2,0-1-0.7-1.9-1.5
			c-0.1-0.1-0.3-0.3-0.4-0.4c-0.5-0.1-1.1-0.7-1.8-1.4c-0.8-0.9-1.6-1.9-1.6-2.2c0,0,0-0.1,0-0.1c0,0,0,0,0,0
			c-0.1-0.2-0.1-0.4-0.1-0.5l0,0c0,0,0-0.1,0.1-0.1c0.1,0,0.1,0,0.2,0.1c0,0,0.1,0.1,0.3,0.3c0-0.1-0.1-0.2-0.1-0.3h0c0,0,0,0,0,0
			c-0.1-0.2-0.2-0.5-0.3-0.8c0,0-0.1,0-0.1-0.1c-0.1-0.2-0.2-0.7-0.3-1.2c0-0.1,0-0.2,0-0.3c0,0,0,0,0,0c-0.1,0-0.1,0-0.2,0l0,0
			c-0.1-0.2-0.2-0.2-0.1-0.3c0,0,0-0.1,0-0.1c0-0.1,0.1-0.3,0.2-0.6l0-0.1c0-0.1,0-0.2,0-0.3v0v0v0v0v0l0,0v0h0.1L31.5,18.5
			L31.5,18.5z M31.8,19.1L31.8,19.1L31.8,19.1L31.8,19.1z M32.9,23.2c0,0.1,0,0.2,0,0.2c0,0.1,0.1,0.2,0.2,0.3
			c0.3,0.3,0.7,0.7,1,1.1l0.1,0.1c-0.2-0.2-0.3-0.5-0.5-0.8c0,0-0.1,0-0.1,0C33.3,23.8,33.1,23.5,32.9,23.2L32.9,23.2z M34.4,24.9
			C34.4,24.9,34.4,24.9,34.4,24.9C34.4,25,34.3,25,34.3,25c0.1,0.1,0.2,0.2,0.3,0.3c0,0,0,0,0,0c0,0,0-0.1,0.1-0.1l0,0
			C34.6,25.1,34.5,25,34.4,24.9L34.4,24.9z M35.3,25.8C35.3,25.8,35.3,25.8,35.3,25.8L35.3,25.8c0.1,0.1,0.3,0.2,0.4,0.3
			C35.5,26,35.4,25.9,35.3,25.8L35.3,25.8z M32.7,23.7l-0.4-0.4c0,0.1,0.1,0.1,0.1,0.2C32.6,23.5,32.6,23.6,32.7,23.7L32.7,23.7z
			 M34.1,25.6c-0.3-0.3-0.7-0.7-1-1.1c0.2,0.2,0.4,0.5,0.7,0.7C33.8,25.4,33.9,25.5,34.1,25.6L34.1,25.6z M36.8,26.8
			c-0.1-0.2-0.3-0.4-0.5-0.6c-0.4-0.4-0.9-0.9-1.2-1.2c0.3,0.5,0.9,1,1.4,1.5C36.6,26.6,36.7,26.7,36.8,26.8L36.8,26.8z M37.3,27.8
			C37.3,27.8,37.3,27.8,37.3,27.8c0,0.1-0.1,0.1-0.1,0.1l0.1,0.1c0.3,0.2,0.6,0.4,0.9,0.5c-0.1-0.1-0.2-0.3-0.4-0.4
			c-0.1-0.1-0.2-0.2-0.3-0.3C37.4,27.8,37.4,27.8,37.3,27.8L37.3,27.8L37.3,27.8L37.3,27.8z M38.6,28.2c0.1,0.1,0.2,0.1,0.3,0.2l0,0
			c-0.3-0.2-0.6-0.3-0.8-0.5C38.3,28,38.4,28.1,38.6,28.2z"/>
	</g>
	<g>
		<path class="st1" d="M32.2,24.1C32.2,24.2,32.3,24.2,32.2,24.1c0.2,0.3,0.4,0.6,0.5,0.9l0,0c0,0,0.1-0.1,0.2,0
			c0.1,0.1,0.2,0.3,0.4,0.6c0,0,0.1,0,0.1,0c0,0,0.1-0.1,0.1-0.1c0.1,0,0.1,0,0.2,0.1c0,0.1,0.3,0.6,0.5,1.1
			c0.5,0.7,1.1,1.6,1.3,2.2c0,0.1,0.1,0.2,0.2,0.3c0.2,0.3,0.5,0.6,0.8,1c0.2,0.2,0.4,0.5,0.6,0.7c0.3,0.2,0.5,0.4,0.6,0.6
			c0,0,0,0,0.1,0c0.3,0.2,0.6,0.4,0.9,0.5l0.2,0.1l0.1,0c0.1,0,0.2,0,0.2,0c0,0,0,0,0-0.1c0-0.1,0.1-0.1,0.1-0.1c0,0,0,0,0.1,0l0,0
			l0,0c0.1,0.1,0.3,0.2,0.5,0.3c0.2,0.1,0.4,0.1,0.6,0.2c0.2,0.1,0.4,0.1,0.6,0.2l0,0c0.1,0,0.3,0,0.5,0.1c0.2,0.1,0.4,0.2,0.6,0.2
			v0.2h0l-0.1,0l-0.3,0c0,0,0,0-0.1,0c0,0,0,0,0,0c0,0.1-0.1,0.1-0.1,0.1h0c-0.1,0-0.2,0-0.3,0c-0.1,0-0.1,0-0.2,0
			c-0.1,0-0.1,0-0.2,0c0,0-0.1,0-0.1,0l-0.1,0c-0.1,0-0.1,0-0.2,0c0.1,0.1,0.2,0.1,0.3,0.2v0c0,0,0,0,0,0c0,0.1,0,0.1-0.1,0.1
			c-0.2,0.1-0.4,0-0.6-0.1l0,0c-0.1-0.1-0.3-0.2-0.4-0.3c-0.2,0-0.4,0-0.5,0c-0.4-0.1-0.9-0.2-1.2-0.4v0c0,0.1-0.1,0.1-0.2,0.1
			c-0.1,0-0.5-0.3-0.8-0.5c-0.2-0.1-0.3-0.3-0.4-0.4c-0.2-0.1-0.4-0.3-0.6-0.4c-0.2-0.1-0.3-0.2-0.4-0.2l-0.1,0c0,0,0,0.1-0.1,0.1
			l0,0l0,0c-0.1,0-0.1,0-0.3,0c0,0,0,0,0,0C35.1,31.1,35,31,35,30.9c-0.1-0.2-0.1-0.3,0.1-0.2c-0.3-0.3-0.7-0.8-1.1-1.2
			c-0.2-0.1-0.5-0.3-0.7-0.6c-0.2-0.2-0.4-0.5-0.4-0.7h0c0,0,0-0.1,0.1-0.1c0,0,0,0,0.1,0l-0.4-0.4c-0.2-0.2-0.3-0.3-0.4-0.5
			c-0.2-0.2-0.3-0.3-0.3-0.4l0,0c0,0,0-0.1,0.1-0.1c-0.3-0.4-0.5-0.7-0.6-0.9c0,0,0,0,0-0.1l0,0l0,0c0,0,0,0,0-0.1
			c0.1,0,0.1,0,0.2,0c0,0,0.1,0.1,0.1,0.1c0,0,0-0.1,0-0.1c0,0,0,0,0,0c0,0,0,0,0,0l0,0L32.2,24.1L32.2,24.1z M32,24.3
			C32,24.3,32,24.2,32,24.3L32,24.3C32,24.2,32,24.2,32,24.3L32,24.3z M32.3,24.7L32.3,24.7l0.1,0.1L32.3,24.7L32.3,24.7z
			 M31.7,24.4l0.5-0.2c-0.2-0.3-0.3-0.4-0.4-0.4c-0.1,0-0.1,0-0.2,0.1c0,0,0,0,0,0v0c-0.1,0-0.1,0.1-0.1,0.1
			C31.6,24.1,31.6,24.2,31.7,24.4L31.7,24.4z M34,27.9C34,27.9,34,27.9,34,27.9c0.1,0.1,0.2,0.2,0.3,0.3c-0.1-0.2-0.2-0.3-0.3-0.5
			C34,27.8,34,27.8,34,27.9L34,27.9L34,27.9z M32.4,26.1l-0.7-1.8C31.9,24.8,32.1,25.5,32.4,26.1L32.4,26.1z M35.2,29.8
			C35.2,29.8,35.2,29.8,35.2,29.8l0.2,0.3C35.3,30,35.3,29.9,35.2,29.8L35.2,29.8z M35.6,29.5c0,0-0.1,0-0.1,0
			c0.1,0.1,0.2,0.3,0.3,0.4l0.1,0.1c0.1,0,0.2,0.1,0.3,0.2C36,30,35.8,29.7,35.6,29.5L35.6,29.5z M35.4,30.6
			c-0.2-0.1-0.3-0.3-0.6-0.5c0.3,0.3,0.5,0.6,0.7,0.8l0.1,0C35.5,30.8,35.5,30.7,35.4,30.6L35.4,30.6C35.4,30.6,35.4,30.6,35.4,30.6
			L35.4,30.6z M36.8,31.1L36.8,31.1c0.1,0,0.1,0.1,0.2,0.2c0,0,0.1-0.1,0.2,0c0,0,0.1,0.1,0.2,0.1c-0.1-0.1-0.2-0.2-0.3-0.3
			c0,0,0,0.1,0,0.1C36.9,31.1,36.8,31.1,36.8,31.1L36.8,31.1z M38.7,32.8c-0.1,0-0.2-0.1-0.3-0.1c0.2,0.1,0.3,0.2,0.5,0.2
			C38.8,32.8,38.8,32.8,38.7,32.8L38.7,32.8z M31.7,25.8l0.7,0.4c-0.3-0.3-0.6-0.6-0.7-0.8c-0.1,0-0.1,0-0.2,0c-0.1,0-0.1,0.1,0,0.2
			C31.6,25.6,31.6,25.6,31.7,25.8C31.7,25.7,31.7,25.7,31.7,25.8z"/>
	</g>
	<path class="st1" d="M31.9,29.9C31.9,29.9,31.9,29.8,31.9,29.9c-0.1-0.2-0.2-0.3-0.3-0.4c0,0-0.1-0.1-0.1-0.1l0,0c0,0,0-0.1,0-0.1
		l0,0l0,0c0-0.1,0-0.1-0.1-0.2c0-0.1,0-0.1,0.1-0.1c0.1,0,0.1,0,0.2,0.1h0l0,0.1c0,0,0,0,0-0.1c-0.1-0.2-0.2-0.3-0.2-0.4
		c0,0,0,0,0,0c0,0,0,0,0,0h0c0,0,0-0.1,0.1-0.1c0.1,0,0.1,0,0.2,0c0.2,0.2,0.8,1.2,1.4,2.3c-0.4-0.8-0.8-1.7-1-2c0,0,0,0,0,0l0,0
		l0,0c0,0,0-0.1,0.1-0.1c0.1,0,0.1,0,0.2,0c0.1,0.1,0.1,0.3,0.3,0.5c0.4,0.7,1.2,2.1,2,3.2c0.3,0.4,0.5,0.8,0.7,1.1l0,0l0.2,0.2
		c0.5,0.4,1.2,1.1,1.9,1.7c0.1,0,0.2,0.1,0.3,0.1c0,0,0-0.1,0-0.1c0-0.1,0.1-0.1,0.2,0l0,0c0.1,0.1,0.2,0.1,0.4,0.2
		c0.3,0.2,0.7,0.4,1.1,0.6l0.1,0c0.2,0,0.9,0.4,1.6,0.7c0.1,0,0.1,0.1,0.2,0.1c0,0,0.1,0,0.1,0c0,0,0.1,0,0.1,0.1l0.1,0.1
		c0.1,0,0.1,0,0.2,0c0.7,0.1,1.5,0.3,2,0.5c0,0,0.1,0,0.1,0.1c0,0.1,0,0.1-0.1,0.1c-0.1,0-0.2,0.1-0.3,0.1c0,0,0,0.1,0,0.1
		c0,0,0,0.1,0,0.1c0,0,0,0,0,0c0,0,0,0,0,0c0,0.1-0.1,0.1-0.1,0.1c-0.1,0-0.1,0-0.2,0c0,0-0.1,0-0.1,0c-0.2,0-0.5,0-0.8-0.1
		c-1-0.2-2.3-0.7-2.6-0.8c0,0-0.1,0-0.1,0c0,0,0,0,0-0.1c0,0,0,0,0,0c-0.3-0.1-0.6-0.2-0.9-0.3l0,0c0,0.1-0.1,0.1-0.1,0.1
		c0,0,0,0-0.1,0l0,0c-0.3,0-0.8-0.3-1.2-0.7l-0.1,0c-0.7-0.4-1.3-0.7-1.6-1c0,0,0,0,0,0c0,0,0,0,0,0l0,0c0,0.1-0.1,0.1-0.1,0.1
		c-0.1,0-0.4-0.2-0.7-0.5c-1-0.6-1.1-0.7-2.1-1.9l-0.2-0.3l0,0c0,0,0-0.1,0-0.1c0-0.1,0.1-0.1,0.2-0.1c0.1,0,0.2,0.1,0.3,0.1
		c-0.1-0.2-0.2-0.3-0.2-0.4c0,0,0,0,0,0c0-0.1,0.1-0.1,0.2-0.1c0.1,0,0.3,0.1,0.5,0.3c-0.2-0.3-0.5-0.7-0.8-1.1c0,0,0,0,0-0.1
		c0-0.1,0.1-0.1,0.1-0.1c0,0,0.2,0.1,0.3,0.2C32.4,30.8,32.1,30.3,31.9,29.9L31.9,29.9z M33.6,32.7c-0.2-0.2-0.3-0.5-0.5-0.8
		l-0.2-0.2C33.2,32.1,33.4,32.4,33.6,32.7L33.6,32.7z M34.3,33.2C34.3,33.2,34.3,33.2,34.3,33.2c-0.1,0.1-0.1,0.1-0.1,0.1l0.1,0.1
		c0.2,0.2,0.3,0.3,0.5,0.5c0.1,0.1,0.2,0.1,0.3,0.2C34.9,33.9,34.6,33.5,34.3,33.2L34.3,33.2z M34.1,32.4c0,0.1,0.1,0.1,0.1,0.2
		l0.2,0.2l0,0c0.1,0.1,0.2,0.2,0.4,0.4c0,0,0,0,0-0.1C34.5,32.9,34.3,32.6,34.1,32.4L34.1,32.4z M33.7,31.3c0.1,0.2,0.2,0.5,0.2,0.7
		l0.1,0.1l0.3,0.3C34.2,32,33.9,31.7,33.7,31.3L33.7,31.3z M35.7,34.3C35.7,34.3,35.7,34.3,35.7,34.3c0,0,0,0.1,0,0.1c0,0,0,0,0,0
		c0,0,0,0,0,0.1l0.4,0.3c0.2,0.1,0.4,0.3,0.6,0.4c0.1,0,0.1,0,0.2,0c-0.3-0.2-0.6-0.5-0.9-0.8l0,0l-0.2-0.1
		C35.8,34.3,35.8,34.3,35.7,34.3L35.7,34.3z M35.4,34c-0.1-0.1-0.1-0.2-0.2-0.2c-0.1-0.1-0.2-0.1-0.2-0.2
		C35.2,33.7,35.3,33.8,35.4,34L35.4,34z M33.8,33.3c0-0.1-0.1-0.1-0.1-0.2c-0.3-0.3-0.7-0.6-0.9-0.7c0.1,0.2,0.3,0.4,0.5,0.7
		c0,0,0,0,0.1,0c0,0,0.9,0.8,1.5,1.4c0.1,0.1,0.2,0.2,0.2,0.2l0,0C34.5,34.2,34.1,33.7,33.8,33.3L33.8,33.3z M35.8,35.2L35.8,35.2
		L35.8,35.2L35.8,35.2L35.8,35.2z M33.2,33.5c-0.1-0.1-0.1-0.2-0.2-0.2c-0.1-0.1-0.2-0.1-0.3-0.2c0.3,0.4,0.5,0.6,0.7,0.8
		C33.4,33.7,33.3,33.6,33.2,33.5L33.2,33.5z M36.3,35.7L36.3,35.7L36.3,35.7L36.3,35.7L36.3,35.7z M38.3,36.5c0,0-0.1,0-0.1,0
		c0.1,0,0.2,0.1,0.3,0.1C38.4,36.6,38.3,36.5,38.3,36.5L38.3,36.5z M38,35.7l0.1,0.1c0.3,0.1,0.7,0.3,1.2,0.5
		c-0.1-0.1-0.2-0.1-0.3-0.2C38.7,36,38.4,35.8,38,35.7L38,35.7z M39.4,36.6c0.2,0.1,0.3,0.2,0.5,0.2l0,0L39.4,36.6L39.4,36.6
		L39.4,36.6z M40.2,37.1c-0.2,0-0.4-0.1-0.6-0.2c0,0,0,0,0,0c-0.1,0-0.2,0-0.4,0l0,0C39.5,36.9,39.8,37,40.2,37.1
		C40.2,37.1,40.2,37.1,40.2,37.1L40.2,37.1z M42.4,37.4c0.1,0.1,0.3,0.1,0.4,0.1c0.1,0,0.1,0,0.2,0C42.8,37.5,42.6,37.4,42.4,37.4
		L42.4,37.4z M40.8,37.5L40.8,37.5L40.8,37.5L40.8,37.5L40.8,37.5z"/>
	<path class="st1" d="M31.6,33.5c0-0.1,0.1-0.1,0.2-0.1c0.1,0,0.1,0.1,0.1,0.1c0,0,0,0,0,0c0,0.4,0.5,1.7,1.1,2.9
		c0.1,0.1,0.3,0.3,0.5,0.5c0,0,0.1,0,0.1,0c0,0,0.1,0,0.1,0l0,0c-0.4-0.8-0.8-1.6-0.9-2.1c-0.2-0.4-0.3-0.6-0.3-0.7h0
		c0,0,0-0.1,0-0.1c0-0.1,0.1-0.1,0.2,0c0.1,0.1,0.5,0.8,0.9,1.6c0.1,0.2,0.2,0.3,0.3,0.5c0.3,0.5,0.7,1.1,1.1,1.7
		c0.3,0.5,0.7,1,1,1.5c0,0,0,0,0,0c0.1,0,0.1,0,0.2,0.1c0,0,0.1,0.1,0.1,0.1h-1.8l0,0l0,0h-0.4c-0.3-0.4-0.6-0.7-0.7-0.9
		c0,0,0-0.1,0-0.1c0,0,0.1-0.1,0.2,0c0.1,0.1,0.3,0.2,0.5,0.3l-0.1-0.2c-0.7-0.8-1.2-1.7-1.2-2.1l0,0c0,0,0,0,0,0
		c0-0.1-0.1-0.1-0.1-0.2c0,0,0-0.1,0-0.1c0,0,0-0.1,0.1-0.1C32,35.1,31.6,33.9,31.6,33.5C31.6,33.5,31.6,33.5,31.6,33.5L31.6,33.5z
		 M32.5,36.5L32.5,36.5L32.5,36.5L32.5,36.5L32.5,36.5z M34.1,39.3c-0.1-0.1-0.2-0.1-0.3-0.2L33.7,39c0.1,0.1,0.1,0.2,0.2,0.3l0,0
		c0,0,0,0,0.1,0C34,39.3,34.1,39.3,34.1,39.3z"/>
	<path class="st1" d="M31.4,39.6C31.4,39.6,31.4,39.6,31.4,39.6c0-0.1,0.1-0.1,0.2-0.1c0,0,0,0,0,0v0c0,0,0.1,0.1,0.1,0.1H31.4z"/>
</g>
<g>
	<path class="st2" d="M5.4,17.7l-2.1,0c-0.8,0-2.7-0.5-3-1.2C0.7,16.4,2.1,17,2.2,17l-0.2-0.2c-0.3-0.1-0.5-0.5-0.6-0.7
		c1.1-0.2,1,1.1,2,1.2c-0.2-0.4-1.1-0.6-1.1-1.2c0.1,0,1.5,1.1,1.6,1.2C4,16.9,3.4,16.6,3.1,16c0.6-0.1,1.6,1,1.9,1.3
		c0-0.3-1.2-1.9-0.3-1.1c0.3,0.3,0.8,0.8,1.2,1.1c0.1-0.2-1.2-1.7,0-1.3c0.1,0.1,0.8,1.3,1.2,1.3c0-0.1-1.1-1.2-0.5-1.2
		c0,0,1,1.4,1,1.4C7.4,17,7,16.5,7.3,16.5c0.2,0.1,0.5,0.3,1,1.2c0-0.1-1-1.9,0.1-1.2c0.3,0.2,0,0.7,1.4,1.3
		C8.2,18.2,6.8,17.5,5.4,17.7z"/>
	<path class="st2" d="M15.9,35.3l2.1-0.7c0.8-0.3,2.4-1.1,2.1-1.7c-0.5,0.1-1.4,0.9-1.4,0.9l0-0.2c0.1-0.2,0.2-0.8,0-0.7
		c-1.3,0.2-0.1,1.1-1,1.4c-0.1-0.3,0.4-0.7-0.1-1.1c-0.4,0-0.3,1.2-0.5,1.2c-0.4-0.2,0-0.6-0.2-1c-0.7,0.1-0.7,1.1-0.8,1.4
		c-0.2-0.2-0.4-1.6-0.6-0.8c-0.1,0.3-0.1,0.7-0.3,1.1c-0.2-0.1-0.3-1.4-1-0.8c-0.1,0.1,0.2,1.1-0.1,1.2c-0.1-0.1,0.1-1.1-0.6-0.9
		c0,0,0.2,1.2,0.2,1.2c-0.3-0.4-0.3-1.3-0.7-0.9c0.2,0.5,0,0.7,0,1.1c-0.1-0.1-0.6-1.5-1.1-0.7c-0.2,0.2,0.6,0.5-0.4,1.3
		C13.5,36.5,14.3,35.6,15.9,35.3z"/>
	<path class="st2" d="M6,33.1l-2.1-0.6c-0.8-0.3-2.4-1.1-2.1-1.7c0.5,0.1,1.4,0.9,1.5,0.9l0-0.2c-0.2-0.2-0.1-0.4,0-0.6
		c1.3,0.2,0.1,1,1,1.4c0.1-0.3-0.6-0.7,0-1.1c0.1,0,0.5,1.1,0.6,1.2c0.4-0.2,0-0.6,0.2-1c0.7,0.1,0.7,1.1,0.8,1.4
		c0.2-0.2,0.4-1.6,0.6-0.8c0.1,0.3,0.1,0.7,0.3,1.1C7,33,7.1,31.6,7.8,32.3c0.1,0.1-0.2,1.1,0.2,1.2c0.1-0.1-0.1-1.1,0.6-0.9
		c0,0-0.2,1.2-0.2,1.2c0.3-0.4,0.5-0.6,0.7-0.9c0.7-0.2,0,0.7,0,1.1c0.1-0.1,0.6-1.5,1.1-0.7c0.2,0.2-0.6,0.5,0.4,1.3
		C8.4,34.3,7.7,33.4,6,33.1z"/>
	<path class="st2" d="M5.1,28L3,27.3c-0.8-0.3-2.5-1.3-2.2-1.9c0.5,0.1,1.4,1,1.5,1l0-0.2c-0.2-0.2-0.4-0.8,0-0.7
		c1.3,0.2,0.1,1.2,1,1.6c0.1-0.3-0.5-0.8,0-1.3c0.1,0,0.5,1.4,0.6,1.4c0.4-0.2,0-0.7,0.2-1.2c0.8,0.1,0.8,1.3,0.9,1.7
		c0.2-0.2,0.4-1.9,0.6-1C5.7,27,5.7,27.6,5.9,28c0.2-0.1,0.3-1.7,1.1-1c0.1,0.1-0.2,1.3,0.2,1.4c0.1-0.1-0.1-1.3,0.6-1.1
		c0,0-0.2,1.4-0.2,1.5c0.3-0.5,0.5-0.7,0.7-1.1c0.5,0,0,0.8,0,1.4c0.1-0.1,0.6-1.8,1.2-0.9c0.2,0.3-0.6,0.6,0.4,1.5
		C7.6,29.4,6.8,28.3,5.1,28z"/>
	<path class="st2" d="M17,29.6l2.1-0.4c0.8-0.2,2.4-0.9,2.1-1.6c-0.5,0-1.4,0.8-1.4,0.8l0-0.2c0.2-0.2,0.1-0.5,0-0.7
		c-1.3,0-0.1,1.2-1,1.5c-0.1-0.4,0.6-0.8,0-1.3c-0.1,0-0.5,1.3-0.6,1.3c-0.4-0.3,0-0.7-0.2-1.3c-0.7,0-0.7,1.2-0.8,1.5
		c-0.2-0.2-0.4-1.9-0.6-1c-0.1,0.3-0.1,0.9-0.3,1.2c-0.2-0.1-0.3-1.8-1-1.1c-0.1,0.1,0.2,1.3-0.1,1.4c-0.1-0.1,0.1-1.3-0.6-1.2
		c0,0,0.2,1.4,0.2,1.5c-0.3-0.6-0.4-0.8-0.5-1.2c-0.4-0.6-0.1,0.9-0.1,1.4c-0.1-0.1-0.6-1.9-1.1-1.1c-0.2,0.3,0.6,0.6-0.4,1.4
		C14.6,30.7,15.3,29.7,17,29.6z"/>
	<path class="st2" d="M16.6,23.3l2.4-0.3c0.9-0.1,2.9-0.7,2.9-1.2c-0.5,0-1.8,0.6-1.9,0.6l0.1-0.2c0.3-0.1,0.3-0.4,0.3-0.5
		c-1.4,0-0.5,0.9-1.6,1.1c0-0.3,0.9-0.6,0.5-0.9c-0.1,0-1.1,0.9-1.2,1c-0.3-0.2,0.2-0.5,0.2-0.9c-0.8,0-1.2,0.9-1.5,1.1
		c-0.1-0.2,0.3-1.4-0.2-0.8c-0.2,0.2-0.5,0.6-0.8,0.9c-0.2-0.1,0.3-1.3-0.7-0.8c-0.1,0.1-0.2,1-0.7,1c-0.1-0.1,0.6-0.9-0.2-0.9
		c0,0-0.3,1.1-0.4,1.1c-0.1-0.4-0.3-0.6-0.3-0.9c-0.2-0.4-0.4,0-0.5,1c0-0.1,0.1-1.4-0.8-0.8c-0.3,0.2,0.4,0.5-0.9,1.1
		C13.7,24.1,14.8,23.4,16.6,23.3z"/>
	<path class="st3" d="M11.5,24.3c1,0.3,5.8-0.6,8.1-1.1c0.8-0.2,0.8-0.4,0.8-0.4c-0.2,0-7.8,1.3-9.2,1.1c-0.2,0,0.5,0.3,0.3,0.3
		C11.5,24.2,11.4,24.3,11.5,24.3z"/>
	<path class="st2" d="M5.1,21.4l-2.1-0.2C2.1,21.2,0.2,20.7,0,20c0.4,0,1.8,0.6,1.8,0.6l-0.2-0.2c-0.3-0.1-0.4-0.4-0.5-0.6
		c1.2-0.1,0.8,1,1.8,1.2c-0.1-0.3-1-0.6-0.8-1.1c0.1,0,1.3,1.1,1.4,1.1c0.2-0.3-0.4-0.6-0.6-1.1c0.7,0,1.4,0.9,1.7,1.3
		c0-0.2-0.9-1.7-0.1-0.9c0.3,0.3,0.6,0.7,1,1c0.1-0.1-0.8-1.6,0.3-1.1c0.1,0.1,0.6,1.1,1,1.2c0-0.1-0.9-1.1-0.2-1.1
		c0,0,0.7,1.2,0.8,1.3c-0.1-0.5,0-0.7-0.1-1.1c0.2-0.2,0.5,0.2,0.8,1.2c0-0.1-0.7-1.7,0.3-1c0.3,0.2-0.1,0.6,1.2,1.2
		C7.9,22.1,6.7,21.3,5.1,21.4z"/>
	<path class="st3" d="M11.3,22.4c-1,0.3-5.7-0.5-8-1c-0.9-0.2-0.9-0.4-0.9-0.4c0.2-0.1,4.8,0.7,6.1,0.7c0.6,0,2.5,0.1,3,0.4
		c0.2,0.1-0.1,0.3,0.1,0.3C11.7,22.3,11.4,22.4,11.3,22.4z"/>
	<path class="st2" d="M17.4,20.1l2.3,0c0.9,0,2.9-0.5,2.8-1.2c-0.5-0.1-1.8,0.5-1.8,0.5l0.1-0.2c0.3-0.1,0.3-0.5,0.3-0.7
		c-1.4-0.2-0.5,1.1-1.6,1.2c0-0.4,0.9-0.6,0.5-1.2c-0.1,0-1,1.1-1.2,1.2c-0.3-0.3,0.2-0.7,0.2-1.2c-0.8-0.1-1.2,1-1.5,1.3
		c-0.1-0.3,0.3-1.9-0.2-1.1c-0.2,0.3-0.5,0.8-0.8,1.1C16.5,19.6,17,18,16,18.5c-0.1,0.1-0.2,1.3-0.7,1.3c-0.1-0.1,0.6-1.2-0.1-1.2
		c0,0-0.3,1.4-0.4,1.4c-0.1-0.6-0.1-0.8-0.1-1.3c-0.5-0.3-0.6,0.6-0.7,1.4c0-0.1,0.1-1.9-0.8-1.2c-0.3,0.2,0.4,0.7-0.9,1.3
		C14.5,20.6,15.6,19.8,17.4,20.1z"/>
	<path class="st3" d="M11,18.1c-1.1,0.4-6.2,0-8.6-0.3c-0.9-0.1-0.9-0.3-0.9-0.4c0.2-0.1,5,0.2,6.3,0.1c0.6,0,2.9,0,3.4,0.2
		c0.2,0.1-0.4,0.2-0.2,0.2C11,18,11.1,18.1,11,18.1z"/>
	<path class="st2" d="M16.8,13.9l2.1-0.5c0.8-0.2,2.5-1,2.5-1.7c-0.4,0-1.5,0.9-1.6,0.9l0.1-0.2c0.2-0.2,0.2-0.5,0.2-0.7
		c-1.2,0.1-0.5,1.2-1.4,1.5c0-0.4,0.8-0.8,0.5-1.3c-0.1,0-0.9,1.3-1,1.4c-0.2-0.3,0.2-0.7,0.2-1.3c-0.7,0.1-1.1,1.2-1.3,1.6
		c-0.1-0.2,0.3-2-0.2-1c-0.2,0.3-0.4,0.9-0.7,1.3c-0.1-0.1,0.3-1.8-0.6-1.1c-0.1,0.1-0.2,1.3-0.6,1.4c-0.1-0.1,0.5-1.3-0.1-1.2
		c0,0-0.3,1.5-0.3,1.5c0-0.4-0.1-0.6-0.2-0.9c0-0.2,0-0.4-0.2-0.4c-0.2,0-0.1,0.3,0.1,0.7c0.1,0.2-0.2,0.4-0.3,0.8
		c0-0.1,0.1-1.9-0.7-1.1c-0.2,0.3,0.3,0.6-0.8,1.5C14.2,15,15.2,14,16.8,13.9z"/>
	<path class="st3" d="M11.2,15.2c0.9,0.2,5.4-1,7.6-1.8c0.8-0.3,0.8-0.5,0.8-0.5c-0.2-0.1-4.4,1-5.5,1.2c-0.5,0.1-2.3,0.3-2.8,0.6
		c-0.2,0.1,0.1,0.2,0,0.3C11.1,15.1,11.1,15.2,11.2,15.2z"/>
	<path class="st3" d="M11.3,31.1c1,0.2,5.5-1,7.6-1.7c0.8-0.3,0.7-0.5,0.7-0.5c-0.2-0.1-4.4,1-5.6,1.1c-0.5,0.1-2.4,0.6-2.7,0.5
		c-0.2-0.1-0.2,0.1-0.3,0.2C11,30.8,11.3,31.1,11.3,31.1z"/>
	<path class="st3" d="M10.9,36.9c1,0,5.2-1.4,7.1-2.2c0.7-0.3,0.7-0.5,0.7-0.5c-0.2,0-4.3,1.2-5.3,1.7c-0.7,0.3-2.2,0.5-2.3,0.6
		c-0.2,0.1-0.1,0.1-0.2,0.1C10.8,36.6,10.8,36.9,10.9,36.9z"/>
	<path class="st2" d="M11.1,7.5l0.2,0.1c0.5,0.2,1.9-1.3,2-1.7c-0.8,0-1.3,1-1.6,1c0-0.8,1.9-1.5,1.4-2c-0.6,0-2.5,2.4-1.9,1
		c0,0,1.9-1.6,1.6-2.2c-0.7,0.1-1.2,1.1-1.6,1.1l0-0.1c0-0.4,1.3-1.7,1.4-2.4c0,0,0,0,0-0.1c-0.1,0.1-1.2,1.2-1.3,1.2
		c-0.1-0.2,1.4-2.9,0.6-2.6c-0.1,0.4-0.5,1.2-0.6,1.6c0-0.4,0.2-2,0.1-2.3c0-0.1,0,0-0.1-0.1c-0.8,0.3-0.3,3.2-0.3,3.5
		c0-0.4-0.4-1.6-1-1.6c-0.1,1.2,0.9,1.4,1,2.4c0,0.1,0.3,0.6,0.3,0.8c0,0-2-2.8-1.5-1.6l0,0.1c0.2,0.5,1.3,2.5,1.4,2.8
		c-0.3,0-1.4-1.8-1.7-1.7c-0.6-0.2,0.7,1.5,0.9,1.6l0.1,0.1c0.1,0.2,0.7,0.8,0.8,0.9C11.1,7.4,11.1,7.5,11.1,7.5z"/>
	<path class="st2" d="M16.4,8.4l1.2-0.2C18,8.1,19,7.6,19,7.1c-0.3,0-0.9,0.6-0.9,0.5l0.1-0.2c0.1-0.1,0.1-0.4,0.1-0.5
		c-0.7,0-0.3,0.9-0.8,1c0-0.3,0.5-0.5,0.3-0.9c-0.1,0-0.5,0.9-0.6,0.9c-0.1-0.2,0.1-0.5,0.1-0.9c-0.4,0-0.6,0.8-0.7,1.1
		c-0.1-0.2,0.2-1.4-0.1-0.8C16.3,7.6,16.1,8,16,8.3c-0.1-0.1,0.2-1.3-0.3-0.8c-0.1,0.1-0.1,0.9-0.3,1c0-0.1,0.3-0.9-0.1-0.9
		c0,0-0.2,1-0.2,1.1c0-0.4-0.1-0.5-0.1-0.9c-0.3-0.3-0.1,0.6-0.2,1c0-0.1,0-1.4-0.4-0.8c-0.1,0.2,0.2,0.5-0.5,1
		C14.9,9.1,15.4,8.4,16.4,8.4z"/>
	<path class="st2" d="M4.4,8.1l2.7,0.1l3,0.9c0.1-0.2,0-0.7-0.2-1C9.6,7.7,9.5,8.4,9.5,8.5C9.4,8.5,9.4,8.1,9.1,8
		C8.7,7.7,9.3,8.7,9.2,8.7c0,0-0.7-0.6-0.8-0.8C8.3,7.8,8,7.7,7.9,7.7C7.9,7.8,8.1,8.1,8.1,8.3C8,8.3,7.9,7.6,7.3,7.4
		C7.2,7.5,7.4,7.8,7.4,8.1c-0.2,0-0.6-0.9-1-0.8C6.4,7.5,6.9,7.8,6.9,8c-0.3,0-0.4-0.7-1-0.7c0,0.2,0.3,0.3,0.4,0.6
		C6.2,8,5.7,7.2,5.3,7.1c-0.1,0,0,0-0.2,0c0,0.4,0.6,0.5,0.5,0.8c-0.1,0-0.8-0.5-0.9-0.6C4.6,7.4,5.2,7.6,5.2,7.9
		c-0.5,0-0.4-0.6-0.9-0.6c0,0.1,0.4,0.4,0.4,0.6C4.4,8,4.3,7.3,3.6,7.3C3.3,7.5,4.5,8.1,4.4,8.1z"/>
	<path class="st2" d="M5.5,11.6l-2.2-0.4C2.5,11,0.7,10.4,0.7,9.8c0.5,0,1.6,0.7,1.7,0.7l-0.1-0.2C2.1,10.2,2,10,2,9.8
		c1.3,0.1,0.5,0.9,1.5,1.2c0-0.3-0.9-0.6-0.5-1c0.1,0,1,1,1.1,1.1c0.3-0.2-0.2-0.5-0.2-1C4.6,10.2,5,11,5.3,11.3
		c0.1-0.2-0.3-1.5,0.2-0.8c0.2,0.3,0.4,0.7,0.7,1c0.2-0.1-0.3-1.4,0.6-0.8c0.1,0.1,0.2,1,0.6,1.1c0.1-0.1-0.6-1,0.1-0.9
		c0,0,0.3,1.1,0.3,1.1c0-0.4,0.3-0.6,0.3-0.9c0.4-0.3,0.2,0.7,0.4,1.1c0-0.1-0.1-1.4,0.7-0.8c0.2,0.2-0.3,0.5,0.9,1.1
		C8.2,12.5,7.1,11.8,5.5,11.6z"/>
	<path class="st3" d="M11.4,39.6c0.1-4.5,0.1-9.5,0.2-11.1c0.2-3.8,0.2-20.6-0.1-23.6c-0.1-1.6,0-1.3-0.3-3.1
		c-0.5,2.1-0.2,22.5-0.4,27l0,0.3c-0.2,4-0.3,6.9-0.4,10.5H11.4z"/>
	<path class="st3" d="M11.3,9.6c0.7,0.1,4.2-0.7,5.8-1.3C17.6,8.2,17.6,8,17.7,8c-0.1,0-3.3,0.7-4.2,0.8c-0.3,0-1.7,0.2-2.2,0.4
		c-0.2,0.1,0.3,0.1,0.2,0.2c-0.1,0.1-0.1,0-0.2,0.1C11.3,9.5,11.2,9.6,11.3,9.6z"/>
	<path class="st3" d="M11.3,9.5l-0.1,0.4c-2.5-1.7-4.2-1.7-7-1.7C3.7,7.9,5.7,7.9,7,8.2C9,8.5,11.2,9.2,11.3,9.5z"/>
	<path class="st3" d="M11.3,13c-1,0.2-5.8-1-8.1-1.8c-0.8-0.3-0.8-0.5-0.8-0.5c0.2-0.1,4.7,1,5.9,1.2c0.5,0,2.2,0.3,2.9,0.6
		c0.2,0.1-0.3,0.1-0.2,0.2c0.2,0.1,0.1,0.1,0.3,0.1C11.3,12.9,11.3,13,11.3,13z"/>
	<path class="st3" d="M11.2,30.3c-1.1,0.1-5.8-1.8-8-2.8c-0.8-0.4-0.8-0.5-0.8-0.6c0.1,0.1,4.9,1.6,6.2,2.1c0.6,0.2,2.1,0.6,2.6,0.8
		c0.2,0.1,0.1,0.1,0.3,0.2C11.5,30,11.3,30.3,11.2,30.3z"/>
	<path class="st3" d="M11.2,34.7c-1,0-5.3-1.4-7.3-2.2c-0.7-0.3-0.7-0.5-0.7-0.5c0.2,0,4.2,1.3,5.3,1.5c0.5,0.1,2.1,0.5,2.5,0.8
		c0.1,0.1,0.1,0.2,0.2,0.3C11.2,34.6,11.2,34.7,11.2,34.7z"/>
	<path class="st3" d="M11.1,20.3c1,0.4,6.1,0,8.4-0.3c0.9-0.1,0.9-0.3,0.9-0.4c-0.2-0.1-4.9,0.2-6.2,0.3c-1,0.1-2.4,0-2.8,0.1
		c-0.2,0.1-0.1,0.1-0.3,0.1C11.1,20.2,11.1,20.2,11.1,20.3z"/>
</g>
<g>
	<path class="st0" d="M48.2,38.6c0,0,0,0.4-0.1,1 M48.3,39.6c0-0.2,0-0.4-0.1-0.6v0.6 M48.5,39.6c0-0.1-0.1-0.2-0.1-0.2l-0.1,0.1
		l0,0.1 M48.9,39.6c0-0.6-0.1-1-0.2-1.2c-0.1,0.1-0.1,0.6-0.1,1.2 M49,39.6c0-0.2-0.1-0.3-0.2-0.3c0,0.1,0,0.2-0.1,0.3 M49.4,39.6
		c-0.2-1.8-0.7-3.8-0.8-4.2c-0.1,0.4,0,2.6,0,3.3c0.4-0.5,0.6-4.5-0.3-5.2c-0.5,0.7-1,5.3,0.1,5.2c0.4-1.4,0.8-7.7-0.1-8.5
		c-0.3,0.6-0.5,5.4,0,5.6c-0.1-1.5,1-6.2-0.2-7.2c-0.1,0.7,0,5.5,0.4,5.8c0.3-0.3,0.8-8.2,0.2-8.6c-0.2,0.1-0.6,5-0.4,5.6
		c0.9-1.3,0.8-6.1,0.5-7.6c-0.3,0.6-0.2,4.8-0.2,5.8c0.5-2.1,0.5-5.3-0.2-7.4c-0.1,0.3,0,6.9,0,8.1c0-3.9,0.8-7.2,0.3-11.2
		c-0.1,0.2-0.2,4.3,0,4.5c0-1.9,0.4-4.8-0.4-6.6c-0.2,0.7-0.1,3,0.1,3.6c0.1-2.6,0.5-3.7-0.1-6.3c-0.3,0.3-0.5,3.8,0.1,4.1
		c0.1-0.8,0-6.2-0.6-6.3c-0.1,0.5-0.2,3.1,0.6,3.2c0-0.9,0.1-5.1-0.4-5.6c-0.1,0.2-0.2,2.8-0.1,3.1c0-0.6,0.3-5.2,0.3-5.3l-0.2,0.8
		c-0.1,0.5-0.3,3.3,0,3.7c-0.2-1.4,0.7-5.4,0.1-7.1c-0.2,0.5-0.6,4.1-0.2,4.6c0.3-0.6,0.5-5,0-5.2c0,0-0.1,1.8-0.1,2l0.1-0.4
		c0.3-1,0-3.4,0-3.5c0,0.2,0,0.5,0.1,0.7C48.1,2.9,48,2,48,1.7c0,0.1,0,0.2,0,0.3c0-0.1-0.1-0.3-0.1-0.4"/>
	<g>
		<path class="st1" d="M47.9,0.7c-0.1,0.2-0.2,0.5-0.3,0.9l0,0.1c0,0,0,0.1,0,0.1l0,0L47.5,2v0l0,0c-0.1,0.3-0.2,0.5-0.4,0.8l0,0.1
			c0,0,0.1,0,0.1,0c0.1,0,0.1,0.1,0,0.1h0c0,0-0.1,0.1-0.1,0.2c0,0.1,0,0.1,0,0.2c0,0,0,0.1,0,0.1c0,0,0.1,0.1,0.1,0.1v0v0
			c0,0.1,0,0.3-0.1,0.6c0,0.2-0.1,0.4-0.1,0.5l0,0c0,0,0-0.1,0.1-0.1c0-0.1,0.1-0.1,0.1-0.2l0,0c0,0,0,0,0.1,0c0.1,0,0.1,0,0.2,0.1
			c0.2,0.4-0.1,1.1-0.4,1.6C47.1,6,47.2,6,47.3,5.9c0.1-0.1,0.2-0.3,0.3-0.4c0,0,0.1-0.1,0.2,0c0,0,0.1,0.1,0.1,0.1h0
			c0,0.5,0,1.5-0.2,2.4c0,0,0,0,0,0c0.1,0,0.1,0.1,0,0.2l-0.1,0.3c-0.1,0.4-0.2,0.7-0.3,1l0.1-0.2c0.1-0.1,0.2-0.2,0.2-0.3
			c0,0,0.1-0.1,0.2,0c0.1,0,0.1,0.1,0.1,0.1c0,0,0,0.1-0.1,0.2l0,0l0.2-0.1l0,0c0,0,0.1,0,0.1,0c0.1,0,0.1,0.1,0.1,0.1
			c-0.1,0.3-0.7,1.2-1.3,1.9c0,0-0.1,0.1-0.1,0.1c-0.1,0.2-0.1,0.3-0.1,0.5c0.3-0.2,0.7-0.9,1-1.3c0.1-0.2,0.2-0.4,0.3-0.4
			c0.1,0,0.1,0,0.2,0c0,0,0,0.1,0,0.1c-0.4,0.7-0.6,1.3-0.8,1.7c0.1-0.1,0.2-0.2,0.2-0.3c0.1,0,0.1,0,0.2,0c0,0,0,0.1,0,0.1h0
			c-0.1,0.3-0.4,0.7-0.6,1.1c0,0.2-0.1,0.4-0.2,0.7c0,0,0,0,0,0c0,0,0,0.1,0,0.1c0,0.1-0.1,0.3-0.3,0.5v0c0,0,0.1,0,0.1,0
			c0.1,0,0.1,0.1,0.1,0.1c0.2-0.3,0.5-0.6,0.6-0.8l0,0c-0.1,0-0.1-0.1,0-0.2l0.1-0.1c0,0,0.1,0,0.1,0c0,0,0,0,0.1,0l0,0
			c0.1,0,0.1,0,0.2,0.1c0,0,0,0,0,0l0,0c0.1,0.3-0.1,0.7-0.2,1.1l0,0.1c0.1-0.2,0.2-0.4,0.3-0.4c0.1,0,0.1,0,0.1,0.1c0,0,0,0,0,0
			c0,0.1,0,0.4-0.1,0.6c0,0,0.1,0,0.1,0c0.1,0,0.1,0.1,0.1,0.1l0,0c-0.2,1.3-1,2.3-1.5,2.9l-0.1,0.1c0,0,0,0.1-0.1,0.2
			c0,0,0.1,0,0.1,0c0,0,0,0,0.1,0c0.5-0.5,0.9-1,1.1-1.1l0.3-0.2c0.1,0,0.1,0,0.2,0c0.1,0,0.1,0.1,0,0.2c-0.1,0.1-0.2,0.2-0.4,0.4
			c0,0,0,0,0,0c0,0.1-0.1,0.3-0.3,0.5c0,0,0,0.1,0,0.1v0c0,0,0,0.1,0,0.1c0.2,0,0.8,0,1.1-0.1l0-0.1l0,0c0-0.1,0.1-0.2,0.1-0.2
			c0,0,0.1-0.1,0.2,0c0,0,0.1,0.1,0.1,0.1l0,0c0,0.2,0,0.2-0.1,0.3l0,0c0,0,0,0,0,0c-0.1,0.1-0.2,0.3-0.3,0.5
			c-0.1,0.3-0.4,0.6-0.8,1c0,0.2-0.2,0.8-0.5,1.4c0.1,0,0.1,0.1,0.1,0.1c0,0-0.1,0.1-0.2,0.3c-0.1,0.1-0.1,0.2-0.2,0.3
			c-0.1,0.2-0.2,0.5-0.3,0.7c0.2-0.2,0.4-0.3,0.4-0.3c0.1,0,0.1,0,0.2,0.1c0,0,0,0,0,0c0,0,0,0,0,0.1v0l0,0c0,0,0,0,0,0
			c0,0,0.1,0,0.1,0c0,0,0,0.1,0,0.1l0,0l-0.1,0.1c0,0,0,0,0,0c-0.2,0.3-0.5,0.8-0.7,1c-0.3,0.4-0.7,0.9-1.1,1.4
			c-0.2,0.3-0.5,0.7-0.7,0.9c0,0.1,0,0.2,0,0.3c0.1-0.2,0.2-0.4,0.3-0.6c0.2-0.3,0.3-0.6,0.4-0.7c0,0,0.1-0.1,0.2,0
			c0-0.1,0.1-0.1,0.1-0.1c0-0.1,0.1-0.1,0.2-0.1c0.1,0,0.1,0.1,0.1,0.2c0,0-0.1,0.2-0.2,0.3l0,0.1c0,0.2-0.1,0.4-0.3,0.5l0,0
			l-0.1,0.1c0,0-0.1,0.1-0.2,0l0,0c-0.3,0.5-0.6,1.1-0.9,1.1v0l0,0c-0.1,0-0.1-0.1-0.1-0.1c0-0.2,0.1-0.3,0.2-0.5l0,0
			c-0.1,0.1-0.2,0.3-0.4,0.5c-0.5,0.7-1.2,1.6-1.6,1.6l0,0l0,0l0,0c-0.1,0-0.1-0.1-0.1-0.1c0,0,0,0,0,0c-0.5,0.4-1,0.8-1.2,0.9
			l-1.2,0.7c-0.1,0-0.1,0-0.2,0c0,0,0,0,0,0l-0.1,0.1c-0.4,0.3-0.8,0.5-1,0.6c-0.1,0-0.1,0-0.2,0c-0.4,0.2-0.6,0.4-0.7,0.4v0
			c0,0-0.1,0-0.1,0c-0.1,0-0.1-0.1-0.1-0.2c0,0,0.1-0.1,0.1-0.1c-0.3,0.2-0.7,0.4-1.1,0.6c0,0-0.1,0.1-0.1,0.1l-0.1,0
			c-0.8,0.3-1.7,0.6-2.4,0.6l0,0c0,0-0.1,0-0.1-0.1c0-0.1,0-0.1,0-0.2c0.1,0,0.2-0.1,0.3-0.1c0,0,0-0.1,0-0.1
			c0.4-0.3,1.4-0.6,2.2-0.8c0.2-0.2,1-0.6,1.7-1c0.2-0.1,0.4-0.2,0.6-0.3c0.2-0.2,0.4-0.3,0.7-0.5c0,0-0.1-0.1,0-0.1
			c0.1-0.1,0.8-0.7,1.5-1.3c0.8-0.6,1.7-1.3,1.9-1.4h0c0,0,0.1,0,0.1,0c0.1,0,0.1,0.1,0.1,0.1c0,0,0,0,0,0.1c0.3-0.3,0.7-0.5,1-0.8
			c0,0,0-0.1,0-0.1c0,0,0,0,0-0.1c0-0.1,0.2-0.2,0.3-0.3c0,0,0-0.1,0-0.1c0,0,0,0,0,0l0,0c0-0.1,0.4-0.5,0.9-1.1
			c0.3-0.3,0.6-0.7,0.9-1.1l0.1-0.1c0,0,0-0.1,0-0.1c0.1-0.2,0.2-0.5,0.3-0.8c0,0.1-0.1,0.1-0.1,0.1c0,0-0.1,0.1-0.2,0
			c-0.1,0-0.1-0.1,0-0.2c0,0,0.1-0.1,0.1-0.2c0.1-0.2,0.2-0.5,0.3-0.8c-0.4,0.3-0.7,0.5-1,0.7c-0.1,0.1-0.2,0.2-0.3,0.2
			c0,0-0.1,0-0.1,0c0,0-0.1,0-0.1,0c-0.3,0.3-0.8,0.5-1.2,0.8l0,0c0,0,0.1,0.1,0,0.1c0,0,0,0,0,0c-0.2,0.1-0.5,0.3-0.8,0.6
			c-0.5,0.4-1.2,0.8-1.8,1.2c-0.3,0.3-0.9,0.6-1.6,0.8c-1,0.7-1.9,1.4-2.3,1.4l0,0c-0.1,0-0.1,0-0.1-0.1c0,0,0,0,0,0
			c-0.1,0.1-0.2,0.1-0.4,0.2C36.6,26.8,36.1,27,36,27c0,0,0,0,0,0c-0.1,0-0.1-0.1-0.1-0.1c0-0.1,0.2-0.3,0.5-0.4
			c-0.6,0.1-1.4,0.2-1.6,0.2h0l0,0c-0.1,0-0.1-0.1-0.1-0.1c0-0.2,0.2-0.4,0.5-0.5c0,0-0.1,0-0.1-0.1c0-0.1,0-0.1,0.1-0.1
			c0.6-0.1,1.1-0.3,1.7-0.5c0.6-0.2,1.2-0.5,1.7-0.5l0.5-0.1l0,0c0,0,0.1,0,0.1,0c0,0,0,0.1,0,0.1c0.1-0.1,0.2-0.1,0.4-0.2l0,0l0,0
			c0,0,0,0,0-0.1c0,0,0,0,0,0c-0.1,0-0.1-0.1-0.1-0.1c0,0,0,0,0.1-0.1l0,0c0.1,0,0.1-0.1,0.2-0.1c0.1-0.1,0.3-0.2,0.4-0.3
			c0,0,0,0,0-0.1c0-0.1,0-0.1,0.1-0.1c0.1,0,0.4-0.2,0.8-0.4c0.6-0.3,1.3-0.7,1.9-1c0.5-0.3,1-0.6,1.2-0.8c-0.5,0.2-1.8,0.8-2.7,1.3
			c-0.3,0.2-0.6,0.3-0.8,0.4c-0.3,0.1-0.5,0.2-0.6,0.3l-0.1-0.2c0.1,0,0.3-0.1,0.6-0.3c0.3-0.2,0.6-0.4,1-0.6c0,0,0,0,0-0.1
			c0,0,0-0.1,0-0.1c0.5-0.5,1.5-1.3,2.4-2l0.3-0.3c0.4-0.4,0.8-0.8,1.1-1.1c0.5-0.7,1.1-1.5,1.5-1.8l0,0c0,0,0,0,0,0
			c0,0,0.1,0,0.1,0c0.2-0.3,0.4-0.5,0.7-0.8l0,0c0.1-0.1,0.1-0.2,0.2-0.3c-0.1,0-0.1-0.1-0.1-0.1c0-0.1,0.1-0.3,0.1-0.6
			c0-0.2,0.1-0.3,0.1-0.5c-0.1,0.1-0.1,0.2-0.2,0.3c-0.1,0-0.1,0-0.2,0c-0.2-0.2,0-0.6,0.2-1c0.1-0.3,0.2-0.6,0.2-0.8
			c-0.2,0.4-0.8,1.1-1.2,1.7c-0.2,0.3-0.4,0.5-0.5,0.6c0,0,0,0-0.1,0c-0.2,0.2-0.4,0.5-0.7,0.8c-0.1,0.2-0.3,0.5-0.6,0.7
			c-0.3,0.4-0.9,0.9-1.5,1.4c-0.7,0.5-1.5,0.9-2,0.8c0,0,0,0,0,0l-0.1,0c-0.5,0.3-0.9,0.4-1.5,0.7c0.1,0,0.2,0,0.3,0l0,0l0.2-0.1
			c0.2-0.1,0.4-0.1,0.5-0.1v0c0,0,0.1,0,0.1,0c0.1,0,0.1,0.1,0.1,0.1c-0.1,0.1-0.9,0.4-1.7,0.6c-0.2,0-0.3,0.1-0.5,0.1
			c-0.7,0.2-1.4,0.3-1.7,0.4l0,0c0,0-0.1,0-0.1,0c0-0.1,0-0.1,0-0.2c0.1,0,0.2-0.1,0.4-0.1c-0.3,0-0.6,0-0.7,0c0,0-0.1,0-0.1,0
			c0-0.1,0-0.1,0-0.2l0,0c0,0-0.1-0.1-0.1-0.1c0-0.1,0.1-0.1,0.1-0.1l0,0l0,0c0.1,0,0.2-0.1,0.4-0.1c0.4-0.3,1.2-0.6,1.9-0.7
			c0.3-0.1,0.6-0.2,0.8-0.2l0,0l0,0c0-0.1,0-0.1,0.1-0.1c0.1,0,0.3-0.2,0.6-0.3c0.3-0.2,0.6-0.5,0.9-0.7c0.7-0.5,1.5-1,2.1-1.2l0,0
			c0.1,0,0.1,0,0.2,0c0,0,0,0.1,0,0.2c-0.1,0-0.7,0.4-1.5,0.9c0.6-0.3,1.2-0.7,1.8-1c0,0,0.1-0.1,0.2-0.1c0.1-0.1,0.2-0.2,0.3-0.3
			c0.1-0.1,0.1-0.2,0.2-0.3l0.2-0.2c-0.2,0.2-0.3,0.3-0.5,0.4c0,0-0.1,0-0.1,0c-0.1,0-0.1-0.1-0.1-0.1c0-0.1,0.1-0.2,0.1-0.3
			c-0.1,0-0.1-0.1-0.1-0.1c0-0.1,0.6-1,1.2-1.9c0.5-0.8,1-1.5,1.1-1.6v0c0,0,0.1,0,0.1,0c0,0,0,0,0.1,0c0.2-0.3,0.3-0.4,0.3-0.4
			c0,0,0.1,0,0.1,0c0-0.2,0.1-0.3,0.1-0.5c-0.2,0.3-0.4,0.4-0.7,0.4v0l0,0c-0.1,0-0.1-0.1-0.1-0.1c0-0.1,0-0.2,0-0.3
			c-0.1,0.1-0.3,0.2-0.4,0.2c0,0,0,0,0,0l-0.1,0c0,0-0.1,0.1-0.2,0.1l0,0c-0.6,0.6-1.2,1.1-1.7,1.2v0c0,0-0.1,0-0.1,0c0,0,0,0,0,0
			c-0.5,0.3-1,0.6-1.4,0.8c-0.1,0.1-0.3,0.2-0.5,0.3c0,0,0,0,0,0c0,0.1,0,0.1-0.1,0.1c0,0,0,0,0,0c-0.1,0-0.2,0.1-0.4,0.2
			c-0.2,0.1-0.3,0.2-0.5,0.3c-0.2,0.1-0.5,0.2-0.8,0.4c-0.6,0.3-1.1,0.5-1.3,0.5h0l0,0c0,0-0.1,0-0.1,0c-0.3,0.1-0.6,0.2-0.8,0.2
			c-0.1,0-0.1,0-0.1-0.1c0-0.1,0-0.1,0.1-0.1c0.1,0,0.3-0.1,0.5-0.2c-0.1,0-0.3,0-0.5,0c-0.1,0-0.1,0-0.1-0.1c0-0.1,0-0.1,0.1-0.1
			c0,0,0.1,0,0.2-0.1c0.1,0,0.2,0,0.3-0.1c0,0,0-0.1,0.1-0.1c0.1,0,0.1-0.1,0.2-0.1c-0.2,0-0.3,0-0.3,0v0c0,0-0.1,0-0.1,0
			c0-0.1,0-0.1,0-0.2c0.3-0.2,1.5-0.6,2.5-0.9l0,0c0.2-0.1,0.5-0.2,0.7-0.2c0.2-0.1,0.3-0.2,0.5-0.3c0.1-0.1,0.2-0.1,0.4-0.2
			c0,0,0,0,0-0.1c0,0,0-0.1,0.1-0.1c0.1-0.1,0.3-0.2,0.5-0.3c0.2-0.1,0.4-0.3,0.7-0.4c0.5-0.4,1.1-1,1.6-1.5
			c0.4-0.6,0.9-1.2,1.2-1.6l0.4-0.5c0-0.1,0.1-0.1,0.1-0.2l0,0c0-0.1,0.1-0.1,0.2-0.1c0,0,0,0,0,0c0.1-0.1,0.2-0.3,0.2-0.4
			c0.1-0.7,0.2-1.6,0.2-2.2l0,0.1c-0.1,0.1-0.2,0.2-0.3,0.3l-0.1,0.2c0,0,0,0-0.1,0c-0.1,0-0.1,0-0.2-0.1c-0.1,0.1-0.2,0.3-0.3,0.4
			c-0.2,0.2-0.3,0.4-0.3,0.5c0,0.1-0.1,0.1-0.2,0.1c0,0,0,0-0.1,0c-0.1,0.1-0.1,0.2-0.2,0.3l-0.1,0.1l-0.1,0.1c0,0,0,0,0,0
			c0,0,0.1-0.1,0.1-0.1c0.1,0,0.1,0,0.2,0.1c0,0,0,0.1,0,0.1c0,0-0.1,0.1-0.1,0.1c-0.1,0.1-0.2,0.2-0.3,0.3
			c-0.1,0.1-0.3,0.3-0.5,0.4c-0.3,0.4-0.6,0.7-0.9,0.9c0,0,0,0,0,0c0,0,0,0.1-0.1,0.1v0c-0.4,0.2-1.6,0.8-2.6,1.2
			c-0.2,0.1-0.5,0.2-0.7,0.2c0,0,0,0.1,0,0.1c0,0.1,0,0.1-0.1,0.1c-0.1,0-0.2,0-0.3,0.1c0,0,0,0.1-0.1,0.1c-0.1,0.1-0.4,0.2-0.7,0.3
			c-0.3,0.1-0.6,0.2-0.7,0.2c0,0-0.1,0-0.1,0c-0.2,0.1-0.4,0.1-0.5,0.2c-0.1,0-0.1,0-0.2,0c0,0,0-0.1,0-0.2c0,0,0.1-0.1,0.2-0.1
			c0,0,0-0.1,0.1-0.1c0.1,0,0.4-0.2,0.7-0.3c-0.1,0-0.2,0-0.3,0c0,0,0,0,0,0l0,0l0,0l0,0c0,0,0,0,0,0c0,0,0,0-0.1-0.1l0,0
			c-0.1,0-0.1,0-0.2-0.1c0-0.1,0-0.1,0.1-0.1l0,0c0.1-0.1,1-0.4,1.8-0.7l0.6-0.2c0,0,0,0,0,0c-0.1,0-0.1-0.1-0.1-0.1
			c0-0.1,0.8-0.6,1.7-1.3c1.1-0.8,2.3-1.6,2.5-1.8l0,0c0,0,0.1,0,0.1,0C45.5,7.1,45.5,7,45.6,7c0.3-0.5,0.9-1.4,1.2-1.9l0-0.1
			c0-0.2,0.1-0.6,0.1-0.9C47,3.9,47,3.7,47,3.6c0,0-0.1-0.1-0.1-0.1c-0.2,0.3-0.6,0.8-0.9,1.2c0,0.1-0.1,0.1-0.1,0.2
			c0,0,0,0.1,0,0.1c-0.1,0.1-0.3,0.3-0.4,0.4c0,0-0.1,0.1-0.1,0.1c-0.4,0.3-0.9,0.7-1.3,1c-0.2,0.1-0.3,0.2-0.5,0.3
			c-0.1,0.1-0.2,0.1-0.3,0.2c-0.1,0.4-0.6,0.6-1.3,0.7c-0.2,0-0.5,0.1-0.8,0.1C40.8,7.9,40.4,8,40,8.1l0,0c-0.1,0-0.1,0-0.1-0.1l0,0
			c-0.2,0-0.4,0-0.5,0l0,0c0,0,0,0-0.1,0c-0.1,0-0.1-0.1-0.1-0.1v0l0,0v0c0-0.2,0.4-0.3,0.9-0.5c0.2-0.1,0.5-0.1,0.7-0.2
			c0.3-0.1,0.6-0.1,0.8-0.1c0.1,0,0.1,0,0.1,0.1l0,0c0.1-0.1,0.4-0.2,0.6-0.3c0.1,0,0.2-0.1,0.3-0.1c0,0,0,0,0,0c0-0.1,0-0.1,0-0.2
			c0.1,0,0.2-0.1,0.3-0.1c0,0,0-0.1,0-0.1c0.1-0.1,0.3-0.3,0.4-0.4c0.2-0.2,0.4-0.4,0.6-0.5c0,0,0-0.1,0.1-0.1c0,0,0.1,0,0.1-0.1
			c0.4-0.3,0.8-0.6,1.1-0.9l0.1-0.1c0.1-0.1,0.2-0.2,0.4-0.3c0.3-0.3,0.5-0.5,0.8-0.7c0,0,0,0,0,0l0.1,0c0.1-0.1,0.1-0.2,0.2-0.3
			c0-0.1,0.1-0.2,0.2-0.4l0,0c0.1-0.1,0.1-0.3,0.2-0.4c0.1-0.2,0.2-0.4,0.2-0.7c0.1-0.2,0.1-0.3,0.2-0.4C47.6,0.9,47.7,0.8,47.9,0.7
			L47.9,0.7z M45.9,4.5L45.9,4.5C45.8,4.6,45.8,4.6,45.9,4.5L45.9,4.5L45.9,4.5L45.9,4.5z M45.6,4.7L45.6,4.7
			c-0.1-0.1-0.1-0.1,0-0.2l0,0l0,0c0.2-0.2,0.4-0.4,0.6-0.6L46,4.1l-0.2,0.1c0,0,0,0,0,0.1C45.6,4.5,45.3,4.7,45,5
			c-0.3,0.2-0.5,0.4-0.7,0.5c-0.2,0.2-0.4,0.3-0.6,0.5c0.2-0.1,0.3-0.2,0.5-0.3c0.1-0.1,0.3-0.2,0.4-0.3c0.1-0.1,0.2-0.1,0.3-0.2
			C45,5.2,45.1,5.1,45.2,5c0,0,0.1,0,0.1,0C45.5,4.9,45.5,4.8,45.6,4.7L45.6,4.7z M44.6,5.5c0.1-0.1,0.2-0.1,0.3-0.2L44.6,5.5
			L44.6,5.5z M43.5,6.5c-0.2,0.1-0.3,0.1-0.5,0.2l0,0c0,0,0,0,0,0C43.3,6.7,43.4,6.6,43.5,6.5L43.5,6.5z M42.3,7.1
			c0.1,0,0.2-0.1,0.4-0.1c-0.1,0-0.1,0-0.2,0.1C42.4,7.1,42.3,7.1,42.3,7.1L42.3,7.1z M41.6,7.5C41.6,7.5,41.6,7.4,41.6,7.5
			c-0.1,0-0.2,0.1-0.4,0.1C41.3,7.6,41.5,7.5,41.6,7.5L41.6,7.5z M46.9,5.4L46.9,5.4c-0.1,0.1-0.1,0.1,0,0.1c0,0,0,0,0,0
			C46.9,5.5,46.9,5.4,46.9,5.4L46.9,5.4z M46.8,5.7c-0.1,0.1-0.3,0.4-0.5,0.7c0,0,0.1,0,0.1-0.1c0.1,0,0.1,0,0.2,0c0,0,0,0,0,0
			c0-0.1,0.1-0.1,0.1-0.2C46.8,6,46.8,5.8,46.8,5.7L46.8,5.7z M45.8,7.3c-0.2,0.2-0.4,0.4-0.6,0.6l0,0c0,0-0.1,0.1-0.2,0.2
			c0.1-0.1,0.2-0.1,0.2-0.1c0.1-0.1,0.3-0.3,0.4-0.5c0.1-0.2,0.2-0.3,0.4-0.5L45.8,7.3L45.8,7.3z M43.6,9.3c0-0.1,0-0.1,0.1-0.2
			c-0.1,0.1-0.3,0.2-0.4,0.2c-0.3,0.2-0.6,0.4-0.9,0.5c0,0,0.1,0,0.1,0c0,0,0,0.1,0,0.1l0.4-0.2L43,9.8c0.2-0.1,0.3-0.2,0.5-0.3
			C43.5,9.4,43.5,9.4,43.6,9.3L43.6,9.3z M43.6,8.7c0.1-0.1,0.2-0.2,0.3-0.2c-0.3,0.2-0.6,0.5-1,0.7l-0.2,0.2l0.1,0
			C43,9,43.3,8.9,43.6,8.7L43.6,8.7z M42,9.7l-0.1,0.1L42,9.7L42,9.7L42,9.7z M43.9,9.7L43.9,9.7L43.9,9.7L43.9,9.7
			C43.9,9.7,43.9,9.7,43.9,9.7L43.9,9.7z M46,8.1L46,8.1C46,8.1,46,8.1,46,8.1L46,8.1z M41.2,10.8c-0.2,0.1-0.3,0.1-0.4,0.2l0.1,0
			c0.1-0.1,0.3-0.1,0.4-0.2L41.2,10.8L41.2,10.8z M40.8,11.4L40.8,11.4C40.7,11.5,40.8,11.5,40.8,11.4L40.8,11.4z M47.2,5.3
			c0-0.1,0-0.1,0.1-0.2C47.3,5.1,47.2,5.2,47.2,5.3L47.2,5.3z M47,9.6c-0.1,0-0.1,0-0.2,0c0,0-0.1-0.1,0-0.1c0,0,0-0.1,0-0.1
			l-0.1,0.1c0,0.1-0.1,0.1-0.1,0.2c0,0,0,0,0,0.1c-0.1,0.2-0.3,0.5-0.4,0.7c0.1-0.1,0.2-0.1,0.3-0.2C46.7,10,46.9,9.8,47,9.6L47,9.6
			z M46.5,9.5L46.5,9.5L46.5,9.5L46.5,9.5L46.5,9.5z M45.5,11.3c0,0-0.1-0.1,0-0.1c0.1-0.2,0.2-0.4,0.3-0.6l-0.2,0.3
			c-0.2,0.3-0.4,0.5-0.6,0.8c0.1,0,0.1,0.1,0.1,0.1c0,0,0,0,0,0.1c-0.1,0.1-0.2,0.2-0.3,0.3c0.2-0.1,0.4-0.3,0.6-0.4
			C45.4,11.7,45.4,11.5,45.5,11.3L45.5,11.3z M44.2,12.3C44.2,12.3,44.2,12.3,44.2,12.3c-0.1,0-0.3,0.1-0.4,0.2
			c-0.1,0.1-0.2,0.1-0.2,0.2l0,0c0,0,0,0,0,0c0.1,0,0.1-0.1,0.2-0.1l0,0l0,0l0,0c0,0,0.1,0,0.1,0C44,12.5,44.1,12.5,44.2,12.3
			C44.2,12.3,44.2,12.3,44.2,12.3L44.2,12.3z M45.1,11.9L45,11.9C45.1,11.9,45.1,11.9,45.1,11.9L45.1,11.9z M41.3,14.2L41.3,14.2
			c0,0.1-0.1,0.1-0.1,0.1c0,0,0,0-0.1,0l0,0c-0.2,0-0.3,0.1-0.5,0.1c-0.1,0.1-0.3,0.1-0.4,0.2c0.3-0.1,0.6-0.2,0.8-0.2
			c0.1,0,0.2-0.1,0.3-0.1c0,0,0.1-0.1,0.1-0.1C41.5,14.2,41.4,14.2,41.3,14.2L41.3,14.2C41.3,14.2,41.3,14.2,41.3,14.2L41.3,14.2z
			 M39.8,14.5c0.1,0,0.1-0.1,0.2-0.1c-0.1,0.1-0.3,0.1-0.4,0.2L39.8,14.5L39.8,14.5z M46.8,10.3C46.8,10.3,46.8,10.3,46.8,10.3
			c0,0,0.1-0.1,0.1-0.2L46.8,10.3L46.8,10.3z M45.5,14.9c0-0.1,0.1-0.2,0.2-0.3l0.1-0.2c-0.1,0.2-0.3,0.4-0.4,0.6
			c-0.2,0.3-0.4,0.6-0.6,0.8C45,15.5,45.3,15.2,45.5,14.9L45.5,14.9z M45.9,15.1l-0.2,0.2c0,0,0.1,0,0.1,0
			C45.9,15.2,45.9,15.2,45.9,15.1L45.9,15.1z M43.6,18.1c-0.1,0-0.2,0.1-0.3,0.1c0,0,0,0-0.1,0c0,0-0.1,0-0.2,0.1l0,0
			c-0.6,0.4-1,0.7-1.4,0.9c0.4-0.1,0.9-0.4,1.4-0.7C43.2,18.4,43.4,18.2,43.6,18.1L43.6,18.1z M40.4,19.5c0.3-0.1,0.5-0.3,0.8-0.4
			l0.1-0.1C40.9,19.2,40.6,19.3,40.4,19.5l-0.1,0.1C40.3,19.5,40.3,19.5,40.4,19.5L40.4,19.5z M38.2,20.5L38.2,20.5l-0.1,0
			c-0.1,0-0.2,0.1-0.3,0.1C37.9,20.6,38,20.5,38.2,20.5C38.2,20.5,38.2,20.5,38.2,20.5L38.2,20.5z M38.7,20c0.1,0,0.1,0,0.2-0.1
			l0.1,0l0.1,0l-0.1,0c-0.1,0-0.3,0.1-0.4,0.1C38.6,20,38.7,20,38.7,20L38.7,20z M37.3,20.7c-0.1,0-0.1,0-0.2,0l-0.1,0
			C37.1,20.7,37.2,20.7,37.3,20.7L37.3,20.7z M45.9,18.3L45.9,18.3L45.9,18.3L45.9,18.3L45.9,18.3z M45.2,19.4
			c0.1-0.1,0.2-0.3,0.3-0.4c-0.1,0-0.1,0.1-0.2,0.1C45.3,19.3,45.2,19.4,45.2,19.4C45.1,19.5,45.2,19.4,45.2,19.4L45.2,19.4z
			 M44.9,20.2L44.9,20.2l-0.3,0.3C44.8,20.4,44.9,20.3,44.9,20.2L44.9,20.2z M46.9,18.3L46.9,18.3C46.8,18.4,46.8,18.4,46.9,18.3
			L46.9,18.3L46.9,18.3z M45.7,19.7c-0.1,0.1-0.2,0.3-0.3,0.4l0.1-0.1L45.7,19.7l0.1,0c0.2-0.2,0.3-0.4,0.4-0.6
			C46.1,19.3,45.9,19.5,45.7,19.7L45.7,19.7z M45,20.7c0,0,0-0.1,0-0.2c-0.3,0.4-0.6,0.7-0.9,0.9c0.1,0,0.1,0,0.1,0
			c0.1,0,0.1,0.1,0.1,0.1c0,0.1-0.1,0.3-0.4,0.5l0,0c1-0.6,1.8-1.2,2-1.5c-0.5,0.4-1,0.7-1.2,0.8c-0.1,0-0.1,0-0.2-0.1
			c0,0,0-0.1,0-0.1v0C44.7,21,44.8,20.8,45,20.7L45,20.7z M46.4,19.7c0,0.1-0.1,0.1-0.1,0.2c0.2-0.1,0.3-0.3,0.4-0.4
			c0.2-0.2,0.4-0.4,0.6-0.5c0-0.1,0-0.1,0-0.2l-0.1,0.1c-0.1,0.2-0.2,0.4-0.2,0.4c0,0-0.1,0.1-0.2,0C46.6,19.4,46.5,19.6,46.4,19.7
			L46.4,19.7z M45.8,20.3c0,0,0-0.1,0-0.1h0l0,0c-0.1,0.1-0.2,0.3-0.4,0.4C45.5,20.5,45.6,20.4,45.8,20.3L45.8,20.3z M47.6,18.2
			L47.6,18.2L47.6,18.2L47.6,18.2L47.6,18.2L47.6,18.2L47.6,18.2z M47.7,18.5c0,0-0.1,0.1-0.1,0.1l0,0.1
			C47.7,18.6,47.7,18.5,47.7,18.5L47.7,18.5z M48.2,18.2c0,0.2-0.3,0.5-0.6,0.9c0,0.2-0.1,0.5-0.1,0.7c0.2-0.1,0.3-0.3,0.5-0.4
			c0,0-0.1,0-0.1,0c-0.1,0-0.1-0.1-0.1-0.1c0-0.1,0.2-0.4,0.4-0.5c0.2-0.2,0.4-0.3,0.6-0.3c0-0.1,0.1-0.1,0.1-0.2
			C48.6,18.2,48.4,18.2,48.2,18.2L48.2,18.2z M47.2,19.4c-0.1,0.1-0.2,0.2-0.3,0.2c-0.3,0.2-0.6,0.5-0.9,0.7c0,0,0,0,0.1,0
			c0.1,0,0.1,0.1,0.1,0.1c0,0,0,0.1,0,0.1c0.3-0.2,0.5-0.4,0.8-0.6C47.1,19.8,47.1,19.6,47.2,19.4L47.2,19.4z M43.5,21.6L43.5,21.6
			c0,0,0-0.1,0-0.1c0.1-0.1,0.4-0.5,0.8-1c-0.6,0.5-1.3,1.1-2,1.6c-0.1,0.1-0.2,0.1-0.3,0.2C42.6,22.1,43.1,21.8,43.5,21.6
			L43.5,21.6z M42,22c0.1-0.1,0.3-0.2,0.4-0.3C42.3,21.8,42.1,21.9,42,22L42,22z M40.9,24.2c0.1,0,0.1-0.1,0.2-0.1L40.9,24.2
			L40.9,24.2L40.9,24.2z M41.5,23.9c0.5-0.3,1-0.7,1.4-1c-0.3,0.2-0.6,0.4-0.9,0.5c-0.2,0.1-0.4,0.3-0.6,0.4
			C41.5,23.9,41.5,23.9,41.5,23.9L41.5,23.9L41.5,23.9L41.5,23.9z M39.1,25.3c-0.3,0.1-0.6,0.2-0.9,0.3h0c-0.2,0.1-0.4,0.1-0.5,0.2
			c-0.1,0.1-0.3,0.1-0.3,0.1l0,0l0,0c0,0,0,0,0,0c0,0,0,0,0,0c0.1,0,0.1,0.1,0,0.2c0,0,0,0-0.1,0c0,0,0,0-0.1,0
			c0.5-0.3,1.1-0.5,1.3-0.5c0,0,0.1,0,0.1,0C38.7,25.6,38.9,25.4,39.1,25.3L39.1,25.3z M37.2,25.9C37.2,25.9,37.2,25.9,37.2,25.9
			C37.2,25.9,37.2,25.9,37.2,25.9l-0.7,0.2c-0.1,0-0.1,0-0.2,0.1l0,0l0,0c0,0,0,0-0.1,0h0l0,0c0,0-0.1,0-0.1-0.1
			c0-0.1,0-0.1,0.1-0.1C36,26,35.8,26,35.7,26c-0.1,0-0.2,0.1-0.3,0.1c-0.2,0.1-0.4,0.2-0.5,0.3c0.3,0,0.9-0.1,1.4-0.2
			c0.4-0.1,0.7-0.2,0.9-0.2C37.1,26,37.1,26,37.2,25.9C37.2,25.9,37.2,25.9,37.2,25.9L37.2,25.9z M37.1,25.6l0.1,0
			c0.4-0.2,0.8-0.4,1.1-0.5c-0.5,0.1-1,0.3-1.5,0.5l-0.2,0.1c0.1,0,0.3,0,0.3,0v0C37,25.5,37,25.5,37.1,25.6
			C37.1,25.5,37.1,25.6,37.1,25.6L37.1,25.6z M37.1,25.9L37.1,25.9L37.1,25.9L37.1,25.9z M48.4,18.7c-0.1,0-0.1,0.1-0.2,0.1
			C48.1,18.9,48,19,48,19.1C48.1,19.1,48.2,18.9,48.4,18.7L48.4,18.7z M47.2,20.8l-0.1,0.1c0,0,0.1,0,0.1,0c0,0,0,0,0,0c0,0,0,0,0,0
			c0.1-0.2,0.2-0.5,0.2-0.7L47.2,20.8L47.2,20.8z M46.3,23L46.3,23C46.3,23,46.3,23,46.3,23L46.3,23L46.3,23L46.3,23z M46.8,22.9
			c-0.1,0.1-0.3,0.3-0.5,0.4c0,0,0,0,0.1,0C46.5,23.2,46.6,23.1,46.8,22.9L46.8,22.9L46.8,22.9z M43.5,26.2c0.1-0.1,0.2-0.1,0.3-0.2
			c0.2-0.1,0.3-0.3,0.5-0.4l0.2-0.1c0-0.1,0.1-0.1,0.1-0.2c-0.5,0.3-1.1,0.8-1.4,1.1L43.5,26.2L43.5,26.2z M42.7,26.9L42.7,26.9
			C42.7,26.9,42.7,26.9,42.7,26.9L42.7,26.9c-0.2,0-0.3,0.2-0.5,0.3c0,0,0,0,0,0c0,0-0.1,0.1-0.2,0.1c-0.1,0.1-0.2,0.2-0.3,0.2
			C42.1,27.4,42.4,27.2,42.7,26.9L42.7,26.9z M43.2,27.1L43.2,27.1c-0.2,0.2-0.5,0.4-0.7,0.5c0.3-0.1,0.5-0.3,0.8-0.5
			C43.3,27.1,43.2,27.1,43.2,27.1L43.2,27.1z M41.9,28.1c-0.5,0.3-1,0.6-1.5,0.8c0,0,0,0-0.1,0c0,0,0,0.1,0,0.1c0,0-0.2,0.2-0.5,0.3
			c0,0,0,0.1-0.1,0.1c0,0,0,0,0,0v0c-0.1,0.1-0.4,0.3-0.7,0.5l0.1,0c0.8-0.5,1.8-1.1,2-1.2l0,0l0,0l0,0c0,0,0.1,0,0.1,0l0.7-0.5
			c0-0.1,0.1-0.1,0.2,0c0,0,0,0,0,0c0.2-0.2,0.5-0.4,0.7-0.5c0,0,0.1-0.1,0.1-0.1C42.7,27.8,42.3,28,41.9,28.1L41.9,28.1z
			 M40.3,28.8C40.2,28.8,40.2,28.7,40.3,28.8C40.2,28.7,40.2,28.7,40.3,28.8L40,28.8C40.1,28.8,40.2,28.8,40.3,28.8
			C40.2,28.8,40.2,28.8,40.3,28.8L40.3,28.8L40.3,28.8L40.3,28.8L40.3,28.8z M42.1,27.1c0.2-0.2,0.5-0.4,0.6-0.6
			c-0.3,0.2-0.6,0.5-0.9,0.7C41.9,27.1,42,27.1,42.1,27.1L42.1,27.1L42.1,27.1z M41.6,27.4l-0.1,0.1c-0.2,0.2-0.4,0.3-0.6,0.5l0,0
			c0.2-0.1,0.4-0.3,0.5-0.4C41.5,27.5,41.5,27.4,41.6,27.4L41.6,27.4z M38.8,29.8C38.8,29.7,38.8,29.7,38.8,29.8l-0.2,0
			c-0.4,0.2-0.8,0.4-1.1,0.6l0.5-0.1C38.4,30,38.6,29.9,38.8,29.8L38.8,29.8z M37.2,30.7c-0.6,0.2-1.4,0.3-1.9,0.6
			c0.2,0,0.3-0.1,0.5-0.1c0.3-0.1,0.6-0.2,0.9-0.2C36.9,30.8,37.1,30.7,37.2,30.7z"/>
	</g>
	<g>
		<path class="st1" d="M48.4,24.5c0.1,0,0.1,0.1,0.1,0.1c0,0.1-0.1,0.1-0.2,0.1c-0.2,0-0.5,0.6-0.9,1.3c-0.1,0.2-0.2,0.4-0.3,0.6
			l0.6-0.7c0,0,0,0,0,0l0,0c0,0,0.1-0.1,0.2,0c0.1,0,0.1,0.1,0.1,0.2l0,0l0,0c0,0-0.4,0.6-0.9,1.3l-0.6,0.8c0.1-0.1,0.2-0.3,0.3-0.4
			c0.3-0.4,0.5-0.7,0.6-0.9c0-0.1,0.1-0.1,0.1-0.2l0,0c0,0,0.1-0.1,0.1-0.1c0.1,0,0.1,0.1,0.1,0.1c0,0,0,0.1-0.1,0.1
			c-0.2,0.4-0.7,1.1-1.2,1.8c0.5-0.5,0.9-0.8,1-0.9c0.1,0,0.1,0,0.2,0.1c0,0,0,0,0,0v0v0c0,0.3-0.6,1.1-1.4,1.9c0,0,0,0,0,0
			c-0.1,0.3-0.5,0.6-1.1,1l-0.1,0c-0.4,0.3-0.7,0.5-0.9,0.5l-0.1,0.1c-0.1,0.1-0.2,0.1-0.3,0.2c0.2-0.1,0.4-0.2,0.7-0.3
			c0.1,0,0.1,0,0.2,0c0,0,0,0,0,0h0c0,0.1-0.1,0.3-0.3,0.4c0,0,0.1,0,0.1,0c0.1,0,0.1,0.1,0.1,0.1v0l0,0c0,0.2-0.7,0.6-1.5,1.1
			c-0.3,0.2-0.6,0.3-0.9,0.5c-0.1,0.2-0.4,0.4-0.7,0.6c-0.6,0.4-1.4,0.7-1.8,0.7c-0.1,0-0.1,0-0.2-0.1c0,0,0-0.1,0-0.1l0,0h0
			c0.1-0.1,0.2-0.3,0.4-0.4l0,0c-0.3,0.1-0.6,0.2-0.9,0.4c-0.5,0.3-1,0.5-1.3,0.6c0,0,0,0.1,0,0.1c0,0-0.5,0.3-0.9,0.5
			C36.6,36,36.4,36,36.3,36c0,0,0,0-0.1,0h0l0,0c0,0,0,0,0,0c0,0,0,0,0,0c-0.4,0.2-0.7,0.3-0.7,0.4l0,0c0,0-0.1,0-0.1,0
			c-0.1,0-0.1-0.1,0-0.2c0,0,0.1-0.1,0.2-0.2c-0.4,0.1-0.7,0.2-0.8,0.2h0c0,0,0,0,0,0c-0.1,0-0.1-0.1-0.1-0.1
			c0.1-0.2,0.5-0.5,1.1-0.7c0.3-0.1,0.6-0.2,0.9-0.3c0.1,0,0.1-0.1,0.2-0.1c0,0,0-0.1,0.1-0.1c0,0,0.1,0,0.1,0
			c0.2-0.1,0.7-0.4,1.3-0.7c0,0,0,0-0.1,0c-0.1,0-0.1-0.1,0-0.2c0.3-0.3,1.1-0.7,1.8-1l0.1,0c0.6-0.4,1.2-0.7,1.5-0.8l0.1-0.1l0,0
			c0,0,0-0.1,0-0.1l0,0l0,0c0,0,0,0,0,0l0,0c0.2-0.1,0.7-0.6,1.3-1.1c0.4-0.3,0.9-0.7,1.3-1.1c0.5-0.4,0.9-0.8,1.2-1.1c0,0,0,0,0,0
			l0,0l0,0h0c0.1-0.1,0.2-0.4,0.4-0.8c0-0.3,0.4-0.9,0.8-1.5c0.2-0.3,0.3-0.6,0.5-0.8c0.1-0.3,0.2-0.5,0.3-0.6l0,0
			c0-0.1,0.1-0.1,0.2-0.1c0.1,0,0.1,0.1,0.1,0.1c0,0.1-0.1,0.3-0.3,0.6c-0.2,0.5-0.6,1.1-0.9,1.6c0.2-0.3,0.5-0.8,0.7-1.1
			C47.7,25.1,48,24.5,48.4,24.5L48.4,24.5z M46.7,27.5l-0.4,0.4l0,0c0,0,0,0,0,0.1L46.7,27.5L46.7,27.5z M45.1,30
			C45.1,30,45.1,30,45.1,30L45.1,30L45.1,30c0.2-0.3,0.5-0.7,0.8-1.3c-0.2,0.2-0.6,0.5-0.9,0.8l0,0c-0.7,0.8-1.5,1.7-1.8,2
			c0.1-0.1,0.3-0.2,0.5-0.3c0.3-0.2,0.6-0.4,0.9-0.6c0.1-0.1,0.2-0.2,0.4-0.3c0,0,0-0.1,0-0.1C45,30.2,45,30.1,45.1,30
			C45.1,30.1,45,30,45.1,30L45.1,30z M46.1,28.3l0.1-0.2c-0.1,0.1-0.1,0.1-0.2,0.3C46.1,28.4,46.1,28.3,46.1,28.3L46.1,28.3z
			 M47.4,28.3c-0.3,0.3-0.7,0.7-1.1,1.1c-0.1,0.1-0.2,0.3-0.3,0.4c0.1,0,0.1,0,0.2-0.1C46.7,29.2,47.1,28.6,47.4,28.3L47.4,28.3z
			 M45.1,30.6c0.2-0.2,0.4-0.3,0.6-0.6c-0.1,0.1-0.2,0.1-0.3,0.2c-0.2,0.2-0.5,0.4-0.7,0.5c0,0-0.1,0.1-0.1,0.1l0,0
			C44.8,30.8,45,30.7,45.1,30.6L45.1,30.6z M42.8,32.1L42.8,32.1c-0.1,0.1-0.2,0.1-0.2,0l0,0l0,0c-0.4,0.2-0.7,0.4-0.9,0.5
			c0,0,0,0.1,0,0.1c-0.1,0.2-0.4,0.4-0.7,0.6c0.3-0.2,0.9-0.6,1.6-1C42.6,32.2,42.7,32.2,42.8,32.1L42.8,32.1z M42.8,31.5
			c0,0,0.6-0.7,1.3-1.5c-0.8,0.7-1.7,1.5-2.3,2c0,0,0,0.1-0.1,0.1l-0.3,0.2l-0.1,0.1l0.2-0.1c0.1-0.1,0.5-0.3,0.9-0.5l0,0l0.5-0.3
			C42.9,31.7,42.8,31.6,42.8,31.5L42.8,31.5L42.8,31.5C42.8,31.6,42.8,31.6,42.8,31.5L42.8,31.5L42.8,31.5L42.8,31.5L42.8,31.5z
			 M40.8,32.9c0,0,0-0.1,0-0.1L40.8,32.9c-0.3,0.1-0.6,0.2-1,0.4c0,0,0,0,0.1,0c0.1,0,0,0.1,0,0.2c-0.1,0.1-0.8,0.4-1.6,0.8
			l-0.1,0.1c0.1,0,0.1,0,0.1,0.1c0,0.1,0,0.1-0.1,0.1c-0.1,0-0.3,0.1-0.6,0.2c-0.2,0.1-0.3,0.2-0.5,0.2c-0.3,0.1-0.6,0.3-0.8,0.3
			l0,0c0,0,0,0-0.1,0c0,0-0.1,0-0.1,0c-0.2,0.1-0.3,0.1-0.4,0.2c-0.3,0.1-0.5,0.2-0.7,0.4c0.1,0,0.3-0.1,0.5-0.1
			c0.3-0.1,0.6-0.2,0.8-0.3c0.1-0.1,0.2-0.1,0.2-0.1l0,0l0,0l0,0c0,0,0.1,0,0.1,0c0,0,0,0,0,0c0.1-0.1,0.3-0.1,0.4-0.2
			c0,0,0-0.1,0.1-0.1c0.3-0.1,1-0.4,1.7-0.7c0.1,0,0.2-0.1,0.2-0.1c0.8-0.5,1.5-1,2-1.4L41,32.9l0,0C40.9,33,40.8,33,40.8,32.9
			L40.8,32.9z M40.9,33.6C40.8,33.6,40.8,33.6,40.9,33.6L40.9,33.6L40.9,33.6c-0.1,0-0.1,0-0.1,0c-0.1,0-0.1,0-0.1-0.1
			c-0.2,0.1-0.3,0.2-0.5,0.4C40.4,33.8,40.6,33.8,40.9,33.6c0,0,0,0,0.1,0L40.9,33.6L40.9,33.6z M43,32.5c-0.5,0.3-0.9,0.6-1.4,0.8
			c0.2-0.1,0.4-0.1,0.5-0.1c0.4-0.2,1-0.6,1.5-1c0.2-0.2,0.4-0.3,0.6-0.4C43.8,32,43.4,32.2,43,32.5L43,32.5z M41.7,33.7L41.7,33.7
			c-0.1,0-0.1,0.1-0.1,0.1c-0.3,0.1-0.7,0.3-1.1,0.5c-0.1,0.1-0.2,0.1-0.3,0.2c0.4-0.1,0.8-0.3,1.2-0.6
			C41.5,33.8,41.6,33.7,41.7,33.7L41.7,33.7z M36.8,34.7L36.8,34.7C36.8,34.7,36.8,34.7,36.8,34.7L36.8,34.7z M36.8,34.7L36.8,34.7
			L36.8,34.7z"/>
	</g>
	<g>
		<path class="st1" d="M47.6,0.9l0.2,0.3c0,0,0,0,0.1,0C47.8,1,47.7,0.9,47.6,0.9c0.2-0.2,0.4-0.3,0.8-0.3l0,0c0,0,0,0,0,0
			c0.1,0,0.1,0,0.2,0c0.1,0,0.1,0,0.2,0.1C49,1,49.2,1.4,49.4,1.8c0.2,0.4,0.3,0.7,0.2,0.8l0,0v0l0,0l0,0c0,0,0,0,0,0
			c0,0-0.1,0.1-0.2,0C49.7,3.4,50,4,50.2,4.4l0.1,0.1c0.1,0.1,0.3,0.3,0.4,0.5c0,0-0.1-0.1-0.1-0.1c-0.1,0-0.1-0.1,0-0.1
			c0-0.1,0.1-0.1,0.2,0c0.2,0.1,1,0.9,1.6,1.7l0,0c0.1,0,0.1,0,0.2,0l0,0c0,0,0.4,0.4,0.8,0.8c0.5,0.5,1.2,1.2,1.5,1.5
			c0.3,0.1,0.6,0.2,0.9,0.3c0,0,0.1,0,0.1,0c0,0,0.1-0.1,0.1-0.1c0,0,0.1,0,0.1,0l0.1,0l0,0l0.1,0c0-0.1,0.1-0.1,0.1-0.1
			c0,0,0,0,0.1,0c0.2,0,0.5,0,0.5,0.3h0c0,0,0,0.1-0.1,0.1c-0.1,0-0.1,0-0.2,0l0,0c0,0.1,0,0.1-0.1,0.1c-0.1,0-0.1,0-0.2-0.1
			c0,0,0,0,0,0c-0.2,0-0.5-0.1-0.8-0.1c-0.1,0-0.2-0.1-0.3-0.1c0.2,0.2,0.3,0.4,0.3,0.5c0,0,0,0,0,0c0,0.1-0.1,0.1-0.1,0.1
			c-0.1,0-0.2,0-0.3,0c-0.6-0.1-1.2-0.5-1.8-0.9c-0.6-0.5-1-1-1-1.4l0,0c0,0-0.1-0.1-0.1-0.1c0.1,0.2,0.1,0.3,0.1,0.4h0
			c0,0,0,0,0,0.1c0,0.1-0.1,0.1-0.2,0c-0.4-0.2-1.4-1-2.2-1.9c0,0,0,0,0,0c-0.1,0-0.1,0-0.2,0c-0.1-0.1-0.1-0.2-0.2-0.2
			c-0.6-0.7-1.7-2-1.6-2.7c0,0,0-0.1,0.1-0.1c0-0.1-0.1-0.2-0.1-0.4l0,0v0c0-0.1,0-0.1,0.1-0.1c0,0,0,0,0,0
			c-0.2-0.3-0.3-0.6-0.5-0.9c-0.1-0.1-0.2-0.3-0.2-0.4C47.5,1,47.6,1,47.6,0.9L47.6,0.9z M48.6,3c0-0.1-0.1-0.2-0.2-0.3
			c0,0,0,0-0.1-0.1c0,0.1,0.1,0.2,0.1,0.2C48.5,2.9,48.6,3,48.6,3L48.6,3z M48.9,2.7c0,0.1,0,0.1,0,0.2C49,2.9,49,3,49.1,3l0,0
			c0-0.1,0-0.1,0-0.2L48.9,2.7L48.9,2.7z M49.4,3.7L49.4,3.7C49.3,3.7,49.3,3.7,49.4,3.7L49.4,3.7c0.5,0.8,1.1,1.8,1.2,2.2l0,0
			c0,0,0,0.1-0.1,0.1c0.6,0.6,1.2,1.1,1.6,1.4C52,7.2,51.9,7,51.7,6.7l-0.1-0.1c-0.8-0.8-1.6-1.9-1.8-2.2c0,0,0,0,0-0.1l0,0h0
			c0,0,0,0,0,0C49.7,4.1,49.5,3.9,49.4,3.7L49.4,3.7z M48.7,1.9c-0.2-0.4-0.5-0.8-0.7-1.1C48.1,1.1,48.4,1.5,48.7,1.9L48.7,1.9z
			 M49,1.8c0,0.1,0.1,0.2,0.1,0.3c0,0,0,0.1,0.1,0.1C49.2,2.1,49.2,2,49,1.8c0-0.1-0.1-0.3-0.2-0.4C48.9,1.5,49,1.7,49,1.8L49,1.8z
			 M48.8,3.5c0.1,0.1,0.1,0.2,0.2,0.3c0.1,0.2,0.4,0.4,0.6,0.7c-0.1-0.2-0.3-0.5-0.5-0.7C49,3.8,48.9,3.6,48.8,3.5L48.8,3.5z
			 M48.6,3.7c-0.1-0.1-0.1-0.2-0.2-0.3C48.5,3.5,48.5,3.6,48.6,3.7C48.6,3.8,48.6,3.7,48.6,3.7L48.6,3.7z M51.7,6.2
			c0.1,0.1,0.2,0.3,0.3,0.4c0.2,0.2,0.4,0.5,0.6,0.6c0,0,0,0,0,0c0,0,0.1,0,0.1,0c-0.1-0.1-0.2-0.3-0.3-0.5
			c-0.3-0.3-0.5-0.5-0.8-0.8c-0.3-0.3-0.5-0.5-0.7-0.8C51.2,5.5,51.4,5.8,51.7,6.2L51.7,6.2z M53,7.7c-0.1,0-0.1,0-0.2-0.1
			c0.1,0.3,0.5,0.7,0.9,1c0.5,0.4,1.2,0.8,1.7,0.9c0,0,0.1,0,0.1,0c0-0.1-0.2-0.3-0.4-0.4c0,0-0.1,0-0.1,0c-0.1-0.1-0.2-0.2-0.3-0.3
			c-0.2-0.1-0.4-0.2-0.5-0.3c0,0-0.1-0.1-0.1-0.1c0,0,0-0.1,0-0.1c-0.1,0-0.1-0.1-0.2-0.1c0,0-0.1,0-0.1,0c0,0-0.1-0.1-0.2-0.2
			c-0.1,0-0.1-0.1-0.2-0.1c-0.1-0.1-0.2-0.1-0.3-0.2C53.1,7.7,53,7.7,53,7.7L53,7.7z M56.7,9.1L56.7,9.1L56.7,9.1L56.7,9.1z"/>
	</g>
	<path class="st1" d="M49,4.2c0.1,0.1,0.2,0.5,0.3,0.9c0-0.1,0-0.1,0-0.1l0,0c0,0,0.1-0.1,0.1-0.1c0.1,0,0.1,0,0.1,0.1
		c0,0.1,0.2,0.6,0.3,1.1c0.1,0.4,0.2,0.7,0.4,1.1c0.2,0.3,0.3,0.7,0.5,1c0.1,0.1,0.2,0.2,0.2,0.3c0.4,0.5,0.7,0.9,0.8,1.3
		c0.2,0.2,0.5,0.4,0.9,0.8c0,0,0,0,0.1,0c0,0,0,0,0.1,0l0,0l0,0c0.1,0.1,0.3,0.3,0.6,0.5c0.5,0.3,1,0.7,1.4,1c0.2,0,0.4,0.1,0.7,0.2
		c0.5,0.1,1,0.1,1.3,0.3l0,0c0.2,0,0.3,0,0.3,0.2l0,0c0.1,0,0.1,0,0.2,0.1l0,0c0.1,0,0.1,0.1,0.1,0.1l0,0l0,0c0,0,0,0-0.1,0.1l0,0
		c0,0,0,0,0,0c0,0,0,0.1,0,0.1l0,0l0,0c-0.1,0.2-0.7,0.2-1.2,0.1c-0.3-0.1-0.7-0.1-0.9-0.2l0,0c-0.2,0-0.4,0-0.7,0
		c-0.2,0-0.3-0.1-0.5-0.1c0,0,0,0,0,0l0,0c0,0.1-0.1,0.1-0.1,0.1c-0.1,0-0.2,0-0.3,0l0,0c-0.5-0.1-1-0.5-1.5-0.9
		c-0.5-0.4-0.8-1-0.8-1.3l0,0c0-0.1-0.1-0.1-0.1-0.2c-0.3-0.4-0.5-0.7-0.6-1c-0.1-0.1-0.2-0.2-0.2-0.3c-0.2-0.3-0.4-0.6-0.5-0.8l0,0
		c0,0-0.1,0-0.2,0c0,0-0.4-0.8-0.7-1.5c-0.2-0.2-0.5-0.6-0.6-1c-0.3-0.6-0.4-1.2-0.4-1.6c0,0,0-0.1,0-0.1c0,0,0.1,0,0.1,0
		c-0.1-0.3-0.2-0.5-0.2-0.7c0-0.1,0-0.1,0-0.2c0,0,0,0,0-0.1c0.1,0,0.1,0,0.2,0c0,0,0.1,0.1,0.1,0.2c0-0.2,0-0.3,0-0.4h0
		c0,0,0,0,0,0c0-0.1,0.1-0.1,0.2-0.1c0.2,0.1,0.4,0.4,0.5,0.7c0,0.2,0.1,0.4,0.1,0.5C48.9,4.1,49,4.1,49,4.2L49,4.2z M49.5,6.1
		l0,0.1c0.1,0.3,0.2,0.6,0.3,0.8c0,0.1,0.1,0.2,0.1,0.3l0,0l0-0.1l0-0.1C49.8,6.8,49.6,6.4,49.5,6.1L49.5,6.1z M51.5,10.2L51.5,10.2
		c0.1,0.1,0.3,0.3,0.4,0.3c-0.1-0.1-0.1-0.2-0.2-0.4C51.6,10.2,51.5,10.2,51.5,10.2L51.5,10.2z M48.4,5.2
		C48.4,5.2,48.4,5.2,48.4,5.2c-0.1-0.2-0.2-0.4-0.3-0.5c0,0.2,0.1,0.4,0.2,0.6C48.3,5.2,48.4,5.2,48.4,5.2L48.4,5.2z M48.5,4.3
		l0.1,0.2c0-0.3-0.1-0.6-0.1-0.8c0-0.1-0.1-0.3-0.1-0.4C48.4,3.6,48.4,3.9,48.5,4.3L48.5,4.3z M52.1,10.8L52.1,10.8L52.1,10.8
		L52.1,10.8L52.1,10.8z M51.9,11c0.4,0.5,0.9,0.9,1.2,1.2c-0.2-0.2-0.4-0.5-0.7-0.8C52.2,11.2,52,11.1,51.9,11L51.9,11z M52.9,12.3
		c-0.3-0.3-0.7-0.6-1-1c0.1,0.2,0.3,0.3,0.4,0.5C52.5,12,52.7,12.2,52.9,12.3L52.9,12.3z M53.5,12.6C53.5,12.6,53.5,12.7,53.5,12.6
		c0,0,0.1,0.1,0.1,0.1l0,0c0,0,0.1,0,0.1,0c0,0,0,0,0,0C53.7,12.6,53.6,12.6,53.5,12.6C53.6,12.6,53.5,12.6,53.5,12.6L53.5,12.6
		L53.5,12.6z M53.1,11.8c0.1,0.1,0.1,0.1,0.2,0.2l0,0l0,0L53.1,11.8L53.1,11.8z M53.9,12.4C53.9,12.5,54,12.5,53.9,12.4
		c0.2,0.2,0.5,0.2,0.7,0.3c0.1,0,0.1,0,0.2,0l0,0c0,0,0,0,0,0l0,0c-0.2-0.1-0.4-0.1-0.5-0.2l0,0c0,0-0.1,0.1-0.2,0
		C54,12.5,54,12.5,53.9,12.4z"/>
	<g>
		<path class="st1" d="M47.9,5.9c0-0.1,0.1-0.1,0.1-0.1c0.1,0,0.1,0.1,0.1,0.1c0,0.2,0,0.4-0.1,0.5c0,0.4,0.1,0.9,0.2,1.3
			c0-0.1,0-0.2,0-0.2c-0.1-0.4-0.1-0.8-0.1-1c0,0,0-0.1,0.1-0.1c0.1,0,0.1,0,0.2,0.1c0.1,0.1,0.1,0.5,0.1,0.9c0-0.1,0-0.2,0-0.2l0,0
			l0,0c0,0,0,0,0.1-0.1c0.1,0,0.1,0,0.2,0c0.2,0.3,0.3,0.8,0.3,1.3c0,0.1,0.1,0.2,0.1,0.3c0,0.1,0,0.1,0,0.2c0,0,0,0,0.1,0
			c0.1,0,0.1,0,0.1,0.1c0,0,0,0,0,0.1c0,0.2,0.2,0.6,0.5,1c0.1,0.1,0.1,0.2,0.2,0.4c0.1,0.2,0.2,0.4,0.3,0.6
			c0.2,0.3,0.4,0.6,0.6,0.9c0,0,0,0,0,0c0,0,0.1-0.1,0.2,0c0.2,0.1,1.1,1,1.7,1.7c0.5,0.5,0.9,1,0.9,1.2l0,0l0,0v0l0,0h0v0
			c0,0,0,0,0,0l0.1,0.1l0,0c0.4,0.1,1.2,0.6,1.8,0.9c0.2,0.1,0.4,0.3,0.5,0.3c0,0,0,0,0.1,0l0.2,0.1c0.4,0,0.8,0,1,0
			c-0.1,0-0.1-0.1-0.2-0.1c-0.1,0-0.1-0.1-0.1-0.2c0,0,0.1-0.1,0.1-0.1v0c0.1,0,0.2,0,0.3,0.1c0.1,0,0.2,0.1,0.2,0.1
			c0,0,0.1,0.1,0.1,0.1l0,0v0c0,0,0,0,0,0c0,0.1,0,0.1-0.1,0.2c-0.1,0-0.3,0-0.7,0c0,0,0.1,0,0.1,0.1c0.1,0.1,0.3,0.1,0.4,0.2l0,0
			c0,0,0.1,0.1,0.1,0.1c0,0.1-0.1,0.1-0.2,0.1l-0.2,0l0,0.1l0,0c-0.2,0-0.4-0.1-0.6-0.2c-0.1,0-0.1,0-0.2,0c-0.4,0-0.5-0.1-1.6-0.4
			c-0.1,0-0.1-0.1-0.1-0.1c0-0.1,0.1-0.1,0.1-0.1c0.1,0,0.2,0,0.3,0c-0.2-0.1-0.4-0.2-0.6-0.3c0,0-0.1,0-0.1-0.1
			c0.1,0.2,0.2,0.3,0.2,0.5l0,0c0,0.1-0.1,0.1-0.2,0.1c-0.2,0-0.4-0.1-0.6-0.3c0,0-0.1,0.1-0.1,0.1l0,0l0,0l0,0
			c-0.2,0-1-0.7-1.9-1.5c-0.1-0.1-0.3-0.3-0.4-0.4c-0.5-0.1-1.1-0.7-1.8-1.4c-0.8-0.9-1.6-1.9-1.6-2.2c0,0,0-0.1,0-0.1c0,0,0,0,0,0
			c-0.1-0.2-0.1-0.4-0.1-0.5l0,0c0,0,0-0.1,0.1-0.1c0.1,0,0.1,0,0.2,0.1c0,0,0.1,0.1,0.3,0.3c0-0.1-0.1-0.2-0.1-0.3h0c0,0,0,0,0,0
			c-0.1-0.2-0.2-0.5-0.3-0.8c0,0-0.1,0-0.1-0.1c-0.1-0.2-0.2-0.7-0.3-1.2c0-0.1,0-0.2,0-0.3c0,0,0,0,0,0c-0.1,0-0.1,0-0.2,0l0,0
			c-0.1-0.2-0.2-0.2-0.1-0.3c0,0,0-0.1,0-0.1c0-0.1,0.1-0.3,0.2-0.6l0-0.1c0-0.1,0-0.2,0-0.3v0v0v0l0,0v0l0,0v0h0.1L47.9,5.9
			L47.9,5.9z M48.2,6.5L48.2,6.5L48.2,6.5L48.2,6.5z M49.3,10.6c0,0.1,0,0.2,0,0.2c0,0.1,0.1,0.2,0.2,0.3c0.3,0.3,0.7,0.7,1,1.1
			l0.1,0c-0.2-0.2-0.3-0.5-0.5-0.8c0,0-0.1,0-0.1,0C49.7,11.2,49.5,10.9,49.3,10.6L49.3,10.6z M50.9,12.3
			C50.9,12.3,50.8,12.4,50.9,12.3c-0.1,0.1-0.1,0.1-0.2,0.1c0.1,0.1,0.2,0.2,0.3,0.3c0,0,0,0,0,0c0,0,0-0.1,0.1-0.1l0,0
			C51,12.5,50.9,12.4,50.9,12.3L50.9,12.3z M51.7,13.2C51.7,13.2,51.7,13.2,51.7,13.2L51.7,13.2c0.1,0.1,0.3,0.2,0.4,0.3
			C51.9,13.4,51.8,13.3,51.7,13.2L51.7,13.2z M49.2,11.1l-0.4-0.4c0,0.1,0.1,0.1,0.1,0.2C49,10.9,49.1,11,49.2,11.1L49.2,11.1z
			 M50.5,13c-0.3-0.3-0.7-0.7-1-1.1c0.2,0.2,0.4,0.5,0.7,0.7C50.3,12.8,50.4,12.9,50.5,13L50.5,13z M53.3,14.2
			c-0.1-0.2-0.3-0.4-0.5-0.6c-0.4-0.4-0.9-0.9-1.2-1.2c0.3,0.5,0.9,1,1.4,1.5C53.1,14,53.2,14.1,53.3,14.2L53.3,14.2z M53.7,15.2
			C53.7,15.2,53.7,15.2,53.7,15.2c0,0.1-0.1,0.1-0.1,0.1l0.1,0.1c0.3,0.2,0.6,0.4,0.9,0.5c-0.1-0.1-0.2-0.3-0.4-0.4
			c-0.1-0.1-0.2-0.2-0.3-0.3C53.9,15.2,53.8,15.2,53.7,15.2L53.7,15.2L53.7,15.2L53.7,15.2z M55,15.6c0.1,0.1,0.2,0.1,0.3,0.2l0,0
			c-0.3-0.2-0.6-0.3-0.8-0.5C54.7,15.4,54.8,15.5,55,15.6z"/>
	</g>
	<g>
		<path class="st1" d="M48.6,11.6C48.7,11.6,48.7,11.6,48.6,11.6c0.2,0.3,0.4,0.6,0.5,0.9l0,0c0,0,0.1-0.1,0.2,0
			c0.1,0.1,0.2,0.3,0.4,0.6c0,0,0.1,0,0.1,0c0,0,0.1-0.1,0.1-0.1c0.1,0,0.1,0,0.2,0.1c0,0.1,0.3,0.6,0.5,1.1
			c0.5,0.7,1.1,1.6,1.3,2.2c0,0.1,0.1,0.2,0.2,0.3c0.2,0.3,0.5,0.6,0.8,1c0.2,0.2,0.4,0.5,0.6,0.7c0.3,0.2,0.5,0.4,0.6,0.6
			c0,0,0,0,0.1,0c0.3,0.2,0.6,0.4,0.9,0.5l0.2,0.1l0.1,0c0.1,0,0.2,0,0.2,0c0,0,0,0,0-0.1c0-0.1,0.1-0.1,0.1-0.1c0,0,0,0,0.1,0l0,0
			l0,0c0.1,0.1,0.3,0.2,0.5,0.3c0.2,0.1,0.4,0.1,0.6,0.2c0.2,0.1,0.4,0.1,0.6,0.2l0,0c0.1,0,0.3,0,0.5,0.1c0.2,0.1,0.4,0.2,0.6,0.2
			v0.2l0,0l-0.1,0l-0.3,0c0,0,0,0-0.1,0c0,0,0,0,0,0c0,0.1-0.1,0.1-0.1,0.1h0c-0.1,0-0.2,0-0.3,0c-0.1,0-0.1,0-0.2,0
			c-0.1,0-0.1,0-0.2,0c0,0-0.1,0-0.1,0l-0.1,0c-0.1,0-0.1,0-0.2,0c0.1,0.1,0.2,0.1,0.3,0.2h0c0,0,0,0,0,0c0,0.1,0,0.1-0.1,0.1
			c-0.2,0.1-0.4,0-0.6-0.1l0,0c-0.1-0.1-0.3-0.2-0.4-0.3c-0.2,0-0.4,0-0.5,0c-0.4-0.1-0.9-0.2-1.2-0.4v0c0,0.1-0.1,0.1-0.2,0.1
			c-0.1,0-0.5-0.3-0.8-0.5c-0.2-0.1-0.3-0.3-0.4-0.4c-0.2-0.1-0.4-0.3-0.6-0.4c-0.2-0.1-0.3-0.2-0.4-0.2l-0.1,0c0,0,0,0.1-0.1,0.1
			l0,0v0c-0.1,0-0.1,0.1-0.3,0c0,0,0,0,0,0c-0.2-0.1-0.3-0.2-0.3-0.3c-0.1-0.2-0.1-0.3,0.1-0.2c-0.3-0.3-0.7-0.8-1.1-1.2
			c-0.2-0.1-0.5-0.3-0.7-0.6c-0.2-0.2-0.4-0.5-0.4-0.7h0c0,0,0-0.1,0.1-0.1c0,0,0,0,0.1,0l-0.4-0.4c-0.2-0.2-0.3-0.3-0.4-0.5
			c-0.2-0.2-0.3-0.3-0.3-0.4l0,0c0,0,0-0.1,0.1-0.1c-0.3-0.4-0.5-0.7-0.6-0.9c0,0,0,0,0-0.1l0,0l0,0c0,0,0,0,0-0.1
			c0.1,0,0.1,0,0.2,0c0,0,0.1,0.1,0.1,0.1c0,0,0-0.1,0-0.1c0,0,0,0,0,0c0,0,0,0,0,0l0,0L48.6,11.6L48.6,11.6z M48.4,11.7
			C48.4,11.7,48.4,11.7,48.4,11.7L48.4,11.7C48.4,11.6,48.4,11.6,48.4,11.7L48.4,11.7z M48.7,12.1L48.7,12.1l0.1,0.1L48.7,12.1
			L48.7,12.1z M48.2,11.8l0.5-0.2c-0.2-0.3-0.3-0.4-0.4-0.4c-0.1,0-0.1,0-0.2,0.1c0,0,0,0,0,0v0c-0.1,0-0.1,0.1-0.1,0.1
			C48,11.5,48.1,11.6,48.2,11.8L48.2,11.8z M50.4,15.3C50.4,15.3,50.4,15.3,50.4,15.3c0.1,0.1,0.2,0.2,0.3,0.3
			c-0.1-0.2-0.2-0.3-0.3-0.5C50.4,15.2,50.4,15.3,50.4,15.3L50.4,15.3L50.4,15.3z M48.9,13.5l-0.7-1.8
			C48.3,12.3,48.6,12.9,48.9,13.5L48.9,13.5z M51.6,17.2C51.6,17.2,51.6,17.3,51.6,17.2l0.2,0.3C51.8,17.4,51.7,17.3,51.6,17.2
			L51.6,17.2z M52.1,16.9c0,0-0.1,0-0.1,0c0.1,0.1,0.2,0.3,0.3,0.4l0.1,0.1c0.1,0,0.2,0.1,0.3,0.2C52.4,17.4,52.2,17.2,52.1,16.9
			L52.1,16.9z M51.8,18c-0.2-0.1-0.4-0.3-0.6-0.5c0.3,0.3,0.5,0.6,0.7,0.8l0.1,0C52,18.2,51.9,18.1,51.8,18L51.8,18
			C51.8,18,51.8,18,51.8,18L51.8,18z M53.2,18.5L53.2,18.5c0.1,0,0.1,0.1,0.2,0.2c0,0,0.1-0.1,0.2,0c0,0,0.1,0.1,0.2,0.1
			c-0.1-0.1-0.2-0.2-0.3-0.3c0,0,0,0.1,0,0.1C53.3,18.5,53.3,18.6,53.2,18.5L53.2,18.5z M55.1,20.2c-0.1,0-0.2-0.1-0.3-0.1
			c0.1,0.1,0.3,0.2,0.5,0.2C55.3,20.3,55.2,20.2,55.1,20.2L55.1,20.2z M48.2,13.2l0.7,0.4c-0.3-0.3-0.6-0.6-0.7-0.8
			c-0.1,0-0.1,0-0.2,0c-0.1,0-0.1,0.1,0,0.2C48,13,48.1,13,48.2,13.2C48.2,13.1,48.2,13.2,48.2,13.2z"/>
	</g>
	<path class="st1" d="M48.3,17.3C48.3,17.3,48.3,17.3,48.3,17.3c-0.1-0.2-0.2-0.3-0.3-0.4c0-0.1-0.1-0.1-0.1-0.1l0,0
		c0,0,0-0.1,0-0.1v0v0c0-0.1,0-0.1-0.1-0.2c0-0.1,0-0.1,0.1-0.1c0.1,0,0.1,0,0.2,0.1h0l0,0.1c0,0,0,0,0-0.1C48.1,16.2,48,16,48,16
		c0,0,0,0,0,0c0,0,0,0,0,0h0c0,0,0-0.1,0.1-0.1c0.1,0,0.1,0,0.2,0c0.2,0.2,0.8,1.2,1.4,2.3c-0.4-0.8-0.8-1.7-1-2c0,0,0,0,0,0l0,0
		l0,0c0,0,0-0.1,0.1-0.1c0.1,0,0.1,0,0.2,0c0.1,0.1,0.1,0.3,0.3,0.5c0.4,0.7,1.2,2.1,2,3.2c0.3,0.4,0.5,0.8,0.7,1.1l0,0l0.2,0.2
		c0.5,0.4,1.2,1.1,1.9,1.7c0.1,0,0.2,0.1,0.3,0.1c0,0,0-0.1,0-0.1c0-0.1,0.1-0.1,0.2,0l0,0c0.1,0.1,0.2,0.1,0.4,0.2
		c0.3,0.2,0.7,0.4,1.1,0.6l0.1,0c0.2,0,0.9,0.4,1.6,0.7c0.1,0,0.1,0.1,0.2,0.1c0,0,0.1,0,0.1,0c0,0,0.1,0,0.1,0.1l0.1,0.1
		c0.1,0,0.1,0,0.2,0c0.7,0.1,1.5,0.3,2,0.5c0,0,0.1,0,0.1,0.1c0,0.1,0,0.1-0.1,0.1c-0.1,0-0.2,0.1-0.3,0.1c0,0,0,0.1,0,0.1
		c0,0,0,0.1,0,0.1c0,0,0,0,0,0c0,0,0,0,0,0c0,0.1-0.1,0.1-0.1,0.1c-0.1,0-0.1,0-0.2,0c0,0-0.1,0-0.1,0c-0.2,0-0.5,0-0.8-0.1
		c-1-0.2-2.3-0.7-2.6-0.8c0,0-0.1,0-0.1,0c0,0,0,0,0-0.1c0,0,0,0,0,0c-0.3-0.1-0.6-0.2-0.9-0.3l0,0c0,0.1-0.1,0.1-0.1,0.1
		c0,0,0,0-0.1,0l0,0c-0.3,0-0.8-0.3-1.2-0.7l-0.1,0c-0.7-0.4-1.3-0.7-1.6-1c0,0,0,0,0,0c0,0,0,0,0,0l0,0c0,0.1-0.1,0.1-0.1,0.1
		c-0.1,0-0.4-0.2-0.7-0.5c-1-0.6-1.1-0.7-2.1-1.9l-0.2-0.3h0c0,0,0-0.1,0-0.1c0-0.1,0.1-0.1,0.2-0.1c0.1,0,0.2,0.1,0.3,0.1
		c-0.1-0.2-0.2-0.3-0.2-0.4c0,0,0,0,0,0c0-0.1,0.1-0.1,0.2-0.1c0.1,0,0.3,0.1,0.5,0.3c-0.2-0.3-0.5-0.7-0.8-1.1c0,0,0,0,0-0.1
		c0-0.1,0.1-0.1,0.1-0.1c0,0,0.2,0.1,0.3,0.2C48.8,18.2,48.5,17.7,48.3,17.3L48.3,17.3z M50,20.1c-0.2-0.2-0.3-0.5-0.5-0.8l-0.2-0.2
		C49.6,19.5,49.8,19.8,50,20.1L50,20.1z M50.7,20.6C50.7,20.6,50.7,20.7,50.7,20.6c-0.1,0.1-0.1,0.1-0.1,0.1l0.1,0.1
		c0.2,0.2,0.3,0.3,0.5,0.5c0.1,0.1,0.2,0.1,0.3,0.2C51.3,21.3,51,21,50.7,20.6L50.7,20.6z M50.5,19.8c0,0.1,0.1,0.1,0.1,0.2l0.2,0.2
		l0,0c0.1,0.1,0.2,0.2,0.4,0.4c0,0,0,0,0-0.1C50.9,20.3,50.7,20.1,50.5,19.8L50.5,19.8z M50.1,18.7c0.1,0.2,0.2,0.5,0.2,0.7l0.1,0.1
		l0.3,0.3C50.6,19.5,50.4,19.1,50.1,18.7L50.1,18.7z M52.1,21.7C52.1,21.7,52.1,21.7,52.1,21.7c0,0,0,0.1,0,0.1c0,0,0,0,0,0
		c0,0,0,0,0,0.1l0.4,0.3c0.2,0.1,0.4,0.3,0.6,0.4c0.1,0,0.1,0,0.2,0c-0.3-0.3-0.6-0.5-0.9-0.8h0l-0.2-0.1
		C52.3,21.7,52.2,21.7,52.1,21.7L52.1,21.7z M51.9,21.4c-0.1-0.1-0.1-0.2-0.2-0.2c-0.1-0.1-0.2-0.1-0.2-0.2
		C51.6,21.1,51.8,21.3,51.9,21.4L51.9,21.4z M50.2,20.7c0-0.1-0.1-0.1-0.1-0.2c-0.3-0.3-0.7-0.6-0.9-0.7c0.1,0.2,0.3,0.4,0.5,0.7
		c0,0,0,0,0.1,0c0,0,0.9,0.8,1.5,1.4c0.1,0.1,0.2,0.2,0.2,0.2l0,0C51,21.6,50.6,21.2,50.2,20.7L50.2,20.7z M52.3,22.6L52.3,22.6
		L52.3,22.6L52.3,22.6L52.3,22.6z M49.7,20.9c-0.1-0.1-0.1-0.2-0.2-0.2c-0.1-0.1-0.2-0.1-0.3-0.2c0.3,0.4,0.5,0.6,0.7,0.8
		C49.8,21.2,49.7,21,49.7,20.9L49.7,20.9z M52.8,23.1L52.8,23.1L52.8,23.1L52.8,23.1L52.8,23.1z M54.7,23.9c0,0-0.1,0-0.1,0
		c0.1,0,0.2,0.1,0.3,0.1C54.8,24,54.8,24,54.7,23.9L54.7,23.9z M54.5,23.1l0.1,0.1c0.3,0.1,0.7,0.3,1.2,0.5
		c-0.1-0.1-0.2-0.1-0.3-0.2C55.1,23.4,54.8,23.2,54.5,23.1L54.5,23.1z M55.8,24c0.2,0.1,0.3,0.2,0.5,0.2l0,0L55.8,24L55.8,24
		L55.8,24z M56.6,24.5c-0.2,0-0.4-0.1-0.6-0.2c0,0,0,0,0,0c-0.1,0-0.2,0-0.4,0l0,0C55.9,24.4,56.3,24.5,56.6,24.5
		C56.6,24.5,56.6,24.5,56.6,24.5L56.6,24.5z M58.8,24.8c0.1,0.1,0.3,0.1,0.4,0.1c0.1,0,0.1,0,0.2,0C59.2,24.9,59,24.8,58.8,24.8
		L58.8,24.8z M57.2,24.9L57.2,24.9L57.2,24.9L57.2,24.9L57.2,24.9z"/>
	<g>
		<path class="st1" d="M48,20.9c0-0.1,0.1-0.1,0.2-0.1c0.1,0,0.1,0.1,0.1,0.1c0,0,0,0,0,0c0,0.4,0.5,1.7,1.1,2.9
			c0.1,0.1,0.3,0.3,0.5,0.5c0,0,0.1,0,0.1,0c0,0,0.1,0,0.1,0l0,0c-0.4-0.8-0.8-1.6-0.9-2.1c-0.2-0.4-0.3-0.6-0.3-0.7h0
			c0,0,0-0.1,0-0.1c0-0.1,0.1-0.1,0.2,0c0.1,0.1,0.5,0.8,0.9,1.6c0.1,0.2,0.2,0.3,0.3,0.5c0.3,0.5,0.7,1.1,1.1,1.7
			c0.3,0.5,0.7,1,1,1.5c0,0,0,0,0,0c0.1,0,0.1,0,0.2,0.1c0.1,0.1,0.8,0.7,1.6,1.4l0.1,0.1c0.1,0.1,0.2,0.1,0.2,0.2
			c0.1,0.1,0.2,0.1,0.3,0.2c0.1,0,0.2,0,0.3,0.1c-0.8-0.5-1.5-1.1-1.7-1.4c0,0,0,0,0-0.1c0-0.1,0.1-0.1,0.1-0.1
			c0.2,0,1.1,0.7,1.9,1.3c0.2,0.2,0.4,0.3,0.6,0.5c0.1,0,0.2,0.1,0.3,0.1c0.3,0.1,0.6,0.2,0.9,0.4c0,0,0,0,0.1,0h0l0,0
			c0.2,0,0.6,0.1,1.1,0.3c0.3,0.1,0.7,0.2,1.1,0.3c0.4,0.1,0.8,0.1,1.1,0.2c0.2,0,0.3,0.1,0.5,0.1c0.1,0,0.1,0.1,0.1,0.1
			c0.2,0.1,0.4,0.1,0.4,0.1c0.1,0,0.1,0.1,0,0.2c0,0-0.1,0-0.1,0l-0.1,0l0,0l-0.1,0c0,0,0,0,0,0.1l0,0l0,0c0,0,0,0.1,0,0.1
			c0,0,0,0.1-0.1,0.1c0,0,0,0-0.1,0c0,0,0,0.1-0.1,0.1c-0.1,0.1-0.4,0.1-0.7,0c-0.2,0-0.4,0-0.6-0.1l0,0c0,0.1-0.1,0.1-0.2,0.1
			c-0.5-0.1-1.2-0.3-1.9-0.5c-0.1,0-0.1,0-0.2,0c-0.4-0.1-0.7-0.1-1-0.3c0,0,0,0.1-0.1,0.1c-0.1,0-0.1,0-0.2,0
			c-0.2,0-0.5-0.2-0.9-0.4l0,0c0,0,0,0-0.1,0c0,0-0.1,0.1-0.1,0.1c-0.4,0-0.8-0.2-1.4-0.5c0,0,0,0,0,0c0,0-0.1,0.1-0.2,0
			c-0.6-0.4-1.7-1.3-2.6-2.1c-0.6-0.6-1.2-1.2-1.3-1.5c0,0,0-0.1,0-0.1c0,0,0.1-0.1,0.2,0c0.1,0.1,0.3,0.2,0.5,0.3l-0.1-0.2
			c-0.7-0.8-1.2-1.7-1.2-2.1h0c0,0,0,0,0,0c0-0.1-0.1-0.1-0.1-0.2c0,0,0-0.1,0-0.1c0,0,0-0.1,0.1-0.1C48.4,22.5,48,21.3,48,20.9
			C48,20.9,48,20.9,48,20.9L48,20.9z M52.4,27.6L52.4,27.6L52.4,27.6C52.3,27.6,52.3,27.6,52.4,27.6C52.3,27.6,52.3,27.6,52.4,27.6
			c0,0.1,0,0.1,0,0.2l0,0l0,0l0,0l0,0c0,0,0,0,0,0c0.1,0.1,0.1,0.2,0.2,0.2c0.5,0.5,1,1,1.1,1.4c0.5,0.3,1,0.5,1.3,0.5
			c0,0,0,0,0-0.1c-0.2-0.2-0.5-0.3-0.7-0.5c0,0-0.1,0-0.1-0.1L54,29.3c-0.8-0.6-1.6-1.3-1.7-1.5C52.4,27.7,52.4,27.7,52.4,27.6
			C52.4,27.6,52.4,27.6,52.4,27.6L52.4,27.6z M53.2,28.2C53.2,28.2,53.2,28.3,53.2,28.2c0.3,0.3,0.7,0.6,1,0.8l0.1,0.1
			c0.1,0,0.1,0,0.2,0c-0.1-0.1-0.2-0.2-0.4-0.3c-0.1,0-0.1,0-0.1,0c-0.1,0-0.1-0.1-0.1-0.1C53.7,28.5,53.4,28.4,53.2,28.2L53.2,28.2
			L53.2,28.2z M52.7,27.6l0.1,0.1c0.1,0,0.1,0.1,0.2,0.1C52.9,27.7,52.8,27.7,52.7,27.6L52.7,27.6z M52,27.5c0-0.1-0.1-0.2-0.2-0.2
			c0,0,0,0,0,0c0,0,0,0-0.1,0C51.8,27.3,51.9,27.4,52,27.5L52,27.5z M48.9,23.9L48.9,23.9L48.9,23.9L48.9,23.9L48.9,23.9z
			 M52.5,28.6c-0.3-0.2-0.8-0.7-1.4-1.3c-0.2-0.1-0.4-0.2-0.5-0.3c0.4,0.4,1.4,1.3,2.4,2c0,0,0.1,0.1,0.1,0.1
			c-0.1-0.2-0.3-0.4-0.5-0.5C52.7,28.7,52.6,28.7,52.5,28.6L52.5,28.6z M50.6,26.8c-0.1-0.1-0.2-0.1-0.3-0.2l-0.1-0.1
			c0.1,0.1,0.1,0.2,0.2,0.3l0,0c0,0,0,0,0.1,0C50.5,26.7,50.5,26.7,50.6,26.8L50.6,26.8z M55.1,29.5C55.1,29.5,55.1,29.6,55.1,29.5
			c0.1,0.1,0.2,0.1,0.2,0.2c0,0,0,0,0,0l-0.2-0.1C55.2,29.5,55.1,29.5,55.1,29.5L55.1,29.5z M55.2,29L55.2,29
			c0.3,0.1,0.5,0.2,0.8,0.3l0,0c-0.1-0.1-0.2-0.1-0.3-0.2C55.4,29.1,55.3,29,55.2,29L55.2,29z M57.3,30c-0.1,0-0.2,0-0.3-0.1
			C57.2,29.9,57.3,30,57.3,30c0.2,0.1,0.5,0.2,0.9,0.4l0.2,0.1c0.2,0,0.4,0.1,0.6,0.1c-0.1-0.1-0.3-0.1-0.4-0.2
			c-0.4-0.2-0.8-0.4-1.1-0.5l0,0c0,0,0,0.1,0,0.1C57.5,29.9,57.4,30,57.3,30L57.3,30z M56.6,30.1c-0.1,0-0.3-0.1-0.4-0.1
			c0,0,0.1,0,0.2,0.1L56.6,30.1L56.6,30.1z M59.3,30.3c0.1,0.1,0.3,0.1,0.4,0.2c0.2,0,0.3,0,0.5,0l-0.1,0
			C59.8,30.4,59.6,30.4,59.3,30.3L59.3,30.3z M61,30.4L61,30.4L61,30.4L61,30.4z M61,30.8c-0.2,0-0.4,0-0.7,0c0.2,0,0.3,0.1,0.5,0.2
			c0.1,0,0.1,0,0.2,0l0,0C61,30.9,61,30.9,61,30.8C61,30.8,61,30.8,61,30.8L61,30.8z M59.3,30.8l-0.2-0.1l-0.1,0l0,0l0,0
			c0,0,0,0,0,0c0,0,0,0.1,0,0.1c0,0,0,0,0,0.1c0,0,0,0,0,0c0,0,0.1,0.1,0.1,0.1c0,0,0,0,0.1,0c0.1,0,0.1,0.1,0.2,0.1l0-0.1l0,0
			l0-0.1l0,0l0,0l0,0l-0.1,0l0,0l0,0C59.4,30.8,59.3,30.8,59.3,30.8z"/>
	</g>
	<g>
		<path class="st1" d="M48.1,27.4c0,0.1-0.1,0.1-0.1,0.1c-0.1,0-0.1-0.1-0.1-0.1c0,0,0,0,0-0.1v0c0-0.1,0-0.3,0-0.4
			c0-0.1,0.1-0.1,0.2-0.1c0,0,0,0,0,0l0,0c0.3,0.2,0.7,0.9,1.1,1.5c0.1,0.1,0.2,0.2,0.3,0.3c-0.2-0.4-0.3-0.7-0.3-0.9
			c0-0.1,0-0.1,0.1-0.1c0.1,0,0.1,0,0.2,0.1c0,0.2,0.2,0.5,0.4,0.9c0,0.1,0.1,0.2,0.1,0.3c0.1,0.2,0.2,0.4,0.3,0.5l0.1,0.1
			c0.7,0.8,1.5,1.8,1.6,2.1c0,0,0,0,0,0.1l0,0l0,0c0,0,0,0,0,0.1c0,0.1-0.1,0.1-0.2,0l0,0c0.2,0.3,0.3,0.5,0.4,0.6l0,0
			c0,0.1,0,0.1-0.1,0.1l0,0c0.2,0.2,0.4,0.3,0.6,0.5c0-0.1,0-0.1,0.1-0.1c0.1,0,0.6,0.2,1.1,0.5c0.6,0.3,1.2,0.7,1.7,0.9l0.2,0.1
			l0.2,0c0.3,0.1,0.7,0.1,1.1,0.2l-0.1-0.1c-0.7-0.4-1.3-0.7-1.5-0.9c0,0-0.1,0-0.1-0.1c0-0.1,0-0.1,0.1-0.1l0,0
			c0.1,0,0.7,0.3,1.3,0.7c0.1,0.1,0.2,0.2,0.4,0.2c0.3,0.1,0.6,0.3,0.9,0.4c0.5,0.1,1,0.3,1.4,0.4c-0.1,0-0.1-0.1-0.2-0.1
			c0,0,0-0.1,0-0.1c0-0.1,0.1-0.1,0.2-0.1c0.4,0.1,0.7,0.3,0.9,0.4c0,0,0.1,0,0.1,0h0c0.2-0.1,0.3-0.1,0.5-0.1c0.1,0,0.2,0,0.3,0
			c0.1,0,0.1,0.1,0.1,0.1c0,0.1-0.1,0.1-0.1,0.1c-0.1,0-0.2,0-0.3,0c-0.1,0-0.2,0-0.3,0l0,0l0,0c0,0,0,0,0,0
			c0.1,0.1,0.2,0.2,0.2,0.2l0,0c0.1,0.2,0,0.4-0.2,0.5v0l0,0c-0.2,0.1-0.5,0.1-0.9,0.1c-0.6,0-1.2-0.2-1.8-0.5
			c-1.4-0.4-3.3-1.2-3.8-1.5l-0.1-0.1l0,0c-0.1,0-0.1-0.1-0.1-0.1c0,0,0,0,0,0c-0.5-0.2-1-0.4-1.5-0.6c-0.8-0.4-1.6-0.9-2.1-1.4
			c-0.2-0.2-0.4-0.4-0.5-0.5c0,0,0,0,0-0.1c0-0.1,0-0.1,0.1-0.1c0.1,0,0.2,0,0.4,0.1c0,0,0.1-0.1,0.1-0.1c0.1,0,0.2,0,0.4,0.1
			c-0.2-0.2-0.3-0.3-0.4-0.5c-0.7-0.7-1.2-1.3-1.1-1.7c0-0.1,0.1-0.1,0.1-0.1c0.1,0,0.2,0,0.3,0.1c-0.3-0.5-0.6-0.9-0.6-1.1l0,0
			c0,0,0,0,0,0c0,0,0,0,0,0C48.5,28,48.3,27.6,48.1,27.4L48.1,27.4L48.1,27.4z M49.5,29.2c0.1,0.2,0.3,0.5,0.4,0.6
			c0-0.1-0.1-0.2-0.1-0.4C49.7,29.4,49.6,29.3,49.5,29.2L49.5,29.2z M50.3,30.2c0,0.1,0,0.1,0,0.2l0.1,0.1c0.1,0.1,0.1,0.1,0.2,0.2
			c0.1,0.1,0.1,0.1,0.2,0.2C50.6,30.6,50.4,30.4,50.3,30.2L50.3,30.2z M51.1,31.6c-0.3-0.3-0.6-0.7-0.9-1c-0.4-0.4-0.7-0.7-0.9-0.8
			c0.1,0.3,0.5,0.8,1,1.3c0.4,0.4,0.8,0.8,1.2,1.1c0.1,0.1,0.2,0.2,0.4,0.3C51.7,32.4,51.4,32,51.1,31.6L51.1,31.6z M51.6,32.9
			L51.6,32.9c0.2,0.1,0.3,0.2,0.4,0.3l0,0C51.9,33.1,51.7,33,51.6,32.9L51.6,32.9z M53.5,33.8C53.5,33.8,53.5,33.8,53.5,33.8
			c0,0.1,0,0.1,0,0.2c0.5,0.2,1,0.3,1.4,0.4c0,0,0,0,0,0c-0.7-0.3-1.4-0.7-1.9-0.9C53.2,33.6,53.4,33.7,53.5,33.8L53.5,33.8z
			 M57.3,35.1c0.1,0,0.2,0,0.2,0.1l0,0C57.4,35.1,57.3,35.1,57.3,35.1L57.3,35.1z M57.8,35.4c0,0-0.1,0-0.1,0
			c0.3,0.1,0.6,0.3,0.9,0.5c0,0,0.1,0,0.1,0.1c0.2,0,0.3,0,0.4,0c0.1,0,0.1-0.1,0-0.2c-0.3-0.1-0.7-0.3-1.1-0.5l0,0l0,0
			c0,0,0,0,0,0.1l0,0C57.9,35.3,57.8,35.4,57.8,35.4L57.8,35.4z M55.4,33.6L55.4,33.6L55.4,33.6L55.4,33.6z M55.3,33.6L55.3,33.6
			L55.3,33.6L55.3,33.6z M59.5,35.9c0,0-0.1,0-0.2,0c0,0.1-0.1,0.2-0.2,0.3c-0.1,0-0.1,0-0.2,0c0.2,0,0.4,0.1,0.6,0.1
			c0.3,0,0.6,0,0.8-0.1v0c0.1,0,0.2-0.1,0.1-0.2l0,0c-0.1-0.1-0.2-0.2-0.3-0.3c-0.1,0-0.2,0-0.3,0c-0.1,0-0.2-0.1-0.2-0.1
			c0.1,0.1,0.1,0.1,0.1,0.2l0,0C59.7,35.8,59.6,35.9,59.5,35.9L59.5,35.9z M57.1,35.6c-0.4-0.2-0.9-0.4-1.4-0.6
			c-0.2,0-0.3-0.1-0.5-0.1C55.8,35.1,56.5,35.3,57.1,35.6L57.1,35.6z"/>
	</g>
</g>
</svg>
