<svg id="etfsuwf7l7no1" xmlns="http://www.w3.org/2000/svg" xmlns:xlink="http://www.w3.org/1999/xlink" viewBox="0 0 171.400000 130" shape-rendering="geometricPrecision" text-rendering="geometricPrecision" width="171.400000" height="130"><style><![CDATA[#etfsuwf7l7no9_to {animation: etfsuwf7l7no9_to__to 8000ms linear infinite normal forwards}@keyframes etfsuwf7l7no9_to__to { 0% {transform: translate(44.399996px,95.728859px)} 50% {transform: translate(130.071136px,85.872792px)} 97.500000% {transform: translate(44.399996px,95.728859px)} 100% {transform: translate(44.399996px,95.728859px)} }#etfsuwf7l7no9_ts {animation: etfsuwf7l7no9_ts__ts 8000ms linear infinite normal forwards}@keyframes etfsuwf7l7no9_ts__ts { 0% {transform: scale(1,1)} 47.500000% {transform: scale(1,1)} 50% {transform: scale(-1,1)} 90% {transform: scale(-1,1)} 97.500000% {transform: scale(1,1)} 100% {transform: scale(1,1)} }#etfsuwf7l7no21_ts {animation: etfsuwf7l7no21_ts__ts 8000ms linear infinite normal forwards}@keyframes etfsuwf7l7no21_ts__ts { 0% {transform: translate(85.199986px,85.787498px) scale(1,1);animation-timing-function: cubic-bezier(0.420000,0,0.580000,1)} 12.500000% {transform: translate(85.199986px,85.787498px) scale(-1,1);animation-timing-function: cubic-bezier(0.420000,0,0.580000,1)} 25% {transform: translate(85.199986px,85.787498px) scale(1,1);animation-timing-function: cubic-bezier(0.420000,0,0.580000,1)} 47.500000% {transform: translate(85.199986px,85.787498px) scale(1,1);animation-timing-function: cubic-bezier(0.420000,0,0.580000,1)} 50% {transform: translate(85.199986px,85.787498px) scale(1,1);animation-timing-function: cubic-bezier(0.420000,0,0.580000,1)} 62.500000% {transform: translate(85.199986px,85.787498px) scale(-1,1);animation-timing-function: cubic-bezier(0.420000,0,0.580000,1)} 75% {transform: translate(85.199986px,85.787498px) scale(1,1)} 100% {transform: translate(85.199986px,85.787498px) scale(1,1)} }#etfsuwf7l7no36_to {animation: etfsuwf7l7no36_to__to 8000ms linear infinite normal forwards}@keyframes etfsuwf7l7no36_to__to { 0% {transform: translate(135.000023px,89.549999px)} 15% {transform: translate(118.033758px,105.942274px)} 40% {transform: translate(118.033758px,105.942274px)} 42.500000% {transform: translate(118.033758px,105.942274px)} 60% {transform: translate(82.416890px,104.196138px)} 100% {transform: translate(135.000023px,89.549999px)} }#etfsuwf7l7no36_ts {animation: etfsuwf7l7no36_ts__ts 8000ms linear infinite normal forwards}@keyframes etfsuwf7l7no36_ts__ts { 0% {transform: scale(1,1)} 5% {transform: scale(0.481333,1)} 15% {transform: scale(0.481333,1)} 17.500000% {transform: scale(1,1)} 67.500000% {transform: scale(1,1)} 70% {transform: scale(-1,1)} 90% {transform: scale(-1,1)} 100% {transform: scale(1,1)} }#etfsuwf7l7no47_to {animation: etfsuwf7l7no47_to__to 8000ms linear infinite normal forwards}@keyframes etfsuwf7l7no47_to__to { 0% {transform: translate(77.100005px,108.171132px)} 12.500000% {transform: translate(77.100005px,108.171132px)} 15% {transform: translate(77.100005px,108.171132px)} 25% {transform: translate(77.100005px,108.171132px)} 27.500000% {transform: translate(77.100005px,108.171132px)} 40% {transform: translate(116.200008px,109.828857px)} 42.500000% {transform: translate(116.200008px,109.828857px)} 60% {transform: translate(80.583140px,108.082721px)} 70% {transform: translate(80.583140px,108.082721px)} 72.500000% {transform: translate(80.583140px,108.082721px)} 100% {transform: translate(77.100005px,108.171132px)} }#etfsuwf7l7no47_ts {animation: etfsuwf7l7no47_ts__ts 8000ms linear infinite normal forwards}@keyframes etfsuwf7l7no47_ts__ts { 0% {transform: scale(1,1)} 25% {transform: scale(1,1)} 27.500000% {transform: scale(-1,1)} 37.500000% {transform: scale(-1,1)} 40% {transform: scale(1,1)} 70% {transform: scale(1,1)} 72.500000% {transform: scale(-1,1)} 87.500000% {transform: scale(-1,1)} 100% {transform: scale(1,1)} }]]></style><g id="etfsuwf7l7no2"><path id="etfsuwf7l7no3" d="M135.300000,73.200000C126.100000,79.600000,53.900000,69.900000,41.500000,82.600000C30.800000,93.600000,41.600000,92.700000,22.500000,95.100000C-4.100000,98.400000,-12.200000,116.700000,26.900000,116.700000C57.500000,116.700000,70.800000,125,99.200000,128.500000C140.300000,133.500000,130.300000,125.700000,162.900000,113.600000C185.800000,98.500000,157.800000,77.300000,140.100000,75.100000C138.900000,74.900000,134.700000,73.600000,135.300000,73.200000Z" clip-rule="evenodd" fill="rgb(210,231,227)" fill-rule="evenodd" stroke="none" stroke-width="1"/><path id="etfsuwf7l7no4" d="M135.300000,73.200000C126.100000,79.600000,53.900000,69.900000,41.500000,82.600000C32,92.300000,39.500000,92.700000,27.900000,94.400000C19.800000,108.300000,38.500000,107.200000,53,106.400000C63.800000,105.800000,63.800000,117,82.200000,116.500000C102.200000,116,90,106.400000,102.300000,97.400000C109.500000,92.100000,121,103.400000,134.200000,101.700000C148.800000,99.900000,156.800000,93.900000,163.400000,86.200000C156.900000,80.400000,147.500000,76,140.100000,75.100000C138.900000,74.900000,134.700000,73.600000,135.300000,73.200000Z" transform="matrix(1 0 0 1 -1.01989403000002 -0.46971736500001)" clip-rule="evenodd" fill="rgb(179,215,207)" fill-rule="evenodd" stroke="none" stroke-width="1"/><path id="etfsuwf7l7no5" d="M23.347040,41.930298C31.740783,41.930298,21.183744,81.791321,29.577487,81.791321C37.971231,81.791321,51.256256,47.449048,59.650000,47.449048C68.043744,47.449048,54.770000,81.791321,63.152462,81.791321C71.534923,81.791321,92.145072,42.630298,100.550098,42.630298C108.955123,42.630298,88.344974,81.791321,96.750000,81.791321" transform="matrix(1 0 0 0.54941512837611 48.45000000000000 66.58200185619461)" fill="none" stroke="rgb(244,245,246)" stroke-width="1" stroke-opacity="0.59" stroke-linecap="round" stroke-linejoin="round"/><path id="etfsuwf7l7no6" d="M12.790000,40C25.190000,40,25.190000,60,37.590000,60C49.990000,60,50,40,62.400000,40C74.800000,40,74.800000,60,87.210000,60" transform="matrix(0.81844793321505 -0.40656745727899 0.27953614602046 0.56272526704554 -6.78079630177518 89.05031004167246)" fill="none" stroke="rgb(255,255,255)" stroke-width="1" stroke-opacity="0.61" stroke-linecap="round" stroke-linejoin="round"/><path id="etfsuwf7l7no7" d="M12.790000,40C25.190000,40,25.190000,60,37.590000,60C49.990000,60,50,40,62.400000,40C74.800000,40,74.800000,60,87.210000,60" transform="matrix(-0.88652596854714 -0.20288173573336 0.17514365795654 -0.76531975854583 157.55818339953015 147.99375130395947)" fill="none" stroke="rgb(255,255,255)" stroke-width="1" stroke-opacity="0.61" stroke-linecap="round" stroke-linejoin="round"/><path id="etfsuwf7l7no8" d="M23.347040,41.930298C31.740783,41.930298,21.183744,81.791321,29.577487,81.791321C37.971231,81.791321,51.256256,47.449048,59.650000,47.449048C68.043744,47.449048,54.770000,81.791321,63.152462,81.791321C71.534923,81.791321,92.145072,42.630298,100.550098,42.630298C108.955123,42.630298,88.344974,81.791321,96.750000,81.791321" transform="matrix(-0.99179203797677 0.07660973177874 -0.02687647798345 -0.34794374362032 153.64937640801102 110.52151060707887)" fill="none" stroke="rgb(244,245,246)" stroke-width="1" stroke-opacity="0.59" stroke-linecap="round" stroke-linejoin="round"/></g><g id="etfsuwf7l7no9_to" transform="translate(44.399996,95.728859)"><g id="etfsuwf7l7no9_ts" transform="scale(1,1)"><g id="etfsuwf7l7no9" transform="translate(-44.399996,-95.728859)"><g id="etfsuwf7l7no10" transform="matrix(1 0 0 1 -10.79444388999998 -12.53329275999997)"><path id="etfsuwf7l7no11" d="M59.800000,97.800000L61.300000,96.400000L61.300000,96.600000C61.400000,97.400000,62.300000,98.500000,62.400000,98.800000C62.500000,99.200000,63.500000,101.200000,61.700000,101.200000C60.400000,101.200000,59.200000,101.900000,59.200000,100.100000C59.300000,99.400000,59.300000,98.300000,59.800000,97.800000Z" clip-rule="evenodd" fill="rgb(238,190,182)" fill-rule="evenodd" stroke="none" stroke-width="1"/><path id="etfsuwf7l7no12" d="M60.200000,99C59.200000,98.300000,60.100000,100.600000,59.500000,100.500000C58.900000,100.400000,58.500000,99.500000,58.300000,98.800000L58.300000,98.700000C58.100000,98.200000,57.600000,97.300000,59,96.700000C59.200000,95.700000,60.400000,95.700000,61.200000,95.800000C61.800000,95.900000,62.700000,96.400000,62.100000,97.100000C61.600000,97.700000,61.800000,97.200000,61.200000,98C60.900000,98.400000,60.400000,99.300000,60.900000,99.800000C61.300000,100.200000,62.500000,99.700000,63,100.300000C63.600000,101,62.700000,101.100000,61.800000,101.400000C61.200000,101.600000,61.200000,101.100000,60.900000,100.600000C60.600000,100.100000,60.400000,100.100000,60.300000,99.400000C60.300000,99.100000,60.300000,99.100000,60.200000,99Z" clip-rule="evenodd" fill="rgb(103,55,48)" fill-rule="evenodd" stroke="none" stroke-width="1"/><path id="etfsuwf7l7no13" d="M54,103C54,103.500000,54.800000,105.300000,54.800000,105.700000C54.800000,107,55.700000,104,55.800000,103.900000C55.800000,103.700000,58.600000,103,58.600000,101.500000C58.600000,100,54,101.600000,54,103Z" clip-rule="evenodd" fill="rgb(156,61,54)" fill-rule="evenodd" stroke="none" stroke-width="1"/><path id="etfsuwf7l7no14" d="M64.400000,106.400000C64.500000,106.300000,64.600000,105.500000,64.300000,104.400000C64.400000,104.400000,62.100000,106.100000,61.700000,104C61.700000,103,60.900000,101.400000,60.900000,101.300000C60.900000,100.600000,60.900000,103.400000,60.500000,106C60.500000,109,64.300000,106.400000,64.400000,106.400000Z" clip-rule="evenodd" fill="rgb(156,61,54)" fill-rule="evenodd" stroke="none" stroke-width="1"/><path id="etfsuwf7l7no15" d="M44.700000,114.500000C44.700000,113.100000,45.800000,116.100000,46.400000,115.500000C46.400000,115.400000,46.600000,115.100000,46.700000,115.100000C47.500000,114.300000,46.600000,114,48.400000,114C48.500000,114,48.900000,112.300000,47.900000,112.300000C46.300000,112.300000,46.900000,111.700000,46.900000,111.500000C46.900000,110.900000,44.700000,113.100000,44.700000,114.500000C44,114.300000,44.700000,114.600000,44.700000,114.500000ZM46.600000,112C46.600000,113.500000,46.500000,113,45.400000,114.100000C45.400000,114.600000,44.100000,114.100000,45.600000,112.600000C45.900000,112.300000,46.200000,111.900000,46.200000,112.200000C46.700000,112.700000,46.400000,112,46.600000,112Z" clip-rule="evenodd" fill="rgb(103,55,48)" fill-rule="evenodd" stroke="none" stroke-width="1"/><path id="etfsuwf7l7no16" d="M56.700000,120.300000C56.700000,120,56.100000,120.200000,55.900000,120C55.900000,119.500000,56.100000,119.600000,56.900000,119.600000C57.500000,119.600000,57.500000,119,57.300000,119C57.300000,119,56.400000,118.600000,56.400000,118.600000C55.700000,118.200000,55.800000,118.700000,55.800000,117.400000C55.300000,116.900000,54.700000,116.900000,54.200000,116.400000C54.100000,116.400000,53.700000,117,53.700000,117C52.500000,118.200000,53.600000,117.500000,53.100000,118.400000C50.500000,117.100000,56.700000,121.100000,56.700000,120.300000ZM53.800000,118.500000C54.300000,118.500000,54.500000,118.600000,54.700000,118.600000C55.100000,118.600000,55.200000,119.300000,55.600000,119.300000C55.700000,119.300000,55.400000,120.300000,53.900000,118.800000C53.600000,118.800000,53.600000,118.800000,53.800000,118.500000Z" clip-rule="evenodd" fill="rgb(103,55,48)" fill-rule="evenodd" stroke="none" stroke-width="1"/><path id="etfsuwf7l7no17" d="M48.500000,113.200000C48.500000,114.300000,50.500000,113.600000,53.400000,113.600000C54.300000,113.100000,56.200000,111.200000,56.200000,111.100000C56.600000,110.700000,57,109.900000,56.500000,112.300000C56.500000,112.800000,54.400000,115.600000,54.400000,116.500000C54.700000,116.800000,55.700000,117,55.900000,117.200000C56.700000,117.200000,55.400000,117.300000,57.800000,114.900000C57.800000,114.800000,58.200000,114.200000,58.200000,114.100000C58.200000,114.100000,58.600000,112.900000,58.600000,112.900000C58.600000,107.900000,59.900000,110.100000,57.200000,109.400000C56.100000,109.400000,54.100000,108.500000,54.100000,109.500000C53.200000,110.400000,54.100000,112.200000,49.100000,112.200000C48.700000,112.200000,48.700000,112.800000,48.700000,113.200000C48.400000,113,48.500000,113.100000,48.500000,113.200000Z" clip-rule="evenodd" fill="rgb(86,149,148)" fill-rule="evenodd" stroke="none" stroke-width="1"/><path id="etfsuwf7l7no18" d="M64.700000,106C65.200000,106.500000,66.600000,105.500000,66.600000,104.300000C66.600000,103.700000,64.500000,103.800000,64.500000,104.600000C64.500000,104.700000,64.700000,105,64.700000,105.100000C64.700000,106.200000,64.600000,105.900000,64.700000,106Z" clip-rule="evenodd" fill="rgb(86,149,148)" fill-rule="evenodd" stroke="none" stroke-width="1"/><path id="etfsuwf7l7no19" d="M58,108.700000C58.600000,108.700000,59.100000,108.900000,59.100000,108.700000C59.400000,108.400000,60.400000,106.600000,60.400000,105.500000C60.400000,98,61.600000,102.700000,58,108.700000Z" clip-rule="evenodd" fill="rgb(163,167,172)" fill-rule="evenodd" stroke="none" stroke-width="1"/><path id="etfsuwf7l7no20" d="M54.700000,107.800000C58.600000,107.800000,57.200000,109.700000,58.800000,106.600000C58.800000,106.500000,61.600000,100.700000,60,100.700000C59.800000,100.500000,58.700000,100.500000,58.500000,100.500000C58.100000,100.500000,59,101.800000,58.400000,101.800000C57.600000,102.600000,55.900000,103.500000,55.800000,103.500000C55.600000,103.700000,55,106.200000,54.700000,106.500000C54.300000,107.300000,54.700000,107.400000,54.700000,107.800000Z" clip-rule="evenodd" fill="rgb(163,167,172)" fill-rule="evenodd" stroke="none" stroke-width="1"/></g></g></g></g><g id="etfsuwf7l7no21_ts" transform="translate(85.199986,85.787498) scale(1,1)"><g id="etfsuwf7l7no21" transform="translate(-85.199986,-85.787498)"><g id="etfsuwf7l7no22" transform="matrix(1 0 0 1 76.65000000000001 72.28124961999997)"><path id="etfsuwf7l7no23" d="M1.900000,20.500000C1.900000,21.700000,4.900000,19.500000,5.400000,19C8.200000,16.200000,6.300000,16.900000,5.900000,16.500000C5.900000,16.400000,5.500000,15.700000,5.400000,15.700000C3.100000,20.200000,1.900000,20.200000,1.900000,20.500000Z" clip-rule="evenodd" fill="rgb(206,129,43)" fill-rule="evenodd" stroke="none" stroke-width="1"/><path id="etfsuwf7l7no24" d="M10,22.600000C10,22.300000,10.800000,20.900000,10.900000,20.900000C11.600000,20.200000,11.400000,19.800000,11.400000,16.600000C11.400000,16.200000,10,16.600000,10,17.100000C10,22.200000,7.800000,22.600000,10,22.600000Z" clip-rule="evenodd" fill="rgb(206,129,43)" fill-rule="evenodd" stroke="none" stroke-width="1"/><path id="etfsuwf7l7no25" d="M6,15.700000C6,17.300000,8.300000,15.900000,8.300000,16.700000C9.200000,17.600000,9.300000,16.300000,11.600000,16.300000C11.800000,16.300000,10.800000,13.200000,10.800000,13.100000C10.800000,10.800000,10.100000,12.800000,8.700000,12.100000C8.500000,12.100000,7.400000,11.600000,7.300000,11.500000C6.400000,11.500000,7.500000,11.300000,5.300000,13.500000C3.500000,15.300000,6,14.700000,6,15.700000Z" clip-rule="evenodd" fill="rgb(156,61,54)" fill-rule="evenodd" stroke="none" stroke-width="1"/><path id="etfsuwf7l7no26" d="M9.600000,4.200000C9.600000,5.600000,12,5.700000,12,4.100000C12,4,12.100000,4,12.600000,4C12.800000,3.800000,13,2.800000,12,1.800000C11.800000,1.800000,11.200000,1.400000,11.200000,1.700000C11.200000,1.700000,11.200000,1.900000,11.100000,2C11.200000,2,11.700000,2.700000,11.400000,3C11.400000,3.500000,10,3.900000,10,2.900000C10,3.400000,9.600000,4,9.600000,4.200000Z" clip-rule="evenodd" fill="rgb(238,190,182)" fill-rule="evenodd" stroke="none" stroke-width="1"/><path id="etfsuwf7l7no27" d="M11.100000,3.400000C9.500000,3.200000,10.500000,3.300000,9.900000,3.900000C9.900000,1.200000,12.600000,0.200000,11.700000,0.200000C10.400000,0.200000,10.400000,-0,8.900000,1.500000C8.900000,1.500000,8,3.100000,8,3.200000C8,3.800000,7.900000,3.800000,8.900000,3.800000C8.900000,4.600000,10.800000,5.500000,10.800000,4.600000C10.800000,4,11.500000,3.400000,11.100000,3.400000Z" fill="rgb(206,129,43)" stroke="none" stroke-width="1"/><path id="etfsuwf7l7no28" d="M12.400000,0.300000C12.400000,0.600000,11.300000,0.300000,11.300000,2.300000C11.600000,2.900000,11.100000,3,11.700000,2.400000C13.700000,2.400000,12.500000,4.800000,12.300000,5C12,5,11.900000,5.700000,12.900000,5.700000C13.900000,5.700000,12.800000,2.900000,13.500000,2.900000C14,2.400000,12.800000,0.300000,12.400000,0.300000Z" fill="rgb(206,129,43)" stroke="none" stroke-width="1"/><path id="etfsuwf7l7no29" d="M12.200000,0C11.200000,0,10.700000,1.700000,10.500000,1.700000C9.900000,1.700000,9.500000,2.900000,10,2.900000C10,3.700000,11.500000,3.600000,11.500000,2.500000C11.500000,2.400000,10.700000,1.500000,11.700000,0.500000C11.800000,0.400000,12.600000,0,12.200000,0Z" clip-rule="evenodd" fill="rgb(156,61,54)" fill-rule="evenodd" stroke="none" stroke-width="1"/><path id="etfsuwf7l7no30" d="M5.500000,10.600000C5.500000,11.400000,6.200000,11.800000,6.200000,12C6.200000,12.100000,6.300000,12.100000,6.800000,12.100000C7,11.900000,6.300000,9.700000,7.600000,8.400000C7.600000,10.100000,6.400000,11.700000,8.200000,11.700000C10.200000,11.700000,10.200000,12.400000,11,9C11,8.300000,11,8.700000,11.100000,8.800000C11.100000,9.300000,13.600000,12,14.700000,10.900000C14.700000,10.300000,13.300000,10.300000,13.800000,10C13.200000,10,10.900000,6.100000,10.900000,6.100000C10.200000,6.800000,7.800000,5.400000,6.700000,7.500000C5.200000,9,5.500000,10.500000,5.500000,10.600000Z" clip-rule="evenodd" fill="rgb(163,167,172)" fill-rule="evenodd" stroke="none" stroke-width="1"/><path id="etfsuwf7l7no31" d="M11.600000,23.600000C8.900000,23.600000,10,23.500000,10,22.800000C10,22.800000,9.400000,23.700000,9.500000,23.800000C9.500000,23.900000,9,23.800000,8.900000,23.800000C8.900000,22.200000,8.900000,22.800000,8.700000,22.800000C8.500000,22.800000,8.100000,22.900000,8.100000,22.500000C8,22.700000,7.800000,23.700000,7.800000,23.800000C8.400000,24.300000,8,23.900000,8,24.300000C8.300000,24.300000,8.300000,25.100000,8.300000,24.200000C8.300000,25.200000,8.700000,24.900000,8.100000,24.900000C8,24.900000,7.100000,25.300000,10.100000,25.300000C10.200000,25.300000,10.500000,25.400000,10.500000,25.500000C10.700000,25.700000,10.600000,25.400000,10.800000,25.400000C11.800000,25.400000,11.600000,25.500000,11.600000,25.100000C11.300000,24.800000,11.200000,25.100000,11.400000,25.300000C10.900000,25.300000,10.500000,25.400000,11.100000,24.800000C11.800000,24.100000,11.200000,24,11.200000,24.400000C11,24.400000,11.300000,24.600000,10.600000,24.600000C10.600000,23.200000,11.600000,24.500000,11.600000,23.600000ZM9.700000,24.800000C11,24.800000,10.500000,24.900000,10.500000,25.300000C8,25,8.300000,24.800000,9.700000,24.800000Z" fill="rgb(255,255,255)" stroke="none" stroke-width="1"/><path id="etfsuwf7l7no32" d="M0,21.400000C0.600000,22,0.900000,24.200000,2.200000,24.200000C2.200000,24,2.400000,24,2.300000,24C1.300000,24,2.100000,22.900000,2.100000,23.400000C3.400000,23.400000,2,21.300000,2.900000,21.300000C2.900000,20.700000,2.800000,21.600000,1.900000,20.700000C1.900000,20.500000,1.200000,21,1.200000,21.100000C0.600000,21.100000,1.200000,21.800000,0.700000,21.800000C0.700000,21.700000,0.500000,21.700000,0.500000,21.500000C0.500000,21.500000,0.500000,21.500000,0.400000,21.500000C0.200000,21.400000,0,21.300000,0,21.400000ZM1.700000,23.300000C1.400000,23.600000,1.500000,23.400000,1.400000,23.400000C1,22.800000,0.300000,22.300000,0.600000,22C0.600000,22.100000,0.700000,22.100000,0.700000,22.200000C0.900000,22.400000,0.900000,23.100000,1.100000,23.100000C1.100000,23.300000,1.700000,23,1.700000,23.300000Z" clip-rule="evenodd" fill="rgb(255,255,255)" fill-rule="evenodd" stroke="none" stroke-width="1"/><path id="etfsuwf7l7no33" d="M15,11.700000C15,11.800000,15.600000,12.700000,15.800000,12.500000C16,12.300000,16.600000,13.400000,17,13C17,12,16.300000,11.600000,15.300000,11.600000C15.300000,12.200000,15.300000,11.700000,15,11.700000Z" clip-rule="evenodd" fill="rgb(206,129,43)" fill-rule="evenodd" stroke="none" stroke-width="1"/><path id="etfsuwf7l7no34" d="M7.500000,13.200000C7.100000,12.800000,7.400000,13.100000,7.500000,13.100000C8,13.100000,7.800000,12.500000,6.400000,12.500000C6.400000,13.300000,6.700000,14.300000,7.700000,14.300000C7.900000,14.100000,7.500000,13.600000,7.500000,13.200000Z" clip-rule="evenodd" fill="rgb(206,129,43)" fill-rule="evenodd" stroke="none" stroke-width="1"/><path id="etfsuwf7l7no35" d="M2.700000,3.800000C2.900000,3.800000,3.300000,4.600000,2.900000,4.200000C1.700000,4.200000,4.900000,5,5.200000,4.700000C5.300000,4.700000,7.900000,4.600000,7,4.600000C4,6,4.900000,5.700000,2.700000,5.700000C2.600000,5.700000,2.600000,5.900000,2.700000,5.900000C3.200000,5.900000,3.100000,5.800000,3.100000,6.100000C2.200000,6.100000,3.100000,6.100000,3.300000,6.300000C2.600000,6.300000,2.600000,6.500000,3.400000,6.500000C3.400000,6.500000,3.300000,6.500000,3.300000,6.600000C3.300000,6.600000,3.200000,6.600000,3.100000,6.600000C3.100000,7.100000,3.700000,6.600000,3.800000,6.600000C3.900000,6.600000,4.700000,6.300000,4.800000,6.200000C9.500000,3.800000,10.600000,6.300000,10.600000,4.700000C10.200000,4.700000,8.400000,4,3.500000,4C3,3.500000,2.100000,3.300000,3.300000,3.800000C3.300000,4.300000,3.100000,3.400000,2.700000,3.800000Z" clip-rule="evenodd" fill="rgb(86,149,148)" fill-rule="evenodd" stroke="none" stroke-width="1"/></g></g></g><g id="etfsuwf7l7no36_to" transform="translate(135.000023,89.549999)"><g id="etfsuwf7l7no36_ts" transform="scale(1,1)"><g id="etfsuwf7l7no36" transform="translate(-135.000023,-89.549999)"><g id="etfsuwf7l7no37" transform="matrix(1 0 0 1 125.40000000000013 76.68262881999999)"><path id="etfsuwf7l7no38" d="M7,4.500000C7,2.500000,6.900000,2.200000,5.100000,2.200000C5.100000,5.200000,6.600000,4.500000,7,4.500000Z" clip-rule="evenodd" fill="rgb(238,190,182)" fill-rule="evenodd" stroke="none" stroke-width="1"/><path id="etfsuwf7l7no39" d="M7.700000,24.500000C8.800000,24.500000,7.500000,25.300000,7.500000,24.700000C7.500000,24.700000,7.400000,24.600000,7.400000,24.700000C7.400000,24.700000,7.300000,24.700000,7.300000,24.800000C7.300000,25.800000,11,24,10.700000,23.700000C9.900000,23.700000,10.300000,24.900000,10.300000,21.500000C10.300000,21.100000,10,21.700000,9.400000,21.700000C9.400000,23.500000,6.200000,23.100000,7.700000,24.500000ZM8.300000,25C8.300000,24.600000,8.200000,24.700000,8.700000,24.700000C10.100000,23.900000,10.700000,24.200000,8.300000,25Z" clip-rule="evenodd" fill="rgb(255,255,255)" fill-rule="evenodd" stroke="none" stroke-width="1"/><path id="etfsuwf7l7no40" d="M18.900000,19C19.600000,19,19.300000,19.100000,19.800000,18.600000C20.400000,18.600000,20.300000,18.800000,20,19.100000C19.400000,19.100000,20.100000,19.500000,20.400000,19.200000C20.900000,19.200000,20.400000,14.700000,20.400000,16.800000C20.100000,16.800000,20.800000,16.600000,18.500000,16.600000C18.500000,17.800000,17.700000,17.200000,18.200000,17.200000C18.400000,17.200000,18.500000,16.100000,18.300000,16.100000C17.600000,16.100000,18.700000,16.400000,18.200000,16.900000C17.800000,16.900000,17.700000,17.200000,17.900000,17.200000C17.600000,17.500000,18.900000,17,18.900000,19ZM20.300000,18.800000C19.900000,18.800000,20.100000,18.700000,20.100000,18.400000C20.100000,16.400000,20.300000,17.100000,20.300000,18.800000ZM20,19.300000L20,19.300000L20,19.300000Z" clip-rule="evenodd" fill="rgb(255,255,255)" fill-rule="evenodd" stroke="none" stroke-width="1"/><path id="etfsuwf7l7no41" d="M9.300000,20.800000C9.300000,21.800000,9.300000,21.900000,9.400000,21.900000C10.200000,21.900000,10.300000,22.800000,10.300000,16.400000C9.900000,16.400000,9.900000,16.800000,9.500000,16.800000C9.300000,17,9.300000,16.800000,9.100000,17C8.300000,17,9.300000,20,9.300000,20.800000Z" clip-rule="evenodd" fill="rgb(86,149,148)" fill-rule="evenodd" stroke="none" stroke-width="1"/><path id="etfsuwf7l7no42" d="M14.700000,16.400000C18.700000,17.700000,18.500000,16.300000,17.100000,16.300000C13,14.300000,12.600000,14.800000,11.800000,15.600000C11.200000,14.800000,11.700000,16.400000,14.700000,16.400000Z" clip-rule="evenodd" fill="rgb(86,149,148)" fill-rule="evenodd" stroke="none" stroke-width="1"/><path id="etfsuwf7l7no43" d="M0,12C0,13.100000,0.500000,12.700000,0.500000,12.600000C0.500000,12.500000,0.500000,12.100000,0.700000,12.100000C0.700000,12.200000,1,12.400000,1,11.800000C1.700000,11.800000,0,10.100000,0,11.700000C0.100000,11.800000,0.100000,11.900000,0,12Z" clip-rule="evenodd" fill="rgb(86,149,148)" fill-rule="evenodd" stroke="none" stroke-width="1"/><path id="etfsuwf7l7no44" d="M14,10.900000C14,11.400000,14,11.500000,14.200000,11.300000C14.300000,11.300000,14.100000,11.800000,15,11.800000C16.300000,12.200000,15.100000,8.600000,14,10.900000C14,10.800000,14,10.800000,14,10.900000Z" clip-rule="evenodd" fill="rgb(86,149,148)" fill-rule="evenodd" stroke="none" stroke-width="1"/><path id="etfsuwf7l7no45" d="M6.400000,1.800000C7.800000,1.800000,6.900000,5.900000,7.500000,5.900000C7.600000,5.900000,8.100000,5.800000,8.100000,5.700000C8.100000,5.400000,8.800000,8.100000,8.800000,6.300000C9,6.300000,8.800000,6.500000,9.100000,6.800000C9.400000,6.800000,9.300000,6.500000,9.200000,6.400000C9.300000,6.400000,9.300000,6.400000,9.300000,6.600000C9.300000,6.800000,9.900000,6.700000,10.100000,6.500000C10.100000,5.600000,9.700000,5.500000,10,5.500000C10.300000,5.500000,10.300000,4.800000,10.100000,4.600000C10.900000,4.600000,9.800000,4.100000,9.800000,2.800000C9.800000,-0.600000,7,-0.400000,6.100000,0.500000C5.900000,0.500000,5.300000,1.100000,5.300000,1.100000C5.300000,2,4.400000,1.800000,6.400000,1.800000Z" clip-rule="evenodd" fill="rgb(103,55,48)" fill-rule="evenodd" stroke="none" stroke-width="1"/><path id="etfsuwf7l7no46" d="M1.100000,10.900000C1.100000,12.500000,5.200000,9.600000,5.300000,9.500000C6.800000,8,6.900000,17.700000,7.900000,17.700000C10.200000,17.700000,11.100000,14.900000,12.500000,14.900000C14.800000,14.900000,10,9.800000,10.500000,9.800000C11,9.800000,14.100000,12.400000,14.100000,10.200000C14.100000,10,12.800000,9.200000,12.400000,9.200000C11.700000,9.200000,9.100000,7.100000,9.100000,7.900000C8.300000,7.900000,8.700000,7.200000,8.700000,7.900000C8.300000,8.300000,8.300000,7.500000,8.200000,7.500000C8.200000,7.600000,8.500000,8.100000,8.100000,8.100000C7.600000,8.100000,7.900000,7.400000,7.700000,7.200000C7.700000,6.400000,7.400000,7.200000,7,7.200000C6.600000,6.900000,6.900000,5.600000,6.700000,5.600000C6.600000,5.800000,6.800000,5.700000,5.400000,5.700000C5.400000,8.400000,1.100000,10.600000,1.100000,10.900000Z" clip-rule="evenodd" fill="rgb(206,129,43)" fill-rule="evenodd" stroke="none" stroke-width="1"/></g></g></g></g><g id="etfsuwf7l7no47_to" transform="translate(77.100005,108.171132)"><g id="etfsuwf7l7no47_ts" transform="scale(1,1)"><g id="etfsuwf7l7no47" transform="translate(-116.200008,-109.828857)"><g id="etfsuwf7l7no48" transform="matrix(1 0 0 1 105.09704285499994 97.48426665499990)"><path id="etfsuwf7l7no49" d="M6.800000,2.100000C5,0.400000,5.300000,0.600000,5.300000,0.900000C5.200000,1.700000,4.800000,1.700000,4.700000,2C4.600000,2.400000,4,5,5.700000,5.100000C7,5.100000,7.400000,6.200000,7.300000,4.400000C7.300000,3.700000,7.300000,2.600000,6.800000,2.100000Z" clip-rule="evenodd" fill="rgb(238,190,182)" fill-rule="evenodd" stroke="none" stroke-width="1"/><path id="etfsuwf7l7no50" d="M6.300000,3.300000C7.300000,2.600000,6.400000,4.900000,7,4.800000C7.800000,4.700000,9.400000,1.800000,7.500000,1C7.200000,-0.700000,3.300000,0.100000,4.400000,1.400000C5.500000,3.500000,6.300000,3.800000,6.300000,3.300000Z" clip-rule="evenodd" fill="rgb(206,129,43)" fill-rule="evenodd" stroke="none" stroke-width="1"/><path id="etfsuwf7l7no51" d="M2.200000,10.700000C2,10.700000,2.100000,8.700000,2.400000,8.700000C3.900000,9.900000,4.900000,9.300000,4.900000,8.200000C4.900000,7.400000,5.600000,5.900000,5.600000,5.800000C5.600000,4.300000,5.800000,8.500000,6.100000,10.500000C6.100000,13.300000,2.300000,10.700000,2.200000,10.700000Z" clip-rule="evenodd" fill="rgb(156,61,54)" fill-rule="evenodd" stroke="none" stroke-width="1"/><path id="etfsuwf7l7no52" d="M21.900000,18.800000C21.900000,17.300000,20.900000,20.500000,20.200000,19.800000C20.200000,19.800000,19.300000,18.400000,19.200000,18.400000C18.800000,17.500000,18,19.300000,18,17.200000C18,15.800000,19,16.800000,19.800000,16C19.900000,16,19.600000,15.900000,19.600000,15.700000C19.600000,15.700000,19.500000,15.500000,19.700000,15.500000C20,15.500000,21.700000,17.400000,21.700000,18.800000C22.700000,18.600000,21.900000,19.100000,21.900000,18.800000ZM20,16.300000C20,17.800000,20.100000,17.300000,21.200000,18.400000C21.200000,18.900000,22.500000,18.400000,21,16.900000C20.700000,16.600000,20.400000,16.200000,20.400000,16.500000C19.900000,16.900000,20.200000,16.300000,20,16.300000Z" clip-rule="evenodd" fill="rgb(103,55,48)" fill-rule="evenodd" stroke="none" stroke-width="1"/><path id="etfsuwf7l7no53" d="M14.100000,22.500000C14.100000,22.600000,9.900000,25.300000,9.900000,24.600000C9.900000,24.300000,10.500000,24.500000,10.700000,24.300000C10.700000,23.800000,10.500000,23.900000,9.500000,23.900000C8.800000,23.900000,8.900000,23.300000,9.100000,23.300000C9.200000,23.300000,9.200000,23.200000,10.300000,22.700000C10.900000,22.700000,10,21.900000,11.100000,21.300000C11.400000,21.300000,11.800000,21.100000,12,20.900000C12.300000,20.600000,13.300000,22,13.300000,22.300000C13.300000,23.500000,13.600000,22,14.100000,22.500000ZM11.700000,22.900000C11.400000,22.900000,11.300000,23.600000,10.900000,23.600000C11,23.600000,10.900000,24.700000,12.500000,23.100000C12.500000,23.500000,13.800000,22.600000,11.700000,22.900000Z" clip-rule="evenodd" fill="rgb(103,55,48)" fill-rule="evenodd" stroke="none" stroke-width="1"/><path id="etfsuwf7l7no54" d="M12.300000,17.300000C12.100000,17.300000,10,14.500000,10,15.400000C10.200000,16.100000,10.100000,16.800000,10.300000,17C10.300000,18,14.500000,21.500000,10.500000,21.500000C10.500000,20.500000,8.100000,19,8.100000,17C7.900000,16.200000,8.100000,15.500000,7.800000,14.800000C7.800000,13.800000,7.100000,13.800000,10.900000,13.800000C12.900000,12.800000,12.800000,15,14,16.200000C14.100000,16.200000,17.800000,16.800000,17.900000,16.900000C18.100000,16.900000,17.900000,17,18.100000,17.200000C18.100000,18.700000,13.400000,18.300000,12.300000,17.300000Z" clip-rule="evenodd" fill="rgb(86,149,148)" fill-rule="evenodd" stroke="none" stroke-width="1"/><path id="etfsuwf7l7no55" d="M0,8.600000C0,8,2.100000,8.200000,2.100000,8.800000C2.100000,11.900000,0,9.700000,0,8.600000Z" clip-rule="evenodd" fill="rgb(86,149,148)" fill-rule="evenodd" stroke="none" stroke-width="1"/><path id="etfsuwf7l7no56" d="M8.500000,13C7.900000,13,7.400000,13.200000,7.400000,13C7.100000,12.700000,6,10.500000,6,9.300000C6,7.100000,6.100000,4.500000,6.100000,6.800000C6.100000,7.600000,8.500000,12.900000,8.500000,13Z" clip-rule="evenodd" fill="rgb(156,61,54)" fill-rule="evenodd" stroke="none" stroke-width="1"/><path id="etfsuwf7l7no57" d="M12.300000,7.100000C12.300000,7.100000,8.100000,4.400000,7.900000,5.700000C6.900000,4.500000,8.900000,4.500000,6.400000,4.500000C6.300000,4.500000,5.800000,4.800000,5.800000,4.900000C5.800000,6.300000,7.800000,12.200000,9,12.200000C9.600000,11.600000,12.700000,12.500000,11.700000,10.400000C11.700000,10.400000,12.900000,7.100000,12.300000,7.100000Z" clip-rule="evenodd" fill="rgb(156,61,54)" fill-rule="evenodd" stroke="none" stroke-width="1"/></g></g></g></g></svg>