<?xml version="1.0" encoding="utf-8"?>
<!-- Generator: Adobe Illustrator 24.0.3, SVG Export Plug-In . SVG Version: 6.00 Build 0)  -->
<svg version="1.1" id="Layer_1" xmlns="http://www.w3.org/2000/svg" xmlns:xlink="http://www.w3.org/1999/xlink" x="0px" y="0px"
	 viewBox="0 0 37.5 30.2" style="enable-background:new 0 0 37.5 30.2;" xml:space="preserve">
<style type="text/css">
	.st0{fill-rule:evenodd;clip-rule:evenodd;fill:#DC866F;}
	.st1{fill-rule:evenodd;clip-rule:evenodd;fill:#C25645;}
	.st2{fill-rule:evenodd;clip-rule:evenodd;fill:#FFFFFF;}
	.st3{fill-rule:evenodd;clip-rule:evenodd;fill:#E2E3E4;}
	.st4{fill-rule:evenodd;clip-rule:evenodd;fill:#5D3A2C;}
	.st5{fill-rule:evenodd;clip-rule:evenodd;fill:#100809;}
	.st6{fill-rule:evenodd;clip-rule:evenodd;fill:#5A3C3F;}
</style>
<g>
	<path class="st0" d="M9.3,6l-8.1,8.9c-0.1,0.8,0.1,13.5,0,14.7c0,0.6,12.2,0.5,13.4,0.6c2.6,0.1,6.3,0.1,9,0.1
		c6.6,0.1,9.5-0.4,12.3-0.4c0.1-0.2,0.5-16.4,0.1-15.7c-0.1-0.5-1.2-1.4-2-2.9l-0.1-0.1c-0.5-0.9-1.3-3.5-1.9-4.2
		c-0.8-1-0.5-0.1-1.8-1.5c-2-2,0.3-1-5.2-0.7l-0.4,0c-5.9,0.3-8.9-0.3-15,1.2L9.3,6z"/>
	<path class="st1" d="M23.1,30.2c0.2,0,0.3,0,0.5,0c6.6,0.1,9.5-0.4,12.3-0.4c0.1-0.2,0.5-16.4,0.1-15.7c-0.1-0.5-1.2-1.4-2-2.9
		l-0.1-0.1c-0.5-0.9-1.3-3.5-1.9-4.2c-0.8-1-0.5-0.1-1.8-1.5c-1.6-1.7-0.3-1.3-3-0.9c-0.7,0.5-1.4,1.2-2.4,2.2
		c-1.1,1.2-3.4,2-3.4,3.7l0.6,1.8c0,2.7,1,6.2,0.9,9.6C22.8,24.7,23.1,27.2,23.1,30.2z"/>
	<path class="st2" d="M27.8,9.6l-0.9,0c0,1,0.1,2.2,0,3.1c0.6,0.2,1.4,0,2,0.1l0,0c0.2,0,1.6,0.1,1.6-0.1c0.1-0.5,0.2-2.2,0.1-2.7
		c-0.1-0.6-0.8-0.4-1.7-0.4C28.8,9.6,27.9,9.6,27.8,9.6z"/>
	<path class="st3" d="M8.2,3.8C7.4,4.6-0.4,14.4,0,15.8c5.4,0.1,13.3-0.8,18.3-0.3c0.3,0,2.8,0.1,3,0c0.7,0,7.8-11.1,7.8-11.1
		c1.5,1.5,5.7,8.4,7,10.2c0.4,0.6,2.5,0.1,0.5-2.6c-1.1-1.5-1.9-2.5-3.2-4.1l-0.2-0.2c-2.3-2.8-1.2-4.4-7.9-4.3
		C20.1,3.4,11.6,3.4,8.2,3.8z"/>
	<path class="st4" d="M21.5,0.6C21,1,21.1,5.1,21.5,5.7c0.3,0,2.7,0.1,2.7,0.1c1.5-3.1,1.6,0.1,1.6-4.4c0-0.4-0.1-0.9-0.1-1.4
		C25.3,0.1,21.8,0.4,21.5,0.6z"/>
	<path class="st4" d="M27.8,10.4c-0.2,0.1-0.1,1.5-0.1,1.8c0.6,0,2.1,0,2.3,0c0-0.6-0.1-1.2-0.1-1.8C29.5,10.4,27.8,10.3,27.8,10.4z
		"/>
	<path class="st4" d="M31.8,30.2l-4.8,0c-0.2-0.5-0.2-5.4-0.2-6.2c0-0.9,0.2-1.6,0.2-2.6c0-1.1,0-1.3,0.1-2.3c0-0.4,0-0.4,0-0.7
		c0.5,0,4.4,0,4.4,0c0.1,0.2-0.3,3.3-0.1,4.3c0.2,1.1,0.2,4,0.3,5.1l0,0.1C31.8,28.6,31.8,29.4,31.8,30.2z"/>
	<path class="st5" d="M30.7,30.2l-0.3,0c-0.1-1.6,0-3.2,0-4.5c0-0.7,0.1-1.4,0.2-2.2c0.2-1.4,0.3-2.9,0.2-4.3c0-0.2-0.1-0.5-0.2-0.8
		l0.3,0c0.1,0.3,0.2,0.6,0.2,0.8c0.1,1.5,0,2.9-0.2,4.4c-0.1,0.7-0.2,1.4-0.2,2.1C30.7,27,30.6,28.6,30.7,30.2L30.7,30.2z
		 M29.7,30.2c0-0.5,0.1-1,0.1-1.5c0-0.7,0.1-1.4,0.1-1.7c0.3-1.4,0.3-3.1,0.4-4.6c0-0.7,0-1.4,0.1-2c0,0,0-0.1,0-0.2
		c0-0.4,0.1-1.2,0-1.8l-0.2,0c0.1,0.5,0,1.3-0.1,1.8c0,0.1,0,0.2,0,0.2c0,0.6-0.1,1.3-0.1,2c-0.1,1.6-0.1,3.2-0.4,4.6
		c-0.1,0.3-0.1,1-0.1,1.7c0,0.5,0,1-0.1,1.5L29.7,30.2L29.7,30.2z M28.8,30.2l-0.3,0c0-0.2,0-0.4,0-0.5l0-0.2c0-0.6,0.1-1.4,0.1-2.1
		c0.1-2.9,0.3-6.5-0.2-9l0.3,0c0.3,1.7,0.3,3.9,0.3,6.1c0-0.2,0-0.5,0-0.7c0-0.6,0.1-1.3,0.1-2v0l0-0.1c0-0.5-0.1-1-0.2-1.5
		c-0.1-0.6-0.2-1.1-0.2-1.7l0.3,0c-0.1,0.6,0.1,1.1,0.2,1.7c0,0.3,0.1,0.5,0.1,0.8c0.1-0.9,0.2-1.9,0.3-2.4l0.3,0
		c-0.1,0.5-0.2,1.7-0.3,2.7c-0.1,0.8-0.1,1.5-0.2,1.8c-0.1,0.4-0.1,1.2-0.1,2.1c0,1.3,0,2.6-0.2,2.8l-0.3,0.3v-0.4
		c0-0.3,0-0.5,0-0.8l0,0.5c0,0.8-0.1,1.5-0.1,2.1l0,0.2C28.7,29.8,28.7,30,28.8,30.2L28.8,30.2z M27.8,30.2l-0.3,0
		c0-0.5,0-1.2-0.1-2.1c0-0.4,0-0.8,0.1-1.3c0.1-0.6,0.2-1.3,0.1-2.1l0,0l0-0.2c-0.1-0.6,0-1.3,0.1-2.1c0.1-0.6,0.2-1.3,0.2-1.9
		c0-0.5,0-0.9-0.1-1.2c0-0.3-0.1-0.6-0.1-0.9l0.3,0c0,0.3,0,0.5,0,0.9c0,0.3,0.1,0.7,0.1,1.2c0,0.6-0.1,1.3-0.2,2
		c-0.1,0.8-0.2,1.5-0.1,2.1l0,0l0,0.2c0.1,0.8,0,1.5-0.1,2.2c-0.1,0.4-0.1,0.9-0.1,1.2C27.8,29,27.8,29.7,27.8,30.2z"/>
	<path class="st2" d="M27.5,17.3l-1.3,0.2c-0.1,0.6-0.1,0.5-0.1,1.1c0.1,0.1,4.6-0.1,5.2-0.1c1.2,0,0.9-0.1,1-1
		c0.1-0.5-3.2-0.3-3.7-0.2C28.2,17.3,27.9,17.3,27.5,17.3z"/>
	<g>
		<g>
			<path class="st2" d="M4.6,19.7H2.6c-0.1,0.3,0.2,5.8,0.2,5.8c0.8,0.1,3.3,0,4.3,0c0-1.3,0.3-2.7,0-4C7,21,7,20.2,7,19.7
				C6.7,19.7,4.7,19.7,4.6,19.7z"/>
			<path class="st6" d="M3.1,20.1c-0.2,0.2,0.1,1.8,0.1,2.2c0.1,0,1.4-0.1,1.5-0.1c0.2-0.5,0-1.6,0-2.1C4,20.1,3.4,19.9,3.1,20.1z"
				/>
			<path class="st6" d="M5.3,20.1c-0.3,0.2,0.2,1.7,0,2.2c0,0,0,0,0,0c0,0,1.1,0,1.1,0c0-0.3,0-0.9,0-1.4c0,0,0-0.7,0-0.7
				C6.2,20.1,5.3,20,5.3,20.1z"/>
			<path class="st6" d="M3.1,23l0-0.4c0.3,0.1,1.1,0,1.5,0c0,0.7,0.1,1.4,0.1,2.2c-0.1,0-1.2,0-1.4,0c-0.2-0.1-0.2-1.4-0.2-1.7
				C3.1,23.2,3.1,23.1,3.1,23z"/>
			<path class="st6" d="M6.4,22.6H5.2c-0.2,0.4,0.2,1,0.1,1.6c-0.1,0.4,0.1,0.5,0.1,0.7c0.3,0,1.2,0.1,1.2-0.2
				C6.6,24.2,6.4,23.3,6.4,22.6z"/>
		</g>
		<g>
			<path class="st2" d="M11.3,19.5H9.3c-0.1,0.3,0.2,5.8,0.2,5.8c0.8,0.1,3.3,0,4.3,0c0-1.3,0.2-2.7,0-4c-0.1-0.5-0.1-1.3-0.1-1.8
				C13.4,19.5,11.4,19.5,11.3,19.5z"/>
			<path class="st6" d="M9.9,19.9c-0.2,0.2,0.1,1.8,0.1,2.2c0.1,0,1.4-0.1,1.5-0.1c0.2-0.5,0-1.6,0-2.1
				C10.8,19.9,10.1,19.7,9.9,19.9z"/>
			<path class="st6" d="M12,19.9c-0.3,0.2,0.2,1.7,0,2.2c0,0,0,0,0,0c0,0,1.1,0,1.1-0.1c0-0.3,0-0.9,0-1.4c0,0,0-0.7,0-0.7
				C12.9,19.9,12.1,19.9,12,19.9z"/>
			<path class="st6" d="M9.9,22.9l0-0.4c0.3,0.1,1.1,0,1.5,0c0,0.7,0.1,1.4,0.1,2.2c-0.1,0-1.2,0-1.4,0c-0.2-0.1-0.2-1.4-0.2-1.7
				C9.9,23,9.9,22.9,9.9,22.9z"/>
			<path class="st6" d="M13.2,22.4h-1.2c-0.2,0.4,0.2,1,0.1,1.6c-0.1,0.4,0.1,0.5,0.1,0.7c0.3,0,1.2,0.1,1.2-0.2
				C13.4,24,13.2,23.1,13.2,22.4z"/>
		</g>
		<g>
			<path class="st2" d="M18.2,19.3h-2.1c-0.1,0.3,0.2,5.8,0.2,5.8c0.8,0.1,3.3,0,4.3,0c0-1.3,0.3-2.7,0-4c-0.1-0.5-0.1-1.3-0.1-1.8
				C20.3,19.3,18.3,19.3,18.2,19.3z"/>
			<path class="st6" d="M16.7,19.8c-0.2,0.2,0.1,1.8,0.1,2.2c0.1,0,1.4-0.1,1.5-0.1c0.2-0.5,0-1.6,0-2.1
				C17.6,19.7,17,19.5,16.7,19.8z"/>
			<path class="st6" d="M18.9,19.7c-0.3,0.2,0.2,1.7,0,2.2c0,0,0,0,0,0c0,0,1.3,0,1.3-0.1c0-0.3-0.2-0.9-0.2-1.4c0,0,0-0.7,0-0.7
				C19.8,19.7,18.9,19.7,18.9,19.7z"/>
			<path class="st6" d="M16.7,22.7l0-0.4c0.3,0.1,1.1,0,1.5,0c0,0.7,0.1,1.4,0.1,2.2c-0.1,0-1.2,0-1.4,0c-0.2-0.1-0.2-1.4-0.2-1.7
				C16.7,22.8,16.7,22.7,16.7,22.7z"/>
			<path class="st6" d="M20.1,22.2l-1.3,0c-0.2,0.4,0.2,1,0.1,1.6c-0.1,0.4,0.1,0.5,0.1,0.7c0.3,0,1.2,0.1,1.2-0.1
				C20.2,23.8,20.1,22.9,20.1,22.2z"/>
		</g>
	</g>
</g>
</svg>
