<?xml version="1.0" encoding="utf-8"?>
<!-- Generator: Adobe Illustrator 24.0.3, SVG Export Plug-In . SVG Version: 6.00 Build 0)  -->
<svg version="1.1" id="Layer_1" xmlns="http://www.w3.org/2000/svg" xmlns:xlink="http://www.w3.org/1999/xlink" x="0px" y="0px"
	 viewBox="0 0 45.3 43.9" style="enable-background:new 0 0 45.3 43.9;" xml:space="preserve">
<style type="text/css">
	.st0{fill:#ED1D60;}
</style>
<g>
	<path class="st0" d="M2.2,21.9c-1,0.5,20.2,12.2,19.5,12.7C20.6,35.3,0.4,16.9,0,17.5c-0.8,1.1,13.5-3.8,14.8-3.6
		c0.7,0.1,2.3,26.8,3.5,26.5c0.8-0.2,8.7-23.4,9.8-23.7c-0.4,1-24.4,8.7-24.5,9.5c-0.3,1.2,27.3,2.7,27.4,3.4
		c0.2,1.2-4.8,15.1-3.7,14.3c0.6-0.4-18.4-19.9-17.7-21c0.5-0.7,12.6,19.8,13.1,18.8c0.5,1,12.6-19.5,13.1-18.8
		c0.7,1-18.3,20.6-17.7,21c1.1,0.7-4-13.1-3.7-14.3c0.1-0.7,27.7-2.2,27.4-3.4c-0.2-0.8-24.2-8.5-24.5-9.5c1,0.4,9,23.6,9.8,23.8
		c1.2,0.3,2.8-26.4,3.5-26.5c1.3-0.2,15.6,4.7,14.8,3.6c-0.4-0.6-20.6,17.8-21.7,17.1C23,34.2,44.1,22.4,43.1,21.9
		c1-0.5-20.2-12.2-19.5-12.7c1-0.7,21.3,17.7,21.7,17.1c0.8-1.1-13.5,3.8-14.8,3.6C29.8,29.9,28.2,3.2,27,3.5
		c-0.8,0.2-8.7,23.4-9.8,23.7c0.4-1,24.4-8.7,24.5-9.5c0.3-1.2-27.3-2.7-27.4-3.4C14.1,13.1,19.2-0.7,18.1,0
		C17.5,0.4,36.5,20,35.8,21C35.3,21.7,23.2,1.2,22.7,2.2C22.2,1.2,10,21.7,9.6,21C8.9,20,27.8,0.4,27.3,0c-1.1-0.7,4,13.1,3.7,14.3
		C30.9,15,3.3,16.5,3.6,17.7c0.2,0.8,24.2,8.5,24.5,9.5c-1-0.4-9-23.6-9.8-23.8c-1.2-0.3-2.8,26.4-3.5,26.5
		C13.6,30.2-0.7,25.3,0,26.4C0.4,26.9,20.6,8.6,21.7,9.3C22.4,9.7,1.2,21.4,2.2,21.9z"/>
	<path class="st0" d="M8.2,7.9c-1.1-0.3,5.3,22.4,4.5,22.3c-1.2-0.2-2.1-27-2.8-26.9C8.6,3.5,22.3,9.9,23,10.9
		C23.4,11.4,5,31.4,6.1,32c0.7,0.4,23.3-10.5,24.3-10.1c-1,0.5-23.6-10.5-24.3-10.1C5,12.5,23.4,32.4,23,33
		c-0.7,1-14.4,7.3-13.1,7.6c0.7,0.1,1.6-26.7,2.8-26.9c0.8-0.2-5.6,22.6-4.5,22.3c-0.4,1,23.2-5.2,23-4.4c-0.2,1.2-27.9,2-27.8,2.7
		c0.2,1.3,6.8-12,7.8-12.7C11.8,21.2,32.4,39,33.1,38c0.5-0.7-10.9-22.5-10.4-23.5c0.5,1-10.9,22.8-10.4,23.5
		c0.7,1,21.3-16.8,21.9-16.4c1.1,0.7,7.6,14,7.8,12.7c0.1-0.7-27.6-1.5-27.8-2.7c-0.2-0.8,23.4,5.4,23,4.4
		c1.1,0.3-5.3-22.4-4.5-22.3c1.2,0.2,2.1,27,2.8,26.9c1.3-0.2-12.4-6.5-13.1-7.6c-0.4-0.6,18-20.5,16.9-21.2
		C38.5,11.4,16,22.4,15,21.9c1-0.5,23.6,10.5,24.3,10.1c1.1-0.7-17.3-20.6-16.9-21.2c0.7-1,14.4-7.3,13.1-7.6
		c-0.7-0.1-1.6,26.7-2.8,26.9c-0.8,0.2,5.6-22.6,4.5-22.3c0.4-1-23.2,5.2-23,4.4c0.2-1.2,27.9-2,27.8-2.7c-0.2-1.3-6.8,12-7.8,12.7
		C33.5,22.7,12.9,4.9,12.2,5.9c-0.5,0.7,10.9,22.5,10.4,23.5c-0.5-1,10.9-22.8,10.4-23.5c-0.7-1-21.3,16.8-21.9,16.4
		c-1.1-0.7-7.6-14-7.8-12.7c-0.1,0.7,27.6,1.5,27.8,2.7C31.4,13.1,7.9,6.9,8.2,7.9z"/>
</g>
</svg>
