<?xml version="1.0" encoding="utf-8"?>
<!-- Generator: Adobe Illustrator 24.0.3, SVG Export Plug-In . SVG Version: 6.00 Build 0)  -->
<svg version="1.1" id="Layer_1" xmlns="http://www.w3.org/2000/svg" xmlns:xlink="http://www.w3.org/1999/xlink" x="0px" y="0px"
	 viewBox="0 0 70 67.9" style="enable-background:new 0 0 70 67.9;" xml:space="preserve">
<style type="text/css">
	.st0{fill:#ED1D60;}
</style>
<g>
	<polygon class="st0" points="55.7,26.9 43.4,24.4 43.3,24.3 43.3,24.3 39.2,12.4 31,21.8 30.8,21.8 30.7,21.9 18.5,19.5 22.5,31.2 
		22.4,31.3 22.5,31.6 14.2,41 26.5,43.4 26.5,43.4 26.7,43.5 30.7,55.4 39.1,45.9 51.5,48.4 47.4,36.4 	"/>
	<polygon class="st0" points="19.6,11.7 26.2,13 19.1,15.1 29.3,17.1 36.7,10 29.2,12.1 34.1,7.5 	"/>
	<polygon class="st0" points="20.1,8.3 26.7,9.6 31.5,5 	"/>
	<polygon class="st0" points="20.6,4.9 25.4,5.9 28.9,2.5 	"/>
	<polygon class="st0" points="26.3,0 21.1,1.5 24.1,2.1 	"/>
	<polygon class="st0" points="8.1,36.1 12.5,31.1 10.8,38.3 17.5,30.5 15.1,20.5 13.2,28 11.6,21.5 	"/>
	<polygon class="st0" points="8.2,22.5 5.4,34 9.8,29 	"/>
	<polygon class="st0" points="4.7,23.5 2.7,31.9 5.9,28.2 	"/>
	<polygon class="st0" points="1.3,24.5 0,29.7 2,27.4 	"/>
	<polygon class="st0" points="26.6,57.1 23.3,47.3 13.4,44.5 19,49.8 12.5,48 23.4,58.4 21.2,52 	"/>
	<polygon class="st0" points="11.6,51.4 20.2,59.6 18.1,53.3 	"/>
	<polygon class="st0" points="10.8,54.9 17,60.9 15.5,56.3 	"/>
	<polygon class="st0" points="9.9,58.4 13.8,62.1 12.9,59.2 	"/>
	<polygon class="st0" points="50.3,56.2 43.7,54.9 50.8,52.8 40.7,50.8 33.3,57.9 40.7,55.7 35.9,60.4 	"/>
	<polygon class="st0" points="49.8,59.6 43.3,58.3 38.5,62.9 	"/>
	<polygon class="st0" points="49.3,63 44.5,62 41,65.4 	"/>
	<polygon class="st0" points="43.6,67.9 48.8,66.4 45.8,65.8 	"/>
	<polygon class="st0" points="61.9,31.8 57.5,36.8 59.2,29.6 52.4,37.4 54.9,47.4 56.7,39.9 58.4,46.4 	"/>
	<polygon class="st0" points="64.6,33.9 60.2,38.9 61.8,45.4 	"/>
	<polygon class="st0" points="67.3,36 64.1,39.7 65.3,44.4 	"/>
	<polygon class="st0" points="70,38.2 68,40.5 68.7,43.4 	"/>
	<polygon class="st0" points="43.4,10.8 46.7,20.6 56.6,23.4 51,18.1 57.5,19.9 46.5,9.5 48.7,15.9 	"/>
	<polygon class="st0" points="58.3,16.4 49.7,8.3 51.9,14.6 	"/>
	<polygon class="st0" points="59.2,13 52.9,7 54.5,11.6 	"/>
	<polygon class="st0" points="60.1,9.5 56.1,5.8 57.1,8.6 	"/>
</g>
</svg>
