<?xml version="1.0" encoding="utf-8"?>
<!-- Generator: Adobe Illustrator 24.0.3, SVG Export Plug-In . SVG Version: 6.00 Build 0)  -->
<svg version="1.1" id="Layer_1" xmlns="http://www.w3.org/2000/svg" xmlns:xlink="http://www.w3.org/1999/xlink" x="0px" y="0px"
	 viewBox="0 0 85.2 96.5" style="enable-background:new 0 0 85.2 96.5;" xml:space="preserve">
<style type="text/css">
	.st0{fill:#ED1D60;}
</style>
<path class="st0" d="M42.6,45.8c0-65.9,4.3-56.2,0.2,0.4c4.1-56.5,8.4-46.8,0.2,0.4C51.1-0.7,55.4,9,43,46.8
	C55.4,9,59.7,18.7,43.2,47.2c16.5-28.5,27-29.7,0.4,0c26.6-29.6,37.1-30.8,0.4,0c36.7-30.7,47.3-31.9,0.4,0c46.9-31.8,57.4-33,0.4,0
	c57-32.9,50.8-24.4-0.2,0.3c51-24.7,44.8-16.2-0.2,0.3C89.3,31.2,83,39.7,44,48c39-8.2,32.7,0.3-0.2,0.3c32.9,0,39.2,8.5,0.2,0.3
	c39,8.2,45.2,16.8,0.2,0.3c45,16.5,51.2,25,0.2,0.3c51,24.7,57.3,33.2,0.2,0.3c57,32.9,46.5,31.8-0.4,0c46.9,31.8,36.4,30.7-0.4,0
	c36.7,30.7,26.2,29.6-0.4,0c26.6,29.6,16.1,28.5-0.4,0c16.5,28.5,12.2,38.2-0.2,0.4c12.3,37.9,8.1,47.5-0.2,0.4
	c8.2,47.2,4,56.9-0.2,0.4c4.1,56.5-0.2,66.2-0.2,0.4c0,65.9-4.3,56.2-0.2-0.4c-4.1,56.5-8.4,46.8-0.2-0.4
	c-8.2,47.2-12.5,37.5-0.2-0.4C29.8,87.5,25.5,77.9,42,49.3c-16.5,28.5-27,29.7-0.4,0C15,79,4.5,80.1,41.2,49.4
	c-36.7,30.7-47.3,31.9-0.4,0c-46.9,31.8-57.4,33-0.4,0c-57,32.9-50.8,24.4,0.2-0.3c-51,24.7-44.8,16.2,0.2-0.3
	c-45,16.5-38.7,7.9,0.2-0.3c-39,8.2-32.7-0.3,0.2-0.3c-32.9,0-39.2-8.5-0.2-0.3c-39-8.2-45.2-16.8-0.2-0.3c-45-16.5-51.2-25-0.2-0.3
	c-51-24.7-57.3-33.2-0.2-0.3c-57-32.9-46.5-31.8,0.4,0c-46.9-31.8-36.4-30.7,0.4,0c-36.7-30.7-26.2-29.6,0.4,0
	C15,17.5,25.5,18.7,42,47.2C25.5,18.7,29.8,9,42.1,46.8C29.8,9,34-0.7,42.3,46.5c-8.2-47.2-4-56.9,0.2-0.4
	C38.3-10.4,42.6-20.1,42.6,45.8z"/>
</svg>
