<?xml version="1.0" encoding="utf-8"?>
<!-- Generator: Adobe Illustrator 24.0.3, SVG Export Plug-In . SVG Version: 6.00 Build 0)  -->
<svg version="1.1" id="Layer_1" xmlns="http://www.w3.org/2000/svg" xmlns:xlink="http://www.w3.org/1999/xlink" x="0px" y="0px"
	 viewBox="0 0 48.9 48.8" style="enable-background:new 0 0 48.9 48.8;" xml:space="preserve">
<style type="text/css">
	.st0{fill:#6A6363;}
	.st1{fill:#A2C2C6;}
	.st2{fill:#E24E2B;}
	.st3{fill:#F9C2AB;}
	.st4{fill:#FFFFFF;}
	.st5{fill:#3B2E2A;}
	.st6{fill:#F6A49D;}
	.st7{fill:#A4A2A4;}
	.st8{fill:#A4351F;}
</style>
<g>
	<g>
		<rect x="17.3" y="6.5" transform="matrix(0.7402 -0.6724 0.6724 0.7402 -7.143 16.2583)" class="st0" width="0.4" height="21.8"/>
	</g>
	<path class="st1" d="M7.1,46.9c0,0,2.6,3,8.2,1.6C20.2,47.2,48.9,36,48.9,36L47,34.8c0,0-31.6,11.3-32.9,11.6
		C12.6,46.9,9.7,47.5,7.1,46.9z"/>
	<path class="st1" d="M0,42.4c0,0,2.6,3,8.2,1.6c5-1.3,33.6-12.5,33.6-12.5l-1.9-1.2c0,0-31.6,11.3-32.9,11.6
		C5.6,42.4,2.6,43,0,42.4z"/>
	<path class="st2" d="M32.7,37.1c0,0-6.6-5-6-9.5c0.7-5.9,6.6-7.9,6.6-7.9l8-2.3c0,0,1.2,6.7-10.4,11.5l3.2,7.7L32.7,37.1z"/>
	<path class="st2" d="M20.3,16l1.1,2.4c0,0,6.5,2.4,9.4-1.2c3.3-4-2.6-9.1-2.6-9.1l-3.3,1.6l2.6,4.5L20.3,16z"/>
	<path class="st2" d="M12.7,11.2l-0.9-1.8c0,0,4.6-5.7,9-4c4.8,1.8,4.8,8,4.8,8l-3.7,0.2l-2.5-4.3L12.7,11.2z"/>
	<path class="st2" d="M26.6,18.9c0,0-7.5-4.7-7-11.1c0.3-4.2,7.8-5.2,17.1,4.9l9.2,4.1c0,0-2.6,7.7-12.8,8c-6.2,0.1-9.1-2.7-9.1-2.7
		L26.6,18.9z"/>
	<path class="st2" d="M24.7,33.7c0,0-4.5-5.4-3.8-8.9c0.8-4.4,7.7-6.2,7.7-6.2l4.7,4.7L24,26.6l1.9,6.8L24.7,33.7z"/>
	<g>
		<ellipse transform="matrix(0.2393 -0.9709 0.9709 0.2393 10.3247 23.0886)" class="st3" cx="19.9" cy="5" rx="2.1" ry="2.5"/>
		<path class="st4" d="M18.2,5.1c0,0-2,2,0.2,4.2c3.2,3.1,9.9,1.5,13-2c-2.1,0.2-4.1,0.3-6.5-0.2c-1.1-0.2-2.3-0.7-3.3-1.2L18.2,5.1
			z"/>
		<g>
			<path class="st2" d="M21.5,0.2c3.7-1,6.6,2.9,9.8,3c-3,2.4-7.7,1-8.7,1.6c-0.6-0.5-1.5-0.7-2.2-1C18.7,3.3,18,3.4,18,3.4
				C18.1,3.2,18.6,0.9,21.5,0.2z"/>
			<path class="st4" d="M17.8,3.8c0,0-0.1-0.5,0.2-0.8c0,0,0.8-0.5,2.5,0.1c0.9,0.3,1.7,0.9,2.2,1.6c0,0-0.1,0.4-0.3,0.7
				C22.4,5.3,20.1,3.5,17.8,3.8z"/>
		</g>
		<path class="st5" d="M18.9,5.8c0,0,0.2,0.6,1,0.3c0,0-0.3,0.5-0.7,0.4C18.8,6.3,18.9,5.8,18.9,5.8z"/>
		<path class="st5" d="M19,4.3c0,0-0.3-0.4-0.7-0.4c0,0,0.3-0.2,0.5,0C19.1,4.1,19,4.3,19,4.3z"/>
		<path class="st5" d="M20.5,4.9c0,0,0.4-0.3,0.8-0.1c0,0-0.2-0.3-0.5-0.2C20.6,4.6,20.5,4.9,20.5,4.9z"/>
		<circle class="st2" cx="31.6" cy="2.6" r="0.8"/>
		<path class="st4" d="M20,5.2c0.8-0.1,1.6,0.2,2.3,0.5c0.4,0.2,0.9,0.4,1.4,0.3c-0.3,0.3-0.9,1-2.4,0.8c-0.7-0.1-1.3-0.9-1.6-1.4
			L20,5.2z"/>
		<path class="st4" d="M19.2,4.9c-0.4-0.3-0.9-0.4-1.4-0.4s-1.1-0.1-1.5-0.4c-0.1,1.2,1,1.7,1.7,1.7c0.5,0,0.9-0.2,1.3-0.5L19.2,4.9
			z"/>
		<ellipse class="st6" cx="19.6" cy="5" rx="0.8" ry="0.8"/>
		<path class="st7" d="M20.1,6.1c0,0,0.9,1.2,2.5,0.7c0,0-0.5,0.5-1.3,0.3C20.4,6.8,20.1,6.1,20.1,6.1z"/>
		<path class="st7" d="M18.8,5.6c0,0-0.6,0.5-1.8-0.1c0,0,0.4,0.4,1,0.5C18.5,6,18.8,5.6,18.8,5.6z"/>
	</g>
	<path class="st8" d="M27.4,18.9C27.4,18.9,27.5,18.9,27.4,18.9c0.1,0,0.1,0,0.1,0c0.1,0,0.2-0.1,0.3-0.1c0.1,0,0.3-0.1,0.5-0.2
		s0.4-0.2,0.7-0.3c0.2-0.1,0.5-0.2,0.7-0.4c0.3-0.2,0.5-0.3,0.7-0.6c0.2-0.2,0.5-0.5,0.7-0.7s0.4-0.6,0.5-0.9c0-0.1,0.1-0.2,0.1-0.2
		v-0.1v-0.1l0,0l0,0l0,0l0,0l0,0v-0.1v-0.1c0-0.1,0-0.2,0-0.2c0-0.3,0.1-0.7,0-1c0-0.3-0.1-0.6-0.2-0.9s-0.2-0.5-0.3-0.7
		c-0.1-0.2-0.3-0.4-0.4-0.6c-0.1-0.2-0.3-0.3-0.4-0.4c-0.1-0.1-0.2-0.2-0.3-0.2c0,0-0.1,0-0.1-0.1l0,0l0,0v-0.1h0.1l0,0
		c0,0,0,0,0.1,0.1s0.2,0.1,0.3,0.2c0.1,0.1,0.3,0.2,0.4,0.4s0.3,0.4,0.4,0.6c0,0.1,0.1,0.1,0.1,0.2s0.1,0.1,0.1,0.2
		c0,0.1,0.1,0.1,0.1,0.2v0.1c0,0,0,0,0,0.1c0,0,0,0,0,0.1c0.1,0.3,0.2,0.6,0.2,1c0,0.3,0,0.7,0,1c0,0.1,0,0.2,0,0.3v0.1v0.1l0,0l0,0
		l0,0l0,0l0,0v0.1v0.1c0,0.1-0.1,0.2-0.1,0.3c-0.1,0.3-0.3,0.7-0.5,0.9c-0.2,0.3-0.5,0.5-0.7,0.8c-0.3,0.2-0.5,0.4-0.8,0.6
		s-0.5,0.3-0.8,0.4c-0.2,0.1-0.5,0.2-0.7,0.2c-0.2,0.1-0.4,0.1-0.5,0.1c-0.2,0-0.3,0.1-0.4,0.1C27.5,19,27.5,19,27.4,18.9
		C27.5,19,27.5,19,27.4,18.9C27.4,19,27.4,19,27.4,18.9C27.4,19,27.4,18.9,27.4,18.9L27.4,18.9z"/>
	<path class="st8" d="M22.7,15.3c0,0,0.1,0,0.2-0.1c0.1,0,0.1,0,0.2-0.1c0.1,0,0.1-0.1,0.2-0.1s0.2-0.1,0.3-0.1
		c0.1,0,0.2-0.1,0.3-0.1c0.2-0.1,0.4-0.1,0.7-0.2c0.2-0.1,0.5-0.1,0.7-0.2c0.1,0,0.2-0.1,0.3-0.1c0.1,0,0.2,0,0.3-0.1
		c0.1,0,0.2,0,0.2-0.1c0.1,0,0.1,0,0.2,0s0.2,0,0.2,0l0,0l0,0c0,0-0.1,0-0.2,0.1c-0.1,0-0.1,0-0.2,0.1c-0.1,0-0.1,0.1-0.2,0.1
		s-0.2,0.1-0.3,0.1c-0.1,0-0.2,0.1-0.3,0.1c-0.2,0.1-0.4,0.1-0.7,0.2c-0.2,0.1-0.5,0.1-0.7,0.2c-0.1,0-0.2,0.1-0.3,0.1
		c-0.1,0-0.2,0-0.3,0.1c-0.1,0-0.2,0-0.2,0.1s-0.1,0-0.2,0C22.8,15.4,22.7,15.4,22.7,15.3C22.7,15.4,22.7,15.4,22.7,15.3L22.7,15.3z
		"/>
	<path class="st0" d="M30.4,41.9c0.5,0.6,3.8-2.3,3.8-2.3l0.3,0.6l1.4-0.5c0,0-0.8-2.7-1.9-4l-2.3,0.9l1.2,2.2
		C33,38.8,30.1,41.5,30.4,41.9z"/>
	<path class="st0" d="M22.4,37.9c0.5,0.6,3.5-2,3.5-2l0.1,0.7l1.6-0.6c0,0-0.5-1.9-1.5-3.4l-2,0.8l0.6,1.6
		C24.7,34.9,22.1,37.5,22.4,37.9z"/>
	<g>
		
			<rect x="30.6" y="10.5" transform="matrix(0.7438 -0.6684 0.6684 0.7438 -11.9879 28.2322)" class="st0" width="0.4" height="38.6"/>
		<path class="st0" d="M41.2,44.6c-0.2,0-0.3-0.1-0.4-0.2c-0.1-0.1-0.2-0.4,0.1-1c0.2-0.4,0.6-0.8,1-1.2s0.9-0.7,1.3-0.8
			c0.6-0.2,0.8-0.1,1,0l0,0c0.1,0.1,0.2,0.4-0.1,1c-0.2,0.4-0.6,0.8-1,1.2c-0.4,0.4-0.9,0.7-1.3,0.8C41.5,44.6,41.3,44.6,41.2,44.6z
			 M43.8,41.7c-0.1,0-0.3,0-0.5,0.1c-0.4,0.1-0.8,0.4-1.2,0.8c-0.4,0.4-0.7,0.7-1,1.1c-0.2,0.3-0.2,0.5-0.2,0.6
			c0.1,0.1,0.3,0.1,0.6-0.1c0.5-0.2,1-0.5,1.4-0.8c0.4-0.4,0.7-0.7,1-1.1c0.2-0.3,0.2-0.5,0.2-0.6l0,0
			C43.9,41.7,43.9,41.7,43.8,41.7z"/>
	</g>
	<path class="st4" d="M22.4,16.6c0.5,1.3-0.2,2.4-0.8,2.4c-0.6-0.1-1-0.8-1.3-1.6c-0.3-0.8-0.5-1.6,0-2.1
		C20.7,14.9,21.9,15.4,22.4,16.6z"/>
	<path class="st4" d="M13.9,9.3C13.3,8,12,7.7,11.7,8.2c-0.4,0.5-0.1,1.3,0.2,2.1c0.4,0.8,0.8,1.5,1.5,1.5
		C13.9,11.8,14.5,10.6,13.9,9.3z"/>
	<g>
		<ellipse transform="matrix(0.9637 -0.2668 0.2668 0.9637 -2.4149 3.5017)" class="st2" cx="11.7" cy="10.6" rx="1.2" ry="1.6"/>
	</g>
	<g>
		<ellipse transform="matrix(0.8934 -0.4493 0.4493 0.8934 -5.6472 10.7376)" class="st2" cx="19.8" cy="17.3" rx="1.3" ry="1.7"/>
	</g>
</g>
</svg>
