<?xml version="1.0" encoding="utf-8"?>
<!-- Generator: Adobe Illustrator 24.0.3, SVG Export Plug-In . SVG Version: 6.00 Build 0)  -->
<svg version="1.1" id="Layer_1" xmlns="http://www.w3.org/2000/svg" xmlns:xlink="http://www.w3.org/1999/xlink" x="0px" y="0px"
	 viewBox="0 0 70.6 70" style="enable-background:new 0 0 70.6 70;" xml:space="preserve">
<style type="text/css">
	.st0{fill-rule:evenodd;clip-rule:evenodd;fill:#FFFDFA;}
	.st1{fill-rule:evenodd;clip-rule:evenodd;fill:#E4E1E2;}
</style>
<g>
	<path class="st0" d="M69.3,30.5c-0.8,4.7,1.2,14.2,1.2,14.2C68.2,45.3,51.4,38,49.5,36c-4.1,0.8-9,8.4-12,8.8
		c-0.3-1.6-11.2-5.4-12.4-7c-3.2-4-15.9,9.8-25,11.7c0-1.4,0.1-2.8,0.2-4.3c10.4-19.8,15.5-29,25.4-37.8c5.5-4.9,10-9.9,18.2-6.3
		C54.5,5.9,62.3,18.1,69.3,30.5z"/>
	<g>
		<path class="st1" d="M69.2,31.6c0,0.3,0,0.7,0,1.1c-0.2,0.1-0.5,0.1-0.7,0c-0.3-0.2-0.5-0.6-0.3-0.9
			C68.3,31.6,68.8,31.5,69.2,31.6L69.2,31.6L69.2,31.6z M52.4,29.4c-0.4,0-0.7,0.3-0.7,0.6c0,0.4,0.4,0.6,0.8,0.6
			c0.4-0.1,0.7-0.4,0.7-0.7C53.1,29.6,52.8,29.4,52.4,29.4L52.4,29.4z M61.1,26.4c-0.4,0.1-0.7,0.3-0.7,0.7c0.1,0.3,0.4,0.6,0.8,0.5
			c0.4,0,0.7-0.3,0.7-0.7C61.9,26.6,61.5,26.4,61.1,26.4z"/>
		<g>
			<g>
				<path class="st1" d="M67,44c-0.4-0.1-0.9-0.3-1.4-0.5c0,0,0.1-0.1,0.1-0.1c0.3-0.2,0.7-0.2,1,0C67,43.6,67,43.8,67,44L67,44z
					 M15.2,19.2c0.1-0.2,0.2-0.3,0.4-0.5c0,0.2-0.1,0.3-0.2,0.4C15.3,19.2,15.2,19.2,15.2,19.2L15.2,19.2z M31.5,2.5
					c0.3-0.2,0.6-0.4,0.9-0.6c0,0,0.1,0,0.1,0c0.3,0.1,0.5,0.5,0.4,0.8c-0.2,0.3-0.6,0.5-0.9,0.3C31.7,3,31.5,2.7,31.5,2.5L31.5,2.5
					z M33.4,1.4c0.4-0.2,0.8-0.4,1.2-0.6l0,0v0c0.3-0.1,0.7-0.3,1-0.4c0.2,0.2,0.3,0.5,0.2,0.8c-0.3,0.3-0.7,0.4-1.1,0.2
					c-0.1-0.1-0.1-0.2-0.1-0.4c0,0.2,0,0.5-0.3,0.6C33.9,1.8,33.5,1.6,33.4,1.4L33.4,1.4z M38.8,0c0.4,0,0.9,0.1,1.3,0.1
					c0,0-0.1,0.1-0.1,0.1c-0.3,0.2-0.7,0.2-1,0C38.9,0.2,38.9,0.1,38.8,0L38.8,0z M32.3,21.5c0.3,0.2,0.8,0.3,1.1,0.1
					c0.3-0.2,0.3-0.6,0.1-0.9c-0.3-0.2-0.8-0.3-1,0C32,20.9,32,21.3,32.3,21.5L32.3,21.5z M42.6,27.4c-0.3,0.2-0.3,0.6-0.1,0.9
					c0.3,0.2,0.8,0.2,1,0c0.3-0.3,0.4-0.6,0.1-0.9C43.4,27.2,42.9,27.2,42.6,27.4L42.6,27.4z M25.3,21.1c0.1-0.3-0.2-0.6-0.6-0.7
					c-0.3-0.1-0.8,0.2-0.8,0.5c0,0.3,0.2,0.7,0.6,0.7C24.8,21.7,25.3,21.5,25.3,21.1L25.3,21.1z M39.8,10.8
					c-0.1,0.3,0.2,0.6,0.6,0.7c0.4,0.1,0.8-0.2,0.8-0.5c0.1-0.3-0.2-0.6-0.6-0.7C40.3,10.3,39.9,10.5,39.8,10.8L39.8,10.8z
					 M30.1,22.5c0.2-0.1,0.4,0,0.5-0.2c0.1-0.3,0-0.7-0.4-0.8c-0.4-0.1-0.9,0-1,0.3c-0.1,0.3,0,0.7,0.4,0.8
					C29.8,22.6,29.9,22.5,30.1,22.5c-0.4-0.1-0.8,0.1-0.8,0.5c-0.1,0.3,0.2,0.6,0.6,0.7c0.4,0.1,0.8-0.2,0.8-0.5
					C30.8,22.8,30.5,22.5,30.1,22.5L30.1,22.5z M39.3,28.9c-0.4-0.1-0.8,0-0.9,0.3c-0.2,0.3,0,0.7,0.4,0.8c0.4,0.1,0.8-0.1,1-0.4
					C39.9,29.4,39.7,29,39.3,28.9L39.3,28.9z M35.3,13.2c-0.2-0.3-0.6-0.5-0.9-0.4c-0.4,0.1-0.6,0.5-0.5,0.8c0.2,0.3,0.6,0.5,1,0.4
					C35.2,13.9,35.4,13.5,35.3,13.2L35.3,13.2z M22.7,11.8c-0.2,0.3-0.1,0.7,0.2,0.9c0.3,0.2,0.8,0,1-0.2c0.3-0.3,0.1-0.7-0.2-0.8
					C23.3,11.5,22.8,11.6,22.7,11.8L22.7,11.8z M58,18c0.1-0.3,0-0.7-0.3-0.8c-0.3-0.1-0.6,0-0.8,0.2c-0.1-0.1-0.1-0.2-0.2-0.3
					c-0.4,0-0.8,0.2-0.9,0.5c-0.1,0.3,0.2,0.6,0.6,0.7c0.3,0,0.4-0.2,0.5-0.3c0.1,0.1-0.1,0.2,0.1,0.2C57.3,18.3,57.7,18.2,58,18
					L58,18z M57.9,24.7c-0.2,0.3-0.1,0.7,0.2,0.8c0.3,0.2,0.8,0.1,1-0.2c0.2-0.3,0.1-0.7-0.2-0.8C58.5,24.3,58,24.4,57.9,24.7
					L57.9,24.7z M38,1.4c-0.3-0.2-0.8-0.1-1,0.2c-0.2,0.3-0.1,0.7,0.2,0.8c0.4,0.2,0.8,0.1,1.1-0.2C38.5,2,38.3,1.6,38,1.4L38,1.4z
					 M56.8,18.5c0.3,0.2,0.4,0.6,0.3,0.8c-0.2,0.3-0.6,0.4-1,0.2c-0.3-0.2-0.5-0.5-0.2-0.8C56.1,18.4,56.5,18.3,56.8,18.5L56.8,18.5
					z M35.7,26.6c-0.4,0-0.7,0.3-0.7,0.6c0,0.3,0.3,0.6,0.7,0.6c0.5,0,0.8-0.3,0.8-0.6C36.4,26.9,36.1,26.6,35.7,26.6L35.7,26.6z
					 M47.7,9.1c0-0.3-0.3-0.6-0.7-0.6c-0.5,0-0.8,0.3-0.8,0.6c0,0.3,0.3,0.6,0.7,0.6C47.4,9.7,47.7,9.5,47.7,9.1L47.7,9.1z
					 M35.9,31.3c-0.4,0-0.7,0.2-0.7,0.6c0,0.3,0.3,0.6,0.7,0.6c0.5,0,0.8-0.3,0.8-0.6C36.7,31.5,36.3,31.3,35.9,31.3L35.9,31.3z
					 M43.3,2.6c-0.4,0-0.7,0.3-0.8,0.6c0,0.3,0.3,0.6,0.7,0.6c0.4,0,0.7-0.3,0.8-0.6C44,2.9,43.7,2.6,43.3,2.6L43.3,2.6z M25.8,24.1
					c-0.4-0.1-0.9,0-1,0.3c-0.1,0.3,0.1,0.7,0.4,0.8c0.4,0.1,0.8,0,0.9-0.3C26.3,24.6,26.2,24.2,25.8,24.1L25.8,24.1z M62.9,25.6
					c-0.4-0.1-0.8,0-1,0.4c-0.1,0.3,0.1,0.7,0.4,0.8c0.4,0.1,0.8,0,0.9-0.3C63.4,26.1,63.3,25.7,62.9,25.6L62.9,25.6z M38.3,8.9
					c-0.4-0.1-0.8,0-0.9,0.3c-0.2,0.3,0,0.7,0.4,0.8c0.4,0.1,0.8,0,1-0.4C38.9,9.4,38.7,9.1,38.3,8.9L38.3,8.9z M21.7,13.7
					c-0.4-0.2-0.8,0-1,0.3c-0.1,0.3,0,0.6,0.4,0.8c0.4,0.1,0.8,0,0.9-0.3C22.2,14.2,22.1,13.9,21.7,13.7L21.7,13.7z M53.4,13.7
					c-0.1-0.3-0.5-0.5-0.9-0.4c-0.3,0.1-0.6,0.4-0.5,0.7c0.1,0.3,0.5,0.5,0.9,0.4C53.3,14.4,53.6,14.1,53.4,13.7L53.4,13.7z
					 M27.3,17.5c0-0.3-0.4-0.6-0.8-0.6c-0.4,0-0.7,0.3-0.7,0.7c0,0.3,0.4,0.6,0.8,0.6C27,18.1,27.3,17.9,27.3,17.5L27.3,17.5z
					 M61.8,27.7c0.1-0.1,0.3-0.2,0.2-0.3c-0.2-0.3-0.6-0.5-1-0.4c-0.3,0.1-0.6,0.4-0.4,0.8c0.2,0.3,0.6,0.5,1,0.4
					c0.1-0.1,0.1-0.2,0.1-0.2c0.1,0.3,0.4,0.5,0.7,0.5c0.4,0,0.7-0.3,0.7-0.6c0-0.4-0.4-0.6-0.8-0.6C62,27.2,61.9,27.4,61.8,27.7
					L61.8,27.7z M42.6,17.6c0,0.4,0.3,0.6,0.8,0.6c0.4,0,0.7-0.3,0.7-0.7c0-0.3-0.4-0.6-0.8-0.6C42.9,16.9,42.6,17.2,42.6,17.6
					L42.6,17.6z M39.8,31c-0.3-0.2-0.8-0.3-1,0c-0.3,0.3-0.4,0.7-0.1,0.9c0.3,0.2,0.8,0.2,1,0C40.1,31.6,40.1,31.2,39.8,31L39.8,31z
					 M51.6,21.7c0,0.3,0.3,0.6,0.7,0.7c0.4,0.1,0.8-0.2,0.8-0.5c0-0.3-0.3-0.6-0.7-0.7C52,21.2,51.7,21.4,51.6,21.7L51.6,21.7z
					 M36.9,15.1c0,0.3,0.3,0.6,0.7,0.7c0.4,0,0.8-0.2,0.8-0.6c0.1-0.4-0.3-0.6-0.7-0.7C37.3,14.5,37,14.7,36.9,15.1L36.9,15.1z
					 M38.5,15.3c-0.1,0.3,0.2,0.6,0.7,0.7c0.4,0,0.8-0.2,0.8-0.5c0-0.3-0.3-0.6-0.7-0.7C38.9,14.7,38.6,15,38.5,15.3L38.5,15.3z
					 M19.8,36.1c-0.1,0.4,0.3,0.7,0.7,0.7c0.4,0,0.7-0.2,0.8-0.5c0-0.4-0.3-0.6-0.7-0.7C20.2,35.6,19.9,35.8,19.8,36.1L19.8,36.1z
					 M41.3,13.4c-0.2-0.3-0.5-0.5-0.9-0.3c-0.4,0.2-0.5,0.5-0.3,0.8c0.2,0.3,0.6,0.5,1,0.3C41.4,14,41.5,13.6,41.3,13.4L41.3,13.4z
					 M40,39.7c0.4-0.2,0.5-0.5,0.4-0.8c-0.2-0.3-0.6-0.4-1-0.3c-0.4,0.1-0.5,0.5-0.3,0.8C39.2,39.7,39.6,39.8,40,39.7L40,39.7z
					 M29.2,26.4c-0.2-0.3-0.6-0.5-1-0.3c-0.4,0.2-0.5,0.5-0.3,0.8c0.2,0.3,0.5,0.5,0.9,0.3C29.2,27.1,29.4,26.7,29.2,26.4L29.2,26.4
					z M20.9,31.4c0.4-0.1,0.5-0.5,0.3-0.8c-0.2-0.3-0.6-0.5-0.9-0.3c-0.3,0.1-0.5,0.5-0.3,0.8C20.1,31.4,20.5,31.5,20.9,31.4
					L20.9,31.4z M59.8,21.3c-0.2-0.3-0.6-0.4-1-0.3c-0.4,0.2-0.6,0.5-0.4,0.8c0.2,0.3,0.6,0.4,1,0.3C59.7,22,59.9,21.6,59.8,21.3
					L59.8,21.3z M59.6,39c-0.4-0.1-0.8,0.1-1,0.4c-0.1,0.3,0.1,0.7,0.4,0.8c0.4,0.1,0.8-0.1,1-0.4C60.2,39.5,60,39.1,59.6,39
					L59.6,39z M68.5,34.2c-0.2-0.3-0.6-0.5-1-0.4c-0.3,0.1-0.5,0.5-0.4,0.8c0.2,0.3,0.6,0.5,0.9,0.4C68.4,34.9,68.6,34.5,68.5,34.2z
					"/>
				<path class="st1" d="M70,44.7c-0.2,0-0.5-0.1-0.8-0.1c0.2-0.1,0.3-0.1,0.5,0C69.8,44.7,69.9,44.7,70,44.7L70,44.7z M41.9,41.7
					c-0.2,0.2-0.4,0.4-0.6,0.6C41.3,42,41.6,41.7,41.9,41.7C41.9,41.7,41.9,41.7,41.9,41.7L41.9,41.7z M4.8,36.6l0.6-1.1
					c0,0,0.1,0,0.1,0c0.3,0.2,0.5,0.5,0.2,0.9C5.6,36.6,5.2,36.8,4.8,36.6L4.8,36.6z M13.1,22.2c0.2-0.3,0.4-0.7,0.6-1
					c0.2,0,0.3,0.1,0.5,0.2c0.3,0.2,0.3,0.6,0,0.8C14,22.5,13.5,22.5,13.1,22.2C13.2,22.2,13.2,22.2,13.1,22.2L13.1,22.2z M36.1,0.3
					c0.5-0.1,0.9-0.2,1.4-0.2l0,0c0,0.4-0.4,0.6-0.8,0.6C36.5,0.7,36.2,0.5,36.1,0.3L36.1,0.3z M39.8,0.1c0.5,0.1,0.9,0.1,1.4,0.3
					c0,0.1-0.1,0.3-0.2,0.4c-0.3,0.2-0.8,0.2-1,0C39.8,0.5,39.7,0.3,39.8,0.1L39.8,0.1z M43.7,1.2L43.7,1.2c0.4,0.2,0.8,0.4,1.2,0.6
					c-0.2,0.1-0.4,0.2-0.6,0.1C43.9,1.8,43.7,1.5,43.7,1.2L43.7,1.2z M45.8,2.2c0.4,0.2,0.8,0.4,1.2,0.7C46.8,3,46.6,3,46.4,3
					c-0.4,0-0.7-0.3-0.7-0.7C45.7,2.3,45.7,2.2,45.8,2.2L45.8,2.2z M49.3,4.4c0.2,0.2,0.4,0.3,0.7,0.5c-0.3,0-0.5-0.1-0.6-0.3
					C49.3,4.5,49.3,4.5,49.3,4.4L49.3,4.4z M54,8.6l0.2,0.3C54.2,8.7,54.1,8.7,54,8.6L54,8.6z M61.2,17.3l0.1,0.1
					c0,0.1,0.1,0.2,0,0.3c0,0.2-0.1,0.4-0.3,0.5c0.1,0,0.2,0,0.2,0c0.3,0.1,0.6,0.4,0.6,0.7c-0.1,0.3-0.4,0.5-0.9,0.5
					c-0.4,0-0.7-0.4-0.6-0.7c0.1-0.2,0.2-0.3,0.3-0.4l-0.1,0c-0.5,0-0.8-0.3-0.8-0.6c0-0.3,0.3-0.6,0.7-0.6
					C60.8,17.1,61,17.1,61.2,17.3L61.2,17.3z M66.5,25.7c0.2,0.4,0.4,0.7,0.6,1.1c-0.1,0.1-0.3,0.2-0.6,0.2c-0.4,0-0.7-0.3-0.7-0.6
					c-0.1,0.1-0.2,0.2-0.4,0.2c-0.3,0.1-0.7-0.1-0.9-0.4c-0.1-0.3,0.1-0.7,0.4-0.8c0.4-0.1,0.8,0,0.9,0.4c0,0.1,0.1,0.2,0.1,0.3
					C66.2,25.8,66.3,25.7,66.5,25.7L66.5,25.7z M51.4,28.3c-0.3,0.1-0.5,0.5-0.3,0.8c0.2,0.3,0.6,0.4,0.9,0.3
					c0.4-0.2,0.6-0.5,0.4-0.8C52.3,28.3,51.8,28.1,51.4,28.3L51.4,28.3z M42.8,4.8c-0.1,0.1-0.3,0.2-0.3,0.4
					c0.1-0.2,0.2-0.3,0.2-0.4C42.7,4.7,42.8,4.8,42.8,4.8L42.8,4.8z M42.4,4.3c-0.3-0.2-0.6-0.2-0.9,0c-0.3,0.2-0.3,0.6,0,0.9
					c0.3,0.2,0.8,0.2,1,0l0,0c0,0.3,0.2,0.6,0.6,0.6c0.3,0.1,0.8-0.2,0.8-0.5c0-0.3-0.1-0.5-0.4-0.6c0.1-0.1,0.3-0.2,0.3-0.3
					c0.1-0.3-0.1-0.7-0.4-0.8c-0.4-0.1-0.8,0.1-1,0.4C42.4,4.1,42.4,4.2,42.4,4.3L42.4,4.3z M32.6,38.6c0.1-0.3-0.2-0.6-0.6-0.7
					c-0.4-0.1-0.7,0.1-0.8,0.5c0,0.3,0.2,0.6,0.6,0.7C32.1,39.2,32.5,39,32.6,38.6L32.6,38.6z M31.8,24.9c0,0.3,0.2,0.6,0.6,0.7
					c0.3,0.1,0.8-0.2,0.8-0.5c0-0.3-0.2-0.6-0.6-0.7C32.3,24.4,31.8,24.6,31.8,24.9L31.8,24.9z M59.8,20.3c0-0.3-0.2-0.7-0.6-0.7
					c-0.4-0.1-0.8,0.2-0.9,0.5c0,0.3,0.2,0.6,0.6,0.7C59.4,20.8,59.8,20.6,59.8,20.3L59.8,20.3z M37.5,36.8c0.1-0.3-0.2-0.7-0.6-0.7
					c-0.1,0-0.1-0.1-0.2-0.2c-0.4-0.1-0.8,0.2-0.8,0.5c-0.1,0.3,0.2,0.7,0.6,0.7c0,0,0,0,0.1,0c0,0.1,0,0.2,0.1,0.2
					C37,37.4,37.4,37.2,37.5,36.8L37.5,36.8z M22.8,22.5c0.4,0.1,0.8-0.1,1-0.4c0.1-0.3,0-0.7-0.4-0.8c-0.4-0.1-0.8,0.1-1,0.4
					C22.3,22.1,22.5,22.4,22.8,22.5L22.8,22.5z M33.2,13.8c0.3,0.1,0.8-0.1,1-0.4c0.1-0.3,0-0.7-0.4-0.8c-0.3-0.1-0.6,0.1-0.8,0.3
					c-0.1-0.2-0.3-0.5-0.6-0.4c-0.4,0-0.7,0.3-0.7,0.7c0,0.3,0.4,0.6,0.8,0.5c0.3,0,0.4-0.3,0.5-0.5C32.9,13.4,32.9,13.7,33.2,13.8
					L33.2,13.8z M64.4,38.8c-0.4-0.1-0.8,0-1,0.4c-0.2,0.3,0,0.7,0.4,0.8c0.4,0.1,0.8-0.1,1-0.4C64.9,39.3,64.7,38.9,64.4,38.8
					L64.4,38.8z M12.5,24.6c-0.4-0.1-0.8,0-0.9,0.3c-0.2,0.3,0,0.6,0.4,0.8c0.4,0.1,0.8,0,0.9-0.3C13.1,25,12.9,24.7,12.5,24.6
					L12.5,24.6z M64,28.1c0.4,0.1,0.8,0,0.9-0.3c0.1-0.3,0-0.7-0.4-0.8c-0.4-0.1-0.8,0-0.9,0.3C63.5,27.6,63.6,28,64,28.1L64,28.1z
					 M38.6,23.5c0.4,0.1,0.8,0,0.9-0.3c0.2-0.3,0-0.7-0.4-0.8c-0.4-0.1-0.8,0.1-1,0.4C38,23,38.2,23.4,38.6,23.5L38.6,23.5z
					 M34.2,2.6c0.1,0.3,0.5,0.5,0.9,0.4c0.4-0.1,0.6-0.5,0.4-0.8c-0.1-0.3-0.6-0.5-0.9-0.4C34.2,1.9,34,2.2,34.2,2.6L34.2,2.6z
					 M22,27.9c0.2,0.3,0.6,0.5,1,0.3c0.4-0.1,0.6-0.4,0.4-0.8c-0.2-0.3-0.6-0.5-1-0.4C22.1,27.2,21.9,27.6,22,27.9L22,27.9z
					 M53.8,31.6c0.2,0.3,0.6,0.5,0.9,0.4c0.4-0.1,0.6-0.5,0.4-0.8c-0.1-0.3-0.5-0.5-0.9-0.4C53.9,31,53.7,31.3,53.8,31.6L53.8,31.6z
					 M50.4,11.1c-0.2-0.3-0.6-0.5-1-0.4c-0.3,0.1-0.5,0.5-0.4,0.8c0.2,0.3,0.6,0.5,0.9,0.4C50.3,11.8,50.5,11.5,50.4,11.1L50.4,11.1
					z M35.8,10.5c-0.3-0.2-0.7-0.1-1,0.2c-0.2,0.3-0.1,0.6,0.3,0.8c0.3,0.2,0.7,0.1,1-0.2C36.2,11.1,36.1,10.7,35.8,10.5L35.8,10.5z
					 M37.7,39.3c-0.1,0.1,0.1,0.3,0.1,0.4c-0.3-0.1-0.6-0.2-0.7,0c-0.3,0.2-0.3,0.6,0,0.8c0.3,0.3,0.8,0.3,1,0c0.2-0.1,0-0.3,0-0.5
					c0.3,0,0.6,0,0.8-0.2c0.2-0.3,0-0.6-0.3-0.8C38.4,38.9,37.9,39,37.7,39.3L37.7,39.3z M17,34.4c0-0.3-0.3-0.6-0.7-0.6
					c-0.4,0-0.7,0.3-0.8,0.6c0,0.3,0.3,0.6,0.7,0.6C16.6,35,17,34.7,17,34.4L17,34.4z M11.1,32c-0.4,0-0.7,0.2-0.7,0.6
					c0,0.4,0.3,0.6,0.7,0.6c0.4,0,0.7-0.3,0.7-0.6C11.9,32.2,11.6,31.9,11.1,32L11.1,32z M35.4,37.2c0.4,0,0.7,0.3,0.8,0.6
					c0,0.3-0.4,0.6-0.8,0.6c-0.4,0-0.7-0.3-0.7-0.6C34.8,37.4,35.1,37.2,35.4,37.2L35.4,37.2z M21.6,33.9c-0.4,0-0.8,0.3-0.8,0.6
					c0,0.3,0.3,0.6,0.7,0.6c0.4,0,0.7-0.3,0.8-0.6C22.4,34.2,22.1,33.9,21.6,33.9L21.6,33.9z M62.8,37c-0.4,0-0.7,0.3-0.8,0.6
					c0,0.3,0.3,0.6,0.7,0.6c0.4,0,0.7-0.2,0.8-0.6C63.5,37.3,63.3,37,62.8,37L62.8,37z M14.3,29.9c0,0.3,0.3,0.6,0.7,0.6
					c0.4,0,0.8-0.3,0.8-0.6c0-0.3-0.3-0.6-0.7-0.6C14.7,29.3,14.4,29.6,14.3,29.9L14.3,29.9z M9.7,29.7c0.4,0.1,0.8,0,0.9-0.3
					c0.1-0.3,0-0.7-0.4-0.8c-0.4-0.1-0.9,0-1,0.3C9.1,29.3,9.3,29.6,9.7,29.7L9.7,29.7z M55.2,19.6c-0.4-0.1-0.8,0-0.9,0.3
					c-0.1,0.3,0,0.7,0.4,0.8c0.4,0.1,0.8,0,1-0.4C55.7,20.1,55.5,19.8,55.2,19.6L55.2,19.6z M14.2,34.9c0.4,0.1,0.8,0,0.9-0.3
					c0.2-0.3,0-0.7-0.4-0.8c-0.4-0.1-0.8,0-1,0.3C13.6,34.4,13.8,34.8,14.2,34.9L14.2,34.9z M42.4,2.4c0.4,0.1,0.6,0.5,0.4,0.8
					c-0.2,0.3-0.6,0.5-1,0.4c-0.4-0.1-0.6-0.5-0.4-0.8C41.6,2.4,42,2.3,42.4,2.4L42.4,2.4z M52.3,26.4c0.4,0.1,0.8,0,0.9-0.3
					c0.2-0.3,0-0.7-0.4-0.8c-0.4-0.1-0.8,0-1,0.4C51.7,25.9,51.9,26.3,52.3,26.4L52.3,26.4z M38.7,31.1c0.4,0.1,0.8,0,0.9-0.3
					c0.2-0.3,0-0.7-0.3-0.8c-0.4-0.1-0.8,0.1-1,0.3C38.2,30.6,38.4,31,38.7,31.1L38.7,31.1z M38.1,13.3c-0.4-0.1-0.8,0-1,0.4
					c-0.2,0.3,0,0.7,0.4,0.8c0.3,0.1,0.8,0,0.9-0.3C38.6,13.8,38.4,13.4,38.1,13.3L38.1,13.3z M27.4,25.4c-0.3,0.1-0.6,0.4-0.5,0.8
					c0.1,0.3,0.5,0.5,0.9,0.4c0.3-0.1,0.6-0.4,0.5-0.8C28.2,25.6,27.8,25.3,27.4,25.4L27.4,25.4z M49.6,6.6
					c-0.3,0.1-0.6,0.4-0.5,0.8c0.1,0.3,0.5,0.5,0.9,0.4c0.4-0.1,0.6-0.4,0.5-0.7C50.4,6.8,50,6.5,49.6,6.6L49.6,6.6z M43.5,13.5
					c-0.4,0.1-0.6,0.4-0.5,0.7c0.1,0.4,0.5,0.5,0.9,0.5c0.3-0.1,0.6-0.4,0.5-0.8C44.3,13.6,43.9,13.4,43.5,13.5L43.5,13.5z
					 M47.9,12.2c0.3-0.1,0.6-0.4,0.5-0.8c-0.1-0.3-0.5-0.5-0.9-0.4c-0.4,0.1-0.6,0.4-0.5,0.8C47,12.1,47.5,12.3,47.9,12.2L47.9,12.2
					z M36.7,7.1c0-0.3-0.4-0.6-0.8-0.6c-0.4,0-0.7,0.3-0.7,0.7c0,0.3,0.4,0.6,0.8,0.5C36.4,7.8,36.7,7.5,36.7,7.1L36.7,7.1z
					 M58.7,31.5c-0.4,0-0.7,0.3-0.7,0.7c0,0.3,0.4,0.6,0.8,0.5c0.5,0,0.7-0.3,0.7-0.7C59.6,31.8,59.2,31.5,58.7,31.5L58.7,31.5z
					 M42.6,13.9c-0.4,0-0.7-0.2-0.8-0.6c0-0.4,0.3-0.6,0.7-0.7c0.4,0,0.8,0.2,0.8,0.6C43.3,13.5,43,13.8,42.6,13.9L42.6,13.9z
					 M53.1,19.1c0-0.4-0.4-0.6-0.8-0.6c-0.4,0-0.7,0.3-0.7,0.7c0,0.3,0.4,0.6,0.8,0.5C52.8,19.7,53.1,19.5,53.1,19.1L53.1,19.1z
					 M55.7,11.1c-0.3-0.2-0.8-0.2-1,0c-0.3,0.2-0.3,0.6,0,0.9c0.3,0.2,0.8,0.2,1,0C56,11.7,56,11.3,55.7,11.1L55.7,11.1z M50.9,26.1
					c-0.3-0.2-0.8-0.2-1,0c-0.3,0.2-0.3,0.6,0,0.8c0.3,0.3,0.7,0.3,1,0C51.1,26.8,51.2,26.4,50.9,26.1L50.9,26.1z M44.5,12.3
					c0.3,0.2,0.2,0.6,0,0.8c-0.3,0.2-0.7,0.3-1,0c-0.3-0.2-0.3-0.6,0-0.9C43.7,12.1,44.2,12.1,44.5,12.3L44.5,12.3z M43.3,8.3
					c-0.3-0.2-0.8-0.2-1,0c-0.3,0.3-0.3,0.6,0,0.9c0.3,0.2,0.7,0.3,1,0C43.5,9,43.6,8.6,43.3,8.3L43.3,8.3z M29.9,23.6
					c-0.3-0.2-0.8-0.2-1,0c-0.3,0.3-0.3,0.6,0,0.9c0.2,0.3,0.7,0.3,1,0C30.1,24.3,30.2,23.9,29.9,23.6L29.9,23.6z M26.8,10.1
					c-0.4,0-0.7,0.2-0.8,0.6c-0.1,0.3,0.3,0.6,0.7,0.6c0.3,0.1,0.8-0.2,0.8-0.5C27.5,10.5,27.2,10.2,26.8,10.1L26.8,10.1z
					 M56.4,14.5c0-0.3-0.2-0.7-0.6-0.7c-0.4,0-0.8,0.2-0.8,0.5c0,0.3,0.2,0.7,0.6,0.7C56.1,15.1,56.5,14.9,56.4,14.5L56.4,14.5z
					 M25.7,16.9c0-0.3-0.3-0.6-0.6-0.7c-0.4-0.1-0.8,0.2-0.8,0.6c-0.1,0.3,0.2,0.6,0.6,0.7C25.3,17.4,25.7,17.2,25.7,16.9L25.7,16.9
					z M59.3,22.4c-0.4-0.1-0.8,0.2-0.8,0.5c0,0.3,0.3,0.6,0.7,0.7c0.4,0,0.7-0.2,0.8-0.5C60,22.7,59.6,22.4,59.3,22.4L59.3,22.4z
					 M52.5,12.3c-0.4,0-0.8,0.2-0.8,0.5c0,0.3,0.3,0.6,0.6,0.7c0.4,0.1,0.8-0.2,0.8-0.5C53.1,12.6,52.9,12.3,52.5,12.3L52.5,12.3z
					 M49.1,24.1c0-0.3-0.2-0.4-0.5-0.5c0.3-0.1,0.5-0.4,0.3-0.7c-0.2-0.3-0.6-0.4-0.9-0.3c-0.4,0.2-0.5,0.5-0.4,0.8
					c0.1,0.2,0.4,0.2,0.7,0.2c-0.3,0-0.6,0.1-0.6,0.4c0,0.3,0.3,0.6,0.7,0.7C48.7,24.7,49.1,24.4,49.1,24.1L49.1,24.1z M7.6,33.3
					c0.2,0.3,0.6,0.4,1,0.3c0.3-0.1,0.5-0.5,0.3-0.8c-0.2-0.3-0.6-0.4-0.9-0.3C7.6,32.6,7.4,33,7.6,33.3L7.6,33.3z M59.9,15.8
					c-0.2-0.3-0.6-0.4-1-0.3c-0.3,0.1-0.5,0.5-0.3,0.8c0.2,0.3,0.6,0.4,1,0.3C59.9,16.5,60.1,16.1,59.9,15.8z"/>
			</g>
			<path class="st1" d="M5.1,36l0.5-0.9l0,0c0.4,0,0.7,0.2,0.8,0.5c0.1,0.3-0.2,0.7-0.6,0.7C5.6,36.3,5.3,36.2,5.1,36L5.1,36z
				 M9.1,28.8l0.4-0.7c0.3-0.2,0.7-0.1,0.9,0.2c0.3,0.3,0.2,0.6-0.2,0.9c-0.3,0.2-0.8,0.1-1-0.2C9.2,28.9,9.2,28.9,9.1,28.8
				L9.1,28.8z M13.3,34.3c-0.4,0.1-0.6,0.4-0.5,0.7c0.1,0.3,0.5,0.5,0.9,0.4c0.4-0.1,0.6-0.4,0.5-0.8C14.1,34.5,13.7,34.3,13.3,34.3
				L13.3,34.3z M14.5,39.6c0.2,0.3,0.7,0.4,1,0.2c0.3-0.2,0.4-0.5,0.3-0.8c-0.3-0.3-0.7-0.4-1-0.2C14.5,38.9,14.4,39.3,14.5,39.6
				L14.5,39.6z M21.1,35.3c0.3,0.3,0.7,0.3,1,0.1c0.3-0.2,0.4-0.6,0.1-0.9c-0.3-0.3-0.7-0.3-1-0.1C20.8,34.7,20.8,35,21.1,35.3z"/>
		</g>
	</g>
</g>
</svg>
