<?xml version="1.0" encoding="utf-8"?>
<!-- Generator: Adobe Illustrator 24.0.3, SVG Export Plug-In . SVG Version: 6.00 Build 0)  -->
<svg version="1.1" id="Layer_1" xmlns="http://www.w3.org/2000/svg" xmlns:xlink="http://www.w3.org/1999/xlink" x="0px" y="0px"
	 viewBox="0 0 98.8 92.5" style="enable-background:new 0 0 98.8 92.5;" xml:space="preserve">
<style type="text/css">
	.st0{fill:#FFFFFF;}
</style>
<g>
	<path class="st0" d="M40.4,61.9l-18,0l9-15.6l-9-15.6l18,0l9-15.6l9,15.6l18,0l-9,15.6l9,15.6l-18,0l-9,15.6L40.4,61.9z M65,46.3
		l7.8-13.5l-15.6,0l-7.8-13.5l-7.8,13.5l-15.6,0l7.8,13.5l-7.8,13.5l15.6,0l7.8,13.5l7.8-13.5l15.6,0L65,46.3z"/>
	<path class="st0" d="M61.2,26.9h13.7c0.6,0,1-0.5,1-1c0-0.6-0.5-1-1-1H61.7L54.2,14c-0.3-0.5-1-0.6-1.4-0.3c-0.5,0.3-0.6,1-0.3,1.4
		l7.8,11.2C60.6,26.7,60.9,26.9,61.2,26.9z"/>
	<path class="st0" d="M63.8,22.3h11.3c0.6,0,1-0.5,1-1c0-0.6-0.5-1-1-1H64.4l-6.1-8.8c-0.3-0.5-1-0.6-1.4-0.3
		c-0.5,0.3-0.6,1-0.3,1.4l6.4,9.3C63.2,22.2,63.5,22.3,63.8,22.3z"/>
	<path class="st0" d="M66.5,17.8h8.9c0.6,0,1-0.5,1-1c0-0.6-0.5-1-1-1H67l-4.8-6.9c-0.3-0.5-1-0.6-1.4-0.3c-0.5,0.3-0.6,1-0.3,1.4
		l5.1,7.3C65.8,17.6,66.1,17.8,66.5,17.8z"/>
	<path class="st0" d="M69.1,13.2h6.5c0.6,0,1-0.5,1-1c0-0.6-0.5-1-1-1h-5.9l-3.4-4.9c-0.3-0.5-1-0.6-1.4-0.3c-0.5,0.3-0.6,1-0.3,1.4
		l3.7,5.3C68.5,13,68.8,13.2,69.1,13.2z"/>
	<path class="st0" d="M71.7,8.7h4.1c0.6,0,1-0.5,1-1c0-0.6-0.5-1-1-1h-3.5l-2-2.9c-0.3-0.5-1-0.6-1.4-0.3c-0.5,0.3-0.6,1-0.3,1.4
		l2.3,3.3C71.1,8.5,71.4,8.7,71.7,8.7z"/>
	<path class="st0" d="M57.9,32.5c0.4,0,0.7-0.2,0.9-0.5L76,2.2c0.3-0.5,0.1-1.1-0.4-1.4c-0.5-0.3-1.1-0.1-1.4,0.4L57.1,31
		c-0.3,0.5-0.1,1.1,0.4,1.4C57.6,32.5,57.8,32.5,57.9,32.5z"/>
	<path class="st0" d="M79.9,59.2c0.2,0,0.3,0,0.5-0.1c0.5-0.3,0.7-0.9,0.4-1.4l-6.6-11.4l5.6-11.9c0.2-0.5,0-1.1-0.5-1.3
		c-0.5-0.2-1.1,0-1.3,0.5l-5.8,12.4c-0.1,0.3-0.1,0.7,0,0.9L79,58.7C79.2,59,79.5,59.2,79.9,59.2z"/>
	<path class="st0" d="M83.9,57.1c0.2,0,0.3,0,0.5-0.1c0.5-0.3,0.7-0.9,0.4-1.4l-5.4-9.3l4.6-9.7c0.2-0.5,0-1.1-0.5-1.3
		c-0.5-0.2-1.1,0-1.3,0.5l-4.8,10.2c-0.1,0.3-0.1,0.7,0,0.9l5.7,9.8C83.2,57,83.6,57.1,83.9,57.1z"/>
	<path class="st0" d="M88,55c0.2,0,0.3,0,0.5-0.1c0.5-0.3,0.7-0.9,0.4-1.4l-4.2-7.2l3.6-7.6c0.2-0.5,0-1.1-0.5-1.3
		c-0.5-0.2-1.1,0-1.3,0.5l-3.8,8c-0.1,0.3-0.1,0.7,0,0.9l4.4,7.7C87.3,54.8,87.6,55,88,55z"/>
	<path class="st0" d="M92,52.9c0.2,0,0.3,0,0.5-0.1c0.5-0.3,0.7-0.9,0.4-1.4l-3-5.1l2.5-5.4c0.2-0.5,0-1.1-0.5-1.3
		c-0.5-0.2-1.1,0-1.3,0.5l-2.8,5.9c-0.1,0.3-0.1,0.7,0,0.9l3.2,5.6C91.3,52.8,91.7,52.9,92,52.9z"/>
	<path class="st0" d="M96.1,50.9c0.2,0,0.3,0,0.5-0.1c0.5-0.3,0.7-0.9,0.4-1.4l-1.8-3.1l1.5-3.2c0.2-0.5,0-1.1-0.5-1.3
		c-0.5-0.2-1.1,0-1.3,0.5l-1.7,3.7c-0.1,0.3-0.1,0.7,0,0.9l2,3.5C95.4,50.7,95.7,50.9,96.1,50.9z"/>
	<path class="st0" d="M66.5,47.3L66.5,47.3l34.4,0c0.6,0,1-0.5,1-1c0-0.6-0.5-1-1-1l0,0l-34.4,0c-0.6,0-1,0.5-1,1
		C65.5,46.9,65.9,47.3,66.5,47.3z"/>
	<path class="st0" d="M54.4,79.6c0.4,0,0.7-0.2,0.9-0.5l6.6-11.4l13.1-1.1c0.6,0,1-0.5,0.9-1.1c0-0.6-0.5-1-1.1-0.9l-13.6,1.1
		c-0.3,0-0.6,0.2-0.8,0.5l-6.8,11.9c-0.3,0.5-0.1,1.1,0.4,1.4C54,79.6,54.2,79.6,54.4,79.6z"/>
	<path class="st0" d="M58.2,82.1c0.4,0,0.7-0.2,0.9-0.5l5.4-9.3l10.7-0.9c0.6,0,1-0.5,0.9-1.1c0-0.6-0.5-1-1.1-0.9l-11.2,0.9
		c-0.3,0-0.6,0.2-0.8,0.5l-5.7,9.8c-0.3,0.5-0.1,1.1,0.4,1.4C57.8,82.1,58,82.1,58.2,82.1z"/>
	<path class="st0" d="M62,84.6c0.4,0,0.7-0.2,0.9-0.5l4.2-7.2l8.3-0.7c0.6,0,1-0.5,0.9-1.1c0-0.6-0.5-1-1.1-0.9l-8.8,0.7
		c-0.3,0-0.6,0.2-0.8,0.5l-4.4,7.7c-0.3,0.5-0.1,1.1,0.4,1.4C61.7,84.5,61.9,84.6,62,84.6z"/>
	<path class="st0" d="M65.9,87.1c0.4,0,0.7-0.2,0.9-0.5l3-5.1l5.9-0.5c0.6,0,1-0.5,0.9-1.1c0-0.6-0.5-1-1.1-0.9L69,79.4
		c-0.3,0-0.6,0.2-0.8,0.5L65,85.5c-0.3,0.5-0.1,1.1,0.4,1.4C65.5,87,65.7,87.1,65.9,87.1z"/>
	<path class="st0" d="M69.7,89.5c0.4,0,0.7-0.2,0.9-0.5l1.8-3.1l3.5-0.3c0.6,0,1-0.5,0.9-1.1c0-0.6-0.5-1-1.1-0.9L71.6,84
		c-0.3,0-0.6,0.2-0.8,0.5l-2,3.5c-0.3,0.5-0.1,1.1,0.4,1.4C69.3,89.5,69.5,89.5,69.7,89.5z"/>
	<path class="st0" d="M75.2,91.9c0.2,0,0.3,0,0.5-0.1c0.5-0.3,0.7-0.9,0.4-1.4L58.8,60.6c-0.3-0.5-0.9-0.7-1.4-0.4
		c-0.5,0.3-0.7,0.9-0.4,1.4l17.2,29.8C74.5,91.8,74.8,91.9,75.2,91.9z"/>
	<path class="st0" d="M45.4,79c0.2,0,0.4-0.1,0.6-0.2c0.5-0.3,0.6-1,0.3-1.4l-7.8-11.2c-0.2-0.3-0.5-0.4-0.8-0.4H23.9
		c-0.6,0-1,0.5-1,1s0.5,1,1,1h13.2l7.5,10.8C44.8,78.9,45.1,79,45.4,79z"/>
	<path class="st0" d="M41.4,81.6c0.2,0,0.4-0.1,0.6-0.2c0.5-0.3,0.6-1,0.3-1.4l-6.4-9.3c-0.2-0.3-0.5-0.4-0.8-0.4H23.6
		c-0.6,0-1,0.5-1,1c0,0.6,0.5,1,1,1h10.8l6.1,8.8C40.8,81.5,41.1,81.6,41.4,81.6z"/>
	<path class="st0" d="M37.4,84.2c0.2,0,0.4-0.1,0.6-0.2c0.5-0.3,0.6-1,0.3-1.4l-5.1-7.3c-0.2-0.3-0.5-0.4-0.8-0.4h-8.9
		c-0.6,0-1,0.5-1,1s0.5,1,1,1h8.3l4.8,6.9C36.8,84,37.1,84.2,37.4,84.2z"/>
	<path class="st0" d="M33.4,86.8c0.2,0,0.4-0.1,0.6-0.2c0.5-0.3,0.6-1,0.3-1.4l-3.7-5.3c-0.2-0.3-0.5-0.4-0.8-0.4h-6.5
		c-0.6,0-1,0.5-1,1c0,0.6,0.5,1,1,1h5.9l3.4,4.9C32.7,86.6,33.1,86.8,33.4,86.8z"/>
	<path class="st0" d="M29.4,89.4c0.2,0,0.4-0.1,0.6-0.2c0.5-0.3,0.6-1,0.3-1.4l-2.3-3.3c-0.2-0.3-0.5-0.4-0.8-0.4H23
		c-0.6,0-1,0.5-1,1s0.5,1,1,1h3.5l2,2.9C28.7,89.2,29.1,89.4,29.4,89.4z"/>
	<path class="st0" d="M23.6,91.9c0.4,0,0.7-0.2,0.9-0.5l17.2-29.8c0.3-0.5,0.1-1.1-0.4-1.4c-0.5-0.3-1.1-0.1-1.4,0.4L22.8,90.4
		c-0.3,0.5-0.1,1.1,0.4,1.4C23.3,91.9,23.5,91.9,23.6,91.9z"/>
	<path class="st0" d="M19.9,59.7c0.4,0,0.7-0.2,0.9-0.6l5.8-12.4c0.1-0.3,0.1-0.7,0-0.9L19.8,34c-0.3-0.5-0.9-0.7-1.4-0.4
		c-0.5,0.3-0.7,0.9-0.4,1.4l6.6,11.4L19,58.3c-0.2,0.5,0,1.1,0.5,1.3C19.7,59.7,19.8,59.7,19.9,59.7z"/>
	<path class="st0" d="M15.7,57.5c0.4,0,0.7-0.2,0.9-0.6l4.8-10.2c0.1-0.3,0.1-0.7,0-0.9L15.7,36c-0.3-0.5-0.9-0.7-1.4-0.4
		c-0.5,0.3-0.7,0.9-0.4,1.4l5.4,9.3l-4.6,9.7c-0.2,0.5,0,1.1,0.5,1.3C15.4,57.5,15.6,57.5,15.7,57.5z"/>
	<path class="st0" d="M11.5,55.4c0.4,0,0.7-0.2,0.9-0.6l3.8-8c0.1-0.3,0.1-0.7,0-0.9l-4.4-7.7c-0.3-0.5-0.9-0.7-1.4-0.4
		c-0.5,0.3-0.7,0.9-0.4,1.4l4.2,7.2l-3.6,7.6c-0.2,0.5,0,1.1,0.5,1.3C11.2,55.3,11.3,55.4,11.5,55.4z"/>
	<path class="st0" d="M7.2,53.2c0.4,0,0.7-0.2,0.9-0.6l2.8-5.9c0.1-0.3,0.1-0.7,0-0.9l-3.2-5.6c-0.3-0.5-0.9-0.7-1.4-0.4
		c-0.5,0.3-0.7,0.9-0.4,1.4l3,5.1l-2.5,5.4c-0.2,0.5,0,1.1,0.5,1.3C6.9,53.2,7.1,53.2,7.2,53.2z"/>
	<path class="st0" d="M3,51c0.4,0,0.7-0.2,0.9-0.6l1.7-3.7c0.1-0.3,0.1-0.7,0-0.9l-2-3.5c-0.3-0.5-0.9-0.7-1.4-0.4
		c-0.5,0.3-0.7,0.9-0.4,1.4l1.8,3.1l-1.5,3.2c-0.2,0.5,0,1.1,0.5,1.3C2.7,51,2.9,51,3,51z"/>
	<path class="st0" d="M-2.1,47.3L-2.1,47.3l34.4,0c0.6,0,1-0.5,1-1c0-0.6-0.5-1-1-1l0,0l-34.4,0c-0.6,0-1,0.5-1,1
		C-3.1,46.9-2.7,47.3-2.1,47.3z"/>
	<path class="st0" d="M23.9,28C24,28,24,28,23.9,28l13.7-1.2c0.3,0,0.6-0.2,0.8-0.5l6.8-11.9c0.3-0.5,0.1-1.1-0.4-1.4
		c-0.5-0.3-1.1-0.1-1.4,0.4L37,24.9L23.9,26c-0.6,0-1,0.5-0.9,1.1C23,27.6,23.4,28,23.9,28z"/>
	<path class="st0" d="M23.7,23.3C23.7,23.3,23.8,23.3,23.7,23.3L35,22.3c0.3,0,0.6-0.2,0.8-0.5l5.7-9.8c0.3-0.5,0.1-1.1-0.4-1.4
		c-0.5-0.3-1.1-0.1-1.4,0.4l-5.4,9.3l-10.7,0.9c-0.6,0-1,0.5-0.9,1.1C22.7,22.9,23.2,23.3,23.7,23.3z"/>
	<path class="st0" d="M23.5,18.5C23.5,18.5,23.5,18.5,23.5,18.5l8.9-0.7c0.3,0,0.6-0.2,0.8-0.5l4.4-7.7c0.3-0.5,0.1-1.1-0.4-1.4
		c-0.5-0.3-1.1-0.1-1.4,0.4l-4.2,7.2l-8.3,0.7c-0.6,0-1,0.5-0.9,1.1C22.5,18.1,23,18.5,23.5,18.5z"/>
	<path class="st0" d="M23.2,13.8C23.3,13.8,23.3,13.7,23.2,13.8l6.5-0.5c0.3,0,0.6-0.2,0.8-0.5l3.2-5.6c0.3-0.5,0.1-1.1-0.4-1.4
		c-0.5-0.3-1.1-0.1-1.4,0.4l-3,5.1l-5.9,0.5c-0.6,0-1,0.5-0.9,1.1C22.3,13.4,22.7,13.8,23.2,13.8z"/>
	<path class="st0" d="M23,9C23,9,23.1,9,23,9l4.1-0.3c0.3,0,0.6-0.2,0.8-0.5l2-3.5c0.3-0.5,0.1-1.1-0.4-1.4
		c-0.5-0.3-1.1-0.1-1.4,0.4l-1.8,3.1L22.9,7c-0.6,0-1,0.5-0.9,1.1C22,8.6,22.5,9,23,9z"/>
	<path class="st0" d="M40.9,32.5c0.2,0,0.3,0,0.5-0.1c0.5-0.3,0.7-0.9,0.4-1.4L24.5,1.2c-0.3-0.5-0.9-0.7-1.4-0.4
		c-0.5,0.3-0.7,0.9-0.4,1.4L40,32C40.2,32.4,40.5,32.5,40.9,32.5z"/>
	<path class="st0" d="M49.4,47.3c0.6,0,1-0.5,1-1v-42c0-0.6-0.5-1-1-1s-1,0.5-1,1v42C48.4,46.9,48.8,47.3,49.4,47.3z"/>
	<path class="st0" d="M49.4,47.3c0.2,0,0.3,0,0.5-0.1l36.4-21c0.5-0.3,0.7-0.9,0.4-1.4c-0.3-0.5-0.9-0.7-1.4-0.4l-36.4,21
		c-0.5,0.3-0.7,0.9-0.4,1.4C48.7,47.2,49,47.3,49.4,47.3z"/>
	<path class="st0" d="M85.8,68.3c0.4,0,0.7-0.2,0.9-0.5c0.3-0.5,0.1-1.1-0.4-1.4l-36.4-21c-0.5-0.3-1.1-0.1-1.4,0.4
		c-0.3,0.5-0.1,1.1,0.4,1.4l36.4,21C85.4,68.3,85.6,68.3,85.8,68.3z"/>
	<path class="st0" d="M49.4,89.4c0.6,0,1-0.5,1-1v-42c0-0.6-0.5-1-1-1s-1,0.5-1,1v42C48.4,88.9,48.8,89.4,49.4,89.4z"/>
	<path class="st0" d="M13,68.3c0.2,0,0.3,0,0.5-0.1l36.4-21c0.5-0.3,0.7-0.9,0.4-1.4c-0.3-0.5-0.9-0.7-1.4-0.4l-36.4,21
		c-0.5,0.3-0.7,0.9-0.4,1.4C12.3,68.2,12.7,68.3,13,68.3z"/>
	<path class="st0" d="M49.4,47.3c0.4,0,0.7-0.2,0.9-0.5c0.3-0.5,0.1-1.1-0.4-1.4l-36.4-21c-0.5-0.3-1.1-0.1-1.4,0.4
		c-0.3,0.5-0.1,1.1,0.4,1.4l36.4,21C49,47.3,49.2,47.3,49.4,47.3z"/>
	<path class="st0" d="M32.3,46.3c0-9.4,7.7-17.1,17.1-17.1c9.4,0,17.1,7.7,17.1,17.1s-7.7,17.1-17.1,17.1
		C40,63.4,32.3,55.7,32.3,46.3z M34.3,46.3c0,8.3,6.8,15.1,15.1,15.1s15.1-6.8,15.1-15.1c0-8.3-6.8-15.1-15.1-15.1
		S34.3,38,34.3,46.3z"/>
	<path class="st0" d="M38.3,46.3c0-6.1,5-11.1,11.1-11.1s11.1,5,11.1,11.1c0,6.1-5,11.1-11.1,11.1S38.3,52.5,38.3,46.3z M40.3,46.3
		c0,5,4.1,9.1,9.1,9.1s9.1-4.1,9.1-9.1s-4.1-9.1-9.1-9.1S40.3,41.3,40.3,46.3z"/>
</g>
</svg>
