<?xml version="1.0" encoding="utf-8"?>
<!-- Generator: Adobe Illustrator 24.0.3, SVG Export Plug-In . SVG Version: 6.00 Build 0)  -->
<svg version="1.1" id="Layer_1" xmlns="http://www.w3.org/2000/svg" xmlns:xlink="http://www.w3.org/1999/xlink" x="0px" y="0px"
	 viewBox="0 0 105.1 91.3" style="enable-background:new 0 0 105.1 91.3;" xml:space="preserve">
<style type="text/css">
	.st0{fill:#CCEAEB;}
</style>
<g>
	<path class="st0" d="M52.5,76.8l-9-15.6h-18l9-15.6l-9-15.6h18l9-15.6l9,15.6h18l-9,15.6l9,15.6h-18L52.5,76.8z M29.1,59.2h15.6
		l7.8,13.5l7.8-13.5H76l-7.8-13.5L76,32.1H60.4l-7.8-13.5l-7.8,13.5H29.1l7.8,13.5L29.1,59.2z"/>
	<path class="st0" d="M40.7,26.2H27c-0.6,0-1-0.5-1-1c0-0.6,0.5-1,1-1h13.2l7.5-10.8c0.3-0.5,1-0.6,1.4-0.3c0.5,0.3,0.6,1,0.3,1.4
		l-7.8,11.2C41.4,26,41.1,26.2,40.7,26.2z"/>
	<path class="st0" d="M38.1,21.6H26.8c-0.6,0-1-0.5-1-1c0-0.6,0.5-1,1-1h10.8l6.1-8.8c0.3-0.5,1-0.6,1.4-0.3c0.5,0.3,0.6,1,0.3,1.4
		l-6.4,9.3C38.7,21.5,38.4,21.6,38.1,21.6z"/>
	<path class="st0" d="M35.5,17.1h-8.9c-0.6,0-1-0.5-1-1c0-0.6,0.5-1,1-1h8.3l4.8-6.9c0.3-0.5,1-0.6,1.4-0.3c0.5,0.3,0.6,1,0.3,1.4
		l-5.1,7.3C36.1,16.9,35.8,17.1,35.5,17.1z"/>
	<path class="st0" d="M32.8,12.5h-6.5c-0.6,0-1-0.5-1-1c0-0.6,0.5-1,1-1h5.9l3.4-4.9c0.3-0.5,1-0.6,1.4-0.3c0.5,0.3,0.6,1,0.3,1.4
		l-3.7,5.3C33.5,12.4,33.2,12.5,32.8,12.5z"/>
	<path class="st0" d="M30.2,8h-4.1c-0.6,0-1-0.5-1-1c0-0.6,0.5-1,1-1h3.5l2-2.9c0.3-0.5,1-0.6,1.4-0.3c0.5,0.3,0.6,1,0.3,1.4L31,7.5
		C30.8,7.8,30.5,8,30.2,8z"/>
	<path class="st0" d="M44,31.9c-0.4,0-0.7-0.2-0.9-0.5L25.9,1.5c-0.3-0.5-0.1-1.1,0.4-1.4c0.5-0.3,1.1-0.1,1.4,0.4l17.2,29.8
		c0.3,0.5,0.1,1.1-0.4,1.4C44.3,31.8,44.2,31.9,44,31.9z"/>
	<path class="st0" d="M22.1,58.5c-0.2,0-0.3,0-0.5-0.1c-0.5-0.3-0.7-0.9-0.4-1.4l6.6-11.4l-5.6-11.9c-0.2-0.5,0-1.1,0.5-1.3
		c0.5-0.2,1.1,0,1.3,0.5l5.8,12.4c0.1,0.3,0.1,0.7,0,0.9L22.9,58C22.8,58.3,22.4,58.5,22.1,58.5z"/>
	<path class="st0" d="M18,56.4c-0.2,0-0.3,0-0.5-0.1c-0.5-0.3-0.7-0.9-0.4-1.4l5.4-9.3l-4.6-9.7c-0.2-0.5,0-1.1,0.5-1.3
		c0.5-0.2,1.1,0,1.3,0.5l4.8,10.2c0.1,0.3,0.1,0.7,0,0.9l-5.7,9.8C18.7,56.3,18.3,56.4,18,56.4z"/>
	<path class="st0" d="M14,54.3c-0.2,0-0.3,0-0.5-0.1c-0.5-0.3-0.7-0.9-0.4-1.4l4.2-7.2L13.7,38c-0.2-0.5,0-1.1,0.5-1.3
		c0.5-0.2,1.1,0,1.3,0.5l3.8,8c0.1,0.3,0.1,0.7,0,0.9l-4.4,7.7C14.6,54.1,14.3,54.3,14,54.3z"/>
	<path class="st0" d="M9.9,52.2c-0.2,0-0.3,0-0.5-0.1c-0.5-0.3-0.7-0.9-0.4-1.4l3-5.1l-2.5-5.4c-0.2-0.5,0-1.1,0.5-1.3
		c0.5-0.2,1.1,0,1.3,0.5l2.8,5.9c0.1,0.3,0.1,0.7,0,0.9l-3.2,5.6C10.6,52.1,10.2,52.2,9.9,52.2z"/>
	<path class="st0" d="M5.8,50.2c-0.2,0-0.3,0-0.5-0.1c-0.5-0.3-0.7-0.9-0.4-1.4l1.8-3.1l-1.5-3.2c-0.2-0.5,0-1.1,0.5-1.3
		c0.5-0.2,1.1,0,1.3,0.5l1.7,3.7c0.1,0.3,0.1,0.7,0,0.9l-2,3.5C6.5,50,6.2,50.2,5.8,50.2z"/>
	<path class="st0" d="M35.5,46.6H1c-0.6,0-1-0.5-1-1c0-0.6,0.5-1,1-1h34.4c0.6,0,1,0.5,1,1C36.5,46.2,36,46.6,35.5,46.6z"/>
	<path class="st0" d="M47.6,79c-0.4,0-0.7-0.2-0.9-0.5L40.1,67L27,65.9c-0.6,0-1-0.5-0.9-1.1c0-0.6,0.5-1,1.1-0.9l13.6,1.1
		c0.3,0,0.6,0.2,0.8,0.5l6.8,11.9c0.3,0.5,0.1,1.1-0.4,1.4C47.9,78.9,47.7,79,47.6,79z"/>
	<path class="st0" d="M43.8,81.5c-0.4,0-0.7-0.2-0.9-0.5l-5.4-9.3l-10.7-0.9c-0.6,0-1-0.5-0.9-1.1c0-0.6,0.5-1,1.1-0.9l11.2,0.9
		c0.3,0,0.6,0.2,0.8,0.5l5.7,9.8c0.3,0.5,0.1,1.1-0.4,1.4C44.1,81.4,43.9,81.5,43.8,81.5z"/>
	<path class="st0" d="M39.9,83.9c-0.4,0-0.7-0.2-0.9-0.5l-4.2-7.2l-8.3-0.7c-0.6,0-1-0.5-0.9-1.1c0-0.6,0.5-1,1.1-0.9l8.8,0.7
		c0.3,0,0.6,0.2,0.8,0.5l4.4,7.7c0.3,0.5,0.1,1.1-0.4,1.4C40.2,83.9,40.1,83.9,39.9,83.9z"/>
	<path class="st0" d="M36.1,86.4c-0.4,0-0.7-0.2-0.9-0.5l-3-5.1l-5.9-0.5c-0.6,0-1-0.5-0.9-1.1c0-0.6,0.5-1,1.1-0.9l6.4,0.5
		c0.3,0,0.6,0.2,0.8,0.5l3.2,5.6c0.3,0.5,0.1,1.1-0.4,1.4C36.4,86.3,36.2,86.4,36.1,86.4z"/>
	<path class="st0" d="M32.2,88.8c-0.4,0-0.7-0.2-0.9-0.5l-1.8-3.1L26.1,85c-0.6,0-1-0.5-0.9-1.1c0-0.6,0.5-1,1.1-0.9l4.1,0.3
		c0.3,0,0.6,0.2,0.8,0.5l2,3.5c0.3,0.5,0.1,1.1-0.4,1.4C32.6,88.8,32.4,88.8,32.2,88.8z"/>
	<path class="st0" d="M26.8,91.3c-0.2,0-0.3,0-0.5-0.1c-0.5-0.3-0.7-0.9-0.4-1.4l17.2-29.8c0.3-0.5,0.9-0.7,1.4-0.4
		c0.5,0.3,0.7,0.9,0.4,1.4L27.7,90.7C27.5,91.1,27.1,91.3,26.8,91.3z"/>
	<path class="st0" d="M56.5,78.3c-0.2,0-0.4-0.1-0.6-0.2c-0.5-0.3-0.6-1-0.3-1.4l7.8-11.2c0.2-0.3,0.5-0.4,0.8-0.4H78
		c0.6,0,1,0.5,1,1c0,0.6-0.5,1-1,1H64.9l-7.5,10.8C57.2,78.2,56.8,78.3,56.5,78.3z"/>
	<path class="st0" d="M60.5,80.9c-0.2,0-0.4-0.1-0.6-0.2c-0.5-0.3-0.6-1-0.3-1.4l6.4-9.3c0.2-0.3,0.5-0.4,0.8-0.4h11.3
		c0.6,0,1,0.5,1,1s-0.5,1-1,1H67.5l-6.1,8.8C61.2,80.8,60.8,80.9,60.5,80.9z"/>
	<path class="st0" d="M64.5,83.5c-0.2,0-0.4-0.1-0.6-0.2c-0.5-0.3-0.6-1-0.3-1.4l5.1-7.3c0.2-0.3,0.5-0.4,0.8-0.4h8.9
		c0.6,0,1,0.5,1,1c0,0.6-0.5,1-1,1h-8.3l-4.8,6.9C65.2,83.3,64.9,83.5,64.5,83.5z"/>
	<path class="st0" d="M68.5,86.1c-0.2,0-0.4-0.1-0.6-0.2c-0.5-0.3-0.6-1-0.3-1.4l3.7-5.3c0.2-0.3,0.5-0.4,0.8-0.4h6.5
		c0.6,0,1,0.5,1,1s-0.5,1-1,1h-5.9l-3.4,4.9C69.2,85.9,68.9,86.1,68.5,86.1z"/>
	<path class="st0" d="M72.5,88.7c-0.2,0-0.4-0.1-0.6-0.2c-0.5-0.3-0.6-1-0.3-1.4l2.3-3.3c0.2-0.3,0.5-0.4,0.8-0.4h4.1
		c0.6,0,1,0.5,1,1c0,0.6-0.5,1-1,1h-3.5l-2,2.9C73.2,88.5,72.9,88.7,72.5,88.7z"/>
	<path class="st0" d="M78.3,91.3c-0.4,0-0.7-0.2-0.9-0.5L60.2,60.9c-0.3-0.5-0.1-1.1,0.4-1.4c0.5-0.3,1.1-0.1,1.4,0.4l17.2,29.8
		c0.3,0.5,0.1,1.1-0.4,1.4C78.6,91.2,78.5,91.3,78.3,91.3z"/>
	<path class="st0" d="M82,59c-0.4,0-0.7-0.2-0.9-0.6l-5.8-12.4c-0.1-0.3-0.1-0.7,0-0.9l6.8-11.9c0.3-0.5,0.9-0.7,1.4-0.4
		c0.5,0.3,0.7,0.9,0.4,1.4l-6.6,11.4l5.6,11.9c0.2,0.5,0,1.1-0.5,1.3C82.3,59,82.1,59,82,59z"/>
	<path class="st0" d="M86.2,56.9c-0.4,0-0.7-0.2-0.9-0.6l-4.8-10.2c-0.1-0.3-0.1-0.7,0-0.9l5.7-9.8c0.3-0.5,0.9-0.7,1.4-0.4
		c0.5,0.3,0.7,0.9,0.4,1.4l-5.4,9.3l4.6,9.7c0.2,0.5,0,1.1-0.5,1.3C86.5,56.8,86.4,56.9,86.2,56.9z"/>
	<path class="st0" d="M90.4,54.7c-0.4,0-0.7-0.2-0.9-0.6l-3.8-8c-0.1-0.3-0.1-0.7,0-0.9l4.4-7.7c0.3-0.5,0.9-0.7,1.4-0.4
		c0.5,0.3,0.7,0.9,0.4,1.4l-4.2,7.2l3.6,7.6c0.2,0.5,0,1.1-0.5,1.3C90.7,54.6,90.6,54.7,90.4,54.7z"/>
	<path class="st0" d="M94.7,52.5c-0.4,0-0.7-0.2-0.9-0.6L91,46.1c-0.1-0.3-0.1-0.7,0-0.9l3.2-5.6c0.3-0.5,0.9-0.7,1.4-0.4
		c0.5,0.3,0.7,0.9,0.4,1.4l-3,5.1l2.5,5.4c0.2,0.5,0,1.1-0.5,1.3C95,52.5,94.8,52.5,94.7,52.5z"/>
	<path class="st0" d="M98.9,50.3c-0.4,0-0.7-0.2-0.9-0.6l-1.7-3.7c-0.1-0.3-0.1-0.7,0-0.9l2-3.5c0.3-0.5,0.9-0.7,1.4-0.4
		c0.5,0.3,0.7,0.9,0.4,1.4l-1.8,3.1l1.5,3.2c0.2,0.5,0,1.1-0.5,1.3C99.2,50.3,99.1,50.3,98.9,50.3z"/>
	<path class="st0" d="M104,46.6H69.6c-0.6,0-1-0.5-1-1c0-0.6,0.5-1,1-1H104c0.6,0,1,0.5,1,1C105.1,46.2,104.6,46.6,104,46.6z"/>
	<path class="st0" d="M78,27.3C78,27.3,77.9,27.3,78,27.3l-13.7-1.2c-0.3,0-0.6-0.2-0.8-0.5l-6.8-11.9c-0.3-0.5-0.1-1.1,0.4-1.4
		c0.5-0.3,1.1-0.1,1.4,0.4l6.6,11.4l13.1,1.1c0.6,0,1,0.5,0.9,1.1C78.9,26.9,78.5,27.3,78,27.3z"/>
	<path class="st0" d="M78.2,22.6C78.2,22.6,78.2,22.6,78.2,22.6l-11.3-0.9c-0.3,0-0.6-0.2-0.8-0.5l-5.7-9.8
		c-0.3-0.5-0.1-1.1,0.4-1.4c0.5-0.3,1.1-0.1,1.4,0.4l5.4,9.3l10.7,0.9c0.6,0,1,0.5,0.9,1.1C79.2,22.2,78.7,22.6,78.2,22.6z"/>
	<path class="st0" d="M78.4,17.8C78.4,17.8,78.4,17.8,78.4,17.8l-8.9-0.7c-0.3,0-0.6-0.2-0.8-0.5l-4.4-7.7c-0.3-0.5-0.1-1.1,0.4-1.4
		c0.5-0.3,1.1-0.1,1.4,0.4l4.2,7.2l8.3,0.7c0.6,0,1,0.5,0.9,1.1C79.4,17.4,79,17.8,78.4,17.8z"/>
	<path class="st0" d="M78.7,13.1C78.6,13.1,78.6,13.1,78.7,13.1l-6.5-0.5c-0.3,0-0.6-0.2-0.8-0.5l-3.2-5.6C67.8,5.9,68,5.3,68.5,5
		c0.5-0.3,1.1-0.1,1.4,0.4l3,5.1l5.9,0.5c0.6,0,1,0.5,0.9,1.1C79.6,12.7,79.2,13.1,78.7,13.1z"/>
	<path class="st0" d="M78.9,8.3C78.9,8.3,78.9,8.3,78.9,8.3L74.8,8c-0.3,0-0.6-0.2-0.8-0.5l-2-3.5c-0.3-0.5-0.1-1.1,0.4-1.4
		c0.5-0.3,1.1-0.1,1.4,0.4L75.5,6L79,6.3c0.6,0,1,0.5,0.9,1.1C79.9,7.9,79.4,8.3,78.9,8.3z"/>
	<path class="st0" d="M61.1,31.9c-0.2,0-0.3,0-0.5-0.1c-0.5-0.3-0.7-0.9-0.4-1.4L77.4,0.5c0.3-0.5,0.9-0.7,1.4-0.4
		c0.5,0.3,0.7,0.9,0.4,1.4L61.9,31.3C61.8,31.7,61.4,31.9,61.1,31.9z"/>
	<path class="st0" d="M52.5,46.6c-0.6,0-1-0.5-1-1v-42c0-0.6,0.5-1,1-1c0.6,0,1,0.5,1,1v42C53.5,46.2,53.1,46.6,52.5,46.6z"/>
	<path class="st0" d="M52.5,46.6c-0.2,0-0.3,0-0.5-0.1l-36.4-21c-0.5-0.3-0.7-0.9-0.4-1.4c0.3-0.5,0.9-0.7,1.4-0.4l36.4,21
		c0.5,0.3,0.7,0.9,0.4,1.4C53.2,46.5,52.9,46.6,52.5,46.6z"/>
	<path class="st0" d="M16.1,67.7c-0.4,0-0.7-0.2-0.9-0.5c-0.3-0.5-0.1-1.1,0.4-1.4l36.4-21c0.5-0.3,1.1-0.1,1.4,0.4
		c0.3,0.5,0.1,1.1-0.4,1.4l-36.4,21C16.5,67.6,16.3,67.7,16.1,67.7z"/>
	<path class="st0" d="M52.5,88.7c-0.6,0-1-0.5-1-1v-42c0-0.6,0.5-1,1-1c0.6,0,1,0.5,1,1v42C53.5,88.2,53.1,88.7,52.5,88.7z"/>
	<path class="st0" d="M88.9,67.7c-0.2,0-0.3,0-0.5-0.1L52,46.5c-0.5-0.3-0.7-0.9-0.4-1.4c0.3-0.5,0.9-0.7,1.4-0.4l36.4,21
		c0.5,0.3,0.7,0.9,0.4,1.4C89.6,67.5,89.3,67.7,88.9,67.7z"/>
	<path class="st0" d="M52.5,46.6c-0.4,0-0.7-0.2-0.9-0.5c-0.3-0.5-0.1-1.1,0.4-1.4l36.4-21c0.5-0.3,1.1-0.1,1.4,0.4
		c0.3,0.5,0.1,1.1-0.4,1.4L53,46.5C52.9,46.6,52.7,46.6,52.5,46.6z"/>
	<path class="st0" d="M52.5,62.7c-9.4,0-17.1-7.7-17.1-17.1s7.7-17.1,17.1-17.1s17.1,7.7,17.1,17.1S61.9,62.7,52.5,62.7z M52.5,30.6
		c-8.3,0-15.1,6.8-15.1,15.1c0,8.3,6.8,15.1,15.1,15.1c8.3,0,15.1-6.8,15.1-15.1C67.6,37.3,60.8,30.6,52.5,30.6z"/>
	<path class="st0" d="M52.5,56.8c-6.1,0-11.1-5-11.1-11.1c0-6.1,5-11.1,11.1-11.1s11.1,5,11.1,11.1C63.7,51.8,58.7,56.8,52.5,56.8z
		 M52.5,36.5c-5,0-9.1,4.1-9.1,9.1s4.1,9.1,9.1,9.1s9.1-4.1,9.1-9.1S57.5,36.5,52.5,36.5z"/>
</g>
</svg>
