<?xml version="1.0" standalone="no"?><!DOCTYPE svg PUBLIC "-//W3C//DTD SVG 1.1//EN" "http://www.w3.org/Graphics/SVG/1.1/DTD/svg11.dtd"><svg version="1.1" id="logo-highcharts" xmlns="http://www.w3.org/2000/svg" xmlns:xlink="http://www.w3.org/1999/xlink" x="0px" y="0px" width="404" height="85" viewBox="0 0 404 85" xml:space="preserve">

				

					

					<g id="symbol" transform="translate(10,10) scale(1)">
						<polygon fill="#8087E8" points="41.53900146484375,0 30.315000534057617,26.209999084472656 15.566999435424805,60.650997161865234 49.85900115966797,46.16499710083008 68.02299499511719,38.49300003051758 " id="svg_2" stroke-width="0" stroke="#f0f0f0" fill-opacity="1" stroke-linejoin="round"></polygon>
						<polygon fill="#30426B" points="47.25799560546875,31.729999542236328 49.86000061035156,46.16499710083008 68.02400207519531,38.49300003051758 " id="svg_3" stroke-width="0" stroke="#f0f0f0" fill-opacity="1" stroke-linejoin="round"></polygon>
						<polygon fill="#6699A1" points="41.53900146484375,0 47.25799560546875,31.730998992919922 68.02299499511719,38.49300003051758 " id="svg_4" stroke-width="0" stroke="#f0f0f0" fill-opacity="1" stroke-linejoin="round"></polygon>
						<polygon fill="#78758C" points="47.25799560546875,31.729999542236328 68.02400207519531,38.49300003051758 30.31599998474121,26.208999633789062 15.566999435424805,60.650997161865234 49.86000061035156,46.16499710083008 " id="svg_5" stroke-width="0" stroke="#f0f0f0" fill-opacity="1" stroke-linejoin="round"></polygon>
						<polygon fill="#A3EDBA" points="15.566999435424805,60.650997161865234 30.315000534057617,26.209999084472656 0,16.334999084472656 " id="svg_6" stroke-width="0" stroke="#f0f0f0" fill-opacity="1" stroke-linejoin="round"></polygon>
						<polygon fill="#6699A1" points="49.86000061035156,46.16499710083008 53.185997009277344,64.6099967956543 68.02400207519531,38.49300003051758 " id="svg_7" stroke-width="0" stroke="#f0f0f0" fill-opacity="1" stroke-linejoin="round"></polygon>
						<polygon fill="#8087E8" points="41.53900146484375,0 30.315000534057617,26.209999084472656 47.25799560546875,31.730998992919922 " id="svg_8" stroke-width="0" stroke="#f0f0f0" fill-opacity="1" stroke-linejoin="round"></polygon>
					</g>
			
			<g id="text-highcharts" transform="translate(108.02400207519531,31.291051292419436) scale(1)">
						<path fill="#f0f0f0" d="M20.7189956665039,14.058000671386722 h-17.02 v9.77 c0,1.037 -0.8130000000000002,1.851 -1.8490000000000002,1.851 c-1.037,0 -1.85,-0.8130000000000002 -1.85,-1.851 V2.07100067138672 c0,-1.037 0.8130000000000002,-1.852 1.85,-1.852 c1.036,0 1.8490000000000002,0.8130000000000002 1.8490000000000002,1.852 v8.436 h17.02 v-8.436 c0,-1.037 0.8140000000000002,-1.852 1.85,-1.852 c1.036,0 1.85,0.8130000000000002 1.85,1.852 v21.754 c0,1.037 -0.8140000000000002,1.851 -1.85,1.851 c-1.036,0 -1.85,-0.8130000000000002 -1.85,-1.851 V14.058000671386722 z" id="svg_2" stroke-width="0px" stroke="#f0f0f0"></path>
						<path fill="#f0f0f0" d="M39.21699566650392,23.825000671386718 c0,1.037 -0.8140000000000002,1.851 -1.852,1.851 s-1.852,-0.8130000000000002 -1.852,-1.851 V2.07100067138672 c0,-1.037 0.8140000000000002,-1.852 1.852,-1.852 s1.852,0.8130000000000002 1.852,1.852 V23.825000671386718 z" id="svg_3" stroke-width="0px" stroke="#f0f0f0"></path>
						<path fill="#f0f0f0" d="M66.3689956665039,14.724000671386719 c0,-1.036 0.8140000000000002,-1.774 1.852,-1.774 c1.034,0 1.852,0.8130000000000002 1.852,1.8490000000000002 v5.847 c0,0.4440000000000001 -0.22600000000000006,1.109 -0.5950000000000002,1.479 c-2.367,2.369 -5.549,3.773 -9.176,3.773 c-7.178,0 -12.949,-5.771 -12.949,-12.948 c0,-7.181 5.771,-12.949 12.949,-12.949 c3.6270000000000002,0 6.809,1.405 9.176,3.771 c0.7380000000000002,0.7400000000000002 0.7380000000000002,1.852 0,2.592 c-0.7410000000000002,0.7380000000000002 -1.9220000000000002,0.8130000000000002 -2.6630000000000003,0.07200000000000002 c-1.702,-1.6990000000000005 -3.923,-2.736 -6.513,-2.736 c-5.104,0 -9.249,4.144 -9.249,9.25 c0,5.104 4.146,9.25 9.249,9.25 c2.367,0 4.441,-0.8130000000000002 6.067,-2.222 V14.724000671386719 z" id="svg_4" stroke-width="0px" stroke="#f0f0f0"></path>
						<path fill="#f0f0f0" d="M100.40599566650391,14.058000671386722 h-17.019 v9.77 c0,1.037 -0.8170000000000002,1.851 -1.852,1.851 c-1.037,0 -1.8490000000000002,-0.8130000000000002 -1.8490000000000002,-1.851 V2.07100067138672 c0,-1.037 0.812,-1.852 1.8490000000000002,-1.852 c1.034,0 1.852,0.8130000000000002 1.852,1.852 v8.436 h17.019 v-8.436 c0,-1.037 0.8130000000000002,-1.852 1.8490000000000002,-1.852 c1.037,0 1.852,0.8130000000000002 1.852,1.852 v21.754 c0,1.037 -0.8130000000000002,1.851 -1.852,1.851 c-1.033,0 -1.8490000000000002,-0.8130000000000002 -1.8490000000000002,-1.851 V14.058000671386722 z" id="svg_5" stroke-width="0px" stroke="#f0f0f0"></path>
						<path fill="#f0f0f0" d="M125.19199566650391,25.898000671386725 c-7.182,0 -12.949,-5.771 -12.949,-12.948 c0,-7.181 5.77,-12.949 12.949,-12.949 c3.6270000000000002,0 6.809,1.405 9.176,3.771 c0.7380000000000002,0.7400000000000002 0.7380000000000002,1.852 0,2.592 c-0.7410000000000002,0.7380000000000002 -1.925,0.8130000000000002 -2.6660000000000004,0.07200000000000002 c-1.6990000000000005,-1.6990000000000005 -3.92,-2.736 -6.51,-2.736 c-5.106,0 -9.249,4.144 -9.249,9.25 c0,5.104 4.143,9.25 9.249,9.25 c2.59,0 4.884,-0.9620000000000002 6.586,-2.664 c0.7400000000000002,-0.7410000000000002 1.8490000000000002,-0.7410000000000002 2.59,0 c0.7380000000000002,0.7380000000000002 0.7380000000000002,1.85 0,2.589 C131.9999956665039,24.49200067138672 128.81799566650392,25.898000671386725 125.19199566650391,25.898000671386725 z" id="svg_6" stroke-width="0px" stroke="#f0f0f0"></path>
						<path fill="#f0f0f0" d="M163.81299566650392,14.058000671386722 h-17.02 v9.77 c0,1.037 -0.8130000000000002,1.851 -1.852,1.851 c-1.034,0 -1.85,-0.8130000000000002 -1.85,-1.851 V2.07100067138672 c0,-1.037 0.8130000000000002,-1.852 1.85,-1.852 c1.035,0 1.852,0.8130000000000002 1.852,1.852 v8.436 h17.02 v-8.436 c0,-1.037 0.8130000000000002,-1.852 1.8530000000000002,-1.852 c1.034,0 1.8490000000000002,0.8130000000000002 1.8490000000000002,1.852 v21.754 c0,1.037 -0.8130000000000002,1.851 -1.8490000000000002,1.851 c-1.037,0 -1.8530000000000002,-0.8130000000000002 -1.8530000000000002,-1.851 V14.058000671386722 z" id="svg_7" stroke-width="0px" stroke="#f0f0f0"></path>
						<path fill="#f0f0f0" d="M191.0019956665039,1.8490006713867189 l10.507,20.646 c0.22300000000000006,0.4430000000000001 0.4450000000000001,1.036 0.4450000000000001,1.554 c0,1.036 -0.6680000000000003,1.6280000000000001 -1.702,1.6280000000000001 c-0.7410000000000002,0 -1.481,-0.22200000000000006 -2.001,-1.258 l-3.253,-6.438 h-13.547 l-3.183,6.438 c-0.517,1.036 -1.256,1.258 -1.994,1.258 c-1.037,0 -1.702,-0.5930000000000002 -1.702,-1.6280000000000001 c0,-0.519 0.22000000000000006,-1.109 0.4420000000000001,-1.554 l10.506,-20.646 c0.6680000000000003,-1.405 2.002,-1.6280000000000001 2.74,-1.6280000000000001 C189.0039956665039,0.22100067138671875 190.33399566650388,0.4420006713867153 191.0019956665039,1.8490006713867189 zM183.22899566650392,14.429000671386717 h9.988 l-4.957,-9.99 L183.22899566650392,14.429000671386717 z" id="svg_8" stroke-width="0px" stroke="#f0f0f0"></path>
						<path fill="#f0f0f0" d="M222.4029956665039,0.369000671386722 c4.441,0 8.064,3.255 8.064,7.694 c0,3.923 -2.813,6.884 -6.511,7.549 l6.731,7.104 c0.6640000000000003,0.6660000000000003 0.8890000000000002,1.85 0.14600000000000005,2.516 c-0.7360000000000002,0.7410000000000002 -2.145,0.521 -2.886,-0.2960000000000001 l-8.729,-9.176 h-6.511 v8.142 c0,1.034 -0.8150000000000002,1.774 -1.854,1.774 c-1.033,0 -1.85,-0.8130000000000002 -1.85,-1.851 V2.2190006713867163 c0,-1.035 0.8140000000000002,-1.85 1.85,-1.85 H222.4029956665039 zM212.71199566650392,3.9210006713867216 v8.288 h9.691 c2.59,0 4.367,-1.776 4.367,-4.146 c0,-2.365 -1.7770000000000001,-4.144 -4.367,-4.144 L212.71199566650392,3.9210006713867216 L212.71199566650392,3.9210006713867216 z" id="svg_9" stroke-width="0px" stroke="#f0f0f0"></path>
						<path fill="#f0f0f0" d="M247.29099566650393,3.9210006713867216 h-9.249 c-1.033,0 -1.8490000000000002,-0.7400000000000002 -1.8490000000000002,-1.776 c0,-1.034 0.8130000000000002,-1.7730000000000001 1.8490000000000002,-1.7730000000000001 h22.201 c1.037,0 1.852,0.7400000000000002 1.852,1.7730000000000001 c0,1.037 -0.8130000000000002,1.776 -1.852,1.776 h-9.249 V23.826000671386723 c0,1.037 -0.8130000000000002,1.851 -1.8490000000000002,1.851 c-1.037,0 -1.854,-0.8130000000000002 -1.854,-1.851 V3.9210006713867216 z" id="svg_10" stroke-width="0px" stroke="#f0f0f0"></path>
						<path fill="#f0f0f0" d="M270.9679956665039,10.359000671386724 c0,-9.25 5.698,-10.359 9.99,-10.359 c1.035,0 1.85,0.8130000000000002 1.85,1.85 c0,1.036 -0.8130000000000002,1.851 -1.85,1.851 c-3.479,0 -6.29,0.7380000000000002 -6.29,6.66 v5.18 c0,9.25 -5.698,10.358 -9.989,10.358 c-1.035,0 -1.85,-0.8130000000000002 -1.85,-1.85 s0.8140000000000002,-1.85 1.85,-1.85 c3.479,0 6.289,-0.7400000000000002 6.289,-6.66 V10.359000671386724 z" id="svg_11" stroke-width="0px" stroke="#f0f0f0"></path>

						<g transform="translate(280, 20) scale(0.03)">
							<circle cx="100" cy="100" r="88.5" fill="none" stroke="#f0f0f0" stroke-width="20"></circle>
							<path d="M94.6 92C100.1 92 104.1 90.9 106.5 88.8C108.9 86.8 110.2 83.4 110.2 78.6C110.2 73.9 108.9 70.6 106.5 68.5C104.1 66.5 100.1 65.5 94.6 65.5L83.4 65.5L83.4 92L94.6 92M83.4 110.3L83.4 149.3L56.8 149.3L56.8 46.2L97.4 46.2C111 46.2 120.9 48.5 127.2 53.1C133.6 57.6 136.7 64.8 136.7 74.7C136.7 81.5 135.1 87.1 131.8 91.5C128.5 95.8 123.6 99.1 116.9 101.1C120.6 102 123.8 103.9 126.7 106.8C129.6 109.7 132.5 114.1 135.4 120.1L149.9 149.3L121.6 149.3L109 123.7C106.5 118.6 103.9 115 101.3 113.2C98.7 111.3 95.2 110.3 90.9 110.3L83.4 110.3" stroke-width="0px" stroke="#f0f0f0" fill="#f0f0f0"></path>
						</g>
					</g></svg>