<svg width="16" height="16" viewBox="0 0 16 16" fill="none" xmlns="http://www.w3.org/2000/svg">
<path d="M2.2571 3.77791C1.75287 3.21437 1.50076 2.93259 1.49125 2.69312C1.48299 2.48509 1.57238 2.28515 1.73292 2.15259C1.91773 2 2.29583 2 3.05202 2H12.9473C13.7035 2 14.0816 2 14.2664 2.15259C14.427 2.28515 14.5163 2.48509 14.5081 2.69312C14.4986 2.93259 14.2465 3.21437 13.7422 3.77791L9.93808 8.02962C9.83756 8.14196 9.78731 8.19813 9.75147 8.26205C9.71969 8.31875 9.69637 8.37978 9.68225 8.44323C9.66633 8.51476 9.66633 8.59013 9.66633 8.74087V12.3056C9.66633 12.436 9.66633 12.5011 9.64531 12.5575C9.62673 12.6073 9.59651 12.6519 9.55717 12.6877C9.51265 12.7281 9.45213 12.7524 9.33108 12.8008L7.06441 13.7074C6.81938 13.8054 6.69687 13.8545 6.59852 13.834C6.51251 13.8161 6.43704 13.765 6.3885 13.6918C6.333 13.6081 6.333 13.4762 6.333 13.2122V8.74087C6.333 8.59013 6.333 8.51476 6.31708 8.44323C6.30296 8.37978 6.27964 8.31875 6.24786 8.26205C6.21203 8.19813 6.16177 8.14196 6.06126 8.02962L2.2571 3.77791Z" stroke="#8A8A8A" stroke-width="1.33" stroke-linecap="round" stroke-linejoin="round"/>
</svg>
