<svg width="32" height="34" viewBox="0 0 32 34" fill="none" xmlns="http://www.w3.org/2000/svg">
<path d="M22.8977 27.691L14.7765 19.7705C14.7118 19.7076 14.6756 19.6221 14.6756 19.533V6.34104C14.6756 6.13307 14.4819 5.96944 14.2719 6.00484C7.23252 7.19213 2.22385 14.1588 4.59635 21.7177C5.74128 25.3655 8.60246 28.1828 12.3238 29.358C16.2108 30.5855 19.918 29.9693 22.8389 28.2184C23.0279 28.105 23.0546 27.844 22.8977 27.691Z" fill="#5352BE"/>
<path d="M16.3634 6.00054C16.1668 5.98952 16 6.1496 16 6.34474V19.0019C16 19.092 16.0361 19.1785 16.1005 19.2422L23.8247 26.8987C23.9579 27.0309 24.1771 27.0349 24.3114 26.9038C26.5824 24.686 28 21.6128 28 18.203C28 11.6819 22.8501 6.36445 16.3634 6.00054Z" fill="#708AB9"/>
</svg>
