<?xml version="1.0" encoding="utf-8"?>
<!-- Generator: Adobe Illustrator 16.0.0, SVG Export Plug-In . SVG Version: 6.00 Build 0)  -->
<!DOCTYPE svg PUBLIC "-//W3C//DTD SVG 1.1//EN" "http://www.w3.org/Graphics/SVG/1.1/DTD/svg11.dtd">
<svg version="1.1" id="Layer_1" xmlns="http://www.w3.org/2000/svg" xmlns:xlink="http://www.w3.org/1999/xlink" x="0px" y="0px"
	 width="32px" height="32px" viewBox="0 0 32 32" enable-background="new 0 0 32 32" xml:space="preserve">
<g>
	<path fill="#4B4B4D" d="M11.751,16c0,0.427,0.082,0.831,0.2,1.22l1.309-1.31c0.048-1.443,1.208-2.604,2.652-2.651l1.309-1.309
		c-0.389-0.118-0.793-0.2-1.22-0.2C13.657,11.75,11.751,13.656,11.751,16z"/>
	<path fill="#4B4B4D" d="M16.087,18.741l-1.308,1.308c0.389,0.119,0.794,0.201,1.222,0.201c2.344,0,4.25-1.906,4.25-4.25
		c0-0.428-0.083-0.832-0.2-1.223l-1.309,1.309C18.696,17.533,17.533,18.695,16.087,18.741z"/>
	<path fill="#4B4B4D" d="M23.247,11.75c-0.028-0.028-0.06-0.052-0.089-0.08l-1.061,1.062c0.029,0.029,0.062,0.054,0.093,0.083
		L25.548,16l-3.356,3.186c-1.662,1.646-3.86,2.553-6.19,2.553c-0.872,0-1.725-0.128-2.538-0.373l-1.174,1.174
		c1.17,0.453,2.422,0.698,3.712,0.699c2.728,0,5.301-1.062,7.246-2.988l4.29-4.25L23.247,11.75z"/>
	<path fill="#4B4B4D" d="M8.842,20.328l1.062-1.061c-0.03-0.029-0.062-0.053-0.092-0.082L6.454,16l3.356-3.185
		c1.662-1.646,3.86-2.553,6.19-2.553c0.87,0,1.724,0.127,2.536,0.372l1.174-1.174c-1.17-0.453-2.421-0.698-3.71-0.698
		c-2.728,0-5.301,1.061-7.246,2.987L4.465,16l4.29,4.25C8.783,20.278,8.813,20.301,8.842,20.328z"/>
	
		<rect x="3.272" y="15.25" transform="matrix(0.7071 -0.7071 0.7071 0.7071 -6.6276 15.9997)" fill="#4B4B4D" width="25.456" height="1.501"/>
</g>
</svg>
