<?xml version="1.0" encoding="utf-8"?>
<!-- Generator: Adobe Illustrator 16.0.0, SVG Export Plug-In . SVG Version: 6.00 Build 0)  -->
<!DOCTYPE svg PUBLIC "-//W3C//DTD SVG 1.1//EN" "http://www.w3.org/Graphics/SVG/1.1/DTD/svg11.dtd">
<svg version="1.1" id="Layer_1" xmlns="http://www.w3.org/2000/svg" xmlns:xlink="http://www.w3.org/1999/xlink" x="0px" y="0px"
	 viewBox="0 0 32 32" enable-background="new 0 0 32 32" xml:space="preserve">
<path fill="#4B4B4D" d="M25.429,9.5L27,5l-4.5,1.571l0.934,0.935l-5.252,5.252c-0.212-0.083-0.44-0.133-0.682-0.133
	c-1.035,0-1.875,0.84-1.875,1.875c0,0.241,0.05,0.47,0.133,0.682l-7.576,7.576c-0.212-0.083-0.44-0.133-0.682-0.133
	c-1.035,0-1.875,0.84-1.875,1.875s0.84,1.875,1.875,1.875s1.875-0.84,1.875-1.875c0-0.241-0.05-0.47-0.133-0.682l7.576-7.576
	c0.212,0.083,0.44,0.133,0.682,0.133c1.035,0,1.875-0.84,1.875-1.875c0-0.241-0.05-0.47-0.133-0.682l5.252-5.252L25.429,9.5z"/>
</svg>
