<?xml version="1.0" encoding="utf-8"?>
<!-- Generator: Adobe Illustrator 16.0.0, SVG Export Plug-In . SVG Version: 6.00 Build 0)  -->
<!DOCTYPE svg PUBLIC "-//W3C//DTD SVG 1.1//EN" "http://www.w3.org/Graphics/SVG/1.1/DTD/svg11.dtd">
<svg version="1.1" id="Layer_1" xmlns="http://www.w3.org/2000/svg" xmlns:xlink="http://www.w3.org/1999/xlink" x="0px" y="0px"
	 viewBox="0 0 32 32" enable-background="new 0 0 32 32" xml:space="preserve">
<path fill="#4B4B4D" d="M26.249,15.999c0.001-2.737-1.065-5.312-3.002-7.248C21.312,6.815,18.737,5.749,16,5.75
	c-2.738,0-5.312,1.065-7.248,3.002C6.816,10.688,5.75,13.262,5.75,16c0,2.736,1.065,5.312,3.002,7.248
	c1.937,1.935,4.511,3.001,7.249,3.001c1.993,0,3.898-0.572,5.536-1.628c0.864,0.73,2.154,0.697,2.968-0.116
	c0.815-0.815,0.849-2.104,0.117-2.97C25.678,19.897,26.25,17.993,26.249,15.999z M9.813,22.186C8.16,20.533,7.25,18.336,7.25,16
	c-0.001-2.337,0.909-4.534,2.562-6.188c1.652-1.652,3.851-2.563,6.188-2.563c2.336,0,4.533,0.91,6.186,2.563
	c1.653,1.653,2.563,3.85,2.564,6.187c-0.001,1.727-0.501,3.376-1.427,4.787c-0.682-0.115-1.406,0.084-1.931,0.609
	s-0.726,1.249-0.608,1.929c-1.41,0.926-3.059,1.426-4.784,1.426C13.663,24.749,11.466,23.839,9.813,22.186z"/>
</svg>
