<?xml version="1.0" encoding="utf-8"?>
<!-- Generator: Adobe Illustrator 16.0.0, SVG Export Plug-In . SVG Version: 6.00 Build 0)  -->
<!DOCTYPE svg PUBLIC "-//W3C//DTD SVG 1.1//EN" "http://www.w3.org/Graphics/SVG/1.1/DTD/svg11.dtd">
<svg version="1.1" id="Layer_1" xmlns="http://www.w3.org/2000/svg" xmlns:xlink="http://www.w3.org/1999/xlink" x="0px" y="0px"
	 viewBox="0 0 32 32" enable-background="new 0 0 32 32" xml:space="preserve">
<g>
	<g opacity="0.5">
		<polygon fill="#4B4B4D" points="12.509,22.893 12.509,17.428 11.409,17.428 9.651,18.718 10.229,19.507 11.363,18.628
			11.363,22.893 		"/>
		<path fill="#4B4B4D" d="M17.962,19.832c-0.341-0.326-0.759-0.492-1.242-0.492c-0.141,0-0.264,0.02-0.365,0.058l-0.276,0.104
			l0.181-0.289l1.281-1.784h-1.375l-1.339,1.996c-0.408,0.61-0.615,1.182-0.615,1.696c0,0.583,0.198,1.038,0.606,1.393
			c0.405,0.353,0.919,0.532,1.526,0.532c0.606,0,1.12-0.181,1.526-0.536c0.401-0.352,0.605-0.829,0.605-1.421
			C18.476,20.573,18.308,20.162,17.962,19.832z M17.055,21.843c-0.184,0.187-0.423,0.281-0.711,0.281s-0.527-0.098-0.713-0.29
			c-0.183-0.192-0.274-0.43-0.274-0.706c0-0.287,0.094-0.527,0.281-0.714c0.187-0.188,0.427-0.281,0.714-0.281
			c0.289,0,0.526,0.095,0.708,0.282c0.181,0.186,0.271,0.423,0.271,0.705C17.331,21.413,17.238,21.655,17.055,21.843z"/>
		<path fill="#4B4B4D" d="M20.639,21.805c-0.141-0.135-0.302-0.201-0.495-0.201c-0.198,0-0.364,0.067-0.507,0.205
			c-0.141,0.136-0.21,0.295-0.21,0.487c0,0.191,0.068,0.349,0.209,0.479c0.143,0.133,0.309,0.197,0.508,0.197
			c0.193,0,0.354-0.066,0.495-0.201c0.138-0.133,0.205-0.291,0.205-0.483S20.776,21.938,20.639,21.805z"/>
		<path fill="#4B4B4D" d="M22.962,19.063c0.04-0.23,0.13-0.423,0.268-0.574c0.164-0.179,0.372-0.269,0.618-0.269
			c0.24,0,0.436,0.072,0.583,0.216c0.146,0.145,0.221,0.334,0.221,0.563c0,0.316-0.166,0.634-0.495,0.944l-2.177,1.972v0.977h3.896
			v-0.969h-2.475l1.508-1.342c0.317-0.282,0.561-0.55,0.723-0.797c0.156-0.238,0.236-0.532,0.236-0.873
			c0-0.531-0.184-0.927-0.56-1.208c-0.381-0.284-0.849-0.429-1.389-0.429c-0.539,0-1.008,0.158-1.394,0.471
			c-0.358,0.29-0.578,0.683-0.654,1.168L22.962,19.063z"/>
	</g>
	<path opacity="0.5" fill="#4B4B4D" d="M17.486,12.742c-0.809,0.626-1.691,1.131-2.631,1.5H27.75v11.5H8.25v-3.061l-2.939-2.689
		l2.939-2.689l0.001-2.122l-4.812,4.812l3.311,3.311v3.939h22.5v-14.5H17.486z"/>
	<g>
		<path fill="#4B4B4D" d="M17.121,10.432c-1.659,1.659-3.865,2.573-6.211,2.573l0,0c-0.723,0-1.43-0.097-2.113-0.266l1.096-1.097
			c0.335,0.046,0.675,0.077,1.018,0.077c2.003,0,3.885-0.781,5.302-2.196c0.25-0.25,0.638-0.691,0.922-1.018
			c-0.284-0.327-0.672-0.769-0.922-1.018c-0.368-0.368-0.769-0.691-1.194-0.972l0.922-0.921c0.417,0.292,0.814,0.616,1.182,0.983
			c0.467,0.467,1.313,1.469,1.351,1.512l0.35,0.415l-0.35,0.414C18.435,8.963,17.588,9.964,17.121,10.432z"/>
		<path fill="#4B4B4D" d="M3.351,8.091c0.035-0.043,0.882-1.045,1.351-1.512c1.658-1.66,3.864-2.574,6.209-2.574
			c0.723,0,1.43,0.098,2.114,0.266l-1.097,1.097c-0.336-0.046-0.674-0.076-1.018-0.076c-2.002,0-3.884,0.779-5.301,2.197
			c-0.25,0.249-0.639,0.69-0.922,1.018c0.283,0.326,0.672,0.767,0.922,1.017c0.367,0.367,0.768,0.69,1.192,0.97L5.88,11.414
			c-0.415-0.293-0.812-0.616-1.179-0.982C4.232,9.965,3.386,8.963,3.351,8.92L3,8.506L3.351,8.091z"/>

			<rect x="2.731" y="7.861" transform="matrix(0.7071 -0.7071 0.7071 0.7071 -2.8175 10.2057)" fill="#4B4B4D" width="16.359" height="1.286"/>
	</g>
</g>
</svg>
