<svg version="1.1" id="drawing" xmlns="http://www.w3.org/2000/svg" xmlns:xlink="http://www.w3.org/1999/xlink" x="0px" y="0px"
	 viewBox="0 0 32 32" style="enable-background:new 0 0 32 32;" xml:space="preserve">
<style type="text/css">
	.st0{fill:#4B4B4D;}
	.st1{fill:none;}
	.st2{fill:#1A1A8E;}
</style>
<path class="st0" d="M18.3,8.6c-0.5,0.2-0.8,0.7-0.9,1.2l-1,7.6l0.5,0.3l3.1-4.5c-0.1-0.1-0.2-0.3-0.2-0.5c-0.1-0.7,0.3-1.3,1-1.4
	s1.3,0.3,1.4,1s-0.3,1.3-1,1.4c-0.2,0-0.4,0-0.5,0l-3.1,4.5l0.5,0.3l6.7-3.7c0.5-0.3,0.8-0.8,0.8-1.3L26,9.4l-4-2.6L18.3,8.6z
	 M27.2,5.2L25.4,4c-0.6-0.4-1.3-0.2-1.7,0.3L22.5,6l3.9,2.6L27.5,7C27.9,6.4,27.8,5.7,27.2,5.2C27.2,5.3,27.2,5.2,27.2,5.2z"/>
<rect id="rect" class="st1" width="32.3" height="32.3"/>
<path class="st2" d="M18,23.5c0,0.1,0,0.1-0.1,0.2"/>
<path class="st0" d="M17.1,18.9c-0.8-0.2-3.8-0.2-4,1.6c0,0.9,0.1,1.9,0.5,2.7c0.4,0.7,0.7,0.9,0.7,1.4c0,0.8-0.5,1.5-1.2,1.8
	c-0.3,0.2-0.6,0.2-0.9,0.2c-1.2-0.1-1.2,0-1.4,0.1c-1,0.5-0.4,2.7-1.3,3.1c-0.4,0.1-0.7,0-1-0.2c-0.7-0.8-0.1-3.1,1.4-4.1
	c0.5-0.4,1.1-0.6,1.7-0.7c0.6,0,0.9,0.1,1-0.1s-0.1-1.1-0.4-2c-0.4-1.1-0.5-2.2-0.4-3.4c0.5-1.9,3.6-1.8,5.2-1.7
	C17.6,17.7,17.8,19.1,17.1,18.9z"/>
<rect class="st1" width="32" height="32"/>
</svg>
