<svg xmlns="http://www.w3.org/2000/svg" viewBox="0 0 32 32"><defs><style>.cls-1{fill:#4b4b4d;}.cls-2,.cls-3{fill:none;}.cls-2{stroke:#4b4b4d;stroke-linecap:round;stroke-linejoin:round;stroke-width:0.74px;}</style></defs><g id="Layer_2" data-name="Layer 2"><g id="drawing"><g id="drawing-2" data-name="drawing"><path class="cls-1" d="M17.84,9.67a1.3,1.3,0,0,0-.7,1l-.8,5.91.35.23,2.41-3.54a1,1,0,0,1-.17-.39,1,1,0,1,1,1.13.77.85.85,0,0,1-.42,0l-2.42,3.55.35.23,5.2-2.9a1.29,1.29,0,0,0,.66-1l.28-3.16-3-2.06L17.84,9.67ZM24.77,7l-1.42-1A1,1,0,0,0,22,6.31L21.1,7.65l3,2.06L25,8.37A1,1,0,0,0,24.77,7Z"/><path class="cls-2" d="M5.84,25.84c.26.07.53.14.82.19.52.09,3,.5,4.32-1.17,1.17-1.45-.83-3.68.15-4.66.81-.8,2.37.34,3.92-.57a3.76,3.76,0,0,0,1.56-2.18"/><rect id="rect" class="cls-3" width="32" height="32"/></g></g></g></svg>