<?xml version="1.0" encoding="utf-8"?>
<!-- Generator: Adobe Illustrator 16.0.0, SVG Export Plug-In . SVG Version: 6.00 Build 0)  -->
<!DOCTYPE svg PUBLIC "-//W3C//DTD SVG 1.1//EN" "http://www.w3.org/Graphics/SVG/1.1/DTD/svg11.dtd">
<svg version="1.1" id="Layer_1" xmlns="http://www.w3.org/2000/svg" xmlns:xlink="http://www.w3.org/1999/xlink" x="0px" y="0px"
	 viewBox="0 0 32 32" enable-background="new 0 0 32 32" xml:space="preserve">
<path fill="#4B4B4D" d="M22.125,3.814L5.817,20.122l-1.818,7.879l7.879-1.818L28.186,9.875L22.125,3.814z M26.064,9.875
	l-1.439,1.439l-3.939-3.939l1.439-1.439L26.064,9.875z M10.186,22.875l9.939-9.939l1.439,1.439l-9.939,9.939L10.186,22.875z
	 M7.686,20.375l9.939-9.939l1.439,1.439l-9.939,9.939L7.686,20.375z M18.686,9.375l0.939-0.939l3.939,3.939l-0.939,0.939
	L18.686,9.375z M6.974,21.784l3.242,3.242l-4.215,0.973L6.974,21.784z"/>
</svg>
