<?xml version="1.0" encoding="utf-8"?>
<!-- Generator: Adobe Illustrator 16.0.0, SVG Export Plug-In . SVG Version: 6.00 Build 0)  -->
<!DOCTYPE svg PUBLIC "-//W3C//DTD SVG 1.1//EN" "http://www.w3.org/Graphics/SVG/1.1/DTD/svg11.dtd">
<svg version="1.1" id="Layer_1" xmlns="http://www.w3.org/2000/svg" xmlns:xlink="http://www.w3.org/1999/xlink" x="0px" y="0px"
	 viewBox="0 0 32 32" enable-background="new 0 0 32 32" xml:space="preserve">
<g>
	<path fill="#4B4B4D" d="M27.53,14.03c0.293-0.293,0.293-0.768,0-1.061l-5.064-5.064l-7.5,8.5L10.461,11.9l-7.027,8.109
		c-0.271,0.313-0.238,0.786,0.075,1.058C3.65,21.189,3.825,21.25,4,21.25c0.21,0,0.419-0.088,0.566-0.259l5.973-6.891l4.495,4.495
		l7.5-8.5l3.936,3.936C26.763,14.323,27.237,14.323,27.53,14.03z"/>
	<path fill="#4B4B4D" d="M3.999,22.9c-0.569,0-1.017,0.238-1.327,0.709c-0.304,0.459-0.457,1.096-0.457,1.891
		c0,0.796,0.153,1.432,0.457,1.891C2.982,27.861,3.43,28.1,3.999,28.1c0.567,0,1.011-0.238,1.319-0.709
		c0.301-0.457,0.501-1.094,0.501-1.891s-0.2-1.433-0.501-1.891C5.01,23.139,4.566,22.9,3.999,22.9z M4.692,26.039
		c-0.021,0.17-0.058,0.354-0.111,0.543c-0.05,0.178-0.126,0.321-0.229,0.426c-0.098,0.1-0.212,0.146-0.353,0.146
		c-0.139,0-0.255-0.048-0.355-0.146c-0.104-0.105-0.183-0.247-0.234-0.424c-0.055-0.186-0.092-0.369-0.113-0.545
		c-0.021-0.177-0.032-0.357-0.032-0.539c0-0.186,0.011-0.367,0.032-0.542c0.021-0.174,0.059-0.357,0.113-0.546
		c0.052-0.178,0.131-0.322,0.235-0.43c0.101-0.101,0.216-0.15,0.354-0.15c0.14,0,0.255,0.049,0.352,0.15
		c0.104,0.106,0.18,0.251,0.229,0.43c0.054,0.188,0.09,0.372,0.111,0.546c0.021,0.175,0.032,0.356,0.032,0.542
		S4.714,25.867,4.692,26.039z"/>
	<path fill="#4B4B4D" d="M9.522,9.9h1.952l0.448,1.1h1.19l-2.129-4.941L10.959,6h-0.867l-2.116,4.864L7.917,11h1.171L9.522,9.9z
		 M10.5,7.337l0.639,1.686H9.851L10.5,7.337z"/>
	<path fill="#4B4B4D" d="M16.416,22.34c0.151-0.079,0.279-0.182,0.383-0.307c0.163-0.198,0.246-0.443,0.246-0.729
		c0-0.438-0.158-0.771-0.473-0.988C16.27,20.106,15.899,20,15.475,20h-1.97v5h1.827c0.248,0,0.482-0.025,0.695-0.078
		c0.216-0.051,0.42-0.133,0.604-0.241c0.191-0.112,0.344-0.272,0.453-0.476c0.109-0.201,0.164-0.437,0.164-0.7
		c0-0.341-0.104-0.624-0.312-0.841C16.795,22.516,16.62,22.406,16.416,22.34z M14.553,20.9h0.59c0.307,0,0.531,0.042,0.669,0.125
		c0.124,0.075,0.185,0.197,0.185,0.375s-0.062,0.311-0.187,0.404c-0.131,0.1-0.33,0.15-0.593,0.15h-0.664V20.9z M15.224,24.086
		h-0.671v-1.203h0.705c0.338,0,0.585,0.047,0.736,0.141c0.139,0.086,0.206,0.23,0.206,0.44C16.2,23.617,16.2,24.086,15.224,24.086z"
		/>
	<path fill="#4B4B4D" d="M22.539,7c0.78,0,1.401-0.282,1.845-0.837l0.062-0.077l-0.808-0.568l-0.055,0.073
		c-0.242,0.331-0.582,0.492-1.038,0.492c-0.447,0-0.794-0.144-1.061-0.438c-0.266-0.293-0.4-0.684-0.4-1.159
		c0-0.453,0.141-0.834,0.419-1.134c0.276-0.298,0.638-0.449,1.074-0.449c0.186,0,0.37,0.038,0.551,0.113
		c0.176,0.073,0.315,0.182,0.416,0.321l0.058,0.079l0.768-0.608l-0.055-0.072c-0.183-0.242-0.438-0.427-0.762-0.552
		C23.233,2.062,22.905,2,22.577,2c-0.741,0-1.362,0.229-1.846,0.682C20.245,3.136,20,3.744,20,4.487c0,0.734,0.24,1.343,0.713,1.811
		C21.187,6.764,21.801,7,22.539,7z"/>
	<path fill="#4B4B4D" d="M29.075,17.328c-0.163-0.338-0.386-0.604-0.66-0.792c-0.271-0.185-0.563-0.321-0.871-0.407
		C27.237,16.043,26.908,16,26.567,16h-1.8v5h1.8c0.335,0,0.664-0.05,0.976-0.146c0.314-0.098,0.609-0.246,0.877-0.439
		c0.272-0.195,0.493-0.463,0.655-0.792c0.162-0.327,0.243-0.706,0.243-1.122C29.318,18.057,29.237,17.662,29.075,17.328z
		 M28.103,19.134c-0.069,0.184-0.16,0.331-0.269,0.441c-0.112,0.111-0.248,0.205-0.404,0.279c-0.159,0.075-0.321,0.129-0.482,0.159
		c-0.163,0.03-0.336,0.045-0.515,0.045h-0.617v-3.131h0.617c1.194,0,1.776,0.514,1.776,1.573
		C28.209,18.736,28.173,18.949,28.103,19.134z"/>
</g>
</svg>
