<?xml version="1.0" encoding="utf-8"?>
<!-- Generator: Adobe Illustrator 16.0.0, SVG Export Plug-In . SVG Version: 6.00 Build 0)  -->
<!DOCTYPE svg PUBLIC "-//W3C//DTD SVG 1.1//EN" "http://www.w3.org/Graphics/SVG/1.1/DTD/svg11.dtd">
<svg version="1.1" id="Layer_1" xmlns="http://www.w3.org/2000/svg" xmlns:xlink="http://www.w3.org/1999/xlink" x="0px" y="0px"
	 viewBox="0 0 32 32" enable-background="new 0 0 32 32" xml:space="preserve">
<g>
	<g>
		<path fill="#4B4B4D" d="M5.048,22.258c-0.234,0-0.464-0.109-0.61-0.312c-0.241-0.338-0.164-0.806,0.173-1.047l14.468-10.37
			l7.497,7.447c0.294,0.292,0.296,0.767,0.004,1.061c-0.292,0.296-0.767,0.294-1.061,0.004l-6.597-6.553l-13.438,9.63
			C5.352,22.213,5.199,22.258,5.048,22.258z"/>
	</g>
	<g>
		<g>
			<path fill="#4B4B4D" d="M6.483,24.807c0.35,0.532,0.524,1.266,0.524,2.201s-0.175,1.67-0.524,2.201
				C6.134,29.742,5.64,30.008,5,30.008c-0.646,0-1.144-0.266-1.496-0.799c-0.353-0.531-0.527-1.266-0.527-2.201
				s0.175-1.669,0.527-2.201C3.856,24.273,4.354,24.008,5,24.008C5.64,24.008,6.134,24.273,6.483,24.807z M5.976,27.693
				c0.026-0.221,0.04-0.449,0.04-0.686s-0.014-0.467-0.04-0.689s-0.074-0.455-0.141-0.697c-0.068-0.242-0.173-0.438-0.315-0.585
				S5.204,24.814,5,24.814c-0.205,0-0.379,0.074-0.524,0.222c-0.145,0.147-0.252,0.343-0.322,0.585
				c-0.069,0.242-0.119,0.475-0.146,0.697s-0.04,0.453-0.04,0.689c0,0.231,0.014,0.459,0.04,0.686
				c0.026,0.226,0.076,0.459,0.146,0.697c0.07,0.24,0.178,0.432,0.322,0.576C4.621,29.112,4.795,29.186,5,29.186
				c0.204,0,0.377-0.073,0.52-0.219c0.143-0.145,0.247-0.338,0.315-0.58C5.901,28.145,5.949,27.914,5.976,27.693z"/>
			<path fill="#4B4B4D" d="M5,30.058c-0.659,0-1.177-0.276-1.538-0.82c-0.355-0.536-0.535-1.286-0.535-2.229
				c0-0.942,0.18-1.692,0.535-2.229c0.361-0.544,0.879-0.82,1.538-0.82c0.654,0,1.167,0.276,1.525,0.821
				c0.354,0.538,0.532,1.288,0.532,2.229c0,0.941-0.179,1.691-0.532,2.229C6.167,29.781,5.654,30.058,5,30.058z M5,24.058
				c-0.633,0-1.108,0.254-1.454,0.776c-0.345,0.52-0.52,1.252-0.52,2.174c0,0.923,0.175,1.654,0.52,2.174
				C3.892,29.704,4.367,29.958,5,29.958c0.618,0,1.104-0.261,1.441-0.776c0.343-0.521,0.517-1.252,0.517-2.174
				c0-0.921-0.174-1.652-0.517-2.174C6.104,24.318,5.618,24.058,5,24.058z M5,29.235c-0.217,0-0.404-0.078-0.56-0.232
				c-0.15-0.151-0.263-0.352-0.335-0.598c-0.072-0.249-0.121-0.485-0.147-0.706c-0.026-0.23-0.04-0.463-0.04-0.691
				c0-0.234,0.014-0.469,0.04-0.695c0.026-0.22,0.074-0.451,0.147-0.705c0.072-0.249,0.185-0.453,0.334-0.606
				C4.595,24.844,4.783,24.765,5,24.765s0.404,0.079,0.556,0.237c0.146,0.152,0.257,0.355,0.327,0.605
				c0.07,0.254,0.116,0.484,0.143,0.705c0.026,0.227,0.04,0.461,0.04,0.695s-0.014,0.468-0.04,0.691
				c-0.026,0.219-0.072,0.447-0.143,0.701c-0.07,0.25-0.181,0.453-0.327,0.602C5.403,29.157,5.216,29.235,5,29.235z M5,24.864
				c-0.192,0-0.352,0.067-0.488,0.207c-0.139,0.142-0.243,0.331-0.311,0.563c-0.071,0.25-0.118,0.475-0.144,0.689
				c-0.026,0.223-0.04,0.453-0.04,0.684c0,0.225,0.014,0.454,0.04,0.68c0.025,0.215,0.073,0.447,0.144,0.689
				c0.067,0.23,0.172,0.416,0.31,0.555C4.648,29.068,4.809,29.136,5,29.136s0.35-0.067,0.483-0.204
				c0.136-0.137,0.237-0.324,0.304-0.559C5.854,28.125,5.9,27.9,5.926,27.688c0.026-0.221,0.04-0.449,0.04-0.68
				s-0.014-0.461-0.04-0.684c-0.025-0.217-0.071-0.441-0.139-0.69C5.721,25.4,5.619,25.211,5.483,25.07
				C5.35,24.932,5.191,24.864,5,24.864z"/>
		</g>
	</g>
	<g>
		<g>
			<path fill="#4B4B4D" d="M24,27.008v-6h2.339c0.508,0,0.942,0.125,1.301,0.373s0.538,0.627,0.538,1.135
				c0,0.328-0.093,0.605-0.28,0.831c-0.186,0.226-0.44,0.388-0.762,0.483v0.017c0.39,0.051,0.703,0.201,0.94,0.449
				c0.237,0.249,0.355,0.57,0.355,0.966c0,0.311-0.063,0.584-0.19,0.818s-0.301,0.416-0.521,0.547
				c-0.22,0.129-0.46,0.226-0.72,0.287c-0.26,0.062-0.54,0.094-0.839,0.094H24z M25.067,21.889v1.561h0.95
				c0.355,0,0.627-0.071,0.812-0.213c0.187-0.141,0.279-0.342,0.279-0.602c0-0.266-0.095-0.456-0.287-0.572
				c-0.192-0.115-0.491-0.174-0.898-0.174H25.067z M25.067,24.363v1.746h0.958c0.893,0,1.339-0.299,1.339-0.898
				c0-0.305-0.104-0.522-0.313-0.652s-0.537-0.195-0.982-0.195H25.067z"/>
		</g>
	</g>
	<g>
		<g>
			<path fill="#4B4B4D" d="M15.958,9.008l2.61-6h0.924l2.584,6h-1.221l-0.559-1.373h-2.602l-0.542,1.373H15.958z M18.06,6.72h1.864
				L19,4.279L18.06,6.72z"/>
		</g>
	</g>
</g>
</svg>
