<?xml version="1.0" encoding="utf-8"?>
<!-- Generator: Adobe Illustrator 16.0.0, SVG Export Plug-In . SVG Version: 6.00 Build 0)  -->
<!DOCTYPE svg PUBLIC "-//W3C//DTD SVG 1.1//EN" "http://www.w3.org/Graphics/SVG/1.1/DTD/svg11.dtd">
<svg version="1.1" id="Layer_1" xmlns="http://www.w3.org/2000/svg" xmlns:xlink="http://www.w3.org/1999/xlink" x="0px" y="0px"
	 width="32px" height="32px" viewBox="0 0 32 32" enable-background="new 0 0 32 32" xml:space="preserve">
<g>
	<rect x="19.5" y="19.75" fill="#4B4B4D" width="3" height="1.5"/>
	<rect x="24.5" y="19.75" fill="#4B4B4D" width="3" height="1.5"/>
	<rect x="9.5" y="19.75" fill="#4B4B4D" width="3" height="1.5"/>
	<rect x="14.5" y="19.75" fill="#4B4B4D" width="3" height="1.5"/>
	<rect x="4.5" y="19.75" fill="#4B4B4D" width="3" height="1.5"/>
	<rect x="19.5" y="15.75" fill="#4B4B4D" width="3" height="1.5"/>
	<rect x="24.5" y="15.75" fill="#4B4B4D" width="3" height="1.5"/>
	<rect x="9.5" y="15.75" fill="#4B4B4D" width="3" height="1.5"/>
	<rect x="14.5" y="15.75" fill="#4B4B4D" width="3" height="1.5"/>
	<rect x="4.5" y="15.75" fill="#4B4B4D" width="3" height="1.5"/>
	<rect x="19.5" y="10.75" fill="#4B4B4D" width="3" height="1.5"/>
	<rect x="24.5" y="10.75" fill="#4B4B4D" width="3" height="1.5"/>
	<rect x="9.5" y="10.75" fill="#4B4B4D" width="3" height="1.5"/>
	<rect x="14.5" y="10.75" fill="#4B4B4D" width="3" height="1.5"/>
	<rect x="4.5" y="10.75" fill="#4B4B4D" width="3" height="1.5"/>
	<rect x="4" y="4.75" fill="#4B4B4D" width="24" height="1.5"/>
	<rect x="4" y="25.75" fill="#4B4B4D" width="24" height="1.5"/>
</g>
</svg>
