<?xml version="1.0" encoding="utf-8"?>
<!-- Generator: Adobe Illustrator 16.0.0, SVG Export Plug-In . SVG Version: 6.00 Build 0)  -->
<!DOCTYPE svg PUBLIC "-//W3C//DTD SVG 1.1//EN" "http://www.w3.org/Graphics/SVG/1.1/DTD/svg11.dtd">
<svg version="1.1" id="Layer_1" xmlns="http://www.w3.org/2000/svg" xmlns:xlink="http://www.w3.org/1999/xlink" x="0px" y="0px"
	 width="32px" height="32px" viewBox="0 0 32 32" enable-background="new 0 0 32 32" xml:space="preserve">
<g>
	<polygon fill="#4B4B4D" points="22.593,21.657 19.297,18.361 18.413,19.244 21.71,22.541 20.465,23.786 24.75,24.75 23.786,20.464 
			"/>
	<polygon fill="#4B4B4D" points="11.535,8.214 7.25,7.25 8.214,11.536 9.459,10.291 12.756,13.588 13.641,12.703 10.343,9.406 	"/>
	<polygon fill="#4B4B4D" points="19.27,13.613 22.566,10.316 23.786,11.535 24.75,7.25 20.464,8.214 21.684,9.433 18.387,12.729 	
		"/>
	<polygon fill="#4B4B4D" points="12.729,18.386 9.432,21.683 8.214,20.465 7.25,24.75 11.536,23.786 10.316,22.567 13.613,19.271 	
		"/>
</g>
</svg>
