<?xml version="1.0" encoding="utf-8"?>
<!-- Generator: Adobe Illustrator 16.0.0, SVG Export Plug-In . SVG Version: 6.00 Build 0)  -->
<!DOCTYPE svg PUBLIC "-//W3C//DTD SVG 1.1//EN" "http://www.w3.org/Graphics/SVG/1.1/DTD/svg11.dtd">
<svg version="1.1" xmlns="http://www.w3.org/2000/svg" xmlns:xlink="http://www.w3.org/1999/xlink" x="0px" y="0px"
	viewBox="0 0 32 32" enable-background="new 0 0 32 32" xml:space="preserve">
<g id="Layer_1">
</g>
<g id="Robocza">
	<g>
		<g>
			<polygon fill="#4B4B4D" points="14.138,14.794 14.697,16.26 21.328,11.074 22.156,12.134 23.723,8.25 19.576,8.834 20.404,9.893
							"/>
			<polygon fill="#4B4B4D" points="10.841,17.372 3.761,22.909 4.685,24.091 11.401,18.838 			"/>
		</g>
		<g>
			<path fill="#4B4B4D" d="M17.075,24.159c-0.11,0-0.221-0.006-0.332-0.019c-1.334-0.154-2.439-1.211-3.113-2.976l-2.215-5.793
				c-0.469-1.226-1.177-1.967-1.995-2.087c-0.816-0.111-1.723,0.401-2.511,1.428l-3.842,4.994c-0.254,0.328-0.723,0.39-1.052,0.138
				c-0.328-0.253-0.39-0.724-0.138-1.052l3.842-4.994c1.146-1.489,2.541-2.203,3.917-1.997c1.38,0.201,2.509,1.279,3.179,3.035
				l2.215,5.793c0.458,1.199,1.146,1.936,1.885,2.021c0.736,0.08,1.576-0.477,2.296-1.54l9.141-13.53
				c0.231-0.344,0.697-0.433,1.041-0.201c0.343,0.231,0.434,0.697,0.201,1.041l-9.141,13.53
				C19.483,23.386,18.295,24.159,17.075,24.159z"/>
		</g>
	</g>
</g>
<g id="Baza">
</g>
</svg>
