<?xml version="1.0" encoding="utf-8"?>
<!-- Generator: Adobe Illustrator 16.0.0, SVG Export Plug-In . SVG Version: 6.00 Build 0)  -->
<!DOCTYPE svg PUBLIC "-//W3C//DTD SVG 1.1//EN" "http://www.w3.org/Graphics/SVG/1.1/DTD/svg11.dtd">
<svg version="1.1" id="Layer_1" xmlns="http://www.w3.org/2000/svg" xmlns:xlink="http://www.w3.org/1999/xlink" x="0px" y="0px"
	 width="32px" height="32px" viewBox="0 0 32 32" enable-background="new 0 0 32 32" xml:space="preserve">
<g>
	<path fill="#4B4B4D" d="M3.75,7.749v14.5h7.939L16,26.561l4.31-4.312h7.94v-14.5H3.75z M26.75,20.749h-7.062L16,24.439l-3.689-3.69
		H5.25v-11.5h21.5V20.749z"/>
	<polygon fill="#4B4B4D" points="9.291,18 10.735,18 10.735,13.251 12.426,13.251 12.426,12.018 7.601,12.018 7.601,13.251 
		9.291,13.251 	"/>
	<polygon fill="#4B4B4D" points="14.712,18 15.971,15.888 17.28,18 19.063,18 16.9,14.84 18.793,12.018 17.111,12.018 
		16.013,13.876 14.897,12.018 13.157,12.018 15.084,14.84 12.988,18 	"/>
	<polygon fill="#4B4B4D" points="21.265,18 22.709,18 22.709,13.251 24.399,13.251 24.399,12.018 19.574,12.018 19.574,13.251 
		21.265,13.251 	"/>
</g>
</svg>
