<svg xmlns="http://www.w3.org/2000/svg" viewBox="0 0 32 32"><defs><style>.cls-1{fill:#4b4b4d;}.cls-2{fill:none;}</style></defs><g id="Layer_2" data-name="Layer 2"><g id="Layer_7" data-name="Layer 7"><g id="logarithmic"><polyline class="cls-1" points="8.41 7.01 8.41 5.26 6.81 5.26 6.81 23.01 6.81 24.51 6.81 27.26 8.41 27.26 8.41 8.51"/><polyline class="cls-1" points="25.17 25.37 26.92 25.37 26.92 23.77 9.17 23.77 7.67 23.77 4.92 23.77 4.92 25.37 23.67 25.37"/><path class="cls-1" d="M24.66,12a2.18,2.18,0,0,0-.27-.11,12.35,12.35,0,0,0-16.64,12,9.8,9.8,0,0,0,1.88.14A10.51,10.51,0,0,1,23.77,13.61"/><rect class="cls-2" width="32" height="32"/></g></g></g></svg>