<?xml version="1.0" encoding="utf-8"?>
<!-- Generator: Adobe Illustrator 16.0.0, SVG Export Plug-In . SVG Version: 6.00 Build 0)  -->
<!DOCTYPE svg PUBLIC "-//W3C//DTD SVG 1.1//EN" "http://www.w3.org/Graphics/SVG/1.1/DTD/svg11.dtd">
<svg version="1.1" id="Layer_1" xmlns="http://www.w3.org/2000/svg" xmlns:xlink="http://www.w3.org/1999/xlink" x="0px" y="0px"
	 viewBox="0 0 32 32" enable-background="new 0 0 32 32" xml:space="preserve">
<g>
	<g>
		<rect x="24" y="4.75" fill="#4B4B4D" width="3" height="1.5"/>
		<rect x="19" y="25.75" fill="#4B4B4D" width="3" height="1.5"/>
		<rect x="9" y="4.75" fill="#4B4B4D" width="3" height="1.5"/>
		<rect x="4" y="25.75" fill="#4B4B4D" width="3" height="1.5"/>
		<rect x="19" y="4.75" fill="#4B4B4D" width="3" height="1.5"/>
		<rect x="14" y="4.75" fill="#4B4B4D" width="3" height="1.5"/>
		<path fill="#4B4B4D" d="M18.13,19.851c-0.113,0.116-0.297,0.175-0.552,0.175c-0.163,0-0.321-0.024-0.478-0.074l-0.106,1.104
			c0.205,0.05,0.425,0.074,0.658,0.074c0.531,0,0.936-0.116,1.216-0.35c0.279-0.234,0.518-0.602,0.716-1.104l2.409-6.187h-1.326
			l-1.264,3.703h-0.021l-1.423-3.703h-1.411l2.187,5.094l-0.255,0.647C18.36,19.526,18.243,19.733,18.13,19.851z"/>
		<rect x="14" y="25.75" fill="#4B4B4D" width="3" height="1.5"/>
		<rect x="8.995" y="25.75" fill="#4B4B4D" width="3" height="1.5"/>
		<rect x="4" y="4.75" fill="#4B4B4D" width="3" height="1.5"/>
		<rect x="24" y="25.75" fill="#4B4B4D" width="3" height="1.5"/>
		<polygon fill="#4B4B4D" points="13.5,7.535 11.5,11 13,11 13,21 11.5,21 13.5,24.465 15.5,21 14,21 14,11 15.5,11 		"/>
	</g>
</g>
</svg>
