<svg version="1.1" id="panning" xmlns="http://www.w3.org/2000/svg" xmlns:xlink="http://www.w3.org/1999/xlink" x="0px" y="0px"
	 viewBox="0 0 32 32" style="enable-background:new 0 0 32 32;" xml:space="preserve">
<style type="text/css">
	.st0{fill:#4B4B4D;}
	.st1{fill:none;}
</style>
<path id="panning-2" class="st0" d="M20.8,10.7v-0.4c0-1.4-1.1-2.6-2.5-2.6c-0.2,0-0.4,0-0.7,0.1C17,6.5,15.5,6,14.3,6.6
	c-0.5,0.2-0.9,0.7-1.2,1.2c-1.4-0.3-2.8,0.5-3.1,1.9C9.9,9.8,9.9,10,9.9,10.2v4.9c-0.8-0.3-1.7-0.2-2.4,0.3C6.4,16.3,6.2,17.9,7,19
	l4.6,6.5c0.2,0.3,0.6,0.5,1,0.5h8.6c0.6,0,1.1-0.4,1.2-1l1.2-5.1c0.1-0.6,0.2-1.2,0.2-1.8v-5c0-1.4-1.1-2.6-2.5-2.6
	C21.1,10.6,21,10.6,20.8,10.7z M21.9,18.3c0,0.5,0,0.9-0.1,1.3l-1.1,4.6h-7.8L8.5,18c-0.6-0.8,0.6-1.6,1.1-0.9l1,1.5
	c0.2,0.3,0.6,0.3,0.9,0.1c0.2-0.1,0.3-0.3,0.3-0.5v-8c0-0.4,0.2-0.7,0.6-0.8c0.4,0,0.7,0.2,0.8,0.6c0,0.1,0,0.1,0,0.2v5.9
	c0,0.3,0.3,0.6,0.6,0.6c0,0,0,0,0,0H14c0.3,0,0.6-0.3,0.6-0.6c0,0,0,0,0,0V8.9c0-0.4,0.2-0.7,0.6-0.8c0.4,0,0.7,0.2,0.8,0.6
	c0,0.1,0,0.1,0,0.2v7.3c0,0.3,0.3,0.6,0.6,0.6c0,0,0,0,0,0H17c0.3,0,0.6-0.3,0.6-0.6c0,0,0,0,0,0v-6c0-0.4,0.2-0.7,0.6-0.8
	c0.4,0,0.7,0.2,0.8,0.6c0,0.1,0,0.1,0,0.2v6c0,0.3,0.3,0.6,0.6,0.6c0,0,0,0,0,0h0.3c0.3,0,0.6-0.3,0.6-0.6c0,0,0,0,0,0v-2.9
	c0-0.4,0.2-0.7,0.6-0.8c0.4,0,0.7,0.2,0.8,0.6c0,0.1,0,0.1,0,0.2L21.9,18.3L21.9,18.3z"/>
<rect class="st1" width="32" height="32"/>
</svg>
