<?xml version="1.0" encoding="utf-8"?>
<!-- Generator: Adobe Illustrator 16.0.0, SVG Export Plug-In . SVG Version: 6.00 Build 0)  -->
<!DOCTYPE svg PUBLIC "-//W3C//DTD SVG 1.1//EN" "http://www.w3.org/Graphics/SVG/1.1/DTD/svg11.dtd">
<svg version="1.1" id="Layer_1" xmlns="http://www.w3.org/2000/svg" xmlns:xlink="http://www.w3.org/1999/xlink" x="0px" y="0px"
	 viewBox="0 0 32 32" enable-background="new 0 0 32 32" xml:space="preserve">
<path fill="#4B4B4D" d="M28.057,15.006l-1.059-1.062l-7.865,7.863c-0.212-0.083-0.441-0.133-0.683-0.133
	c-0.243,0-0.474,0.05-0.687,0.134l-3.254-3.255l8.548-8.548l-1.06-1.061l-8.549,8.548l-3.257-3.259
	c0.083-0.213,0.133-0.442,0.133-0.685c0-0.241-0.05-0.47-0.132-0.682l7.863-7.862l-1.059-1.061l-7.865,7.862
	c-0.212-0.083-0.441-0.133-0.683-0.133c-1.036,0-1.875,0.839-1.875,1.875s0.839,1.875,1.875,1.875c0.241,0,0.47-0.05,0.681-0.132
	l3.26,3.26l-5.206,5.205c-0.213-0.083-0.442-0.133-0.685-0.133c-1.036,0-1.875,0.84-1.875,1.875c0,1.036,0.839,1.875,1.875,1.875
	s1.875-0.839,1.875-1.875c0-0.24-0.049-0.469-0.132-0.681l5.207-5.206l3.257,3.257c-0.082,0.211-0.132,0.439-0.132,0.68
	c0,1.036,0.839,1.875,1.875,1.875s1.875-0.839,1.875-1.875c0-0.241-0.05-0.47-0.132-0.682L28.057,15.006z"/>
</svg>
