<?xml version="1.0" encoding="utf-8"?>
<!-- Generator: Adobe Illustrator 16.0.0, SVG Export Plug-In . SVG Version: 6.00 Build 0)  -->
<!DOCTYPE svg PUBLIC "-//W3C//DTD SVG 1.1//EN" "http://www.w3.org/Graphics/SVG/1.1/DTD/svg11.dtd">
<svg version="1.1" id="Layer_1" xmlns="http://www.w3.org/2000/svg" xmlns:xlink="http://www.w3.org/1999/xlink" x="0px" y="0px"
	 viewBox="0 0 32 32" enable-background="new 0 0 32 32" xml:space="preserve">
<g>
	<rect x="5" y="23.7" fill="#4B4B4D" width="3" height="1.5"/>

		<rect x="7.69" y="26.011" transform="matrix(-0.7071 -0.7071 0.7071 -0.7071 -5.046 52.9314)" fill="#4B4B4D" width="1.5" height="3"/>
	<path fill="#4B4B4D" d="M16.311,23.7l10.625-10.625l-7.159-7.158c-1.001-1.002-2.019-0.786-2.806,0.003L6.72,16.17
		c-0.614,0.613-0.952,1.423-0.952,2.28s0.338,1.667,0.952,2.28l4.47,4.47H27v-1.5H16.311z M18.716,6.978l6.099,6.098l-0.648,0.647
		l-6.438-6.438l0.304-0.304C18.228,6.783,18.521,6.784,18.716,6.978z M11.811,23.7l-4.03-4.03c-0.331-0.33-0.513-0.764-0.513-1.22
		s0.182-0.89,0.513-1.22l1.72-1.72l5.47,5.47l1.061-1.061l-5.47-5.47l6.106-6.105l6.438,6.438L14.189,23.7H11.811z"/>
</g>
</svg>
