<svg xmlns="http://www.w3.org/2000/svg" viewBox="0 0 32 32"><defs><style>.cls-1{fill:#4b4b4d;}.cls-2{fill:none;}</style></defs><g id="Layer_2" data-name="Layer 2"><g id="hlc-series"><g id="hlc-series-2" data-name="hlc-series"><polyline class="cls-1" points="5.11 12.22 5.11 24.97 6.71 24.97 6.71 20.22 9.65 20.22 9.65 18.72 6.71 18.72 6.71 6.97 5.11 6.97 5.11 10.72"/><polyline class="cls-1" points="14.2 18.14 14.2 19.89 15.8 19.89 15.8 14.14 18.75 14.14 18.75 12.64 15.8 12.64 15.8 9.89 14.2 9.89 14.2 16.64"/><polyline class="cls-1" points="22.2 22.77 22.2 5.02 23.8 5.02 23.8 6.77 26.75 6.77 26.75 8.27 23.8 8.27 23.8 27.02 22.2 27.02 22.2 24.27"/><rect class="cls-2" width="32" height="32"/></g></g></g></svg>