<svg xmlns="http://www.w3.org/2000/svg" viewBox="0 0 32 32"><g id="Layer_2" data-name="Layer 2"><g id="hollow-candlestick-series"><g id="hollow-candlestick-series-2" data-name="hollow-candlestick-series"><rect fill="#4B4B4D" x="11.07" y="14.05" width="3.25" height="8.37"/><rect fill="#4B4B4D" x="12.11" y="6.89" width="1.11" height="10.88"/><rect fill="#4B4B4D" x="12.11" y="21.4" width="1.11" height="5.38"/><path fill="#4B4B4D" d="M19.77,10.19v9.58H18.68V10.19h1.09m1.08-1.07H17.6V20.84h3.25V9.12Z"/><rect fill="#4B4B4D" x="18.64" y="20.55" width="1.11" height="2.88"/><rect fill="#4B4B4D" x="18.64" y="5.25" width="1.11" height="3.93"/><path fill="#4B4B4D" d="M6.66,17.23v5.14H5.57V17.23H6.66m1.08-1.08H4.49v7.3H7.74v-7.3Z"/><rect fill="#4B4B4D" x="5.53" y="12.35" width="1.11" height="4.31"/><rect fill="#4B4B4D" x="5.53" y="22.43" width="1.11" height="4.43"/><rect fill="#4B4B4D" x="24.01" y="12.33" width="3.25" height="8.37"/><rect fill="#4B4B4D" x="25.05" y="20.68" width="1.11" height="5.53"/><rect fill="none" width="32" height="32"/></g></g></g></svg>