<?xml version="1.0" encoding="utf-8"?>
<!-- Generator: Adobe Illustrator 16.0.0, SVG Export Plug-In . SVG Version: 6.00 Build 0)  -->
<!DOCTYPE svg PUBLIC "-//W3C//DTD SVG 1.1//EN" "http://www.w3.org/Graphics/SVG/1.1/DTD/svg11.dtd">
<svg version="1.1" id="Layer_1" xmlns="http://www.w3.org/2000/svg" xmlns:xlink="http://www.w3.org/1999/xlink" x="0px" y="0px"
	 viewBox="0 0 32 32" enable-background="new 0 0 32 32" xml:space="preserve">
<g>
	<polygon fill="#4B4B4D" points="7,26 8,26 8,23 9,23 9,18 8,18 8,14 7,14 7,18 6,18 6,23 7,23 	"/>
	<polygon fill="#4B4B4D" points="13,20 14,20 14,17 15,17 15,11 14,11 14,6 13,6 13,11 12,11 12,17 13,17 	"/>
	<polygon fill="#4B4B4D" points="19,25 20,25 20,22 21,22 21,18 20,18 20,14 19,14 19,18 18,18 18,22 19,22 	"/>
	<polygon fill="#4B4B4D" points="24,17 25,17 25,14 26,14 26,10 25,10 25,6 24,6 24,10 23,10 23,14 24,14 	"/>
</g>
</svg>
