<?xml version="1.0" encoding="utf-8"?>
<!-- Generator: Adobe Illustrator 16.0.0, SVG Export Plug-In . SVG Version: 6.00 Build 0)  -->
<!DOCTYPE svg PUBLIC "-//W3C//DTD SVG 1.1//EN" "http://www.w3.org/Graphics/SVG/1.1/DTD/svg11.dtd">
<svg version="1.1" id="Layer_1" xmlns="http://www.w3.org/2000/svg" xmlns:xlink="http://www.w3.org/1999/xlink" x="0px" y="0px"
	 viewBox="0 0 32 32" enable-background="new 0 0 32 32" xml:space="preserve">
<g>
	<polygon fill="#4B4B4D" points="16.251,11 14.751,11 14.751,23.244 13,23.244 15.5,28 18,23.243 16.251,23.243 	"/>
	<polygon fill="#4B4B4D" points="9.085,5.241 9.693,6.074 10.618,5.36 10.618,9 11.794,9 11.794,4.044 10.716,4.044 	"/>
	<path fill="#4B4B4D" d="M14.778,5.118c0.126-0.138,0.285-0.206,0.477-0.206c0.187,0,0.336,0.055,0.448,0.164
		c0.111,0.11,0.168,0.254,0.168,0.431c0,0.252-0.136,0.507-0.406,0.763l-1.933,1.75V9h3.584V7.978h-2.022l1.147-1.021
		c0.285-0.252,0.501-0.49,0.647-0.714c0.147-0.225,0.221-0.495,0.221-0.812c0-0.489-0.175-0.865-0.524-1.127
		c-0.351-0.261-0.772-0.392-1.268-0.392c-0.494,0-0.919,0.144-1.273,0.431c-0.355,0.287-0.561,0.675-0.616,1.165l1.127,0.154
		C14.578,5.437,14.652,5.256,14.778,5.118z"/>
	<path fill="#4B4B4D" d="M21.656,6.826C21.479,6.614,21.25,6.476,20.97,6.41V6.389c0.247-0.065,0.448-0.194,0.603-0.388
		c0.153-0.194,0.23-0.424,0.23-0.69c0-0.447-0.172-0.793-0.515-1.035c-0.343-0.243-0.752-0.364-1.229-0.364
		c-0.434,0-0.821,0.109-1.162,0.329c-0.341,0.219-0.569,0.529-0.686,0.931l1.092,0.252c0.037-0.168,0.118-0.302,0.241-0.402
		c0.124-0.101,0.27-0.15,0.438-0.15c0.173,0,0.32,0.049,0.441,0.146c0.121,0.099,0.182,0.231,0.182,0.399
		c0,0.392-0.289,0.588-0.867,0.588h-0.344v0.861h0.315c0.284,0,0.523,0.05,0.718,0.15c0.193,0.101,0.29,0.267,0.29,0.5
		c0,0.215-0.072,0.374-0.217,0.477s-0.312,0.154-0.504,0.154c-0.215,0-0.396-0.06-0.546-0.179s-0.248-0.265-0.294-0.438
		l-1.093,0.287c0.126,0.438,0.369,0.768,0.729,0.986c0.359,0.22,0.779,0.329,1.26,0.329c0.317,0,0.613-0.054,0.889-0.161
		s0.508-0.283,0.697-0.528c0.188-0.245,0.283-0.54,0.283-0.886C21.922,7.282,21.833,7.039,21.656,6.826z"/>
</g>
</svg>
