<?xml version="1.0" encoding="utf-8"?>
<!-- Generator: Adobe Illustrator 16.0.0, SVG Export Plug-In . SVG Version: 6.00 Build 0)  -->
<!DOCTYPE svg PUBLIC "-//W3C//DTD SVG 1.1//EN" "http://www.w3.org/Graphics/SVG/1.1/DTD/svg11.dtd">
<svg version="1.1" id="Layer_1" xmlns="http://www.w3.org/2000/svg" xmlns:xlink="http://www.w3.org/1999/xlink" x="0px" y="0px"
	 width="32px" height="32px" viewBox="0 0 32 32" enable-background="new 0 0 32 32" xml:space="preserve">
<g>
	<polygon fill="#4B4B4D" points="16.251,11 14.751,11 14.751,23.244 13,23.244 15.5,28 18,23.243 16.251,23.243 	"/>
	<polygon fill="#4B4B4D" points="8.5,5.066 9.899,5.066 9.899,9 11.097,9 11.097,5.066 12.497,5.066 12.497,4.044 8.5,4.044 	"/>
	<polygon fill="#4B4B4D" points="17.813,4.044 16.421,4.044 15.511,5.584 14.587,4.044 13.145,4.044 14.74,6.382 13.005,9 14.433,9 
		15.476,7.25 16.561,9 18.037,9 16.245,6.382 	"/>
	<polygon fill="#4B4B4D" points="18.504,4.044 18.504,5.066 19.903,5.066 19.903,9 21.101,9 21.101,5.066 22.501,5.066 
		22.501,4.044 	"/>
</g>
</svg>
