<?xml version="1.0" encoding="utf-8"?>
<!-- Generator: Adobe Illustrator 16.0.0, SVG Export Plug-In . SVG Version: 6.00 Build 0)  -->
<!DOCTYPE svg PUBLIC "-//W3C//DTD SVG 1.1//EN" "http://www.w3.org/Graphics/SVG/1.1/DTD/svg11.dtd">
<svg version="1.1" id="Layer_1" xmlns="http://www.w3.org/2000/svg" xmlns:xlink="http://www.w3.org/1999/xlink" x="0px" y="0px"
	 viewBox="0 0 32 32" enable-background="new 0 0 32 32" xml:space="preserve">
<g>
	<path fill="#4B4B4D" d="M27.083,24.917l-5.567-5.566c1.075-1.331,1.734-3.01,1.734-4.85c0-3.21-1.962-5.97-4.75-7.146v1.665
		c1.936,1.063,3.25,3.121,3.25,5.48s-1.314,4.417-3.25,5.48v1.665c0.675-0.284,1.298-0.666,1.859-1.12l5.558,5.557L27.083,24.917z"
		/>
	<polygon fill="#4B4B4D" points="16.25,18 16.25,15.25 19,15.25 19,13.75 16.25,13.75 16.25,11 14.75,11 14.75,13.75 12,13.75
		12,15.25 14.75,15.25 14.75,18 	"/>
	<path fill="#4B4B4D" d="M9.25,14.501c0-2.359,1.314-4.417,3.25-5.48V7.355c-2.788,1.176-4.75,3.936-4.75,7.146
		s1.962,5.97,4.75,7.146v-1.665C10.564,18.918,9.25,16.86,9.25,14.501z"/>
	<polygon fill="#4B4B4D" points="14.753,9 16.246,9 16.246,5.01 17.74,5.01 15.496,1.125 13.253,5.01 14.753,5.01 	"/>
	<polygon fill="#4B4B4D" points="16.239,20 14.746,20 14.746,23.986 13.252,23.986 15.496,27.874 17.739,23.986 16.239,23.986 	"/>
</g>
</svg>
