<?xml version="1.0" encoding="utf-8"?>
<!-- Generator: Adobe Illustrator 16.0.0, SVG Export Plug-In . SVG Version: 6.00 Build 0)  -->
<!DOCTYPE svg PUBLIC "-//W3C//DTD SVG 1.1//EN" "http://www.w3.org/Graphics/SVG/1.1/DTD/svg11.dtd">
<svg version="1.1" id="Layer_1" xmlns="http://www.w3.org/2000/svg" xmlns:xlink="http://www.w3.org/1999/xlink" x="0px" y="0px"
	 viewBox="0 0 32 32" enable-background="new 0 0 32 32" xml:space="preserve">
<g>
	<polygon fill="#4B4B4D" points="16.25,18 16.25,15.25 19,15.25 19,13.75 16.25,13.75 16.25,11 14.75,11 14.75,13.75 12,13.75
		12,15.25 14.75,15.25 14.75,18 	"/>
	<path fill="#4B4B4D" d="M15.5,8.251c2.359,0,4.416,1.314,5.479,3.249h1.665C21.47,8.713,18.71,6.751,15.5,6.751
		S9.53,8.713,8.355,11.5h1.665C11.084,9.565,13.141,8.251,15.5,8.251z"/>
	<path fill="#4B4B4D" d="M22.646,17.5H20.98c-1.062,1.936-3.121,3.251-5.48,3.251s-4.418-1.315-5.48-3.251H8.354
		c1.175,2.788,3.935,4.751,7.146,4.751c1.84,0,3.52-0.659,4.85-1.734l5.567,5.566l1.166-1.166l-5.558-5.557
		C21.98,18.799,22.361,18.175,22.646,17.5z"/>
	<polygon fill="#4B4B4D" points="10,13.754 6.012,13.754 6.012,12.26 2.125,14.504 6.012,16.747 6.012,15.247 10,15.247 	"/>
	<polygon fill="#4B4B4D" points="21,15.253 24.988,15.253 24.988,16.747 28.875,14.504 24.988,12.261 24.988,13.761 21,13.761 	"/>
</g>
</svg>
