<?xml version="1.0" encoding="utf-8" standalone="no"?>
<!-- Creator: Highsoft AS -->
<!DOCTYPE svg PUBLIC "-//W3C//DTD SVG 1.1//EN" "http://www.w3.org/Graphics/SVG/1.1/DTD/svg11.dtd">

<svg version="1.1" height="700pt" width="700pt" xmlns="http://www.w3.org/2000/svg" xmlns:xlink="http://www.w3.org/1999/xlink">
<title>Benelux</title>

<path fill="#CEE3F5" stroke="#6E6E6E" stroke-width="0.1" id="NL.NLD+99?" d="M417.3,7.8 L416.4,6.1 L418.6,6.0 Z">
  <desc xmlns="http://www.highcharts.com/svg/namespace">
    <hasc>-99</hasc>
    <name>NULL</name>
    <country>Netherlands</country>
    <type-en>NULL</type-en>
    <region>NULL</region>
    <woe-id>-99</woe-id>
    <longitude>6.58826</longitude>
    <note>NLD-99 (Netherlands minor island)</note>
    <subregion>NULL</subregion>
    <woe-name>NULL</woe-name>
    <fips>NULL</fips>
    <latitude>53.5413</latitude>
    <woe-label>NULL</woe-label>
    <postal-code>NULL</postal-code>
    <type>NULL</type>
    <alt-name>NULL</alt-name>
  </desc>
</path>
<path fill="#CEE3F5" stroke="#6E6E6E" stroke-width="0.1" id="NL.NLD-3486" d="M247.6,86.7 L249.7,87.7 L245.1,97.1 L240.3,101.2 L238.2,105.8 L231.1,105.5 L229.6,96.8 L233.9,87.5 L238.6,83.2 L243.3,73.8 L246.5,73.9 L249.3,82.7 Z M297.7,226.3 L291.2,226.6 L289.9,227.2 L288.1,230.5 L286.2,235.8 L285.9,237.8 L283.9,242.4 L281.9,243.9 L276.1,243.8 L267.7,246.2 L266.3,240.0 L267.0,236.6 L268.7,234.4 L266.5,231.7 L266.1,228.6 L269.3,227.3 L265.1,227.0 L263.4,227.8 L261.0,226.4 L258.5,227.9 L255.5,228.3 L253.3,231.7 L249.2,232.4 L243.4,236.4 L238.5,237.9 L235.3,240.2 L234.2,239.7 L232.5,235.8 L226.1,238.4 L221.7,239.7 L219.1,239.8 L215.5,237.3 L216.8,235.1 L217.5,230.1 L221.7,222.7 L219.4,222.2 L217.3,223.3 L210.2,220.8 L219.7,190.0 L223.3,157.0 L226.0,140.6 L230.1,129.2 L231.3,116.5 L233.2,111.4 L241.3,112.5 L239.9,117.7 L242.3,120.8 L250.6,121.5 L257.1,116.2 L267.3,112.8 L277.4,103.2 L277.4,103.4 L277.7,103.9 L278.3,106.2 L272.5,111.7 L263.9,116.4 L266.1,118.1 L271.5,128.5 L272.7,143.0 L277.8,147.8 L281.4,145.1 L284.5,144.9 L290.5,147.9 L291.7,154.0 L286.9,157.3 L284.1,163.4 L277.9,167.5 L274.9,168.4 L269.5,165.1 L265.9,165.8 L264.4,168.7 L266.3,178.0 L269.9,185.5 L270.8,189.6 L268.8,191.9 L269.6,194.3 L266.8,195.4 L271.2,200.1 L269.6,203.3 L266.2,206.2 L264.6,210.6 L260.1,209.5 L258.7,212.0 L265.3,215.8 L273.8,217.2 L279.2,220.6 L283.6,221.7 L290.2,221.2 Z">
  <desc xmlns="http://www.highcharts.com/svg/namespace">
    <hasc>NL.NH</hasc>
    <name>Noord-Holland</name>
    <country>Netherlands</country>
    <type-en>Province</type-en>
    <region>NULL</region>
    <woe-id>2346379</woe-id>
    <longitude>4.89736</longitude>
    <note>NULL</note>
    <subregion>NULL</subregion>
    <woe-name>Noord-Holland</woe-name>
    <fips>NL07</fips>
    <latitude>52.5748</latitude>
    <woe-label>North Holland, NL, Netherlands</woe-label>
    <postal-code>NULL</postal-code>
    <type>Provincie</type>
    <alt-name>Holanda do Norte|Hollande-septentrionale|North Holland</alt-name>
  </desc>
</path>

<path fill="#CEE3F5" stroke="#6E6E6E" stroke-width="0.1" id="BE.BEL-3474" d="M206.7,461.6 L208.4,466.1 L206.8,467.9 L213.0,475.9 L210.7,476.2 L213.4,480.3 L204.8,485.2 L200.2,485.4 L197.1,483.4 L194.2,477.5 L192.3,478.5 L189.4,473.7 L192.2,473.2 L193.6,464.4 L197.5,462.4 Z">
  <desc xmlns="http://www.highcharts.com/svg/namespace">
    <hasc>BE.BU</hasc>
    <name>Brussels</name>
    <country>Belgium</country>
    <type-en>Capital Region</type-en>
    <region>Capital Region</region>
    <woe-id>55965974</woe-id>
    <longitude>4.36266</longitude>
    <note>Formerly part of Brabant (since 1962)</note>
    <subregion>NULL</subregion>
    <woe-name>Brussels</woe-name>
    <fips>BE11</fips>
    <latitude>50.8332</latitude>
    <woe-label>Capital Region of Brussels, BE, Belgium</woe-label>
    <postal-code>NULL</postal-code>
    <type>Hoofdstedelijk Gewest|Région Capitale</type>
    <alt-name>Bruselas|Brussel Hoofstadt|Brusselse Hoofdstedelijke Gewest|Brüssel|Bruxelas|Région de Bruxelles-Capitale</alt-name>
  </desc>
</path>

<path fill="#CEE3F5" stroke="#6E6E6E" stroke-width="0.1" id="NL.FR" d="M251.4,67.1 L245.7,68.1 L256.3,56.1 L263.1,51.9 L261.4,55.7 Z M300.4,35.0 L278.5,44.8 L275.6,44.9 L275.4,39.4 L284.8,35.6 L298.3,32.3 L301.2,29.9 L316.1,26.4 L313.9,29.8 L305.2,31.4 Z M349.3,21.7 L353.5,23.7 L333.1,26.9 L325.8,30.1 L325.0,23.7 Z M373.5,21.5 L371.6,24.2 L370.3,19.5 L379.1,14.5 L389.1,13.1 L390.6,15.1 Z M392.3,84.7 L392.2,87.0 L397.1,89.3 L398.7,95.2 L404.6,102.4 L405.6,106.6 L402.4,112.1 L397.6,115.6 L394.1,113.5 L389.1,113.1 L384.1,118.9 L375.7,126.0 L371.4,127.9 L367.8,128.7 L367.3,130.1 L365.9,131.9 L361.9,131.8 L360.4,130.7 L359.1,129.0 L355.6,129.9 L353.3,133.2 L350.3,135.1 L349.0,135.3 L346.1,135.0 L344.4,133.8 L340.7,135.9 L339.5,133.3 L335.8,130.1 L333.4,130.6 L332.7,129.6 L325.2,127.7 L318.7,130.8 L315.5,130.7 L311.7,128.9 L305.2,128.9 L301.9,128.2 L297.5,124.7 L297.1,121.9 L301.8,116.8 L300.3,114.1 L302.2,109.4 L300.7,104.8 L301.3,100.6 L297.9,94.7 L296.7,91.1 L288.3,96.8 L278.3,106.2 L277.7,103.9 L277.4,103.4 L277.4,103.2 L290.6,90.3 L297.3,87.6 L299.3,83.3 L303.5,66.4 L312.8,58.3 L317.7,52.0 L324.6,50.2 L328.0,47.0 L344.0,39.8 L356.5,32.9 L377.3,31.2 L376.3,33.4 L375.9,35.5 L377.0,39.1 L380.4,40.2 L382.9,42.3 L384.7,41.5 L386.6,42.0 L387.3,43.5 L387.1,47.3 L388.3,47.9 L385.1,51.7 L384.3,54.7 L381.8,59.9 L382.7,62.8 L382.5,64.0 L379.0,69.2 L378.0,71.4 L377.5,75.0 L378.1,78.6 L380.5,81.0 L381.4,81.2 L385.8,81.4 L387.6,82.0 Z">
  <desc xmlns="http://www.highcharts.com/svg/namespace">
    <hasc>NL.FR</hasc>
    <name>Friesland</name>
    <country>Netherlands</country>
    <type-en>Province</type-en>
    <region>NULL</region>
    <woe-id>2346374</woe-id>
    <longitude>5.77345</longitude>
    <note>NULL</note>
    <subregion>NULL</subregion>
    <woe-name>Friesland</woe-name>
    <fips>NL02</fips>
    <latitude>53.0792</latitude>
    <woe-label>Friesland, NL, Netherlands</woe-label>
    <postal-code>FR</postal-code>
    <type>Provincie</type>
    <alt-name>Frise|Frisia|Frísia</alt-name>
  </desc>
</path>

<path fill="#CEE3F5" stroke="#6E6E6E" stroke-width="0.1" id="NL.GR" d="M403.3,5.0 L409.0,7.2 L407.7,8.5 L402.1,6.4 Z M472.5,123.2 L469.8,120.0 L466.6,118.6 L468.5,112.8 L467.6,111.2 L462.2,105.2 L457.1,99.0 L449.2,91.5 L444.6,87.5 L436.1,79.2 L434.5,78.3 L431.7,78.2 L425.0,80.8 L423.4,77.7 L419.7,73.2 L417.7,71.9 L414.0,66.8 L412.9,67.0 L407.6,64.9 L402.2,69.7 L399.5,73.1 L396.7,81.7 L395.2,84.8 L392.3,84.7 L387.6,82.0 L385.8,81.4 L381.4,81.2 L380.5,81.0 L378.1,78.6 L377.5,75.0 L378.0,71.4 L379.0,69.2 L382.5,64.0 L382.7,62.8 L381.8,59.9 L384.3,54.7 L385.1,51.7 L388.3,47.9 L387.1,47.3 L387.3,43.5 L386.6,42.0 L384.7,41.5 L382.9,42.3 L380.4,40.2 L377.0,39.1 L375.9,35.5 L376.3,33.4 L377.3,31.2 L386.1,30.5 L390.9,32.3 L393.4,30.2 L408.3,25.0 L431.9,20.1 L442.0,21.3 L446.0,23.8 L450.2,37.6 L455.3,41.7 L462.7,44.7 L466.6,45.2 L469.3,43.7 L468.3,46.2 L469.3,51.0 L472.5,52.6 L481.1,54.0 L481.9,61.5 L480.0,74.4 L481.5,77.8 L483.1,89.8 L483.3,95.9 L482.7,101.4 L480.8,107.2 L473.2,120.9 Z">
  <desc xmlns="http://www.highcharts.com/svg/namespace">
    <hasc>NL.GR</hasc>
    <name>Groningen</name>
    <country>Netherlands</country>
    <type-en>Province</type-en>
    <region>NULL</region>
    <woe-id>2346376</woe-id>
    <longitude>6.73067</longitude>
    <note>NULL</note>
    <subregion>NULL</subregion>
    <woe-name>Groningen</woe-name>
    <fips>NL04</fips>
    <latitude>53.279</latitude>
    <woe-label>Groningen, NL, Netherlands</woe-label>
    <postal-code>GR</postal-code>
    <type>Provincie</type>
    <alt-name>Groninga|Groningue</alt-name>
  </desc>
</path>

<path fill="#CEE3F5" stroke="#6E6E6E" stroke-width="0.1" id="NL.FL" d="M347.8,175.2 L350.1,182.6 L349.0,190.4 L342.7,199.9 L328.1,205.8 L326.0,209.1 L318.5,212.3 L319.1,221.7 L313.3,226.5 L306.5,227.0 L297.3,221.2 L286.7,217.0 L278.0,216.0 L275.7,209.1 L286.7,201.3 L291.0,196.8 L298.7,193.4 L303.2,188.9 L308.3,186.0 L310.6,179.5 L314.5,178.7 L320.6,172.7 L328.4,169.0 L331.3,171.9 Z M340.7,135.9 L348.3,139.7 L353.3,143.4 L355.3,146.1 L357.9,154.7 L356.1,157.7 L363.6,160.4 L365.9,163.0 L362.7,165.0 L357.8,166.9 L353.2,166.6 L347.8,169.6 L344.4,168.1 L329.1,168.9 L322.2,159.3 L321.8,152.7 L323.0,141.4 L327.3,133.7 L333.4,130.6 L335.8,130.1 L339.5,133.3 Z">
  <desc xmlns="http://www.highcharts.com/svg/namespace">
    <hasc>NL.FL</hasc>
    <name>Flevoland</name>
    <country>Netherlands</country>
    <type-en>Province</type-en>
    <region>NULL</region>
    <woe-id>2346384</woe-id>
    <longitude>5.55746</longitude>
    <note>NULL</note>
    <subregion>NULL</subregion>
    <woe-name>Flevoland</woe-name>
    <fips>NL16</fips>
    <latitude>52.5508</latitude>
    <woe-label>Flevoland, NL, Netherlands</woe-label>
    <postal-code>FL</postal-code>
    <type>Provincie</type>
    <alt-name>NULL</alt-name>
  </desc>
</path>

<path fill="#CEE3F5" stroke="#6E6E6E" stroke-width="0.1" id="NL.ZE" d="M161.4,327.5 L163.7,330.2 L170.1,332.7 L169.3,337.2 L165.8,339.2 L157.7,340.9 L149.6,337.8 L147.8,333.3 L138.3,328.1 L135.1,331.8 L130.4,332.1 L126.8,329.4 L127.1,324.0 L130.9,321.4 L139.7,320.1 L153.4,320.9 L157.4,322.7 Z M184.1,383.8 L182.7,390.1 L178.7,395.9 L173.4,400.1 L160.4,407.0 L153.2,411.6 L140.6,411.9 L137.6,409.5 L137.0,403.6 L122.0,398.1 L109.1,399.4 L107.8,406.3 L102.8,407.1 L96.9,405.6 L92.0,398.2 L92.5,390.0 L91.5,383.5 L108.6,377.9 L111.8,376.4 L118.6,380.7 L129.0,383.5 L134.7,387.5 L145.6,388.1 L155.9,383.5 L158.8,376.9 L165.1,378.9 L168.0,383.6 L173.5,385.4 L177.2,385.6 L179.7,382.2 Z M184.6,358.0 L169.8,355.7 L158.8,346.4 L167.2,342.9 L176.6,343.2 L181.9,346.1 L185.2,349.8 L185.8,354.7 Z M188.4,370.7 L188.9,373.3 L188.2,375.1 L188.8,380.3 L189.8,381.1 L190.4,383.5 L188.3,383.5 L186.4,375.8 L181.8,377.5 L172.3,377.3 L167.9,375.4 L162.0,370.4 L154.4,370.2 L150.1,378.0 L142.2,380.4 L138.1,376.9 L131.7,373.8 L127.5,369.9 L119.1,371.5 L111.2,369.2 L106.8,362.1 L103.3,359.1 L102.8,353.0 L113.6,346.2 L141.9,342.8 L147.6,345.6 L150.2,350.1 L146.6,353.5 L156.7,354.5 L161.9,356.5 L166.3,360.2 L169.9,368.7 L174.0,371.5 L179.6,370.6 L181.6,371.7 Z M180.8,338.0 L180.8,338.2 L179.6,341.6 L175.5,341.5 L172.4,339.4 L171.6,336.6 L173.7,334.7 L178.3,337.2 Z">
  <desc xmlns="http://www.highcharts.com/svg/namespace">
    <hasc>NL.ZE</hasc>
    <name>Zeeland</name>
    <country>Netherlands</country>
    <type-en>Province</type-en>
    <region>NULL</region>
    <woe-id>2346382</woe-id>
    <longitude>3.78515</longitude>
    <note>NULL</note>
    <subregion>NULL</subregion>
    <woe-name>Zeeland</woe-name>
    <fips>NL10</fips>
    <latitude>51.2837</latitude>
    <woe-label>Zeeland, NL, Netherlands</woe-label>
    <postal-code>ZE</postal-code>
    <type>Provincie</type>
    <alt-name>Zelanda|Zélande|Zelândia</alt-name>
  </desc>
</path>

<path fill="#CEE3F5" stroke="#6E6E6E" stroke-width="0.1" id="NL.NLD-3483" d="M188.4,370.7 L191.8,366.2 L188.6,359.9 L184.6,358.0 L185.8,354.7 L185.2,349.8 L181.9,346.1 L181.4,342.9 L180.0,341.7 L179.6,341.6 L180.8,338.2 L180.8,338.0 L195.1,334.6 L199.2,331.7 L202.2,325.7 L217.2,327.5 L230.9,323.2 L237.5,313.7 L242.6,308.8 L251.0,307.7 L255.0,303.9 L265.5,304.4 L265.9,306.7 L271.6,311.4 L279.3,313.5 L279.2,319.4 L298.4,316.6 L303.4,311.7 L304.7,305.5 L311.0,304.5 L317.1,301.1 L320.7,302.9 L327.4,301.6 L332.1,302.5 L334.2,306.5 L344.8,312.4 L355.6,312.6 L357.8,313.5 L358.5,317.6 L364.5,318.9 L366.2,320.1 L368.9,329.6 L371.6,332.0 L374.4,336.7 L376.6,344.5 L375.0,346.0 L371.3,344.1 L362.2,346.7 L354.3,345.3 L356.3,355.9 L359.1,365.5 L362.9,370.3 L365.7,375.7 L359.6,381.2 L338.7,388.4 L334.1,396.0 L333.4,401.7 L332.1,403.8 L326.1,405.8 L324.1,398.1 L317.2,394.0 L308.6,399.2 L296.0,399.1 L292.7,400.0 L290.1,399.8 L289.9,393.8 L287.9,391.5 L280.0,390.8 L277.7,384.6 L273.9,380.6 L273.4,375.3 L274.8,369.7 L272.6,365.8 L267.5,363.9 L265.9,368.6 L261.9,374.8 L257.1,378.1 L251.0,375.9 L241.3,374.9 L243.0,372.6 L247.7,374.7 L246.8,371.8 L247.6,364.2 L241.1,360.8 L237.7,362.7 L229.7,373.0 L227.3,374.4 L217.8,374.3 L215.7,372.9 L216.8,366.3 L211.5,365.2 L205.8,367.4 L200.4,370.8 L201.7,372.2 L200.8,376.4 L204.7,382.4 L202.3,386.4 L197.3,386.2 L190.4,383.5 L189.8,381.1 L188.8,380.3 L188.2,375.1 L188.9,373.3 Z">
  <desc xmlns="http://www.highcharts.com/svg/namespace">
    <hasc>NL.NB</hasc>
    <name>Noord-Brabant</name>
    <country>Netherlands</country>
    <type-en>Province</type-en>
    <region>NULL</region>
    <woe-id>2346378</woe-id>
    <longitude>5.16122</longitude>
    <note>NULL</note>
    <subregion>NULL</subregion>
    <woe-name>Noord-Brabant</woe-name>
    <fips>NL06</fips>
    <latitude>51.6008</latitude>
    <woe-label>North Brabant, NL, Netherlands</woe-label>
    <postal-code>NULL</postal-code>
    <type>Provincie</type>
    <alt-name>Brabante del Norte|Brabante do Norte|Brabante settentrionale|Brabant-septentrional|Nord-Brabant|Nort</alt-name>
  </desc>
</path>

<path fill="#CEE3F5" stroke="#6E6E6E" stroke-width="0.1" id="NL.NLD-3484" d="M297.7,226.3 L300.1,227.9 L304.7,229.9 L304.8,229.9 L304.1,236.3 L304.7,237.2 L308.5,240.2 L308.4,241.9 L307.1,243.7 L307.8,244.9 L312.5,246.0 L316.6,250.0 L316.3,253.9 L315.2,253.9 L313.9,257.5 L312.3,259.3 L315.7,261.4 L318.5,259.9 L319.7,258.3 L319.3,255.7 L321.0,255.2 L322.4,260.5 L322.4,264.6 L323.5,269.7 L324.9,272.0 L327.2,274.3 L328.8,278.1 L328.5,281.5 L324.9,280.8 L316.7,276.2 L312.2,275.4 L307.9,277.9 L303.9,277.0 L301.6,277.6 L298.6,280.0 L296.5,280.7 L290.5,277.6 L288.9,278.0 L287.1,279.5 L283.0,279.9 L280.0,278.8 L277.5,275.1 L274.7,273.8 L270.5,275.8 L267.1,279.1 L262.7,278.2 L259.2,280.5 L256.3,283.6 L252.9,284.0 L252.2,285.1 L245.4,275.8 L248.4,273.8 L247.9,271.8 L243.2,272.6 L242.7,271.5 L245.9,266.4 L250.6,263.0 L245.9,263.1 L244.4,256.8 L241.4,255.1 L244.4,251.6 L249.1,252.2 L247.7,247.5 L248.7,246.7 L243.5,242.5 L241.2,241.6 L238.5,237.9 L243.4,236.4 L249.2,232.4 L253.3,231.7 L255.5,228.3 L258.5,227.9 L261.0,226.4 L263.4,227.8 L265.1,227.0 L269.3,227.3 L266.1,228.6 L266.5,231.7 L268.7,234.4 L267.0,236.6 L266.3,240.0 L267.7,246.2 L276.1,243.8 L281.9,243.9 L283.9,242.4 L285.9,237.8 L286.2,235.8 L288.1,230.5 L289.9,227.2 L291.2,226.6 Z">
  <desc xmlns="http://www.highcharts.com/svg/namespace">
    <hasc>NL.UT</hasc>
    <name>Utrecht</name>
    <country>Netherlands</country>
    <type-en>Province</type-en>
    <region>NULL</region>
    <woe-id>2346381</woe-id>
    <longitude>5.1938</longitude>
    <note>NULL</note>
    <subregion>NULL</subregion>
    <woe-name>Utrecht</woe-name>
    <fips>NL09</fips>
    <latitude>52.0749</latitude>
    <woe-label>Utrecht, NL, Netherlands</woe-label>
    <postal-code>NULL</postal-code>
    <type>Provincie</type>
    <alt-name>NULL</alt-name>
  </desc>
</path>

<path fill="#CEE3F5" stroke="#6E6E6E" stroke-width="0.1" id="NL.NLD-3485" d="M238.5,237.9 L241.2,241.6 L243.5,242.5 L248.7,246.7 L247.7,247.5 L249.1,252.2 L244.4,251.6 L241.4,255.1 L244.4,256.8 L245.9,263.1 L250.6,263.0 L245.9,266.4 L242.7,271.5 L243.2,272.6 L247.9,271.8 L248.4,273.8 L245.4,275.8 L252.2,285.1 L252.9,284.0 L256.3,283.6 L259.2,280.5 L262.7,278.2 L267.1,279.1 L270.5,275.8 L274.7,273.8 L277.5,275.1 L280.0,278.8 L283.0,279.9 L280.6,285.3 L276.6,292.8 L277.0,295.4 L267.9,299.8 L264.9,300.1 L265.5,304.4 L255.0,303.9 L251.0,307.7 L242.6,308.8 L237.5,313.7 L230.9,323.2 L217.2,327.5 L202.2,325.7 L199.2,331.7 L195.1,334.6 L180.8,338.0 L178.3,337.2 L173.7,334.7 L171.6,336.6 L171.7,332.6 L174.9,330.3 L178.5,329.9 L174.7,326.9 L167.3,324.8 L165.8,322.6 L165.0,317.0 L163.2,313.5 L157.6,309.2 L155.6,310.7 L146.1,313.0 L145.1,308.3 L155.5,302.9 L165.3,305.0 L167.6,303.4 L162.7,296.9 L163.5,289.8 L160.2,280.3 L161.5,277.9 L166.4,278.9 L170.4,278.2 L173.9,275.8 L188.6,257.3 L201.0,238.4 L210.2,220.8 L217.3,223.3 L219.4,222.2 L221.7,222.7 L217.5,230.1 L216.8,235.1 L215.5,237.3 L219.1,239.8 L221.7,239.7 L226.1,238.4 L232.5,235.8 L234.2,239.7 L235.3,240.2 Z">
  <desc xmlns="http://www.highcharts.com/svg/namespace">
    <hasc>NL.ZH</hasc>
    <name>Zuid-Holland</name>
    <country>Netherlands</country>
    <type-en>Province</type-en>
    <region>NULL</region>
    <woe-id>2346383</woe-id>
    <longitude>4.52252</longitude>
    <note>NULL</note>
    <subregion>NULL</subregion>
    <woe-name>Zuid-Holland</woe-name>
    <fips>NL11</fips>
    <latitude>52.0075</latitude>
    <woe-label>South Holland, NL, Netherlands</woe-label>
    <postal-code>NULL</postal-code>
    <type>Provincie</type>
    <alt-name>Hollande-méridionale|South Holland</alt-name>
  </desc>
</path>

<path fill="#CEE3F5" stroke="#6E6E6E" stroke-width="0.1" id="BE.BEL-2" d="M210.6,626.5 L194.2,622.3 L184.3,623.2 L179.0,620.1 L178.1,612.8 L179.4,610.6 L186.5,605.5 L183.1,594.2 L178.7,594.8 L177.1,594.1 L177.3,591.0 L180.3,579.7 L185.0,574.7 L185.3,573.0 L180.8,569.5 L179.4,570.1 L178.7,573.1 L176.7,572.2 L173.7,565.9 L169.1,562.6 L165.4,558.7 L161.0,558.0 L154.1,561.0 L151.7,561.0 L145.6,557.7 L141.1,557.2 L134.9,558.2 L130.1,565.8 L126.3,562.3 L125.3,555.4 L125.2,547.5 L124.2,540.9 L120.3,535.7 L115.4,534.0 L108.4,534.0 L107.1,533.1 L107.6,528.9 L104.5,528.6 L100.9,531.5 L96.1,533.3 L91.6,533.1 L86.9,530.7 L83.7,527.4 L83.0,520.0 L80.1,510.5 L79.2,505.6 L80.7,502.8 L78.6,497.2 L75.7,496.5 L72.0,489.6 L78.1,486.6 L82.5,489.2 L87.1,488.4 L89.2,494.0 L93.6,496.3 L103.6,486.3 L107.6,487.9 L112.6,491.9 L119.7,492.0 L122.7,494.1 L127.0,485.6 L130.1,483.8 L131.3,486.1 L137.8,489.3 L150.7,491.7 L152.1,498.4 L160.9,499.3 L163.1,497.5 L168.4,497.9 L169.9,495.1 L172.8,496.0 L171.8,498.8 L173.2,508.0 L177.6,508.4 L182.1,503.2 L183.7,509.4 L189.5,510.8 L188.9,514.4 L192.5,515.0 L195.2,519.2 L213.0,520.3 L213.3,525.4 L218.3,525.7 L224.8,522.8 L223.0,531.2 L226.9,530.2 L224.7,540.1 L229.4,542.8 L226.2,546.9 L225.9,553.9 L226.8,560.2 L219.5,561.6 L214.4,559.4 L212.3,563.3 L206.2,562.6 L205.4,565.7 L194.2,571.8 L200.0,576.5 L206.7,575.7 L206.4,583.6 L202.5,586.7 L206.8,593.9 L206.2,606.3 L212.3,622.2 Z M57.0,486.5 L46.9,491.9 L43.7,497.5 L40.1,498.1 L37.5,489.4 L41.1,487.5 L42.6,488.9 L46.1,486.7 L50.2,485.1 L48.1,481.7 L54.3,479.2 Z">
  <desc xmlns="http://www.highcharts.com/svg/namespace">
    <hasc>BE.</hasc>
    <name>Hainaut</name>
    <country>Belgium</country>
    <type-en>Province</type-en>
    <region>Walloon</region>
    <woe-id>7153299</woe-id>
    <longitude>3.88925</longitude>
    <note>NULL</note>
    <subregion>NULL</subregion>
    <woe-name>Hainaut</woe-name>
    <fips>NULL</fips>
    <latitude>50.521</latitude>
    <woe-label>Hainault, BE, Belgium</woe-label>
    <postal-code>NULL</postal-code>
    <type>Province</type>
    <alt-name>Henegouwen</alt-name>
  </desc>
</path>

<path fill="#CEE3F5" stroke="#6E6E6E" stroke-width="0.1" id="BE.BEL-3" d="M292.7,400.0 L296.0,399.1 L308.6,399.2 L317.2,394.0 L324.1,398.1 L326.1,405.8 L327.9,407.2 L334.0,408.9 L337.8,411.7 L344.0,410.6 L347.2,411.6 L351.0,415.8 L356.0,414.9 L357.4,417.8 L355.7,421.3 L358.2,423.8 L353.9,425.1 L354.7,427.5 L352.7,432.2 L350.5,431.8 L349.9,435.7 L351.4,437.6 L345.9,448.7 L350.4,448.6 L345.7,457.2 L343.3,458.3 L335.8,467.2 L336.2,471.0 L339.9,474.7 L334.8,480.2 L325.6,483.3 L325.9,486.0 L321.4,489.1 L319.2,486.9 L318.4,489.9 L316.0,490.2 L310.2,485.4 L305.3,487.2 L302.8,491.1 L299.3,489.3 L294.3,491.3 L287.8,495.1 L280.6,493.2 L280.8,481.0 L285.5,475.8 L283.1,475.0 L285.4,464.3 L288.8,459.6 L278.9,459.1 L273.1,453.8 L277.3,449.9 L277.3,446.2 L281.7,444.0 L280.9,440.0 L285.2,439.9 L282.2,436.2 L276.8,435.7 L276.9,439.9 L270.7,440.8 L266.2,438.3 L269.1,431.6 L281.7,424.0 L295.5,418.4 L290.5,407.6 Z M348.3,482.7 L350.3,480.1 L354.8,483.6 L365.4,483.3 L365.1,489.8 L357.7,489.7 L353.0,483.8 Z">
  <desc xmlns="http://www.highcharts.com/svg/namespace">
    <hasc>BE.</hasc>
    <name>Limburg</name>
    <country>Belgium</country>
    <type-en>Province</type-en>
    <region>Flemish</region>
    <woe-id>7153301</woe-id>
    <longitude>5.41314</longitude>
    <note>NULL</note>
    <subregion>NULL</subregion>
    <woe-name>Limburg</woe-name>
    <fips>NULL</fips>
    <latitude>50.9954</latitude>
    <woe-label>Limburg, BE, Belgium</woe-label>
    <postal-code>NULL</postal-code>
    <type>Province</type>
    <alt-name>NULL</alt-name>
  </desc>
</path>

<path fill="#CEE3F5" stroke="#6E6E6E" stroke-width="0.1" id="BE.BEL-3475" d="M172.8,496.0 L169.9,495.1 L168.4,497.9 L163.1,497.5 L160.9,499.3 L152.1,498.4 L150.7,491.7 L156.7,491.6 L154.6,487.7 L157.2,483.9 L160.0,486.0 L168.4,481.6 L169.9,476.8 L166.1,473.8 L171.0,466.5 L171.4,457.9 L178.7,458.1 L178.8,447.8 L184.7,447.8 L187.0,439.7 L190.7,438.6 L198.6,441.3 L203.5,446.2 L209.9,444.5 L214.3,444.0 L217.9,446.6 L219.8,444.8 L224.9,446.7 L226.2,443.2 L234.0,441.0 L236.9,442.5 L245.6,438.1 L248.9,442.9 L264.7,436.5 L266.2,438.3 L270.7,440.8 L276.9,439.9 L276.8,435.7 L282.2,436.2 L285.2,439.9 L280.9,440.0 L281.7,444.0 L277.3,446.2 L277.3,449.9 L273.1,453.8 L278.9,459.1 L288.8,459.6 L285.4,464.3 L283.1,475.0 L285.5,475.8 L280.8,481.0 L280.6,493.2 L276.1,493.0 L274.3,487.8 L271.6,486.3 L267.4,483.2 L262.3,487.5 L260.7,487.8 L259.6,483.6 L251.5,484.7 L246.9,478.9 L242.4,477.4 L236.3,480.6 L230.7,479.2 L232.4,486.2 L230.3,488.7 L223.6,488.1 L218.9,489.3 L218.7,491.4 L215.3,489.5 L215.2,486.7 L211.2,487.3 L207.4,490.4 L202.2,491.3 L201.7,493.9 L195.6,493.6 L195.3,496.2 L193.0,497.7 L190.1,496.7 L188.0,498.3 L184.4,495.5 L181.5,495.6 L179.1,492.4 L176.3,494.3 L173.6,494.3 Z M206.7,461.6 L197.5,462.4 L193.6,464.4 L192.2,473.2 L189.4,473.7 L192.3,478.5 L194.2,477.5 L197.1,483.4 L200.2,485.4 L204.8,485.2 L213.4,480.3 L210.7,476.2 L213.0,475.9 L206.8,467.9 L208.4,466.1 Z">
  <desc xmlns="http://www.highcharts.com/svg/namespace">
    <hasc>BE.VB</hasc>
    <name>Flemish Brabant</name>
    <country>Belgium</country>
    <type-en>Province</type-en>
    <region>Flemish</region>
    <woe-id>22525998</woe-id>
    <longitude>4.53709</longitude>
    <note>NULL</note>
    <subregion>NULL</subregion>
    <woe-name>Flemish Brabant</woe-name>
    <fips>NULL</fips>
    <latitude>50.8709</latitude>
    <woe-label>Vlaams Brabant, BE, Belgium</woe-label>
    <postal-code>NULL</postal-code>
    <type>Province</type>
    <alt-name>Vlaams Brabant|Flamish-Brabant|Brabant flamand</alt-name>
  </desc>
</path>

<path fill="#CEE3F5" stroke="#6E6E6E" stroke-width="0.1" id="BE.BEL-3476" d="M270.4,648.3 L263.7,650.3 L258.3,650.4 L257.2,642.8 L255.8,640.0 L258.0,632.6 L258.0,628.9 L256.3,625.8 L251.0,623.8 L249.9,618.8 L253.9,608.2 L253.8,603.4 L255.8,598.9 L257.6,600.0 L258.4,590.5 L257.3,589.2 L252.7,589.5 L252.1,587.0 L249.2,588.4 L237.9,600.4 L237.2,611.9 L235.5,616.6 L229.8,618.2 L214.7,626.1 L210.6,626.5 L212.3,622.2 L206.2,606.3 L206.8,593.9 L202.5,586.7 L206.4,583.6 L206.7,575.7 L200.0,576.5 L194.2,571.8 L205.4,565.7 L206.2,562.6 L212.3,563.3 L214.4,559.4 L219.5,561.6 L226.8,560.2 L225.9,553.9 L226.2,546.9 L229.4,542.8 L224.7,540.1 L226.9,530.2 L223.0,531.2 L224.8,522.8 L228.0,518.2 L234.4,518.9 L233.0,513.6 L238.3,513.6 L241.5,510.9 L242.3,514.3 L247.9,511.7 L262.3,507.5 L264.7,504.1 L268.1,504.8 L267.9,508.9 L273.3,513.7 L276.3,521.8 L282.0,527.5 L292.0,532.1 L296.5,538.8 L296.3,544.4 L301.7,545.7 L303.3,550.8 L309.1,546.6 L313.8,548.1 L312.6,553.3 L314.2,555.3 L308.4,559.9 L313.1,558.5 L314.3,563.7 L303.9,572.1 L294.3,575.9 L298.6,578.1 L298.7,581.5 L302.7,585.9 L298.7,590.1 L301.5,592.6 L295.2,596.4 L282.7,597.9 L280.4,597.2 L279.6,592.5 L278.1,602.9 L271.9,608.7 L274.1,616.7 L279.9,616.2 L284.2,620.0 L283.9,623.8 L286.3,626.1 L278.2,631.2 L280.0,632.9 L272.0,639.1 L272.6,643.8 Z">
  <desc xmlns="http://www.highcharts.com/svg/namespace">
    <hasc>BE.</hasc>
    <name>Namur</name>
    <country>Belgium</country>
    <type-en>Province</type-en>
    <region>Walloon</region>
    <woe-id>7153303</woe-id>
    <longitude>4.88712</longitude>
    <note>NULL</note>
    <subregion>NULL</subregion>
    <woe-name>Namur</woe-name>
    <fips>NULL</fips>
    <latitude>50.3244</latitude>
    <woe-label>Namur, BE, Belgium</woe-label>
    <postal-code>NULL</postal-code>
    <type>Province</type>
    <alt-name>Namen</alt-name>
  </desc>
</path>

<path fill="#CEE3F5" stroke="#6E6E6E" stroke-width="0.1" id="NL.DR" d="M472.5,123.2 L471.0,131.9 L470.7,156.2 L463.7,158.5 L443.3,158.8 L438.1,161.5 L437.0,160.9 L436.6,158.2 L435.6,157.3 L428.0,154.3 L423.6,155.0 L418.8,157.9 L417.4,160.1 L417.9,165.1 L413.5,163.3 L410.9,164.3 L408.2,162.8 L404.6,164.6 L403.5,164.4 L401.5,160.8 L398.0,157.8 L397.2,156.5 L391.8,156.8 L387.7,154.5 L386.0,153.9 L383.9,155.3 L382.5,155.1 L380.5,152.9 L376.5,143.8 L377.4,142.0 L380.1,140.5 L383.6,136.7 L384.0,135.2 L375.7,126.0 L384.1,118.9 L389.1,113.1 L394.1,113.5 L397.6,115.6 L402.4,112.1 L405.6,106.6 L404.6,102.4 L398.7,95.2 L397.1,89.3 L392.2,87.0 L392.3,84.7 L395.2,84.8 L396.7,81.7 L399.5,73.1 L402.2,69.7 L407.6,64.9 L412.9,67.0 L414.0,66.8 L417.7,71.9 L419.7,73.2 L423.4,77.7 L425.0,80.8 L431.7,78.2 L434.5,78.3 L436.1,79.2 L444.6,87.5 L449.2,91.5 L457.1,99.0 L462.2,105.2 L467.6,111.2 L468.5,112.8 L466.6,118.6 L469.8,120.0 Z">
  <desc xmlns="http://www.highcharts.com/svg/namespace">
    <hasc>NL.DR</hasc>
    <name>Drenthe</name>
    <country>Netherlands</country>
    <type-en>Province</type-en>
    <region>NULL</region>
    <woe-id>2346373</woe-id>
    <longitude>6.60064</longitude>
    <note>NULL</note>
    <subregion>NULL</subregion>
    <woe-name>Drenthe</woe-name>
    <fips>NL01</fips>
    <latitude>52.9046</latitude>
    <woe-label>Drenthe, NL, Netherlands</woe-label>
    <postal-code>DR</postal-code>
    <type>Provincie</type>
    <alt-name>NULL</alt-name>
  </desc>
</path>

<path fill="#CEE3F5" stroke="#6E6E6E" stroke-width="0.1" id="BE.BEL-3477" d="M362.2,689.4 L358.5,687.7 L356.1,688.3 L353.4,690.8 L346.1,688.9 L343.4,690.4 L341.6,694.2 L339.0,694.2 L335.5,692.8 L330.8,696.0 L325.6,697.2 L324.8,695.8 L324.7,689.3 L319.0,679.9 L316.9,678.1 L311.5,676.2 L310.1,678.5 L307.5,678.4 L306.9,673.8 L308.3,672.6 L307.4,670.1 L302.9,665.3 L295.6,667.0 L293.0,666.3 L289.3,663.3 L283.1,655.5 L276.9,653.3 L272.7,649.3 L270.4,648.3 L272.6,643.8 L272.0,639.1 L280.0,632.9 L278.2,631.2 L286.3,626.1 L283.9,623.8 L284.2,620.0 L279.9,616.2 L274.1,616.7 L271.9,608.7 L278.1,602.9 L279.6,592.5 L280.4,597.2 L282.7,597.9 L295.2,596.4 L301.5,592.6 L298.7,590.1 L302.7,585.9 L298.7,581.5 L298.6,578.1 L294.3,575.9 L303.9,572.1 L314.3,563.7 L313.1,558.5 L308.4,559.9 L314.2,555.3 L312.6,553.3 L313.8,548.1 L317.3,544.5 L317.0,539.4 L321.8,543.0 L326.1,539.9 L328.8,545.1 L334.8,544.0 L344.0,550.9 L349.5,550.7 L347.7,555.0 L349.8,559.8 L352.7,560.4 L350.1,566.7 L366.6,564.7 L363.5,562.6 L365.7,556.6 L364.4,551.8 L377.7,554.2 L381.5,557.3 L381.5,573.1 L383.7,584.5 L382.7,584.1 L380.8,580.5 L379.2,581.9 L376.9,582.3 L374.9,588.7 L373.3,590.4 L369.4,592.6 L367.6,594.3 L366.9,599.3 L364.2,602.8 L364.4,606.4 L363.4,608.6 L360.6,610.6 L360.6,612.9 L361.9,614.8 L360.8,617.1 L356.7,620.2 L355.7,623.0 L352.2,629.7 L351.8,631.4 L355.6,633.7 L356.7,635.2 L353.8,635.0 L353.3,637.5 L354.4,638.5 L352.7,641.0 L353.7,645.2 L354.9,647.0 L357.2,647.7 L359.4,649.6 L362.2,654.6 L362.7,658.1 L368.4,660.6 L367.1,666.1 L368.3,667.9 L371.3,668.7 L372.0,671.1 L369.6,674.7 L367.5,680.4 L368.2,682.5 L367.2,685.2 L364.8,688.0 Z">
  <desc xmlns="http://www.highcharts.com/svg/namespace">
    <hasc>BE.</hasc>
    <name>Luxembourg</name>
    <country>Belgium</country>
    <type-en>Province</type-en>
    <region>Walloon</region>
    <woe-id>7153302</woe-id>
    <longitude>5.50117</longitude>
    <note>NULL</note>
    <subregion>NULL</subregion>
    <woe-name>Luxembourg</woe-name>
    <fips>NULL</fips>
    <latitude>49.9637</latitude>
    <woe-label>Luxemburg, BE, Belgium</woe-label>
    <postal-code>NULL</postal-code>
    <type>Province</type>
    <alt-name>Luxemburg</alt-name>
  </desc>
</path>

<path fill="#CEE3F5" stroke="#6E6E6E" stroke-width="0.1" id="BE.BEL-3478" d="M187.0,439.7 L184.7,447.8 L178.8,447.8 L178.7,458.1 L171.4,457.9 L171.0,466.5 L166.1,473.8 L169.9,476.8 L168.4,481.6 L160.0,486.0 L157.2,483.9 L154.6,487.7 L156.7,491.6 L150.7,491.7 L137.8,489.3 L131.3,486.1 L130.1,483.8 L127.0,485.6 L122.7,494.1 L119.7,492.0 L112.6,491.9 L107.6,487.9 L103.6,486.3 L110.3,481.3 L109.5,474.9 L102.8,469.2 L104.4,463.5 L100.3,464.3 L100.0,458.6 L103.7,456.6 L98.6,454.1 L102.8,445.9 L101.9,438.7 L89.8,430.2 L94.4,427.1 L98.2,419.8 L93.5,408.2 L96.9,405.6 L102.8,407.1 L107.8,406.3 L109.1,399.4 L122.0,398.1 L137.0,403.6 L137.6,409.5 L140.6,411.9 L153.2,411.6 L160.4,407.0 L173.4,400.1 L178.7,395.9 L182.7,390.1 L184.1,383.8 L186.2,385.7 L187.1,387.3 L187.9,390.4 L192.9,395.8 L193.5,397.9 L192.6,400.3 L191.5,402.3 L193.9,409.5 L195.6,413.8 L196.5,417.2 L194.8,423.6 L190.6,425.0 L184.2,425.5 L180.6,429.3 L182.3,436.9 L181.5,438.8 L184.0,440.4 Z">
  <desc xmlns="http://www.highcharts.com/svg/namespace">
    <hasc>BE.OV</hasc>
    <name>East Flanders</name>
    <country>Belgium</country>
    <type-en>Province</type-en>
    <region>Flemish</region>
    <woe-id>7153304</woe-id>
    <longitude>3.83186</longitude>
    <note>NULL</note>
    <subregion>NULL</subregion>
    <woe-name>East Flanders</woe-name>
    <fips>NULL</fips>
    <latitude>50.9749</latitude>
    <woe-label>Oost-Vlaanderen, BE, Belgium</woe-label>
    <postal-code>NULL</postal-code>
    <type>Province</type>
    <alt-name>Oost-Vlaanderen|Ostflandern|Falndre orientale</alt-name>
  </desc>
</path>

<path fill="#CEE3F5" stroke="#6E6E6E" stroke-width="0.1" id="NL.GE" d="M448.1,249.0 L444.3,252.1 L442.2,256.4 L439.0,257.7 L438.7,262.1 L449.8,267.2 L452.6,269.9 L453.5,273.9 L451.4,275.6 L447.0,283.1 L444.2,284.8 L435.0,285.6 L424.7,289.7 L419.7,293.9 L415.9,294.9 L409.1,293.2 L409.8,298.7 L405.9,299.9 L405.4,297.3 L399.6,296.0 L396.2,292.6 L393.0,293.5 L382.4,288.1 L378.9,290.2 L385.9,297.3 L378.2,295.6 L368.4,300.5 L364.2,301.4 L362.2,304.3 L366.2,309.2 L364.5,314.4 L364.0,314.6 L360.8,312.6 L358.4,309.4 L355.6,310.3 L355.6,312.6 L344.8,312.4 L334.2,306.5 L332.1,302.5 L327.4,301.6 L320.7,302.9 L317.1,301.1 L311.0,304.5 L304.7,305.5 L303.4,311.7 L298.4,316.6 L279.2,319.4 L279.3,313.5 L271.6,311.4 L265.9,306.7 L265.5,304.4 L264.9,300.1 L267.9,299.8 L277.0,295.4 L276.6,292.8 L280.6,285.3 L283.0,279.9 L287.1,279.5 L288.9,278.0 L290.5,277.6 L296.5,280.7 L298.6,280.0 L301.6,277.6 L303.9,277.0 L307.9,277.9 L312.2,275.4 L316.7,276.2 L324.9,280.8 L328.5,281.5 L328.8,278.1 L327.2,274.3 L324.9,272.0 L323.5,269.7 L322.4,264.6 L322.4,260.5 L321.0,255.2 L319.3,255.7 L319.7,258.3 L318.5,259.9 L315.7,261.4 L312.3,259.3 L313.9,257.5 L315.2,253.9 L316.3,253.9 L316.6,250.0 L312.5,246.0 L307.8,244.9 L307.1,243.7 L308.4,241.9 L308.5,240.2 L304.7,237.2 L304.1,236.3 L304.8,229.9 L318.0,227.6 L322.3,218.2 L329.9,209.6 L342.6,202.9 L350.6,190.7 L351.7,183.3 L353.5,183.5 L357.2,189.5 L358.7,190.2 L361.8,189.1 L365.0,186.2 L368.0,184.5 L370.0,185.3 L371.6,188.0 L375.0,191.5 L376.9,196.2 L379.2,199.2 L379.5,202.1 L378.2,206.2 L374.2,208.0 L374.9,209.9 L374.0,211.4 L373.2,216.4 L375.2,219.0 L377.4,219.9 L379.4,224.7 L379.5,227.2 L381.6,228.4 L381.5,230.7 L382.9,232.3 L385.4,230.1 L393.8,231.2 L400.3,230.8 L402.9,229.2 L406.4,227.6 L409.5,227.9 L415.6,236.1 L418.7,238.9 L421.2,238.5 L425.3,238.8 L429.4,238.2 L429.9,240.2 L430.8,240.4 L434.5,239.3 L436.7,240.1 L437.4,243.9 L436.5,246.5 L446.8,248.1 Z">
  <desc xmlns="http://www.highcharts.com/svg/namespace">
    <hasc>NL.GE</hasc>
    <name>Gelderland</name>
    <country>Netherlands</country>
    <type-en>Province</type-en>
    <region>NULL</region>
    <woe-id>2346375</woe-id>
    <longitude>5.96001</longitude>
    <note>NULL</note>
    <subregion>NULL</subregion>
    <woe-name>Gelderland</woe-name>
    <fips>NL03</fips>
    <latitude>52.0635</latitude>
    <woe-label>Gelderland, NL, Netherlands</woe-label>
    <postal-code>GE</postal-code>
    <type>Provincie</type>
    <alt-name>Geldern|Gheldria|Guelders|Gueldre</alt-name>
  </desc>
</path>

<path fill="#CEE3F5" stroke="#6E6E6E" stroke-width="0.1" id="BE.BEL-3479" d="M96.9,405.6 L93.5,408.2 L98.2,419.8 L94.4,427.1 L89.8,430.2 L101.9,438.7 L102.8,445.9 L98.6,454.1 L103.7,456.6 L100.0,458.6 L100.3,464.3 L104.4,463.5 L102.8,469.2 L109.5,474.9 L110.3,481.3 L103.6,486.3 L93.6,496.3 L89.2,494.0 L87.1,488.4 L82.5,489.2 L78.1,486.6 L72.0,489.6 L68.3,484.7 L65.6,483.8 L57.0,486.5 L54.3,479.2 L48.1,481.7 L50.2,485.1 L46.1,486.7 L42.6,488.9 L41.1,487.5 L37.5,489.4 L40.1,498.1 L31.5,494.1 L29.5,492.4 L26.9,486.8 L22.9,483.0 L21.4,479.6 L13.7,478.2 L10.4,473.9 L11.2,469.5 L9.1,462.1 L12.9,457.1 L12.5,453.7 L7.1,446.9 L6.0,443.6 L5.0,436.1 L5.6,430.7 L9.6,429.3 L24.2,418.4 L46.3,405.4 L67.7,391.3 L91.5,383.5 L92.5,390.0 L92.0,398.2 Z">
  <desc xmlns="http://www.highcharts.com/svg/namespace">
    <hasc>BE.</hasc>
    <name>West Flanders</name>
    <country>Belgium</country>
    <type-en>Province</type-en>
    <region>Flemish</region>
    <woe-id>7153305</woe-id>
    <longitude>3.02202</longitude>
    <note>NULL</note>
    <subregion>NULL</subregion>
    <woe-name>West Flanders</woe-name>
    <fips>NULL</fips>
    <latitude>51.0312</latitude>
    <woe-label>West-Vlaanderen, BE, Belgium</woe-label>
    <postal-code>NULL</postal-code>
    <type>Province</type>
    <alt-name>West-Vlaanderen</alt-name>
  </desc>
</path>

<path fill="#CEE3F5" stroke="#6E6E6E" stroke-width="0.1" id="BE.BEL-3480" d="M292.7,400.0 L290.5,407.6 L295.5,418.4 L281.7,424.0 L269.1,431.6 L266.2,438.3 L264.7,436.5 L248.9,442.9 L245.6,438.1 L236.9,442.5 L234.0,441.0 L226.2,443.2 L224.9,446.7 L219.8,444.8 L217.9,446.6 L214.3,444.0 L209.9,444.5 L203.5,446.2 L198.6,441.3 L190.7,438.6 L187.0,439.7 L184.0,440.4 L181.5,438.8 L182.3,436.9 L180.6,429.3 L184.2,425.5 L190.6,425.0 L194.8,423.6 L196.5,417.2 L195.6,413.8 L193.9,409.5 L191.5,402.3 L192.6,400.3 L195.9,395.7 L192.3,394.3 L191.0,392.1 L190.7,386.7 L188.3,383.5 L190.4,383.5 L197.3,386.2 L202.3,386.4 L204.7,382.4 L200.8,376.4 L201.7,372.2 L200.4,370.8 L205.8,367.4 L211.5,365.2 L216.8,366.3 L215.7,372.9 L217.8,374.3 L227.3,374.4 L229.7,373.0 L237.7,362.7 L241.1,360.8 L247.6,364.2 L246.8,371.8 L247.7,374.7 L243.0,372.6 L241.3,374.9 L251.0,375.9 L257.1,378.1 L261.9,374.8 L265.9,368.6 L267.5,363.9 L272.6,365.8 L274.8,369.7 L273.4,375.3 L273.9,380.6 L277.7,384.6 L280.0,390.8 L287.9,391.5 L289.9,393.8 L290.1,399.8 Z">
  <desc xmlns="http://www.highcharts.com/svg/namespace">
    <hasc>BE.</hasc>
    <name>Antwerp</name>
    <country>Belgium</country>
    <type-en>Province</type-en>
    <region>Flemish</region>
    <woe-id>7153308</woe-id>
    <longitude>4.72122</longitude>
    <note>NULL</note>
    <subregion>NULL</subregion>
    <woe-name>Antwerp</woe-name>
    <fips>NULL</fips>
    <latitude>51.2485</latitude>
    <woe-label>Antwerp, BE, Belgium</woe-label>
    <postal-code>NULL</postal-code>
    <type>Province</type>
    <alt-name>Antwerpen</alt-name>
  </desc>
</path>

<path fill="#CEE3F5" stroke="#6E6E6E" stroke-width="0.1" id="NL.LI" d="M364.5,314.4 L363.9,316.9 L368.0,317.1 L372.7,320.3 L371.5,325.2 L374.1,328.2 L381.3,331.0 L379.8,337.3 L380.3,339.4 L392.3,353.5 L393.9,362.1 L393.0,372.2 L394.7,374.1 L392.5,383.0 L388.8,386.1 L383.8,396.4 L380.7,401.1 L379.8,408.4 L380.6,411.5 L383.2,412.7 L388.4,408.9 L390.8,409.6 L387.7,412.2 L390.0,414.2 L388.5,416.4 L382.6,420.0 L373.0,428.1 L369.8,434.2 L366.5,436.0 L362.2,432.4 L359.3,434.1 L361.9,442.8 L362.2,447.1 L367.8,444.8 L375.9,445.1 L375.8,452.7 L382.8,456.1 L383.0,462.3 L381.3,466.9 L378.9,466.8 L376.6,469.4 L377.0,472.4 L373.9,477.8 L376.5,483.1 L374.4,483.6 L366.6,483.6 L365.4,483.3 L354.8,483.6 L350.3,480.1 L348.3,482.7 L345.5,483.6 L343.5,482.5 L344.6,476.6 L339.9,474.7 L336.2,471.0 L335.8,467.2 L343.3,458.3 L345.7,457.2 L350.4,448.6 L345.9,448.7 L351.4,437.6 L349.9,435.7 L350.5,431.8 L352.7,432.2 L354.7,427.5 L353.9,425.1 L358.2,423.8 L355.7,421.3 L357.4,417.8 L356.0,414.9 L351.0,415.8 L347.2,411.6 L344.0,410.6 L337.8,411.7 L334.0,408.9 L327.9,407.2 L326.1,405.8 L332.1,403.8 L333.4,401.7 L334.1,396.0 L338.7,388.4 L359.6,381.2 L365.7,375.7 L362.9,370.3 L359.1,365.5 L356.3,355.9 L354.3,345.3 L362.2,346.7 L371.3,344.1 L375.0,346.0 L376.6,344.5 L374.4,336.7 L371.6,332.0 L368.9,329.6 L366.2,320.1 L364.5,318.9 L358.5,317.6 L357.8,313.5 L355.6,312.6 L355.6,310.3 L358.4,309.4 L360.8,312.6 L364.0,314.6 Z">
  <desc xmlns="http://www.highcharts.com/svg/namespace">
    <hasc>NL.LI</hasc>
    <name>Limburg</name>
    <country>Netherlands</country>
    <type-en>Province</type-en>
    <region>NULL</region>
    <woe-id>2346377</woe-id>
    <longitude>5.93161</longitude>
    <note>NULL</note>
    <subregion>NULL</subregion>
    <woe-name>Limburg</woe-name>
    <fips>NL05</fips>
    <latitude>51.2248</latitude>
    <woe-label>Limburg, NL, Netherlands</woe-label>
    <postal-code>LI</postal-code>
    <type>Provincie</type>
    <alt-name>Limbourg|Limburgo</alt-name>
  </desc>
</path>

<path fill="#CEE3F5" stroke="#6E6E6E" stroke-width="0.1" id="BE.BEL-3481" d="M348.3,482.7 L353.0,483.8 L357.7,489.7 L365.1,489.8 L365.4,483.3 L366.6,483.6 L374.4,483.6 L376.5,483.1 L378.3,485.2 L378.6,490.0 L386.0,488.9 L388.2,490.9 L395.2,500.6 L393.8,501.6 L395.1,504.0 L397.4,505.0 L404.8,504.9 L403.3,509.6 L397.7,514.1 L395.8,517.3 L397.7,519.5 L397.1,521.6 L398.5,523.5 L400.4,526.2 L402.3,526.8 L406.4,525.2 L408.6,526.2 L415.3,527.1 L414.0,529.7 L415.0,532.9 L417.2,535.1 L417.3,537.9 L416.0,544.2 L416.3,546.2 L420.3,552.6 L419.4,556.5 L416.5,557.1 L412.6,556.4 L409.5,560.4 L409.9,563.6 L408.0,565.5 L401.1,568.2 L396.7,573.2 L398.2,574.8 L398.9,578.6 L397.5,580.8 L394.5,581.7 L393.8,585.0 L395.4,586.9 L394.2,589.2 L392.5,588.6 L391.7,584.1 L390.3,582.8 L387.8,584.3 L383.7,584.5 L381.5,573.1 L381.5,557.3 L377.7,554.2 L364.4,551.8 L365.7,556.6 L363.5,562.6 L366.6,564.7 L350.1,566.7 L352.7,560.4 L349.8,559.8 L347.7,555.0 L349.5,550.7 L344.0,550.9 L334.8,544.0 L328.8,545.1 L326.1,539.9 L321.8,543.0 L317.0,539.4 L317.3,544.5 L313.8,548.1 L309.1,546.6 L303.3,550.8 L301.7,545.7 L296.3,544.4 L296.5,538.8 L292.0,532.1 L282.0,527.5 L276.3,521.8 L273.3,513.7 L267.9,508.9 L268.1,504.8 L271.5,494.6 L268.8,490.9 L271.6,486.3 L274.3,487.8 L276.1,493.0 L280.6,493.2 L287.8,495.1 L294.3,491.3 L299.3,489.3 L302.8,491.1 L305.3,487.2 L310.2,485.4 L316.0,490.2 L318.4,489.9 L319.2,486.9 L321.4,489.1 L325.9,486.0 L325.6,483.3 L334.8,480.2 L339.9,474.7 L344.6,476.6 L343.5,482.5 L345.5,483.6 Z">
  <desc xmlns="http://www.highcharts.com/svg/namespace">
    <hasc>BE.</hasc>
    <name>Liege</name>
    <country>Belgium</country>
    <type-en>Province</type-en>
    <region>Walloon</region>
    <woe-id>7153300</woe-id>
    <longitude>5.67651</longitude>
    <note>NULL</note>
    <subregion>NULL</subregion>
    <woe-name>Liege</woe-name>
    <fips>NULL</fips>
    <latitude>50.5794</latitude>
    <woe-label>Liege, BE, Belgium</woe-label>
    <postal-code>NULL</postal-code>
    <type>Province</type>
    <alt-name>Luik</alt-name>
  </desc>
</path>

<path fill="#CEE3F5" stroke="#6E6E6E" stroke-width="0.1" id="LU.DI" d="M383.7,584.5 L387.8,584.3 L390.3,582.8 L391.7,584.1 L392.5,588.6 L394.2,589.2 L392.4,601.5 L394.4,603.5 L395.0,608.9 L397.5,613.0 L400.3,619.2 L401.4,616.8 L403.4,619.8 L407.3,628.3 L409.1,629.9 L414.5,632.4 L415.6,634.5 L412.2,635.9 L411.4,638.1 L412.7,639.4 L412.6,640.8 L410.6,644.5 L407.1,643.1 L403.7,639.9 L399.5,639.4 L395.9,640.6 L392.2,638.9 L389.9,638.8 L388.1,639.7 L386.7,642.9 L383.8,647.2 L383.4,656.1 L375.3,659.5 L370.5,659.8 L368.4,660.6 L362.7,658.1 L362.2,654.6 L359.4,649.6 L357.2,647.7 L354.9,647.0 L353.7,645.2 L352.7,641.0 L354.4,638.5 L353.3,637.5 L353.8,635.0 L356.7,635.2 L355.6,633.7 L351.8,631.4 L352.2,629.7 L355.7,623.0 L356.7,620.2 L360.8,617.1 L361.9,614.8 L360.6,612.9 L360.6,610.6 L363.4,608.6 L364.4,606.4 L364.2,602.8 L366.9,599.3 L367.6,594.3 L369.4,592.6 L373.3,590.4 L374.9,588.7 L376.9,582.3 L379.2,581.9 L380.8,580.5 L382.7,584.1 Z">
  <desc xmlns="http://www.highcharts.com/svg/namespace">
    <hasc>LU.DI</hasc>
    <name>Diekirch</name>
    <country>Luxembourg</country>
    <type-en>District</type-en>
    <region>NULL</region>
    <woe-id>20070542</woe-id>
    <longitude>6.00481</longitude>
    <note>NULL</note>
    <subregion>NULL</subregion>
    <woe-name>Diekirch</woe-name>
    <fips>LU01</fips>
    <latitude>49.9763</latitude>
    <woe-label>Diekirch, LU, Luxembourg</woe-label>
    <postal-code>DI</postal-code>
    <type>District</type>
    <alt-name>Dikrech|Dikkrich</alt-name>
  </desc>
</path>

<path fill="#CEE3F5" stroke="#6E6E6E" stroke-width="0.1" id="NL.OV" d="M438.1,161.5 L436.4,162.9 L437.8,170.0 L441.3,172.7 L434.0,176.2 L437.0,187.2 L441.9,190.7 L450.2,191.5 L458.6,193.5 L463.9,192.3 L466.0,189.8 L472.9,199.7 L474.6,204.0 L474.0,210.2 L471.6,217.8 L473.6,226.9 L469.1,230.0 L465.8,235.5 L459.5,239.6 L454.3,248.0 L448.1,249.0 L446.8,248.1 L436.5,246.5 L437.4,243.9 L436.7,240.1 L434.5,239.3 L430.8,240.4 L429.9,240.2 L429.4,238.2 L425.3,238.8 L421.2,238.5 L418.7,238.9 L415.6,236.1 L409.5,227.9 L406.4,227.6 L402.9,229.2 L400.3,230.8 L393.8,231.2 L385.4,230.1 L382.9,232.3 L381.5,230.7 L381.6,228.4 L379.5,227.2 L379.4,224.7 L377.4,219.9 L375.2,219.0 L373.2,216.4 L374.0,211.4 L374.9,209.9 L374.2,208.0 L378.2,206.2 L379.5,202.1 L379.2,199.2 L376.9,196.2 L375.0,191.5 L371.6,188.0 L370.0,185.3 L368.0,184.5 L365.0,186.2 L361.8,189.1 L358.7,190.2 L357.2,189.5 L353.5,183.5 L351.7,183.3 L351.2,180.2 L348.8,171.3 L347.8,169.6 L353.2,166.6 L357.8,166.9 L362.7,165.0 L365.9,163.0 L363.6,160.4 L356.1,157.7 L357.9,154.7 L355.3,146.1 L353.3,143.4 L348.3,139.7 L340.7,135.9 L344.4,133.8 L346.1,135.0 L349.0,135.3 L350.3,135.1 L353.3,133.2 L355.6,129.9 L359.1,129.0 L360.4,130.7 L361.9,131.8 L365.9,131.9 L367.3,130.1 L367.8,128.7 L371.4,127.9 L375.7,126.0 L384.0,135.2 L383.6,136.7 L380.1,140.5 L377.4,142.0 L376.5,143.8 L380.5,152.9 L382.5,155.1 L383.9,155.3 L386.0,153.9 L387.7,154.5 L391.8,156.8 L397.2,156.5 L398.0,157.8 L401.5,160.8 L403.5,164.4 L404.6,164.6 L408.2,162.8 L410.9,164.3 L413.5,163.3 L417.9,165.1 L417.4,160.1 L418.8,157.9 L423.6,155.0 L428.0,154.3 L435.6,157.3 L436.6,158.2 L437.0,160.9 Z">
  <desc xmlns="http://www.highcharts.com/svg/namespace">
    <hasc>NL.OV</hasc>
    <name>Overijssel</name>
    <country>Netherlands</country>
    <type-en>Province</type-en>
    <region>NULL</region>
    <woe-id>2346380</woe-id>
    <longitude>6.41649</longitude>
    <note>NULL</note>
    <subregion>NULL</subregion>
    <woe-name>Overijssel</woe-name>
    <fips>NL15</fips>
    <latitude>52.4311</latitude>
    <woe-label>Overyssel, NL, Netherlands</woe-label>
    <postal-code>OV</postal-code>
    <type>Provincie</type>
    <alt-name>NULL</alt-name>
  </desc>
</path>

<path fill="#CEE3F5" stroke="#6E6E6E" stroke-width="0.1" id="BE.BEL-3482" d="M271.6,486.3 L268.8,490.9 L271.5,494.6 L268.1,504.8 L264.7,504.1 L262.3,507.5 L247.9,511.7 L242.3,514.3 L241.5,510.9 L238.3,513.6 L233.0,513.6 L234.4,518.9 L228.0,518.2 L224.8,522.8 L218.3,525.7 L213.3,525.4 L213.0,520.3 L195.2,519.2 L192.5,515.0 L188.9,514.4 L189.5,510.8 L183.7,509.4 L182.1,503.2 L177.6,508.4 L173.2,508.0 L171.8,498.8 L172.8,496.0 L173.6,494.3 L176.3,494.3 L179.1,492.4 L181.5,495.6 L184.4,495.5 L188.0,498.3 L190.1,496.7 L193.0,497.7 L195.3,496.2 L195.6,493.6 L201.7,493.9 L202.2,491.3 L207.4,490.4 L211.2,487.3 L215.2,486.7 L215.3,489.5 L218.7,491.4 L218.9,489.3 L223.6,488.1 L230.3,488.7 L232.4,486.2 L230.7,479.2 L236.3,480.6 L242.4,477.4 L246.9,478.9 L251.5,484.7 L259.6,483.6 L260.7,487.8 L262.3,487.5 L267.4,483.2 Z">
  <desc xmlns="http://www.highcharts.com/svg/namespace">
    <hasc>BE.</hasc>
    <name>Walloon Brabant</name>
    <country>Belgium</country>
    <type-en>Province</type-en>
    <region>Walloon</region>
    <woe-id>22525997</woe-id>
    <longitude>4.55466</longitude>
    <note>NULL</note>
    <subregion>NULL</subregion>
    <woe-name>Walloon Brabant</woe-name>
    <fips>NULL</fips>
    <latitude>50.6416</latitude>
    <woe-label>Walloon Brabant, BE, Belgium</woe-label>
    <postal-code>NULL</postal-code>
    <type>Province</type>
    <alt-name>Waals-Brabant|Brabant Wallon</alt-name>
  </desc>
</path>

<path fill="#CEE3F5" stroke="#6E6E6E" stroke-width="0.1" id="LU.GR" d="M410.6,644.5 L412.6,640.8 L412.7,639.4 L411.4,638.1 L412.2,635.9 L415.6,634.5 L416.5,636.7 L419.9,635.7 L425.1,639.6 L429.0,641.2 L434.2,640.9 L437.7,641.8 L438.4,642.6 L438.0,647.9 L438.4,650.5 L437.3,651.5 L437.6,654.3 L439.0,656.5 L437.2,657.3 L438.3,658.5 L430.4,664.1 L428.8,666.6 L430.6,669.3 L428.6,673.7 L425.9,677.4 L423.8,682.0 L423.4,694.5 L424.0,700.8 L421.8,700.7 L418.8,699.2 L413.4,695.5 L411.2,687.0 L411.7,683.3 L415.1,679.7 L417.9,678.7 L416.2,675.1 L419.1,671.9 L417.0,668.5 L415.8,664.0 L411.9,661.8 L403.5,661.9 L408.2,653.7 L410.4,651.9 L412.8,651.9 L413.9,647.9 Z">
  <desc xmlns="http://www.highcharts.com/svg/namespace">
    <hasc>LU.GR</hasc>
    <name>Grevenmacher</name>
    <country>Luxembourg</country>
    <type-en>District</type-en>
    <region>NULL</region>
    <woe-id>20070559</woe-id>
    <longitude>6.33835</longitude>
    <note>NULL</note>
    <subregion>NULL</subregion>
    <woe-name>Grevenmacher</woe-name>
    <fips>LU02</fips>
    <latitude>49.6474</latitude>
    <woe-label>Grevenmacher, LU, Luxembourg</woe-label>
    <postal-code>GR</postal-code>
    <type>District</type>
    <alt-name>Gréivemaacher</alt-name>
  </desc>
</path>

<path fill="#CEE3F5" stroke="#6E6E6E" stroke-width="0.1" id="LU.LU" d="M410.6,644.5 L413.9,647.9 L412.8,651.9 L410.4,651.9 L408.2,653.7 L403.5,661.9 L411.9,661.8 L415.8,664.0 L417.0,668.5 L419.1,671.9 L416.2,675.1 L417.9,678.7 L415.1,679.7 L411.7,683.3 L411.2,687.0 L413.4,695.5 L406.9,694.1 L400.6,695.1 L398.3,697.0 L396.8,700.4 L392.9,703.3 L381.6,705.0 L379.9,700.2 L370.7,696.8 L365.9,693.9 L362.2,689.4 L364.8,688.0 L367.2,685.2 L368.2,682.5 L367.5,680.4 L369.6,674.7 L372.0,671.1 L371.3,668.7 L368.3,667.9 L367.1,666.1 L368.4,660.6 L370.5,659.8 L375.3,659.5 L383.4,656.1 L383.8,647.2 L386.7,642.9 L388.1,639.7 L389.9,638.8 L392.2,638.9 L395.9,640.6 L399.5,639.4 L403.7,639.9 L407.1,643.1 Z">
  <desc xmlns="http://www.highcharts.com/svg/namespace">
    <hasc>LU.LU</hasc>
    <name>Luxembourg</name>
    <country>Luxembourg</country>
    <type-en>District</type-en>
    <region>NULL</region>
    <woe-id>20070560</woe-id>
    <longitude>6.05114</longitude>
    <note>NULL</note>
    <subregion>NULL</subregion>
    <woe-name>Luxembourg</woe-name>
    <fips>LU03</fips>
    <latitude>49.6376</latitude>
    <woe-label>Luxemburg, LU, Luxembourg</woe-label>
    <postal-code>LU</postal-code>
    <type>District</type>
    <alt-name>Lëtzebuerg|Luxemburg</alt-name>
  </desc>
</path>

<path fill="none" stroke="#551111" stroke-width="0.4" id="__border_lines__" d="M417.3,7.8 L416.4,6.1 L418.6,6.0 Z M247.6,86.7 L249.7,87.7 L245.1,97.1 L240.3,101.2 L238.2,105.8 L231.1,105.5 L229.6,96.8 L233.9,87.5 L238.6,83.2 L243.3,73.8 L246.5,73.9 L249.3,82.7 Z M347.8,169.6 L344.4,168.1 L329.1,168.9 L322.2,159.3 L321.8,152.7 L323.0,141.4 L327.3,133.7 L333.4,130.6 L332.7,129.6 L325.2,127.7 L318.7,130.8 L315.5,130.7 L311.7,128.9 L305.2,128.9 L301.9,128.2 L297.5,124.7 L297.1,121.9 L301.8,116.8 L300.3,114.1 L302.2,109.4 L300.7,104.8 L301.3,100.6 L297.9,94.7 L296.7,91.1 L288.3,96.8 L278.3,106.2 L272.5,111.7 L263.9,116.4 L266.1,118.1 L271.5,128.5 L272.7,143.0 L277.8,147.8 L281.4,145.1 L284.5,144.9 L290.5,147.9 L291.7,154.0 L286.9,157.3 L284.1,163.4 L277.9,167.5 L274.9,168.4 L269.5,165.1 L265.9,165.8 L264.4,168.7 L266.3,178.0 L269.9,185.5 L270.8,189.6 L268.8,191.9 L269.6,194.3 L266.8,195.4 L271.2,200.1 L269.6,203.3 L266.2,206.2 L264.6,210.6 L260.1,209.5 L258.7,212.0 L265.3,215.8 L273.8,217.2 L279.2,220.6 L283.6,221.7 L290.2,221.2 L297.7,226.3 L300.1,227.9 L304.7,229.9 L304.8,229.9 L318.0,227.6 L322.3,218.2 L329.9,209.6 L342.6,202.9 L350.6,190.7 L351.7,183.3 L351.2,180.2 L348.8,171.3 Z M251.4,67.1 L245.7,68.1 L256.3,56.1 L263.1,51.9 L261.4,55.7 Z M300.4,35.0 L278.5,44.8 L275.6,44.9 L275.4,39.4 L284.8,35.6 L298.3,32.3 L301.2,29.9 L316.1,26.4 L313.9,29.8 L305.2,31.4 Z M349.3,21.7 L353.5,23.7 L333.1,26.9 L325.8,30.1 L325.0,23.7 Z M373.5,21.5 L371.6,24.2 L370.3,19.5 L379.1,14.5 L389.1,13.1 L390.6,15.1 Z M403.3,5.0 L409.0,7.2 L407.7,8.5 L402.1,6.4 Z M347.8,175.2 L350.1,182.6 L349.0,190.4 L342.7,199.9 L328.1,205.8 L326.0,209.1 L318.5,212.3 L319.1,221.7 L313.3,226.5 L306.5,227.0 L297.3,221.2 L286.7,217.0 L278.0,216.0 L275.7,209.1 L286.7,201.3 L291.0,196.8 L298.7,193.4 L303.2,188.9 L308.3,186.0 L310.6,179.5 L314.5,178.7 L320.6,172.7 L328.4,169.0 L331.3,171.9 Z M161.4,327.5 L163.7,330.2 L170.1,332.7 L169.3,337.2 L165.8,339.2 L157.7,340.9 L149.6,337.8 L147.8,333.3 L138.3,328.1 L135.1,331.8 L130.4,332.1 L126.8,329.4 L127.1,324.0 L130.9,321.4 L139.7,320.1 L153.4,320.9 L157.4,322.7 Z M210.2,220.8 L219.7,190.0 L223.3,157.0 L226.0,140.6 L230.1,129.2 L231.3,116.5 L233.2,111.4 L241.3,112.5 L239.9,117.7 L242.3,120.8 L250.6,121.5 L257.1,116.2 L267.3,112.8 L277.4,103.2 L290.6,90.3 L297.3,87.6 L299.3,83.3 L303.5,66.4 L312.8,58.3 L317.7,52.0 L324.6,50.2 L328.0,47.0 L344.0,39.8 L356.5,32.9 L377.3,31.2 L386.1,30.5 L390.9,32.3 L393.4,30.2 L408.3,25.0 L431.9,20.1 L442.0,21.3 L446.0,23.8 L450.2,37.6 L455.3,41.7 L462.7,44.7 L466.6,45.2 L469.3,43.7 L468.3,46.2 L469.3,51.0 L472.5,52.6 L481.1,54.0 L481.9,61.5 L480.0,74.4 L481.5,77.8 L483.1,89.8 L483.3,95.9 L482.7,101.4 L480.8,107.2 L473.2,120.9 L472.5,123.2 L471.0,131.9 L470.7,156.2 L463.7,158.5 L443.3,158.8 L438.1,161.5 L436.4,162.9 L437.8,170.0 L441.3,172.7 L434.0,176.2 L437.0,187.2 L441.9,190.7 L450.2,191.5 L458.6,193.5 L463.9,192.3 L466.0,189.8 L472.9,199.7 L474.6,204.0 L474.0,210.2 L471.6,217.8 L473.6,226.9 L469.1,230.0 L465.8,235.5 L459.5,239.6 L454.3,248.0 L448.1,249.0 L444.3,252.1 L442.2,256.4 L439.0,257.7 L438.7,262.1 L449.8,267.2 L452.6,269.9 L453.5,273.9 L451.4,275.6 L447.0,283.1 L444.2,284.8 L435.0,285.6 L424.7,289.7 L419.7,293.9 L415.9,294.9 L409.1,293.2 L409.8,298.7 L405.9,299.9 L405.4,297.3 L399.6,296.0 L396.2,292.6 L393.0,293.5 L382.4,288.1 L378.9,290.2 L385.9,297.3 L378.2,295.6 L368.4,300.5 L364.2,301.4 L362.2,304.3 L366.2,309.2 L364.5,314.4 L363.9,316.9 L368.0,317.1 L372.7,320.3 L371.5,325.2 L374.1,328.2 L381.3,331.0 L379.8,337.3 L380.3,339.4 L392.3,353.5 L393.9,362.1 L393.0,372.2 L394.7,374.1 L392.5,383.0 L388.8,386.1 L383.8,396.4 L380.7,401.1 L379.8,408.4 L380.6,411.5 L383.2,412.7 L388.4,408.9 L390.8,409.6 L387.7,412.2 L390.0,414.2 L388.5,416.4 L382.6,420.0 L373.0,428.1 L369.8,434.2 L366.5,436.0 L362.2,432.4 L359.3,434.1 L361.9,442.8 L362.2,447.1 L367.8,444.8 L375.9,445.1 L375.8,452.7 L382.8,456.1 L383.0,462.3 L381.3,466.9 L378.9,466.8 L376.6,469.4 L377.0,472.4 L373.9,477.8 L376.5,483.1 M188.3,383.5 L186.4,375.8 L181.8,377.5 L172.3,377.3 L167.9,375.4 L162.0,370.4 L154.4,370.2 L150.1,378.0 L142.2,380.4 L138.1,376.9 L131.7,373.8 L127.5,369.9 L119.1,371.5 L111.2,369.2 L106.8,362.1 L103.3,359.1 L102.8,353.0 L113.6,346.2 L141.9,342.8 L147.6,345.6 L150.2,350.1 L146.6,353.5 L156.7,354.5 L161.9,356.5 L166.3,360.2 L169.9,368.7 L174.0,371.5 L179.6,370.6 L181.6,371.7 L188.4,370.7 L191.8,366.2 L188.6,359.9 L184.6,358.0 L169.8,355.7 L158.8,346.4 L167.2,342.9 L176.6,343.2 L181.9,346.1 L181.4,342.9 L180.0,341.7 L179.6,341.6 L175.5,341.5 L172.4,339.4 L171.6,336.6 L171.7,332.6 L174.9,330.3 L178.5,329.9 L174.7,326.9 L167.3,324.8 L165.8,322.6 L165.0,317.0 L163.2,313.5 L157.6,309.2 L155.6,310.7 L146.1,313.0 L145.1,308.3 L155.5,302.9 L165.3,305.0 L167.6,303.4 L162.7,296.9 L163.5,289.8 L160.2,280.3 L161.5,277.9 L166.4,278.9 L170.4,278.2 L173.9,275.8 L188.6,257.3 L201.0,238.4 L210.2,220.8 M91.5,383.5 L108.6,377.9 L111.8,376.4 L118.6,380.7 L129.0,383.5 L134.7,387.5 L145.6,388.1 L155.9,383.5 L158.8,376.9 L165.1,378.9 L168.0,383.6 L173.5,385.4 L177.2,385.6 L179.7,382.2 L184.1,383.8 M210.6,626.5 L194.2,622.3 L184.3,623.2 L179.0,620.1 L178.1,612.8 L179.4,610.6 L186.5,605.5 L183.1,594.2 L178.7,594.8 L177.1,594.1 L177.3,591.0 L180.3,579.7 L185.0,574.7 L185.3,573.0 L180.8,569.5 L179.4,570.1 L178.7,573.1 L176.7,572.2 L173.7,565.9 L169.1,562.6 L165.4,558.7 L161.0,558.0 L154.1,561.0 L151.7,561.0 L145.6,557.7 L141.1,557.2 L134.9,558.2 L130.1,565.8 L126.3,562.3 L125.3,555.4 L125.2,547.5 L124.2,540.9 L120.3,535.7 L115.4,534.0 L108.4,534.0 L107.1,533.1 L107.6,528.9 L104.5,528.6 L100.9,531.5 L96.1,533.3 L91.6,533.1 L86.9,530.7 L83.7,527.4 L83.0,520.0 L80.1,510.5 L79.2,505.6 L80.7,502.8 L78.6,497.2 L75.7,496.5 L72.0,489.6 L68.3,484.7 L65.6,483.8 L57.0,486.5 L46.9,491.9 L43.7,497.5 L40.1,498.1 L31.5,494.1 L29.5,492.4 L26.9,486.8 L22.9,483.0 L21.4,479.6 L13.7,478.2 L10.4,473.9 L11.2,469.5 L9.1,462.1 L12.9,457.1 L12.5,453.7 L7.1,446.9 L6.0,443.6 L5.0,436.1 L5.6,430.7 L9.6,429.3 L24.2,418.4 L46.3,405.4 L67.7,391.3 L91.5,383.5 M184.1,383.8 L186.2,385.7 L187.1,387.3 L187.9,390.4 L192.9,395.8 L193.5,397.9 L192.6,400.3 L195.9,395.7 L192.3,394.3 L191.0,392.1 L190.7,386.7 L188.3,383.5 M394.2,589.2 L392.4,601.5 L394.4,603.5 L395.0,608.9 L397.5,613.0 L400.3,619.2 L401.4,616.8 L403.4,619.8 L407.3,628.3 L409.1,629.9 L414.5,632.4 L415.6,634.5 L416.5,636.7 L419.9,635.7 L425.1,639.6 L429.0,641.2 L434.2,640.9 L437.7,641.8 L438.4,642.6 L438.0,647.9 L438.4,650.5 L437.3,651.5 L437.6,654.3 L439.0,656.5 L437.2,657.3 L438.3,658.5 L430.4,664.1 L428.8,666.6 L430.6,669.3 L428.6,673.7 L425.9,677.4 L423.8,682.0 L423.4,694.5 L424.0,700.8 L421.8,700.7 L418.8,699.2 L413.4,695.5 L406.9,694.1 L400.6,695.1 L398.3,697.0 L396.8,700.4 L392.9,703.3 L381.6,705.0 L379.9,700.2 L370.7,696.8 L365.9,693.9 L362.2,689.4 M376.5,483.1 L378.3,485.2 L378.6,490.0 L386.0,488.9 L388.2,490.9 L395.2,500.6 L393.8,501.6 L395.1,504.0 L397.4,505.0 L404.8,504.9 L403.3,509.6 L397.7,514.1 L395.8,517.3 L397.7,519.5 L397.1,521.6 L398.5,523.5 L400.4,526.2 L402.3,526.8 L406.4,525.2 L408.6,526.2 L415.3,527.1 L414.0,529.7 L415.0,532.9 L417.2,535.1 L417.3,537.9 L416.0,544.2 L416.3,546.2 L420.3,552.6 L419.4,556.5 L416.5,557.1 L412.6,556.4 L409.5,560.4 L409.9,563.6 L408.0,565.5 L401.1,568.2 L396.7,573.2 L398.2,574.8 L398.9,578.6 L397.5,580.8 L394.5,581.7 L393.8,585.0 L395.4,586.9 L394.2,589.2 M362.2,689.4 L358.5,687.7 L356.1,688.3 L353.4,690.8 L346.1,688.9 L343.4,690.4 L341.6,694.2 L339.0,694.2 L335.5,692.8 L330.8,696.0 L325.6,697.2 L324.8,695.8 L324.7,689.3 L319.0,679.9 L316.9,678.1 L311.5,676.2 L310.1,678.5 L307.5,678.4 L306.9,673.8 L308.3,672.6 L307.4,670.1 L302.9,665.3 L295.6,667.0 L293.0,666.3 L289.3,663.3 L283.1,655.5 L276.9,653.3 L272.7,649.3 L270.4,648.3 L263.7,650.3 L258.3,650.4 L257.2,642.8 L255.8,640.0 L258.0,632.6 L258.0,628.9 L256.3,625.8 L251.0,623.8 L249.9,618.8 L253.9,608.2 L253.8,603.4 L255.8,598.9 L257.6,600.0 L258.4,590.5 L257.3,589.2 L252.7,589.5 L252.1,587.0 L249.2,588.4 L237.9,600.4 L237.2,611.9 L235.5,616.6 L229.8,618.2 L214.7,626.1 L210.6,626.5 M188.3,383.5 L190.4,383.5 L197.3,386.2 L202.3,386.4 L204.7,382.4 L200.8,376.4 L201.7,372.2 L200.4,370.8 L205.8,367.4 L211.5,365.2 L216.8,366.3 L215.7,372.9 L217.8,374.3 L227.3,374.4 L229.7,373.0 L237.7,362.7 L241.1,360.8 L247.6,364.2 L246.8,371.8 L247.7,374.7 L243.0,372.6 L241.3,374.9 L251.0,375.9 L257.1,378.1 L261.9,374.8 L265.9,368.6 L267.5,363.9 L272.6,365.8 L274.8,369.7 L273.4,375.3 L273.9,380.6 L277.7,384.6 L280.0,390.8 L287.9,391.5 L289.9,393.8 L290.1,399.8 L292.7,400.0 L296.0,399.1 L308.6,399.2 L317.2,394.0 L324.1,398.1 L326.1,405.8 L327.9,407.2 L334.0,408.9 L337.8,411.7 L344.0,410.6 L347.2,411.6 L351.0,415.8 L356.0,414.9 L357.4,417.8 L355.7,421.3 L358.2,423.8 L353.9,425.1 L354.7,427.5 L352.7,432.2 L350.5,431.8 L349.9,435.7 L351.4,437.6 L345.9,448.7 L350.4,448.6 L345.7,457.2 L343.3,458.3 L335.8,467.2 L336.2,471.0 L339.9,474.7 L344.6,476.6 L343.5,482.5 L345.5,483.6 L348.3,482.7 L350.3,480.1 L354.8,483.6 L365.4,483.3 L366.6,483.6 L374.4,483.6 L376.5,483.1 M188.3,383.5 L190.4,383.5 L197.3,386.2 L202.3,386.4 L204.7,382.4 L200.8,376.4 L201.7,372.2 L200.4,370.8 L205.8,367.4 L211.5,365.2 L216.8,366.3 L215.7,372.9 L217.8,374.3 L227.3,374.4 L229.7,373.0 L237.7,362.7 L241.1,360.8 L247.6,364.2 L246.8,371.8 L247.7,374.7 L243.0,372.6 L241.3,374.9 L251.0,375.9 L257.1,378.1 L261.9,374.8 L265.9,368.6 L267.5,363.9 L272.6,365.8 L274.8,369.7 L273.4,375.3 L273.9,380.6 L277.7,384.6 L280.0,390.8 L287.9,391.5 L289.9,393.8 L290.1,399.8 L292.7,400.0 L296.0,399.1 L308.6,399.2 L317.2,394.0 L324.1,398.1 L326.1,405.8 L327.9,407.2 L334.0,408.9 L337.8,411.7 L344.0,410.6 L347.2,411.6 L351.0,415.8 L356.0,414.9 L357.4,417.8 L355.7,421.3 L358.2,423.8 L353.9,425.1 L354.7,427.5 L352.7,432.2 L350.5,431.8 L349.9,435.7 L351.4,437.6 L345.9,448.7 L350.4,448.6 L345.7,457.2 L343.3,458.3 L335.8,467.2 L336.2,471.0 L339.9,474.7 L344.6,476.6 L343.5,482.5 L345.5,483.6 L348.3,482.7 L350.3,480.1 L354.8,483.6 L365.4,483.3 L366.6,483.6 L374.4,483.6 L376.5,483.1 M91.5,383.5 L92.5,390.0 L92.0,398.2 L96.9,405.6 L102.8,407.1 L107.8,406.3 L109.1,399.4 L122.0,398.1 L137.0,403.6 L137.6,409.5 L140.6,411.9 L153.2,411.6 L160.4,407.0 L173.4,400.1 L178.7,395.9 L182.7,390.1 L184.1,383.8 M91.5,383.5 L92.5,390.0 L92.0,398.2 L96.9,405.6 L102.8,407.1 L107.8,406.3 L109.1,399.4 L122.0,398.1 L137.0,403.6 L137.6,409.5 L140.6,411.9 L153.2,411.6 L160.4,407.0 L173.4,400.1 L178.7,395.9 L182.7,390.1 L184.1,383.8 M394.2,589.2 L392.5,588.6 L391.7,584.1 L390.3,582.8 L387.8,584.3 L383.7,584.5 M394.2,589.2 L392.5,588.6 L391.7,584.1 L390.3,582.8 L387.8,584.3 L383.7,584.5 M383.7,584.5 L382.7,584.1 L380.8,580.5 L379.2,581.9 L376.9,582.3 L374.9,588.7 L373.3,590.4 L369.4,592.6 L367.6,594.3 L366.9,599.3 L364.2,602.8 L364.4,606.4 L363.4,608.6 L360.6,610.6 L360.6,612.9 L361.9,614.8 L360.8,617.1 L356.7,620.2 L355.7,623.0 L352.2,629.7 L351.8,631.4 L355.6,633.7 L356.7,635.2 L353.8,635.0 L353.3,637.5 L354.4,638.5 L352.7,641.0 L353.7,645.2 L354.9,647.0 L357.2,647.7 L359.4,649.6 L362.2,654.6 L362.7,658.1 L368.4,660.6 L367.1,666.1 L368.3,667.9 L371.3,668.7 L372.0,671.1 L369.6,674.7 L367.5,680.4 L368.2,682.5 L367.2,685.2 L364.8,688.0 L362.2,689.4 M383.7,584.5 L382.7,584.1 L380.8,580.5 L379.2,581.9 L376.9,582.3 L374.9,588.7 L373.3,590.4 L369.4,592.6 L367.6,594.3 L366.9,599.3 L364.2,602.8 L364.4,606.4 L363.4,608.6 L360.6,610.6 L360.6,612.9 L361.9,614.8 L360.8,617.1 L356.7,620.2 L355.7,623.0 L352.2,629.7 L351.8,631.4 L355.6,633.7 L356.7,635.2 L353.8,635.0 L353.3,637.5 L354.4,638.5 L352.7,641.0 L353.7,645.2 L354.9,647.0 L357.2,647.7 L359.4,649.6 L362.2,654.6 L362.7,658.1 L368.4,660.6 L367.1,666.1 L368.3,667.9 L371.3,668.7 L372.0,671.1 L369.6,674.7 L367.5,680.4 L368.2,682.5 L367.2,685.2 L364.8,688.0 L362.2,689.4" />
</svg>