<?xml version="1.0" encoding="utf-8"?>
<!-- Generator: Adobe Illustrator 16.0.0, SVG Export Plug-In . SVG Version: 6.00 Build 0)  -->
<!DOCTYPE svg PUBLIC "-//W3C//DTD SVG 1.1//EN" "http://www.w3.org/Graphics/SVG/1.1/DTD/svg11.dtd">
<svg version="1.1" id="Layer_1" xmlns="http://www.w3.org/2000/svg" xmlns:xlink="http://www.w3.org/1999/xlink" x="0px" y="0px"
	 width="32px" height="32px" viewBox="0 0 32 32" enable-background="new 0 0 32 32" xml:space="preserve">
<g>
	<path fill="#4B4B4D" d="M28.559,15.501c-0.125-0.14-2.369-2.635-4.416-4.462l-1.064,1.063c1.473,1.308,3.123,3.052,3.905,3.899
		c-1.103,1.194-3.937,4.184-5.552,5.194c-2.512,1.573-5.685,1.915-8.501,1.055l-1.194,1.194C13.088,23.972,14.53,24.25,16,24.25
		c2.21,0,4.363-0.616,6.227-1.782c2.205-1.379,6.164-5.778,6.332-5.965l0.449-0.501L28.559,15.501z"/>
	<path fill="#4B4B4D" d="M8.922,19.897c-1.473-1.308-3.123-3.052-3.905-3.899c1.103-1.194,3.937-4.184,5.552-5.194
		c2.512-1.573,5.685-1.915,8.501-1.055l1.194-1.194C18.912,8.028,17.47,7.75,16,7.75c-2.21,0-4.363,0.616-6.227,1.782
		c-2.205,1.379-6.164,5.778-6.332,5.965l-0.449,0.501l0.449,0.501c0.125,0.14,2.369,2.635,4.416,4.462L8.922,19.897z"/>
	
		<rect x="3.272" y="15.25" transform="matrix(0.7071 -0.7071 0.7071 0.7071 -6.6274 16)" fill="#4B4B4D" width="25.456" height="1.5"/>
	<path fill="#4B4B4D" d="M16,12.25c0.177,0,0.346,0.028,0.516,0.053l1.23-1.231C17.197,10.876,16.615,10.75,16,10.75
		c-2.895,0-5.25,2.355-5.25,5.25c0,0.615,0.126,1.197,0.322,1.747l1.23-1.231c-0.024-0.17-0.053-0.339-0.053-0.516
		C12.25,13.933,13.933,12.25,16,12.25z"/>
	<path fill="#4B4B4D" d="M16,19.75c-0.177,0-0.346-0.028-0.516-0.053l-1.23,1.231c0.549,0.195,1.131,0.321,1.746,0.321
		c2.895,0,5.25-2.355,5.25-5.25c0-0.615-0.126-1.197-0.322-1.747l-1.23,1.231c0.024,0.17,0.053,0.339,0.053,0.516
		C19.75,18.067,18.067,19.75,16,19.75z"/>
</g>
</svg>
