<?xml version="1.0" encoding="utf-8"?>
<!-- Generator: Adobe Illustrator 16.0.0, SVG Export Plug-In . SVG Version: 6.00 Build 0)  -->
<!DOCTYPE svg PUBLIC "-//W3C//DTD SVG 1.1//EN" "http://www.w3.org/Graphics/SVG/1.1/DTD/svg11.dtd">
<svg version="1.1" id="Layer_1" xmlns="http://www.w3.org/2000/svg" xmlns:xlink="http://www.w3.org/1999/xlink" x="0px" y="0px"
	 width="32px" height="32px" viewBox="0 0 32 32" enable-background="new 0 0 32 32" xml:space="preserve">
<g>
	<path fill="#4B4B4D" d="M16,10.75c-2.895,0-5.25,2.355-5.25,5.25s2.355,5.25,5.25,5.25s5.25-2.355,5.25-5.25S18.895,10.75,16,10.75
		z M16,19.75c-2.067,0-3.75-1.683-3.75-3.75s1.683-3.75,3.75-3.75s3.75,1.683,3.75,3.75S18.067,19.75,16,19.75z"/>
	<path fill="#4B4B4D" d="M28.559,15.501c-0.168-0.187-4.127-4.589-6.333-5.969C20.361,8.366,18.181,7.75,16,7.75
		c-2.21,0-4.363,0.616-6.227,1.782c-2.205,1.379-6.164,5.778-6.332,5.965l-0.449,0.501l0.449,0.501
		c0.168,0.187,4.127,4.589,6.333,5.969c1.864,1.166,4.045,1.782,6.226,1.782c2.21,0,4.363-0.616,6.227-1.782
		c2.205-1.379,6.164-5.778,6.332-5.965l0.449-0.501L28.559,15.501z M21.432,21.196c-1.625,1.018-3.528,1.526-5.432,1.524
		c-1.902,0-3.805-0.508-5.431-1.524c-1.615-1.011-4.449-4.003-5.553-5.198c1.103-1.194,3.937-4.184,5.552-5.194
		C12.193,9.786,14.097,9.277,16,9.279c1.902,0,3.805,0.508,5.431,1.524c1.615,1.011,4.449,4.003,5.553,5.198
		C25.881,17.196,23.047,20.186,21.432,21.196z"/>
</g>
</svg>
