<svg class="icon" viewBox="0 0 1024 1024"><path class="icon-dark" d="M248 248c7 7 12 13 17 22l13-3c24-8 49-6 73-1 11 4 11 4 21-1l2-5c9-9 20-14 33-11 15 7 22 16 25 33l-1 4c40 11 79 7 119 0l33-5 3-1c46-1 89 5 132 24h2v2l6 2 9 5c7 5 7 5 15 8l-1 1 21 16a273 273 0 0147 53v2l2 1c24 42 33 85 33 134v5a13799 13799 0 011 163v15c0 26-5 52-31 64-24 10-71 12-93-4l-5-3c-2-19 4-25 20-34l8-4v-2l5-5c5-9 0-19-3-28l-2-6c0-4 0-4-3-5l-4-9c-5-16-5-16-14-28l-1-7-7-13v-3h-2l1 9c0 112 0 112-40 131a103 103 0 01-44 5c-42 0-42 0-49-15-1-13 2-23 14-30l11-4c7-2 12-4 16-10 1-8 1-8-2-15l-1-8-3-3 1-5c-2-10-2-10-8-16l1-8-2-1-1-5-2-2v-3l-4-10-2-6c-1-4-1-4-4-5v-5l-2-1-1-4-11-2-7-2c-7-3-13-5-21-4-3 6-1 12-1 19v26l-1 4a715 715 0 01-7 54v4h-2l-1 8c-8 30-21 55-53 63-23 3-53 7-72-7-5-9-5-15 0-24 8-7 18-11 27-16 6-15 3-31 1-47v-11l-2-1-1-10-1-3v-4c-3-17-10-35-20-50l-1 8c-20 141-20 141-63 156-14 4-26 4-40 4h-5c-30 0-30 0-39-11-3-10-1-18 6-26l21-12c8-5 11-8 14-17l-1-6 1-4-5-63a2476 2476 0 01-8-110c-1-27-6-44-31-57-16-5-47-5-62 3-24-3-45-12-54-36-4-16 3-28 12-40 12-18 19-31 21-52 2-13 6-24 13-33 6-9-1-17-5-25l-1-5-1-4c5-25 21-41 48-32m10 123c-1 7-1 7 4 10 5 0 5 0 7-3 1-7 1-7-3-9-5-2-5-2-8 2"/></svg>