<svg width="20" height="20" viewBox="0 0 20 20" fill="none" xmlns="http://www.w3.org/2000/svg">
<rect width="20" height="20" rx="10" fill="#0D66DB"/>
<path d="M9.55469 9.55556H7.42135C6.92353 9.55556 6.67462 9.55556 6.48447 9.65244C6.31722 9.73766 6.18124 9.87364 6.09602 10.0409C5.99913 10.231 5.99913 10.48 5.99913 10.9778V14M13.9991 14V7.42222C13.9991 6.9244 13.9991 6.67549 13.9022 6.48534C13.817 6.31809 13.681 6.1821 13.5138 6.09688C13.3236 6 13.0747 6 12.5769 6H10.9769C10.4791 6 10.2302 6 10.04 6.09688C9.87277 6.1821 9.73679 6.31809 9.65157 6.48534C9.55469 6.67549 9.55469 6.9244 9.55469 7.42222V14M14.4436 14H5.55469M11.1102 7.77778H12.4436M11.1102 9.55556H12.4436M11.1102 11.3333H12.4436" stroke="white" stroke-width="0.666667" stroke-linecap="round" stroke-linejoin="round"/>
</svg>
