<svg width="512" height="512" viewBox="0 0 512 512" fill="none" xmlns="http://www.w3.org/2000/svg">
<circle cx="256" cy="256" r="251" fill="#1E31C3" stroke="white" stroke-width="10"/>
<path d="M302.996 61L98 111.565V413.364L302.808 431L414.47 412.024V106.215L302.996 61ZM281.055 401.907L214.149 396.145V338.747L174.341 338.258V392.717L125.121 388.478V132.808L281.055 94.3455V401.907Z" fill="white"/>
<path d="M267.255 116.596L234.943 123.38V161.417L267.255 155.846V116.596Z" fill="white"/>
<path d="M156.923 141.961L134.407 146.723V180.107L156.923 176.241V141.961Z" fill="white"/>
<path d="M208.548 130.333L179.941 136.322V171.586L208.548 166.654V130.333Z" fill="white"/>
<path d="M156.925 207.832L134.407 210.913V244.354L156.925 242.113V207.832Z" fill="white"/>
<path d="M208.548 200.322L179.941 204.197V239.461L208.548 236.643V200.322Z" fill="white"/>
<path d="M267.255 191.83L234.943 196.207V233.65L267.255 230.467V191.83Z" fill="white"/>
<path d="M267.255 267.777L234.943 269.767V307.21L267.255 306.414V267.777Z" fill="white"/>
<path d="M208.548 271.637L179.941 273.399V308.663L208.548 307.958V271.637Z" fill="white"/>
<path d="M156.923 275.049L134.407 276.45V309.889L156.923 309.329V275.049Z" fill="white"/>
</svg>
