<?xml version="1.0" encoding="utf-8"?>
<!-- Generator: Adobe Illustrator 16.0.0, SVG Export Plug-In . SVG Version: 6.00 Build 0)  -->
<!DOCTYPE svg PUBLIC "-//W3C//DTD SVG 1.1//EN" "http://www.w3.org/Graphics/SVG/1.1/DTD/svg11.dtd">
<svg version="1.1" id="Layer_1" xmlns="http://www.w3.org/2000/svg" xmlns:xlink="http://www.w3.org/1999/xlink" x="0px" y="0px"
	 width="32px" height="32px" viewBox="0 0 32 32" enable-background="new 0 0 32 32" xml:space="preserve">
<path fill="#4B4B4D" d="M27.375,16c0-0.83-0.543-1.525-1.289-1.772c-0.742-4.231-4.082-7.571-8.313-8.313
	C17.525,5.168,16.829,4.625,16,4.625s-1.525,0.543-1.772,1.289c-4.231,0.742-7.571,4.082-8.313,8.313
	C5.168,14.475,4.625,15.17,4.625,16c0,0.828,0.543,1.524,1.289,1.771c0.742,4.232,4.082,7.572,8.313,8.314
	c0.247,0.746,0.943,1.289,1.772,1.289s1.525-0.543,1.772-1.289c4.231-0.742,7.571-4.082,8.313-8.314
	C26.832,17.524,27.375,16.828,27.375,16z M17.631,24.592c-0.32-0.574-0.927-0.967-1.631-0.967s-1.311,0.393-1.631,0.967
	c-3.519-0.666-6.295-3.443-6.961-6.961C7.982,17.31,8.375,16.703,8.375,16c0-0.705-0.393-1.311-0.967-1.631
	c0.666-3.519,3.442-6.295,6.961-6.961c0.32,0.574,0.927,0.967,1.631,0.967s1.311-0.393,1.631-0.967
	c3.519,0.666,6.295,3.442,6.961,6.961c-0.574,0.32-0.967,0.926-0.967,1.631c0,0.703,0.393,1.31,0.967,1.631
	C23.926,21.148,21.149,23.926,17.631,24.592z"/>
</svg>
