<?xml version="1.0" encoding="utf-8"?>
<!-- Generator: Adobe Illustrator 16.0.0, SVG Export Plug-In . SVG Version: 6.00 Build 0)  -->
<!DOCTYPE svg PUBLIC "-//W3C//DTD SVG 1.1//EN" "http://www.w3.org/Graphics/SVG/1.1/DTD/svg11.dtd">
<svg version="1.1" id="Layer_1" xmlns="http://www.w3.org/2000/svg" xmlns:xlink="http://www.w3.org/1999/xlink" x="0px" y="0px"
	 width="32px" height="32px" viewBox="0 0 32 32" enable-background="new 0 0 32 32" xml:space="preserve">
<path fill="#4B4B4D" d="M20.311,16.75L23,14.061l0.97,0.97l1.061-1.061L24.061,13l2.72-2.72c1.342-1.342,1.316-3.634-0.056-5.005
	c-0.669-0.669-1.602-1.053-2.559-1.053c-0.935,0-1.803,0.354-2.446,0.997L19,7.939l-0.97-0.97L16.97,8.03L17.939,9l-6.189,6.189
	v1.561h-7v12.5h23.5v-12.5H20.311z M22.755,6.115c0.789-0.785,2.264-0.749,3.07,0.059c0.849,0.849,0.875,2.254,0.06,3.07
	l-2.896,2.896l-3.13-3.13L22.755,6.115z M22.129,13.062l-0.793,0.793h-6.215l3.9-3.9L22.129,13.062z M13.138,15.672l0.593-0.592
	h6.213l-3.699,3.699h-2.113L11.49,21.42h-0.994v-0.993l2.642-2.642V15.672z M6.25,27.75v-9.5h4.439L9.25,19.689v3.061h3.061
	l2.5-2.499h0.939v7.499H6.25z M26.75,27.75h-9.5v-7.938l1.562-1.562h7.938V27.75z"/>
</svg>
