<?xml version="1.0" encoding="utf-8"?>
<!-- Generator: Adobe Illustrator 16.0.0, SVG Export Plug-In . SVG Version: 6.00 Build 0)  -->
<!DOCTYPE svg PUBLIC "-//W3C//DTD SVG 1.1//EN" "http://www.w3.org/Graphics/SVG/1.1/DTD/svg11.dtd">
<svg version="1.1" id="Layer_1" xmlns="http://www.w3.org/2000/svg" xmlns:xlink="http://www.w3.org/1999/xlink" x="0px" y="0px"
	 width="32px" height="32px" viewBox="0 0 32 32" enable-background="new 0 0 32 32" xml:space="preserve">
<g>
	<g>
		<polygon fill="#4B4B4D" points="12.509,22.893 12.509,17.428 11.409,17.428 9.651,18.718 10.229,19.507 11.363,18.628 
			11.363,22.893 		"/>
		<path fill="#4B4B4D" d="M17.962,19.832c-0.341-0.326-0.759-0.492-1.242-0.492c-0.141,0-0.264,0.02-0.365,0.058l-0.276,0.104
			l0.181-0.289l1.281-1.784h-1.375l-1.339,1.996c-0.408,0.61-0.615,1.182-0.615,1.696c0,0.583,0.198,1.038,0.606,1.393
			c0.405,0.353,0.919,0.532,1.526,0.532c0.606,0,1.12-0.181,1.526-0.536c0.401-0.352,0.605-0.829,0.605-1.421
			C18.476,20.573,18.308,20.162,17.962,19.832z M17.055,21.843c-0.184,0.187-0.423,0.281-0.711,0.281s-0.527-0.098-0.713-0.29
			c-0.183-0.192-0.274-0.43-0.274-0.706c0-0.287,0.094-0.527,0.281-0.714c0.187-0.188,0.427-0.281,0.714-0.281
			c0.289,0,0.526,0.095,0.708,0.282c0.181,0.186,0.271,0.423,0.271,0.705C17.331,21.413,17.238,21.655,17.055,21.843z"/>
		<path fill="#4B4B4D" d="M20.639,21.805c-0.141-0.135-0.302-0.201-0.495-0.201c-0.198,0-0.364,0.067-0.507,0.205
			c-0.141,0.136-0.21,0.295-0.21,0.487c0,0.191,0.068,0.349,0.209,0.479c0.143,0.133,0.309,0.197,0.508,0.197
			c0.193,0,0.354-0.066,0.495-0.201c0.138-0.133,0.205-0.291,0.205-0.483S20.776,21.938,20.639,21.805z"/>
		<path fill="#4B4B4D" d="M22.962,19.063c0.04-0.23,0.13-0.423,0.268-0.574c0.164-0.179,0.372-0.269,0.618-0.269
			c0.24,0,0.436,0.072,0.583,0.216c0.146,0.145,0.221,0.334,0.221,0.563c0,0.316-0.166,0.634-0.495,0.944l-2.177,1.972v0.977h3.896
			v-0.969h-2.475l1.508-1.342c0.317-0.282,0.561-0.55,0.723-0.797c0.156-0.238,0.236-0.532,0.236-0.873
			c0-0.531-0.184-0.927-0.56-1.208c-0.381-0.284-0.849-0.429-1.389-0.429c-0.539,0-1.008,0.158-1.394,0.471
			c-0.358,0.29-0.578,0.683-0.654,1.168L22.962,19.063z"/>
	</g>
	<path fill="#4B4B4D" d="M17.486,12.742c-0.809,0.626-1.691,1.131-2.631,1.5H27.75v11.5H8.25v-3.061l-2.939-2.689l2.939-2.689V14.65
		c-0.512-0.131-1.015-0.287-1.5-0.489v2.521l-3.311,3.311l3.311,3.311v3.939h22.5v-14.5H17.486z"/>
	<g>
		<path fill="#4B4B4D" d="M10.911,10.741c-1.24,0-2.249-1.009-2.249-2.249s1.009-2.249,2.249-2.249s2.249,1.009,2.249,2.249
			S12.151,10.741,10.911,10.741z M10.911,7.528c-0.532,0-0.964,0.432-0.964,0.964c0,0.531,0.432,0.964,0.964,0.964
			c0.531,0,0.964-0.433,0.964-0.964C11.875,7.96,11.442,7.528,10.911,7.528z"/>
	</g>
	<g>
		<path fill="#4B4B4D" d="M10.911,12.992L10.911,12.992c-2.346,0-4.553-0.915-6.211-2.573C4.233,9.951,3.387,8.949,3.35,8.906
			L3,8.492l0.35-0.415C3.387,8.034,4.233,7.033,4.7,6.565c1.658-1.66,3.865-2.573,6.211-2.573c2.345,0,4.551,0.913,6.209,2.573
			c0.469,0.468,1.315,1.469,1.351,1.512l0.351,0.415l-0.351,0.414c-0.035,0.043-0.882,1.045-1.351,1.513
			C15.462,12.077,13.256,12.992,10.911,12.992z M4.687,8.492C4.972,8.818,5.36,9.261,5.608,9.51c1.417,1.416,3.3,2.196,5.303,2.196
			c2.001,0,3.885-0.78,5.302-2.197c0.249-0.25,0.638-0.69,0.921-1.017c-0.283-0.327-0.672-0.769-0.921-1.018
			c-1.417-1.418-3.301-2.197-5.302-2.197c-2.003,0-3.886,0.779-5.303,2.197C5.36,7.724,4.972,8.165,4.687,8.492z"/>
	</g>
</g>
</svg>
