<?xml version="1.0" encoding="UTF-8" standalone="no"?>
<!-- Created with Inkscape (http://www.inkscape.org/) -->
<svg
   xmlns:dc="http://purl.org/dc/elements/1.1/"
   xmlns:cc="http://web.resource.org/cc/"
   xmlns:rdf="http://www.w3.org/1999/02/22-rdf-syntax-ns#"
   xmlns:svg="http://www.w3.org/2000/svg"
   xmlns="http://www.w3.org/2000/svg"
   xmlns:xlink="http://www.w3.org/1999/xlink"
   xmlns:sodipodi="http://sodipodi.sourceforge.net/DTD/sodipodi-0.dtd"
   xmlns:inkscape="http://www.inkscape.org/namespaces/inkscape"
   width="298.646"
   height="298.646"
   id="svg3313"
   sodipodi:version="0.32"
   inkscape:version="0.45"
   sodipodi:docbase="/home/barret/Desktop/My Documents/Art/icons"
   sodipodi:docname="earth.svg"
   inkscape:output_extension="org.inkscape.output.svg.inkscape"
   inkscape:export-filename="/home/barret/Desktop/My Documents/Art/icons/earth.png"
   inkscape:export-xdpi="90"
   inkscape:export-ydpi="90"
   version="1.0"
   sodipodi:modified="true">
  <defs
     id="defs3315">
    <linearGradient
       id="linearGradient3533">
      <stop
         style="stop-color:#3a3a3a;stop-opacity:1;"
         offset="0"
         id="stop3535" />
      <stop
         style="stop-color:#ffffff;stop-opacity:1;"
         offset="1"
         id="stop3537" />
    </linearGradient>
    <linearGradient
       id="linearGradient3624">
      <stop
         id="stop3628"
         offset="0"
         style="stop-color:#398fe5;stop-opacity:1;" />
      <stop
         style="stop-color:#acc1d5;stop-opacity:1;"
         offset="1"
         id="stop3630" />
    </linearGradient>
    <linearGradient
       id="linearGradient3615">
      <stop
         style="stop-color:#ffffff;stop-opacity:1;"
         offset="0"
         id="stop3619" />
      <stop
         id="stop3621"
         offset="1"
         style="stop-color:#398fe5;stop-opacity:1;" />
    </linearGradient>
    <radialGradient
       inkscape:collect="always"
       xlink:href="#linearGradient3364"
       id="radialGradient2333"
       gradientUnits="userSpaceOnUse"
       gradientTransform="matrix(7.6237907,4.4015976,-5.0675166,8.7771962,2328.4492,-5270.6109)"
       cx="82.9272"
       cy="578.88593"
       fx="82.9272"
       fy="578.88593"
       r="19.966738" />
    <linearGradient
       id="linearGradient3351">
      <stop
         style="stop-color:#ffffff;stop-opacity:0.86734694;"
         offset="0"
         id="stop3353" />
      <stop
         style="stop-color:#ffffff;stop-opacity:0;"
         offset="1"
         id="stop3355" />
    </linearGradient>
    <linearGradient
       id="linearGradient3364">
      <stop
         style="stop-color:#007fff;stop-opacity:1;"
         offset="0"
         id="stop3366" />
      <stop
         id="stop3413"
         offset="0.39285713"
         style="stop-color:#1c8eff;stop-opacity:1;" />
      <stop
         style="stop-color:#1a4a7a;stop-opacity:1;"
         offset="1"
         id="stop3368" />
    </linearGradient>
    <linearGradient
       id="linearGradient6692">
      <stop
         style="stop-color:#b8ff71;stop-opacity:1;"
         offset="0"
         id="stop6694" />
      <stop
         id="stop6700"
         offset="1"
         style="stop-color:#66cc00;stop-opacity:1;" />
    </linearGradient>
    <radialGradient
       inkscape:collect="always"
       xlink:href="#linearGradient6692"
       id="radialGradient2331"
       gradientUnits="userSpaceOnUse"
       gradientTransform="matrix(0.9225535,0.5499376,-0.6128212,1.0614374,210.79224,-49.879453)"
       cx="317.86237"
       cy="249.47238"
       fx="317.86237"
       fy="249.47238"
       r="141.81195" />
    <radialGradient
       inkscape:collect="always"
       xlink:href="#linearGradient4328"
       id="radialGradient2335"
       gradientUnits="userSpaceOnUse"
       gradientTransform="matrix(1.0565445,0,0,0.5952981,10.2201,208.24643)"
       cx="333.362"
       cy="244.68217"
       fx="333.362"
       fy="244.68217"
       r="179.38509" />
    <linearGradient
       id="linearGradient4328">
      <stop
         style="stop-color:#398fe5;stop-opacity:1;"
         offset="0"
         id="stop4330" />
      <stop
         style="stop-color:#0066cc;stop-opacity:1"
         offset="1"
         id="stop4332" />
    </linearGradient>
    <radialGradient
       inkscape:collect="always"
       xlink:href="#linearGradient4328"
       id="radialGradient2337"
       gradientUnits="userSpaceOnUse"
       gradientTransform="matrix(1.0565445,0,0,0.5956187,10.2201,263.97431)"
       cx="318.06638"
       cy="365.75668"
       fx="318.06638"
       fy="365.75668"
       r="179.50987" />
    <radialGradient
       inkscape:collect="always"
       xlink:href="#linearGradient3351"
       id="radialGradient3357"
       cx="290.86432"
       cy="314.29395"
       fx="290.86432"
       fy="314.29395"
       r="130.08176"
       gradientTransform="matrix(1.4674635,0,0,1.0734203,-134.66628,-8.6146276)"
       gradientUnits="userSpaceOnUse" />
    <radialGradient
       inkscape:collect="always"
       xlink:href="#linearGradient3364"
       id="radialGradient3361"
       cx="298.10294"
       cy="315.40961"
       fx="298.10294"
       fy="315.40961"
       r="149.30214"
       gradientTransform="matrix(1.131046,0,0,1.131204,-29.352716,-17.655402)"
       gradientUnits="userSpaceOnUse" />
    <radialGradient
       inkscape:collect="always"
       xlink:href="#linearGradient6692"
       id="radialGradient3373"
       gradientUnits="userSpaceOnUse"
       gradientTransform="matrix(0.9225535,0.5499376,-0.6128212,1.0614374,-0.1554987,-133.93797)"
       cx="317.86237"
       cy="249.47238"
       fx="317.86237"
       fy="249.47238"
       r="141.81195" />
    <radialGradient
       inkscape:collect="always"
       xlink:href="#linearGradient4328"
       id="radialGradient3375"
       gradientUnits="userSpaceOnUse"
       gradientTransform="matrix(1.0565445,0,0,0.5952981,-200.72763,124.1879)"
       cx="333.362"
       cy="244.68217"
       fx="333.362"
       fy="244.68217"
       r="179.38509" />
    <radialGradient
       inkscape:collect="always"
       xlink:href="#linearGradient4328"
       id="radialGradient3377"
       gradientUnits="userSpaceOnUse"
       gradientTransform="matrix(1.0565445,0,0,0.5956187,-200.72763,179.91578)"
       cx="318.06638"
       cy="365.75668"
       fx="318.06638"
       fy="365.75668"
       r="179.50987" />
    <radialGradient
       inkscape:collect="always"
       xlink:href="#linearGradient4328"
       id="radialGradient3383"
       gradientUnits="userSpaceOnUse"
       gradientTransform="matrix(1.0565445,0,0,0.5952981,-200.72763,124.1879)"
       cx="333.362"
       cy="244.68217"
       fx="333.362"
       fy="244.68217"
       r="179.38509" />
    <radialGradient
       inkscape:collect="always"
       xlink:href="#linearGradient4328"
       id="radialGradient3385"
       gradientUnits="userSpaceOnUse"
       gradientTransform="matrix(1.0565445,0,0,0.5956187,-200.72763,179.91578)"
       cx="318.06638"
       cy="365.75668"
       fx="318.06638"
       fy="365.75668"
       r="179.50987" />
    <radialGradient
       inkscape:collect="always"
       xlink:href="#linearGradient3364"
       id="radialGradient3392"
       gradientUnits="userSpaceOnUse"
       gradientTransform="matrix(1.131046,0,0,1.131204,-29.352716,-17.655402)"
       cx="298.10294"
       cy="315.40961"
       fx="298.10294"
       fy="315.40961"
       r="149.30214" />
    <radialGradient
       inkscape:collect="always"
       xlink:href="#linearGradient6692"
       id="radialGradient3394"
       gradientUnits="userSpaceOnUse"
       gradientTransform="matrix(0.9225535,0.5499376,-0.6128212,1.0614374,210.79224,-49.879453)"
       cx="317.86237"
       cy="249.47238"
       fx="317.86237"
       fy="249.47238"
       r="141.81195" />
    <radialGradient
       inkscape:collect="always"
       xlink:href="#linearGradient3351"
       id="radialGradient3396"
       gradientUnits="userSpaceOnUse"
       gradientTransform="matrix(1.4674635,0,0,1.0734203,-134.66628,-8.6146276)"
       cx="290.86432"
       cy="314.29395"
       fx="290.86432"
       fy="314.29395"
       r="130.08176" />
    <radialGradient
       inkscape:collect="always"
       xlink:href="#linearGradient3351"
       id="radialGradient3686"
       gradientUnits="userSpaceOnUse"
       gradientTransform="matrix(1.4674635,0,0,1.0734203,-127.41403,-8.614628)"
       cx="290.86432"
       cy="314.29395"
       fx="290.86432"
       fy="314.29395"
       r="130.08176" />
    <radialGradient
       inkscape:collect="always"
       xlink:href="#linearGradient6692"
       id="radialGradient3732"
       gradientUnits="userSpaceOnUse"
       gradientTransform="matrix(0.9225535,0.5499376,-0.6128212,1.0614374,218.04449,-49.879453)"
       spreadMethod="reflect"
       cx="317.86237"
       cy="249.47238"
       fx="317.86237"
       fy="249.47238"
       r="141.81195" />
    <radialGradient
       inkscape:collect="always"
       xlink:href="#linearGradient3364"
       id="radialGradient3813"
       gradientUnits="userSpaceOnUse"
       gradientTransform="matrix(1.131046,0,0,1.131204,-22.100471,-17.655402)"
       cx="298.10294"
       cy="315.40961"
       fx="298.10294"
       fy="315.40961"
       r="149.30214" />
    <radialGradient
       inkscape:collect="always"
       xlink:href="#linearGradient3351"
       id="radialGradient3969"
       gradientUnits="userSpaceOnUse"
       gradientTransform="matrix(0.2436217,0.8776417,-1.1344403,0.3149057,586.4121,-25.658023)"
       cx="298.66852"
       cy="309.10764"
       fx="298.66852"
       fy="309.10764"
       r="130.08176" />
    <radialGradient
       inkscape:collect="always"
       xlink:href="#linearGradient6692"
       id="radialGradient3976"
       gradientUnits="userSpaceOnUse"
       gradientTransform="matrix(0.9225535,0.5499376,-0.6128212,1.0614374,218.04449,-49.879453)"
       spreadMethod="reflect"
       cx="317.86237"
       cy="249.47238"
       fx="317.86237"
       fy="249.47238"
       r="141.81195" />
    <radialGradient
       inkscape:collect="always"
       xlink:href="#linearGradient3364"
       id="radialGradient3979"
       gradientUnits="userSpaceOnUse"
       gradientTransform="matrix(1.131046,0,0,1.131204,-22.100471,-17.655402)"
       cx="298.10294"
       cy="315.40961"
       fx="298.10294"
       fy="315.40961"
       r="149.30214" />
    <radialGradient
       inkscape:collect="always"
       xlink:href="#linearGradient3533"
       id="radialGradient3539"
       cx="361.18896"
       cy="641.82562"
       fx="361.18896"
       fy="641.82562"
       r="143.60872"
       gradientTransform="matrix(1.2871291,0,0,0.588703,-103.70783,273.98098)"
       gradientUnits="userSpaceOnUse" />
    <radialGradient
       inkscape:collect="always"
       xlink:href="#linearGradient3364"
       id="radialGradient4429"
       gradientUnits="userSpaceOnUse"
       gradientTransform="matrix(1.131046,0,0,1.131204,-22.100471,282.3446)"
       cx="298.10294"
       cy="315.40961"
       fx="298.10294"
       fy="315.40961"
       r="149.30214" />
    <radialGradient
       inkscape:collect="always"
       xlink:href="#linearGradient3364"
       id="radialGradient4466"
       gradientUnits="userSpaceOnUse"
       gradientTransform="matrix(1.131046,0,0,0.5900932,-22.100471,489.57569)"
       cx="298.10294"
       cy="315.40961"
       fx="298.10294"
       fy="315.40961"
       r="149.30214" />
    <radialGradient
       inkscape:collect="always"
       xlink:href="#linearGradient3533"
       id="radialGradient4475"
       cx="374.42188"
       cy="655.5625"
       fx="374.42188"
       fy="655.5625"
       r="225.89062"
       gradientTransform="matrix(1.0526127,0,0,0.7540853,-19.699324,101.21241)"
       gradientUnits="userSpaceOnUse" />
  </defs>
  <sodipodi:namedview
     id="base"
     pagecolor="#ffffff"
     bordercolor="#666666"
     borderopacity="1.0"
     gridtolerance="10000"
     guidetolerance="10"
     objecttolerance="10"
     inkscape:pageopacity="0.0"
     inkscape:pageshadow="2"
     inkscape:zoom="0.7"
     inkscape:cx="436.16493"
     inkscape:cy="437.32234"
     inkscape:document-units="px"
     inkscape:current-layer="layer1"
     inkscape:window-width="1600"
     inkscape:window-height="1101"
     inkscape:window-x="0"
     inkscape:window-y="24" />
  <metadata
     id="metadata3318">
    <rdf:RDF>
      <cc:Work
         rdf:about="">
        <dc:format>image/svg+xml</dc:format>
        <dc:type
           rdf:resource="http://purl.org/dc/dcmitype/StillImage" />
      </cc:Work>
    </rdf:RDF>
  </metadata>
  <g
     inkscape:groupmode="layer"
     id="layer2"
     inkscape:label="layer2"
     transform="translate(-212.19409,-266.24278)" />
  <g
     inkscape:label="Layer 1"
     inkscape:groupmode="layer"
     id="layer1"
     transform="translate(-212.19409,-266.24278)">
    <g
       id="g7821">
      <path
         id="path6109"
         style="fill:url(#radialGradient3979);fill-opacity:1;fill-rule:nonzero;stroke:none;stroke-width:0.27755311;stroke-miterlimit:4;stroke-dasharray:none;stroke-opacity:1;display:inline"
         d="M 361.52327,266.24278 C 335.04238,266.24278 310.21223,273.20839 288.64164,285.32032 C 288.62812,285.32784 288.60098,285.31272 288.58755,285.32032 C 274.62949,293.16345 262.14201,303.25079 251.41732,314.99037 C 227.15437,341.54957 212.19409,376.77934 212.19409,415.56582 C 212.19409,498.00211 279.1133,564.88869 361.52327,564.88877 C 364.11693,564.88877 366.63388,564.64127 369.19502,564.51042 C 373.31619,564.2997 377.37852,563.96853 381.40494,563.42946 C 418.74128,558.43305 451.71971,539.7325 475.03275,512.41205 C 497.2922,486.32652 510.79837,452.52459 510.79837,415.56582 C 510.79837,396.70455 507.1909,378.73631 500.80344,362.11651 C 497.67072,353.96508 493.79869,346.16131 489.34985,338.76955 C 470.06953,306.73516 439.20217,282.57024 402.47531,272.07955 C 389.43709,268.35537 375.7514,266.24278 361.52327,266.24278 z " />
      <path
         id="path6111"
         style="fill:url(#radialGradient3976);fill-opacity:1;fill-rule:nonzero;stroke:none;stroke-width:0.27755311;stroke-miterlimit:4;stroke-dasharray:none;stroke-opacity:1;display:inline"
         d="M 340.37797,270.94518 C 339.84049,270.94518 338.99022,271.04328 338.62554,271.52962 C 338.27357,271.99901 337.93567,272.60898 337.55476,272.98991 C 337.32654,273.21818 337.08756,273.8663 336.48382,273.8663 C 336.13552,273.8663 334.98203,273.67838 334.73153,273.8663 C 334.26741,274.21464 333.61267,274.54528 333.46597,275.13206 C 333.27759,275.88573 332.6394,275.76392 332.10319,276.30033 C 331.80048,276.60315 331.09259,277.16168 330.64288,277.27414 C 330.05501,277.42103 329.53913,277.56601 328.89053,277.56616 C 328.39701,277.56616 327.71162,277.44724 327.23553,277.56616 C 326.45823,277.76055 326.05131,278.4709 325.38595,278.63717 C 324.78102,278.78846 324.50689,279.03041 324.21767,279.41614 C 323.84408,279.91426 322.97542,280.19496 322.36802,280.19496 C 321.43526,280.19496 321.39474,280.36518 320.71301,280.87651 C 320.22877,281.23974 319.38246,281.3633 318.76593,281.3633 C 317.93825,281.3633 316.76555,281.38989 316.04015,281.75267 C 315.54626,281.99987 314.89145,282.09349 314.67729,282.62914 C 314.33534,283.48402 314.04873,283.5762 313.217,283.99239 C 312.73313,284.23442 311.66661,284.56901 311.26993,284.96575 C 310.96746,285.26849 310.79958,286.3461 310.39393,286.42643 C 310.42256,286.4436 311.03176,286.97515 311.17264,287.01048 C 311.7713,287.16033 312.55008,287.1079 313.217,287.1079 C 314.02308,287.1079 314.72656,287.20532 315.55336,287.20532 C 316.26433,287.20532 316.68696,286.71845 317.30572,286.71845 C 318.13439,286.71845 318.9593,286.71815 319.73951,286.91322 C 320.38991,287.07575 321.00277,287.30266 321.68643,287.30266 C 322.41042,287.30266 322.81846,287.26307 323.43881,287.1079 C 324.22611,286.91101 324.70019,286.95121 325.0938,286.42643 C 325.4401,285.96449 325.73195,285.68013 326.16466,285.35528 C 326.5105,285.09592 327.81974,283.70014 328.11167,283.69999 C 328.83721,283.69999 329.36752,283.48373 330.0586,283.31069 C 330.53357,283.19192 330.55218,282.04622 331.03224,282.14227 C 331.31422,282.19874 331.89284,282.90088 332.20039,282.82382 C 332.46808,282.7568 332.79941,282.68408 333.07661,282.72663 C 333.3538,282.76873 333.57827,282.9806 333.66075,283.31069 C 333.82294,283.95956 334.01003,283.93874 334.34211,284.38169 C 334.50489,284.59879 335.31336,285.55953 335.21825,285.93963 C 335.10272,286.40242 334.99249,287.17827 335.12112,287.69204 C 335.24995,288.20808 335.27447,288.778 335.51039,289.24998 C 335.66809,289.56549 336.11361,290.2997 336.1919,290.613 C 336.34437,291.22351 336.68362,291.20725 336.97076,291.78143 C 337.31257,292.46548 337.14252,292.76351 336.87341,293.43656 C 336.64317,294.01233 336.30751,294.67869 336.48382,295.38395 C 336.52031,295.52939 336.54499,295.72499 336.58133,295.87081 C 336.69005,296.30647 336.75249,296.54234 336.87341,296.64956 C 336.99409,296.75686 337.16375,296.74706 337.65203,296.74706 C 338.22653,296.74706 339.01841,296.75047 339.30705,297.03901 C 339.6973,297.42952 340.08598,297.64882 340.08598,298.20742 C 340.08598,298.60941 339.86382,299.68163 339.50169,299.86264 C 339.23998,299.99364 338.43097,300.69662 338.43097,301.12832 C 338.43097,301.67059 338.52826,302.28269 338.52826,302.78353 C 338.52826,302.89295 338.50171,303.0672 338.52826,303.17313 C 338.68985,303.81957 338.82737,304.64733 339.11241,305.21771 C 339.3368,305.66643 339.84004,306.06317 340.08598,306.67823 C 340.30321,307.22163 340.32466,308.03199 340.5727,308.5282 C 340.84675,309.07647 341.12087,309.52754 341.35147,309.98858 C 341.62463,310.53495 341.78892,311.59447 342.22763,312.03338 C 342.74462,312.55042 342.95137,312.90111 343.39599,313.49376 C 343.77742,314.00266 344.26196,314.65199 344.66133,315.05155 C 345.01615,315.40658 345.37798,315.86563 345.82979,316.31731 C 346.75946,317.24735 347.32087,317.79319 348.45813,318.36204 C 349.04056,318.65338 349.71706,318.94276 350.30778,319.23828 C 350.97545,319.57225 351.53986,320.01642 352.06015,320.4067 C 352.65177,320.85048 353.26687,321.49221 354.10457,321.28293 C 354.83057,321.10133 355.9478,321.23749 356.63565,320.89334 C 356.86192,320.78034 357.111,320.7067 357.31707,320.50412 C 357.52338,320.30145 357.69836,320.00099 357.51172,319.62758 C 357.36008,319.32422 357.02501,318.83144 357.02501,318.36204 C 357.02501,317.56423 356.83037,316.84627 356.83037,316.02536 C 356.83037,315.44373 356.79552,314.996 356.92765,314.46734 C 357.03203,314.04939 357.06157,313.44604 356.92765,312.90963 C 356.76278,312.24935 356.89669,311.61711 356.73301,310.96223 C 356.59707,310.4183 356.63565,309.71775 356.63565,309.11242 C 356.63565,308.545 356.60334,308.07341 356.73301,307.55463 C 356.88547,306.94465 356.83037,306.30862 356.83037,305.70465 C 356.83037,305.18678 356.7437,304.61207 356.92765,304.24413 C 357.11557,303.86813 357.36165,302.96355 357.90116,302.78353 C 358.35654,302.63186 359.94559,302.28769 359.94559,301.71269 C 359.94559,301.07148 359.88458,300.59267 359.7508,300.05747 C 359.59699,299.44218 359.19342,298.83586 359.55616,298.11016 C 359.97311,297.27586 360.7895,297.04965 361.30852,296.35761 C 361.60395,295.96345 362.11564,295.55037 362.57387,295.09177 C 362.91836,294.74746 363.67472,294.44806 363.8396,294.11819 C 364.05316,293.69105 364.32638,293.05509 364.32638,292.56024 C 364.32638,292.21168 364.47787,290.98087 364.1316,290.80769 C 363.62776,290.55586 363.06081,290.64431 363.06081,290.0288 C 363.06081,289.61967 363.50229,288.67276 363.35288,288.37359 C 363.11675,287.90101 362.85345,287.49416 362.08723,287.30266 C 361.48349,287.15168 360.65326,287.03525 360.04295,286.91322 C 359.67326,286.83928 358.83219,286.73062 358.68002,286.42643 C 358.50661,286.07946 358.33747,285.13521 357.9986,284.96575 C 357.44628,284.68953 356.82245,284.6738 356.14879,284.6738 C 355.9786,284.6738 353.878,284.17045 354.59137,283.99239 C 355.30046,283.81496 355.27945,283.68669 355.56472,283.11593 C 355.72661,282.79214 356.05188,282.24014 355.75943,281.85025 C 355.35213,281.30677 354.79767,281.08297 354.3965,280.68175 C 353.86403,280.14907 352.63075,279.90293 351.86543,279.90293 C 351.75641,279.90293 351.67916,279.92937 351.57336,279.90293 C 351.14198,279.79503 350.73999,279.36151 350.40514,279.02661 C 349.90893,278.53003 349.00998,278.31262 348.36078,278.15038 C 347.86942,278.02757 347.56868,277.61146 346.99792,277.46867 C 346.43487,277.32809 345.83135,277.32338 345.24556,277.17673 C 344.48069,276.98538 343.6645,276.84084 342.90905,276.6897 C 342.62857,276.63377 340.64792,276.48704 340.76733,276.0083 C 340.84046,275.71536 341.21659,275.03472 341.64348,275.03472 C 342.22927,275.03472 342.92124,275.14923 343.49327,275.03472 C 344.23976,274.88532 345.00568,274.74239 345.82979,274.74261 C 346.5815,274.74261 347.33822,274.79117 348.06863,274.93731 C 348.98164,275.12006 349.99298,275.00455 350.89193,275.2294 C 351.59811,275.40593 352.68609,275.52144 353.423,275.52144 C 354.4611,275.52144 355.67023,275.42402 356.73301,275.42402 C 358.35661,275.42402 359.80681,275.03472 361.4058,275.03472 C 362.33101,275.03472 362.6473,274.47065 363.35288,274.35317 C 363.71039,274.29352 364.01463,274.1904 364.1316,274.06091 C 364.24876,273.93181 364.1467,273.797 363.64488,273.67146 C 363.03427,273.51887 362.33017,273.7321 361.69787,273.57412 C 361.22268,273.45535 360.46783,273.28225 359.94559,273.28225 C 359.19433,273.28225 358.55117,273.18482 357.80387,273.18482 C 357.26907,273.18482 356.78647,273.3416 356.24637,273.47678 C 355.53474,273.65482 354.85106,273.47678 354.10457,273.47678 C 353.34045,273.47678 352.53212,273.47678 351.76807,273.47678 C 350.72204,273.47678 349.62343,273.28225 348.65285,273.28225 C 348.02025,273.28225 347.40148,273.18482 346.90049,273.18482 C 345.90597,273.18482 344.75316,273.18202 343.97991,272.79538 C 343.25908,272.43466 342.73618,272.21649 341.93555,272.01633 C 341.56549,271.92377 340.70729,270.94518 340.37797,270.94518 z M 402.4881,272.1136 C 401.26784,272.36786 400.00801,272.51459 398.88609,272.79538 C 397.46685,273.1501 396.59183,273.80376 395.28416,273.47678 C 394.37436,273.24934 393.51033,273.18049 392.5583,272.98991 C 392.86727,273.29911 392.71868,273.70209 392.46094,274.06091 C 392.20319,274.41989 391.78116,274.69269 391.58472,274.83988 C 391.55601,274.86138 389.34011,275.10904 389.24828,275.13206 C 388.72075,275.26391 388.92631,275.61901 389.24828,276.0083 C 389.57042,276.39783 390.06386,276.74776 390.22194,276.78719 C 391.42567,277.08834 392.94481,277.80797 394.01851,278.34498 C 394.48002,278.57584 394.69605,278.75807 394.79723,279.02661 C 394.89862,279.29501 394.88591,279.67314 394.99201,280.09769 C 395.20138,280.93548 395.32386,281.18845 396.06295,281.55814 C 396.7093,281.8814 398.15973,281.94766 398.88609,281.94766 C 400.06291,281.94766 401.80316,282.53074 402.68281,282.82382 C 403.42429,283.07102 404.52535,283.88784 405.01917,284.38169 C 405.53205,284.89485 406.02124,285.1985 406.57689,285.93963 C 407.22033,286.79764 407.87148,287.2684 408.71853,287.69204 C 409.45073,288.05831 410.59547,288.04645 411.05497,288.27617 C 411.8911,288.69442 412.90708,289.34975 413.48883,289.93146 C 414.17497,290.61787 414.7203,291.26029 415.24105,291.78143 C 415.91746,292.45796 416.07988,293.21383 416.89605,293.82608 C 417.73152,294.45292 418.40225,294.9429 419.03785,295.57872 C 419.77506,296.31597 420.43375,296.68254 421.08228,297.33111 C 421.5924,297.84145 422.09743,298.58282 422.93192,298.79171 C 424.06716,299.07554 424.78921,298.35173 425.75515,298.11016 C 426.22833,297.99161 427.94106,299.77403 428.18879,299.9602 C 428.76298,300.39054 429.31745,301.24413 429.55186,301.71269 C 429.81837,302.24606 430.72143,302.97996 431.10944,303.36789 C 431.85959,304.11813 432.03778,304.27027 432.95909,304.73092 C 433.3367,304.91975 433.76733,304.95099 434.12716,304.82826 C 434.48735,304.70592 434.7353,304.4398 434.80873,304.14655 C 435.01213,303.33286 435.32431,302.89888 435.10073,302.00471 C 434.96912,301.47779 435.05086,300.87793 435.29538,300.44684 C 435.54026,300.01583 435.93851,299.79478 436.65845,300.15474 C 437.17268,300.41219 437.49989,301.25363 437.72938,301.71269 C 438.05286,302.36026 438.50809,303.21667 438.50809,304.14655 C 438.50809,304.97218 438.50809,305.51066 438.50809,306.38613 C 438.50809,306.74069 442.60265,309.02069 442.69418,309.11242 C 443.21903,309.63705 443.92648,309.96647 444.54375,310.37803 C 445.22323,310.83115 445.66232,311.2782 446.5881,311.74121 C 447.1131,312.00376 447.39605,312.49077 447.56176,313.00689 C 447.7273,313.52301 447.76634,314.03838 447.65911,314.46734 C 447.53895,314.94858 447.94566,316.0474 447.75647,316.80418 C 447.60984,317.3912 447.50149,317.85648 447.56176,318.16728 C 447.62187,318.47808 447.87298,318.61494 448.53518,318.9461 C 449.49567,319.42636 449.85871,320.1883 450.87162,320.79607 C 451.40147,321.11409 451.81707,324.829 452.13726,325.46967 C 452.50613,326.20753 452.92024,327.20505 452.72134,328.00112 C 452.50539,328.86505 452.13726,329.50602 452.13726,330.43522 C 452.13726,331.09747 451.61817,332.02508 451.45576,332.67464 C 451.30105,333.29449 451.00644,333.94892 450.87162,334.4272 C 450.73688,334.9054 450.76207,335.22068 451.45576,335.49819 C 452.35756,335.85907 453.84147,336.27709 454.76562,336.27709 C 455.74353,336.27709 456.70873,336.27709 457.6862,336.27709 C 458.15056,336.27709 458.61925,337.20918 459.04913,338.22441 C 459.47916,339.23963 459.84039,340.33122 459.92542,340.75593 C 460.10541,341.65709 460.34125,342.04798 460.89886,342.60582 C 461.63015,343.33745 462.69922,343.96643 462.94328,344.94258 C 463.22167,346.05705 463.60625,346.34225 463.13793,347.27935 C 462.91008,347.73537 461.31026,348.09593 460.8015,348.35035 C 460.07116,348.71563 458.84365,348.84892 457.78363,349.12932 C 457.2537,349.26952 456.77244,349.47424 456.42063,349.71346 C 456.06903,349.95259 455.83655,350.26894 455.83655,350.68711 C 455.83655,351.64025 456.22016,352.03866 456.61549,352.82911 C 457.04537,353.68947 457.44287,354.35408 457.97835,355.06852 C 458.06576,355.18494 458.16737,355.35508 458.27042,355.45797 C 458.86414,356.05191 458.80162,356.97784 459.34135,357.69732 C 460.0853,358.69012 460.45259,359.53087 460.99614,360.61844 C 461.51957,361.66536 462.70079,362.47031 463.33256,363.73387 C 463.6855,364.44005 464.30622,365.78468 464.30622,366.75234 C 464.30622,367.51573 464.70903,368.2662 464.89028,368.99176 C 465.02854,369.54503 465.59012,370.08244 466.15586,370.45228 C 466.72177,370.82197 467.29507,371.10207 467.81086,371.2311 C 468.72186,371.45892 469.77858,371.32837 470.73144,371.32837 C 471.74039,371.32837 472.35856,371.03649 473.26252,371.03649 C 473.7837,371.03649 474.52301,369.68014 474.82016,369.28379 C 475.47063,368.41628 475.84922,367.89348 476.08567,366.94718 C 476.21316,366.43683 476.34603,365.92778 476.37782,365.38908 C 476.4093,364.85076 476.30669,364.34468 475.89102,363.92879 C 475.53674,363.57429 475.47647,363.22497 475.50159,362.85756 C 475.52665,362.4906 475.63701,362.12555 475.89102,361.78671 C 476.02742,361.60472 476.08567,359.2716 476.08567,359.15784 C 476.08567,359.06347 474.8494,357.50932 474.62546,357.2106 C 474.07862,356.48133 473.9402,355.54826 473.55452,354.77643 C 473.13862,353.94411 473.0678,353.21354 473.0678,352.14763 C 473.0678,351.3242 473.0678,350.53703 473.0678,349.71346 C 473.0678,348.5996 472.55837,348.23051 471.99687,347.66887 C 471.40584,347.07767 471.42985,346.56885 471.21816,345.72148 C 471.07272,345.14016 471.13994,344.79934 471.31545,344.55321 C 471.49109,344.30686 471.8299,344.14287 472.19158,343.87151 C 472.79076,343.42218 472.97044,342.4742 472.97044,341.72966 C 472.9703,341.19218 472.80183,340.6484 472.7758,340.26906 C 472.74964,339.88965 472.83383,339.59732 473.26252,339.49024 C 473.65695,339.39138 474.10359,339.71594 474.43066,340.0743 C 474.75788,340.43274 474.97839,340.86961 475.11209,341.04803 C 475.6193,341.7245 475.72323,342.11478 476.37782,342.60582 C 477.25718,343.26571 478.54047,343.58989 479.29839,343.96908 C 480.09961,344.36985 480.83248,344.77883 481.44004,345.23469 C 482.19287,345.79952 482.82143,346.32431 483.2896,346.79241 C 483.73676,347.23968 483.86702,348.11417 484.26326,348.64245 C 484.67841,349.19619 485.14448,349.32887 485.62611,349.81095 C 486.14595,350.33087 486.44146,351.34458 486.69704,351.85553 C 486.98015,352.42196 487.17725,352.64187 487.37833,352.63442 C 487.57977,352.62697 487.82975,352.36002 488.25462,352.14763 C 488.52328,352.01306 487.83617,349.98709 487.76783,349.71346 C 487.57768,348.95257 486.50457,347.8685 486.21026,347.27935 C 485.89597,346.65068 485.99738,346.38183 486.21026,346.40296 C 486.42285,346.42439 486.76972,346.67052 486.98897,346.88982 C 487.63301,347.53399 488.24759,347.752 488.74132,348.7398 C 488.95519,349.16747 489.7683,349.7668 490.20163,350.20032 C 490.83609,350.83506 490.74807,351.41311 490.9804,352.34247 C 491.06259,352.67112 491.26762,352.7497 491.4672,352.73169 C 491.66662,352.71406 491.91397,352.55015 492.14877,352.34247 C 492.61813,351.92666 493.10088,351.31372 493.21948,351.07671 C 493.51058,350.49425 493.59777,349.84446 493.80355,349.22673 C 494.0717,348.422 493.94062,347.72738 493.70634,347.08466 C 493.47178,346.44186 493.07929,345.85796 492.83005,345.23469 C 492.60722,344.67753 492.26274,344.1915 491.95391,343.67683 C 491.0178,342.11645 490.24267,340.64369 489.42291,339.00338 C 489.38268,338.92314 489.36497,338.88947 489.32548,338.80854 C 470.04523,306.77429 439.21502,282.60436 402.4881,272.1136 z M 307.4732,284.96575 C 306.9832,284.96575 306.20142,285.89404 305.9157,286.03698 C 305.28886,286.35036 304.63435,287.07097 304.06583,287.49727 C 303.47459,287.9409 302.97463,288.34007 302.41106,288.76304 C 301.76788,289.24557 301.34124,289.34732 300.3666,289.34732 C 299.44207,289.34755 299.42133,289.77112 298.71161,290.12629 C 297.88147,290.54135 297.11395,291.86136 296.76456,292.56024 C 296.4354,293.219 295.96292,294.04349 295.5964,294.41021 C 295.1508,294.85598 294.35659,295.12741 293.84408,295.38395 C 293.23287,295.68935 293.45473,296.89607 293.45473,297.52595 C 293.45473,297.94685 291.81393,298.01289 291.70241,298.01289 C 291.47908,298.01289 290.18528,296.10608 290.0474,295.96808 C 289.35886,295.27923 289.7172,295.15537 288.68445,294.89701 C 288.12534,294.75726 287.67079,294.80491 287.41888,294.70232 C 287.16707,294.59974 287.02952,294.32427 287.02952,293.63139 C 287.02952,292.88023 287.92864,292.53737 288.29508,292.17079 C 288.74059,291.72542 289.61756,291.41211 290.0474,291.19722 C 290.67368,290.88384 290.93774,290.30691 291.41028,289.83403 C 291.9972,289.24701 292.09176,288.57192 292.09176,287.69204 C 292.09176,287.41756 290.70668,286.85341 290.43676,286.71845 C 289.81867,286.40925 289.42612,285.72625 288.68445,285.35528 C 288.67101,285.36295 288.60046,285.34783 288.58704,285.35528 C 274.62914,293.19825 262.12353,303.21469 251.3989,314.95421 C 251.27925,315.55567 251.22337,316.27901 251.00942,316.70668 C 250.60073,317.52463 250.02728,317.68901 249.45179,318.2647 C 249.02098,318.69556 248.79221,319.50098 248.47836,319.91998 C 248.02635,320.52251 247.34099,320.76529 246.82342,321.28293 C 246.32175,321.7847 246.33674,322.92591 246.33674,323.61985 C 246.33674,324.27655 246.62691,324.51828 246.92073,324.49594 C 247.2145,324.47367 247.46984,324.17671 247.69963,323.71712 C 247.98387,323.14826 249.40817,322.26519 249.93869,321.86715 C 250.66658,321.32094 251.70315,320.96674 252.08039,320.21194 C 252.42141,319.52978 252.74669,319.10446 252.95654,318.2647 C 253.23542,317.14872 253.85243,316.66754 254.41674,315.53826 C 254.61845,316.16853 254.94813,316.94597 255.58502,317.58307 C 255.87633,317.87457 256.01252,318.29669 255.97444,318.65415 C 255.93631,319.01153 255.72406,319.34953 255.58502,319.62758 C 255.36594,320.06619 254.48437,320.72844 254.02733,321.18559 C 253.47378,321.73941 253.16918,321.73371 252.85924,322.35409 C 252.52448,323.02363 251.96831,323.1912 251.78838,323.91173 C 251.62016,324.58493 251.27525,325.08843 251.10697,325.76155 C 250.86674,326.72267 251.02613,327.30285 250.32805,328.00112 C 249.85466,328.47461 249.58678,329.40845 249.45179,329.94851 C 249.21252,330.90644 248.78256,331.15629 248.18632,331.60349 C 247.53648,332.09127 247.30172,333.09745 247.11537,333.84313 C 246.87153,334.81884 245.71061,335.87366 245.26573,336.76403 C 244.88354,337.52871 244.58334,337.64209 244.19495,338.41931 C 243.92518,338.95923 243.88613,339.84937 243.70808,340.56117 C 243.51061,341.35139 243.06594,342.09897 242.53992,342.80051 C 242.45271,342.91715 242.25347,342.9898 242.15057,343.09269 C 241.63083,343.61269 241.27441,344.81242 241.27441,345.5268 C 241.27441,346.19185 240.37766,347.36149 240.20357,348.05824 C 239.96657,349.00614 239.78062,349.78032 239.42461,350.49227 C 238.98541,351.37117 238.56925,351.71654 238.15908,352.53701 C 237.70792,353.43984 237.44482,353.96584 237.08829,354.67908 C 236.80188,355.25235 236.79629,356.07516 236.79629,356.82123 C 236.79629,357.47702 236.56769,358.51436 236.40692,359.15784 C 236.22855,359.87123 236.40692,360.85538 236.40692,361.5921 C 236.40692,362.54646 236.06563,363.10163 235.53065,363.63668 C 234.90368,364.26382 234.50262,364.63359 234.26513,365.58407 C 234.1148,366.18568 233.71238,366.98183 233.38902,367.6285 C 232.96106,368.48452 232.90919,368.98202 232.31801,369.77065 C 231.87232,370.36505 231.54903,371.28923 231.34455,372.10734 C 231.12728,372.97673 231.05681,373.65639 230.66317,374.4441 C 230.26679,375.2372 230.18134,375.78729 229.98169,376.58609 C 229.78821,377.36074 229.46264,377.91652 229.20285,378.43614 C 228.8274,379.18715 228.81365,379.9928 228.61874,380.77299 C 228.40616,381.62384 228.32675,382.6453 228.32675,383.49889 C 228.32675,384.24731 227.93727,385.16147 227.93727,386.03049 C 227.93727,386.92823 227.84331,387.67171 227.64527,388.46467 C 227.45418,389.22935 227.54784,390.04655 227.54784,390.89878 C 227.54784,392.11035 227.25585,393.26912 227.25585,394.50129 C 227.25585,395.44859 227.62993,395.60846 227.83995,396.44861 C 228.02477,397.18868 227.95084,398.06104 228.13189,398.78514 C 228.22037,399.13896 228.32675,399.42718 228.32675,399.85653 C 228.62091,401.03391 229.39764,401.38202 229.39764,402.58258 C 229.39764,403.52638 229.49661,403.95222 229.68952,404.72466 C 229.87789,405.47803 229.68952,406.47554 229.68952,407.25611 C 229.68952,408.03545 229.38807,409.04628 229.20285,409.78763 C 229.17787,409.8874 229.20285,409.97662 229.20285,410.07966 C 229.20285,411.01099 228.91085,411.9968 228.91085,413.00055 C 228.91085,413.28642 229.48703,414.64004 229.68952,415.04529 C 230.06532,415.79691 230.26953,416.87831 230.46838,417.67438 C 230.76242,418.85093 231.09387,419.87048 231.53922,420.98465 C 231.89381,421.87115 231.93606,422.56091 232.31801,423.51587 C 232.56799,424.14058 232.2797,425.30976 232.41539,425.85278 C 232.60499,426.61124 232.61011,427.49978 232.61011,428.28688 C 232.61011,429.17407 232.80497,429.87689 232.80497,430.72092 C 232.80481,431.56394 232.90976,432.30895 233.09692,433.05768 C 233.32072,433.95375 233.19429,434.6157 233.48633,435.19968 C 233.98031,436.18808 234.44391,436.40184 234.65455,437.24449 C 234.86514,438.08736 235.15616,438.86132 235.33608,439.58117 C 235.54656,440.42375 236.40368,441.12703 236.60154,441.91801 C 236.87337,443.00535 237.8579,443.97345 238.35382,445.13108 C 238.66092,445.84775 238.66531,446.7274 238.93803,447.27309 C 239.19663,447.79043 240.39232,448.24211 240.78767,448.53877 C 241.15714,448.8159 241.15526,449.12762 241.27441,449.41509 C 241.39361,449.70271 241.59188,449.95697 242.15057,450.09664 C 242.81933,450.26381 243.26045,450.9291 243.70808,451.2649 C 244.29756,451.70724 243.40007,449.83774 243.22148,449.12298 C 243.01938,448.31445 242.20763,447.46564 241.85851,446.88364 C 241.5319,446.33894 241.81308,445.04036 241.5664,444.5468 C 241.16461,443.74298 240.80437,443.05588 240.59281,442.21012 C 240.36786,441.30987 239.9407,440.47694 239.71671,439.58117 C 239.48845,438.6671 239.14212,438.04246 238.74324,437.24449 C 238.26637,436.29028 237.67246,435.94028 237.67246,434.8103 C 237.67246,434.08476 237.11576,432.82066 236.79629,432.18152 C 236.46006,431.50893 236.60154,430.15472 236.60154,429.35789 C 236.60154,428.5755 236.30944,427.93612 236.30944,427.11862 C 236.30944,426.15302 236.0456,425.18673 235.82264,424.29499 C 235.61775,423.47468 235.33608,422.74107 235.33608,421.86074 C 235.33608,421.21011 235.50643,420.98989 235.62802,421.08184 C 235.74957,421.17386 235.82264,421.59979 235.82264,422.15307 C 235.82264,422.75878 236.64419,423.39383 236.79629,424.00288 C 237.01082,424.86141 237.16092,425.75339 237.38034,426.63175 C 237.55296,427.32251 237.19215,428.31242 237.38034,429.06601 C 237.59572,429.92812 238.06194,430.42782 238.06194,431.40262 C 238.06194,432.21662 238.35382,432.80812 238.35382,433.54477 C 238.35382,434.07762 239.00006,435.15598 239.13267,435.6867 C 239.34149,436.52243 239.51034,437.3919 239.71671,438.21821 C 239.89167,438.91747 240.29016,439.83011 240.49556,440.65233 C 240.66248,441.32035 241.07955,442.14491 241.5664,442.79425 C 241.98997,443.35908 242.07087,444.3873 242.34536,444.93625 C 242.78102,445.80815 242.99047,446.32397 243.41609,447.17567 C 243.76151,447.86656 244.01542,448.40488 244.19495,449.12298 C 244.39806,449.93561 245.10411,451.03876 245.46046,451.75185 C 245.79978,452.43036 246.18077,453.17308 246.33674,453.79651 C 246.56677,454.71765 246.79075,455.77565 247.21285,456.62005 C 247.5545,457.30373 247.88937,457.97328 248.18632,458.56744 C 248.61131,459.4177 249.16766,460.03542 249.7439,460.61211 C 250.44795,461.31607 251.42495,461.65598 252.27501,462.0724 C 253.12523,462.48913 253.80939,462.95259 254.02733,463.82503 C 254.21586,464.579 254.83007,465.43062 255.09823,465.96711 C 255.49479,466.76021 256.23971,467.49822 256.85055,468.10918 C 258.46668,469.72571 259.83043,471.44901 261.91288,472.49068 C 262.61807,472.84319 263.08691,473.05179 263.95737,473.2695 C 264.83513,473.48903 265.54904,473.5787 266.29368,473.95097 C 267.04448,474.32667 267.74254,474.43791 268.63017,474.43791 C 268.98316,474.43791 269.87477,475.26012 270.47986,475.41149 C 271.01915,475.54653 271.89241,475.22897 272.62149,475.41149 C 273.62387,475.66203 273.94106,474.76771 274.95797,475.02212 C 275.89952,475.25746 277.34246,477.41922 278.17044,478.04028 C 278.90375,478.59045 279.66742,479.1704 280.50698,479.89026 C 281.27472,480.54863 281.80847,480.92167 282.74601,481.15602 C 283.49293,481.34295 283.90985,481.44569 284.49832,481.74015 C 285.1283,482.05528 286.18701,481.8375 286.93221,481.8375 C 287.64632,481.8375 288.36192,482.87802 288.78185,483.29809 C 289.77965,484.29614 290.95383,484.86378 291.60491,485.73227 C 292.17694,486.49514 292.50446,487.50808 293.1626,488.16631 C 293.75485,488.75864 294.58558,489.49195 295.30436,490.21104 C 295.89903,490.80581 296.57767,491.21585 296.76456,491.96328 C 296.96445,492.76323 297.92453,493.12768 298.51696,493.42396 C 299.16985,493.75041 300.05011,493.95331 300.65871,494.10544 C 301.20164,494.24131 302.07972,495.43929 302.50834,495.76072 C 302.83518,496.00602 304.51329,495.56604 305.03949,495.56604 C 305.72518,495.56604 306.56707,496.56454 306.98664,497.1239 C 307.46438,497.76138 307.76191,498.29217 308.64142,498.29217 C 309.54755,498.29217 310.30592,497.8933 310.88049,497.31836 C 311.33633,496.8628 311.46456,495.62577 311.46456,494.98182 C 311.46456,494.38318 313.01054,495.74902 313.31428,496.0529 C 313.78933,496.52807 314.41198,497.24807 314.77457,497.61062 C 315.45937,498.29559 316.39182,499.1903 316.72165,499.85004 C 317.05246,500.51183 316.86059,501.394 317.20837,502.08946 C 317.5969,502.86691 317.91379,503.32193 318.37666,503.93927 C 318.87002,504.59742 318.86336,505.12791 318.86336,506.17868 C 318.86336,507.02391 319.05801,507.69119 319.05801,508.51544 C 319.05801,509.23613 318.44254,509.51745 318.27923,510.17073 C 318.08383,510.95236 317.79251,511.4982 317.79251,512.50749 C 317.79251,513.20736 316.52701,513.91094 316.52701,514.94159 C 316.52701,515.72065 317.30789,516.8975 317.50037,517.66773 C 317.72124,518.55157 317.96771,519.67356 318.37666,520.49144 C 318.84788,521.43416 319.57874,521.30825 319.83679,522.34133 C 320.0585,523.22821 320.11511,524.13606 320.32358,524.97012 C 320.51987,525.7557 321.01241,526.07015 321.1998,526.82009 C 321.36281,527.47284 321.8644,528.06899 322.27074,528.47531 C 322.77256,528.97722 323.62805,529.47183 324.31494,529.64365 C 325.55972,529.95474 326.02027,530.45696 326.65145,531.29893 C 327.20584,532.03831 327.48571,532.82526 328.30631,533.44101 C 329.1224,534.05318 329.48313,534.13076 330.0586,534.70662 C 330.18998,534.83793 330.29383,534.89575 330.44811,534.99872 C 331.22464,535.51659 331.43902,536.17565 332.39518,536.65401 C 333.17091,537.04201 333.83543,537.69316 334.53682,538.11446 C 335.42613,538.6482 335.89033,539.03453 336.77597,539.47748 C 337.53823,539.85887 338.12395,540.58959 338.8204,540.938 C 339.57817,541.31712 340.139,541.63005 341.05941,541.81424 C 341.80476,541.96349 342.76047,542.23948 343.39599,542.39853 C 344.36097,542.63987 345.28743,542.80887 346.02435,543.17735 C 346.71684,543.52355 347.47439,544.33544 347.87399,544.73544 C 348.44938,545.31076 349.41287,545.74816 350.11321,546.09824 C 350.6418,546.36299 351.37131,546.82486 351.86543,547.07213 C 352.8497,547.56431 353.23681,548.27102 354.10457,548.92187 C 354.77292,549.42349 355.22965,550.04721 355.75943,550.57708 C 356.40527,551.2233 356.79552,552.10022 357.31707,552.62158 C 357.93944,553.24447 358.19989,553.91395 358.38802,554.66632 C 358.62393,555.6108 359.27501,556.14858 359.65352,556.90597 C 360.02665,557.65233 361.1008,558.08905 361.60052,558.75587 C 362.08529,559.40223 363.03194,559.70056 363.54752,560.21623 C 364.22439,560.8933 364.81811,561.09901 365.39732,561.87152 C 365.9603,562.62222 366.56307,562.84252 366.95482,563.23462 C 367.50823,563.78806 368.30915,564.05783 368.80446,564.30555 C 368.95364,564.38002 369.04501,564.44377 369.19403,564.50046 C 373.31499,564.28967 377.33634,563.96831 381.36284,563.42924 C 381.39522,563.35165 381.53453,563.32657 381.55771,563.23462 C 381.81419,562.208 383.06683,561.40867 383.60199,560.60575 C 384.15556,559.77503 385.03364,559.67679 385.74364,559.53476 C 386.58822,559.36576 386.96233,558.80267 387.59328,558.17173 C 388.2371,557.52757 388.85265,556.9144 389.44301,556.12707 C 390.02535,555.35038 390.2345,554.81184 390.70864,554.17983 C 391.26954,553.43156 391.38761,552.72418 391.7795,551.94026 C 392.22786,551.04305 392.70179,550.35929 393.43452,549.99295 C 394.28687,549.56649 394.53206,548.91533 395.28416,548.72734 C 396.28967,548.47566 396.72561,548.07474 397.62044,547.85095 C 398.34562,547.66949 399.53859,545.93266 399.95702,545.51419 C 400.57153,544.89943 400.98982,544.49403 401.61189,543.66414 C 401.84144,543.35805 402.02725,542.95683 402.29339,542.69049 C 402.49924,542.43311 402.67174,542.26639 402.8776,542.00893 C 403.22291,541.57708 403.2387,540.1753 403.36417,539.67225 C 403.54296,538.95672 403.90711,538.00222 404.24047,537.33533 C 404.58294,536.65028 404.47032,535.70778 404.82453,534.99872 C 405.21875,534.21033 405.4667,533.5195 405.79819,532.85665 C 406.16847,532.11574 405.91932,531.25136 406.28475,530.51996 C 406.66079,529.76797 406.88527,529.02676 407.16097,528.47531 C 407.5557,527.68546 407.41251,527.42482 408.42631,526.91751 C 408.96851,526.64653 409.52499,525.72151 409.98403,525.26237 C 410.41242,524.83372 410.6514,523.53832 410.86033,523.1203 C 411.22546,522.38989 412.14123,521.74185 412.61261,521.27018 C 412.98537,520.8973 413.33727,520.05867 413.68347,519.71247 C 414.09766,519.29825 414.16219,518.0891 414.26747,517.66773 C 414.43564,516.99598 414.38884,516.20903 414.55977,515.52573 C 414.74783,514.7729 414.01271,514.19986 413.68347,513.87044 C 413.05865,513.24558 412.64051,512.43112 411.8339,511.82571 C 411.14014,511.30533 410.65664,511.03793 410.27626,510.65752 C 409.77579,510.15698 408.88768,509.91464 408.23168,509.58659 C 407.6719,509.30643 407.16141,509.19707 406.28475,509.19707 C 405.46155,509.19707 404.57694,509.19707 403.75367,509.19707 C 402.86578,509.19707 402.39792,509.39169 401.61189,509.39169 C 400.77297,509.39184 400.21134,509.58659 399.37296,509.58659 C 398.60112,509.58659 397.80813,509.58659 397.03652,509.58659 C 396.33789,509.58659 395.81087,509.19707 394.99201,509.19707 C 394.15311,509.19707 394.07796,508.62753 393.62916,508.02865 C 393.22731,507.49255 392.16177,507.3471 391.48744,507.3471 C 390.57234,507.3471 389.72542,507.24968 388.66429,507.24968 C 387.43842,507.24968 387.23518,507.57484 386.32771,508.02865 C 385.68569,508.34979 385.07207,508.79768 384.6727,509.19707 C 384.20768,509.66228 383.18078,509.94975 382.62849,510.17073 C 381.90242,510.46116 380.97581,510.34171 380.29198,510.17073 C 379.82621,510.05423 379.68316,509.74663 379.61056,509.39169 C 379.5378,509.03712 379.61056,508.59029 379.61056,508.12599 C 379.61056,507.22445 380.14086,506.81693 380.68142,506.27618 C 381.03308,505.92427 380.97349,504.68162 380.97349,504.13411 C 380.97349,503.04617 381.09141,502.90969 380.68142,502.08946 C 380.32936,501.38526 379.61415,501.11937 379.22105,500.72635 C 378.7552,500.26031 378.40428,499.42245 377.95555,498.9738 C 377.52641,498.54461 377.08023,497.70986 376.78734,497.1239 C 376.49705,496.54288 375.67079,496.2248 375.13232,495.95534 C 374.46279,495.62067 373.4436,495.50896 372.89332,495.37127 C 372.22012,495.20296 371.25478,495.37127 370.55674,495.37127 C 369.78514,495.37127 369.0895,495.37127 368.31775,495.37127 C 367.49319,495.37127 366.85469,495.56604 366.07867,495.56604 C 365.4973,495.56604 364.9367,495.95534 364.1316,495.95534 C 363.49712,495.95534 362.90992,495.07287 362.47673,494.49489 C 361.90889,493.73764 361.21229,493.62009 360.72445,493.13185 C 360.20365,492.61079 359.57463,492.46884 359.16672,492.06086 C 358.68368,491.57749 357.35963,491.34124 356.73301,491.18461 C 355.81222,490.95437 355.04136,490.72807 354.3965,490.40564 C 353.50825,489.96141 353.47453,489.53496 353.03365,488.65302 C 352.65842,487.90247 352.35207,487.48809 352.35207,486.70586 C 352.35207,486.08601 351.9737,485.07253 351.76807,484.66119 C 351.61949,484.3637 351.37543,484.03892 351.28136,483.88215 C 350.97994,483.2791 351.23994,482.94581 351.37863,482.71388 C 351.5175,482.48189 351.56707,482.3714 350.98937,482.22709 C 350.91922,482.20961 349.56945,483.48685 349.43171,483.59028 C 348.81632,484.05176 348.35405,483.95685 347.48456,484.17426 C 346.20209,484.49508 346.06645,484.43893 344.95357,483.88215 C 344.49063,483.65077 344.41391,483.37561 344.27206,483.20068 C 344.13013,483.02574 343.9968,482.92871 343.29863,483.10325 C 342.58767,483.28107 342.05915,483.77174 341.44883,484.07699 C 340.76008,484.42145 340.4034,484.49607 339.79384,484.95315 C 339.16429,485.42566 338.0396,485.78228 337.4574,486.21898 C 336.92021,486.62196 335.49507,485.8705 335.21825,485.73227 C 334.48821,485.36676 334.46841,484.09477 334.34211,483.59028 C 334.17169,482.90834 333.97728,482.82529 333.75803,483.00599 C 333.53909,483.18646 333.27244,483.68542 333.07661,484.07699 C 332.82492,484.58058 332.45919,484.72245 332.10319,484.75847 C 331.7471,484.79456 331.45278,484.72533 331.12953,484.56363 C 331.03823,484.51796 331.22697,482.51798 331.22697,482.22709 C 331.22697,481.84745 330.00042,480.80563 329.86395,480.66915 C 329.49532,480.30038 329.26224,480.38959 329.08516,480.66915 C 328.90825,480.94887 328.76416,481.40891 328.59845,481.74015 C 328.21926,482.49891 328.2029,483.42629 328.01431,484.36902 C 327.85504,485.16623 327.81974,485.9993 327.81974,486.8032 C 327.81974,487.35997 327.33715,487.7726 326.94361,488.16631 C 326.57795,488.53219 326.51842,488.02481 326.55417,487.28999 C 326.58991,486.55524 326.75285,485.65514 326.65145,485.14799 C 326.48747,484.32783 326.17117,483.61611 325.96995,482.81131 C 325.80282,482.14244 325.83588,481.47199 325.58052,480.96126 C 325.33698,480.47394 324.90844,480.87972 324.50973,481.4482 C 324.11103,482.0163 323.6967,482.79193 323.53631,483.00599 C 322.91425,483.83542 321.57622,484.61348 321.10252,485.24541 C 320.8785,485.54397 319.6088,486.04094 319.25272,486.21898 C 318.43454,486.62812 317.40495,487.84844 316.72165,488.36091 C 316.07186,488.84862 316.13758,490.23254 316.13758,490.98993 C 316.13751,491.9449 316.45747,491.81025 315.94286,492.83975 C 315.70014,493.32518 315.30847,493.302 314.96929,493.13185 C 314.63011,492.96172 314.41723,492.67721 314.28787,492.54772 C 313.74649,492.00637 313.3255,491.77156 312.5355,491.57406 C 311.67259,491.35833 311.00237,491.78684 310.29642,491.96328 C 309.34214,492.20212 308.47273,492.61414 307.5707,492.83975 C 306.83985,493.02258 305.78179,492.80632 305.13676,492.64506 C 304.59068,492.50859 304.07123,491.77414 303.57919,491.28196 C 302.95863,490.66112 302.74448,490.46112 302.1189,489.6266 C 301.64516,488.99467 301.4916,488.54777 300.85335,488.06896 C 300.0694,487.4808 299.89525,487.80779 299.49049,486.99781 C 299.14255,486.30175 298.90769,485.83091 298.51696,485.44001 C 298.12297,485.04594 298.22492,484.07258 298.22492,483.29809 C 298.22492,482.53941 298.0301,481.58338 298.0301,480.76657 C 298.0301,479.97878 297.87458,479.17078 297.73816,478.6245 C 297.56712,477.94029 297.64085,476.96906 297.64085,476.28765 C 297.64085,475.71446 296.66724,475.14371 296.18047,475.02212 C 295.37351,474.8203 294.80348,474.63267 293.55206,474.63267 C 292.50954,474.63267 291.66864,474.63267 290.63149,474.63267 C 289.85975,474.63267 289.06683,474.63267 288.29508,474.63267 C 287.70902,474.63267 287.56116,474.50896 287.22425,474.34034 C 287.09084,474.34034 286.34795,472.28619 286.34795,472.00381 C 286.34795,471.15835 286.15333,470.49138 286.15333,469.66689 C 286.15333,468.85904 286.00494,468.09968 285.8612,467.52505 C 285.70265,466.89008 285.75483,466.126 285.56916,465.38289 C 285.40087,464.70962 285.56916,463.74433 285.56916,463.04621 C 285.56916,462.20173 285.7639,461.79899 285.7639,460.90413 C 285.7639,460.30495 285.8612,459.46625 285.8612,458.76213 C 285.8612,457.85619 285.3505,457.19226 284.59565,456.81482 C 283.93681,456.48525 283.14259,456.62005 282.35665,456.62005 C 281.55229,456.62005 281.04235,456.8269 280.31219,457.00943 C 279.48494,457.21642 279.0787,458.14586 278.75467,458.47018 C 278.20317,459.02164 278.15447,459.89689 277.97582,460.61211 C 277.80485,461.29601 277.87851,462.26746 277.87851,462.94894 C 277.87851,463.33057 277.02373,464.42079 276.90486,464.89596 C 276.68925,465.75919 275.50565,466.27737 274.95797,466.55124 C 274.14582,466.95756 272.74702,466.46803 272.13481,466.16179 C 271.63388,465.91118 270.74045,464.46502 270.47986,464.11736 C 270.0588,463.55572 269.59589,463.13595 269.21415,462.75395 C 268.69453,462.23434 268.22592,461.95553 267.6567,461.19624 C 267.21392,460.60572 266.89301,459.96095 266.68305,459.54095 C 266.31403,458.80271 266.21143,458.30559 265.80695,457.49629 C 265.44021,456.76261 264.95838,455.99397 264.54137,455.15976 C 264.08091,454.23846 264.06478,453.80676 263.4704,453.21238 C 262.855,452.59663 262.69168,451.73795 262.69168,450.87546 C 262.69168,450.01138 262.39962,449.10368 262.39962,448.24659 C 262.39962,447.4645 262.10751,446.72763 262.10751,445.9099 C 262.10768,445.12752 262.10751,444.39087 262.10751,443.57322 C 262.10768,442.85064 262.5943,442.25472 262.5943,441.43115 C 262.5943,440.53264 262.39962,440.13476 262.39962,439.28907 C 262.39962,438.27256 262.48141,437.77049 262.88641,436.75762 C 263.14717,436.10547 263.897,435.61269 264.15194,435.10241 C 264.45818,434.48979 264.78142,434.03605 265.22289,433.4472 C 265.66887,432.8522 266.35417,432.50637 267.07252,432.27893 C 267.79071,432.05127 268.53542,431.86433 269.21415,431.69481 C 270.26979,431.43066 271.15768,431.54768 272.13481,431.79207 C 273.19408,432.05704 274.22867,432.18152 275.34734,432.18152 C 275.88623,432.18152 276.14516,432.44604 276.41813,432.66823 C 276.69114,432.89065 276.95896,433.09302 277.48902,432.96041 C 278.02883,432.82531 277.87851,431.08293 277.87851,430.62364 C 277.87851,430.07249 277.66336,429.7832 277.68377,429.55273 C 277.70406,429.32218 277.94959,429.12763 278.46255,428.87102 C 279.36055,428.42215 279.49212,428.28688 280.60436,428.28688 C 281.58695,428.28688 282.50598,428.48165 283.4274,428.48165 C 283.97325,428.48157 284.76703,429.10286 285.27721,429.35789 C 285.77371,429.6063 286.08314,429.60857 286.44528,429.65007 C 286.80759,429.69149 287.13838,429.82758 287.5162,430.33155 C 288.03387,431.02199 288.77435,431.49244 289.26851,431.98675 C 289.80808,432.52658 290.83921,432.82074 291.31296,433.05768 C 291.66021,433.23154 291.6038,434.99998 291.70241,435.39452 C 291.89032,436.14667 292.33626,436.75952 292.67584,437.43917 C 293.15011,438.3879 293.37231,439.42364 293.74668,440.36022 C 294.01478,441.03045 294.26608,441.69102 294.52565,442.21012 C 294.93524,443.02981 295.17113,443.40924 295.88835,443.76791 C 296.47897,444.06321 297.08906,444.09253 297.73816,444.25477 C 298.5068,444.44703 299.13058,443.76114 299.49049,443.28096 C 299.76796,442.91097 299.69269,442.35465 299.5878,441.82067 C 299.48309,441.28661 299.28336,440.76152 299.10105,440.45749 C 298.52514,439.49743 298.69763,438.56602 298.32225,437.43917 C 298.02649,436.55169 297.4121,435.70638 296.95927,435.10241 C 296.5074,434.49973 296.42369,433.44682 296.08315,432.76572 C 295.71938,432.0382 295.49038,431.46577 295.30436,430.72092 C 295.12101,429.98769 295.07295,429.21123 294.91493,428.57892 C 294.67085,427.60237 295.23865,426.79491 295.88835,426.14496 C 296.37021,425.66303 296.43385,425.32587 296.56992,424.7817 C 297.34795,424.00342 297.76495,423.07331 298.22492,422.15307 C 298.61745,421.36734 298.80909,420.73046 298.80909,419.81615 C 298.80909,419.33788 299.25054,418.83763 299.78252,418.35563 C 300.31457,417.87385 300.9394,417.3974 301.2428,416.9926 C 301.80829,416.23855 302.58386,415.47828 302.99512,414.65584 C 303.34185,413.96191 304.02912,413.44038 304.2607,412.51384 C 304.41922,411.87879 304.36703,411.11479 304.55278,410.37177 C 304.75922,409.54537 304.93801,408.83046 305.13676,408.03508 C 305.33575,407.23939 305.32639,406.55442 305.13676,405.79559 C 304.952,405.05627 304.64393,404.32291 304.35798,403.75092 C 303.97184,402.97842 303.43742,402.53835 302.99512,402.09564 C 302.6463,401.74684 302.7032,400.31862 302.7032,399.7591 C 302.7032,399.26267 304.19205,399.27217 304.65013,399.27217 C 305.36065,399.27217 306.203,398.81098 306.69448,398.68795 C 307.14927,398.57427 307.78337,397.48359 308.05727,396.93541 C 308.39951,396.25074 308.63236,395.6087 308.8362,394.79325 C 309.05635,393.91207 308.64142,393.23166 308.64142,392.45672 C 308.64142,391.7912 309.3793,391.06542 309.90698,390.80151 C 310.66596,390.42178 311.11866,390.11973 312.04879,390.11973 C 312.94983,390.11973 313.70954,390.31449 314.57986,390.31449 C 315.62014,390.31449 315.85247,390.0084 316.23486,389.24364 C 316.5232,388.66657 316.42951,387.59466 316.42951,386.9068 C 316.42951,386.11803 316.37993,385.34513 316.23486,384.76465 C 316.11672,384.29192 316.3275,383.80969 316.42951,383.40162 C 316.29894,382.87859 317.36823,381.29473 317.50037,381.16236 C 318.00883,380.65376 318.56957,380.1409 319.25272,379.79918 C 319.83791,379.50653 320.5165,379.02233 321.10252,378.43614 C 321.73362,377.8046 322.2747,377.06902 322.66009,376.68359 C 323.22996,376.11321 323.31183,375.54504 323.82823,375.02831 C 324.07178,374.78491 323.96088,376.80784 323.82823,377.07297 C 323.6386,377.45238 323.73567,377.71941 323.92551,378.04678 C 324.11552,378.37376 324.43174,378.70842 324.50973,379.02028 C 324.63641,379.52675 324.42606,379.86651 324.41238,380.09136 C 324.39869,380.31598 324.50614,380.48088 325.19109,380.48088 C 326.15121,380.48088 326.39505,380.21492 326.74881,379.50707 C 327.12628,378.75189 327.80284,378.66784 328.50109,378.14397 C 329.02983,377.74737 329.32871,377.12182 329.86395,376.58609 C 330.49311,375.95675 330.92718,375.818 331.51896,375.02831 C 332.02848,374.34919 332.70797,374.33642 333.46597,373.95739 C 334.53106,373.42447 334.04345,372.69329 335.21825,372.39952 C 335.94342,372.21813 336.40045,371.59281 336.67861,371.03649 C 336.96934,370.45486 336.1919,369.61312 336.1919,368.99176 C 336.1919,367.99925 335.92352,367.62782 335.41303,366.94718 C 335.13757,366.57977 334.8692,366.51297 334.63417,366.55757 C 334.39923,366.60218 334.23922,366.75774 334.05018,366.94718 C 333.58612,367.41132 333.36861,368.602 333.07661,369.18644 C 332.6705,369.99877 332.87486,370.5304 332.20039,371.03649 C 331.70732,371.40618 330.40705,370.03198 330.0586,369.77065 C 329.44739,369.31205 328.53205,369.18644 327.72231,369.18644 C 327.22252,369.18644 326.97209,369.37809 326.74881,369.47847 C 326.52545,369.579 326.30606,369.5667 325.96995,368.89442 C 325.70106,368.35625 325.79461,367.21945 325.67795,366.75234 C 325.57206,366.32915 325.31305,366.15163 325.19109,365.97352 C 325.06913,365.7954 325.14914,365.52867 325.58052,365.09713 C 326.145,364.53252 326.45667,364.77546 326.45667,363.73387 C 326.45667,362.94928 327.13615,362.3719 327.72231,362.07882 C 328.483,361.69833 328.07301,361.10523 329.18253,361.10523 C 329.95525,361.10523 330.75827,360.85272 331.22697,360.61844 C 331.66933,360.39693 331.9306,360.09502 331.90839,359.83947 C 331.88641,359.58399 331.64585,359.45002 331.12953,359.45002 C 330.15558,359.45002 329.59282,360.03415 328.59845,360.03415 C 327.98395,360.03415 326.99827,360.70484 326.45667,360.81305 C 325.67646,360.96914 324.932,360.90219 324.12038,361.10523 C 323.28453,361.31412 322.63751,361.96278 321.78379,362.17608 C 321.03118,362.36438 320.09043,363.59565 319.93415,364.22081 C 319.69082,365.19493 318.89657,366.03742 318.18187,366.75234 C 317.46836,367.46596 317.12124,367.48784 316.42951,367.14178 C 316.33761,367.09596 317.47629,365.14538 317.69514,364.70768 C 318.19862,363.70066 318.36274,363.06661 319.25272,362.17608 C 319.9284,361.50046 320.63518,361.08586 321.1998,360.52095 C 321.86292,359.85778 322.17876,359.18087 323.04945,358.96316 C 323.93681,358.74126 324.93327,358.86589 325.87266,358.86589 C 326.76406,358.86566 327.34694,358.47621 328.11167,358.47621 C 328.82338,358.47621 329.62415,357.48812 330.25338,357.016 C 330.97452,356.47479 332.1476,356.50063 332.97932,356.33422 C 333.92531,356.14507 334.31788,355.89621 334.63417,355.26329 C 334.98263,354.56631 335.90304,354.67604 336.38669,354.19214 C 336.73222,353.84638 336.77403,353.47928 336.87341,353.21856 C 336.97255,352.95806 337.05496,352.7595 337.55476,352.63442 C 338.32114,352.44286 339.16429,352.49977 339.79384,352.34247 C 340.46696,352.17423 341.33503,352.34247 342.03299,352.34247 C 342.58102,352.34247 342.94368,352.2598 343.10385,352.05037 C 343.26401,351.84086 343.29863,351.48173 343.29863,351.07671 C 343.29863,350.31605 342.85947,349.66398 342.32505,349.12932 C 341.71153,348.51563 341.38154,347.92366 340.96205,347.08466 C 340.60036,346.36093 340.26993,345.50537 339.98862,344.94258 C 339.65655,344.27829 339.4044,343.48198 339.11241,342.89801 C 338.71975,342.11212 337.91114,341.69698 337.26277,341.53475 C 336.598,341.36871 335.79103,340.64719 335.41303,340.26906 C 334.95317,339.80902 334.50101,339.34169 334.05018,339.00338 C 333.4036,338.51833 333.09717,338.46035 332.78454,337.83496 C 332.48932,337.24422 332.0794,336.71654 331.71383,335.98506 C 331.42982,335.41719 331.01796,335.08025 330.74017,334.52461 C 330.44497,333.93379 330.65493,332.99106 330.44811,332.5773 C 330.16866,332.01809 329.95989,331.11388 329.66939,330.53272 C 329.3418,329.87738 329.13407,329.75428 328.79324,329.07196 C 328.35851,328.20249 328.8915,327.71008 328.30631,327.12481 C 327.75162,326.56985 327.71948,326.10107 327.04073,325.76155 C 326.62446,325.55356 326.45958,325.36245 326.26202,325.27491 C 326.06439,325.18737 325.85404,325.23539 325.38595,325.46967 C 325.30154,325.51169 324.69062,326.9577 324.60702,327.12481 C 324.25378,327.83158 323.75846,327.97338 323.04945,328.6826 C 322.39553,329.33672 322.0177,329.77275 321.68643,330.43522 C 321.39362,331.0211 320.21898,330.62809 319.83679,330.53272 C 319.48392,330.44442 319.41812,330.08651 319.44745,329.6564 C 319.47683,329.22615 319.53575,328.74377 319.44745,328.39049 C 319.2792,327.71729 319.44745,326.75207 319.44745,326.05388 C 319.44759,325.7193 319.81272,325.71063 320.22631,325.66436 C 320.64004,325.618 321.15801,325.51162 321.39452,325.27491 C 321.68696,324.98212 321.86074,324.81844 321.8813,324.59328 C 321.90157,324.36827 321.76892,324.09137 321.39452,323.71712 C 320.95768,323.28018 319.86214,323.45572 319.35016,323.32752 C 318.26517,323.05624 317.83685,323.16612 317.01357,322.5487 C 316.28489,322.00211 315.86068,321.5388 315.65071,320.69881 C 315.51329,320.14849 314.35269,320.25259 313.80107,320.11459 C 313.02341,319.91998 312.21822,319.91998 311.36736,319.91998 C 310.63755,319.91976 310.08235,320.50891 309.323,320.69881 C 308.89663,320.80557 308.53733,320.6276 308.25214,320.60146 C 307.96702,320.57524 307.73222,320.63619 307.5707,321.28293 C 307.3564,322.1398 307.01124,322.69384 306.69448,323.32752 C 306.43397,323.84851 306.40242,324.70674 306.40242,325.46967 C 306.40242,326.4184 306.14534,326.58315 306.40242,327.61167 C 306.57724,328.31123 306.33743,329.23451 306.20762,329.75367 C 306.00947,330.5467 306.40503,331.3009 306.20762,332.09051 C 305.95489,333.10163 305.67381,333.45643 306.11042,334.32993 C 306.5154,335.13998 306.94133,335.31742 307.18121,336.27709 C 307.37397,337.04877 306.88913,337.84035 306.88913,338.61393 C 306.88913,339.28264 305.90973,340.08205 305.62356,340.46382 C 305.26509,340.9421 304.84484,341.75474 304.84484,342.41098 C 304.84477,342.94481 303.57741,343.33692 303.28712,343.48213 C 302.51379,343.86885 302.10134,344.51134 301.63217,345.13728 C 301.26744,345.62361 301.2428,346.78033 301.2428,347.37677 C 301.2428,348.13872 301.048,348.90393 301.048,349.71346 C 301.048,350.48551 301.048,351.27831 301.048,352.05037 C 301.048,352.84074 301.23979,353.23048 301.048,353.99746 C 300.86369,354.73501 299.97422,355.21602 299.49049,355.45797 C 299.03465,355.68602 298.59999,355.4332 298.32225,355.06852 C 298.04459,354.70386 297.83548,354.18264 297.83548,353.90026 C 297.83556,353.07661 297.83548,352.19224 297.83548,351.36859 C 297.83556,350.71082 297.64085,349.93337 297.64085,349.22673 C 297.64085,348.40316 297.64085,347.61599 297.64085,346.79241 C 297.64085,345.83964 297.34183,345.40202 297.154,344.65055 C 297.0355,344.17653 295.95802,343.4544 295.5964,343.09269 C 295.06589,342.56213 294.34591,342.12656 293.74668,341.82685 C 293.2539,341.58057 292.54243,340.91451 292.18907,340.56117 C 291.44645,339.81822 290.99018,339.52619 290.63149,338.80854 C 290.26063,338.06658 289.29169,337.9323 288.48971,337.9323 C 287.63986,337.93238 286.80828,337.74209 286.15333,337.2509 C 285.68207,336.89739 285.56916,335.7093 285.56916,335.20602 C 285.56916,334.22917 285.45186,333.45027 285.27721,332.5773 C 285.13381,331.86056 285.21796,330.86707 285.37453,330.24061 C 285.59388,329.36255 286.54656,328.675 286.83473,328.09854 C 287.2376,327.29251 288.5171,326.70816 289.17119,326.05388 C 289.80006,325.42483 290.13791,324.50126 290.92352,323.91173 C 291.91849,323.1652 292.95221,322.60554 294.03871,322.06176 C 294.61298,321.77466 294.68868,320.95679 294.91493,320.50412 C 295.32003,319.69361 295.57073,318.97201 296.08315,318.45939 C 296.71133,317.83087 297.26224,317.28033 297.83548,316.70668 C 298.33265,316.20948 299.72594,316.31731 299.97724,316.31731 C 300.32043,316.31731 300.94715,318.15999 301.048,318.36204 C 301.26114,318.78819 301.42297,319.02422 301.72957,319.14087 C 302.03606,319.25774 302.50811,319.22354 302.89776,319.14087 C 303.67693,318.97589 304.57423,318.56463 305.62356,318.2647 C 306.208,318.0976 306.907,316.99005 307.4732,316.70668 C 308.02422,316.43129 308.05727,315.14403 308.05727,314.46734 C 308.05727,313.57902 307.96006,313.11153 307.96006,312.32541 C 307.96006,311.88384 306.67071,311.38869 306.40242,311.25434 C 306.02645,311.06634 305.99137,310.63403 306.11042,310.18342 C 306.22916,309.73256 306.52393,309.28279 306.69448,309.11242 C 307.17687,308.62973 308.01136,308.29629 308.64142,308.13868 C 309.4789,307.92933 310.2461,307.96915 310.88049,307.65182 C 311.56528,307.30948 311.74722,306.8825 312.24357,306.38613 C 313.01473,305.61468 313.09227,305.13268 313.31428,304.24413 C 313.47752,303.59107 313.39078,302.57532 313.50892,302.10221 C 313.70565,301.31518 314.45558,300.58044 314.77457,300.15474 C 315.00893,299.84219 315.1056,299.56795 315.35872,299.37584 C 315.61169,299.18367 315.93665,299.08374 316.52701,299.08374 C 317.0888,299.08374 317.45355,299.10866 317.69514,299.27858 C 317.93667,299.44819 318.07837,299.75313 318.27923,300.15474 C 318.56763,300.73189 318.37666,301.8038 318.37666,302.49166 C 318.37666,303.31858 317.73411,303.62087 317.30572,304.04936 C 316.91815,304.437 318.66358,305.26262 318.86336,305.41255 C 319.17346,305.64492 319.00117,306.14502 318.66873,306.67823 C 318.33612,307.21145 317.85285,307.72583 317.79251,307.84665 C 317.53864,308.35427 316.89453,308.86363 316.52701,309.59928 C 316.0379,310.57757 315.94123,310.7193 314.57986,311.05973 C 313.69721,311.28025 312.97615,311.959 312.43822,312.22792 C 312.05387,312.42025 312.03832,312.69199 312.14606,313.00689 C 312.25397,313.32187 312.42027,313.67073 312.5355,313.78579 C 313.21035,314.4608 313.50174,314.44127 314.38522,314.6621 C 315.43455,314.92465 315.80782,314.61188 316.42951,315.44107 C 316.85199,316.00446 317.02658,316.24565 317.30572,316.80418 C 317.70211,317.59751 318.15995,318.07951 318.37666,318.9461 C 318.47267,319.33061 319.91845,319.47377 320.42094,319.72507 C 321.07493,320.05213 322.09419,320.12364 322.66009,320.4067 C 323.37667,320.76507 323.70605,320.98453 324.50973,321.18559 C 325.15871,321.34783 325.37129,321.66867 326.16466,321.86715 C 326.63837,321.98569 326.93163,322.02164 327.13824,321.86715 C 327.34485,321.71251 327.42276,321.41007 327.52759,320.99091 C 327.61449,320.64287 327.23306,320.21141 326.8461,319.91998 C 326.45935,319.62841 326.0762,319.48616 325.96995,319.43297 C 325.15452,319.02513 324.83688,318.88394 324.31494,318.36204 C 323.89172,317.9384 323.70216,317.56742 323.73087,317.29089 C 323.75966,317.01467 324.00694,316.82013 324.31494,316.51215 C 324.6145,316.21252 324.93633,316.30728 325.2886,316.51215 C 325.64064,316.71686 326.0359,317.06475 326.16466,317.19363 C 326.50206,317.53118 326.89859,317.43755 327.23553,317.19363 C 327.57261,316.94969 327.7766,316.48958 327.81974,316.31731 C 327.97438,315.69823 328.11167,315.29107 328.11167,314.36999 C 328.11167,313.40682 327.46845,313.24353 327.72231,312.22792 C 327.82924,311.79972 327.46591,311.47996 327.04073,311.25434 C 326.61571,311.0288 326.11629,310.85296 325.87266,310.67006 C 325.0891,310.0825 324.71089,310.09929 324.31494,309.30702 C 324.02975,308.73642 324.22342,308.43428 324.50973,308.33367 C 324.79605,308.23268 325.16545,308.27827 325.38595,308.33367 C 326.27122,308.5548 326.43207,308.99015 327.04073,309.59928 C 327.73368,310.29223 327.72919,310.67362 328.50109,311.05973 C 329.24534,311.43193 329.24295,312.03338 330.0586,312.03338 C 330.57709,312.03338 330.64288,310.46306 330.64288,309.98858 C 330.64288,309.15633 330.25338,308.54028 330.25338,307.65182 C 330.25338,307.2993 331.07555,306.6894 331.22697,306.38613 C 331.45712,305.92548 331.43439,305.52266 331.22697,305.21771 C 331.01939,304.91269 330.65912,304.64992 330.44811,304.4389 C 329.89312,303.88371 329.41702,303.64221 329.08516,302.9783 C 328.70493,302.2174 327.89788,301.8883 327.23553,301.22589 C 327.13547,301.02551 326.80377,301.23485 326.45667,301.32315 C 326.10978,301.41131 325.76724,301.38866 325.58052,300.64168 C 325.40151,299.92465 325.80829,298.95198 325.96995,298.30476 C 326.15404,297.56865 326.57167,297.35862 326.74881,296.64956 C 326.88767,296.09361 327.19268,295.9329 327.33288,295.77347 C 327.47309,295.61389 327.50314,295.43236 327.23553,294.89701 C 327.04844,294.52268 326.05176,294.11051 325.67795,293.9235 C 325.05851,293.61346 324.6693,293.10958 324.31494,292.75493 C 323.97367,292.41358 324.12038,290.93946 324.12038,290.41825 C 324.12038,290.02849 323.9327,289.71587 323.63345,289.54194 C 323.33442,289.36837 322.97624,289.31069 322.66009,289.15264 C 322.10002,288.87231 321.45778,288.86053 320.61551,288.86053 C 319.94275,288.86053 318.90472,288.72466 318.27923,288.5685 C 317.56018,288.38848 316.61958,288.73993 316.13758,288.86053 C 315.46438,289.02885 314.49887,288.86053 313.80107,288.86053 C 313.00314,288.86053 312.71766,288.56531 311.95143,288.37359 C 311.45754,288.25011 310.31908,289.23836 309.90698,289.44451 C 309.48923,289.65364 309.31013,289.49892 309.22571,289.15264 C 309.14099,288.80597 309.1282,288.32047 309.1282,287.98414 C 309.1282,287.21208 309.1282,286.41944 309.1282,285.6473 C 309.1282,285.31865 308.88818,285.14311 308.54414,285.06317 C 308.20016,284.9833 307.77193,284.96575 307.4732,284.96575 z M 391.87686,294.41021 C 391.46225,294.49601 391.11259,294.83903 391.00064,295.28637 C 390.87076,295.80615 390.80728,296.54674 390.70864,296.94167 C 390.67769,297.06553 388.78333,296.69926 387.69071,297.13651 C 387.2286,297.32138 386.56594,297.61243 386.13307,297.72064 C 385.53883,297.86912 385.71679,298.29497 385.84115,298.79171 C 385.9963,299.41254 387.74247,299.53474 388.27486,299.66802 C 388.64754,299.76112 389.1489,300.44464 389.54036,300.83644 C 389.92994,301.22627 390.59192,301.50341 391.00064,301.80995 C 391.31875,302.04856 391.65448,302.75587 392.07151,303.17313 C 392.50438,303.60628 393.25042,303.80848 393.82379,303.95195 C 394.51801,304.12566 394.9526,303.75734 395.67351,303.75734 C 396.2617,303.75734 396.77517,304.04936 397.42588,304.04936 C 398.09997,304.04936 398.56942,303.75734 399.17816,303.75734 C 399.67393,303.75734 399.87559,302.95731 400.15167,302.58907 C 400.51357,302.10623 400.54117,301.35941 400.5411,300.73895 C 400.5411,300.165 400.35319,299.59759 400.24902,299.18109 C 400.12527,298.68586 399.14699,298.4376 398.88609,297.91532 C 398.55865,297.26006 398.53906,297.09509 397.8153,296.55229 C 397.32171,296.18215 396.42724,295.76078 396.06295,295.57872 C 395.48426,295.28927 395.062,295.04686 394.60259,294.70232 C 394.29861,294.47413 393.83673,294.41021 393.33701,294.41021 C 393.00964,294.41021 392.59381,294.41021 392.26615,294.41021 C 392.12183,294.37419 392.0149,294.38172 391.87686,294.41021 z M 426.14435,306.97034 C 425.51661,307.05264 425.36557,307.99802 425.36572,308.82024 C 425.36572,309.6492 424.25485,310.40804 423.90536,310.67006 C 423.42463,311.0307 425.85497,311.98528 426.04715,312.03338 C 426.8687,312.23879 427.55156,312.93774 428.38349,313.10431 C 428.98358,313.22437 429.97757,313.87826 430.72001,314.17524 C 431.14585,314.34576 431.27843,314.97016 431.40136,315.63584 C 431.52467,316.30128 431.59601,316.9785 431.59601,317.38846 C 431.59601,318.23529 431.59137,319.12187 431.79079,319.91998 C 431.99889,320.75223 432.23324,321.07032 431.98551,322.06176 C 431.86721,322.53563 431.80979,322.89734 431.79079,323.23026 C 431.77188,323.56324 431.824,323.84767 432.18015,324.20383 C 432.81978,324.84382 434.62074,324.5027 435.39288,325.27491 C 436.15715,326.03959 436.75387,326.55754 437.63187,327.61167 C 438.08226,328.15226 437.59023,329.12775 438.21595,329.75367 C 438.64545,330.18332 440.06955,330.26402 440.55237,330.1432 C 440.89268,330.05801 441.05546,328.13129 441.13653,327.80628 C 441.23837,327.39883 441.83725,327.18567 442.49945,327.12481 C 443.16159,327.06401 443.92266,327.15505 444.25175,327.31957 C 444.83702,327.61228 444.89915,328.52651 444.73861,329.16946 C 444.61754,329.65389 444.71984,329.97259 444.93325,330.24061 C 445.14673,330.50833 445.46191,330.74846 445.80939,330.92224 C 446.45007,331.24246 447.30692,331.13182 447.75647,331.01944 C 448.47073,330.84078 448.79107,329.82632 449.11933,329.16946 C 449.34194,328.72424 449.43698,328.38874 449.50875,328.09854 C 449.58054,327.80841 449.63027,327.55103 450.0929,327.31957 C 450.74756,326.99205 451.05242,326.4849 450.87162,325.76155 C 450.67488,324.97376 450.45399,324.24494 450.0929,323.52235 C 449.61255,322.56169 448.59838,322.2066 447.75647,321.57512 C 447.11325,321.0922 447.1789,320.91978 446.97754,320.11459 C 446.84249,319.5731 445.91489,319.14511 445.32268,318.84876 C 444.7775,318.57618 444.42022,317.61871 443.76511,317.29089 C 442.81329,316.81497 441.90058,316.6715 441.03917,316.02536 C 440.1634,315.36835 439.39426,315.13232 438.50809,314.46734 C 437.65169,313.82492 436.90028,313.05431 436.17166,312.32541 C 435.45307,311.60662 434.74966,311.29264 434.22466,310.76762 C 433.58009,310.12278 432.57047,309.74556 431.88823,309.40444 C 431.00647,308.96363 430.51146,308.44477 429.74651,308.13868 C 428.82251,307.76907 428.16486,307.67006 427.31257,307.45705 C 427.02154,307.38448 426.69387,307.12483 426.43665,306.97034 C 426.32651,306.94275 426.23408,306.95864 426.14435,306.97034 z M 341.05941,353.21856 C 340.79904,353.47912 340.31809,353.24865 339.98862,353.41324 C 339.63546,353.59007 339.48404,354.26327 339.40455,354.58181 C 339.2737,355.10447 339.31932,355.59164 339.20976,356.13967 C 339.08512,356.76234 339.2719,357.75111 339.40455,358.28153 C 339.50947,358.70152 338.83551,359.22479 338.62554,359.64463 C 338.40959,360.07709 338.13255,360.43197 337.84691,360.81305 C 337.51147,361.26048 337.56261,362.23421 337.4574,362.76029 C 337.33215,363.38713 337.30135,363.87141 337.16541,364.41565 C 337.06221,364.82812 337.06805,365.2358 337.06805,365.68141 C 337.06805,366.01835 337.86821,366.2274 338.13898,366.36296 C 338.42933,366.50811 338.58292,366.16281 338.72305,365.77876 C 338.86311,365.3944 338.98014,364.9374 339.20976,364.70768 C 339.67958,364.23783 339.92312,364.02613 340.5727,364.02613 C 340.99779,364.02613 341.4531,363.92879 341.93555,363.92879 C 342.20549,363.92879 342.75966,364.09741 343.00649,364.22081 C 343.47503,364.45517 343.76104,364.68329 344.07727,364.99971 C 344.45383,365.37646 344.34317,365.82078 344.95357,365.97352 C 345.45021,366.09761 345.7645,366.36296 346.31635,366.36296 C 346.88239,366.36296 347.40537,366.36296 347.97151,366.36296 C 348.38322,366.36296 348.82079,366.36296 349.23692,366.36296 C 349.83026,366.36296 349.82115,365.98545 349.82115,365.38908 C 349.82115,364.86535 349.89704,364.50129 350.01579,364.02613 C 350.13692,363.54078 349.91095,363.21767 349.82115,362.85756 C 349.71541,362.43475 349.02141,361.96057 348.75013,361.68937 C 348.14513,361.08418 347.48104,361.18836 347.28991,360.42337 C 347.20086,360.06775 347.38727,359.53893 347.38727,359.15784 C 347.38727,358.78694 347.48456,358.40622 347.48456,357.9895 C 347.48456,357.49109 347.17163,357.26608 346.99792,356.9185 C 346.78317,356.48908 346.38289,356.52912 345.92691,356.52905 C 345.49845,356.52905 344.8906,356.41909 344.4667,356.33422 C 343.98746,356.23832 343.72149,356.27046 343.39599,355.94469 C 343.03931,355.58822 342.71441,355.64339 342.71441,355.06852 C 342.71441,354.76776 342.50818,354.43857 342.42241,354.09495 C 342.32027,353.6865 342.23735,353.54227 341.93555,353.31598 C 341.75437,353.18003 341.26294,353.21856 341.05941,353.21856 z M 485.82075,356.9185 C 485.32343,356.99023 485.30675,358.7956 484.74989,359.35268 C 484.23537,359.86728 483.71014,360.00292 483.2896,360.42337 C 482.56691,361.14642 481.69644,361.82227 480.95316,362.56568 C 480.31631,363.20277 480.21177,364.46762 479.88231,365.29196 C 479.64647,365.88165 479.88231,367.17294 479.88231,367.82349 C 479.88231,368.65048 478.93304,369.9534 478.61674,370.74415 C 478.41828,371.2406 478.25131,371.46735 477.93531,371.62055 C 477.61932,371.7739 477.20632,371.77845 476.66974,371.91265 C 475.79786,372.13059 475.09301,372.31159 474.3333,372.6917 C 473.77854,372.96899 473.3518,374.16795 473.0678,374.73636 C 472.77371,375.32474 472.93598,376.43184 472.7758,377.07297 C 472.51595,378.11251 472.57608,379.28761 472.7758,380.28589 C 472.93896,381.1024 473.06706,381.84034 473.26252,382.62287 C 473.47399,383.46873 473.10608,384.22208 472.97044,384.76465 C 472.76587,385.58322 472.48448,386.31948 472.28894,387.10156 C 472.09041,387.89627 473.0678,388.69021 473.0678,389.53574 C 473.0678,390.4268 473.29624,391.25053 473.0678,392.16461 C 472.91907,392.75908 473.20128,393.6284 473.55452,394.50129 C 473.90775,395.37419 474.38767,396.27626 474.52795,396.83798 C 474.62463,397.22492 472.51088,399.78837 472.28894,400.34317 C 472.00704,401.04797 471.59698,401.98348 471.1208,402.77735 C 470.63955,403.57972 471.21816,404.48498 471.21816,405.30887 C 471.21816,406.1674 471.41272,407.1172 471.41272,408.03508 C 471.41272,409.16284 471.60752,410.32024 471.60752,411.44292 C 471.60752,412.45259 470.58279,413.88659 470.34194,414.85052 C 470.1132,415.7659 470.35832,416.92778 470.73144,417.67438 C 471.00961,418.23101 470.5045,419.65194 470.34194,420.30295 C 470.06781,421.3994 470.63401,422.62762 470.63401,423.7107 C 470.63401,423.86504 470.63401,424.04316 470.63401,424.19765 C 470.63401,425.7008 471.86175,427.70853 472.19158,429.35789 C 472.37194,430.26027 471.86579,430.75876 471.70487,431.40262 C 471.45811,432.38965 471.99253,433.13769 472.19158,433.93399 C 472.51416,435.22453 472.25499,436.33862 471.70487,437.43917 C 471.42738,437.99451 471.42162,438.41632 471.51016,438.89969 C 471.59892,439.38322 471.80365,439.8767 471.99687,440.36022 C 472.37038,441.29414 472.03606,442.56141 472.28894,443.57322 C 472.50421,444.43449 472.19158,446.00117 472.19158,446.98098 C 472.19158,447.68738 471.90677,448.02105 471.70487,448.44143 C 471.50297,448.8618 471.39374,449.33856 471.60752,450.19406 C 471.6588,450.39992 471.65327,450.6696 471.70487,450.87546 C 471.88471,451.59463 473.38284,453.10789 474.04115,453.60174 C 474.50065,453.94635 474.6351,454.31627 474.72259,454.67289 C 474.81052,455.02951 474.82016,455.38552 474.82016,455.93866 C 474.82016,457.10684 474.94721,457.81796 475.69617,458.56744 C 476.15431,459.02575 477.03875,458.96214 477.54604,459.63852 C 477.96231,460.19363 477.93531,461.7518 477.93531,462.462 C 477.93531,463.32882 477.9579,463.8267 478.22746,464.31189 C 478.4968,464.79709 478.99331,465.27255 479.59032,465.86976 C 479.84754,466.12706 480.1118,466.29393 480.3691,466.55124 C 480.98031,467.1628 481.09016,468.24611 481.73196,468.888 C 482.32746,469.48376 483.25438,470.23348 484.06861,470.64063 C 484.55974,470.8863 485.0715,470.71617 485.52868,470.44586 C 485.98578,470.17557 486.36946,469.8153 486.69704,469.56948 C 487.65656,468.84993 488.36865,468.17309 488.83876,467.23279 C 489.47571,465.95859 490.59868,464.56593 490.88298,463.14355 C 490.99238,462.59643 491.14536,462.24277 491.4672,461.97513 C 491.78895,461.70757 492.29242,461.51372 492.73269,461.29358 C 493.51881,460.90049 494.26148,460.04362 494.67969,459.34626 C 495.14039,458.57816 495.9689,458.06197 496.82149,458.27535 C 497.47944,458.43993 497.93841,458.92574 498.28163,459.44353 C 498.62492,459.96155 498.93068,460.48133 499.06065,461.00163 C 499.26882,461.83463 498.42617,462.85472 498.08699,463.53292 C 497.51877,464.66988 497.7849,465.52591 497.0162,466.55124 C 496.3297,467.46677 495.98603,468.80631 495.55591,469.66689 C 494.97506,470.82908 495.12431,472.60406 494.87449,473.8537 C 494.76338,474.40926 494.36639,475.51362 494.09563,476.19039 C 493.78015,476.97924 493.41413,478.47897 493.41413,479.30604 C 493.41413,480.40121 492.2702,481.30176 491.75926,482.32428 C 491.15336,483.53624 490.70029,484.77731 490.20163,486.02423 C 489.82416,486.96817 489.36361,487.97276 488.83876,488.84778 C 488.37254,489.62523 487.97885,490.43764 487.76783,491.28196 C 487.57341,492.05987 487.05933,492.6991 486.69704,493.42396 C 486.35391,494.11022 486.29221,494.81754 485.91818,495.56604 C 485.22345,496.95558 483.6729,499.36902 482.51089,500.53159 C 481.50912,501.53382 480.20953,502.89525 479.68768,503.93927 C 479.34521,504.62455 479.13186,505.14857 478.81138,505.78939 C 478.34425,506.72422 477.72056,507.77667 477.1566,508.90497 C 476.76223,509.69389 476.08021,510.08418 475.69617,510.85244 C 475.29797,511.64896 475.11702,511.97777 475.01488,512.41008 C 497.27434,486.32447 510.84009,452.49108 510.84009,415.53215 C 510.84009,396.67073 507.20032,378.69869 500.813,362.07882 C 500.16201,362.13003 499.01025,362.37092 498.28163,362.37092 C 497.81256,362.37115 497.46449,362.73301 497.21093,363.14973 C 496.95728,363.56662 496.80728,364.08319 496.72413,364.41565 C 496.49337,365.33878 496.5428,366.3869 496.82149,367.33655 C 497.10025,368.28604 497.56626,369.15224 498.08699,369.67324 C 498.48166,370.06792 498.72033,370.45114 498.67114,370.74415 C 498.62193,371.03733 498.32725,371.2311 497.69763,371.2311 C 497.01584,371.23118 496.61757,371.12228 496.33471,370.93907 C 496.05191,370.75579 495.90377,370.50805 495.55591,370.1601 C 494.89625,369.50005 494.2958,368.94593 493.41413,368.50497 C 492.63481,368.11514 491.96872,367.78207 491.27249,367.43389 C 490.77186,367.1835 490.34623,365.77609 490.10419,365.29196 C 489.72366,364.5307 489.42291,363.76358 489.42291,362.85756 C 489.42284,362.24212 488.79524,361.31056 488.54662,360.81305 C 488.24564,360.21083 487.82795,359.57054 487.47584,358.86589 C 487.08221,358.07841 486.72187,357.54572 486.01532,357.016 C 485.92537,356.94829 485.89194,356.90824 485.82075,356.9185 z M 301.2428,438.02353 C 301.13464,438.07088 301.00114,438.16768 300.85335,438.31557 C 300.42249,438.74635 300.52309,438.66245 299.78252,438.21821 C 299.94288,438.21821 301.81524,440.47041 302.21626,441.13919 C 302.40507,441.45387 302.94413,441.55128 303.48177,441.52856 C 304.01962,441.50562 304.53715,441.39535 304.84484,441.3338 C 305.53405,441.19595 305.71455,440.78478 305.62356,440.36022 C 305.53255,439.93544 305.17004,439.45191 304.84484,439.28907 C 304.00078,438.86679 303.42321,438.54414 302.50834,438.31557 C 301.75152,438.12612 301.56696,437.88105 301.2428,438.02353 z M 302.99512,444.5468 C 302.41928,444.65083 301.55276,445.01566 301.2428,445.32577 C 300.99847,445.57015 301.20044,446.02762 301.43743,446.49412 C 301.67444,446.96062 302.01228,447.35181 302.1189,447.56527 C 302.41733,448.16209 304.18608,448.34409 304.84484,448.34409 C 305.39833,448.34409 305.64913,448.09401 305.72085,447.75995 C 305.79277,447.42568 305.7082,447.02779 305.62356,446.68887 C 305.47117,446.07906 304.7181,445.4912 304.35798,445.13108 C 303.99143,444.76428 304.31611,445.0475 303.48177,444.5468 C 303.36653,444.518 303.187,444.512 302.99512,444.5468 z M 295.10964,449.80469 C 293.99635,449.80134 292.9517,449.83691 291.89703,450.681 C 290.61684,451.70512 289.06647,453.56565 288.19777,453.89392 C 288.3899,454.37449 288.54362,454.7906 288.87915,454.96477 C 289.2146,455.13932 289.72307,455.12709 290.24213,454.86743 C 291.09276,454.44204 291.65882,454.25647 292.38389,453.89392 C 293.13556,453.51793 293.71446,453.21238 294.52565,453.21238 C 295.5666,453.21238 296.26136,453.57324 297.154,453.79651 C 297.82893,453.9652 298.34327,454.19628 299.10105,454.5754 C 299.88897,454.96948 300.61152,455.30703 301.2428,455.93866 C 301.85616,456.55197 302.98832,456.85829 303.57919,457.30153 C 304.1863,457.75717 305.30628,458.24997 305.9157,458.85947 C 306.31067,459.25462 307.14591,460.10745 307.76534,460.41741 C 308.41925,460.74432 308.97731,460.67753 309.51763,460.51477 C 310.05788,460.35169 310.61654,460.12532 311.36736,460.12516 C 311.91501,460.12516 312.84335,460.17965 313.70378,460.22251 C 314.56407,460.26536 315.31758,460.26384 315.65071,459.9304 C 315.85769,459.72348 316.14245,459.44224 316.23486,459.15158 C 316.32729,458.861 316.22746,458.61419 315.65071,458.47018 C 314.82774,458.26417 314.10257,458.00998 313.217,457.7884 C 311.99143,457.48201 312.37944,456.93162 311.36736,456.42537 C 310.2209,455.85195 309.88127,455.6888 308.54414,455.35422 C 307.66822,455.13522 306.34028,455.00033 305.62356,454.28337 C 304.97877,453.63829 304.633,452.4736 303.9687,452.14121 C 302.80684,451.5602 301.91834,450.75759 300.56141,450.48601 C 299.20714,450.21518 297.55102,449.80445 296.18047,449.80469 C 295.77639,449.80469 295.48082,449.80552 295.10964,449.80469 z M 321.10252,458.66472 C 320.88141,458.64473 320.64146,458.70688 320.42094,458.76213 C 319.51593,458.98843 317.1528,458.77582 317.01357,459.05417 C 316.85932,459.31139 316.66116,459.56466 316.52701,459.83306 C 316.21393,460.45929 316.26649,460.66218 316.42951,460.80679 C 316.59259,460.95125 316.89953,460.98468 317.20837,461.29358 C 317.32404,461.40946 317.59877,461.78858 317.69514,462.1699 C 317.79146,462.55129 317.69852,462.94704 317.30572,463.14355 C 317.21801,463.18733 315.3232,464.14366 315.35872,464.21455 C 315.61542,464.72793 315.87893,464.89596 317.01357,464.89596 C 317.95791,464.89596 318.60749,465.02028 319.44745,465.18821 C 320.01251,465.30121 321.24855,465.61429 321.78379,465.48039 C 323.04967,465.16374 323.99581,464.82582 324.8018,464.01979 C 325.48167,463.33953 325.49229,463.65246 326.74881,463.33831 C 327.18348,463.2295 327.70428,463.24887 328.01431,463.14355 C 328.32448,463.03823 328.50109,462.81786 328.50109,462.26716 C 328.50109,461.68258 327.82737,460.90413 327.04073,460.90413 C 326.35198,460.90413 325.43545,460.92906 324.8018,460.61211 C 323.92081,460.17128 323.91453,459.41649 322.85473,459.15158 C 322.3571,459.02695 321.76563,458.7252 321.10252,458.66472 z M 332.20039,462.0724 C 331.89373,461.99573 331.73073,462.44019 331.71383,462.94894 C 331.69663,463.45747 331.8574,464.01045 331.90839,464.21455 C 332.02131,464.66646 333.60557,464.89596 334.14754,464.89596 C 334.68914,464.89596 335.12284,464.91176 335.31575,464.79869 C 335.5086,464.68546 335.4514,464.48599 335.21825,464.01979 C 334.88968,463.36225 334.69722,462.59088 334.05018,462.26716 C 333.51591,462.00014 332.78282,462.07263 332.20039,462.0724 z M 340.96205,462.75395 C 340.80248,462.87211 340.71245,463.30093 340.76733,463.72769 C 340.82229,464.15452 341.04445,464.5271 341.74091,464.70141 C 342.42705,464.87308 343.43929,464.81206 343.88263,464.70141 C 344.24259,464.61137 344.10291,464.31782 343.7852,463.92229 C 343.46762,463.52707 343.04641,463.11475 342.71441,462.94894 C 342.31578,462.74939 341.55494,462.75395 341.05941,462.75395 C 341.0191,462.73381 341.00774,462.72044 340.96205,462.75395 z M 309.1282,463.72769 C 308.99862,463.73551 308.77011,463.82503 308.64142,463.82503 C 308.51183,463.7188 307.13858,463.79768 306.49978,464.11736 C 306.05337,464.34039 305.76189,464.55712 305.62356,464.79869 C 305.48545,465.04018 305.47812,465.38381 305.72085,465.86976 C 305.97441,466.37684 306.00656,466.71165 306.11042,466.94076 C 306.2139,467.16972 306.41154,467.28386 306.98664,467.42763 C 307.92058,467.66106 308.76129,467.95196 309.61492,467.52505 C 310.27482,467.19495 310.58842,466.24158 310.58857,465.48039 C 310.58857,464.54085 310.32574,464.02716 309.51763,463.82503 C 309.39275,463.7938 309.25779,463.71994 309.1282,463.72769 z M 345.05077,467.23279 C 344.55299,467.33856 344.63936,468.08699 345.14827,468.59598 C 345.75545,469.20328 346.39142,468.99666 346.80314,468.79073 C 347.25149,468.56641 347.08085,468.1946 346.70585,467.91442 C 346.33077,467.63425 345.76092,467.43333 345.73228,467.42763 C 345.43871,467.28074 345.21677,467.19761 345.05077,467.23279 z M 348.06863,471.51687 C 347.80729,471.71938 346.99792,472.3833 346.99792,472.78271 C 346.99792,473.16296 347.39379,473.15999 347.87399,473.07481 C 348.3542,472.98932 348.86679,472.82176 348.94493,472.78271 C 349.39575,472.55709 348.58204,471.84606 348.16613,471.51687 C 348.1514,471.52348 348.09324,471.50486 348.06863,471.51687 z M 348.65285,475.02212 C 348.66916,475.0491 348.73143,475.1871 348.75013,475.21674 C 348.82274,475.15602 348.85885,475.02713 348.84764,475.02212 C 348.83814,475.0178 348.73831,474.97927 348.65285,475.02212 z M 348.75013,475.21674 C 348.40625,475.50512 347.32664,476.23819 347.19257,476.77453 C 347.07846,477.23114 349.09357,476.70036 349.13957,476.67733 C 349.59165,476.45118 349.04856,475.68954 348.75013,475.21674 z M 352.83901,476.28765 C 352.79451,476.74922 352.30945,478.00821 352.74158,478.33247 C 353.37896,478.81067 353.66969,478.67465 353.81244,478.42973 C 353.95518,478.18489 353.94007,477.80874 353.81244,477.55357 C 353.56866,477.06579 353.28631,476.74451 352.83901,476.28765 z " />
      <path
         sodipodi:nodetypes="csscsc"
         id="path3339"
         d="M 485.92904,359.95523 C 485.92904,359.95523 446.84834,356.1679 419.95993,375.61461 C 393.07153,395.06133 378.37543,437.74211 347.14462,450.67833 C 284.683,476.55078 236.08259,463.44502 236.08259,463.44502 C 207.51941,394.48739 240.3033,315.34007 309.26091,286.77689 C 378.21854,258.21372 457.36586,290.9976 485.92904,359.95523 z "
         style="opacity:1;color:#000000;fill:url(#radialGradient3969);fill-opacity:1;fill-rule:nonzero;stroke:none;stroke-width:20;stroke-linecap:round;stroke-linejoin:round;marker:none;marker-start:none;marker-mid:none;marker-end:none;stroke-miterlimit:4;stroke-dashoffset:50;stroke-opacity:1;visibility:visible;display:inline;overflow:visible;enable-background:accumulate" />
    </g>
  </g>
</svg>
