<svg width="512" height="512" viewBox="0 0 512 512" fill="none" xmlns="http://www.w3.org/2000/svg">
<circle cx="256" cy="256" r="251" fill="#AF027C" stroke="white" stroke-width="10"/>
<path d="M397.524 381.96L397.631 381.916C397.631 381.916 321.432 304.585 313.955 297.109C309.32 295.742 282.211 283.821 281.741 261.412C293.309 248.157 310.132 235.425 334.976 235.174C335.018 235.153 335.147 235.142 335.211 235.142C346.448 235.446 357.791 231.718 366.817 223.831C367.447 223.275 368.931 221.764 368.931 221.764L431 143.541L423.544 136.059L347.613 216.45L338.651 207.462L416.805 129.314L410.236 122.782L331.622 201.412L324.188 193.972L402.811 115.342L395.581 108.127L316.957 186.746L308.145 177.95L389.3 101.815L382.485 95L307.696 153.266C307.696 153.266 304.984 155.551 304.044 156.502C293.779 166.762 289.367 180.685 290.842 194.095C289.806 211.105 284.305 223.735 277.171 233.337C137.743 96.9333 85.1654 111.524 85.1654 111.524L81 115.748C81 115.748 174.754 209.758 232.683 267.799C212.357 288.147 114.368 386.136 114.368 386.136L114.378 386.157C114.293 386.242 114.186 386.274 114.085 386.38C107.083 393.387 107.11 404.731 114.096 411.727C121.086 418.723 132.463 418.723 139.437 411.748C139.549 411.641 139.581 411.524 139.645 411.459L139.666 411.48C139.666 411.48 237.778 313.397 257.987 293.198C268.582 303.805 275.653 310.886 277.042 312.274C285.629 320.906 372.083 407.358 372.083 407.358H372.189C372.189 407.465 372.285 407.561 372.381 407.605C379.367 414.643 390.838 414.643 397.813 407.605C404.894 400.629 404.894 389.2 397.813 382.173C397.728 382.065 397.631 382.023 397.524 381.96Z" fill="white"/>
</svg>
