<svg width="20" height="20" viewBox="0 0 20 20" fill="none" xmlns="http://www.w3.org/2000/svg">
<rect width="20" height="20" rx="10" fill="#CE0056"/>
<path d="M9.99913 12.2222C8.40364 12.2222 7.11024 10.9288 7.11024 9.33333V6.69136C7.11024 6.46106 7.11024 6.34591 7.15188 6.25661C7.19604 6.16191 7.27216 6.0858 7.36686 6.04164C7.45616 6 7.5713 6 7.8016 6H12.1967C12.427 6 12.5421 6 12.6314 6.04164C12.7261 6.0858 12.8022 6.16191 12.8464 6.25661C12.888 6.34591 12.888 6.46106 12.888 6.69136V9.33333C12.888 10.9288 11.5946 12.2222 9.99913 12.2222ZM9.99913 12.2222V14M12.2214 14H7.77691M14.4436 6.88889V9.11111M5.55469 6.88889V9.11111" stroke="white" stroke-width="0.666667" stroke-linecap="round" stroke-linejoin="round"/>
</svg>
