<?xml version="1.0" encoding="utf-8"?>
<!-- Generator: Adobe Illustrator 16.0.0, SVG Export Plug-In . SVG Version: 6.00 Build 0)  -->
<!DOCTYPE svg PUBLIC "-//W3C//DTD SVG 1.1//EN" "http://www.w3.org/Graphics/SVG/1.1/DTD/svg11.dtd">
<svg version="1.1" id="Layer_1" xmlns="http://www.w3.org/2000/svg" xmlns:xlink="http://www.w3.org/1999/xlink" x="0px" y="0px"
	 width="32px" height="32px" viewBox="0 0 32 32" enable-background="new 0 0 32 32" xml:space="preserve">
<g>
	<g>
		<path fill="#4B4B4D" d="M7.999,24.75c-0.145,0-0.29-0.042-0.419-0.129c-0.344-0.231-0.434-0.698-0.201-1.041l6.333-9.363
			l4.876,6.376l6.791-10.014c0.232-0.343,0.698-0.434,1.042-0.2c0.343,0.232,0.433,0.699,0.2,1.042L18.66,23.157l-4.874-6.374
			L8.621,24.42C8.477,24.635,8.24,24.75,7.999,24.75z"/>
	</g>
	<g>
		<g>
			<path fill="#4B4B4D" d="M14.287,13h-1.21V9.256l-0.95,0.734L11.5,9.134l1.678-1.231h1.109V13z"/>
		</g>
	</g>
	<g>
		<g>
			<path fill="#4B4B4D" d="M20.545,29.235h-3.687v-1.008l1.987-1.801c0.277-0.264,0.417-0.525,0.417-0.785
				c0-0.182-0.058-0.329-0.174-0.442c-0.114-0.112-0.268-0.169-0.46-0.169c-0.197,0-0.36,0.07-0.49,0.212
				c-0.129,0.142-0.206,0.328-0.229,0.558l-1.159-0.158c0.058-0.504,0.269-0.903,0.633-1.198C17.749,24.147,18.185,24,18.694,24
				c0.509,0,0.942,0.135,1.303,0.403c0.36,0.27,0.539,0.655,0.539,1.16c0,0.326-0.074,0.604-0.226,0.834
				c-0.151,0.231-0.374,0.477-0.666,0.735l-1.181,1.051h2.081V29.235z"/>
		</g>
	</g>
	<g>
		<g>
			<path fill="#4B4B4D" d="M27.825,7.379c0,0.356-0.097,0.66-0.291,0.912c-0.195,0.252-0.434,0.433-0.717,0.543
				C26.534,8.945,26.229,9,25.903,9c-0.494,0-0.927-0.113-1.296-0.339c-0.37-0.226-0.62-0.563-0.749-1.015l1.123-0.295
				c0.048,0.177,0.148,0.326,0.303,0.449c0.153,0.122,0.341,0.184,0.561,0.184c0.197,0,0.371-0.053,0.52-0.158
				s0.223-0.269,0.223-0.49c0-0.239-0.1-0.411-0.299-0.515c-0.199-0.103-0.445-0.154-0.738-0.154h-0.323V5.781h0.353
				c0.596,0,0.893-0.202,0.893-0.605c0-0.172-0.062-0.309-0.188-0.41c-0.124-0.101-0.275-0.15-0.453-0.15
				c-0.172,0-0.322,0.051-0.45,0.154s-0.21,0.241-0.248,0.414l-1.123-0.26c0.12-0.412,0.355-0.73,0.706-0.957
				c0.35-0.225,0.748-0.339,1.195-0.339c0.488,0,0.91,0.126,1.263,0.375c0.353,0.25,0.53,0.604,0.53,1.065
				c0,0.274-0.08,0.51-0.238,0.709s-0.365,0.333-0.62,0.399v0.022c0.288,0.066,0.524,0.21,0.706,0.428
				C27.734,6.846,27.825,7.097,27.825,7.379z"/>
		</g>
	</g>
	<g>
		<g>
			<path fill="#4B4B4D" d="M6.445,8H2V1.945h4.284V3.25h-2.8v0.88h2.646v1.092H3.484v1.464h2.961V8z"/>
		</g>
	</g>
</g>
</svg>
