<?xml version="1.0" encoding="utf-8"?>
<!-- Generator: Adobe Illustrator 16.0.0, SVG Export Plug-In . SVG Version: 6.00 Build 0)  -->
<!DOCTYPE svg PUBLIC "-//W3C//DTD SVG 1.1//EN" "http://www.w3.org/Graphics/SVG/1.1/DTD/svg11.dtd">
<svg version="1.1" id="Layer_1" xmlns="http://www.w3.org/2000/svg" xmlns:xlink="http://www.w3.org/1999/xlink" x="0px" y="0px"
	 width="32px" height="32px" viewBox="0 0 32 32" enable-background="new 0 0 32 32" xml:space="preserve">
<g>
	<g>
		<path fill="#4B4B4D" d="M5.999,24.75c-0.143,0-0.287-0.041-0.415-0.126c-0.345-0.229-0.438-0.695-0.208-1.04l4.582-6.873
			l3.258,4.26l7.024-10.286l3.004,4.257l3.89-5.618c0.235-0.342,0.701-0.429,1.043-0.189c0.341,0.235,0.426,0.702,0.189,1.043
			l-5.11,7.382l-2.996-4.243l-6.976,10.214l-3.242-4.24l-3.418,5.127C6.479,24.633,6.241,24.75,5.999,24.75z"/>
	</g>
	<g>
		<g>
			<path fill="#4B4B4D" d="M10,15H8.992v-3.12L8.2,12.492l-0.522-0.714l1.398-1.026H10V15z"/>
		</g>
	</g>
	<g>
		<g>
			<path fill="#4B4B4D" d="M14.912,29.25H11.84v-0.84l1.656-1.5c0.231-0.22,0.348-0.438,0.348-0.654
				c0-0.151-0.048-0.274-0.145-0.369c-0.096-0.094-0.224-0.141-0.384-0.141c-0.164,0-0.3,0.059-0.408,0.177
				c-0.107,0.118-0.172,0.273-0.191,0.465l-0.966-0.132c0.048-0.42,0.224-0.753,0.527-0.999c0.305-0.246,0.668-0.369,1.093-0.369
				c0.424,0,0.785,0.112,1.086,0.336c0.3,0.225,0.449,0.546,0.449,0.967c0,0.271-0.062,0.504-0.188,0.695
				c-0.126,0.192-0.312,0.396-0.555,0.612l-0.984,0.876h1.734V29.25z"/>
		</g>
	</g>
	<g>
		<g>
			<path fill="#4B4B4D" d="M25,22.139h-0.582v0.828h-0.941v-0.828h-1.998v-0.846l1.728-2.574h1.206v2.604H25V22.139z M23.482,21.323
				v-1.572h-0.019l-1.008,1.572H23.482z"/>
		</g>
	</g>
	<g>
		<g>
			<path fill="#4B4B4D" d="M21.306,8.149c0,0.297-0.081,0.55-0.243,0.76s-0.361,0.36-0.597,0.452
				C20.229,9.454,19.976,9.5,19.704,9.5c-0.412,0-0.772-0.095-1.08-0.282C18.315,9.029,18.107,8.748,18,8.372l0.936-0.246
				c0.04,0.147,0.124,0.272,0.252,0.375c0.128,0.102,0.284,0.152,0.468,0.152c0.164,0,0.309-0.044,0.433-0.132
				s0.186-0.224,0.186-0.408c0-0.199-0.083-0.343-0.249-0.429s-0.371-0.129-0.615-0.129h-0.27V6.817h0.294
				c0.496,0,0.744-0.168,0.744-0.504c0-0.144-0.052-0.258-0.156-0.342c-0.104-0.084-0.229-0.126-0.378-0.126
				c-0.144,0-0.269,0.043-0.375,0.129s-0.175,0.201-0.207,0.345l-0.936-0.216c0.1-0.344,0.296-0.609,0.588-0.798
				c0.292-0.188,0.624-0.282,0.996-0.282c0.407,0,0.759,0.104,1.053,0.312s0.441,0.504,0.441,0.888c0,0.229-0.066,0.425-0.198,0.591
				s-0.305,0.277-0.517,0.333v0.019c0.24,0.056,0.437,0.175,0.588,0.356C21.229,7.705,21.306,7.914,21.306,8.149z"/>
		</g>
	</g>
	<g>
		<g>
			<path fill="#4B4B4D" d="M29.75,5.844c0,0.488-0.16,0.863-0.48,1.125c-0.319,0.263-0.706,0.394-1.158,0.394
				c-0.392,0-0.733-0.098-1.025-0.291c-0.292-0.194-0.488-0.457-0.588-0.789L27.416,6c0.044,0.152,0.129,0.275,0.255,0.369
				S27.939,6.51,28.1,6.51c0.181,0,0.331-0.054,0.453-0.162c0.122-0.107,0.183-0.26,0.183-0.456c0-0.231-0.084-0.397-0.252-0.497
				c-0.168-0.101-0.374-0.15-0.617-0.15c-0.349,0-0.694,0.062-1.038,0.186L26.93,3h2.604v0.864h-1.71l-0.036,0.672
				c0.115-0.028,0.258-0.042,0.426-0.042c0.448,0,0.816,0.117,1.104,0.351C29.605,5.079,29.75,5.412,29.75,5.844z"/>
		</g>
	</g>
	<g>
		<g>
			<path fill="#4B4B4D" d="M6.445,8H2V1.948h4.284v1.305h-2.8V4.13h2.646v1.092H3.484v1.464h2.961V8z"/>
		</g>
	</g>
</g>
</svg>
