<?xml version="1.0" encoding="utf-8"?>
<!-- Generator: Adobe Illustrator 25.1.0, SVG Export Plug-In . SVG Version: 6.00 Build 0)  -->
<svg version="1.1" id="Layer_1" xmlns="http://www.w3.org/2000/svg" xmlns:xlink="http://www.w3.org/1999/xlink" x="0px" y="0px"
	 viewBox="0 0 150 150" style="enable-background:new 0 0 150 150;" xml:space="preserve">
<style type="text/css">
	.st0{fill:#A3EDBA;}
	.st1{fill:#201836;}
</style>
<g>
	<path class="st0" d="M75,150L75,150c-41.42,0-75-33.58-75-75v0C0,33.58,33.58,0,75,0h0c41.42,0,75,33.58,75,75v0
		C150,116.42,116.42,150,75,150z"/>
	<g>
		<polygon class="st1" points="37.5,87.5 50,100 50,100 50,100 50,100 68.75,100 68.75,112.5 81.25,112.5 81.25,100 100,100 
			100,100 112.5,87.5 112.5,68.75 106.25,68.75 106.25,87.5 43.75,87.5 43.75,68.75 37.5,68.75 37.5,87.5 37.5,87.5 		"/>
		<g>
			<path class="st1" d="M50,43.75L50,43.75c3.45,0,6.25,2.8,6.25,6.25v0c0,3.45-2.8,6.25-6.25,6.25h0c-3.45,0-6.25-2.8-6.25-6.25v0
				C43.75,46.55,46.55,43.75,50,43.75z"/>
			<path class="st1" d="M100,43.75L100,43.75c3.45,0,6.25,2.8,6.25,6.25v0c0,3.45-2.8,6.25-6.25,6.25h0c-3.45,0-6.25-2.8-6.25-6.25
				v0C93.75,46.55,96.55,43.75,100,43.75z"/>
		</g>
	</g>
</g>
</svg>
