<?xml version="1.0" encoding="utf-8"?>
<!-- Generator: Adobe Illustrator 21.1.0, SVG Export Plug-In . SVG Version: 6.00 Build 0)  -->
<svg version="1.1" id="Layer_1" xmlns="http://www.w3.org/2000/svg" xmlns:xlink="http://www.w3.org/1999/xlink" x="0px" y="0px"
	 viewBox="0 0 60 60" style="enable-background:new 0 0 60 60;" xml:space="preserve">
<style type="text/css">
	.st0{fill:none;stroke:#666666;stroke-width:2;stroke-miterlimit:10;}
</style>
<path class="st0" d="M28.8,18.7c0.2-0.4,0.7-0.7,1.2-0.7s0.9,0.3,1.2,0.7l2.8,5.6c0.2,0.4,0.6,0.6,1,0.7l6.2,0.9
	c0.5,0.1,0.9,0.4,1,0.9c0.2,0.5,0,1-0.3,1.3l-4.5,4.3c-0.3,0.3-0.4,0.7-0.4,1.2l1.1,6.1c0.1,0.5-0.1,1-0.5,1.3
	c-0.4,0.3-0.9,0.3-1.4,0.1l-5.5-2.9c-0.4-0.2-0.8-0.2-1.2,0l-5.5,2.9c-0.4,0.2-1,0.2-1.4-0.1c-0.4-0.3-0.6-0.8-0.5-1.3l1.1-6.1
	c0.1-0.4-0.1-0.9-0.4-1.2l-4.5-4.3c-0.4-0.3-0.5-0.9-0.3-1.3c0.2-0.5,0.6-0.8,1-0.9l6.2-0.9c0.4-0.1,0.8-0.3,1-0.7L28.8,18.7z"/>
<circle class="st0" cx="30" cy="30.5" r="19.5"/>
</svg>
