<?xml version="1.0" encoding="utf-8"?>
<!-- Generator: Adobe Illustrator 16.0.0, SVG Export Plug-In . SVG Version: 6.00 Build 0)  -->
<!DOCTYPE svg PUBLIC "-//W3C//DTD SVG 1.1//EN" "http://www.w3.org/Graphics/SVG/1.1/DTD/svg11.dtd">
<svg version="1.1" id="Layer_1" xmlns="http://www.w3.org/2000/svg" xmlns:xlink="http://www.w3.org/1999/xlink" x="0px" y="0px"
	 width="32px" height="32px" viewBox="-1 -1 32 32" enable-background="new -1 -1 32 32" xml:space="preserve">
<g id="Robocza">
	<g>
		<path fill="#4B4B4D" d="M16,19.385v1.506c4.129,0.398,6.25,1.559,6.25,2.109c0,0.673-3.146,2.5-9.25,2.5
			c-6.104,0-9.25-1.827-9.25-2.5c0-0.552,2.121-1.711,6.25-2.109v-1.506C5.879,19.757,2.25,20.922,2.25,23c0,2.576,5.572,4,10.75,4
			c5.178,0,10.75-1.424,10.75-4C23.75,20.922,20.121,19.757,16,19.385z"/>
		<path fill="#4B4B4D" d="M26.25,3.75H14V2h-1.65v20.175c0,0.456,0.369,0.825,0.825,0.825S14,22.631,14,22.175V15.25h12.25L20.5,9.5
			L26.25,3.75z M22.689,13.75H14v-8.5h8.689l-4.25,4.25L22.689,13.75z"/>
	</g>
</g>
<g id="TXT_over">
</g>
</svg>
