<?xml version="1.0" encoding="utf-8"?>
<!-- Generator: Adobe Illustrator 16.0.0, SVG Export Plug-In . SVG Version: 6.00 Build 0)  -->
<!DOCTYPE svg PUBLIC "-//W3C//DTD SVG 1.1//EN" "http://www.w3.org/Graphics/SVG/1.1/DTD/svg11.dtd">
<svg version="1.1" id="Layer_1" xmlns="http://www.w3.org/2000/svg" xmlns:xlink="http://www.w3.org/1999/xlink" x="0px" y="0px"
	 width="32px" height="32px" viewBox="0 0 32 32" enable-background="new 0 0 32 32" xml:space="preserve">
<g>
	<path fill="#4B4B4D" d="M3.75,7.749v14.5h7.939L16,26.561l4.31-4.312h7.94v-14.5H3.75z M26.75,20.749h-7.062L16,24.439l-3.689-3.69
		H5.25v-11.5h21.5V20.749z"/>
	<path fill="#4B4B4D" d="M9.503,16.825h2.315L12.283,18h1.605l-2.484-5.982h-1.402L7.492,18h1.571L9.503,16.825z M10.678,13.614
		l0.743,2.054H9.917L10.678,13.614z"/>
	<path fill="#4B4B4D" d="M16.05,17.451h0.017c0.135,0.208,0.328,0.371,0.579,0.489c0.25,0.119,0.517,0.178,0.798,0.178
		c0.608,0,1.095-0.218,1.458-0.654s0.545-0.965,0.545-1.585c0-0.608-0.183-1.128-0.549-1.559c-0.366-0.432-0.846-0.646-1.437-0.646
		c-0.535,0-0.964,0.188-1.285,0.566h-0.017v-2.629h-1.386V18h1.276V17.451z M16.383,15.136c0.189-0.22,0.433-0.33,0.731-0.33
		c0.31,0,0.554,0.105,0.73,0.317c0.178,0.211,0.267,0.463,0.267,0.756c0,0.299-0.089,0.555-0.267,0.77
		c-0.177,0.214-0.421,0.32-0.73,0.32c-0.299,0-0.542-0.108-0.731-0.325c-0.188-0.217-0.282-0.469-0.282-0.756
		C16.101,15.605,16.194,15.355,16.383,15.136z"/>
	<path fill="#4B4B4D" d="M22.827,18.135c0.664,0,1.183-0.18,1.555-0.54l-0.77-0.938c-0.175,0.209-0.425,0.312-0.752,0.312
		c-0.299,0-0.538-0.104-0.718-0.312c-0.181-0.208-0.271-0.462-0.271-0.761c0-0.298,0.09-0.553,0.271-0.765
		c0.18-0.211,0.414-0.316,0.701-0.316c0.141,0,0.28,0.031,0.418,0.093c0.138,0.062,0.244,0.144,0.317,0.245l0.803-0.93
		c-0.164-0.169-0.391-0.306-0.681-0.409c-0.29-0.104-0.584-0.157-0.883-0.157c-0.671,0-1.229,0.206-1.678,0.617
		c-0.447,0.411-0.672,0.952-0.672,1.622c0,0.682,0.223,1.226,0.668,1.631C21.582,17.933,22.146,18.135,22.827,18.135z"/>
</g>
</svg>
