<?xml version="1.0" encoding="utf-8"?>
<!-- Generator: Adobe Illustrator 16.0.0, SVG Export Plug-In . SVG Version: 6.00 Build 0)  -->
<!DOCTYPE svg PUBLIC "-//W3C//DTD SVG 1.1//EN" "http://www.w3.org/Graphics/SVG/1.1/DTD/svg11.dtd">
<svg version="1.1" id="Layer_1" xmlns="http://www.w3.org/2000/svg" xmlns:xlink="http://www.w3.org/1999/xlink" x="0px" y="0px"
	 width="32px" height="32px" viewBox="-1 -1 32 32" enable-background="new -1 -1 32 32" xml:space="preserve">
<g id="Robocza">
	<g>
		<polygon fill="#4B4B4D" points="9.591,4.995 20.409,4.995 20.409,5.991 23,4.495 20.409,3 20.409,4 9.591,4 9.591,3 7,4.495 
			9.591,5.991 		"/>
		<polygon fill="#4B4B4D" points="13.673,12 14.984,10.177 16.287,12 17.809,12 15.766,9.344 17.559,7 16.12,7 15.006,8.553 
			13.923,7 12.422,7 14.225,9.344 12.193,12 		"/>
		<rect x="24.75" y="8" fill="#4B4B4D" width="1.5" height="3"/>
		<rect x="24.75" y="3" fill="#4B4B4D" width="1.5" height="3"/>
		<rect x="24.75" y="23" fill="#4B4B4D" width="1.5" height="3"/>
		<rect x="24.75" y="18" fill="#4B4B4D" width="1.5" height="3"/>
		<rect x="3.75" y="8" fill="#4B4B4D" width="1.5" height="3"/>
		<rect x="3.75" y="3" fill="#4B4B4D" width="1.5" height="3"/>
		<rect x="3.75" y="18" fill="#4B4B4D" width="1.5" height="3"/>
		<rect x="3.75" y="13" fill="#4B4B4D" width="1.5" height="3"/>
		<path fill="#4B4B4D" d="M25.5,13c-0.546,0-1.02,0.295-1.281,0.731l-4.613-0.417l-4.849,8.782l-4.814-2.89l-4.811,3.938
			C4.939,23.055,4.727,23,4.5,23C3.671,23,3,23.672,3,24.5S3.671,26,4.5,26C5.328,26,6,25.328,6,24.5
			c0-0.121-0.019-0.238-0.046-0.352l4.104-3.355l5.186,3.111l5.09-9.219l3.768,0.341C24.312,15.594,24.857,16,25.5,16
			c0.828,0,1.5-0.672,1.5-1.5S26.328,13,25.5,13z"/>
	</g>
</g>
<g id="TXT_over">
</g>
</svg>
