<?xml version="1.0" encoding="utf-8"?>
<!-- Generator: Adobe Illustrator 16.0.0, SVG Export Plug-In . SVG Version: 6.00 Build 0)  -->
<!DOCTYPE svg PUBLIC "-//W3C//DTD SVG 1.1//EN" "http://www.w3.org/Graphics/SVG/1.1/DTD/svg11.dtd">
<svg version="1.1" id="Layer_1" xmlns="http://www.w3.org/2000/svg" xmlns:xlink="http://www.w3.org/1999/xlink" x="0px" y="0px"
	 width="32px" height="32px" viewBox="0 0 32 32" enable-background="new 0 0 32 32" xml:space="preserve">
<g>
	<circle fill="#4B4B4D" cx="6.5" cy="5.496" r="1.5"/>
	<path fill="#4B4B4D" d="M20.54,8.522l-3.35,4.838l0.935,0.935l3.335-4.817l4.253-2.706C25.942,6.914,26.21,7,26.5,7
		C27.328,7,28,6.328,28,5.5S27.328,4,26.5,4S25,4.672,25,5.5c0,0.06,0.011,0.115,0.018,0.173L20.54,8.522z"/>
	<path fill="#4B4B4D" d="M12.46,22.478l3.351-4.84l-0.934-0.935l-3.337,4.819l-4.253,2.706C7.058,24.086,6.79,24,6.5,24
		C5.672,24,5,24.672,5,25.5S5.672,27,6.5,27S8,26.328,8,25.5c0-0.06-0.011-0.115-0.018-0.173L12.46,22.478z"/>
	<rect x="25.75" y="19" fill="#4B4B4D" width="1.5" height="3"/>
	<rect x="25.75" y="14" fill="#4B4B4D" width="1.5" height="3"/>
	<rect x="25.75" y="9" fill="#4B4B4D" width="1.5" height="3"/>
	<rect x="20" y="24.75" fill="#4B4B4D" width="3" height="1.5"/>
	<rect x="15" y="24.75" fill="#4B4B4D" width="3" height="1.5"/>
	<rect x="10" y="24.75" fill="#4B4B4D" width="3" height="1.5"/>
	<rect x="5.75" y="9.001" fill="#4B4B4D" width="1.5" height="3"/>
	<rect x="5.75" y="14.001" fill="#4B4B4D" width="1.5" height="3"/>
	<rect x="5.75" y="19.001" fill="#4B4B4D" width="1.5" height="3"/>
	<rect x="10" y="4.751" fill="#4B4B4D" width="3" height="1.5"/>
	<rect x="15" y="4.751" fill="#4B4B4D" width="3" height="1.5"/>
	<rect x="20" y="4.751" fill="#4B4B4D" width="3" height="1.5"/>
	<circle fill="#4B4B4D" cx="26.5" cy="25.5" r="1.5"/>
	<polygon fill="#4B4B4D" points="22.838,21.13 10.84,9.13 11.768,8.202 8.268,7.264 9.206,10.764 10.133,9.837 22.131,21.837 
		21.203,22.765 24.703,23.703 23.765,20.203 	"/>
</g>
</svg>
