<?xml version="1.0" encoding="utf-8"?>
<!-- Generator: Adobe Illustrator 16.0.0, SVG Export Plug-In . SVG Version: 6.00 Build 0)  -->
<!DOCTYPE svg PUBLIC "-//W3C//DTD SVG 1.1//EN" "http://www.w3.org/Graphics/SVG/1.1/DTD/svg11.dtd">
<svg version="1.1" id="Layer_1" xmlns="http://www.w3.org/2000/svg" xmlns:xlink="http://www.w3.org/1999/xlink" x="0px" y="0px"
	 width="32px" height="32px" viewBox="0 0 32 32" enable-background="new 0 0 32 32" xml:space="preserve">
<g>
	<polygon fill="#4B4B4D" points="10.591,5.995 21.409,5.995 21.409,6.991 24,5.495 21.409,4 21.409,5 10.591,5 10.591,4 8,5.495 
		10.591,6.991 	"/>
	<polygon fill="#4B4B4D" points="14.673,13 15.984,11.177 17.287,13 18.808,13 16.766,10.344 18.559,8 17.12,8 16.006,9.553 
		14.923,8 13.422,8 15.225,10.344 13.193,13 	"/>
	<rect x="25.75" y="9" fill="#4B4B4D" width="1.5" height="3"/>
	<rect x="25.75" y="4" fill="#4B4B4D" width="1.5" height="3"/>
	<rect x="25.75" y="24" fill="#4B4B4D" width="1.5" height="3"/>
	<rect x="25.75" y="19" fill="#4B4B4D" width="1.5" height="3"/>
	<rect x="4.75" y="9" fill="#4B4B4D" width="1.5" height="3"/>
	<rect x="4.75" y="4" fill="#4B4B4D" width="1.5" height="3"/>
	<rect x="4.75" y="19" fill="#4B4B4D" width="1.5" height="3"/>
	<rect x="4.75" y="14" fill="#4B4B4D" width="1.5" height="3"/>
	<path fill="#4B4B4D" d="M26.5,14c-0.546,0-1.02,0.295-1.281,0.731l-4.614-0.417l-4.848,8.781l-4.814-2.889l-4.811,3.938
		C5.939,24.054,5.727,24,5.5,24C4.671,24,4,24.672,4,25.5S4.671,27,5.5,27C6.328,27,7,26.328,7,25.5
		c0-0.121-0.019-0.238-0.046-0.351l4.104-3.356l5.186,3.111l5.09-9.219l3.767,0.341C25.313,16.594,25.857,17,26.5,17
		c0.828,0,1.5-0.672,1.5-1.5S27.328,14,26.5,14z"/>
</g>
</svg>
