<?xml version="1.0" encoding="utf-8"?>
<!-- Generator: Adobe Illustrator 16.0.0, SVG Export Plug-In . SVG Version: 6.00 Build 0)  -->
<!DOCTYPE svg PUBLIC "-//W3C//DTD SVG 1.1//EN" "http://www.w3.org/Graphics/SVG/1.1/DTD/svg11.dtd">
<svg version="1.1" id="Layer_1" xmlns="http://www.w3.org/2000/svg" xmlns:xlink="http://www.w3.org/1999/xlink" x="0px" y="0px"
	 width="32px" height="32px" viewBox="0 0 32 32" enable-background="new 0 0 32 32" xml:space="preserve">
<g>
	<polygon fill="#4B4B4D" points="5,21.409 6.495,24 7.991,21.409 6.995,21.409 6.995,10.591 7.991,10.591 6.495,8 5,10.591 
		6,10.591 6,21.409 	"/>
	<rect x="5" y="25.75" fill="#4B4B4D" width="3" height="1.5"/>
	<rect x="25" y="25.75" fill="#4B4B4D" width="3" height="1.5"/>
	<rect x="20" y="25.75" fill="#4B4B4D" width="3" height="1.5"/>
	<rect x="10" y="4.75" fill="#4B4B4D" width="3" height="1.5"/>
	<rect x="5" y="4.75" fill="#4B4B4D" width="3" height="1.5"/>
	<rect x="20" y="4.75" fill="#4B4B4D" width="3" height="1.5"/>
	<rect x="15" y="4.75" fill="#4B4B4D" width="3" height="1.5"/>
	<path fill="#4B4B4D" d="M11.125,19.851c-0.113,0.116-0.297,0.175-0.552,0.175c-0.163,0-0.322-0.024-0.478-0.074l-0.106,1.104
		c0.205,0.05,0.425,0.074,0.658,0.074c0.531,0,0.936-0.116,1.216-0.35c0.279-0.234,0.518-0.602,0.716-1.104l2.409-6.187h-1.326
		l-1.264,3.703h-0.021l-1.423-3.703H9.544l2.187,5.094l-0.255,0.647C11.355,19.526,11.238,19.733,11.125,19.851z"/>
	<path fill="#4B4B4D" d="M25.794,6.815C26.005,6.93,26.243,7,26.5,7C27.328,7,28,6.328,28,5.5S27.328,4,26.5,4S25,4.672,25,5.5
		c0,0.091,0.012,0.179,0.026,0.265l-5.019,3.64l-2.565,12.093l-4.896,1.576l-1.002,1.931C11.528,25.004,11.515,25,11.5,25
		c-0.828,0-1.5,0.672-1.5,1.5s0.672,1.5,1.5,1.5s1.5-0.672,1.5-1.5c0-0.337-0.115-0.645-0.303-0.895l0.757-1.458l5.104-1.645
		l2.618-12.339L25.794,6.815z"/>
	<rect x="15" y="25.75" fill="#4B4B4D" width="3" height="1.5"/>
</g>
</svg>
