<svg width="20" height="20" viewBox="0 0 20 20" fill="none" xmlns="http://www.w3.org/2000/svg">
<rect width="20" height="20" rx="10" fill="#414141"/>
<path d="M6.88889 8.66669V12.2222M8.88889 8.66669V12.2222M11.1111 8.66669V12.2222M13.1111 8.66669V12.2222M6 12.9334L6 13.2889C6 13.5378 6 13.6623 6.04844 13.7574C6.09105 13.841 6.15904 13.909 6.24267 13.9516C6.33774 14 6.4622 14 6.71111 14H13.2889C13.5378 14 13.6623 14 13.7573 13.9516C13.841 13.909 13.9089 13.841 13.9516 13.7574C14 13.6623 14 13.5378 14 13.2889V12.9334C14 12.6844 14 12.56 13.9516 12.4649C13.9089 12.3813 13.841 12.3133 13.7573 12.2707C13.6623 12.2222 13.5378 12.2222 13.2889 12.2222H6.71111C6.4622 12.2222 6.33774 12.2222 6.24267 12.2707C6.15904 12.3133 6.09105 12.3813 6.04844 12.4649C6 12.56 6 12.6844 6 12.9334ZM9.84574 6.0343L6.55685 6.76517C6.35816 6.80932 6.25881 6.8314 6.18465 6.88482C6.11924 6.93195 6.06788 6.99598 6.03607 7.07005C6 7.15403 6 7.2558 6 7.45934L6 7.95558C6 8.20449 6 8.32895 6.04844 8.42402C6.09105 8.50765 6.15904 8.57564 6.24267 8.61825C6.33774 8.66669 6.4622 8.66669 6.71111 8.66669H13.2889C13.5378 8.66669 13.6623 8.66669 13.7573 8.61825C13.841 8.57564 13.9089 8.50765 13.9516 8.42402C14 8.32895 14 8.20449 14 7.95558V7.45934C14 7.2558 14 7.15403 13.9639 7.07005C13.9321 6.99598 13.8808 6.93195 13.8153 6.88482C13.7412 6.8314 13.6418 6.80932 13.4432 6.76517L10.1543 6.0343C10.0967 6.02151 10.0679 6.01511 10.0388 6.01256C10.013 6.0103 9.98701 6.0103 9.96117 6.01256C9.93209 6.01511 9.90331 6.02151 9.84574 6.0343Z" stroke="white" stroke-width="0.666667" stroke-linecap="round" stroke-linejoin="round"/>
</svg>
