<svg class="icon" viewBox="0 0 1024 1024"><path class="icon-dark" d="M333 218c6 5 13 10 18 16v2h2l3 4 13-5a197 197 0 01164 4l4-5c10-12 20-21 36-24 16-1 30 1 43 11l3 3 6 5 8 10 2 1 1 5 2 4c7 13 8 27 10 41l6 1a416 416 0 0120 10c15 8 27 18 39 29l6 5 2 3 5 7c66 83 67 210 56 312-3 24-7 47-12 71l-2 12c0 4 0 4-2 6l-3 9c-4 13-9 23-22 30-10 3-18 4-28 4l-1 2v-2l-5 2h-24c-16-2-27-6-37-18v-2l-2-1c0-10 1-15 8-22l4-4v-2h3c3-10 5-19 5-30l1-2v-10h-1v-7c0-9-1-17-3-26l-2-2-10 4-4 10-2 6-2 7c-36 104-36 104-61 119-28 11-72 11-101 3-5-2-10-5-14-9-2-8-3-13 1-20l18-17c8-6 10-13 11-22l1-5c2-11 2-21 2-31h-1v-6h2c0-8 0-8-3-10v-6h2l-2-4v-7l-2-8-4-1-20-2-7-1-6-1h-7l-13-2 1 2-4-1-1-2-12-3-7-1-8-1c-4 16-6 32-8 48l2 1h-3v5l-1 16v6l-1 6-1 12-1 6-1 13-2 14-1 6c-3 8-5 14-12 19-16 9-33 8-50 8h-5c-16 0-31-1-46-9-4-5-4-5-5-12 1-10 5-16 11-24 4-5 5-9 4-16l-1-6-1-6-10-41h-2v-9l-3-15-1-7a563 563 0 00-5-27l-1-6c-2-18-3-37-3-55l-1-6v-6l-1-9h2l1-7 4-47 1-13h2c1-10-1-17-5-26-18-40-13-89 3-130l4-8c3-5 3-5 1-9l-8-6c-5-4-8-9-12-14v-2l-2-1c-7-19-6-35 2-53 9-17 20-26 37-34 17-4 31-3 46 6m301 92-15 10c1 6 4 11 6 16l10 31h3l-2 1 1 4c2 17 4 35 4 52 0 9 2 15 6 23 6 15 10 32 13 49l3 11c3 43 1 83-8 125v9c34-16 62-48 76-83l3-8c6-14 10-27 11-42h1l2-11v-35l-1-6v-4l-2 2 1-4c0-7-2-14-4-21l-2-5-2-6-1-5c-1-5-1-5-3-6l-1-4-9-18-3 1-1-2 3-1c-14-23-32-43-55-58h-2l-4-4c-12-8-12-8-26-10z"/><path class="icon-light" d="M559 285c32 28 52 66 56 109 1 35-2 68-27 95l-6 6-3 4c-18 16-39 25-61 33l-26 11a101 101 0 01-98-3l-30-12c-34-12-62-33-78-66-16-37-13-81 2-118 20-41 52-74 95-90 62-22 126-11 176 31"/><path class="icon-dark" d="M521 361c17 12 33 34 38 54 0 14 0 22-8 33-8 8-16 11-26 11-7 0-7 0-13-3-5-6-7-11-9-18-4-10-9-19-15-28-8-11-10-19-9-33 3-8 6-12 13-17 10-4 19-3 29 1m-124 0c7 4 11 9 14 17 1 15-5 25-13 38-6 9-10 18-13 28-2 6-3 8-9 12-8 3-14 3-22 0-9-4-15-9-20-18-5-14-2-27 5-39 11-20 32-47 58-38"/><path class="icon-dark" d="M430 460h38l12 2c4 5 4 5 4 14-4 10-11 14-21 19-7 3-7 3-8 6v10c5 6 5 6 11 6l22-4h7c-2 7-4 11-10 15-8 4-14 5-23 4l-9-4c-7 0-7 0-14 3-10 3-17 3-27-1-8-4-12-8-15-17 8 0 14 1 21 3 8 1 11 1 18-2 3-4 3-4 2-12-5-6-10-8-16-11-7-4-10-8-14-15 0-9 0-9 3-14 7-2 12-2 19-2"/></svg>