<?xml version="1.0" encoding="utf-8"?>
<!-- Generator: Adobe Illustrator 16.0.0, SVG Export Plug-In . SVG Version: 6.00 Build 0)  -->
<!DOCTYPE svg PUBLIC "-//W3C//DTD SVG 1.1//EN" "http://www.w3.org/Graphics/SVG/1.1/DTD/svg11.dtd">
<svg version="1.1" id="Layer_1" xmlns="http://www.w3.org/2000/svg" xmlns:xlink="http://www.w3.org/1999/xlink" x="0px" y="0px"
	 width="32px" height="32px" viewBox="0 0 32 32" enable-background="new 0 0 32 32" xml:space="preserve">
<g>
	<path fill="#4B4B4D" d="M17.258,7.802C17.487,7.896,17.737,7.95,18,7.95c1.077,0,1.95-0.873,1.95-1.95S19.077,4.05,18,4.05
		c-1.076,0-1.95,0.873-1.95,1.95c0,0.263,0.054,0.513,0.147,0.742l-9.455,9.456C6.513,16.104,6.263,16.05,6,16.05
		c-1.076,0-1.95,0.873-1.95,1.95S4.924,19.95,6,19.95c1.077,0,1.95-0.873,1.95-1.95c0-0.263-0.054-0.513-0.147-0.742L17.258,7.802z"
		/>
	<path fill="#4B4B4D" d="M28.03,13.03L26.97,11.97l-6.228,6.228C20.513,18.104,20.263,18.05,20,18.05c-1.077,0-1.95,0.873-1.95,1.95
		c0,0.263,0.054,0.513,0.147,0.742L11.97,26.97l1.061,1.061l6.228-6.228c0.229,0.094,0.479,0.147,0.742,0.147
		c1.077,0,1.95-0.873,1.95-1.95c0-0.263-0.054-0.513-0.147-0.742L28.03,13.03z"/>
</g>
</svg>
