<?xml version="1.0" encoding="utf-8"?>
<!-- Generator: Adobe Illustrator 16.0.0, SVG Export Plug-In . SVG Version: 6.00 Build 0)  -->
<!DOCTYPE svg PUBLIC "-//W3C//DTD SVG 1.1//EN" "http://www.w3.org/Graphics/SVG/1.1/DTD/svg11.dtd">
<svg version="1.1" id="Layer_1" xmlns="http://www.w3.org/2000/svg" xmlns:xlink="http://www.w3.org/1999/xlink" x="0px" y="0px"
	 width="32px" height="32px" viewBox="0 0 32 32" enable-background="new 0 0 32 32" xml:space="preserve">
<path fill="#4B4B4D" d="M28.658,18.141c-0.196-0.362-0.651-0.498-1.018-0.299l-7.194,3.924l-0.443-9.964l7.733,2.9l0.527-1.404
	l-24-9L3.736,5.702l2.977,1.116L3.386,11.57c-0.237,0.339-0.155,0.807,0.185,1.044c0.339,0.236,0.807,0.155,1.044-0.185L7.057,8.94
	l1.636,10.019l-4.429-1.661l-0.527,1.404l24,9l0.527-1.404l-7.7-2.888l7.796-4.252C28.723,18.96,28.856,18.505,28.658,18.141z
	 M18.624,11.285l-8.586,6.604L8.329,7.425L18.624,11.285z M10.316,19.568l8.248-6.345l0.427,9.597L10.316,19.568z"/>
</svg>
