<svg class="icon" viewBox="0 0 1024 1024"><path class="icon-light" d="M785 321a302 302 0 0110 10c17 16 32 37 42 59v2l3 1v3l2 4v2l2 2c15 37 21 76 23 116l9 81 1 4 1 4v9l2 1v4a197 197 0 005 32l4 32v2c2 17 2 35-8 49-7 7-18 10-27 13v1h-69v-2l-4 1-18-1c-2-2-4-3-5-6-1-9 0-18 6-25l2-2 2-5 5-3 12-7 4-1v-7l-7-10-1-2a858 858 0 00-17-21l-2-3a39 39 0 00-5-8l-2-2-16-23-1-2-2-2-4-5v3c-4 26-8 52-16 77l-1 2c-5 16-11 32-26 40-13 6-25 6-39 6a3787 3787 0 00-20 0h-43l-1-2-2-4c-3-6-1-13 1-19 6-12 18-18 30-24l3-1 2-4 2-3c4-10 0-22-2-32a17095 17095 0 01-8-54l-4 1v-2h-3l-16-2-1 2h-2v-2l-3-1-20-5-4-1-9-3v2c2 125 2 125-25 154-14 11-31 10-47 10h-54l-1 2v-2h-7c-2 0-3-1-5-3l-2 1-1-5h2v-2c-1-10 3-18 9-26 6-6 12-10 20-14 6-3 6-3 9-9 1-19-7-39-13-57l-2 1v-2l-4-15h-2v-3c-1-5-4-9-6-14h-2v-2l-4-7-1-3-2-2-2-3a133 133 0 00-20-24l-6-6-2-4h-2l-3-3-17-17-2-1a86 86 0 00-65-23l-4 1h-6c-28 0-57 9-83 18a465 465 0 01-39 10h-17v-3l-3-1c-6-2-10-6-15-10l-7-5c-5-3-7-6-8-12-1-15 14-30 22-41l5-6 2-3 2-2 3-4c5-5 6-9 7-15 4-17 13-31 26-42h2l1-2a42 42 0 015-10l4-4 2-4c6-3 11-5 18-6s13-5 20-9l10-6 3-1 20-10 10-5 18-9c40-21 83-39 128-49h3c23-5 45-2 67 3 26 6 50 3 76 0 76-10 158-18 220 37m-518 65-1 7c4 0 6 0 10-2 5-1 9-2 14 0 4 2 6 4 8 8s2 9 2 14l3 4 2 1v-2l1-1c5-5 4-12 4-18 0-8-4-13-10-18-10-6-25 0-33 7m-78 58v3l-3-1-1 1 1 7 5 2 5-3v-6l-4 1v-4z"/><path class="icon-light" d="M334 530c5 1 8 3 11 6l2 2a393 393 0 0170 75l2 2c3 8-1 19-3 26l-1 2c-20 78-20 78-46 96l-11 4-2 1c-8 2-17 1-25 1a7305 7305 0 00-52 0h-4l-8-2c-2-3-2-6-2-10 1-10 6-19 14-25 6-5 12-7 18-9 8-4 13-8 17-16 4-10 7-22 6-33l1-4 2-8v-2a1141 1141 0 005-45v-3a7706 7706 0 006-58"/></svg>