<svg class="icon" viewBox="0 0 1024 1024"><path class="icon-dark" d="M431 224c8 10 7 22 6 34-2 20-7 38-15 57l5 2 7 5c14 7 31 5 47 5a3868 3868 0 0159 1v2h5l25 5 8 1v2l7 1c14 5 27 11 40 18l6 3 8 6 4 3c41 30 71 74 81 125v5c10-4 17-8 25-16h2l2-4 3-4c19-25 23-56 25-86 3-28 10-57 31-78 9-7 18-10 29-9 14 3 23 13 32 25a181 181 0 0117 153l-2 7-2 1-2 6c-6 12-12 23-20 33l-4 5-3 4h-2l-2 5-7 4v2c-33 28-74 41-117 41v25c0 22 2 41 12 62 4 11 2 23 0 34l-1 5c-3 18-7 35-13 52v3h-2l-2 6c-7 10-14 13-26 16-39 3-39 3-54-3-6-7-6-7-6-17 3-9 8-16 16-21l9-2 13-4c5-9 8-22 5-32-7-6-14-11-22-15-38-25-38-25-45-38v5c-1 21-4 40-10 60l-2 7-1 4-2 1-3 9c-8 17-16 32-34 39-13 3-27 3-41 3h-4c-7 0-12 0-18-3-4-6-5-9-4-16 3-8 6-12 13-17l19-5c5-2 5-2 9-8 6-17 6-17 3-34l-6-11h-2l-1-5-8-13c-17-28-17-28-17-32l-5 1-6 1h-6l-12 1v3a427 427 0 01-7 43c-14 78-14 78-33 94-15 8-32 7-48 7h-6c-7 0-13 0-20-3-4-5-6-8-6-15 2-10 6-17 15-23l14-5c5-2 5-2 7-9 4-31 1-67-18-93-5-6-10-12-17-15v3l-4 16-1 6-2 7-2 7c-26 104-26 104-43 117-13 7-27 6-41 7h-5c-20 0-20 0-28-6-3-7-3-9-2-17 4-9 7-15 16-19l10-3 7-5c2-9 2-19 2-28v-5c1-36 1-36-7-70v-4c-3-21-9-42-14-62h-2v-8l-2-7v-4l-2-1-1-8-4-19-1-12-2-1-1-14-1-8v-7l-1-8 1-8-5-2c-24-13-46-27-66-45l-4-4c-5-4-10-8-14-14-2-3-2-3-5-4-2-24 11-39 26-57a341 341 0 0113-15l3-3 7-10-2-9c-15-62-15-62-7-79 8-7 12-7 23-7 24 2 45 22 61 38l12-2c24-5 49-7 73-1l9 1 10-10c18-15 47-37 71-22M182 366l-2 1v2l-3 1v2h-2l-7 8-5 6-4 5c1 5 3 7 7 10l3 3c3 3 3 3 7 4l12-14c16-17 35-35 59-39 12-1 19 2 29 8l3 1v2l7 5c5-9 5-17 3-26-4-8-11-11-19-14-34-7-65 12-88 35m139-25c-4 10-4 20-1 30l2 1 5-5c10-8 17-12 30-12 31 6 54 27 73 51l5 5c9-7 9-7 17-16-4-18-29-36-43-46-23-14-66-32-88-8m487 41-1 24v13l17 4c15 3 30 7 44 13l7 1c1-22 1-22-3-44-4-4-4-4-11-5l-5-1c-15-4-33-8-48-5m-481 22c-5 5-7 9-9 15v5l-1 1c0 6 1 8 4 12 5 7 6 12 6 20-7 7-12 11-22 11-6 0-10-1-16-4-5-6-6-9-6-17l9-15c1-9-2-17-7-25h-8c-6 5-11 11-16 18l-3 5c-8 10-8 10-9 22 12 17 25 30 45 34 16 3 30-1 44-10 8-7 17-15 21-26 0-15-9-26-19-37-4-4-7-6-13-9m465 68a426 426 0 00-21 26c3 6 7 9 12 14l3 4 16 16 7 8 4 3c15-7 26-21 35-34-1-5-3-6-8-9l-5-3c-21-15-21-15-43-25"/></svg>