<?xml version="1.0" encoding="utf-8"?>
<!-- Generator: Adobe Illustrator 16.0.0, SVG Export Plug-In . SVG Version: 6.00 Build 0)  -->
<!DOCTYPE svg PUBLIC "-//W3C//DTD SVG 1.1//EN" "http://www.w3.org/Graphics/SVG/1.1/DTD/svg11.dtd">
<svg version="1.1" id="Layer_1" xmlns="http://www.w3.org/2000/svg" xmlns:xlink="http://www.w3.org/1999/xlink" x="0px" y="0px"
	 width="32px" height="32px" viewBox="0 0 32 32" enable-background="new 0 0 32 32" xml:space="preserve">
<path fill="#4B4B4D" d="M25.25,22.783V9.217c0.662-0.29,1.125-0.949,1.125-1.717c0-1.035-0.84-1.875-1.875-1.875
	c-0.768,0-1.427,0.463-1.717,1.125H9.217C8.927,6.088,8.268,5.625,7.5,5.625c-1.035,0-1.875,0.84-1.875,1.875
	c0,0.768,0.463,1.427,1.125,1.717v13.566c-0.662,0.29-1.125,0.949-1.125,1.717c0,1.035,0.84,1.875,1.875,1.875
	c0.768,0,1.427-0.463,1.717-1.125h13.566c0.29,0.662,0.949,1.125,1.717,1.125c1.035,0,1.875-0.84,1.875-1.875
	C26.375,23.732,25.912,23.073,25.25,22.783z M22.783,23.75H9.217c-0.189-0.432-0.535-0.777-0.967-0.967V9.217
	C8.682,9.027,9.027,8.682,9.217,8.25h13.566c0.189,0.432,0.535,0.777,0.967,0.967v13.566C23.318,22.973,22.973,23.318,22.783,23.75z
	"/>
</svg>
