<svg class="icon" viewBox="0 0 1024 1024"><path class="icon-dark" d="m240 237 7 8 4 1 8-3c12-5 24-8 36-11l3-1c25-5 53-4 78 1h5l6 2 5 1 3 1 9 3h3l3 3 6 2 2 1h7l5-5a118 118 0 0176-36c5 0 8 1 11 4 4 6 4 14 4 22v3c0 19-4 38-8 58l-1 5h-2l-1 4-5 15c-3 7-3 7-2 14l2 3 7 14 1 2c10 19 20 44 14 66-3 7-6 15-11 22l7 2 2 1 13 1v2h2l85 4h4c22 4 42 12 61 25l2 1c19 14 33 31 43 52 15-2 28-12 38-24 12-17 14-36 10-56a205 205 0 00-38-80l-1-2-3-6h-2l-1 2v-2c0-5-1-8-3-12-4-12-3-26 2-37q10.5-18 30-24l14-2 5-1 8 1 6 2c13 2 25 9 36 18l2 2a144 144 0 0136 49q6 10.5 9 24l2 3 2 12 2 1 2 12 1 7c6 44 1 91-26 127-20 27-49 48-83 54l-16 1h-2l-13-1-4-1h-2v29c1 23 3 43 14 64a59 59 0 017 28c1 28-3 57-8 84l-1 3c-3 11-6 20-15 28-6 4-12 6-19 6h-25c-27 0-27 0-37-8l-1-2-3-1c0-12 1-23 10-32l8-7c6-4 10-9 12-16 2-16 1-32-8-45-5-5-10-9-16-12v-2l-2-1-10-6-2-2-18-15-2 1 2 8c3 19-2 38-7 56l-1 3-6 21-1 3c-4 13-9 24-21 31-8 2-15 2-22 2h-30c-7 0-14-1-21-5l-1 2-1-5-2-3c-2-7-1-15 2-22l3-3 2-2 4-4c11-8 20-15 23-29 1-11 2-28-5-37l-2-2 2-1-2-5-1-3-3-4v-2h-3l-12 2h-25v2l-3 25-1 2c-16 97-16 97-39 115-6 5-13 7-21 8v1l-9 1-7-1-2 1h-2l-1-2-3 1h-12v-2l-2 2h-7v-1l-3-1c-15-3-15-3-20-8-4-8-4-15-2-23 3-10 10-16 18-22 7-6 8-14 9-23 2-28-3-53-14-79h-4l-31-4v2l-5 22-1 4a4821 4821 0 01-18 68l-1 2-7 24-1 2c-4 11-9 19-18 24-6 3-11 4-18 4h-2l-23 1v1h-21l-7-2-5-2c-6-2-10-4-13-9-4-8-3-16 0-24 3-9 10-15 17-22 11-10 16-20 17-35v-2l1-32h1a901 901 0 002-72l-2-1v-6l-3-14v-8l-2-1v-12l-2-1v-6l-1-5v-2l-1-10-1-54-2-1h2v-22l1-6-3-1a175 175 0 01-60-38c-11-9-20-21-22-36l-2-1c2-26 10-51 24-74l3-10a169 169 0 00-7-16v-2l-1-5-3-1h2l-1-4c-18-58-18-58-9-82 3-5 5-7 10-8 27-5 58 16 77 32m6 117v2h-2c-22 22-39 56-45 86l8 5 3 2 2 1 3 1 14 7 3-1v-2c-1-18 1-33 9-49l1-2c6-11 12-22 20-32l1-4 2-1 4-2c5-3 9-4 15-3 6 2 9 5 13 10 5-6 6-11 6-19 0-6-2-9-6-12-16-13-39 1-51 13m130-13v3l-3 1c-3 6-3 14-1 20l3 6 1-1c6-5 11-9 19-8 6 1 10 3 14 7l5 7h2l1 2 5 9c13 22 24 48 19 74v2c5-1 8-2 12-5l2-1c10-5 10-5 19-12 0-6-2-11-4-16v-3l-2-5-3 1 1-2c1-3 0-6-2-9l-1-2-3-6-3-7-1-2-4-7-6-10-2-2-1-2-2-2-4-5-3-4-6-7h-2l-1-2-4-3-2-2c-7-7-16-11-25-11h-4c-6 0-9 1-14 4m470 20-4 1-3 1-4 1c-18 5-35 11-52 19l3 9 1 3 2 2 10 21 3-1c23-5 45-7 68-7l-1-5-2 1 1-2-2-12-1-3-2-5h-3l2-1-3-9h-2l1-2-2-7-1-2c-2-4-5-3-9-2m-541 36v2l-2 1c-12 7-20 27-24 39-3 14-2 28 5 40l5 6 2 2c6 7 15 12 24 14l7 2c18 3 38 1 53-9l7-5v-2l3-1c9-12 12-24 11-39-2-17-11-33-23-45l-3-3-8-6-2-1c-16-13-41-9-55 5m501 69v2l-7 29 13 6 21 10 2 1 15 9q10.5-15 15-33l1-2v-12h-2v-4c-19-4-38-5-58-6m59 7v2h2l1 2v-4zM547 698l1 2ZM229 830v1h7v-1zm174 7v1h6v-1zm17 0v1h6v-1zm7 0v1h6v-1z"/><path class="icon-dark" d="M334 418h14c6 0 10 2 13 6 4 4 4 8 3 14-3 9-9 13-17 17v6c0 3 1 4 4 6h6c5 0 8 0 12 3 2 2 2 4 2 7-1 3-4 5-7 7-8 2-13 2-21-1l-8-2-6 3-8 1-5 3-2-1v-2l-3-1c-4-1-5-2-7-5v-7c1-2 2-3 5-4l7-1 11-1 1-4v-2l-2-5-3-1-5-4-6-2v-3l-2-6c-1-6-1-9 1-14 5-9 14-7 23-7"/><path class="icon-dark" d="m744 588 6 1h36c-6 5-13 4-20 4h-2l-19-2v44h-1l-1-38h-1v-7z"/></svg>