<?xml version="1.0" encoding="utf-8"?>
<!-- Generator: Adobe Illustrator 21.1.0, SVG Export Plug-In . SVG Version: 6.00 Build 0)  -->
<svg version="1.1" id="Layer_1" xmlns="http://www.w3.org/2000/svg" xmlns:xlink="http://www.w3.org/1999/xlink" x="0px" y="0px"
	 viewBox="0 0 43 43" style="enable-background:new 0 0 43 43;" xml:space="preserve">
<style type="text/css">
	.st0{fill:none;stroke:#666666;stroke-width:2;stroke-miterlimit:10;}
</style>
<path class="st0" d="M8,2C4.7,2,2,4.7,2,8V35c0,3.3,2.7,6,6,6H35c3.3,0,6-2.7,6-6V8c0-3.3-2.7-6-6-6H8z"/>
<g>
	<path class="st0" d="M29,14H14v18.7c0,0.7,0.6,1.3,1.3,1.3h12.4c0.7,0,1.3-0.6,1.3-1.3V14z"/>
	<line class="st0" x1="19" y1="17" x2="19" y2="31"/>
	<line class="st0" x1="24" y1="17" x2="24" y2="31"/>
	<line class="st0" x1="11" y1="14" x2="32" y2="14"/>
	<rect x="19" y="10" class="st0" width="5" height="4"/>
</g>
</svg>
