<?xml version="1.0" encoding="utf-8"?>
<!-- Generator: Adobe Illustrator 16.0.0, SVG Export Plug-In . SVG Version: 6.00 Build 0)  -->
<!DOCTYPE svg PUBLIC "-//W3C//DTD SVG 1.1//EN" "http://www.w3.org/Graphics/SVG/1.1/DTD/svg11.dtd">
<svg version="1.1" id="Layer_1" xmlns="http://www.w3.org/2000/svg" xmlns:xlink="http://www.w3.org/1999/xlink" x="0px" y="0px"
	 width="32px" height="32px" viewBox="0 0 32 32" enable-background="new 0 0 32 32" xml:space="preserve">
<g>
	<polygon fill="#4B4B4D" points="8.749,21.25 12.75,21.25 12.75,26 14.25,26 14.25,19.75 12.37,19.75 15.999,16.12 19.629,19.75 
		17.75,19.75 17.75,26 19.25,26 19.25,21.25 23.25,21.25 16,14 	"/>
	<path fill="#4B4B4D" d="M9.502,12.75H26.88l-2.713,6.588l1.135,1.135l3.818-9.223h-3.87v-4.5H14.34l-2.5-3H4.75v17.388l2.208-2.208
		L9.502,12.75z M6.25,5.25h4.91l2.5,3h10.09v3H8.498L6.25,16.71V5.25z"/>
</g>
</svg>
