<?xml version="1.0" encoding="utf-8"?>
<!-- Generator: Adobe Illustrator 16.0.0, SVG Export Plug-In . SVG Version: 6.00 Build 0)  -->
<!DOCTYPE svg PUBLIC "-//W3C//DTD SVG 1.1//EN" "http://www.w3.org/Graphics/SVG/1.1/DTD/svg11.dtd">
<svg version="1.1" id="Layer_1" xmlns="http://www.w3.org/2000/svg" xmlns:xlink="http://www.w3.org/1999/xlink" x="0px" y="0px"
	 width="32px" height="32px" viewBox="-1 -1 32 32" enable-background="new -1 -1 32 32" xml:space="preserve">
<g id="Robocza">
	<path fill="#4B4B4D" d="M7.504,17.384l1.489-1.489H7.607c-1.852,0-3.357-1.506-3.357-3.357s1.506-3.356,3.357-3.356
		c0.25,0,0.513,0.037,0.828,0.116l0.738,0.186L9.349,8.74C9.97,6.097,12.294,4.25,15,4.25c2.081,0,4.018,1.146,5.052,2.991
		l0.263,0.465l0.524-0.094c0.293-0.053,0.521-0.076,0.733-0.076c2.304,0,4.178,1.874,4.178,4.178c0,2.306-1.874,4.181-4.178,4.181
		h-0.566l1.428,1.429c2.724-0.417,4.816-2.77,4.816-5.608c0-3.131-2.547-5.678-5.678-5.678c-0.157,0-0.314,0.008-0.483,0.025
		C19.739,4.007,17.451,2.75,15,2.75c-3.165,0-5.915,2.005-6.915,4.957C7.923,7.688,7.765,7.68,7.607,7.68
		c-2.679,0-4.857,2.179-4.857,4.856C2.75,15.18,4.874,17.327,7.504,17.384z"/>
	<polygon fill="#4B4B4D" points="22.25,20.25 15,13 7.749,20.25 11.75,20.25 11.75,25 13.25,25 13.25,18.75 11.37,18.75 
		14.999,15.12 18.629,18.75 16.75,18.75 16.75,25 18.25,25 18.25,20.25 	"/>
</g>
<g id="TXT_over">
</g>
</svg>
