<?xml version="1.0" encoding="utf-8"?>
<!-- Generator: Adobe Illustrator 16.0.0, SVG Export Plug-In . SVG Version: 6.00 Build 0)  -->
<!DOCTYPE svg PUBLIC "-//W3C//DTD SVG 1.1//EN" "http://www.w3.org/Graphics/SVG/1.1/DTD/svg11.dtd">
<svg version="1.1" id="Layer_1" xmlns="http://www.w3.org/2000/svg" xmlns:xlink="http://www.w3.org/1999/xlink" x="0px" y="0px"
	 width="32px" height="32px" viewBox="-1 -1 32 32" enable-background="new -1 -1 32 32" xml:space="preserve">
<g id="Robocza">
	<g>
		<path fill="#4B4B4D" d="M13.591,4.751L11.84,2.75H4.75v17.389l1.443-1.443l0.057-0.057V4.25h4.91l3.5,4h9.006v10.305l0.141,0.141
			l1.359,1.359V4.751H13.591z M23.666,6.75H15.34l-0.437-0.499h8.763V6.75z"/>
		<polygon fill="#4B4B4D" points="7.749,20.25 11.75,20.25 11.75,25 13.25,25 13.25,18.75 11.37,18.75 14.999,15.12 18.629,18.75 
			16.75,18.75 16.75,25 18.25,25 18.25,20.25 22.25,20.25 15,13 		"/>
	</g>
</g>
<g id="TXT_over">
</g>
</svg>
