<?xml version="1.0" encoding="utf-8"?>
<!-- Generator: Adobe Illustrator 16.0.0, SVG Export Plug-In . SVG Version: 6.00 Build 0)  -->
<!DOCTYPE svg PUBLIC "-//W3C//DTD SVG 1.1//EN" "http://www.w3.org/Graphics/SVG/1.1/DTD/svg11.dtd">
<svg version="1.1" id="Layer_1" xmlns="http://www.w3.org/2000/svg" xmlns:xlink="http://www.w3.org/1999/xlink" x="0px" y="0px"
	 width="32px" height="32px" viewBox="0 0 32 32" enable-background="new 0 0 32 32" xml:space="preserve">
<path fill="#4B4B4D" d="M8.504,18.384l1.489-1.489H8.607c-1.852,0-3.357-1.507-3.357-3.358c0-1.851,1.506-3.356,3.357-3.356
	c0.25,0,0.513,0.037,0.828,0.116l0.738,0.186l0.175-0.741C10.97,7.097,13.294,5.25,16,5.25c2.081,0,4.018,1.146,5.052,2.991
	l0.262,0.465l0.525-0.094c0.293-0.053,0.52-0.076,0.733-0.076c2.304,0,4.178,1.874,4.178,4.178c0,2.306-1.874,4.181-4.178,4.181
	h-0.566l1.428,1.428c2.723-0.417,4.816-2.77,4.816-5.608c0-3.131-2.547-5.678-5.678-5.678c-0.157,0-0.314,0.008-0.483,0.025
	C20.739,5.007,18.451,3.75,16,3.75c-3.165,0-5.915,2.005-6.915,4.957C8.923,8.688,8.765,8.68,8.607,8.68
	c-2.679,0-4.857,2.179-4.857,4.856C3.75,16.18,5.874,18.327,8.504,18.384z"/>
<polygon fill="#4B4B4D" points="23.25,21.25 16,14 8.749,21.25 12.75,21.25 12.75,26 14.25,26 14.25,19.75 12.37,19.75 
	15.999,16.12 19.629,19.75 17.75,19.75 17.75,26 19.25,26 19.25,21.25 "/>
</svg>
