<?xml version="1.0" encoding="utf-8"?>
<!-- Generator: Adobe Illustrator 16.0.0, SVG Export Plug-In . SVG Version: 6.00 Build 0)  -->
<!DOCTYPE svg PUBLIC "-//W3C//DTD SVG 1.1//EN" "http://www.w3.org/Graphics/SVG/1.1/DTD/svg11.dtd">
<svg version="1.1" id="Layer_1" xmlns="http://www.w3.org/2000/svg" xmlns:xlink="http://www.w3.org/1999/xlink" x="0px" y="0px"
	 width="32px" height="32px" viewBox="-1 -1 32 32" enable-background="new -1 -1 32 32" xml:space="preserve">
<g id="Robocza">
	<g>
		<polygon fill="#4B4B4D" points="6,25 7,25 7,22 8,22 8,17 7,17 7,13 6,13 6,17 5,17 5,22 6,22 		"/>
		<polygon fill="#4B4B4D" points="12,19 13,19 13,16 14,16 14,10 13,10 13,5 12,5 12,10 11,10 11,16 12,16 		"/>
		<polygon fill="#4B4B4D" points="18,24 19,24 19,21 20,21 20,17 19,17 19,13 18,13 18,17 17,17 17,21 18,21 		"/>
		<polygon fill="#4B4B4D" points="23,16 24,16 24,13 25,13 25,9 24,9 24,5 23,5 23,9 22,9 22,13 23,13 		"/>
	</g>
</g>
<g id="TXT_over">
</g>
</svg>
