<?xml version="1.0" encoding="utf-8"?>
<!-- Generator: Adobe Illustrator 16.0.0, SVG Export Plug-In . SVG Version: 6.00 Build 0)  -->
<!DOCTYPE svg PUBLIC "-//W3C//DTD SVG 1.1//EN" "http://www.w3.org/Graphics/SVG/1.1/DTD/svg11.dtd">
<svg version="1.1" id="Layer_1" xmlns="http://www.w3.org/2000/svg" xmlns:xlink="http://www.w3.org/1999/xlink" x="0px" y="0px"
	 width="32px" height="32px" viewBox="0 0 32 32" enable-background="new 0 0 32 32" xml:space="preserve">
<g>
	<polygon fill="#4B4B4D" points="8.3,6.001 6.7,6.001 6.7,9.75 3.75,9.75 3.75,11.25 6.7,11.25 6.7,24 8.3,24 8.3,19.25 
		11.25,19.25 11.25,17.75 8.3,17.75 	"/>
	<polygon fill="#4B4B4D" points="17.3,13 15.7,13 15.7,24.75 12.75,24.75 12.75,26.25 15.7,26.25 15.7,28 17.3,28 17.3,22.25 
		20.25,22.25 20.25,20.75 17.3,20.75 	"/>
	<polygon fill="#4B4B4D" points="28.25,21.75 25.3,21.75 25.3,4 23.7,4 23.7,5.75 20.75,5.75 20.75,7.25 23.7,7.25 23.7,26 25.3,26 
		25.3,23.25 28.25,23.25 	"/>
</g>
</svg>
