<svg class="icon" viewBox="0 0 1024 1024"><path class="icon-dark" d="M277 233c5 3 10 0 16-2 12-3 24-4 36-5l5-1v-1h14v1l14 1 33 6c9 2 9 2 15-4 10-10 26-12 39-12l1 2 7 1c18 8 28 22 28 42l-5 17-1 3-5 5v1a335 335 0 0067 0 1183 1183 0 01111 1v2l11 2 6 1 19 5 7 1 15 5 4 1a285 285 0 0163 38l3 2 3 3 8 9 11 12c3 6 3 6 6 6l1 4 7 12c27 43 27 93 27 143v9l-2 109-1 6v17l-1 19-2 20c-1 20-3 38-11 56l-3 8-5 5-3 3c-18 17-43 15-66 15h-30c-11 0-18-1-21-13-1-19 7-30 21-42v-2l4-1c8-7 14-14 9-25l-2-10-2-1a896 896 0 01-14-28l-3-6c-2-5-2-5-6-6l-1-6c-2-5-2-5-5-5l-2-3-1 5-4 30c-12 92-12 92-61 100l-14 1c-9 0-9 0-17 2v-2l-3 2h-5v-1h-11v1h-5v-2h-8c-11-3-14-5-14-17 0-17 9-27 22-37 16-13 15-22 12-41v-6l-2-1v-7l-2-6-1-6c-1-9-1-9-7-15v-5c-6-9-12-14-23-16l-5 18c-39 154-39 154-130 154h-16c-9 0-16-2-19-12-1-20 9-33 24-46 19-16 17-30 15-53v-6c1-4 1-4-2-5l-3-22-2-6c-1-10-1-10-7-15l1-5c-3-8-3-8-9-13l-1-4c-4-5-7-7-13-10l-8 62v5c-2 10-2 19-2 29h-2l-4 25c-4 35-15 67-54 73l-36 1h-19c-7 0-13-1-19-5l-2-1c-2-17-2-17 0-25h2l2-6c3-5 3-5 5-5l2-4 4-2v-2l4-3 4-3-1-2 6-2c7-7 9-12 7-22h-2l-1-17-2-12-1-7c0-5 0-5-3-7h2l-4-18-1-12c-1-18-1-18-7-35l-2-28-5-52-1-13v-56h1c1-5 1-5-4-8l-3-3-9-9-2-4-10-14-1-2-4-2 1-3c-2-7-2-7-8-11l-2-14-1-6c-8-29-5-62 7-90l-5-1-1-6a394 394 0 00-12-18l-2-1c-1-9-1-9 1-11h-2v-5h2v-7l5-13 1-3 5-4 1-2h2l1-3c24-13 48-11 68 10m-12 76-1 5c-2 0-2 0-3-2a54 54 0 00-17 41l3-3 4-3 3-3c6-5 12-8 19-11l-3-4 6-1v-3l1-5-2-2 2-3c3-7 3-7-1-12-4 0-8 4-11 6m149 1 2 3v-3zm9 8v2l-6-1-1 5-3 1 1 3-3 2-1 4 9 3 5 4 4 3 11 10h2l1 2c1-5 1-5-1-6l-1-8c-3-8-3-8-6-8l-2-7c-3-2-3-2-6-1l-1-7zm-143 11 4 1Zm-4 1 4 1Zm-67 70 1 2Zm1 3 1 2Zm64 310 1 4Z"/><path class="icon-light" d="M317 300c18 5 33 4 51-1 13-3 26-3 38 5l3 1 2 2 3 3c9 7 9 7 9 10h-5l-2 5h-2l1 2 1 3h-4v3l-7-1c-17-2-31-2-38 16-2 17 7 27 17 41 16 23 16 49-3 71a63 63 0 01-75 7c-19-16-27-37-19-61l14-23c11-14 19-27 8-44-11-9-24-10-38-7l-2-3 6-2-1-4 2-1-2-5 2-2 2-9-2-1c1-4 1-4 8-5l2-2c11-2 20-1 31 2"/></svg>