<svg width="512" height="512" viewBox="0 0 512 512" fill="none" xmlns="http://www.w3.org/2000/svg">
<circle cx="256" cy="256" r="251" fill="#01AA03" stroke="white" stroke-width="10"/>
<path d="M420.168 174.13C420.168 143.854 397.192 118.952 367.725 115.893C359.454 93.59 338.05 77.6626 312.863 77.6626C301.837 77.6626 291.562 80.7665 282.761 86.0628C272.751 68.1378 253.617 56 231.624 56C202.467 56 178.353 77.3393 173.878 105.236C171.499 104.945 169.093 104.745 166.636 104.745C134.297 104.745 108.075 130.96 108.075 163.305C108.075 164.89 108.191 166.442 108.315 167.994C91.9158 178.373 81 196.621 81 217.462C81 235.886 89.5233 252.297 102.824 263.032C102.766 264.086 102.663 265.133 102.663 266.201C102.663 298.54 128.878 324.762 161.223 324.762C170.917 324.762 180.034 322.369 188.086 318.205C199.24 326.217 215.213 336.24 222.946 334.242C222.946 334.242 225.824 378.809 225.203 390.126C224.019 411.659 217.559 435.631 213.014 455.031H283.421C283.421 455.031 273.043 411.783 272.589 397.343C272.137 382.902 277.103 356.312 277.103 356.312L301.528 331.048C310.929 337.476 322.285 341.129 334.533 341.129C364.809 341.129 389.712 318.095 392.77 288.627C415.073 280.357 431 258.894 431 233.707C431 218.834 425.413 205.306 416.282 194.973C418.752 188.492 420.168 181.483 420.168 174.13ZM201.613 308.537C206.307 304.055 210.246 298.818 213.252 293.004L224.75 317.092C224.744 317.092 218.49 319.853 201.613 308.537ZM244.603 323.41C238.653 324.49 228.52 306.17 221.329 291.277C229.303 295.345 238.304 297.686 247.874 297.686C250.332 297.686 252.744 297.486 255.124 297.188C253.274 309.106 250.015 322.42 244.603 323.41ZM269.88 335.134C256.119 338.955 264.358 310.45 268.302 293.948C271.154 292.888 273.916 291.64 276.541 290.159C278.125 302.186 283.35 313.037 291.091 321.618C284.384 327.575 276.663 333.252 269.88 335.134Z" fill="white"/>
</svg>
