<svg width="20" height="20" viewBox="0 0 20 20" fill="none" xmlns="http://www.w3.org/2000/svg">
<rect width="20" height="20" rx="10" fill="#00AC22"/>
<path d="M7.44358 14.4263L9.99913 10M12.2214 6.15099C10.3044 5.04423 7.90564 5.52783 6.55291 7.19241C6.42088 7.35488 6.35486 7.43612 6.33566 7.55251C6.32038 7.64512 6.34301 7.76784 6.39032 7.8489C6.44979 7.95078 6.55518 8.01163 6.76597 8.13333L13.2323 11.8667C13.4431 11.9884 13.5485 12.0492 13.6664 12.0498C13.7603 12.0502 13.8779 12.0085 13.9505 11.9489C14.0417 11.8741 14.079 11.7763 14.1537 11.5807C14.9189 9.57693 14.1383 7.25776 12.2214 6.15099ZM12.2214 6.15099C11.3711 5.66007 9.68683 6.98536 8.45953 9.11111M12.2214 6.15099C13.0717 6.64191 12.766 8.76314 11.5387 10.8889M14.4436 14.4444H5.55469" stroke="white" stroke-width="0.666667" stroke-linecap="round" stroke-linejoin="round"/>
</svg>
