<svg class="w-6 h-6" height="40" width="40" xmlns="http://www.w3.org/2000/svg"><defs><linearGradient x1="0%" y1="100%" x2="100%" y2="0%" id="Arch_AWS-Database-Migration_32_svg__a"><stop stop-color="#2E27AD" offset="0%"></stop><stop stop-color="#527FFF" offset="100%"></stop></linearGradient></defs><g fill="none" fill-rule="evenodd"><path d="M0 0h40v40H0z" fill="url(#Arch_AWS-Database-Migration_32_svg__a)"></path><path d="M22.024 33h1v-2.997h-1V33zm-5.019 0h1v-2.997h-1V33zM26 32.001h1v-2.996h-1V32zm-13 0h1v-2.996h-1V32zm7.018-14.96c-3.717 0-6.018-.958-6.018-1.847v-3.548c1.173.885 3.304 1.418 6.018 1.418 2.604 0 4.782-.583 5.982-1.49v3.62c0 .908-2.238 1.847-5.982 1.847zm0 5.019c-3.547 0-6.018-1.084-6.018-2.057V16.8c1.34.892 3.805 1.24 6.018 1.24 2.725 0 4.825-.462 5.982-1.25v3.213c0 .973-2.456 2.057-5.982 2.057zm0 5.006c-3.491 0-6.018-1.503-6.018-2.516v-2.9c1.294.928 3.664 1.408 6.018 1.408 2.635 0 4.793-.547 5.982-1.416v2.908c0 1-2.386 2.516-5.982 2.516zm0-19.067c3.695 0 5.982.989 5.982 1.905 0 .903-2.276 2.161-5.982 2.161-3.43 0-6.018-.929-6.018-2.161 0-.778 2.143-1.905 6.018-1.905zm0-.999C16.638 7 13 7.909 13 9.904V24.55c0 1.873 3.279 3.515 7.018 3.515 3.719 0 6.982-1.642 6.982-3.515V9.904C27 7.898 23.493 7 20.018 7z" fill="#FFF"></path></g></svg>