<?xml version="1.0" encoding="UTF-8"?>
<svg id="Warstwa_1" data-name="Warstwa 1" xmlns="http://www.w3.org/2000/svg" viewBox="0 0 509.86 501.82">
  <defs>
    <style>
      .cls-1 {
        fill: #e50000;
      }
    </style>
  </defs>
  <path class="cls-1" d="M250.57,0l259.29,251.26-259.29,250.57L0,250.53,250.57,0ZM268.57,320.54c4.08-4.08,5.35-9.74,6.24-15.26,2.96-54.63,14.11-110.54,17.11-164.89,3.31-60.04-69.69-55.99-73.98-12.98-.4,4.04-.21,9.83,0,13.98,2.82,54.29,14.22,110.33,17.09,164.91.65,17.05,21.28,26.51,33.54,14.25ZM250.68,353.15c-37.76,5.11-33.8,62.22,4.69,61.77,42.71-.5,38.23-67.58-4.69-61.77Z"/>
</svg>