<svg xmlns="http://www.w3.org/2000/svg" xmlns:xlink="http://www.w3.org/1999/xlink" version="1.1" width="256" height="256" viewBox="0 0 256 256" xml:space="preserve"><defs></defs><g style="stroke: none; stroke-width: 0; stroke-dasharray: none; stroke-linecap: butt; stroke-linejoin: miter; stroke-miterlimit: 10; fill: none; fill-rule: nonzero; opacity: 1;" transform="translate(1.4065934065934016 1.4065934065934016) scale(2.81 2.81)" ><circle cx="45" cy="45" r="45" style="stroke: none; stroke-width: 1; stroke-dasharray: none; stroke-linecap: butt; stroke-linejoin: miter; stroke-miterlimit: 10; fill: rgb(40,201,55); fill-rule: nonzero; opacity: 1;" transform=" matrix(1 0 0 1 0 0) "/><path d="M 38.478 64.5 c -0.01 0 -0.02 0 -0.029 0 c -1.3 -0.009 -2.533 -0.579 -3.381 -1.563 L 21.59 47.284 c -1.622 -1.883 -1.41 -4.725 0.474 -6.347 c 1.884 -1.621 4.725 -1.409 6.347 0.474 l 10.112 11.744 L 61.629 27.02 c 1.645 -1.862 4.489 -2.037 6.352 -0.391 c 1.862 1.646 2.037 4.49 0.391 6.352 l -26.521 30 C 40.995 63.947 39.767 64.5 38.478 64.5 z" style="stroke: none; stroke-width: 1; stroke-dasharray: none; stroke-linecap: butt; stroke-linejoin: miter; stroke-miterlimit: 10; fill: rgb(255,255,255); fill-rule: nonzero; opacity: 1;" transform=" matrix(1 0 0 1 0 0) " stroke-linecap="round" /></g></svg>