<svg xmlns="http://www.w3.org/2000/svg" xmlns:xlink="http://www.w3.org/1999/xlink" version="1.1" width="256" height="256" viewBox="0 0 256 256" xml:space="preserve"><defs></defs><g style="stroke: none; stroke-width: 0; stroke-dasharray: none; stroke-linecap: butt; stroke-linejoin: miter; stroke-miterlimit: 10; fill: none; fill-rule: nonzero; opacity: 1;" transform="translate(1.4065934065934016 1.4065934065934016) scale(2.81 2.81)" ><path d="M 45 88.11 h 40.852 c 3.114 0 5.114 -3.307 3.669 -6.065 L 48.669 4.109 c -1.551 -2.959 -5.786 -2.959 -7.337 0 L 0.479 82.046 c -1.446 2.758 0.555 6.065 3.669 6.065 H 45 z" style="stroke: none; stroke-width: 1; stroke-dasharray: none; stroke-linecap: butt; stroke-linejoin: miter; stroke-miterlimit: 10; fill: rgb(255,157,0); fill-rule: nonzero; opacity: 1;" transform=" matrix(1 0 0 1 0 0) " stroke-linecap="round" /><path d="M 45 64.091 L 45 64.091 c -1.554 0 -2.832 -1.223 -2.9 -2.776 l -2.677 -25.83 c -0.243 -3.245 2.323 -6.011 5.577 -6.011 h 0 c 3.254 0 5.821 2.767 5.577 6.011 L 47.9 61.315 C 47.832 62.867 46.554 64.091 45 64.091 z" style="stroke: none; stroke-width: 1; stroke-dasharray: none; stroke-linecap: butt; stroke-linejoin: miter; stroke-miterlimit: 10; fill: rgb(255,255,255); fill-rule: nonzero; opacity: 1;" transform=" matrix(1 0 0 1 0 0) " stroke-linecap="round" /><circle cx="44.995999999999995" cy="74.02600000000001" r="4.626" style="stroke: none; stroke-width: 1; stroke-dasharray: none; stroke-linecap: butt; stroke-linejoin: miter; stroke-miterlimit: 10; fill: rgb(255,255,255); fill-rule: nonzero; opacity: 1;" transform=" matrix(1 0 0 1 0 0) "/></g></svg>